G04 #@! TF.FileFunction,Copper,L1,Top,Signal*
%FSLAX46Y46*%
G04 Gerber Fmt 4.6, Leading zero omitted, Abs format (unit mm)*
G04 Created by KiCad (PCBNEW 4.0.0-stable) date Saturday, April 30, 2016 'AMt' 05:13:45 AM*
%MOMM*%
G01*
G04 APERTURE LIST*
%ADD10C,0.100000*%
%ADD11R,0.400000X1.350000*%
%ADD12O,1.250000X0.950000*%
%ADD13O,1.000000X1.550000*%
%ADD14R,0.900000X0.600000*%
%ADD15R,0.500000X0.600000*%
%ADD16R,1.450000X0.450000*%
%ADD17R,0.889000X1.680000*%
%ADD18C,1.500000*%
%ADD19C,6.000000*%
%ADD20R,1.300000X0.700000*%
%ADD21R,1.000000X2.750000*%
%ADD22R,0.500000X0.900000*%
%ADD23R,0.600000X0.700000*%
%ADD24R,0.750000X0.800000*%
%ADD25R,0.900000X0.500000*%
%ADD26R,2.032000X2.032000*%
%ADD27O,2.032000X2.032000*%
%ADD28R,1.060000X0.650000*%
%ADD29R,0.797560X0.797560*%
%ADD30R,0.800100X0.800100*%
%ADD31R,1.300000X1.050000*%
%ADD32R,0.749300X0.398780*%
%ADD33R,1.700000X0.900000*%
%ADD34R,2.235200X2.235200*%
%ADD35R,1.501140X2.148840*%
%ADD36R,0.800000X0.750000*%
%ADD37C,0.600000*%
%ADD38C,0.200000*%
%ADD39C,0.400000*%
%ADD40C,0.600000*%
%ADD41C,0.304800*%
%ADD42C,0.254000*%
G04 APERTURE END LIST*
D10*
G36*
X18515254Y7393577D02*
X18303122Y7181445D01*
X17242462Y8242105D01*
X17454594Y8454237D01*
X18515254Y7393577D01*
X18515254Y7393577D01*
G37*
G36*
X18868808Y7747130D02*
X18656676Y7534998D01*
X17596016Y8595658D01*
X17808148Y8807790D01*
X18868808Y7747130D01*
X18868808Y7747130D01*
G37*
G36*
X19222361Y8100684D02*
X19010229Y7888552D01*
X17949569Y8949212D01*
X18161701Y9161344D01*
X19222361Y8100684D01*
X19222361Y8100684D01*
G37*
G36*
X19575914Y8454237D02*
X19363782Y8242105D01*
X18303122Y9302765D01*
X18515254Y9514897D01*
X19575914Y8454237D01*
X19575914Y8454237D01*
G37*
G36*
X19929468Y8807790D02*
X19717336Y8595658D01*
X18656676Y9656318D01*
X18868808Y9868450D01*
X19929468Y8807790D01*
X19929468Y8807790D01*
G37*
G36*
X20283021Y9161344D02*
X20070889Y8949212D01*
X19010229Y10009872D01*
X19222361Y10222004D01*
X20283021Y9161344D01*
X20283021Y9161344D01*
G37*
G36*
X20636575Y9514897D02*
X20424443Y9302765D01*
X19363783Y10363425D01*
X19575915Y10575557D01*
X20636575Y9514897D01*
X20636575Y9514897D01*
G37*
G36*
X20990128Y9868451D02*
X20777996Y9656319D01*
X19717336Y10716979D01*
X19929468Y10929111D01*
X20990128Y9868451D01*
X20990128Y9868451D01*
G37*
G36*
X21343681Y10222004D02*
X21131549Y10009872D01*
X20070889Y11070532D01*
X20283021Y11282664D01*
X21343681Y10222004D01*
X21343681Y10222004D01*
G37*
G36*
X21697235Y10575557D02*
X21485103Y10363425D01*
X20424443Y11424085D01*
X20636575Y11636217D01*
X21697235Y10575557D01*
X21697235Y10575557D01*
G37*
G36*
X22050788Y10929111D02*
X21838656Y10716979D01*
X20777996Y11777639D01*
X20990128Y11989771D01*
X22050788Y10929111D01*
X22050788Y10929111D01*
G37*
G36*
X22404342Y11282664D02*
X22192210Y11070532D01*
X21131550Y12131192D01*
X21343682Y12343324D01*
X22404342Y11282664D01*
X22404342Y11282664D01*
G37*
G36*
X22757895Y11636218D02*
X22545763Y11424086D01*
X21485103Y12484746D01*
X21697235Y12696878D01*
X22757895Y11636218D01*
X22757895Y11636218D01*
G37*
G36*
X23111448Y11989771D02*
X22899316Y11777639D01*
X21838656Y12838299D01*
X22050788Y13050431D01*
X23111448Y11989771D01*
X23111448Y11989771D01*
G37*
G36*
X23465002Y12343324D02*
X23252870Y12131192D01*
X22192210Y13191852D01*
X22404342Y13403984D01*
X23465002Y12343324D01*
X23465002Y12343324D01*
G37*
G36*
X23818555Y12696878D02*
X23606423Y12484746D01*
X22545763Y13545406D01*
X22757895Y13757538D01*
X23818555Y12696878D01*
X23818555Y12696878D01*
G37*
G36*
X23606423Y16515254D02*
X23818555Y16303122D01*
X22757895Y15242462D01*
X22545763Y15454594D01*
X23606423Y16515254D01*
X23606423Y16515254D01*
G37*
G36*
X23252870Y16868808D02*
X23465002Y16656676D01*
X22404342Y15596016D01*
X22192210Y15808148D01*
X23252870Y16868808D01*
X23252870Y16868808D01*
G37*
G36*
X22899316Y17222361D02*
X23111448Y17010229D01*
X22050788Y15949569D01*
X21838656Y16161701D01*
X22899316Y17222361D01*
X22899316Y17222361D01*
G37*
G36*
X22545763Y17575914D02*
X22757895Y17363782D01*
X21697235Y16303122D01*
X21485103Y16515254D01*
X22545763Y17575914D01*
X22545763Y17575914D01*
G37*
G36*
X22192210Y17929468D02*
X22404342Y17717336D01*
X21343682Y16656676D01*
X21131550Y16868808D01*
X22192210Y17929468D01*
X22192210Y17929468D01*
G37*
G36*
X21838656Y18283021D02*
X22050788Y18070889D01*
X20990128Y17010229D01*
X20777996Y17222361D01*
X21838656Y18283021D01*
X21838656Y18283021D01*
G37*
G36*
X21485103Y18636575D02*
X21697235Y18424443D01*
X20636575Y17363783D01*
X20424443Y17575915D01*
X21485103Y18636575D01*
X21485103Y18636575D01*
G37*
G36*
X21131549Y18990128D02*
X21343681Y18777996D01*
X20283021Y17717336D01*
X20070889Y17929468D01*
X21131549Y18990128D01*
X21131549Y18990128D01*
G37*
G36*
X20777996Y19343681D02*
X20990128Y19131549D01*
X19929468Y18070889D01*
X19717336Y18283021D01*
X20777996Y19343681D01*
X20777996Y19343681D01*
G37*
G36*
X20424443Y19697235D02*
X20636575Y19485103D01*
X19575915Y18424443D01*
X19363783Y18636575D01*
X20424443Y19697235D01*
X20424443Y19697235D01*
G37*
G36*
X20070889Y20050788D02*
X20283021Y19838656D01*
X19222361Y18777996D01*
X19010229Y18990128D01*
X20070889Y20050788D01*
X20070889Y20050788D01*
G37*
G36*
X19717336Y20404342D02*
X19929468Y20192210D01*
X18868808Y19131550D01*
X18656676Y19343682D01*
X19717336Y20404342D01*
X19717336Y20404342D01*
G37*
G36*
X19363782Y20757895D02*
X19575914Y20545763D01*
X18515254Y19485103D01*
X18303122Y19697235D01*
X19363782Y20757895D01*
X19363782Y20757895D01*
G37*
G36*
X19010229Y21111448D02*
X19222361Y20899316D01*
X18161701Y19838656D01*
X17949569Y20050788D01*
X19010229Y21111448D01*
X19010229Y21111448D01*
G37*
G36*
X18656676Y21465002D02*
X18868808Y21252870D01*
X17808148Y20192210D01*
X17596016Y20404342D01*
X18656676Y21465002D01*
X18656676Y21465002D01*
G37*
G36*
X18303122Y21818555D02*
X18515254Y21606423D01*
X17454594Y20545763D01*
X17242462Y20757895D01*
X18303122Y21818555D01*
X18303122Y21818555D01*
G37*
G36*
X15757538Y20757895D02*
X15545406Y20545763D01*
X14484746Y21606423D01*
X14696878Y21818555D01*
X15757538Y20757895D01*
X15757538Y20757895D01*
G37*
G36*
X15403984Y20404342D02*
X15191852Y20192210D01*
X14131192Y21252870D01*
X14343324Y21465002D01*
X15403984Y20404342D01*
X15403984Y20404342D01*
G37*
G36*
X15050431Y20050788D02*
X14838299Y19838656D01*
X13777639Y20899316D01*
X13989771Y21111448D01*
X15050431Y20050788D01*
X15050431Y20050788D01*
G37*
G36*
X14696878Y19697235D02*
X14484746Y19485103D01*
X13424086Y20545763D01*
X13636218Y20757895D01*
X14696878Y19697235D01*
X14696878Y19697235D01*
G37*
G36*
X14343324Y19343682D02*
X14131192Y19131550D01*
X13070532Y20192210D01*
X13282664Y20404342D01*
X14343324Y19343682D01*
X14343324Y19343682D01*
G37*
G36*
X13989771Y18990128D02*
X13777639Y18777996D01*
X12716979Y19838656D01*
X12929111Y20050788D01*
X13989771Y18990128D01*
X13989771Y18990128D01*
G37*
G36*
X13636217Y18636575D02*
X13424085Y18424443D01*
X12363425Y19485103D01*
X12575557Y19697235D01*
X13636217Y18636575D01*
X13636217Y18636575D01*
G37*
G36*
X13282664Y18283021D02*
X13070532Y18070889D01*
X12009872Y19131549D01*
X12222004Y19343681D01*
X13282664Y18283021D01*
X13282664Y18283021D01*
G37*
G36*
X12929111Y17929468D02*
X12716979Y17717336D01*
X11656319Y18777996D01*
X11868451Y18990128D01*
X12929111Y17929468D01*
X12929111Y17929468D01*
G37*
G36*
X12575557Y17575915D02*
X12363425Y17363783D01*
X11302765Y18424443D01*
X11514897Y18636575D01*
X12575557Y17575915D01*
X12575557Y17575915D01*
G37*
G36*
X12222004Y17222361D02*
X12009872Y17010229D01*
X10949212Y18070889D01*
X11161344Y18283021D01*
X12222004Y17222361D01*
X12222004Y17222361D01*
G37*
G36*
X11868450Y16868808D02*
X11656318Y16656676D01*
X10595658Y17717336D01*
X10807790Y17929468D01*
X11868450Y16868808D01*
X11868450Y16868808D01*
G37*
G36*
X11514897Y16515254D02*
X11302765Y16303122D01*
X10242105Y17363782D01*
X10454237Y17575914D01*
X11514897Y16515254D01*
X11514897Y16515254D01*
G37*
G36*
X11161344Y16161701D02*
X10949212Y15949569D01*
X9888552Y17010229D01*
X10100684Y17222361D01*
X11161344Y16161701D01*
X11161344Y16161701D01*
G37*
G36*
X10807790Y15808148D02*
X10595658Y15596016D01*
X9534998Y16656676D01*
X9747130Y16868808D01*
X10807790Y15808148D01*
X10807790Y15808148D01*
G37*
G36*
X10454237Y15454594D02*
X10242105Y15242462D01*
X9181445Y16303122D01*
X9393577Y16515254D01*
X10454237Y15454594D01*
X10454237Y15454594D01*
G37*
G36*
X10242105Y13757538D02*
X10454237Y13545406D01*
X9393577Y12484746D01*
X9181445Y12696878D01*
X10242105Y13757538D01*
X10242105Y13757538D01*
G37*
G36*
X10595658Y13403984D02*
X10807790Y13191852D01*
X9747130Y12131192D01*
X9534998Y12343324D01*
X10595658Y13403984D01*
X10595658Y13403984D01*
G37*
G36*
X10949212Y13050431D02*
X11161344Y12838299D01*
X10100684Y11777639D01*
X9888552Y11989771D01*
X10949212Y13050431D01*
X10949212Y13050431D01*
G37*
G36*
X11302765Y12696878D02*
X11514897Y12484746D01*
X10454237Y11424086D01*
X10242105Y11636218D01*
X11302765Y12696878D01*
X11302765Y12696878D01*
G37*
G36*
X11656318Y12343324D02*
X11868450Y12131192D01*
X10807790Y11070532D01*
X10595658Y11282664D01*
X11656318Y12343324D01*
X11656318Y12343324D01*
G37*
G36*
X12009872Y11989771D02*
X12222004Y11777639D01*
X11161344Y10716979D01*
X10949212Y10929111D01*
X12009872Y11989771D01*
X12009872Y11989771D01*
G37*
G36*
X12363425Y11636217D02*
X12575557Y11424085D01*
X11514897Y10363425D01*
X11302765Y10575557D01*
X12363425Y11636217D01*
X12363425Y11636217D01*
G37*
G36*
X12716979Y11282664D02*
X12929111Y11070532D01*
X11868451Y10009872D01*
X11656319Y10222004D01*
X12716979Y11282664D01*
X12716979Y11282664D01*
G37*
G36*
X13070532Y10929111D02*
X13282664Y10716979D01*
X12222004Y9656319D01*
X12009872Y9868451D01*
X13070532Y10929111D01*
X13070532Y10929111D01*
G37*
G36*
X13424085Y10575557D02*
X13636217Y10363425D01*
X12575557Y9302765D01*
X12363425Y9514897D01*
X13424085Y10575557D01*
X13424085Y10575557D01*
G37*
G36*
X13777639Y10222004D02*
X13989771Y10009872D01*
X12929111Y8949212D01*
X12716979Y9161344D01*
X13777639Y10222004D01*
X13777639Y10222004D01*
G37*
G36*
X14131192Y9868450D02*
X14343324Y9656318D01*
X13282664Y8595658D01*
X13070532Y8807790D01*
X14131192Y9868450D01*
X14131192Y9868450D01*
G37*
G36*
X14484746Y9514897D02*
X14696878Y9302765D01*
X13636218Y8242105D01*
X13424086Y8454237D01*
X14484746Y9514897D01*
X14484746Y9514897D01*
G37*
G36*
X14838299Y9161344D02*
X15050431Y8949212D01*
X13989771Y7888552D01*
X13777639Y8100684D01*
X14838299Y9161344D01*
X14838299Y9161344D01*
G37*
G36*
X15191852Y8807790D02*
X15403984Y8595658D01*
X14343324Y7534998D01*
X14131192Y7747130D01*
X15191852Y8807790D01*
X15191852Y8807790D01*
G37*
G36*
X15545406Y8454237D02*
X15757538Y8242105D01*
X14696878Y7181445D01*
X14484746Y7393577D01*
X15545406Y8454237D01*
X15545406Y8454237D01*
G37*
D11*
X33699100Y4285389D03*
X34349100Y4285389D03*
X34999100Y4285389D03*
X35649100Y4285389D03*
X36299100Y4285389D03*
D12*
X32499100Y4285389D03*
X37499100Y4285389D03*
D13*
X31499100Y1585389D03*
X38499100Y1585389D03*
D14*
X32500000Y9750000D03*
D15*
X30800000Y9750000D03*
X30800000Y7750000D03*
X32700000Y7750000D03*
D16*
X7700000Y8275000D03*
X7700000Y8925000D03*
X7700000Y9575000D03*
X7700000Y10225000D03*
X1800000Y10225000D03*
X1800000Y9575000D03*
X1800000Y8925000D03*
X1800000Y8275000D03*
D17*
X8370000Y23920000D03*
X8370000Y29080000D03*
X10910000Y23920000D03*
X10910000Y29080000D03*
X13450000Y23920000D03*
X13450000Y29080000D03*
X15990000Y23920000D03*
X15990000Y29080000D03*
X18530000Y23920000D03*
X18530000Y29080000D03*
X21070000Y23920000D03*
X21070000Y29080000D03*
X23610000Y23920000D03*
X23610000Y29080000D03*
X26150000Y23920000D03*
X26150000Y29080000D03*
X28690000Y23920000D03*
X28690000Y29080000D03*
X31230000Y23920000D03*
X31230000Y29080000D03*
X33770000Y23920000D03*
X33770000Y29080000D03*
X36310000Y23920000D03*
X36310000Y29080000D03*
X38850000Y23920000D03*
X38850000Y29080000D03*
D18*
X8370000Y25230000D03*
X8370000Y27770000D03*
X10910000Y25230000D03*
X13450000Y25230000D03*
X15990000Y25230000D03*
X18530000Y25230000D03*
X21070000Y25230000D03*
X23610000Y25230000D03*
X26150000Y25230000D03*
X28690000Y25230000D03*
X31230000Y25230000D03*
X33770000Y25230000D03*
X36310000Y25230000D03*
X38850000Y25230000D03*
X10910000Y27770000D03*
X13450000Y27770000D03*
X15990000Y27770000D03*
X18530000Y27770000D03*
X21070000Y27770000D03*
X23610000Y27770000D03*
X26150000Y27770000D03*
X28690000Y27770000D03*
X31230000Y27770000D03*
X33770000Y27770000D03*
X36310000Y27770000D03*
X38850000Y27770000D03*
X41390000Y25230000D03*
X43930000Y25230000D03*
X46470000Y25230000D03*
X49010000Y25230000D03*
X51550000Y25230000D03*
X54090000Y25230000D03*
X56630000Y25230000D03*
X56630000Y27770000D03*
X54090000Y27770000D03*
X51550000Y27770000D03*
X49010000Y27770000D03*
X46470000Y27770000D03*
X43930000Y27770000D03*
X41390000Y27770000D03*
D17*
X41390000Y23920000D03*
X43930000Y23920000D03*
X46470000Y23920000D03*
X49010000Y23920000D03*
X51550000Y23920000D03*
X54090000Y23920000D03*
X56630000Y23920000D03*
X56630000Y29080000D03*
X54090000Y29080000D03*
X51550000Y29080000D03*
X49010000Y29080000D03*
X46470000Y29080000D03*
X43930000Y29080000D03*
X41390000Y29080000D03*
D19*
X3500000Y3500000D03*
D20*
X26500000Y5950000D03*
X26500000Y4050000D03*
X22000000Y5950000D03*
X22000000Y4050000D03*
D21*
X41500000Y13125000D03*
X41500000Y7375000D03*
X45500000Y7375000D03*
X45500000Y13125000D03*
D22*
X58500000Y8000000D03*
X57000000Y8000000D03*
D23*
X24800000Y22000000D03*
X23400000Y22000000D03*
X24800000Y20700000D03*
X23400000Y20700000D03*
D24*
X45500000Y21500000D03*
X45500000Y20000000D03*
D25*
X58000000Y21500000D03*
X58000000Y20000000D03*
X60000000Y21500000D03*
X60000000Y20000000D03*
X56000000Y21500000D03*
X56000000Y20000000D03*
D26*
X62980000Y21420000D03*
D27*
X62980000Y18880000D03*
D28*
X29600000Y15300000D03*
X29600000Y16250000D03*
X29600000Y17200000D03*
X27400000Y17200000D03*
X27400000Y15300000D03*
D24*
X27500000Y13500000D03*
X27500000Y12000000D03*
X29500000Y13500000D03*
X29500000Y12000000D03*
D22*
X4250000Y19250000D03*
X5750000Y19250000D03*
D29*
X1250700Y19250000D03*
X2749300Y19250000D03*
D25*
X36000000Y13500000D03*
X36000000Y12000000D03*
X36000000Y15500000D03*
X36000000Y17000000D03*
D28*
X31900000Y17200000D03*
X31900000Y16250000D03*
X31900000Y15300000D03*
X34100000Y15300000D03*
X34100000Y17200000D03*
X34100000Y16250000D03*
D30*
X33950000Y13750760D03*
X32050000Y13750760D03*
X33000000Y11751780D03*
D31*
X15350000Y1575000D03*
X17650000Y1575000D03*
X17650000Y3425000D03*
X15350000Y3425000D03*
D32*
X55199960Y11349760D03*
X55199960Y12000000D03*
X55199960Y12650240D03*
X53300040Y12650240D03*
X53300040Y12000000D03*
X53300040Y11349760D03*
D22*
X27750000Y7750000D03*
X29250000Y7750000D03*
X4250000Y14500000D03*
X5750000Y14500000D03*
X4250000Y16500000D03*
X5750000Y16500000D03*
D25*
X60250000Y12750000D03*
X60250000Y11250000D03*
D33*
X57750000Y12700000D03*
X57750000Y9800000D03*
D25*
X60250000Y9250000D03*
X60250000Y7750000D03*
X39000000Y21250000D03*
X39000000Y19750000D03*
X55250000Y9250000D03*
X55250000Y7750000D03*
X53250000Y7750000D03*
X53250000Y9250000D03*
D22*
X4250000Y12250000D03*
X5750000Y12250000D03*
X1250000Y12250000D03*
X2750000Y12250000D03*
D34*
X62980000Y13800000D03*
X62980000Y8720000D03*
D19*
X3500000Y26500000D03*
X61500000Y26500000D03*
X61500000Y3500000D03*
D29*
X1250700Y14500000D03*
X2749300Y14500000D03*
X1250700Y16500000D03*
X2749300Y16500000D03*
D24*
X19500000Y3250000D03*
X19500000Y1750000D03*
X22000000Y2750000D03*
X22000000Y1250000D03*
X13500000Y1750000D03*
X13500000Y3250000D03*
X8000000Y15750000D03*
X8000000Y17250000D03*
D35*
X24000000Y1998860D03*
X24000000Y5001140D03*
X11250000Y1998860D03*
X11250000Y5001140D03*
D24*
X26500000Y2750000D03*
X26500000Y1250000D03*
X8000000Y12250000D03*
X8000000Y13750000D03*
D35*
X28500000Y1998860D03*
X28500000Y5001140D03*
D24*
X10250000Y9750000D03*
X10250000Y8250000D03*
D35*
X48250000Y8498860D03*
X48250000Y11501140D03*
D36*
X8000000Y19250000D03*
X9500000Y19250000D03*
D24*
X13500000Y6250000D03*
X13500000Y4750000D03*
D35*
X51000000Y8498860D03*
X51000000Y11501140D03*
D36*
X20150000Y22000000D03*
X21650000Y22000000D03*
X12650000Y21700000D03*
X11150000Y21700000D03*
X23350000Y19200000D03*
X24850000Y19200000D03*
D24*
X25500000Y12000000D03*
X25500000Y13500000D03*
D22*
X27750000Y9750000D03*
X29250000Y9750000D03*
D16*
X47800000Y21725000D03*
X47800000Y21075000D03*
X47800000Y20425000D03*
X47800000Y19775000D03*
X53700000Y19775000D03*
X53700000Y20425000D03*
X53700000Y21075000D03*
X53700000Y21725000D03*
D37*
X14500000Y18200000D03*
X14500000Y14700000D03*
X56000000Y12200000D03*
X52720000Y10399000D03*
X11500000Y8600000D03*
X57000000Y6950000D03*
X55250000Y6950000D03*
X42750000Y6850000D03*
X51000000Y6900000D03*
X48250000Y6900000D03*
X21650000Y22000000D03*
X24200000Y18200000D03*
X17250000Y9250000D03*
X26000000Y10000000D03*
X24750000Y10000000D03*
X23500000Y10000000D03*
X21000000Y7500000D03*
X22250000Y7500000D03*
X23500000Y7500000D03*
X24750000Y7500000D03*
X26000000Y7500000D03*
X33500000Y7000000D03*
X37250000Y17000000D03*
X37250000Y12000000D03*
X36000000Y5750000D03*
X36000000Y7000000D03*
X36000000Y8250000D03*
X35000000Y9250000D03*
X34000000Y10250000D03*
X30500000Y12000000D03*
X26500000Y12000000D03*
X26500000Y13500000D03*
X19750000Y17250000D03*
X20250000Y12250000D03*
X9250000Y4000000D03*
X19500000Y4250000D03*
X49500000Y21750000D03*
X44250000Y20750000D03*
X6800000Y19600000D03*
X1200000Y11100000D03*
X8000000Y14700000D03*
X14000000Y22200000D03*
X12000000Y20700000D03*
X12500000Y12500000D03*
X21750000Y13500000D03*
X30000000Y1250000D03*
X25500000Y1250000D03*
X15500000Y4500000D03*
X12500000Y4000000D03*
X9500000Y17500000D03*
X29600000Y16250000D03*
X20250000Y15250000D03*
X22000000Y5000000D03*
X26500000Y5000000D03*
X26000000Y15250000D03*
X15000000Y10250000D03*
X13500000Y13500000D03*
X13500000Y16500000D03*
X37750000Y21250000D03*
X37000000Y21250000D03*
X28500000Y22250000D03*
X32000000Y22500000D03*
X51000000Y19750000D03*
X51000000Y21000000D03*
X25400000Y21350000D03*
X32000000Y21350000D03*
X20800000Y20700000D03*
X17750000Y19250000D03*
D38*
X14500000Y14700000D02*
X11396699Y14700000D01*
X11396699Y14700000D02*
X10946699Y14250000D01*
X14500000Y14700000D02*
X18774874Y14700000D01*
X18774874Y14700000D02*
X20474874Y13000000D01*
X14493000Y11669000D02*
X14500000Y11676000D01*
X14500000Y11676000D02*
X14500000Y14700000D01*
X15722182Y10439818D02*
X14493000Y11669000D01*
X15722182Y8418881D02*
X15722182Y10439818D01*
X21767946Y11706928D02*
X20474874Y13000000D01*
X21767946Y11706928D02*
X22368986Y11105888D01*
X22368986Y11105888D02*
X22855888Y11105888D01*
X22855888Y11105888D02*
X23000000Y11250000D01*
X23000000Y11250000D02*
X24775000Y11250000D01*
X24775000Y11250000D02*
X25500000Y11975000D01*
X25500000Y11975000D02*
X25500000Y12000000D01*
X13500000Y6250000D02*
X13500000Y6225000D01*
X13500000Y6225000D02*
X12276140Y5001140D01*
X12276140Y5001140D02*
X12200570Y5001140D01*
X12200570Y5001140D02*
X11250000Y5001140D01*
X14500000Y18200000D02*
X14500000Y18974874D01*
X14500000Y18974874D02*
X13706928Y19767946D01*
X12650000Y21700000D02*
X12650000Y20824874D01*
X12650000Y20824874D02*
X13706928Y19767946D01*
X10946699Y14250000D02*
X9475000Y14250000D01*
X9475000Y14250000D02*
X8000000Y15725000D01*
X8000000Y15725000D02*
X8000000Y15750000D01*
X15722182Y8418881D02*
X15121142Y7817841D01*
X9817841Y13121142D02*
X10946699Y14250000D01*
X8000000Y15750000D02*
X8000000Y15775000D01*
X13500000Y6250000D02*
X13500000Y6275000D01*
X15042841Y7817841D02*
X15121142Y7817841D01*
X13500000Y6275000D02*
X15042841Y7817841D01*
X55199960Y12000000D02*
X55800000Y12000000D01*
X55800000Y12000000D02*
X56000000Y12200000D01*
X52593000Y11867610D02*
X52593000Y10526000D01*
X52593000Y10526000D02*
X52720000Y10399000D01*
X53300040Y12000000D02*
X52725390Y12000000D01*
X52725390Y12000000D02*
X52593000Y11867610D01*
D39*
X10250000Y8250000D02*
X11150000Y8250000D01*
X11150000Y8250000D02*
X11500000Y8600000D01*
X57000000Y8000000D02*
X57000000Y6950000D01*
X55250000Y7750000D02*
X55250000Y6950000D01*
X41500000Y7375000D02*
X42225000Y7375000D01*
X42225000Y7375000D02*
X42750000Y6850000D01*
X51000000Y8498860D02*
X51000000Y6900000D01*
X48250000Y8498860D02*
X48250000Y6900000D01*
X24850000Y19200000D02*
X24850000Y18850000D01*
X24850000Y18850000D02*
X24200000Y18200000D01*
D38*
X17878858Y7817841D02*
X17250000Y8446699D01*
X17250000Y8446699D02*
X17250000Y9250000D01*
D39*
X36000000Y17000000D02*
X37250000Y17000000D01*
X36000000Y12000000D02*
X37250000Y12000000D01*
X29500000Y12000000D02*
X30500000Y12000000D01*
X26500000Y12000000D02*
X27500000Y12000000D01*
X25500000Y13500000D02*
X26500000Y13500000D01*
D38*
X19743879Y18097432D02*
X19743879Y17256121D01*
X19743879Y17256121D02*
X19750000Y17250000D01*
X20250000Y11810660D02*
X20250000Y12250000D01*
X21060839Y10999821D02*
X20250000Y11810660D01*
X20517767Y12250000D02*
X20250000Y12250000D01*
X21414392Y11353375D02*
X20517767Y12250000D01*
D39*
X41500000Y7375000D02*
X41500000Y13125000D01*
X9250000Y2848290D02*
X9250000Y4000000D01*
X11250000Y1998860D02*
X10099430Y1998860D01*
X10099430Y1998860D02*
X9250000Y2848290D01*
X20250000Y1750000D02*
X20250000Y3909322D01*
X20250000Y3909322D02*
X19909322Y4250000D01*
X19909322Y4250000D02*
X19500000Y4250000D01*
X20750000Y1250000D02*
X20250000Y1750000D01*
X47800000Y21725000D02*
X49475000Y21725000D01*
X49475000Y21725000D02*
X49500000Y21750000D01*
X45500000Y20000000D02*
X45000000Y20000000D01*
X45000000Y20000000D02*
X44250000Y20750000D01*
X47800000Y19775000D02*
X45725000Y19775000D01*
X45725000Y19775000D02*
X45500000Y20000000D01*
X47800000Y20425000D02*
X47800000Y19775000D01*
X47800000Y21075000D02*
X47800000Y20425000D01*
X47800000Y21725000D02*
X47800000Y21075000D01*
X5750000Y19250000D02*
X6450000Y19250000D01*
X6450000Y19250000D02*
X6800000Y19600000D01*
D38*
X1800000Y10225000D02*
X1800000Y10500000D01*
X1800000Y10500000D02*
X1200000Y11100000D01*
D39*
X8000000Y13750000D02*
X8000000Y14700000D01*
D38*
X14414035Y20475052D02*
X13812995Y21076092D01*
X13812995Y21076092D02*
X13812995Y22012995D01*
X13812995Y22012995D02*
X14000000Y22200000D01*
D39*
X11150000Y21700000D02*
X11150000Y21550000D01*
X11150000Y21550000D02*
X12000000Y20700000D01*
X9500000Y17500000D02*
X9500000Y19250000D01*
D38*
X10524948Y12414035D02*
X11125988Y13015075D01*
X11125988Y13015075D02*
X11984925Y13015075D01*
X11984925Y13015075D02*
X12500000Y12500000D01*
X20353732Y18707285D02*
X19743879Y18097432D01*
X22828606Y12767588D02*
X22096194Y13500000D01*
X22096194Y13500000D02*
X21750000Y13500000D01*
D39*
X8000000Y17250000D02*
X9250000Y17250000D01*
X9250000Y17250000D02*
X9500000Y17500000D01*
X31499100Y1585389D02*
X30335389Y1585389D01*
X30335389Y1585389D02*
X30000000Y1250000D01*
X29251140Y1998860D02*
X30000000Y1250000D01*
X28500000Y1998860D02*
X29251140Y1998860D01*
X26500000Y1250000D02*
X27751140Y1250000D01*
X27751140Y1250000D02*
X28500000Y1998860D01*
X24000000Y1998860D02*
X24751140Y1998860D01*
X24751140Y1998860D02*
X25500000Y1250000D01*
X26500000Y1250000D02*
X25500000Y1250000D01*
X22000000Y1250000D02*
X23251140Y1250000D01*
X23251140Y1250000D02*
X24000000Y1998860D01*
X22000000Y1250000D02*
X20750000Y1250000D01*
X19500000Y1750000D02*
X20250000Y1750000D01*
X17650000Y1575000D02*
X19325000Y1575000D01*
X19325000Y1575000D02*
X19500000Y1750000D01*
X56630000Y25230000D02*
X56630000Y23920000D01*
X49010000Y27770000D02*
X49010000Y29080000D01*
X43930000Y27770000D02*
X43930000Y29080000D01*
X38850000Y25230000D02*
X38850000Y23920000D01*
X31230000Y27770000D02*
X31230000Y29080000D01*
X23610000Y27770000D02*
X23610000Y29080000D01*
X18530000Y25230000D02*
X18530000Y23920000D01*
X13450000Y29080000D02*
X13450000Y27770000D01*
D38*
X15350000Y3425000D02*
X15350000Y4350000D01*
X15350000Y4350000D02*
X15500000Y4500000D01*
X13500000Y3250000D02*
X15175000Y3250000D01*
X15175000Y3250000D02*
X15350000Y3425000D01*
X13500000Y4750000D02*
X13250000Y4750000D01*
X13250000Y4750000D02*
X12500000Y4000000D01*
X13500000Y3250000D02*
X13250000Y3250000D01*
X13250000Y3250000D02*
X12500000Y4000000D01*
X10171394Y16232412D02*
X9500000Y16903806D01*
X9500000Y16903806D02*
X9500000Y17500000D01*
X22121499Y16939518D02*
X20431981Y15250000D01*
X20431981Y15250000D02*
X20250000Y15250000D01*
D39*
X19000000Y21600000D02*
X19000000Y21650000D01*
X19000000Y21650000D02*
X19350000Y22000000D01*
X19350000Y22000000D02*
X20150000Y22000000D01*
D38*
X18767664Y21367664D02*
X19000000Y21600000D01*
X18232412Y20828606D02*
X18767664Y21363858D01*
X18767664Y21363858D02*
X18767664Y21367664D01*
X22722539Y17540558D02*
X22900000Y17718019D01*
D39*
X23350000Y18168019D02*
X22900000Y17718019D01*
D38*
X22121499Y16939518D02*
X22722539Y17540558D01*
D39*
X23350000Y18168019D02*
X23350000Y19200000D01*
X27500000Y13500000D02*
X27500000Y15200000D01*
X27500000Y15200000D02*
X27400000Y15300000D01*
X22000000Y5950000D02*
X22000000Y5000000D01*
X26500000Y5950000D02*
X26500000Y5000000D01*
D38*
X24062995Y11812995D02*
X24872599Y12622599D01*
X24872599Y12622599D02*
X24872599Y14122599D01*
X24872599Y14122599D02*
X25700001Y14950001D01*
X25700001Y14950001D02*
X26000000Y15250000D01*
X22475052Y12414035D02*
X23076092Y11812995D01*
X23076092Y11812995D02*
X24062995Y11812995D01*
D39*
X26000000Y15250000D02*
X27350000Y15250000D01*
X27350000Y15250000D02*
X27400000Y15300000D01*
D38*
X10171394Y12767588D02*
X9570354Y12166548D01*
X9570354Y12166548D02*
X8658452Y12166548D01*
X8658452Y12166548D02*
X8575000Y12250000D01*
X8575000Y12250000D02*
X8000000Y12250000D01*
X12292715Y10646268D02*
X11396447Y9750000D01*
X11396447Y9750000D02*
X10250000Y9750000D01*
D39*
X10900000Y19300000D02*
X10900000Y19039340D01*
D38*
X10900000Y19039340D02*
X11939161Y18000179D01*
D39*
X10000000Y20200000D02*
X10900000Y19300000D01*
X8975000Y20200000D02*
X10000000Y20200000D01*
X8000000Y19250000D02*
X8025000Y19250000D01*
X8025000Y19250000D02*
X8975000Y20200000D01*
X1250700Y18000000D02*
X6725000Y18000000D01*
X6725000Y18000000D02*
X7975000Y19250000D01*
X7975000Y19250000D02*
X8000000Y19250000D01*
D38*
X3000000Y10429322D02*
X3000000Y8550000D01*
X3000000Y8550000D02*
X2725000Y8275000D01*
X2725000Y8275000D02*
X1800000Y8275000D01*
X1250000Y12250000D02*
X1250000Y12179322D01*
X1250000Y12179322D02*
X3000000Y10429322D01*
X1250700Y14500000D02*
X1250700Y12250700D01*
X1250700Y12250700D02*
X1250000Y12250000D01*
X1250700Y16500000D02*
X1250700Y14746718D01*
X1250700Y14746718D02*
X1250700Y14500000D01*
D39*
X1250700Y18000000D02*
X1250700Y19250000D01*
X17000000Y19596194D02*
X13903806Y16500000D01*
D38*
X18232412Y20828606D02*
X17000000Y19596194D01*
D39*
X13500000Y11853553D02*
X13500000Y11750000D01*
X13500000Y11750000D02*
X15000000Y10250000D01*
X13500000Y13500000D02*
X13500000Y11853553D01*
D38*
X13500000Y11853553D02*
X12292715Y10646268D01*
D39*
X13903806Y16500000D02*
X13500000Y16500000D01*
X1250700Y16500000D02*
X1250700Y18000000D01*
D38*
X10171394Y12767588D02*
X10903806Y13500000D01*
D39*
X10903806Y13500000D02*
X13500000Y13500000D01*
X13500000Y16500000D02*
X13439340Y16500000D01*
D38*
X13439340Y16500000D02*
X11939161Y18000179D01*
D39*
X1250000Y14499300D02*
X1250700Y14500000D01*
D38*
X52085000Y8715000D02*
X52085000Y10092290D01*
X51000000Y11177290D02*
X51000000Y11501140D01*
X52085000Y10092290D02*
X51000000Y11177290D01*
X53250000Y7750000D02*
X53050000Y7750000D01*
X53050000Y7750000D02*
X52085000Y8715000D01*
X29600000Y15300000D02*
X28926398Y15300000D01*
X28926398Y15300000D02*
X28642999Y15583399D01*
X28642999Y15583399D02*
X28642999Y16916601D01*
X28642999Y16916601D02*
X28926398Y17200000D01*
X28926398Y17200000D02*
X29600000Y17200000D01*
X22750000Y10250000D02*
X22545228Y10045228D01*
X22545228Y10045228D02*
X21308325Y10045228D01*
X21308325Y10045228D02*
X20707285Y10646268D01*
D39*
X23250000Y10750000D02*
X22750000Y10250000D01*
X28250000Y10750000D02*
X23250000Y10750000D01*
X28500000Y10500000D02*
X28250000Y10750000D01*
X28500000Y10334322D02*
X28500000Y10500000D01*
X28500000Y5001140D02*
X28500000Y10334322D01*
X26500000Y4050000D02*
X27548860Y4050000D01*
X27548860Y4050000D02*
X28500000Y5001140D01*
X26500000Y2750000D02*
X26500000Y4050000D01*
D38*
X19750000Y7500000D02*
X19750000Y8068019D01*
X19750000Y8068019D02*
X18939518Y8878501D01*
D39*
X19750000Y5650000D02*
X19750000Y7500000D01*
X22000000Y4250000D02*
X21150000Y4250000D01*
X21150000Y4250000D02*
X19750000Y5650000D01*
X22000000Y4250000D02*
X22000000Y2750000D01*
X22000000Y4250000D02*
X23248860Y4250000D01*
X23248860Y4250000D02*
X24000000Y5001140D01*
X21800000Y4250000D02*
X22000000Y4250000D01*
D38*
X16747599Y4283520D02*
X18833452Y6369373D01*
X18833452Y6369373D02*
X18833452Y7570354D01*
X18833452Y7570354D02*
X18232412Y8171394D01*
X15475000Y1575000D02*
X16747599Y2847599D01*
X16747599Y2847599D02*
X16747599Y4283520D01*
X15350000Y1575000D02*
X13675000Y1575000D01*
X13675000Y1575000D02*
X13500000Y1750000D01*
X15350000Y1575000D02*
X15475000Y1575000D01*
X17650000Y3425000D02*
X19325000Y3425000D01*
X19325000Y3425000D02*
X19500000Y3250000D01*
X17500000Y4300000D02*
X17500000Y4537539D01*
X19187005Y7923908D02*
X18585965Y8524948D01*
X17500000Y4537539D02*
X19187005Y6224544D01*
X19187005Y6224544D02*
X19187005Y7923908D01*
X17650000Y3425000D02*
X17650000Y4150000D01*
X17650000Y4150000D02*
X17500000Y4300000D01*
X5750000Y15850000D02*
X5750000Y16500000D01*
X7000000Y14600000D02*
X5750000Y15850000D01*
X7000000Y12020678D02*
X7000000Y14600000D01*
X7965866Y11054812D02*
X7000000Y12020678D01*
X9072894Y10754812D02*
X8772894Y11054812D01*
X10987045Y10754812D02*
X9072894Y10754812D01*
X8772894Y11054812D02*
X7965866Y11054812D01*
X11585608Y11353375D02*
X10987045Y10754812D01*
X8626921Y10702401D02*
X8926921Y10402401D01*
X8926921Y10402401D02*
X11341741Y10402401D01*
X11341741Y10402401D02*
X11939161Y10999821D01*
X6600000Y14100000D02*
X6600000Y11922294D01*
X6600000Y11922294D02*
X7819893Y10702401D01*
X7819893Y10702401D02*
X8626921Y10702401D01*
X5750000Y14500000D02*
X6200000Y14500000D01*
X6200000Y14500000D02*
X6600000Y14100000D01*
D39*
X61220000Y8720000D02*
X60250000Y7750000D01*
X62980000Y8720000D02*
X61220000Y8720000D01*
X62980000Y13800000D02*
X62980000Y12282400D01*
X62980000Y12282400D02*
X61947600Y11250000D01*
X61947600Y11250000D02*
X61100000Y11250000D01*
X61100000Y11250000D02*
X60250000Y11250000D01*
D38*
X8370000Y25230000D02*
X8370000Y23920000D01*
D40*
X10910000Y29080000D02*
X10910000Y27770000D01*
X8370000Y29080000D02*
X8370000Y27770000D01*
D38*
X10910000Y25230000D02*
X10910000Y23920000D01*
X13450000Y25230000D02*
X13450000Y23920000D01*
X28500000Y22250000D02*
X28500000Y20250000D01*
X28500000Y20250000D02*
X24128858Y15878858D01*
X24128858Y15878858D02*
X23182159Y15878858D01*
X15990000Y25230000D02*
X15990000Y23920000D01*
X12999821Y19060839D02*
X12398781Y19661879D01*
X12398781Y19661879D02*
X11460415Y19661879D01*
X11460415Y19661879D02*
X10100000Y21022294D01*
X10100000Y21022294D02*
X10100000Y22377706D01*
X10100000Y22377706D02*
X10522294Y22800000D01*
X10522294Y22800000D02*
X11528822Y22800000D01*
X11528822Y22800000D02*
X12000000Y23271178D01*
X12000000Y23271178D02*
X12000000Y25761938D01*
X12000000Y25761938D02*
X12938062Y26700000D01*
X12938062Y26700000D02*
X14920000Y26700000D01*
X14920000Y26700000D02*
X15990000Y27770000D01*
X15990000Y29080000D02*
X15990000Y27770000D01*
X13353375Y19414392D02*
X12752335Y20015432D01*
X10497599Y22276921D02*
X10668267Y22447589D01*
X12752335Y20015432D02*
X11605246Y20015432D01*
X11605246Y20015432D02*
X10497599Y21123079D01*
X12447599Y23220393D02*
X12447599Y25711153D01*
X10497599Y21123079D02*
X10497599Y22276921D01*
X13084035Y26347589D02*
X17107589Y26347589D01*
X10668267Y22447589D02*
X11674795Y22447589D01*
X11674795Y22447589D02*
X12447599Y23220393D01*
X12447599Y25711153D02*
X13084035Y26347589D01*
X17107589Y26347589D02*
X18530000Y27770000D01*
X18530000Y29080000D02*
X18530000Y27770000D01*
X21070000Y25230000D02*
X21070000Y23920000D01*
X21070000Y27770000D02*
X21070000Y29080000D01*
X23076092Y17187005D02*
X24066327Y17187005D01*
X24066327Y17187005D02*
X26052401Y19173079D01*
X26052401Y19173079D02*
X26052401Y22122099D01*
X22475052Y16585965D02*
X23076092Y17187005D01*
X26052401Y22122099D02*
X24254500Y23920000D01*
X24254500Y23920000D02*
X23610000Y23920000D01*
X23610000Y25230000D02*
X23610000Y23920000D01*
X23610000Y24169340D02*
X23610000Y25230000D01*
X20300000Y26500000D02*
X24880000Y26500000D01*
X24880000Y26500000D02*
X26150000Y25230000D01*
X19800000Y26000000D02*
X20300000Y26500000D01*
X19800000Y23103301D02*
X19800000Y26000000D01*
X17878858Y21182159D02*
X19800000Y23103301D01*
X26150000Y25230000D02*
X26150000Y23920000D01*
X26150000Y27770000D02*
X26150000Y29080000D01*
X58000000Y21500000D02*
X60000000Y21500000D01*
X56000000Y21500000D02*
X58000000Y21500000D01*
X54850000Y21500000D02*
X56000000Y21500000D01*
X53700000Y21725000D02*
X54625000Y21725000D01*
X54625000Y21725000D02*
X54850000Y21500000D01*
X45500000Y21525000D02*
X46475000Y22500000D01*
X46475000Y22500000D02*
X52000000Y22500000D01*
X52000000Y22500000D02*
X52775000Y21725000D01*
X52775000Y21725000D02*
X53700000Y21725000D01*
X45500000Y21500000D02*
X45500000Y21525000D01*
X32000000Y22500000D02*
X44525000Y22500000D01*
X44525000Y22500000D02*
X45500000Y21525000D01*
X28690000Y25230000D02*
X28690000Y23920000D01*
X22828606Y16232412D02*
X23430789Y16834595D01*
X23430789Y16834595D02*
X24334595Y16834595D01*
X24334595Y16834595D02*
X27500000Y20000000D01*
X27500000Y20000000D02*
X27500000Y26580000D01*
X27500000Y26580000D02*
X28690000Y27770000D01*
X28690000Y27770000D02*
X28690000Y29080000D01*
X31230000Y25230000D02*
X31230000Y23920000D01*
X33770000Y25230000D02*
X33770000Y23920000D01*
X23182159Y13121142D02*
X23182159Y14291481D01*
X30000000Y21109322D02*
X30000000Y25445962D01*
X23182159Y14291481D02*
X30000000Y21109322D01*
X30000000Y25445962D02*
X31054038Y26500000D01*
X31054038Y26500000D02*
X32500000Y26500000D01*
X32500000Y26500000D02*
X33770000Y27770000D01*
X33770000Y27770000D02*
X33770000Y29080000D01*
X36310000Y25230000D02*
X36310000Y23920000D01*
X36310000Y27770000D02*
X36310000Y29080000D01*
X38850000Y27770000D02*
X38850000Y29080000D01*
X52225000Y19775000D02*
X51025000Y19775000D01*
X51025000Y19775000D02*
X51000000Y19750000D01*
X53700000Y19775000D02*
X52225000Y19775000D01*
X54975000Y19000000D02*
X58350000Y19000000D01*
X58350000Y19000000D02*
X59350000Y20000000D01*
X59350000Y20000000D02*
X60000000Y20000000D01*
X53700000Y19775000D02*
X54200000Y19775000D01*
X54200000Y19775000D02*
X54975000Y19000000D01*
X41390000Y25230000D02*
X41390000Y23920000D01*
X52479991Y20425000D02*
X51575000Y20425000D01*
X51575000Y20425000D02*
X51000000Y21000000D01*
X53700000Y20425000D02*
X52479991Y20425000D01*
X53700000Y20425000D02*
X54454322Y20425000D01*
X55381723Y19497599D02*
X56847599Y19497599D01*
X56847599Y19497599D02*
X57350000Y20000000D01*
X54454322Y20425000D02*
X55381723Y19497599D01*
X57350000Y20000000D02*
X58000000Y20000000D01*
X41390000Y27770000D02*
X41390000Y29080000D01*
X43930000Y25230000D02*
X43930000Y23920000D01*
X46470000Y25230000D02*
X46470000Y23920000D01*
X46470000Y27770000D02*
X46470000Y29080000D01*
X49010000Y25230000D02*
X49010000Y23920000D01*
X51550000Y25230000D02*
X51550000Y23920000D01*
X51550000Y27770000D02*
X51550000Y29080000D01*
X54090000Y25230000D02*
X54090000Y23920000D01*
X54090000Y27770000D02*
X54090000Y29080000D01*
X56630000Y27770000D02*
X56630000Y29080000D01*
X4250000Y12250000D02*
X4250000Y11600000D01*
X4250000Y11600000D02*
X6275000Y9575000D01*
X6275000Y9575000D02*
X6775000Y9575000D01*
X6775000Y9575000D02*
X7700000Y9575000D01*
X2750000Y12250000D02*
X4250000Y12250000D01*
X9252411Y8997589D02*
X8675000Y9575000D01*
X8675000Y9575000D02*
X7700000Y9575000D01*
X9252411Y8997589D02*
X9250000Y9000000D01*
X9252411Y8018267D02*
X9252411Y8997589D01*
X9673079Y7597599D02*
X9252411Y8018267D01*
X11499215Y7597599D02*
X9673079Y7597599D01*
X11851625Y7950009D02*
X11499215Y7597599D01*
X13131991Y7950010D02*
X11851625Y7950009D01*
X14060482Y8878501D02*
X13131991Y7950010D01*
X5750000Y12250000D02*
X5750000Y11675000D01*
X5750000Y11675000D02*
X7200000Y10225000D01*
X7200000Y10225000D02*
X7700000Y10225000D01*
X53300040Y11349760D02*
X53874690Y11349760D01*
X54250000Y11725070D02*
X54250000Y13187000D01*
X53874690Y11349760D02*
X54250000Y11725070D01*
X54250000Y13187000D02*
X53736000Y13701000D01*
X53736000Y13701000D02*
X52749000Y13701000D01*
X49952401Y16497599D02*
X44002401Y16497599D01*
X44002401Y16497599D02*
X40000000Y20500000D01*
X52749000Y13701000D02*
X49952401Y16497599D01*
X40000000Y20500000D02*
X35950000Y20500000D01*
X35950000Y20500000D02*
X35100000Y21350000D01*
X35100000Y21350000D02*
X32000000Y21350000D01*
X25400000Y21350000D02*
X25400000Y21300000D01*
X25400000Y21300000D02*
X24800000Y20700000D01*
X25400000Y21350000D02*
X25400000Y21400000D01*
X25400000Y21400000D02*
X24800000Y22000000D01*
X53250000Y9250000D02*
X53900000Y9250000D01*
X54250000Y8900000D02*
X54250000Y7400000D01*
X53900000Y9250000D02*
X54250000Y8900000D01*
X54250000Y7400000D02*
X52950000Y6100000D01*
X52950000Y6100000D02*
X47475000Y6100000D01*
X47475000Y6100000D02*
X46200000Y7375000D01*
X46200000Y7375000D02*
X45500000Y7375000D01*
X55250000Y9250000D02*
X53250000Y9250000D01*
X53300040Y11349760D02*
X53300040Y9300040D01*
X53300040Y9300040D02*
X53250000Y9250000D01*
X45500000Y13125000D02*
X45500000Y11550000D01*
X45500000Y11550000D02*
X45500000Y7375000D01*
D39*
X58500000Y8000000D02*
X58500000Y9050000D01*
X58500000Y9050000D02*
X58300000Y9250000D01*
D38*
X55936531Y11348209D02*
X55934980Y11349760D01*
D39*
X55934980Y11349760D02*
X55199960Y11349760D01*
D40*
X56198209Y11348209D02*
X55936531Y11348209D01*
X56200000Y11350000D02*
X56198209Y11348209D01*
X56850000Y10700000D02*
X56200000Y11350000D01*
X57750000Y9800000D02*
X56850000Y10700000D01*
D39*
X60250000Y9250000D02*
X58300000Y9250000D01*
X58300000Y9250000D02*
X57750000Y9800000D01*
D38*
X13796194Y7200000D02*
X12098382Y7200000D01*
X12098382Y7200000D02*
X11791160Y6892778D01*
X14767588Y8171394D02*
X13796194Y7200000D01*
X11791160Y6892778D02*
X8657222Y6892778D01*
X8657222Y6892778D02*
X7700000Y7850000D01*
X7700000Y7850000D02*
X7700000Y8275000D01*
X8900000Y7800000D02*
X8900000Y8650000D01*
X8900000Y8650000D02*
X8625000Y8925000D01*
X8625000Y8925000D02*
X7700000Y8925000D01*
X9454812Y7245188D02*
X8900000Y7800000D01*
X11997599Y7597599D02*
X11645187Y7245188D01*
X11645187Y7245188D02*
X9454812Y7245188D01*
X13486686Y7597599D02*
X11997599Y7597599D01*
X14414035Y8524948D02*
X13486686Y7597599D01*
X2749300Y16500000D02*
X4250000Y16500000D01*
X2749300Y14500000D02*
X4250000Y14500000D01*
D40*
X33699100Y3210389D02*
X34159489Y2750000D01*
X34159489Y2750000D02*
X37425266Y2750000D01*
X37425266Y2750000D02*
X39500000Y4824734D01*
X39500000Y4824734D02*
X39500000Y9500000D01*
X39500000Y9500000D02*
X38000000Y11000000D01*
X38000000Y11000000D02*
X34751830Y11000000D01*
X34751830Y11000000D02*
X34000050Y11751780D01*
X34000050Y11751780D02*
X33000000Y11751780D01*
D38*
X33000000Y11751780D02*
X33000000Y16830000D01*
X33000000Y16830000D02*
X32630000Y17200000D01*
X32630000Y17200000D02*
X31900000Y17200000D01*
D39*
X33699100Y5500900D02*
X32700000Y6500000D01*
X32700000Y6500000D02*
X32700000Y6850000D01*
X33699100Y5324711D02*
X33699100Y5500900D01*
X33699100Y4285389D02*
X33699100Y3210389D01*
X33699100Y5324711D02*
X33699100Y4285389D01*
X32700000Y7750000D02*
X32700000Y6850000D01*
D38*
X33950000Y13750760D02*
X33950000Y15150000D01*
X33950000Y15150000D02*
X34100000Y15300000D01*
X36000000Y13500000D02*
X34200760Y13500000D01*
X34200760Y13500000D02*
X33950000Y13750760D01*
X34100000Y17200000D02*
X34100000Y16250000D01*
X36000000Y15500000D02*
X35800000Y15500000D01*
X35800000Y15500000D02*
X35050000Y16250000D01*
X35050000Y16250000D02*
X34830000Y16250000D01*
X34830000Y16250000D02*
X34100000Y16250000D01*
D41*
X29250000Y7750000D02*
X30800000Y7750000D01*
X33405312Y8521400D02*
X34445500Y7481212D01*
X31250000Y7750000D02*
X32021400Y8521400D01*
X30800000Y7750000D02*
X31250000Y7750000D01*
X32021400Y8521400D02*
X33405312Y8521400D01*
X34349100Y4285389D02*
X34349100Y5297889D01*
X34349100Y5297889D02*
X34445500Y5394289D01*
X34445500Y5394289D02*
X34445500Y7481212D01*
X29250000Y9750000D02*
X30800000Y9750000D01*
X30800000Y9750000D02*
X31250000Y9750000D01*
X31250000Y9750000D02*
X32021400Y8978600D01*
X32021400Y8978600D02*
X33594688Y8978600D01*
X33594688Y8978600D02*
X34902700Y7670588D01*
X34999100Y4285389D02*
X34999100Y5297889D01*
X34999100Y5297889D02*
X34902700Y5394289D01*
X34902700Y5394289D02*
X34902700Y7670588D01*
X27750000Y7750000D02*
X27075000Y7750000D01*
X27075000Y7750000D02*
X26303600Y8521400D01*
X26303600Y8521400D02*
X21448204Y8521400D01*
X21448204Y8521400D02*
X20030443Y9939161D01*
X20030443Y9939161D02*
X20000179Y9939161D01*
X27750000Y9750000D02*
X27075000Y9750000D01*
X27075000Y9750000D02*
X26303600Y8978600D01*
X26303600Y8978600D02*
X21637582Y8978600D01*
X21637582Y8978600D02*
X20353732Y10262450D01*
X20353732Y10262450D02*
X20353732Y10292715D01*
D38*
X2749300Y19250000D02*
X4250000Y19250000D01*
X22200000Y20100000D02*
X22800000Y20700000D01*
X22800000Y20700000D02*
X23400000Y20700000D01*
X20600000Y20100000D02*
X22200000Y20100000D01*
X20396802Y20303198D02*
X20600000Y20100000D01*
X19293072Y19767946D02*
X19828324Y20303198D01*
X19828324Y20303198D02*
X20396802Y20303198D01*
X20800000Y20700000D02*
X22150000Y20700000D01*
X22150000Y20700000D02*
X22600000Y21150000D01*
X22600000Y21700000D02*
X22900000Y22000000D01*
X22900000Y22000000D02*
X23400000Y22000000D01*
X22600000Y21150000D02*
X22600000Y21700000D01*
X11585608Y17646625D02*
X12186648Y17045585D01*
X12186648Y17045585D02*
X12186648Y16995798D01*
X12186648Y16995798D02*
X13234847Y15947599D01*
X13234847Y15947599D02*
X14447599Y15947599D01*
X14447599Y15947599D02*
X17750000Y19250000D01*
X57400000Y20750000D02*
X61094000Y20750000D01*
X61094000Y20750000D02*
X61764000Y21420000D01*
X61764000Y21420000D02*
X62980000Y21420000D01*
X56000000Y20000000D02*
X56650000Y20000000D01*
X56650000Y20000000D02*
X57400000Y20750000D01*
X56000000Y20000000D02*
X55800000Y20000000D01*
X55800000Y20000000D02*
X54725000Y21075000D01*
X54725000Y21075000D02*
X54625000Y21075000D01*
X54625000Y21075000D02*
X53700000Y21075000D01*
D42*
G36*
X32165127Y8050000D02*
X32165127Y7450000D01*
X32184609Y7346461D01*
X32220600Y7290529D01*
X32220600Y6500000D01*
X32257092Y6316541D01*
X32361013Y6161013D01*
X33219700Y5302326D01*
X33219700Y4987416D01*
X33214227Y4960389D01*
X33214227Y4917421D01*
X32977139Y5076039D01*
X32649600Y5141389D01*
X32499600Y5141389D01*
X32499600Y4285889D01*
X32519600Y4285889D01*
X32519600Y4284889D01*
X32499600Y4284889D01*
X32499600Y3429389D01*
X32649600Y3429389D01*
X32977139Y3494739D01*
X33214227Y3653357D01*
X33214227Y3610389D01*
X33219700Y3581302D01*
X33219700Y3515770D01*
X33163804Y3432116D01*
X33119700Y3210389D01*
X33163804Y2988662D01*
X33289402Y2800691D01*
X33749789Y2340305D01*
X33749791Y2340302D01*
X33901149Y2239168D01*
X33937762Y2214704D01*
X34159489Y2170600D01*
X37425266Y2170600D01*
X37646993Y2214704D01*
X37736576Y2274561D01*
X37685353Y2197995D01*
X37618100Y1860889D01*
X37618100Y1585889D01*
X38498600Y1585889D01*
X38498600Y2646139D01*
X38499600Y2646139D01*
X38499600Y1585889D01*
X39380100Y1585889D01*
X39380100Y1860889D01*
X39312847Y2197995D01*
X39121708Y2483704D01*
X38835782Y2674519D01*
X38637413Y2730464D01*
X38499600Y2646139D01*
X38498600Y2646139D01*
X38360787Y2730464D01*
X38171838Y2677176D01*
X39623000Y4128338D01*
X39623000Y1302606D01*
X39317749Y997355D01*
X39380100Y1309889D01*
X39380100Y1584889D01*
X38499600Y1584889D01*
X38499600Y1564889D01*
X38498600Y1564889D01*
X38498600Y1584889D01*
X37618100Y1584889D01*
X37618100Y1309889D01*
X37685353Y972783D01*
X37876492Y687074D01*
X37966510Y627000D01*
X32031690Y627000D01*
X32121708Y687074D01*
X32312847Y972783D01*
X32380100Y1309889D01*
X32380100Y1584889D01*
X31499600Y1584889D01*
X31499600Y1564889D01*
X31498600Y1564889D01*
X31498600Y1584889D01*
X30618100Y1584889D01*
X30618100Y1309889D01*
X30685353Y972783D01*
X30876492Y687074D01*
X30966510Y627000D01*
X30552606Y627000D01*
X29877000Y1302606D01*
X29877000Y1860889D01*
X30618100Y1860889D01*
X30618100Y1585889D01*
X31498600Y1585889D01*
X31498600Y2646139D01*
X31499600Y2646139D01*
X31499600Y1585889D01*
X32380100Y1585889D01*
X32380100Y1860889D01*
X32312847Y2197995D01*
X32121708Y2483704D01*
X31835782Y2674519D01*
X31637413Y2730464D01*
X31499600Y2646139D01*
X31498600Y2646139D01*
X31360787Y2730464D01*
X31162418Y2674519D01*
X30876492Y2483704D01*
X30685353Y2197995D01*
X30618100Y1860889D01*
X29877000Y1860889D01*
X29877000Y4150987D01*
X31503717Y4150987D01*
X31558068Y3958274D01*
X31743463Y3680459D01*
X32021061Y3494739D01*
X32348600Y3429389D01*
X32498600Y3429389D01*
X32498600Y4284889D01*
X31588350Y4284889D01*
X31503717Y4150987D01*
X29877000Y4150987D01*
X29877000Y4419791D01*
X31503717Y4419791D01*
X31588350Y4285889D01*
X32498600Y4285889D01*
X32498600Y5141389D01*
X32348600Y5141389D01*
X32021061Y5076039D01*
X31743463Y4890319D01*
X31558068Y4612504D01*
X31503717Y4419791D01*
X29877000Y4419791D01*
X29877000Y5750000D01*
X29866994Y5799410D01*
X29839803Y5839803D01*
X29519543Y6160063D01*
X29515961Y6179099D01*
X29454769Y6274194D01*
X29361402Y6337989D01*
X29336593Y6343013D01*
X29089803Y6589803D01*
X29047789Y6617666D01*
X29000000Y6627000D01*
X28979400Y6627000D01*
X28979400Y7019299D01*
X29000000Y7015127D01*
X29500000Y7015127D01*
X29603539Y7034609D01*
X29698634Y7095801D01*
X29762429Y7189168D01*
X29784873Y7300000D01*
X29784873Y7318200D01*
X30302794Y7318200D01*
X30345801Y7251366D01*
X30439168Y7187571D01*
X30550000Y7165127D01*
X31050000Y7165127D01*
X31153539Y7184609D01*
X31248634Y7245801D01*
X31305668Y7329273D01*
X31415243Y7351069D01*
X31555329Y7444671D01*
X31555330Y7444672D01*
X32166262Y8055605D01*
X32165127Y8050000D01*
X32165127Y8050000D01*
G37*
X32165127Y8050000D02*
X32165127Y7450000D01*
X32184609Y7346461D01*
X32220600Y7290529D01*
X32220600Y6500000D01*
X32257092Y6316541D01*
X32361013Y6161013D01*
X33219700Y5302326D01*
X33219700Y4987416D01*
X33214227Y4960389D01*
X33214227Y4917421D01*
X32977139Y5076039D01*
X32649600Y5141389D01*
X32499600Y5141389D01*
X32499600Y4285889D01*
X32519600Y4285889D01*
X32519600Y4284889D01*
X32499600Y4284889D01*
X32499600Y3429389D01*
X32649600Y3429389D01*
X32977139Y3494739D01*
X33214227Y3653357D01*
X33214227Y3610389D01*
X33219700Y3581302D01*
X33219700Y3515770D01*
X33163804Y3432116D01*
X33119700Y3210389D01*
X33163804Y2988662D01*
X33289402Y2800691D01*
X33749789Y2340305D01*
X33749791Y2340302D01*
X33901149Y2239168D01*
X33937762Y2214704D01*
X34159489Y2170600D01*
X37425266Y2170600D01*
X37646993Y2214704D01*
X37736576Y2274561D01*
X37685353Y2197995D01*
X37618100Y1860889D01*
X37618100Y1585889D01*
X38498600Y1585889D01*
X38498600Y2646139D01*
X38499600Y2646139D01*
X38499600Y1585889D01*
X39380100Y1585889D01*
X39380100Y1860889D01*
X39312847Y2197995D01*
X39121708Y2483704D01*
X38835782Y2674519D01*
X38637413Y2730464D01*
X38499600Y2646139D01*
X38498600Y2646139D01*
X38360787Y2730464D01*
X38171838Y2677176D01*
X39623000Y4128338D01*
X39623000Y1302606D01*
X39317749Y997355D01*
X39380100Y1309889D01*
X39380100Y1584889D01*
X38499600Y1584889D01*
X38499600Y1564889D01*
X38498600Y1564889D01*
X38498600Y1584889D01*
X37618100Y1584889D01*
X37618100Y1309889D01*
X37685353Y972783D01*
X37876492Y687074D01*
X37966510Y627000D01*
X32031690Y627000D01*
X32121708Y687074D01*
X32312847Y972783D01*
X32380100Y1309889D01*
X32380100Y1584889D01*
X31499600Y1584889D01*
X31499600Y1564889D01*
X31498600Y1564889D01*
X31498600Y1584889D01*
X30618100Y1584889D01*
X30618100Y1309889D01*
X30685353Y972783D01*
X30876492Y687074D01*
X30966510Y627000D01*
X30552606Y627000D01*
X29877000Y1302606D01*
X29877000Y1860889D01*
X30618100Y1860889D01*
X30618100Y1585889D01*
X31498600Y1585889D01*
X31498600Y2646139D01*
X31499600Y2646139D01*
X31499600Y1585889D01*
X32380100Y1585889D01*
X32380100Y1860889D01*
X32312847Y2197995D01*
X32121708Y2483704D01*
X31835782Y2674519D01*
X31637413Y2730464D01*
X31499600Y2646139D01*
X31498600Y2646139D01*
X31360787Y2730464D01*
X31162418Y2674519D01*
X30876492Y2483704D01*
X30685353Y2197995D01*
X30618100Y1860889D01*
X29877000Y1860889D01*
X29877000Y4150987D01*
X31503717Y4150987D01*
X31558068Y3958274D01*
X31743463Y3680459D01*
X32021061Y3494739D01*
X32348600Y3429389D01*
X32498600Y3429389D01*
X32498600Y4284889D01*
X31588350Y4284889D01*
X31503717Y4150987D01*
X29877000Y4150987D01*
X29877000Y4419791D01*
X31503717Y4419791D01*
X31588350Y4285889D01*
X32498600Y4285889D01*
X32498600Y5141389D01*
X32348600Y5141389D01*
X32021061Y5076039D01*
X31743463Y4890319D01*
X31558068Y4612504D01*
X31503717Y4419791D01*
X29877000Y4419791D01*
X29877000Y5750000D01*
X29866994Y5799410D01*
X29839803Y5839803D01*
X29519543Y6160063D01*
X29515961Y6179099D01*
X29454769Y6274194D01*
X29361402Y6337989D01*
X29336593Y6343013D01*
X29089803Y6589803D01*
X29047789Y6617666D01*
X29000000Y6627000D01*
X28979400Y6627000D01*
X28979400Y7019299D01*
X29000000Y7015127D01*
X29500000Y7015127D01*
X29603539Y7034609D01*
X29698634Y7095801D01*
X29762429Y7189168D01*
X29784873Y7300000D01*
X29784873Y7318200D01*
X30302794Y7318200D01*
X30345801Y7251366D01*
X30439168Y7187571D01*
X30550000Y7165127D01*
X31050000Y7165127D01*
X31153539Y7184609D01*
X31248634Y7245801D01*
X31305668Y7329273D01*
X31415243Y7351069D01*
X31555329Y7444671D01*
X31555330Y7444672D01*
X32166262Y8055605D01*
X32165127Y8050000D01*
G36*
X28230592Y11980592D02*
X28730592Y11480592D01*
X28774240Y11451209D01*
X28802004Y11384180D01*
X28909181Y11277004D01*
X29049215Y11219000D01*
X29404250Y11219000D01*
X29499500Y11314250D01*
X29499500Y11369000D01*
X29500500Y11369000D01*
X29500500Y11314250D01*
X29595750Y11219000D01*
X29950785Y11219000D01*
X30090819Y11277004D01*
X30182816Y11369000D01*
X32315077Y11369000D01*
X32315077Y11351730D01*
X32334559Y11248191D01*
X32395751Y11153096D01*
X32489118Y11089301D01*
X32599950Y11066857D01*
X33400050Y11066857D01*
X33503589Y11086339D01*
X33598684Y11147531D01*
X33615663Y11172380D01*
X33760054Y11172380D01*
X34342130Y10590305D01*
X34342132Y10590302D01*
X34530103Y10464704D01*
X34751830Y10420600D01*
X37760004Y10420600D01*
X38920600Y9260005D01*
X38920600Y5064730D01*
X38446345Y4590475D01*
X38440132Y4612504D01*
X38254737Y4890319D01*
X37977139Y5076039D01*
X37649600Y5141389D01*
X37499600Y5141389D01*
X37499600Y4285889D01*
X37519600Y4285889D01*
X37519600Y4284889D01*
X37499600Y4284889D01*
X37499600Y4264889D01*
X37498600Y4264889D01*
X37498600Y4284889D01*
X36299600Y4284889D01*
X36299600Y4264889D01*
X36298600Y4264889D01*
X36298600Y4284889D01*
X36278600Y4284889D01*
X36278600Y4285889D01*
X36298600Y4285889D01*
X36298600Y5246139D01*
X36299600Y5246139D01*
X36299600Y4285889D01*
X37498600Y4285889D01*
X37498600Y5141389D01*
X37348600Y5141389D01*
X37021061Y5076039D01*
X36880100Y4981733D01*
X36880100Y5036175D01*
X36822096Y5176209D01*
X36714919Y5283385D01*
X36574885Y5341389D01*
X36394850Y5341389D01*
X36299600Y5246139D01*
X36298600Y5246139D01*
X36203350Y5341389D01*
X36023315Y5341389D01*
X35883281Y5283385D01*
X35845158Y5245262D01*
X35449100Y5245262D01*
X35430900Y5241837D01*
X35430900Y5297889D01*
X35398031Y5463132D01*
X35334500Y5558213D01*
X35334500Y7670588D01*
X35301631Y7835831D01*
X35208029Y7975917D01*
X35208026Y7975919D01*
X33900017Y9283929D01*
X33875965Y9300000D01*
X33759931Y9377531D01*
X33594688Y9410400D01*
X33331000Y9410400D01*
X33331000Y9654250D01*
X33235750Y9749500D01*
X32500500Y9749500D01*
X32500500Y9729500D01*
X32499500Y9729500D01*
X32499500Y9749500D01*
X32479500Y9749500D01*
X32479500Y9750500D01*
X32499500Y9750500D01*
X32499500Y10335750D01*
X32500500Y10335750D01*
X32500500Y9750500D01*
X33235750Y9750500D01*
X33331000Y9845750D01*
X33331000Y10125785D01*
X33272996Y10265819D01*
X33165820Y10372996D01*
X33025786Y10431000D01*
X32595750Y10431000D01*
X32500500Y10335750D01*
X32499500Y10335750D01*
X32404250Y10431000D01*
X31974214Y10431000D01*
X31834180Y10372996D01*
X31727004Y10265819D01*
X31669000Y10125785D01*
X31669000Y9941658D01*
X31555329Y10055329D01*
X31512017Y10084269D01*
X31415243Y10148931D01*
X31304135Y10171032D01*
X31254199Y10248634D01*
X31160832Y10312429D01*
X31050000Y10334873D01*
X30550000Y10334873D01*
X30446461Y10315391D01*
X30351366Y10254199D01*
X30301898Y10181800D01*
X29784873Y10181800D01*
X29784873Y10200000D01*
X29765391Y10303539D01*
X29704199Y10398634D01*
X29610832Y10462429D01*
X29500000Y10484873D01*
X29000000Y10484873D01*
X28979400Y10480997D01*
X28979400Y10500000D01*
X28942908Y10683458D01*
X28838987Y10838987D01*
X28588987Y11088987D01*
X28433459Y11192908D01*
X28250000Y11229400D01*
X27975893Y11229400D01*
X28090819Y11277004D01*
X28197996Y11384180D01*
X28256000Y11524214D01*
X28256000Y11904250D01*
X28160752Y11999498D01*
X28218054Y11999498D01*
X28230592Y11980592D01*
X28230592Y11980592D01*
G37*
X28230592Y11980592D02*
X28730592Y11480592D01*
X28774240Y11451209D01*
X28802004Y11384180D01*
X28909181Y11277004D01*
X29049215Y11219000D01*
X29404250Y11219000D01*
X29499500Y11314250D01*
X29499500Y11369000D01*
X29500500Y11369000D01*
X29500500Y11314250D01*
X29595750Y11219000D01*
X29950785Y11219000D01*
X30090819Y11277004D01*
X30182816Y11369000D01*
X32315077Y11369000D01*
X32315077Y11351730D01*
X32334559Y11248191D01*
X32395751Y11153096D01*
X32489118Y11089301D01*
X32599950Y11066857D01*
X33400050Y11066857D01*
X33503589Y11086339D01*
X33598684Y11147531D01*
X33615663Y11172380D01*
X33760054Y11172380D01*
X34342130Y10590305D01*
X34342132Y10590302D01*
X34530103Y10464704D01*
X34751830Y10420600D01*
X37760004Y10420600D01*
X38920600Y9260005D01*
X38920600Y5064730D01*
X38446345Y4590475D01*
X38440132Y4612504D01*
X38254737Y4890319D01*
X37977139Y5076039D01*
X37649600Y5141389D01*
X37499600Y5141389D01*
X37499600Y4285889D01*
X37519600Y4285889D01*
X37519600Y4284889D01*
X37499600Y4284889D01*
X37499600Y4264889D01*
X37498600Y4264889D01*
X37498600Y4284889D01*
X36299600Y4284889D01*
X36299600Y4264889D01*
X36298600Y4264889D01*
X36298600Y4284889D01*
X36278600Y4284889D01*
X36278600Y4285889D01*
X36298600Y4285889D01*
X36298600Y5246139D01*
X36299600Y5246139D01*
X36299600Y4285889D01*
X37498600Y4285889D01*
X37498600Y5141389D01*
X37348600Y5141389D01*
X37021061Y5076039D01*
X36880100Y4981733D01*
X36880100Y5036175D01*
X36822096Y5176209D01*
X36714919Y5283385D01*
X36574885Y5341389D01*
X36394850Y5341389D01*
X36299600Y5246139D01*
X36298600Y5246139D01*
X36203350Y5341389D01*
X36023315Y5341389D01*
X35883281Y5283385D01*
X35845158Y5245262D01*
X35449100Y5245262D01*
X35430900Y5241837D01*
X35430900Y5297889D01*
X35398031Y5463132D01*
X35334500Y5558213D01*
X35334500Y7670588D01*
X35301631Y7835831D01*
X35208029Y7975917D01*
X35208026Y7975919D01*
X33900017Y9283929D01*
X33875965Y9300000D01*
X33759931Y9377531D01*
X33594688Y9410400D01*
X33331000Y9410400D01*
X33331000Y9654250D01*
X33235750Y9749500D01*
X32500500Y9749500D01*
X32500500Y9729500D01*
X32499500Y9729500D01*
X32499500Y9749500D01*
X32479500Y9749500D01*
X32479500Y9750500D01*
X32499500Y9750500D01*
X32499500Y10335750D01*
X32500500Y10335750D01*
X32500500Y9750500D01*
X33235750Y9750500D01*
X33331000Y9845750D01*
X33331000Y10125785D01*
X33272996Y10265819D01*
X33165820Y10372996D01*
X33025786Y10431000D01*
X32595750Y10431000D01*
X32500500Y10335750D01*
X32499500Y10335750D01*
X32404250Y10431000D01*
X31974214Y10431000D01*
X31834180Y10372996D01*
X31727004Y10265819D01*
X31669000Y10125785D01*
X31669000Y9941658D01*
X31555329Y10055329D01*
X31512017Y10084269D01*
X31415243Y10148931D01*
X31304135Y10171032D01*
X31254199Y10248634D01*
X31160832Y10312429D01*
X31050000Y10334873D01*
X30550000Y10334873D01*
X30446461Y10315391D01*
X30351366Y10254199D01*
X30301898Y10181800D01*
X29784873Y10181800D01*
X29784873Y10200000D01*
X29765391Y10303539D01*
X29704199Y10398634D01*
X29610832Y10462429D01*
X29500000Y10484873D01*
X29000000Y10484873D01*
X28979400Y10480997D01*
X28979400Y10500000D01*
X28942908Y10683458D01*
X28838987Y10838987D01*
X28588987Y11088987D01*
X28433459Y11192908D01*
X28250000Y11229400D01*
X27975893Y11229400D01*
X28090819Y11277004D01*
X28197996Y11384180D01*
X28256000Y11524214D01*
X28256000Y11904250D01*
X28160752Y11999498D01*
X28218054Y11999498D01*
X28230592Y11980592D01*
G36*
X34013700Y7302354D02*
X34013700Y5864274D01*
X33179400Y6698574D01*
X33179400Y7290828D01*
X33212429Y7339168D01*
X33234873Y7450000D01*
X33234873Y8050000D01*
X33227646Y8088408D01*
X34013700Y7302354D01*
X34013700Y7302354D01*
G37*
X34013700Y7302354D02*
X34013700Y5864274D01*
X33179400Y6698574D01*
X33179400Y7290828D01*
X33212429Y7339168D01*
X33234873Y7450000D01*
X33234873Y8050000D01*
X33227646Y8088408D01*
X34013700Y7302354D01*
G36*
X20699932Y12238390D02*
X20667131Y12205590D01*
X20682360Y12220818D01*
X20682360Y12086114D01*
X20778760Y11989714D01*
X20776346Y11990714D01*
X20681653Y12085407D01*
X20546949Y12085407D01*
X20557291Y12095750D01*
X20455000Y11993459D01*
X20444969Y11969243D01*
X20420755Y11959213D01*
X20313578Y11852036D01*
X20328807Y11867264D01*
X20328807Y11732560D01*
X20423499Y11637868D01*
X20424499Y11635454D01*
X20328100Y11731853D01*
X20193396Y11731853D01*
X20208624Y11747082D01*
X20101447Y11639905D01*
X20043443Y11499871D01*
X20043443Y11445958D01*
X19869453Y11271968D01*
X19810016Y11184978D01*
X19810001Y11184908D01*
X19728032Y11130547D01*
X19515900Y10918415D01*
X19456463Y10831425D01*
X19456448Y10831354D01*
X19374479Y10776993D01*
X19162347Y10564861D01*
X19102910Y10477871D01*
X19102895Y10477802D01*
X19020925Y10423440D01*
X18846935Y10249450D01*
X18793022Y10249450D01*
X18652988Y10191446D01*
X18545811Y10084269D01*
X18561040Y10099497D01*
X18561040Y9964793D01*
X19293072Y9232761D01*
X19307215Y9246903D01*
X19307922Y9246196D01*
X19293779Y9232054D01*
X20025811Y8500022D01*
X20160515Y8500022D01*
X20145367Y8484873D01*
X20252464Y8591970D01*
X20310468Y8732004D01*
X20310468Y8785919D01*
X20441748Y8917198D01*
X21142875Y8216071D01*
X21282961Y8122469D01*
X21310377Y8117015D01*
X21448204Y8089599D01*
X21448209Y8089600D01*
X26124742Y8089600D01*
X26769669Y7444674D01*
X26769671Y7444671D01*
X26909757Y7351069D01*
X27075000Y7318200D01*
X27215127Y7318200D01*
X27215127Y7300000D01*
X27234609Y7196461D01*
X27295801Y7101366D01*
X27389168Y7037571D01*
X27500000Y7015127D01*
X28000000Y7015127D01*
X28020600Y7019003D01*
X28020600Y6627000D01*
X20229400Y6627000D01*
X20229400Y7500000D01*
X20192908Y7683458D01*
X20129400Y7778505D01*
X20129400Y8068019D01*
X20100520Y8213209D01*
X20098608Y8216071D01*
X20018277Y8336295D01*
X20007533Y8347039D01*
X20040333Y8379839D01*
X20025104Y8364611D01*
X20025104Y8499315D01*
X19293072Y9231347D01*
X19278930Y9217204D01*
X19278223Y9217911D01*
X19292365Y9232054D01*
X18560333Y9964086D01*
X18425629Y9964086D01*
X18440857Y9979315D01*
X18333680Y9872138D01*
X18275676Y9732104D01*
X18275676Y9678191D01*
X18101686Y9504201D01*
X18042249Y9417211D01*
X18042234Y9417141D01*
X17960265Y9362780D01*
X17748133Y9150648D01*
X17688696Y9063658D01*
X17688681Y9063587D01*
X17606712Y9009226D01*
X17432723Y8835237D01*
X17378808Y8835237D01*
X17238774Y8777233D01*
X17131597Y8670056D01*
X17146826Y8685284D01*
X17146826Y8550580D01*
X17878858Y7818548D01*
X17893001Y7832690D01*
X17893708Y7831983D01*
X17879565Y7817841D01*
X17893708Y7803698D01*
X17893001Y7802991D01*
X17878858Y7817134D01*
X17571090Y7509366D01*
X17571090Y7374662D01*
X18087303Y6858448D01*
X18227337Y6800444D01*
X18378908Y6800445D01*
X18454052Y6831571D01*
X18454052Y6627000D01*
X18052606Y6627000D01*
X16513286Y8166320D01*
X16861461Y8166320D01*
X16919465Y8026286D01*
X17435679Y7510073D01*
X17570383Y7510073D01*
X17878151Y7817841D01*
X17146119Y8549873D01*
X17011415Y8549873D01*
X17026643Y8565102D01*
X16919466Y8457925D01*
X16861462Y8317891D01*
X16861461Y8166320D01*
X16513286Y8166320D01*
X16101582Y8578024D01*
X16101582Y10439818D01*
X16072702Y10585008D01*
X15990458Y10708094D01*
X14879400Y11819152D01*
X14879400Y13123000D01*
X19815322Y13123000D01*
X20699932Y12238390D01*
X20699932Y12238390D01*
G37*
X20699932Y12238390D02*
X20667131Y12205590D01*
X20682360Y12220818D01*
X20682360Y12086114D01*
X20778760Y11989714D01*
X20776346Y11990714D01*
X20681653Y12085407D01*
X20546949Y12085407D01*
X20557291Y12095750D01*
X20455000Y11993459D01*
X20444969Y11969243D01*
X20420755Y11959213D01*
X20313578Y11852036D01*
X20328807Y11867264D01*
X20328807Y11732560D01*
X20423499Y11637868D01*
X20424499Y11635454D01*
X20328100Y11731853D01*
X20193396Y11731853D01*
X20208624Y11747082D01*
X20101447Y11639905D01*
X20043443Y11499871D01*
X20043443Y11445958D01*
X19869453Y11271968D01*
X19810016Y11184978D01*
X19810001Y11184908D01*
X19728032Y11130547D01*
X19515900Y10918415D01*
X19456463Y10831425D01*
X19456448Y10831354D01*
X19374479Y10776993D01*
X19162347Y10564861D01*
X19102910Y10477871D01*
X19102895Y10477802D01*
X19020925Y10423440D01*
X18846935Y10249450D01*
X18793022Y10249450D01*
X18652988Y10191446D01*
X18545811Y10084269D01*
X18561040Y10099497D01*
X18561040Y9964793D01*
X19293072Y9232761D01*
X19307215Y9246903D01*
X19307922Y9246196D01*
X19293779Y9232054D01*
X20025811Y8500022D01*
X20160515Y8500022D01*
X20145367Y8484873D01*
X20252464Y8591970D01*
X20310468Y8732004D01*
X20310468Y8785919D01*
X20441748Y8917198D01*
X21142875Y8216071D01*
X21282961Y8122469D01*
X21310377Y8117015D01*
X21448204Y8089599D01*
X21448209Y8089600D01*
X26124742Y8089600D01*
X26769669Y7444674D01*
X26769671Y7444671D01*
X26909757Y7351069D01*
X27075000Y7318200D01*
X27215127Y7318200D01*
X27215127Y7300000D01*
X27234609Y7196461D01*
X27295801Y7101366D01*
X27389168Y7037571D01*
X27500000Y7015127D01*
X28000000Y7015127D01*
X28020600Y7019003D01*
X28020600Y6627000D01*
X20229400Y6627000D01*
X20229400Y7500000D01*
X20192908Y7683458D01*
X20129400Y7778505D01*
X20129400Y8068019D01*
X20100520Y8213209D01*
X20098608Y8216071D01*
X20018277Y8336295D01*
X20007533Y8347039D01*
X20040333Y8379839D01*
X20025104Y8364611D01*
X20025104Y8499315D01*
X19293072Y9231347D01*
X19278930Y9217204D01*
X19278223Y9217911D01*
X19292365Y9232054D01*
X18560333Y9964086D01*
X18425629Y9964086D01*
X18440857Y9979315D01*
X18333680Y9872138D01*
X18275676Y9732104D01*
X18275676Y9678191D01*
X18101686Y9504201D01*
X18042249Y9417211D01*
X18042234Y9417141D01*
X17960265Y9362780D01*
X17748133Y9150648D01*
X17688696Y9063658D01*
X17688681Y9063587D01*
X17606712Y9009226D01*
X17432723Y8835237D01*
X17378808Y8835237D01*
X17238774Y8777233D01*
X17131597Y8670056D01*
X17146826Y8685284D01*
X17146826Y8550580D01*
X17878858Y7818548D01*
X17893001Y7832690D01*
X17893708Y7831983D01*
X17879565Y7817841D01*
X17893708Y7803698D01*
X17893001Y7802991D01*
X17878858Y7817134D01*
X17571090Y7509366D01*
X17571090Y7374662D01*
X18087303Y6858448D01*
X18227337Y6800444D01*
X18378908Y6800445D01*
X18454052Y6831571D01*
X18454052Y6627000D01*
X18052606Y6627000D01*
X16513286Y8166320D01*
X16861461Y8166320D01*
X16919465Y8026286D01*
X17435679Y7510073D01*
X17570383Y7510073D01*
X17878151Y7817841D01*
X17146119Y8549873D01*
X17011415Y8549873D01*
X17026643Y8565102D01*
X16919466Y8457925D01*
X16861462Y8317891D01*
X16861461Y8166320D01*
X16513286Y8166320D01*
X16101582Y8578024D01*
X16101582Y10439818D01*
X16072702Y10585008D01*
X15990458Y10708094D01*
X14879400Y11819152D01*
X14879400Y13123000D01*
X19815322Y13123000D01*
X20699932Y12238390D01*
G36*
X27215127Y10200000D02*
X27215127Y10181800D01*
X27075000Y10181800D01*
X26909757Y10148931D01*
X26769671Y10055329D01*
X26769669Y10055326D01*
X26124742Y9410400D01*
X21816440Y9410400D01*
X21561012Y9665828D01*
X22545228Y9665828D01*
X22690418Y9694708D01*
X22813504Y9776952D01*
X22821343Y9784791D01*
X22933459Y9807092D01*
X23088987Y9911013D01*
X23448574Y10270600D01*
X27229424Y10270600D01*
X27215127Y10200000D01*
X27215127Y10200000D01*
G37*
X27215127Y10200000D02*
X27215127Y10181800D01*
X27075000Y10181800D01*
X26909757Y10148931D01*
X26769671Y10055329D01*
X26769669Y10055326D01*
X26124742Y9410400D01*
X21816440Y9410400D01*
X21561012Y9665828D01*
X22545228Y9665828D01*
X22690418Y9694708D01*
X22813504Y9776952D01*
X22821343Y9784791D01*
X22933459Y9807092D01*
X23088987Y9911013D01*
X23448574Y10270600D01*
X27229424Y10270600D01*
X27215127Y10200000D01*
G36*
X21414392Y11354082D02*
X21428535Y11368224D01*
X21429242Y11367517D01*
X21415099Y11353375D01*
X21429242Y11339232D01*
X21428535Y11338525D01*
X21414392Y11352668D01*
X21106624Y11044900D01*
X21106624Y11044899D01*
X21061546Y10999821D01*
X21075689Y10985678D01*
X21074982Y10984971D01*
X21060839Y10999114D01*
X21046697Y10984971D01*
X21045990Y10985678D01*
X21060132Y10999821D01*
X21014346Y11045607D01*
X21015760Y11045607D01*
X21060839Y11000528D01*
X21368607Y11308296D01*
X21368607Y11308297D01*
X21413685Y11353375D01*
X21368607Y11398453D01*
X21368607Y11399867D01*
X21414392Y11354082D01*
X21414392Y11354082D01*
G37*
X21414392Y11354082D02*
X21428535Y11368224D01*
X21429242Y11367517D01*
X21415099Y11353375D01*
X21429242Y11339232D01*
X21428535Y11338525D01*
X21414392Y11352668D01*
X21106624Y11044900D01*
X21106624Y11044899D01*
X21061546Y10999821D01*
X21075689Y10985678D01*
X21074982Y10984971D01*
X21060839Y10999114D01*
X21046697Y10984971D01*
X21045990Y10985678D01*
X21060132Y10999821D01*
X21014346Y11045607D01*
X21015760Y11045607D01*
X21060839Y11000528D01*
X21368607Y11308296D01*
X21368607Y11308297D01*
X21413685Y11353375D01*
X21368607Y11398453D01*
X21368607Y11399867D01*
X21414392Y11354082D01*
G36*
X26744000Y12095750D02*
X26839250Y12000500D01*
X27499500Y12000500D01*
X27499500Y12020500D01*
X27500500Y12020500D01*
X27500500Y12000500D01*
X27520500Y12000500D01*
X27520500Y11999500D01*
X27500500Y11999500D01*
X27500500Y11979500D01*
X27499500Y11979500D01*
X27499500Y11999500D01*
X26839250Y11999500D01*
X26744000Y11904250D01*
X26744000Y11524214D01*
X26802004Y11384180D01*
X26909181Y11277004D01*
X27024107Y11229400D01*
X25290952Y11229400D01*
X25376679Y11315127D01*
X25875000Y11315127D01*
X25978539Y11334609D01*
X26073634Y11395801D01*
X26137429Y11489168D01*
X26159873Y11600000D01*
X26159873Y12123000D01*
X26744000Y12123000D01*
X26744000Y12095750D01*
X26744000Y12095750D01*
G37*
X26744000Y12095750D02*
X26839250Y12000500D01*
X27499500Y12000500D01*
X27499500Y12020500D01*
X27500500Y12020500D01*
X27500500Y12000500D01*
X27520500Y12000500D01*
X27520500Y11999500D01*
X27500500Y11999500D01*
X27500500Y11979500D01*
X27499500Y11979500D01*
X27499500Y11999500D01*
X26839250Y11999500D01*
X26744000Y11904250D01*
X26744000Y11524214D01*
X26802004Y11384180D01*
X26909181Y11277004D01*
X27024107Y11229400D01*
X25290952Y11229400D01*
X25376679Y11315127D01*
X25875000Y11315127D01*
X25978539Y11334609D01*
X26073634Y11395801D01*
X26137429Y11489168D01*
X26159873Y11600000D01*
X26159873Y12123000D01*
X26744000Y12123000D01*
X26744000Y12095750D01*
G36*
X22843456Y12781730D02*
X22829313Y12767588D01*
X22843456Y12753445D01*
X22842749Y12752738D01*
X22828606Y12766881D01*
X22814464Y12752738D01*
X22813757Y12753445D01*
X22827899Y12767588D01*
X22813757Y12781730D01*
X22814464Y12782437D01*
X22828606Y12768295D01*
X22842749Y12782437D01*
X22843456Y12781730D01*
X22843456Y12781730D01*
G37*
X22843456Y12781730D02*
X22829313Y12767588D01*
X22843456Y12753445D01*
X22842749Y12752738D01*
X22828606Y12766881D01*
X22814464Y12752738D01*
X22813757Y12753445D01*
X22827899Y12767588D01*
X22813757Y12781730D01*
X22814464Y12782437D01*
X22828606Y12768295D01*
X22842749Y12782437D01*
X22843456Y12781730D01*
G36*
X54718652Y10782684D02*
X54825310Y10767527D01*
X55574610Y10767527D01*
X55584513Y10768317D01*
X55668257Y10722278D01*
X55794943Y10682090D01*
X55918713Y10668207D01*
X56517157Y10069763D01*
X56517157Y9350000D01*
X56521995Y9289327D01*
X56553864Y9186420D01*
X56613140Y9096465D01*
X56695130Y9026585D01*
X56793342Y8982314D01*
X56900000Y8967157D01*
X57761185Y8967157D01*
X57919000Y8809342D01*
X57919000Y8638043D01*
X57882314Y8556658D01*
X57867157Y8450000D01*
X57867157Y7550000D01*
X57871995Y7489327D01*
X57903864Y7386420D01*
X57963140Y7296465D01*
X58045130Y7226585D01*
X58143342Y7182314D01*
X58250000Y7167157D01*
X58750000Y7167157D01*
X58810673Y7171995D01*
X58913580Y7203864D01*
X59003535Y7263140D01*
X59073415Y7345130D01*
X59117686Y7443342D01*
X59132843Y7550000D01*
X59132843Y8450000D01*
X59128005Y8510673D01*
X59096136Y8613580D01*
X59081000Y8636550D01*
X59081000Y8669000D01*
X59611957Y8669000D01*
X59693342Y8632314D01*
X59800000Y8617157D01*
X60295499Y8617157D01*
X60061185Y8382843D01*
X59800000Y8382843D01*
X59739327Y8378005D01*
X59636420Y8346136D01*
X59546465Y8286860D01*
X59476585Y8204870D01*
X59432314Y8106658D01*
X59417157Y8000000D01*
X59417157Y7500000D01*
X59421995Y7439327D01*
X59453864Y7336420D01*
X59513140Y7246465D01*
X59595130Y7176585D01*
X59693342Y7132314D01*
X59800000Y7117157D01*
X60700000Y7117157D01*
X60760673Y7121995D01*
X60863580Y7153864D01*
X60953535Y7213140D01*
X61023415Y7295130D01*
X61067686Y7393342D01*
X61082843Y7500000D01*
X61082843Y7761185D01*
X61460658Y8139000D01*
X61479557Y8139000D01*
X61479557Y7602400D01*
X61484395Y7541727D01*
X61516264Y7438820D01*
X61575540Y7348865D01*
X61657530Y7278985D01*
X61755742Y7234714D01*
X61862400Y7219557D01*
X64097600Y7219557D01*
X64158273Y7224395D01*
X64261180Y7256264D01*
X64351135Y7315540D01*
X64373000Y7341194D01*
X64373000Y5285647D01*
X64132765Y5647230D01*
X63665558Y6117710D01*
X63115866Y6488482D01*
X62504626Y6745424D01*
X61855121Y6878748D01*
X61192089Y6883377D01*
X60540785Y6759134D01*
X59926017Y6510752D01*
X59371202Y6147691D01*
X58897472Y5683780D01*
X58522872Y5136690D01*
X58261669Y4527259D01*
X58123814Y3878700D01*
X58114556Y3215716D01*
X58234249Y2563561D01*
X58478333Y1947074D01*
X58837512Y1389738D01*
X59298104Y912781D01*
X59709289Y627000D01*
X41302606Y627000D01*
X40627000Y1302606D01*
X40627000Y5922258D01*
X40633642Y5888867D01*
X40662362Y5819529D01*
X40704058Y5757127D01*
X40757126Y5704058D01*
X40819529Y5662362D01*
X40888866Y5633642D01*
X40962475Y5619000D01*
X41404250Y5619000D01*
X41499500Y5714250D01*
X41499500Y7374500D01*
X41500500Y7374500D01*
X41500500Y5714250D01*
X41595750Y5619000D01*
X42037525Y5619000D01*
X42111134Y5633642D01*
X42180471Y5662362D01*
X42242874Y5704058D01*
X42295942Y5757127D01*
X42337638Y5819529D01*
X42366358Y5888867D01*
X42381000Y5962475D01*
X42381000Y7279250D01*
X42285750Y7374500D01*
X41500500Y7374500D01*
X41499500Y7374500D01*
X41479500Y7374500D01*
X41479500Y7375500D01*
X41499500Y7375500D01*
X41499500Y9035750D01*
X41500500Y9035750D01*
X41500500Y7375500D01*
X42285750Y7375500D01*
X42381000Y7470750D01*
X42381000Y8787525D01*
X42366358Y8861133D01*
X42337638Y8930471D01*
X42295942Y8992873D01*
X42242874Y9045942D01*
X42180471Y9087638D01*
X42111134Y9116358D01*
X42037525Y9131000D01*
X41595750Y9131000D01*
X41500500Y9035750D01*
X41499500Y9035750D01*
X41404250Y9131000D01*
X40962475Y9131000D01*
X40888866Y9116358D01*
X40819529Y9087638D01*
X40757126Y9045942D01*
X40704058Y8992873D01*
X40662362Y8930471D01*
X40633642Y8861133D01*
X40627000Y8827742D01*
X40627000Y9619000D01*
X45019000Y9619000D01*
X45019000Y9132843D01*
X45000000Y9132843D01*
X44939327Y9128005D01*
X44836420Y9096136D01*
X44746465Y9036860D01*
X44676585Y8954870D01*
X44632314Y8856658D01*
X44617157Y8750000D01*
X44617157Y6000000D01*
X44621995Y5939327D01*
X44653864Y5836420D01*
X44713140Y5746465D01*
X44795130Y5676585D01*
X44893342Y5632314D01*
X45000000Y5617157D01*
X46000000Y5617157D01*
X46060673Y5621995D01*
X46163580Y5653864D01*
X46253535Y5713140D01*
X46323415Y5795130D01*
X46367686Y5893342D01*
X46382843Y6000000D01*
X46382843Y6511921D01*
X47134881Y5759882D01*
X47169202Y5731691D01*
X47203251Y5703120D01*
X47205471Y5701900D01*
X47207422Y5700297D01*
X47246543Y5679320D01*
X47285514Y5657896D01*
X47287925Y5657131D01*
X47290154Y5655936D01*
X47332628Y5642951D01*
X47374994Y5629511D01*
X47377509Y5629229D01*
X47379926Y5628490D01*
X47424116Y5624001D01*
X47468284Y5619047D01*
X47473227Y5619012D01*
X47473320Y5619003D01*
X47473406Y5619011D01*
X47475000Y5619000D01*
X52950000Y5619000D01*
X52994223Y5623336D01*
X53038481Y5627208D01*
X53040913Y5627914D01*
X53043427Y5628161D01*
X53085937Y5640995D01*
X53128628Y5653398D01*
X53130873Y5654562D01*
X53133295Y5655293D01*
X53172509Y5676144D01*
X53211971Y5696599D01*
X53213950Y5698179D01*
X53216181Y5699365D01*
X53250619Y5727451D01*
X53285336Y5755166D01*
X53288850Y5758632D01*
X53288929Y5758696D01*
X53288989Y5758769D01*
X53290118Y5759882D01*
X54590119Y7059882D01*
X54618318Y7094212D01*
X54646880Y7128251D01*
X54648100Y7130470D01*
X54649704Y7132423D01*
X54657356Y7146694D01*
X54688866Y7133642D01*
X54762475Y7119000D01*
X55154250Y7119000D01*
X55249500Y7214250D01*
X55249500Y7749500D01*
X55250500Y7749500D01*
X55250500Y7214250D01*
X55345750Y7119000D01*
X55737525Y7119000D01*
X55811134Y7133642D01*
X55880471Y7162362D01*
X55942874Y7204058D01*
X55995942Y7257127D01*
X56037638Y7319529D01*
X56066358Y7388867D01*
X56081000Y7462475D01*
X56081000Y7654250D01*
X55985750Y7749500D01*
X55250500Y7749500D01*
X55249500Y7749500D01*
X55229500Y7749500D01*
X55229500Y7750500D01*
X55249500Y7750500D01*
X55249500Y8285750D01*
X55250500Y8285750D01*
X55250500Y7750500D01*
X55985750Y7750500D01*
X56081000Y7845750D01*
X56081000Y7904250D01*
X56369000Y7904250D01*
X56369000Y7512475D01*
X56383642Y7438866D01*
X56412362Y7369529D01*
X56454058Y7307126D01*
X56507127Y7254058D01*
X56569529Y7212362D01*
X56638867Y7183642D01*
X56712475Y7169000D01*
X56904250Y7169000D01*
X56999500Y7264250D01*
X56999500Y7999500D01*
X57000500Y7999500D01*
X57000500Y7264250D01*
X57095750Y7169000D01*
X57287525Y7169000D01*
X57361133Y7183642D01*
X57430471Y7212362D01*
X57492873Y7254058D01*
X57545942Y7307126D01*
X57587638Y7369529D01*
X57616358Y7438866D01*
X57631000Y7512475D01*
X57631000Y7904250D01*
X57535750Y7999500D01*
X57000500Y7999500D01*
X56999500Y7999500D01*
X56464250Y7999500D01*
X56369000Y7904250D01*
X56081000Y7904250D01*
X56081000Y8037525D01*
X56066358Y8111133D01*
X56037638Y8180471D01*
X55995942Y8242873D01*
X55942874Y8295942D01*
X55880471Y8337638D01*
X55811134Y8366358D01*
X55737525Y8381000D01*
X55345750Y8381000D01*
X55250500Y8285750D01*
X55249500Y8285750D01*
X55154250Y8381000D01*
X54762475Y8381000D01*
X54731000Y8374739D01*
X54731000Y8487525D01*
X56369000Y8487525D01*
X56369000Y8095750D01*
X56464250Y8000500D01*
X56999500Y8000500D01*
X56999500Y8735750D01*
X57000500Y8735750D01*
X57000500Y8000500D01*
X57535750Y8000500D01*
X57631000Y8095750D01*
X57631000Y8487525D01*
X57616358Y8561134D01*
X57587638Y8630471D01*
X57545942Y8692874D01*
X57492873Y8745942D01*
X57430471Y8787638D01*
X57361133Y8816358D01*
X57287525Y8831000D01*
X57095750Y8831000D01*
X57000500Y8735750D01*
X56999500Y8735750D01*
X56904250Y8831000D01*
X56712475Y8831000D01*
X56638867Y8816358D01*
X56569529Y8787638D01*
X56507127Y8745942D01*
X56454058Y8692874D01*
X56412362Y8630471D01*
X56383642Y8561134D01*
X56369000Y8487525D01*
X54731000Y8487525D01*
X54731000Y8626962D01*
X54800000Y8617157D01*
X55700000Y8617157D01*
X55760673Y8621995D01*
X55863580Y8653864D01*
X55953535Y8713140D01*
X56023415Y8795130D01*
X56067686Y8893342D01*
X56082843Y9000000D01*
X56082843Y9500000D01*
X56078005Y9560673D01*
X56046136Y9663580D01*
X55986860Y9753535D01*
X55904870Y9823415D01*
X55806658Y9867686D01*
X55700000Y9882843D01*
X54800000Y9882843D01*
X54739327Y9878005D01*
X54636420Y9846136D01*
X54546465Y9786860D01*
X54498856Y9731000D01*
X54001709Y9731000D01*
X53986860Y9753535D01*
X53904870Y9823415D01*
X53850665Y9847849D01*
X54513408Y10510592D01*
X54594249Y10630045D01*
X54624995Y10778126D01*
X54625225Y10824798D01*
X54718652Y10782684D01*
X54718652Y10782684D01*
G37*
X54718652Y10782684D02*
X54825310Y10767527D01*
X55574610Y10767527D01*
X55584513Y10768317D01*
X55668257Y10722278D01*
X55794943Y10682090D01*
X55918713Y10668207D01*
X56517157Y10069763D01*
X56517157Y9350000D01*
X56521995Y9289327D01*
X56553864Y9186420D01*
X56613140Y9096465D01*
X56695130Y9026585D01*
X56793342Y8982314D01*
X56900000Y8967157D01*
X57761185Y8967157D01*
X57919000Y8809342D01*
X57919000Y8638043D01*
X57882314Y8556658D01*
X57867157Y8450000D01*
X57867157Y7550000D01*
X57871995Y7489327D01*
X57903864Y7386420D01*
X57963140Y7296465D01*
X58045130Y7226585D01*
X58143342Y7182314D01*
X58250000Y7167157D01*
X58750000Y7167157D01*
X58810673Y7171995D01*
X58913580Y7203864D01*
X59003535Y7263140D01*
X59073415Y7345130D01*
X59117686Y7443342D01*
X59132843Y7550000D01*
X59132843Y8450000D01*
X59128005Y8510673D01*
X59096136Y8613580D01*
X59081000Y8636550D01*
X59081000Y8669000D01*
X59611957Y8669000D01*
X59693342Y8632314D01*
X59800000Y8617157D01*
X60295499Y8617157D01*
X60061185Y8382843D01*
X59800000Y8382843D01*
X59739327Y8378005D01*
X59636420Y8346136D01*
X59546465Y8286860D01*
X59476585Y8204870D01*
X59432314Y8106658D01*
X59417157Y8000000D01*
X59417157Y7500000D01*
X59421995Y7439327D01*
X59453864Y7336420D01*
X59513140Y7246465D01*
X59595130Y7176585D01*
X59693342Y7132314D01*
X59800000Y7117157D01*
X60700000Y7117157D01*
X60760673Y7121995D01*
X60863580Y7153864D01*
X60953535Y7213140D01*
X61023415Y7295130D01*
X61067686Y7393342D01*
X61082843Y7500000D01*
X61082843Y7761185D01*
X61460658Y8139000D01*
X61479557Y8139000D01*
X61479557Y7602400D01*
X61484395Y7541727D01*
X61516264Y7438820D01*
X61575540Y7348865D01*
X61657530Y7278985D01*
X61755742Y7234714D01*
X61862400Y7219557D01*
X64097600Y7219557D01*
X64158273Y7224395D01*
X64261180Y7256264D01*
X64351135Y7315540D01*
X64373000Y7341194D01*
X64373000Y5285647D01*
X64132765Y5647230D01*
X63665558Y6117710D01*
X63115866Y6488482D01*
X62504626Y6745424D01*
X61855121Y6878748D01*
X61192089Y6883377D01*
X60540785Y6759134D01*
X59926017Y6510752D01*
X59371202Y6147691D01*
X58897472Y5683780D01*
X58522872Y5136690D01*
X58261669Y4527259D01*
X58123814Y3878700D01*
X58114556Y3215716D01*
X58234249Y2563561D01*
X58478333Y1947074D01*
X58837512Y1389738D01*
X59298104Y912781D01*
X59709289Y627000D01*
X41302606Y627000D01*
X40627000Y1302606D01*
X40627000Y5922258D01*
X40633642Y5888867D01*
X40662362Y5819529D01*
X40704058Y5757127D01*
X40757126Y5704058D01*
X40819529Y5662362D01*
X40888866Y5633642D01*
X40962475Y5619000D01*
X41404250Y5619000D01*
X41499500Y5714250D01*
X41499500Y7374500D01*
X41500500Y7374500D01*
X41500500Y5714250D01*
X41595750Y5619000D01*
X42037525Y5619000D01*
X42111134Y5633642D01*
X42180471Y5662362D01*
X42242874Y5704058D01*
X42295942Y5757127D01*
X42337638Y5819529D01*
X42366358Y5888867D01*
X42381000Y5962475D01*
X42381000Y7279250D01*
X42285750Y7374500D01*
X41500500Y7374500D01*
X41499500Y7374500D01*
X41479500Y7374500D01*
X41479500Y7375500D01*
X41499500Y7375500D01*
X41499500Y9035750D01*
X41500500Y9035750D01*
X41500500Y7375500D01*
X42285750Y7375500D01*
X42381000Y7470750D01*
X42381000Y8787525D01*
X42366358Y8861133D01*
X42337638Y8930471D01*
X42295942Y8992873D01*
X42242874Y9045942D01*
X42180471Y9087638D01*
X42111134Y9116358D01*
X42037525Y9131000D01*
X41595750Y9131000D01*
X41500500Y9035750D01*
X41499500Y9035750D01*
X41404250Y9131000D01*
X40962475Y9131000D01*
X40888866Y9116358D01*
X40819529Y9087638D01*
X40757126Y9045942D01*
X40704058Y8992873D01*
X40662362Y8930471D01*
X40633642Y8861133D01*
X40627000Y8827742D01*
X40627000Y9619000D01*
X45019000Y9619000D01*
X45019000Y9132843D01*
X45000000Y9132843D01*
X44939327Y9128005D01*
X44836420Y9096136D01*
X44746465Y9036860D01*
X44676585Y8954870D01*
X44632314Y8856658D01*
X44617157Y8750000D01*
X44617157Y6000000D01*
X44621995Y5939327D01*
X44653864Y5836420D01*
X44713140Y5746465D01*
X44795130Y5676585D01*
X44893342Y5632314D01*
X45000000Y5617157D01*
X46000000Y5617157D01*
X46060673Y5621995D01*
X46163580Y5653864D01*
X46253535Y5713140D01*
X46323415Y5795130D01*
X46367686Y5893342D01*
X46382843Y6000000D01*
X46382843Y6511921D01*
X47134881Y5759882D01*
X47169202Y5731691D01*
X47203251Y5703120D01*
X47205471Y5701900D01*
X47207422Y5700297D01*
X47246543Y5679320D01*
X47285514Y5657896D01*
X47287925Y5657131D01*
X47290154Y5655936D01*
X47332628Y5642951D01*
X47374994Y5629511D01*
X47377509Y5629229D01*
X47379926Y5628490D01*
X47424116Y5624001D01*
X47468284Y5619047D01*
X47473227Y5619012D01*
X47473320Y5619003D01*
X47473406Y5619011D01*
X47475000Y5619000D01*
X52950000Y5619000D01*
X52994223Y5623336D01*
X53038481Y5627208D01*
X53040913Y5627914D01*
X53043427Y5628161D01*
X53085937Y5640995D01*
X53128628Y5653398D01*
X53130873Y5654562D01*
X53133295Y5655293D01*
X53172509Y5676144D01*
X53211971Y5696599D01*
X53213950Y5698179D01*
X53216181Y5699365D01*
X53250619Y5727451D01*
X53285336Y5755166D01*
X53288850Y5758632D01*
X53288929Y5758696D01*
X53288989Y5758769D01*
X53290118Y5759882D01*
X54590119Y7059882D01*
X54618318Y7094212D01*
X54646880Y7128251D01*
X54648100Y7130470D01*
X54649704Y7132423D01*
X54657356Y7146694D01*
X54688866Y7133642D01*
X54762475Y7119000D01*
X55154250Y7119000D01*
X55249500Y7214250D01*
X55249500Y7749500D01*
X55250500Y7749500D01*
X55250500Y7214250D01*
X55345750Y7119000D01*
X55737525Y7119000D01*
X55811134Y7133642D01*
X55880471Y7162362D01*
X55942874Y7204058D01*
X55995942Y7257127D01*
X56037638Y7319529D01*
X56066358Y7388867D01*
X56081000Y7462475D01*
X56081000Y7654250D01*
X55985750Y7749500D01*
X55250500Y7749500D01*
X55249500Y7749500D01*
X55229500Y7749500D01*
X55229500Y7750500D01*
X55249500Y7750500D01*
X55249500Y8285750D01*
X55250500Y8285750D01*
X55250500Y7750500D01*
X55985750Y7750500D01*
X56081000Y7845750D01*
X56081000Y7904250D01*
X56369000Y7904250D01*
X56369000Y7512475D01*
X56383642Y7438866D01*
X56412362Y7369529D01*
X56454058Y7307126D01*
X56507127Y7254058D01*
X56569529Y7212362D01*
X56638867Y7183642D01*
X56712475Y7169000D01*
X56904250Y7169000D01*
X56999500Y7264250D01*
X56999500Y7999500D01*
X57000500Y7999500D01*
X57000500Y7264250D01*
X57095750Y7169000D01*
X57287525Y7169000D01*
X57361133Y7183642D01*
X57430471Y7212362D01*
X57492873Y7254058D01*
X57545942Y7307126D01*
X57587638Y7369529D01*
X57616358Y7438866D01*
X57631000Y7512475D01*
X57631000Y7904250D01*
X57535750Y7999500D01*
X57000500Y7999500D01*
X56999500Y7999500D01*
X56464250Y7999500D01*
X56369000Y7904250D01*
X56081000Y7904250D01*
X56081000Y8037525D01*
X56066358Y8111133D01*
X56037638Y8180471D01*
X55995942Y8242873D01*
X55942874Y8295942D01*
X55880471Y8337638D01*
X55811134Y8366358D01*
X55737525Y8381000D01*
X55345750Y8381000D01*
X55250500Y8285750D01*
X55249500Y8285750D01*
X55154250Y8381000D01*
X54762475Y8381000D01*
X54731000Y8374739D01*
X54731000Y8487525D01*
X56369000Y8487525D01*
X56369000Y8095750D01*
X56464250Y8000500D01*
X56999500Y8000500D01*
X56999500Y8735750D01*
X57000500Y8735750D01*
X57000500Y8000500D01*
X57535750Y8000500D01*
X57631000Y8095750D01*
X57631000Y8487525D01*
X57616358Y8561134D01*
X57587638Y8630471D01*
X57545942Y8692874D01*
X57492873Y8745942D01*
X57430471Y8787638D01*
X57361133Y8816358D01*
X57287525Y8831000D01*
X57095750Y8831000D01*
X57000500Y8735750D01*
X56999500Y8735750D01*
X56904250Y8831000D01*
X56712475Y8831000D01*
X56638867Y8816358D01*
X56569529Y8787638D01*
X56507127Y8745942D01*
X56454058Y8692874D01*
X56412362Y8630471D01*
X56383642Y8561134D01*
X56369000Y8487525D01*
X54731000Y8487525D01*
X54731000Y8626962D01*
X54800000Y8617157D01*
X55700000Y8617157D01*
X55760673Y8621995D01*
X55863580Y8653864D01*
X55953535Y8713140D01*
X56023415Y8795130D01*
X56067686Y8893342D01*
X56082843Y9000000D01*
X56082843Y9500000D01*
X56078005Y9560673D01*
X56046136Y9663580D01*
X55986860Y9753535D01*
X55904870Y9823415D01*
X55806658Y9867686D01*
X55700000Y9882843D01*
X54800000Y9882843D01*
X54739327Y9878005D01*
X54636420Y9846136D01*
X54546465Y9786860D01*
X54498856Y9731000D01*
X54001709Y9731000D01*
X53986860Y9753535D01*
X53904870Y9823415D01*
X53850665Y9847849D01*
X54513408Y10510592D01*
X54594249Y10630045D01*
X54624995Y10778126D01*
X54625225Y10824798D01*
X54718652Y10782684D01*
G36*
X47118430Y9610805D02*
X47118430Y8594610D01*
X47213680Y8499360D01*
X48249500Y8499360D01*
X48249500Y8519360D01*
X48250500Y8519360D01*
X48250500Y8499360D01*
X49286320Y8499360D01*
X49381570Y8594610D01*
X49381570Y9610805D01*
X49379940Y9619000D01*
X49870060Y9619000D01*
X49868430Y9610805D01*
X49868430Y8594610D01*
X49963680Y8499360D01*
X50999500Y8499360D01*
X50999500Y8519360D01*
X51000500Y8519360D01*
X51000500Y8499360D01*
X51020500Y8499360D01*
X51020500Y8498360D01*
X51000500Y8498360D01*
X51000500Y7138690D01*
X51095750Y7043440D01*
X51788095Y7043440D01*
X51861704Y7058082D01*
X51931041Y7086802D01*
X51993444Y7128498D01*
X52046512Y7181567D01*
X52088208Y7243969D01*
X52116928Y7313307D01*
X52131570Y7386915D01*
X52131570Y7988194D01*
X52417157Y7702607D01*
X52417157Y7500000D01*
X52421995Y7439327D01*
X52453864Y7336420D01*
X52513140Y7246465D01*
X52595130Y7176585D01*
X52693342Y7132314D01*
X52800000Y7117157D01*
X53286920Y7117157D01*
X52750764Y6581000D01*
X47674237Y6581000D01*
X46540118Y7715118D01*
X46505822Y7743289D01*
X46471749Y7771880D01*
X46469529Y7773100D01*
X46467578Y7774703D01*
X46428457Y7795680D01*
X46389486Y7817104D01*
X46387075Y7817869D01*
X46384846Y7819064D01*
X46382843Y7819676D01*
X46382843Y8403110D01*
X47118430Y8403110D01*
X47118430Y7386915D01*
X47133072Y7313307D01*
X47161792Y7243969D01*
X47203488Y7181567D01*
X47256556Y7128498D01*
X47318959Y7086802D01*
X47388296Y7058082D01*
X47461905Y7043440D01*
X48154250Y7043440D01*
X48249500Y7138690D01*
X48249500Y8498360D01*
X48250500Y8498360D01*
X48250500Y7138690D01*
X48345750Y7043440D01*
X49038095Y7043440D01*
X49111704Y7058082D01*
X49181041Y7086802D01*
X49243444Y7128498D01*
X49296512Y7181567D01*
X49338208Y7243969D01*
X49366928Y7313307D01*
X49381570Y7386915D01*
X49381570Y8403110D01*
X49868430Y8403110D01*
X49868430Y7386915D01*
X49883072Y7313307D01*
X49911792Y7243969D01*
X49953488Y7181567D01*
X50006556Y7128498D01*
X50068959Y7086802D01*
X50138296Y7058082D01*
X50211905Y7043440D01*
X50904250Y7043440D01*
X50999500Y7138690D01*
X50999500Y8498360D01*
X49963680Y8498360D01*
X49868430Y8403110D01*
X49381570Y8403110D01*
X49286320Y8498360D01*
X48250500Y8498360D01*
X48249500Y8498360D01*
X47213680Y8498360D01*
X47118430Y8403110D01*
X46382843Y8403110D01*
X46382843Y8750000D01*
X46378005Y8810673D01*
X46346136Y8913580D01*
X46286860Y9003535D01*
X46204870Y9073415D01*
X46106658Y9117686D01*
X46000000Y9132843D01*
X45981000Y9132843D01*
X45981000Y9619000D01*
X47120060Y9619000D01*
X47118430Y9610805D01*
X47118430Y9610805D01*
G37*
X47118430Y9610805D02*
X47118430Y8594610D01*
X47213680Y8499360D01*
X48249500Y8499360D01*
X48249500Y8519360D01*
X48250500Y8519360D01*
X48250500Y8499360D01*
X49286320Y8499360D01*
X49381570Y8594610D01*
X49381570Y9610805D01*
X49379940Y9619000D01*
X49870060Y9619000D01*
X49868430Y9610805D01*
X49868430Y8594610D01*
X49963680Y8499360D01*
X50999500Y8499360D01*
X50999500Y8519360D01*
X51000500Y8519360D01*
X51000500Y8499360D01*
X51020500Y8499360D01*
X51020500Y8498360D01*
X51000500Y8498360D01*
X51000500Y7138690D01*
X51095750Y7043440D01*
X51788095Y7043440D01*
X51861704Y7058082D01*
X51931041Y7086802D01*
X51993444Y7128498D01*
X52046512Y7181567D01*
X52088208Y7243969D01*
X52116928Y7313307D01*
X52131570Y7386915D01*
X52131570Y7988194D01*
X52417157Y7702607D01*
X52417157Y7500000D01*
X52421995Y7439327D01*
X52453864Y7336420D01*
X52513140Y7246465D01*
X52595130Y7176585D01*
X52693342Y7132314D01*
X52800000Y7117157D01*
X53286920Y7117157D01*
X52750764Y6581000D01*
X47674237Y6581000D01*
X46540118Y7715118D01*
X46505822Y7743289D01*
X46471749Y7771880D01*
X46469529Y7773100D01*
X46467578Y7774703D01*
X46428457Y7795680D01*
X46389486Y7817104D01*
X46387075Y7817869D01*
X46384846Y7819064D01*
X46382843Y7819676D01*
X46382843Y8403110D01*
X47118430Y8403110D01*
X47118430Y7386915D01*
X47133072Y7313307D01*
X47161792Y7243969D01*
X47203488Y7181567D01*
X47256556Y7128498D01*
X47318959Y7086802D01*
X47388296Y7058082D01*
X47461905Y7043440D01*
X48154250Y7043440D01*
X48249500Y7138690D01*
X48249500Y8498360D01*
X48250500Y8498360D01*
X48250500Y7138690D01*
X48345750Y7043440D01*
X49038095Y7043440D01*
X49111704Y7058082D01*
X49181041Y7086802D01*
X49243444Y7128498D01*
X49296512Y7181567D01*
X49338208Y7243969D01*
X49366928Y7313307D01*
X49381570Y7386915D01*
X49381570Y8403110D01*
X49868430Y8403110D01*
X49868430Y7386915D01*
X49883072Y7313307D01*
X49911792Y7243969D01*
X49953488Y7181567D01*
X50006556Y7128498D01*
X50068959Y7086802D01*
X50138296Y7058082D01*
X50211905Y7043440D01*
X50904250Y7043440D01*
X50999500Y7138690D01*
X50999500Y8498360D01*
X49963680Y8498360D01*
X49868430Y8403110D01*
X49381570Y8403110D01*
X49286320Y8498360D01*
X48250500Y8498360D01*
X48249500Y8498360D01*
X47213680Y8498360D01*
X47118430Y8403110D01*
X46382843Y8403110D01*
X46382843Y8750000D01*
X46378005Y8810673D01*
X46346136Y8913580D01*
X46286860Y9003535D01*
X46204870Y9073415D01*
X46106658Y9117686D01*
X46000000Y9132843D01*
X45981000Y9132843D01*
X45981000Y9619000D01*
X47120060Y9619000D01*
X47118430Y9610805D01*
G36*
X61581157Y20404000D02*
X61585995Y20343327D01*
X61617864Y20240420D01*
X61677140Y20150465D01*
X61759130Y20080585D01*
X61857342Y20036314D01*
X61964000Y20021157D01*
X62184010Y20021157D01*
X62031348Y19905509D01*
X61849509Y19700731D01*
X61711114Y19464413D01*
X61621482Y19205636D01*
X61600278Y19099033D01*
X61678250Y18880500D01*
X62979500Y18880500D01*
X62979500Y18900500D01*
X62980500Y18900500D01*
X62980500Y18880500D01*
X63000500Y18880500D01*
X63000500Y18879500D01*
X62980500Y18879500D01*
X62980500Y17578250D01*
X63199033Y17500278D01*
X63463995Y17569520D01*
X63710357Y17689123D01*
X63928652Y17854491D01*
X64110491Y18059269D01*
X64248886Y18295587D01*
X64338518Y18554364D01*
X64359722Y18660967D01*
X64281751Y18879498D01*
X64373000Y18879498D01*
X64373000Y15180902D01*
X64302470Y15241015D01*
X64204258Y15285286D01*
X64097600Y15300443D01*
X61862400Y15300443D01*
X61801727Y15295605D01*
X61698820Y15263736D01*
X61608865Y15204460D01*
X61538985Y15122470D01*
X61494714Y15024258D01*
X61479557Y14917600D01*
X61479557Y12682400D01*
X61484395Y12621727D01*
X61516264Y12518820D01*
X61575540Y12428865D01*
X61657530Y12358985D01*
X61755742Y12314714D01*
X61862400Y12299557D01*
X62175499Y12299557D01*
X61706942Y11831000D01*
X60888043Y11831000D01*
X60806658Y11867686D01*
X60700000Y11882843D01*
X60671659Y11882843D01*
X61269408Y12480592D01*
X61350983Y12601770D01*
X61381000Y12750000D01*
X61381000Y18500000D01*
X61352997Y18643367D01*
X61341325Y18660967D01*
X61600278Y18660967D01*
X61621482Y18554364D01*
X61711114Y18295587D01*
X61849509Y18059269D01*
X62031348Y17854491D01*
X62249643Y17689123D01*
X62496005Y17569520D01*
X62760967Y17500278D01*
X62979500Y17578250D01*
X62979500Y18879500D01*
X61678250Y18879500D01*
X61600278Y18660967D01*
X61341325Y18660967D01*
X61269408Y18769408D01*
X60626463Y19412353D01*
X60703535Y19463140D01*
X60773415Y19545130D01*
X60817686Y19643342D01*
X60832843Y19750000D01*
X60832843Y20250000D01*
X60831328Y20269000D01*
X61094000Y20269000D01*
X61138223Y20273336D01*
X61182481Y20277208D01*
X61184913Y20277914D01*
X61187427Y20278161D01*
X61229937Y20290995D01*
X61272628Y20303398D01*
X61274873Y20304562D01*
X61277295Y20305293D01*
X61316509Y20326144D01*
X61355971Y20346599D01*
X61357950Y20348179D01*
X61360181Y20349365D01*
X61394619Y20377451D01*
X61429336Y20405166D01*
X61432850Y20408632D01*
X61432929Y20408696D01*
X61432989Y20408769D01*
X61434118Y20409882D01*
X61581157Y20556921D01*
X61581157Y20404000D01*
X61581157Y20404000D01*
G37*
X61581157Y20404000D02*
X61585995Y20343327D01*
X61617864Y20240420D01*
X61677140Y20150465D01*
X61759130Y20080585D01*
X61857342Y20036314D01*
X61964000Y20021157D01*
X62184010Y20021157D01*
X62031348Y19905509D01*
X61849509Y19700731D01*
X61711114Y19464413D01*
X61621482Y19205636D01*
X61600278Y19099033D01*
X61678250Y18880500D01*
X62979500Y18880500D01*
X62979500Y18900500D01*
X62980500Y18900500D01*
X62980500Y18880500D01*
X63000500Y18880500D01*
X63000500Y18879500D01*
X62980500Y18879500D01*
X62980500Y17578250D01*
X63199033Y17500278D01*
X63463995Y17569520D01*
X63710357Y17689123D01*
X63928652Y17854491D01*
X64110491Y18059269D01*
X64248886Y18295587D01*
X64338518Y18554364D01*
X64359722Y18660967D01*
X64281751Y18879498D01*
X64373000Y18879498D01*
X64373000Y15180902D01*
X64302470Y15241015D01*
X64204258Y15285286D01*
X64097600Y15300443D01*
X61862400Y15300443D01*
X61801727Y15295605D01*
X61698820Y15263736D01*
X61608865Y15204460D01*
X61538985Y15122470D01*
X61494714Y15024258D01*
X61479557Y14917600D01*
X61479557Y12682400D01*
X61484395Y12621727D01*
X61516264Y12518820D01*
X61575540Y12428865D01*
X61657530Y12358985D01*
X61755742Y12314714D01*
X61862400Y12299557D01*
X62175499Y12299557D01*
X61706942Y11831000D01*
X60888043Y11831000D01*
X60806658Y11867686D01*
X60700000Y11882843D01*
X60671659Y11882843D01*
X61269408Y12480592D01*
X61350983Y12601770D01*
X61381000Y12750000D01*
X61381000Y18500000D01*
X61352997Y18643367D01*
X61341325Y18660967D01*
X61600278Y18660967D01*
X61621482Y18554364D01*
X61711114Y18295587D01*
X61849509Y18059269D01*
X62031348Y17854491D01*
X62249643Y17689123D01*
X62496005Y17569520D01*
X62760967Y17500278D01*
X62979500Y17578250D01*
X62979500Y18879500D01*
X61678250Y18879500D01*
X61600278Y18660967D01*
X61341325Y18660967D01*
X61269408Y18769408D01*
X60626463Y19412353D01*
X60703535Y19463140D01*
X60773415Y19545130D01*
X60817686Y19643342D01*
X60832843Y19750000D01*
X60832843Y20250000D01*
X60831328Y20269000D01*
X61094000Y20269000D01*
X61138223Y20273336D01*
X61182481Y20277208D01*
X61184913Y20277914D01*
X61187427Y20278161D01*
X61229937Y20290995D01*
X61272628Y20303398D01*
X61274873Y20304562D01*
X61277295Y20305293D01*
X61316509Y20326144D01*
X61355971Y20346599D01*
X61357950Y20348179D01*
X61360181Y20349365D01*
X61394619Y20377451D01*
X61429336Y20405166D01*
X61432850Y20408632D01*
X61432929Y20408696D01*
X61432989Y20408769D01*
X61434118Y20409882D01*
X61581157Y20556921D01*
X61581157Y20404000D01*
G36*
X55200460Y12000500D02*
X55220460Y12000500D01*
X55220460Y11999500D01*
X55200460Y11999500D01*
X55200460Y11979500D01*
X55199460Y11979500D01*
X55199460Y11999500D01*
X55179460Y11999500D01*
X55179460Y12000500D01*
X55199460Y12000500D01*
X55199460Y12020500D01*
X55200460Y12020500D01*
X55200460Y12000500D01*
X55200460Y12000500D01*
G37*
X55200460Y12000500D02*
X55220460Y12000500D01*
X55220460Y11999500D01*
X55200460Y11999500D01*
X55200460Y11979500D01*
X55199460Y11979500D01*
X55199460Y11999500D01*
X55179460Y11999500D01*
X55179460Y12000500D01*
X55199460Y12000500D01*
X55199460Y12020500D01*
X55200460Y12020500D01*
X55200460Y12000500D01*
G36*
X46694000Y21987525D02*
X46694000Y21820750D01*
X46789250Y21725500D01*
X47799500Y21725500D01*
X47799500Y21745500D01*
X47800500Y21745500D01*
X47800500Y21725500D01*
X48810750Y21725500D01*
X48906000Y21820750D01*
X48906000Y21987525D01*
X48899739Y22019000D01*
X51800764Y22019000D01*
X52434882Y21384881D01*
X52469212Y21356682D01*
X52503251Y21328120D01*
X52505470Y21326900D01*
X52507423Y21325296D01*
X52546596Y21304291D01*
X52585514Y21282896D01*
X52587921Y21282133D01*
X52590154Y21280935D01*
X52592157Y21280323D01*
X52592157Y20906000D01*
X51774237Y20906000D01*
X51680099Y21000138D01*
X51681029Y21066775D01*
X51655089Y21197783D01*
X51604197Y21321257D01*
X51530291Y21432494D01*
X51436186Y21527258D01*
X51325467Y21601939D01*
X51202352Y21653692D01*
X51071528Y21680546D01*
X50937981Y21681479D01*
X50806795Y21656454D01*
X50682969Y21606425D01*
X50571218Y21533297D01*
X50475800Y21439856D01*
X50400348Y21329662D01*
X50347736Y21206910D01*
X50319970Y21076278D01*
X50318105Y20942740D01*
X50342213Y20811383D01*
X50391377Y20687210D01*
X50463722Y20574952D01*
X50556495Y20478883D01*
X50666160Y20402664D01*
X50729222Y20375113D01*
X50682969Y20356425D01*
X50571218Y20283297D01*
X50475800Y20189856D01*
X50400348Y20079662D01*
X50347736Y19956910D01*
X50319970Y19826278D01*
X50318105Y19692740D01*
X50329436Y19631000D01*
X48906000Y19631000D01*
X48906000Y19679250D01*
X48810750Y19774500D01*
X47800500Y19774500D01*
X47800500Y19754500D01*
X47799500Y19754500D01*
X47799500Y19774500D01*
X46789250Y19774500D01*
X46694000Y19679250D01*
X46694000Y19631000D01*
X46256000Y19631000D01*
X46256000Y19904250D01*
X46160750Y19999500D01*
X45500500Y19999500D01*
X45500500Y19979500D01*
X45499500Y19979500D01*
X45499500Y19999500D01*
X45479500Y19999500D01*
X45479500Y20000500D01*
X45499500Y20000500D01*
X45499500Y20020500D01*
X45500500Y20020500D01*
X45500500Y20000500D01*
X46160750Y20000500D01*
X46256000Y20095750D01*
X46256000Y20329250D01*
X46694000Y20329250D01*
X46694000Y20162475D01*
X46706427Y20100000D01*
X46694000Y20037525D01*
X46694000Y19870750D01*
X46789250Y19775500D01*
X47799500Y19775500D01*
X47799500Y20424500D01*
X47800500Y20424500D01*
X47800500Y19775500D01*
X48810750Y19775500D01*
X48906000Y19870750D01*
X48906000Y20037525D01*
X48893573Y20100000D01*
X48906000Y20162475D01*
X48906000Y20329250D01*
X48810750Y20424500D01*
X47800500Y20424500D01*
X47799500Y20424500D01*
X46789250Y20424500D01*
X46694000Y20329250D01*
X46256000Y20329250D01*
X46256000Y20437525D01*
X46241358Y20511133D01*
X46212638Y20580471D01*
X46170942Y20642873D01*
X46117874Y20695942D01*
X46055471Y20737638D01*
X46025830Y20749916D01*
X46038580Y20753864D01*
X46128535Y20813140D01*
X46198415Y20895130D01*
X46236333Y20979250D01*
X46694000Y20979250D01*
X46694000Y20812475D01*
X46706427Y20750000D01*
X46694000Y20687525D01*
X46694000Y20520750D01*
X46789250Y20425500D01*
X47799500Y20425500D01*
X47799500Y21074500D01*
X47800500Y21074500D01*
X47800500Y20425500D01*
X48810750Y20425500D01*
X48906000Y20520750D01*
X48906000Y20687525D01*
X48893573Y20750000D01*
X48906000Y20812475D01*
X48906000Y20979250D01*
X48810750Y21074500D01*
X47800500Y21074500D01*
X47799500Y21074500D01*
X46789250Y21074500D01*
X46694000Y20979250D01*
X46236333Y20979250D01*
X46242686Y20993342D01*
X46257843Y21100000D01*
X46257843Y21602607D01*
X46284486Y21629250D01*
X46694000Y21629250D01*
X46694000Y21462475D01*
X46706427Y21400000D01*
X46694000Y21337525D01*
X46694000Y21170750D01*
X46789250Y21075500D01*
X47799500Y21075500D01*
X47799500Y21724500D01*
X47800500Y21724500D01*
X47800500Y21075500D01*
X48810750Y21075500D01*
X48906000Y21170750D01*
X48906000Y21337525D01*
X48893573Y21400000D01*
X48906000Y21462475D01*
X48906000Y21629250D01*
X48810750Y21724500D01*
X47800500Y21724500D01*
X47799500Y21724500D01*
X46789250Y21724500D01*
X46694000Y21629250D01*
X46284486Y21629250D01*
X46674237Y22019000D01*
X46700261Y22019000D01*
X46694000Y21987525D01*
X46694000Y21987525D01*
G37*
X46694000Y21987525D02*
X46694000Y21820750D01*
X46789250Y21725500D01*
X47799500Y21725500D01*
X47799500Y21745500D01*
X47800500Y21745500D01*
X47800500Y21725500D01*
X48810750Y21725500D01*
X48906000Y21820750D01*
X48906000Y21987525D01*
X48899739Y22019000D01*
X51800764Y22019000D01*
X52434882Y21384881D01*
X52469212Y21356682D01*
X52503251Y21328120D01*
X52505470Y21326900D01*
X52507423Y21325296D01*
X52546596Y21304291D01*
X52585514Y21282896D01*
X52587921Y21282133D01*
X52590154Y21280935D01*
X52592157Y21280323D01*
X52592157Y20906000D01*
X51774237Y20906000D01*
X51680099Y21000138D01*
X51681029Y21066775D01*
X51655089Y21197783D01*
X51604197Y21321257D01*
X51530291Y21432494D01*
X51436186Y21527258D01*
X51325467Y21601939D01*
X51202352Y21653692D01*
X51071528Y21680546D01*
X50937981Y21681479D01*
X50806795Y21656454D01*
X50682969Y21606425D01*
X50571218Y21533297D01*
X50475800Y21439856D01*
X50400348Y21329662D01*
X50347736Y21206910D01*
X50319970Y21076278D01*
X50318105Y20942740D01*
X50342213Y20811383D01*
X50391377Y20687210D01*
X50463722Y20574952D01*
X50556495Y20478883D01*
X50666160Y20402664D01*
X50729222Y20375113D01*
X50682969Y20356425D01*
X50571218Y20283297D01*
X50475800Y20189856D01*
X50400348Y20079662D01*
X50347736Y19956910D01*
X50319970Y19826278D01*
X50318105Y19692740D01*
X50329436Y19631000D01*
X48906000Y19631000D01*
X48906000Y19679250D01*
X48810750Y19774500D01*
X47800500Y19774500D01*
X47800500Y19754500D01*
X47799500Y19754500D01*
X47799500Y19774500D01*
X46789250Y19774500D01*
X46694000Y19679250D01*
X46694000Y19631000D01*
X46256000Y19631000D01*
X46256000Y19904250D01*
X46160750Y19999500D01*
X45500500Y19999500D01*
X45500500Y19979500D01*
X45499500Y19979500D01*
X45499500Y19999500D01*
X45479500Y19999500D01*
X45479500Y20000500D01*
X45499500Y20000500D01*
X45499500Y20020500D01*
X45500500Y20020500D01*
X45500500Y20000500D01*
X46160750Y20000500D01*
X46256000Y20095750D01*
X46256000Y20329250D01*
X46694000Y20329250D01*
X46694000Y20162475D01*
X46706427Y20100000D01*
X46694000Y20037525D01*
X46694000Y19870750D01*
X46789250Y19775500D01*
X47799500Y19775500D01*
X47799500Y20424500D01*
X47800500Y20424500D01*
X47800500Y19775500D01*
X48810750Y19775500D01*
X48906000Y19870750D01*
X48906000Y20037525D01*
X48893573Y20100000D01*
X48906000Y20162475D01*
X48906000Y20329250D01*
X48810750Y20424500D01*
X47800500Y20424500D01*
X47799500Y20424500D01*
X46789250Y20424500D01*
X46694000Y20329250D01*
X46256000Y20329250D01*
X46256000Y20437525D01*
X46241358Y20511133D01*
X46212638Y20580471D01*
X46170942Y20642873D01*
X46117874Y20695942D01*
X46055471Y20737638D01*
X46025830Y20749916D01*
X46038580Y20753864D01*
X46128535Y20813140D01*
X46198415Y20895130D01*
X46236333Y20979250D01*
X46694000Y20979250D01*
X46694000Y20812475D01*
X46706427Y20750000D01*
X46694000Y20687525D01*
X46694000Y20520750D01*
X46789250Y20425500D01*
X47799500Y20425500D01*
X47799500Y21074500D01*
X47800500Y21074500D01*
X47800500Y20425500D01*
X48810750Y20425500D01*
X48906000Y20520750D01*
X48906000Y20687525D01*
X48893573Y20750000D01*
X48906000Y20812475D01*
X48906000Y20979250D01*
X48810750Y21074500D01*
X47800500Y21074500D01*
X47799500Y21074500D01*
X46789250Y21074500D01*
X46694000Y20979250D01*
X46236333Y20979250D01*
X46242686Y20993342D01*
X46257843Y21100000D01*
X46257843Y21602607D01*
X46284486Y21629250D01*
X46694000Y21629250D01*
X46694000Y21462475D01*
X46706427Y21400000D01*
X46694000Y21337525D01*
X46694000Y21170750D01*
X46789250Y21075500D01*
X47799500Y21075500D01*
X47799500Y21724500D01*
X47800500Y21724500D01*
X47800500Y21075500D01*
X48810750Y21075500D01*
X48906000Y21170750D01*
X48906000Y21337525D01*
X48893573Y21400000D01*
X48906000Y21462475D01*
X48906000Y21629250D01*
X48810750Y21724500D01*
X47800500Y21724500D01*
X47799500Y21724500D01*
X46789250Y21724500D01*
X46694000Y21629250D01*
X46284486Y21629250D01*
X46674237Y22019000D01*
X46700261Y22019000D01*
X46694000Y21987525D01*
G36*
X43104500Y29175750D02*
X43199750Y29080500D01*
X43929500Y29080500D01*
X43929500Y29100500D01*
X43930500Y29100500D01*
X43930500Y29080500D01*
X44660250Y29080500D01*
X44755500Y29175750D01*
X44755500Y29373000D01*
X45642657Y29373000D01*
X45642657Y28542859D01*
X45599412Y28500510D01*
X45474102Y28317500D01*
X45386725Y28113635D01*
X45340611Y27896681D01*
X45337514Y27674902D01*
X45377553Y27456746D01*
X45459203Y27250521D01*
X45579354Y27064083D01*
X45733430Y26904533D01*
X45915561Y26777949D01*
X46118811Y26689151D01*
X46335437Y26641523D01*
X46557189Y26636877D01*
X46775620Y26675393D01*
X46982410Y26755601D01*
X47169682Y26874448D01*
X47330304Y27027406D01*
X47334525Y27033391D01*
X48274098Y27033391D01*
X48342403Y26850281D01*
X48534659Y26737712D01*
X48745182Y26664813D01*
X48965882Y26634385D01*
X49188278Y26647599D01*
X49403822Y26703946D01*
X49604231Y26801261D01*
X49677597Y26850281D01*
X49745902Y27033391D01*
X49010000Y27769293D01*
X48274098Y27033391D01*
X47334525Y27033391D01*
X47458157Y27208649D01*
X47548371Y27411274D01*
X47597511Y27627562D01*
X47600115Y27814118D01*
X47874385Y27814118D01*
X47887599Y27591722D01*
X47943946Y27376178D01*
X48041261Y27175769D01*
X48090281Y27102403D01*
X48273391Y27034098D01*
X49009293Y27770000D01*
X48995151Y27784142D01*
X48995858Y27784849D01*
X49010000Y27770707D01*
X49024143Y27784849D01*
X49024850Y27784142D01*
X49010707Y27770000D01*
X49746609Y27034098D01*
X49929719Y27102403D01*
X50042288Y27294659D01*
X50115187Y27505182D01*
X50145615Y27725882D01*
X50132401Y27948278D01*
X50076054Y28163822D01*
X49978739Y28364231D01*
X49929719Y28437597D01*
X49835500Y28472743D01*
X49835500Y28984250D01*
X49740250Y29079500D01*
X49010500Y29079500D01*
X49010500Y29059500D01*
X49009500Y29059500D01*
X49009500Y29079500D01*
X48279750Y29079500D01*
X48184500Y28984250D01*
X48184500Y28472743D01*
X48090281Y28437597D01*
X47977712Y28245341D01*
X47904813Y28034818D01*
X47874385Y27814118D01*
X47600115Y27814118D01*
X47601048Y27880900D01*
X47557967Y28098477D01*
X47473445Y28303541D01*
X47350703Y28488284D01*
X47297343Y28542018D01*
X47297343Y29373000D01*
X48184500Y29373000D01*
X48184500Y29175750D01*
X48279750Y29080500D01*
X49009500Y29080500D01*
X49009500Y29100500D01*
X49010500Y29100500D01*
X49010500Y29080500D01*
X49740250Y29080500D01*
X49835500Y29175750D01*
X49835500Y29373000D01*
X50722657Y29373000D01*
X50722657Y28542859D01*
X50679412Y28500510D01*
X50554102Y28317500D01*
X50466725Y28113635D01*
X50420611Y27896681D01*
X50417514Y27674902D01*
X50457553Y27456746D01*
X50539203Y27250521D01*
X50659354Y27064083D01*
X50813430Y26904533D01*
X50995561Y26777949D01*
X51198811Y26689151D01*
X51415437Y26641523D01*
X51637189Y26636877D01*
X51855620Y26675393D01*
X52062410Y26755601D01*
X52249682Y26874448D01*
X52410304Y27027406D01*
X52538157Y27208649D01*
X52628371Y27411274D01*
X52677511Y27627562D01*
X52681048Y27880900D01*
X52637967Y28098477D01*
X52553445Y28303541D01*
X52430703Y28488284D01*
X52377343Y28542018D01*
X52377343Y29373000D01*
X53262657Y29373000D01*
X53262657Y28542859D01*
X53219412Y28500510D01*
X53094102Y28317500D01*
X53006725Y28113635D01*
X52960611Y27896681D01*
X52957514Y27674902D01*
X52997553Y27456746D01*
X53079203Y27250521D01*
X53199354Y27064083D01*
X53353430Y26904533D01*
X53535561Y26777949D01*
X53738811Y26689151D01*
X53955437Y26641523D01*
X54090758Y26638688D01*
X54087329Y26393131D01*
X54093216Y26361053D01*
X53986999Y26361795D01*
X53769127Y26320233D01*
X53563477Y26237146D01*
X53377882Y26115696D01*
X53219412Y25960510D01*
X53094102Y25777500D01*
X53006725Y25573635D01*
X52960611Y25356681D01*
X52957514Y25134902D01*
X52997553Y24916746D01*
X53079203Y24710521D01*
X53199354Y24524083D01*
X53262657Y24458531D01*
X53262657Y23080000D01*
X53267495Y23019327D01*
X53299364Y22916420D01*
X53358640Y22826465D01*
X53440630Y22756585D01*
X53538842Y22712314D01*
X53645500Y22697157D01*
X54534500Y22697157D01*
X54595173Y22701995D01*
X54698080Y22733864D01*
X54788035Y22793140D01*
X54857915Y22875130D01*
X54902186Y22973342D01*
X54917343Y23080000D01*
X54917343Y23824250D01*
X55804500Y23824250D01*
X55804500Y23042475D01*
X55819142Y22968867D01*
X55847862Y22899529D01*
X55889558Y22837127D01*
X55942626Y22784058D01*
X56005029Y22742362D01*
X56074366Y22713642D01*
X56147975Y22699000D01*
X56534250Y22699000D01*
X56629500Y22794250D01*
X56629500Y23919500D01*
X56630500Y23919500D01*
X56630500Y22794250D01*
X56725750Y22699000D01*
X57112025Y22699000D01*
X57185634Y22713642D01*
X57254971Y22742362D01*
X57317374Y22784058D01*
X57370442Y22837127D01*
X57412138Y22899529D01*
X57440858Y22968867D01*
X57455500Y23042475D01*
X57455500Y23824250D01*
X57360250Y23919500D01*
X56630500Y23919500D01*
X56629500Y23919500D01*
X55899750Y23919500D01*
X55804500Y23824250D01*
X54917343Y23824250D01*
X54917343Y24456018D01*
X54950304Y24487406D01*
X55078157Y24668649D01*
X55168371Y24871274D01*
X55217511Y25087562D01*
X55219522Y25231609D01*
X55457982Y25226614D01*
X55496801Y25233459D01*
X55507599Y25051722D01*
X55563946Y24836178D01*
X55661261Y24635769D01*
X55710281Y24562403D01*
X55804500Y24527257D01*
X55804500Y24015750D01*
X55899750Y23920500D01*
X56629500Y23920500D01*
X56629500Y23940500D01*
X56630500Y23940500D01*
X56630500Y23920500D01*
X57360250Y23920500D01*
X57455500Y24015750D01*
X57455500Y24527257D01*
X57549719Y24562403D01*
X57662288Y24754659D01*
X57735187Y24965182D01*
X57765615Y25185882D01*
X57752401Y25408278D01*
X57696054Y25623822D01*
X57598739Y25824231D01*
X57549719Y25897597D01*
X57366609Y25965902D01*
X56630707Y25230000D01*
X56644850Y25215857D01*
X56644143Y25215150D01*
X56630000Y25229293D01*
X56615858Y25215150D01*
X56615151Y25215857D01*
X56629293Y25230000D01*
X56615151Y25244142D01*
X56615858Y25244849D01*
X56630000Y25230707D01*
X57365902Y25966609D01*
X57297597Y26149719D01*
X57105341Y26262288D01*
X56894818Y26335187D01*
X56674118Y26365615D01*
X56627399Y26362839D01*
X56631055Y26624628D01*
X56628261Y26638740D01*
X56717189Y26636877D01*
X56935620Y26675393D01*
X57142410Y26755601D01*
X57329682Y26874448D01*
X57490304Y27027406D01*
X57618157Y27208649D01*
X57708371Y27411274D01*
X57757511Y27627562D01*
X57761048Y27880900D01*
X57717967Y28098477D01*
X57633445Y28303541D01*
X57510703Y28488284D01*
X57457343Y28542018D01*
X57457343Y29373000D01*
X59715510Y29373000D01*
X59371202Y29147691D01*
X58897472Y28683780D01*
X58522872Y28136690D01*
X58261669Y27527259D01*
X58123814Y26878700D01*
X58114556Y26215716D01*
X58234249Y25563561D01*
X58478333Y24947074D01*
X58837512Y24389738D01*
X59298104Y23912781D01*
X59842566Y23534370D01*
X60450158Y23268920D01*
X61097739Y23126540D01*
X61760642Y23112654D01*
X62413617Y23227791D01*
X63031793Y23467566D01*
X63591623Y23822845D01*
X64071784Y24280096D01*
X64373000Y24707097D01*
X64373000Y22499918D01*
X64342136Y22599580D01*
X64282860Y22689535D01*
X64200870Y22759415D01*
X64102658Y22803686D01*
X63996000Y22818843D01*
X61964000Y22818843D01*
X61903327Y22814005D01*
X61800420Y22782136D01*
X61710465Y22722860D01*
X61640585Y22640870D01*
X61596314Y22542658D01*
X61581157Y22436000D01*
X61581157Y21864843D01*
X61580705Y21864707D01*
X61541491Y21843856D01*
X61502029Y21823401D01*
X61500050Y21821821D01*
X61497819Y21820635D01*
X61463381Y21792549D01*
X61428664Y21764834D01*
X61425150Y21761368D01*
X61425071Y21761304D01*
X61425011Y21761231D01*
X61423882Y21760118D01*
X60894764Y21231000D01*
X60830143Y21231000D01*
X60832843Y21250000D01*
X60832843Y21750000D01*
X60828005Y21810673D01*
X60796136Y21913580D01*
X60736860Y22003535D01*
X60654870Y22073415D01*
X60556658Y22117686D01*
X60450000Y22132843D01*
X59550000Y22132843D01*
X59489327Y22128005D01*
X59386420Y22096136D01*
X59296465Y22036860D01*
X59248856Y21981000D01*
X58751709Y21981000D01*
X58736860Y22003535D01*
X58654870Y22073415D01*
X58556658Y22117686D01*
X58450000Y22132843D01*
X57550000Y22132843D01*
X57489327Y22128005D01*
X57386420Y22096136D01*
X57296465Y22036860D01*
X57248856Y21981000D01*
X56751709Y21981000D01*
X56736860Y22003535D01*
X56654870Y22073415D01*
X56556658Y22117686D01*
X56450000Y22132843D01*
X55550000Y22132843D01*
X55489327Y22128005D01*
X55386420Y22096136D01*
X55296465Y22036860D01*
X55248856Y21981000D01*
X55049236Y21981000D01*
X54965118Y22065118D01*
X54930822Y22093289D01*
X54896749Y22121880D01*
X54894529Y22123100D01*
X54892578Y22124703D01*
X54853457Y22145680D01*
X54814486Y22167104D01*
X54812075Y22167869D01*
X54809846Y22169064D01*
X54767385Y22182045D01*
X54725006Y22195489D01*
X54722489Y22195771D01*
X54720073Y22196510D01*
X54716232Y22196900D01*
X54711860Y22203535D01*
X54629870Y22273415D01*
X54531658Y22317686D01*
X54425000Y22332843D01*
X52975000Y22332843D01*
X52914327Y22328005D01*
X52866915Y22313322D01*
X52340118Y22840118D01*
X52309506Y22865263D01*
X52317915Y22875130D01*
X52362186Y22973342D01*
X52377343Y23080000D01*
X52377343Y24456018D01*
X52410304Y24487406D01*
X52538157Y24668649D01*
X52628371Y24871274D01*
X52677511Y25087562D01*
X52681048Y25340900D01*
X52637967Y25558477D01*
X52553445Y25763541D01*
X52430703Y25948284D01*
X52274415Y26105667D01*
X52090534Y26229696D01*
X51886064Y26315647D01*
X51668794Y26360246D01*
X51446999Y26361795D01*
X51229127Y26320233D01*
X51023477Y26237146D01*
X50837882Y26115696D01*
X50679412Y25960510D01*
X50554102Y25777500D01*
X50466725Y25573635D01*
X50420611Y25356681D01*
X50417514Y25134902D01*
X50457553Y24916746D01*
X50539203Y24710521D01*
X50659354Y24524083D01*
X50722657Y24458531D01*
X50722657Y23080000D01*
X50727495Y23019327D01*
X50739364Y22981000D01*
X49823274Y22981000D01*
X49837343Y23080000D01*
X49837343Y24456018D01*
X49870304Y24487406D01*
X49998157Y24668649D01*
X50088371Y24871274D01*
X50137511Y25087562D01*
X50141048Y25340900D01*
X50097967Y25558477D01*
X50013445Y25763541D01*
X49890703Y25948284D01*
X49734415Y26105667D01*
X49550534Y26229696D01*
X49346064Y26315647D01*
X49128794Y26360246D01*
X48906999Y26361795D01*
X48689127Y26320233D01*
X48483477Y26237146D01*
X48297882Y26115696D01*
X48139412Y25960510D01*
X48014102Y25777500D01*
X47926725Y25573635D01*
X47880611Y25356681D01*
X47877514Y25134902D01*
X47917553Y24916746D01*
X47999203Y24710521D01*
X48119354Y24524083D01*
X48182657Y24458531D01*
X48182657Y23080000D01*
X48187495Y23019327D01*
X48199364Y22981000D01*
X47283274Y22981000D01*
X47297343Y23080000D01*
X47297343Y24456018D01*
X47330304Y24487406D01*
X47458157Y24668649D01*
X47548371Y24871274D01*
X47597511Y25087562D01*
X47601048Y25340900D01*
X47557967Y25558477D01*
X47473445Y25763541D01*
X47350703Y25948284D01*
X47194415Y26105667D01*
X47010534Y26229696D01*
X46806064Y26315647D01*
X46588794Y26360246D01*
X46366999Y26361795D01*
X46149127Y26320233D01*
X45943477Y26237146D01*
X45757882Y26115696D01*
X45599412Y25960510D01*
X45474102Y25777500D01*
X45386725Y25573635D01*
X45340611Y25356681D01*
X45337514Y25134902D01*
X45377553Y24916746D01*
X45459203Y24710521D01*
X45579354Y24524083D01*
X45642657Y24458531D01*
X45642657Y23080000D01*
X45647495Y23019327D01*
X45679364Y22916420D01*
X45738640Y22826465D01*
X45820630Y22756585D01*
X45918842Y22712314D01*
X45996098Y22701335D01*
X45577607Y22282843D01*
X45422394Y22282843D01*
X44865118Y22840118D01*
X44830822Y22868289D01*
X44796749Y22896880D01*
X44794529Y22898100D01*
X44792578Y22899703D01*
X44753457Y22920680D01*
X44725400Y22936104D01*
X44742186Y22973342D01*
X44757343Y23080000D01*
X44757343Y24456018D01*
X44790304Y24487406D01*
X44918157Y24668649D01*
X45008371Y24871274D01*
X45057511Y25087562D01*
X45061048Y25340900D01*
X45017967Y25558477D01*
X44933445Y25763541D01*
X44810703Y25948284D01*
X44654415Y26105667D01*
X44470534Y26229696D01*
X44266064Y26315647D01*
X44048794Y26360246D01*
X43826999Y26361795D01*
X43609127Y26320233D01*
X43403477Y26237146D01*
X43217882Y26115696D01*
X43059412Y25960510D01*
X42934102Y25777500D01*
X42846725Y25573635D01*
X42800611Y25356681D01*
X42797514Y25134902D01*
X42837553Y24916746D01*
X42919203Y24710521D01*
X43039354Y24524083D01*
X43102657Y24458531D01*
X43102657Y23080000D01*
X43107495Y23019327D01*
X43119364Y22981000D01*
X42203274Y22981000D01*
X42217343Y23080000D01*
X42217343Y24456018D01*
X42250304Y24487406D01*
X42378157Y24668649D01*
X42468371Y24871274D01*
X42517511Y25087562D01*
X42521048Y25340900D01*
X42477967Y25558477D01*
X42393445Y25763541D01*
X42270703Y25948284D01*
X42114415Y26105667D01*
X41930534Y26229696D01*
X41726064Y26315647D01*
X41508794Y26360246D01*
X41286999Y26361795D01*
X41069127Y26320233D01*
X40863477Y26237146D01*
X40677882Y26115696D01*
X40627000Y26065868D01*
X40627000Y26931902D01*
X40653430Y26904533D01*
X40835561Y26777949D01*
X41038811Y26689151D01*
X41255437Y26641523D01*
X41477189Y26636877D01*
X41695620Y26675393D01*
X41902410Y26755601D01*
X42089682Y26874448D01*
X42250304Y27027406D01*
X42254525Y27033391D01*
X43194098Y27033391D01*
X43262403Y26850281D01*
X43454659Y26737712D01*
X43665182Y26664813D01*
X43885882Y26634385D01*
X44108278Y26647599D01*
X44323822Y26703946D01*
X44524231Y26801261D01*
X44597597Y26850281D01*
X44665902Y27033391D01*
X43930000Y27769293D01*
X43194098Y27033391D01*
X42254525Y27033391D01*
X42378157Y27208649D01*
X42468371Y27411274D01*
X42517511Y27627562D01*
X42520115Y27814118D01*
X42794385Y27814118D01*
X42807599Y27591722D01*
X42863946Y27376178D01*
X42961261Y27175769D01*
X43010281Y27102403D01*
X43193391Y27034098D01*
X43929293Y27770000D01*
X43915151Y27784142D01*
X43915858Y27784849D01*
X43930000Y27770707D01*
X43944143Y27784849D01*
X43944850Y27784142D01*
X43930707Y27770000D01*
X44666609Y27034098D01*
X44849719Y27102403D01*
X44962288Y27294659D01*
X45035187Y27505182D01*
X45065615Y27725882D01*
X45052401Y27948278D01*
X44996054Y28163822D01*
X44898739Y28364231D01*
X44849719Y28437597D01*
X44755500Y28472743D01*
X44755500Y28984250D01*
X44660250Y29079500D01*
X43930500Y29079500D01*
X43930500Y29059500D01*
X43929500Y29059500D01*
X43929500Y29079500D01*
X43199750Y29079500D01*
X43104500Y28984250D01*
X43104500Y28472743D01*
X43010281Y28437597D01*
X42897712Y28245341D01*
X42824813Y28034818D01*
X42794385Y27814118D01*
X42520115Y27814118D01*
X42521048Y27880900D01*
X42477967Y28098477D01*
X42393445Y28303541D01*
X42270703Y28488284D01*
X42217343Y28542018D01*
X42217343Y29373000D01*
X43104500Y29373000D01*
X43104500Y29175750D01*
X43104500Y29175750D01*
G37*
X43104500Y29175750D02*
X43199750Y29080500D01*
X43929500Y29080500D01*
X43929500Y29100500D01*
X43930500Y29100500D01*
X43930500Y29080500D01*
X44660250Y29080500D01*
X44755500Y29175750D01*
X44755500Y29373000D01*
X45642657Y29373000D01*
X45642657Y28542859D01*
X45599412Y28500510D01*
X45474102Y28317500D01*
X45386725Y28113635D01*
X45340611Y27896681D01*
X45337514Y27674902D01*
X45377553Y27456746D01*
X45459203Y27250521D01*
X45579354Y27064083D01*
X45733430Y26904533D01*
X45915561Y26777949D01*
X46118811Y26689151D01*
X46335437Y26641523D01*
X46557189Y26636877D01*
X46775620Y26675393D01*
X46982410Y26755601D01*
X47169682Y26874448D01*
X47330304Y27027406D01*
X47334525Y27033391D01*
X48274098Y27033391D01*
X48342403Y26850281D01*
X48534659Y26737712D01*
X48745182Y26664813D01*
X48965882Y26634385D01*
X49188278Y26647599D01*
X49403822Y26703946D01*
X49604231Y26801261D01*
X49677597Y26850281D01*
X49745902Y27033391D01*
X49010000Y27769293D01*
X48274098Y27033391D01*
X47334525Y27033391D01*
X47458157Y27208649D01*
X47548371Y27411274D01*
X47597511Y27627562D01*
X47600115Y27814118D01*
X47874385Y27814118D01*
X47887599Y27591722D01*
X47943946Y27376178D01*
X48041261Y27175769D01*
X48090281Y27102403D01*
X48273391Y27034098D01*
X49009293Y27770000D01*
X48995151Y27784142D01*
X48995858Y27784849D01*
X49010000Y27770707D01*
X49024143Y27784849D01*
X49024850Y27784142D01*
X49010707Y27770000D01*
X49746609Y27034098D01*
X49929719Y27102403D01*
X50042288Y27294659D01*
X50115187Y27505182D01*
X50145615Y27725882D01*
X50132401Y27948278D01*
X50076054Y28163822D01*
X49978739Y28364231D01*
X49929719Y28437597D01*
X49835500Y28472743D01*
X49835500Y28984250D01*
X49740250Y29079500D01*
X49010500Y29079500D01*
X49010500Y29059500D01*
X49009500Y29059500D01*
X49009500Y29079500D01*
X48279750Y29079500D01*
X48184500Y28984250D01*
X48184500Y28472743D01*
X48090281Y28437597D01*
X47977712Y28245341D01*
X47904813Y28034818D01*
X47874385Y27814118D01*
X47600115Y27814118D01*
X47601048Y27880900D01*
X47557967Y28098477D01*
X47473445Y28303541D01*
X47350703Y28488284D01*
X47297343Y28542018D01*
X47297343Y29373000D01*
X48184500Y29373000D01*
X48184500Y29175750D01*
X48279750Y29080500D01*
X49009500Y29080500D01*
X49009500Y29100500D01*
X49010500Y29100500D01*
X49010500Y29080500D01*
X49740250Y29080500D01*
X49835500Y29175750D01*
X49835500Y29373000D01*
X50722657Y29373000D01*
X50722657Y28542859D01*
X50679412Y28500510D01*
X50554102Y28317500D01*
X50466725Y28113635D01*
X50420611Y27896681D01*
X50417514Y27674902D01*
X50457553Y27456746D01*
X50539203Y27250521D01*
X50659354Y27064083D01*
X50813430Y26904533D01*
X50995561Y26777949D01*
X51198811Y26689151D01*
X51415437Y26641523D01*
X51637189Y26636877D01*
X51855620Y26675393D01*
X52062410Y26755601D01*
X52249682Y26874448D01*
X52410304Y27027406D01*
X52538157Y27208649D01*
X52628371Y27411274D01*
X52677511Y27627562D01*
X52681048Y27880900D01*
X52637967Y28098477D01*
X52553445Y28303541D01*
X52430703Y28488284D01*
X52377343Y28542018D01*
X52377343Y29373000D01*
X53262657Y29373000D01*
X53262657Y28542859D01*
X53219412Y28500510D01*
X53094102Y28317500D01*
X53006725Y28113635D01*
X52960611Y27896681D01*
X52957514Y27674902D01*
X52997553Y27456746D01*
X53079203Y27250521D01*
X53199354Y27064083D01*
X53353430Y26904533D01*
X53535561Y26777949D01*
X53738811Y26689151D01*
X53955437Y26641523D01*
X54090758Y26638688D01*
X54087329Y26393131D01*
X54093216Y26361053D01*
X53986999Y26361795D01*
X53769127Y26320233D01*
X53563477Y26237146D01*
X53377882Y26115696D01*
X53219412Y25960510D01*
X53094102Y25777500D01*
X53006725Y25573635D01*
X52960611Y25356681D01*
X52957514Y25134902D01*
X52997553Y24916746D01*
X53079203Y24710521D01*
X53199354Y24524083D01*
X53262657Y24458531D01*
X53262657Y23080000D01*
X53267495Y23019327D01*
X53299364Y22916420D01*
X53358640Y22826465D01*
X53440630Y22756585D01*
X53538842Y22712314D01*
X53645500Y22697157D01*
X54534500Y22697157D01*
X54595173Y22701995D01*
X54698080Y22733864D01*
X54788035Y22793140D01*
X54857915Y22875130D01*
X54902186Y22973342D01*
X54917343Y23080000D01*
X54917343Y23824250D01*
X55804500Y23824250D01*
X55804500Y23042475D01*
X55819142Y22968867D01*
X55847862Y22899529D01*
X55889558Y22837127D01*
X55942626Y22784058D01*
X56005029Y22742362D01*
X56074366Y22713642D01*
X56147975Y22699000D01*
X56534250Y22699000D01*
X56629500Y22794250D01*
X56629500Y23919500D01*
X56630500Y23919500D01*
X56630500Y22794250D01*
X56725750Y22699000D01*
X57112025Y22699000D01*
X57185634Y22713642D01*
X57254971Y22742362D01*
X57317374Y22784058D01*
X57370442Y22837127D01*
X57412138Y22899529D01*
X57440858Y22968867D01*
X57455500Y23042475D01*
X57455500Y23824250D01*
X57360250Y23919500D01*
X56630500Y23919500D01*
X56629500Y23919500D01*
X55899750Y23919500D01*
X55804500Y23824250D01*
X54917343Y23824250D01*
X54917343Y24456018D01*
X54950304Y24487406D01*
X55078157Y24668649D01*
X55168371Y24871274D01*
X55217511Y25087562D01*
X55219522Y25231609D01*
X55457982Y25226614D01*
X55496801Y25233459D01*
X55507599Y25051722D01*
X55563946Y24836178D01*
X55661261Y24635769D01*
X55710281Y24562403D01*
X55804500Y24527257D01*
X55804500Y24015750D01*
X55899750Y23920500D01*
X56629500Y23920500D01*
X56629500Y23940500D01*
X56630500Y23940500D01*
X56630500Y23920500D01*
X57360250Y23920500D01*
X57455500Y24015750D01*
X57455500Y24527257D01*
X57549719Y24562403D01*
X57662288Y24754659D01*
X57735187Y24965182D01*
X57765615Y25185882D01*
X57752401Y25408278D01*
X57696054Y25623822D01*
X57598739Y25824231D01*
X57549719Y25897597D01*
X57366609Y25965902D01*
X56630707Y25230000D01*
X56644850Y25215857D01*
X56644143Y25215150D01*
X56630000Y25229293D01*
X56615858Y25215150D01*
X56615151Y25215857D01*
X56629293Y25230000D01*
X56615151Y25244142D01*
X56615858Y25244849D01*
X56630000Y25230707D01*
X57365902Y25966609D01*
X57297597Y26149719D01*
X57105341Y26262288D01*
X56894818Y26335187D01*
X56674118Y26365615D01*
X56627399Y26362839D01*
X56631055Y26624628D01*
X56628261Y26638740D01*
X56717189Y26636877D01*
X56935620Y26675393D01*
X57142410Y26755601D01*
X57329682Y26874448D01*
X57490304Y27027406D01*
X57618157Y27208649D01*
X57708371Y27411274D01*
X57757511Y27627562D01*
X57761048Y27880900D01*
X57717967Y28098477D01*
X57633445Y28303541D01*
X57510703Y28488284D01*
X57457343Y28542018D01*
X57457343Y29373000D01*
X59715510Y29373000D01*
X59371202Y29147691D01*
X58897472Y28683780D01*
X58522872Y28136690D01*
X58261669Y27527259D01*
X58123814Y26878700D01*
X58114556Y26215716D01*
X58234249Y25563561D01*
X58478333Y24947074D01*
X58837512Y24389738D01*
X59298104Y23912781D01*
X59842566Y23534370D01*
X60450158Y23268920D01*
X61097739Y23126540D01*
X61760642Y23112654D01*
X62413617Y23227791D01*
X63031793Y23467566D01*
X63591623Y23822845D01*
X64071784Y24280096D01*
X64373000Y24707097D01*
X64373000Y22499918D01*
X64342136Y22599580D01*
X64282860Y22689535D01*
X64200870Y22759415D01*
X64102658Y22803686D01*
X63996000Y22818843D01*
X61964000Y22818843D01*
X61903327Y22814005D01*
X61800420Y22782136D01*
X61710465Y22722860D01*
X61640585Y22640870D01*
X61596314Y22542658D01*
X61581157Y22436000D01*
X61581157Y21864843D01*
X61580705Y21864707D01*
X61541491Y21843856D01*
X61502029Y21823401D01*
X61500050Y21821821D01*
X61497819Y21820635D01*
X61463381Y21792549D01*
X61428664Y21764834D01*
X61425150Y21761368D01*
X61425071Y21761304D01*
X61425011Y21761231D01*
X61423882Y21760118D01*
X60894764Y21231000D01*
X60830143Y21231000D01*
X60832843Y21250000D01*
X60832843Y21750000D01*
X60828005Y21810673D01*
X60796136Y21913580D01*
X60736860Y22003535D01*
X60654870Y22073415D01*
X60556658Y22117686D01*
X60450000Y22132843D01*
X59550000Y22132843D01*
X59489327Y22128005D01*
X59386420Y22096136D01*
X59296465Y22036860D01*
X59248856Y21981000D01*
X58751709Y21981000D01*
X58736860Y22003535D01*
X58654870Y22073415D01*
X58556658Y22117686D01*
X58450000Y22132843D01*
X57550000Y22132843D01*
X57489327Y22128005D01*
X57386420Y22096136D01*
X57296465Y22036860D01*
X57248856Y21981000D01*
X56751709Y21981000D01*
X56736860Y22003535D01*
X56654870Y22073415D01*
X56556658Y22117686D01*
X56450000Y22132843D01*
X55550000Y22132843D01*
X55489327Y22128005D01*
X55386420Y22096136D01*
X55296465Y22036860D01*
X55248856Y21981000D01*
X55049236Y21981000D01*
X54965118Y22065118D01*
X54930822Y22093289D01*
X54896749Y22121880D01*
X54894529Y22123100D01*
X54892578Y22124703D01*
X54853457Y22145680D01*
X54814486Y22167104D01*
X54812075Y22167869D01*
X54809846Y22169064D01*
X54767385Y22182045D01*
X54725006Y22195489D01*
X54722489Y22195771D01*
X54720073Y22196510D01*
X54716232Y22196900D01*
X54711860Y22203535D01*
X54629870Y22273415D01*
X54531658Y22317686D01*
X54425000Y22332843D01*
X52975000Y22332843D01*
X52914327Y22328005D01*
X52866915Y22313322D01*
X52340118Y22840118D01*
X52309506Y22865263D01*
X52317915Y22875130D01*
X52362186Y22973342D01*
X52377343Y23080000D01*
X52377343Y24456018D01*
X52410304Y24487406D01*
X52538157Y24668649D01*
X52628371Y24871274D01*
X52677511Y25087562D01*
X52681048Y25340900D01*
X52637967Y25558477D01*
X52553445Y25763541D01*
X52430703Y25948284D01*
X52274415Y26105667D01*
X52090534Y26229696D01*
X51886064Y26315647D01*
X51668794Y26360246D01*
X51446999Y26361795D01*
X51229127Y26320233D01*
X51023477Y26237146D01*
X50837882Y26115696D01*
X50679412Y25960510D01*
X50554102Y25777500D01*
X50466725Y25573635D01*
X50420611Y25356681D01*
X50417514Y25134902D01*
X50457553Y24916746D01*
X50539203Y24710521D01*
X50659354Y24524083D01*
X50722657Y24458531D01*
X50722657Y23080000D01*
X50727495Y23019327D01*
X50739364Y22981000D01*
X49823274Y22981000D01*
X49837343Y23080000D01*
X49837343Y24456018D01*
X49870304Y24487406D01*
X49998157Y24668649D01*
X50088371Y24871274D01*
X50137511Y25087562D01*
X50141048Y25340900D01*
X50097967Y25558477D01*
X50013445Y25763541D01*
X49890703Y25948284D01*
X49734415Y26105667D01*
X49550534Y26229696D01*
X49346064Y26315647D01*
X49128794Y26360246D01*
X48906999Y26361795D01*
X48689127Y26320233D01*
X48483477Y26237146D01*
X48297882Y26115696D01*
X48139412Y25960510D01*
X48014102Y25777500D01*
X47926725Y25573635D01*
X47880611Y25356681D01*
X47877514Y25134902D01*
X47917553Y24916746D01*
X47999203Y24710521D01*
X48119354Y24524083D01*
X48182657Y24458531D01*
X48182657Y23080000D01*
X48187495Y23019327D01*
X48199364Y22981000D01*
X47283274Y22981000D01*
X47297343Y23080000D01*
X47297343Y24456018D01*
X47330304Y24487406D01*
X47458157Y24668649D01*
X47548371Y24871274D01*
X47597511Y25087562D01*
X47601048Y25340900D01*
X47557967Y25558477D01*
X47473445Y25763541D01*
X47350703Y25948284D01*
X47194415Y26105667D01*
X47010534Y26229696D01*
X46806064Y26315647D01*
X46588794Y26360246D01*
X46366999Y26361795D01*
X46149127Y26320233D01*
X45943477Y26237146D01*
X45757882Y26115696D01*
X45599412Y25960510D01*
X45474102Y25777500D01*
X45386725Y25573635D01*
X45340611Y25356681D01*
X45337514Y25134902D01*
X45377553Y24916746D01*
X45459203Y24710521D01*
X45579354Y24524083D01*
X45642657Y24458531D01*
X45642657Y23080000D01*
X45647495Y23019327D01*
X45679364Y22916420D01*
X45738640Y22826465D01*
X45820630Y22756585D01*
X45918842Y22712314D01*
X45996098Y22701335D01*
X45577607Y22282843D01*
X45422394Y22282843D01*
X44865118Y22840118D01*
X44830822Y22868289D01*
X44796749Y22896880D01*
X44794529Y22898100D01*
X44792578Y22899703D01*
X44753457Y22920680D01*
X44725400Y22936104D01*
X44742186Y22973342D01*
X44757343Y23080000D01*
X44757343Y24456018D01*
X44790304Y24487406D01*
X44918157Y24668649D01*
X45008371Y24871274D01*
X45057511Y25087562D01*
X45061048Y25340900D01*
X45017967Y25558477D01*
X44933445Y25763541D01*
X44810703Y25948284D01*
X44654415Y26105667D01*
X44470534Y26229696D01*
X44266064Y26315647D01*
X44048794Y26360246D01*
X43826999Y26361795D01*
X43609127Y26320233D01*
X43403477Y26237146D01*
X43217882Y26115696D01*
X43059412Y25960510D01*
X42934102Y25777500D01*
X42846725Y25573635D01*
X42800611Y25356681D01*
X42797514Y25134902D01*
X42837553Y24916746D01*
X42919203Y24710521D01*
X43039354Y24524083D01*
X43102657Y24458531D01*
X43102657Y23080000D01*
X43107495Y23019327D01*
X43119364Y22981000D01*
X42203274Y22981000D01*
X42217343Y23080000D01*
X42217343Y24456018D01*
X42250304Y24487406D01*
X42378157Y24668649D01*
X42468371Y24871274D01*
X42517511Y25087562D01*
X42521048Y25340900D01*
X42477967Y25558477D01*
X42393445Y25763541D01*
X42270703Y25948284D01*
X42114415Y26105667D01*
X41930534Y26229696D01*
X41726064Y26315647D01*
X41508794Y26360246D01*
X41286999Y26361795D01*
X41069127Y26320233D01*
X40863477Y26237146D01*
X40677882Y26115696D01*
X40627000Y26065868D01*
X40627000Y26931902D01*
X40653430Y26904533D01*
X40835561Y26777949D01*
X41038811Y26689151D01*
X41255437Y26641523D01*
X41477189Y26636877D01*
X41695620Y26675393D01*
X41902410Y26755601D01*
X42089682Y26874448D01*
X42250304Y27027406D01*
X42254525Y27033391D01*
X43194098Y27033391D01*
X43262403Y26850281D01*
X43454659Y26737712D01*
X43665182Y26664813D01*
X43885882Y26634385D01*
X44108278Y26647599D01*
X44323822Y26703946D01*
X44524231Y26801261D01*
X44597597Y26850281D01*
X44665902Y27033391D01*
X43930000Y27769293D01*
X43194098Y27033391D01*
X42254525Y27033391D01*
X42378157Y27208649D01*
X42468371Y27411274D01*
X42517511Y27627562D01*
X42520115Y27814118D01*
X42794385Y27814118D01*
X42807599Y27591722D01*
X42863946Y27376178D01*
X42961261Y27175769D01*
X43010281Y27102403D01*
X43193391Y27034098D01*
X43929293Y27770000D01*
X43915151Y27784142D01*
X43915858Y27784849D01*
X43930000Y27770707D01*
X43944143Y27784849D01*
X43944850Y27784142D01*
X43930707Y27770000D01*
X44666609Y27034098D01*
X44849719Y27102403D01*
X44962288Y27294659D01*
X45035187Y27505182D01*
X45065615Y27725882D01*
X45052401Y27948278D01*
X44996054Y28163822D01*
X44898739Y28364231D01*
X44849719Y28437597D01*
X44755500Y28472743D01*
X44755500Y28984250D01*
X44660250Y29079500D01*
X43930500Y29079500D01*
X43930500Y29059500D01*
X43929500Y29059500D01*
X43929500Y29079500D01*
X43199750Y29079500D01*
X43104500Y28984250D01*
X43104500Y28472743D01*
X43010281Y28437597D01*
X42897712Y28245341D01*
X42824813Y28034818D01*
X42794385Y27814118D01*
X42520115Y27814118D01*
X42521048Y27880900D01*
X42477967Y28098477D01*
X42393445Y28303541D01*
X42270703Y28488284D01*
X42217343Y28542018D01*
X42217343Y29373000D01*
X43104500Y29373000D01*
X43104500Y29175750D01*
G36*
X43569001Y20751393D02*
X43568882Y20615135D01*
X43672339Y20364748D01*
X43863741Y20173013D01*
X44105871Y20072471D01*
X44589171Y19589171D01*
X44760059Y19474987D01*
X44763103Y19458810D01*
X44846546Y19329135D01*
X44973866Y19242141D01*
X45104759Y19215635D01*
X45160197Y19160197D01*
X45202211Y19132334D01*
X45250000Y19123000D01*
X50734185Y19123000D01*
X50863946Y19069118D01*
X51134865Y19068882D01*
X51265842Y19123000D01*
X54171764Y19123000D01*
X54634882Y18659881D01*
X54790930Y18555613D01*
X54975000Y18519000D01*
X58350000Y18519000D01*
X58534071Y18555614D01*
X58690118Y18659882D01*
X59153236Y19123000D01*
X60197394Y19123000D01*
X60873000Y18447394D01*
X60873000Y13340732D01*
X60775785Y13381000D01*
X60345750Y13381000D01*
X60250500Y13285750D01*
X60250500Y12750500D01*
X60270500Y12750500D01*
X60270500Y12749500D01*
X60250500Y12749500D01*
X60250500Y12729500D01*
X60249500Y12729500D01*
X60249500Y12749500D01*
X59514250Y12749500D01*
X59419000Y12654250D01*
X59419000Y12424214D01*
X59477004Y12284180D01*
X59584181Y12177004D01*
X59704901Y12127000D01*
X58961443Y12127000D01*
X58981000Y12174214D01*
X58981000Y12604250D01*
X58885750Y12699500D01*
X57750500Y12699500D01*
X57750500Y12679500D01*
X57749500Y12679500D01*
X57749500Y12699500D01*
X56614250Y12699500D01*
X56538865Y12624115D01*
X56386259Y12776987D01*
X56136054Y12880882D01*
X55957164Y12881038D01*
X55936507Y12990820D01*
X55853064Y13120495D01*
X55725744Y13207489D01*
X55635390Y13225786D01*
X56519000Y13225786D01*
X56519000Y12795750D01*
X56614250Y12700500D01*
X57749500Y12700500D01*
X57749500Y13435750D01*
X57750500Y13435750D01*
X57750500Y12700500D01*
X58885750Y12700500D01*
X58981000Y12795750D01*
X58981000Y13075786D01*
X59419000Y13075786D01*
X59419000Y12845750D01*
X59514250Y12750500D01*
X60249500Y12750500D01*
X60249500Y13285750D01*
X60154250Y13381000D01*
X59724215Y13381000D01*
X59584181Y13322996D01*
X59477004Y13215820D01*
X59419000Y13075786D01*
X58981000Y13075786D01*
X58981000Y13225786D01*
X58922996Y13365820D01*
X58815819Y13472996D01*
X58675785Y13531000D01*
X57845750Y13531000D01*
X57750500Y13435750D01*
X57749500Y13435750D01*
X57654250Y13531000D01*
X56824215Y13531000D01*
X56684181Y13472996D01*
X56577004Y13365820D01*
X56519000Y13225786D01*
X55635390Y13225786D01*
X55574610Y13238094D01*
X54825310Y13238094D01*
X54724606Y13219145D01*
X54694386Y13371071D01*
X54651169Y13435750D01*
X54590119Y13527118D01*
X54076118Y14041118D01*
X53920071Y14145386D01*
X53736000Y14182000D01*
X52997606Y14182000D01*
X50589803Y16589803D01*
X50547789Y16617666D01*
X50504022Y16626215D01*
X50292519Y16837717D01*
X50136472Y16941985D01*
X49952401Y16978599D01*
X44201638Y16978599D01*
X40340118Y20840118D01*
X40184071Y20944386D01*
X40000000Y20981000D01*
X39831000Y20981000D01*
X39831000Y21154250D01*
X39735750Y21249500D01*
X39000500Y21249500D01*
X39000500Y21229500D01*
X38999500Y21229500D01*
X38999500Y21249500D01*
X38264250Y21249500D01*
X38169000Y21154250D01*
X38169000Y20981000D01*
X36198606Y20981000D01*
X35603820Y21575786D01*
X38169000Y21575786D01*
X38169000Y21345750D01*
X38264250Y21250500D01*
X38999500Y21250500D01*
X38999500Y21785750D01*
X39000500Y21785750D01*
X39000500Y21250500D01*
X39735750Y21250500D01*
X39831000Y21345750D01*
X39831000Y21575786D01*
X39772996Y21715820D01*
X39665819Y21822996D01*
X39525785Y21881000D01*
X39095750Y21881000D01*
X39000500Y21785750D01*
X38999500Y21785750D01*
X38904250Y21881000D01*
X38474215Y21881000D01*
X38334181Y21822996D01*
X38227004Y21715820D01*
X38169000Y21575786D01*
X35603820Y21575786D01*
X35377000Y21802606D01*
X35377000Y22019000D01*
X42301394Y22019000D01*
X43569001Y20751393D01*
X43569001Y20751393D01*
G37*
X43569001Y20751393D02*
X43568882Y20615135D01*
X43672339Y20364748D01*
X43863741Y20173013D01*
X44105871Y20072471D01*
X44589171Y19589171D01*
X44760059Y19474987D01*
X44763103Y19458810D01*
X44846546Y19329135D01*
X44973866Y19242141D01*
X45104759Y19215635D01*
X45160197Y19160197D01*
X45202211Y19132334D01*
X45250000Y19123000D01*
X50734185Y19123000D01*
X50863946Y19069118D01*
X51134865Y19068882D01*
X51265842Y19123000D01*
X54171764Y19123000D01*
X54634882Y18659881D01*
X54790930Y18555613D01*
X54975000Y18519000D01*
X58350000Y18519000D01*
X58534071Y18555614D01*
X58690118Y18659882D01*
X59153236Y19123000D01*
X60197394Y19123000D01*
X60873000Y18447394D01*
X60873000Y13340732D01*
X60775785Y13381000D01*
X60345750Y13381000D01*
X60250500Y13285750D01*
X60250500Y12750500D01*
X60270500Y12750500D01*
X60270500Y12749500D01*
X60250500Y12749500D01*
X60250500Y12729500D01*
X60249500Y12729500D01*
X60249500Y12749500D01*
X59514250Y12749500D01*
X59419000Y12654250D01*
X59419000Y12424214D01*
X59477004Y12284180D01*
X59584181Y12177004D01*
X59704901Y12127000D01*
X58961443Y12127000D01*
X58981000Y12174214D01*
X58981000Y12604250D01*
X58885750Y12699500D01*
X57750500Y12699500D01*
X57750500Y12679500D01*
X57749500Y12679500D01*
X57749500Y12699500D01*
X56614250Y12699500D01*
X56538865Y12624115D01*
X56386259Y12776987D01*
X56136054Y12880882D01*
X55957164Y12881038D01*
X55936507Y12990820D01*
X55853064Y13120495D01*
X55725744Y13207489D01*
X55635390Y13225786D01*
X56519000Y13225786D01*
X56519000Y12795750D01*
X56614250Y12700500D01*
X57749500Y12700500D01*
X57749500Y13435750D01*
X57750500Y13435750D01*
X57750500Y12700500D01*
X58885750Y12700500D01*
X58981000Y12795750D01*
X58981000Y13075786D01*
X59419000Y13075786D01*
X59419000Y12845750D01*
X59514250Y12750500D01*
X60249500Y12750500D01*
X60249500Y13285750D01*
X60154250Y13381000D01*
X59724215Y13381000D01*
X59584181Y13322996D01*
X59477004Y13215820D01*
X59419000Y13075786D01*
X58981000Y13075786D01*
X58981000Y13225786D01*
X58922996Y13365820D01*
X58815819Y13472996D01*
X58675785Y13531000D01*
X57845750Y13531000D01*
X57750500Y13435750D01*
X57749500Y13435750D01*
X57654250Y13531000D01*
X56824215Y13531000D01*
X56684181Y13472996D01*
X56577004Y13365820D01*
X56519000Y13225786D01*
X55635390Y13225786D01*
X55574610Y13238094D01*
X54825310Y13238094D01*
X54724606Y13219145D01*
X54694386Y13371071D01*
X54651169Y13435750D01*
X54590119Y13527118D01*
X54076118Y14041118D01*
X53920071Y14145386D01*
X53736000Y14182000D01*
X52997606Y14182000D01*
X50589803Y16589803D01*
X50547789Y16617666D01*
X50504022Y16626215D01*
X50292519Y16837717D01*
X50136472Y16941985D01*
X49952401Y16978599D01*
X44201638Y16978599D01*
X40340118Y20840118D01*
X40184071Y20944386D01*
X40000000Y20981000D01*
X39831000Y20981000D01*
X39831000Y21154250D01*
X39735750Y21249500D01*
X39000500Y21249500D01*
X39000500Y21229500D01*
X38999500Y21229500D01*
X38999500Y21249500D01*
X38264250Y21249500D01*
X38169000Y21154250D01*
X38169000Y20981000D01*
X36198606Y20981000D01*
X35603820Y21575786D01*
X38169000Y21575786D01*
X38169000Y21345750D01*
X38264250Y21250500D01*
X38999500Y21250500D01*
X38999500Y21785750D01*
X39000500Y21785750D01*
X39000500Y21250500D01*
X39735750Y21250500D01*
X39831000Y21345750D01*
X39831000Y21575786D01*
X39772996Y21715820D01*
X39665819Y21822996D01*
X39525785Y21881000D01*
X39095750Y21881000D01*
X39000500Y21785750D01*
X38999500Y21785750D01*
X38904250Y21881000D01*
X38474215Y21881000D01*
X38334181Y21822996D01*
X38227004Y21715820D01*
X38169000Y21575786D01*
X35603820Y21575786D01*
X35377000Y21802606D01*
X35377000Y22019000D01*
X42301394Y22019000D01*
X43569001Y20751393D01*
G36*
X31613741Y20773013D02*
X31863946Y20669118D01*
X32134865Y20668882D01*
X32385252Y20772339D01*
X32482081Y20869000D01*
X34900764Y20869000D01*
X35609882Y20159881D01*
X35765930Y20055613D01*
X35950000Y20019000D01*
X38169000Y20019000D01*
X38169000Y19845750D01*
X38264250Y19750500D01*
X38999500Y19750500D01*
X38999500Y19770500D01*
X39000500Y19770500D01*
X39000500Y19750500D01*
X39020500Y19750500D01*
X39020500Y19749500D01*
X39000500Y19749500D01*
X39000500Y19214250D01*
X39095750Y19119000D01*
X39525785Y19119000D01*
X39623000Y19159268D01*
X39623000Y16500000D01*
X39633006Y16450590D01*
X39661447Y16408965D01*
X39703841Y16381685D01*
X39750000Y16373000D01*
X43446763Y16373000D01*
X43662283Y16157480D01*
X43736547Y16107859D01*
X43818330Y16053213D01*
X44002401Y16016599D01*
X49753165Y16016599D01*
X52408881Y13360882D01*
X52476158Y13315929D01*
X52564929Y13256614D01*
X52749000Y13220000D01*
X52823942Y13220000D01*
X52709571Y13172626D01*
X52602394Y13065450D01*
X52544390Y12925416D01*
X52544390Y12745990D01*
X52639640Y12650740D01*
X53299540Y12650740D01*
X53299540Y12670740D01*
X53300540Y12670740D01*
X53300540Y12650740D01*
X53320540Y12650740D01*
X53320540Y12649740D01*
X53300540Y12649740D01*
X53300540Y12629740D01*
X53299540Y12629740D01*
X53299540Y12649740D01*
X52639640Y12649740D01*
X52544390Y12554490D01*
X52544390Y12444997D01*
X52541319Y12444386D01*
X52491098Y12410829D01*
X52385272Y12340119D01*
X52252882Y12207728D01*
X52148614Y12051681D01*
X52131570Y11965995D01*
X52131570Y12651346D01*
X52073566Y12791380D01*
X51966389Y12898556D01*
X51826355Y12956560D01*
X51095750Y12956560D01*
X51000500Y12861310D01*
X51000500Y11501640D01*
X51020500Y11501640D01*
X51020500Y11500640D01*
X51000500Y11500640D01*
X51000500Y11480640D01*
X50999500Y11480640D01*
X50999500Y11500640D01*
X49963680Y11500640D01*
X49868430Y11405390D01*
X49868430Y10350934D01*
X49926434Y10210900D01*
X50010335Y10127000D01*
X49239665Y10127000D01*
X49323566Y10210900D01*
X49381570Y10350934D01*
X49381570Y11405390D01*
X49286320Y11500640D01*
X48250500Y11500640D01*
X48250500Y11480640D01*
X48249500Y11480640D01*
X48249500Y11500640D01*
X47213680Y11500640D01*
X47118430Y11405390D01*
X47118430Y10350934D01*
X47176434Y10210900D01*
X47260335Y10127000D01*
X45981000Y10127000D01*
X45981000Y11361536D01*
X46000000Y11361536D01*
X46141190Y11388103D01*
X46270865Y11471546D01*
X46357859Y11598866D01*
X46388464Y11750000D01*
X46388464Y12651346D01*
X47118430Y12651346D01*
X47118430Y11596890D01*
X47213680Y11501640D01*
X48249500Y11501640D01*
X48249500Y12861310D01*
X48250500Y12861310D01*
X48250500Y11501640D01*
X49286320Y11501640D01*
X49381570Y11596890D01*
X49381570Y12651346D01*
X49868430Y12651346D01*
X49868430Y11596890D01*
X49963680Y11501640D01*
X50999500Y11501640D01*
X50999500Y12861310D01*
X50904250Y12956560D01*
X50173645Y12956560D01*
X50033611Y12898556D01*
X49926434Y12791380D01*
X49868430Y12651346D01*
X49381570Y12651346D01*
X49323566Y12791380D01*
X49216389Y12898556D01*
X49076355Y12956560D01*
X48345750Y12956560D01*
X48250500Y12861310D01*
X48249500Y12861310D01*
X48154250Y12956560D01*
X47423645Y12956560D01*
X47283611Y12898556D01*
X47176434Y12791380D01*
X47118430Y12651346D01*
X46388464Y12651346D01*
X46388464Y14500000D01*
X46361897Y14641190D01*
X46278454Y14770865D01*
X46151134Y14857859D01*
X46000000Y14888464D01*
X45000000Y14888464D01*
X44858810Y14861897D01*
X44729135Y14778454D01*
X44642141Y14651134D01*
X44611536Y14500000D01*
X44611536Y11750000D01*
X44638103Y11608810D01*
X44721546Y11479135D01*
X44848866Y11392141D01*
X45000000Y11361536D01*
X45019000Y11361536D01*
X45019000Y10127000D01*
X42081000Y10127000D01*
X42081000Y11376777D01*
X42141190Y11388103D01*
X42270865Y11471546D01*
X42357859Y11598866D01*
X42388464Y11750000D01*
X42388464Y14500000D01*
X42361897Y14641190D01*
X42278454Y14770865D01*
X42151134Y14857859D01*
X42000000Y14888464D01*
X41000000Y14888464D01*
X40858810Y14861897D01*
X40729135Y14778454D01*
X40642141Y14651134D01*
X40619268Y14538182D01*
X40616994Y14549410D01*
X40588553Y14591035D01*
X40546159Y14618315D01*
X40500000Y14627000D01*
X39750000Y14627000D01*
X39700590Y14616994D01*
X39658965Y14588553D01*
X39631685Y14546159D01*
X39623000Y14500000D01*
X39623000Y12552606D01*
X38947394Y11877000D01*
X37930893Y11877000D01*
X37931118Y12134865D01*
X37827661Y12385252D01*
X37636259Y12576987D01*
X37386054Y12680882D01*
X37115135Y12681118D01*
X36872829Y12581000D01*
X36640443Y12581000D01*
X36601134Y12607859D01*
X36450000Y12638464D01*
X35550000Y12638464D01*
X35408810Y12611897D01*
X35279135Y12528454D01*
X35192141Y12401134D01*
X35161536Y12250000D01*
X35161536Y11877000D01*
X34837909Y11877000D01*
X34481590Y12233320D01*
X34260658Y12380942D01*
X34000050Y12432780D01*
X33663744Y12432780D01*
X33551184Y12509689D01*
X33481000Y12523901D01*
X33481000Y12976209D01*
X33549950Y12962246D01*
X34350050Y12962246D01*
X34491240Y12988813D01*
X34538152Y13019000D01*
X35245894Y13019000D01*
X35271546Y12979135D01*
X35398866Y12892141D01*
X35550000Y12861536D01*
X36450000Y12861536D01*
X36591190Y12888103D01*
X36720865Y12971546D01*
X36807859Y13098866D01*
X36838464Y13250000D01*
X36838464Y13750000D01*
X36811897Y13891190D01*
X36728454Y14020865D01*
X36601134Y14107859D01*
X36450000Y14138464D01*
X35550000Y14138464D01*
X35408810Y14111897D01*
X35279135Y14028454D01*
X35246711Y13981000D01*
X34738514Y13981000D01*
X34738514Y14150810D01*
X34711947Y14292000D01*
X34628504Y14421675D01*
X34501184Y14508669D01*
X34431000Y14522881D01*
X34431000Y14586536D01*
X34630000Y14586536D01*
X34771190Y14613103D01*
X34900865Y14696546D01*
X34987859Y14823866D01*
X35018464Y14975000D01*
X35018464Y15601300D01*
X35161536Y15458228D01*
X35161536Y15250000D01*
X35188103Y15108810D01*
X35271546Y14979135D01*
X35398866Y14892141D01*
X35550000Y14861536D01*
X36450000Y14861536D01*
X36591190Y14888103D01*
X36720865Y14971546D01*
X36807859Y15098866D01*
X36838464Y15250000D01*
X36838464Y15750000D01*
X36811897Y15891190D01*
X36728454Y16020865D01*
X36601134Y16107859D01*
X36450000Y16138464D01*
X35841772Y16138464D01*
X35618700Y16361536D01*
X36450000Y16361536D01*
X36591190Y16388103D01*
X36639206Y16419000D01*
X36873405Y16419000D01*
X37113946Y16319118D01*
X37384865Y16318882D01*
X37635252Y16422339D01*
X37826987Y16613741D01*
X37930882Y16863946D01*
X37931118Y17134865D01*
X37827661Y17385252D01*
X37636259Y17576987D01*
X37386054Y17680882D01*
X37115135Y17681118D01*
X36872829Y17581000D01*
X36640443Y17581000D01*
X36601134Y17607859D01*
X36450000Y17638464D01*
X35550000Y17638464D01*
X35408810Y17611897D01*
X35279135Y17528454D01*
X35192141Y17401134D01*
X35161536Y17250000D01*
X35161536Y16750000D01*
X35169587Y16707213D01*
X35050000Y16731000D01*
X34989304Y16731000D01*
X35018464Y16875000D01*
X35018464Y17525000D01*
X34991897Y17666190D01*
X34908454Y17795865D01*
X34781134Y17882859D01*
X34630000Y17913464D01*
X33570000Y17913464D01*
X33428810Y17886897D01*
X33299135Y17803454D01*
X33212141Y17676134D01*
X33181536Y17525000D01*
X33181536Y17328700D01*
X32970118Y17540118D01*
X32814071Y17644386D01*
X32795297Y17648120D01*
X32791897Y17666190D01*
X32708454Y17795865D01*
X32581134Y17882859D01*
X32430000Y17913464D01*
X31370000Y17913464D01*
X31228810Y17886897D01*
X31099135Y17803454D01*
X31012141Y17676134D01*
X30981536Y17525000D01*
X30981536Y16875000D01*
X31008103Y16733810D01*
X31012605Y16726813D01*
X31012141Y16726134D01*
X30981536Y16575000D01*
X30981536Y15925000D01*
X31008103Y15783810D01*
X31017403Y15769357D01*
X30989000Y15700785D01*
X30989000Y15395750D01*
X31084250Y15300500D01*
X31899500Y15300500D01*
X31899500Y15320500D01*
X31900500Y15320500D01*
X31900500Y15300500D01*
X31920500Y15300500D01*
X31920500Y15299500D01*
X31900500Y15299500D01*
X31900500Y14689250D01*
X31995750Y14594000D01*
X32505786Y14594000D01*
X32519000Y14599473D01*
X32519000Y14531810D01*
X32145750Y14531810D01*
X32050500Y14436560D01*
X32050500Y13751260D01*
X32070500Y13751260D01*
X32070500Y13750260D01*
X32050500Y13750260D01*
X32050500Y13064960D01*
X32145750Y12969710D01*
X32519000Y12969710D01*
X32519000Y12525062D01*
X32458760Y12513727D01*
X32329085Y12430284D01*
X32242091Y12302964D01*
X32211486Y12151830D01*
X32211486Y11877000D01*
X31180893Y11877000D01*
X31181118Y12134865D01*
X31077661Y12385252D01*
X30886259Y12576987D01*
X30636054Y12680882D01*
X30365135Y12681118D01*
X30192702Y12609871D01*
X30153454Y12670865D01*
X30033103Y12753097D01*
X30090819Y12777004D01*
X30197996Y12884180D01*
X30256000Y13024214D01*
X30256000Y13404250D01*
X30160750Y13499500D01*
X29500500Y13499500D01*
X29500500Y13479500D01*
X29499500Y13479500D01*
X29499500Y13499500D01*
X28839250Y13499500D01*
X28744000Y13404250D01*
X28744000Y13024214D01*
X28802004Y12884180D01*
X28909181Y12777004D01*
X28968867Y12752281D01*
X28854135Y12678454D01*
X28767141Y12551134D01*
X28736536Y12400000D01*
X28736536Y12193070D01*
X28627000Y12302606D01*
X28627000Y13975786D01*
X28744000Y13975786D01*
X28744000Y13595750D01*
X28839250Y13500500D01*
X29499500Y13500500D01*
X29499500Y14185750D01*
X29500500Y14185750D01*
X29500500Y13500500D01*
X30160750Y13500500D01*
X30256000Y13595750D01*
X30256000Y13655010D01*
X31268950Y13655010D01*
X31268950Y13274925D01*
X31326954Y13134891D01*
X31434130Y13027714D01*
X31574164Y12969710D01*
X31954250Y12969710D01*
X32049500Y13064960D01*
X32049500Y13750260D01*
X31364200Y13750260D01*
X31268950Y13655010D01*
X30256000Y13655010D01*
X30256000Y13975786D01*
X30197996Y14115820D01*
X30090819Y14222996D01*
X30082131Y14226595D01*
X31268950Y14226595D01*
X31268950Y13846510D01*
X31364200Y13751260D01*
X32049500Y13751260D01*
X32049500Y14436560D01*
X31954250Y14531810D01*
X31574164Y14531810D01*
X31434130Y14473806D01*
X31326954Y14366629D01*
X31268950Y14226595D01*
X30082131Y14226595D01*
X29950785Y14281000D01*
X29595750Y14281000D01*
X29500500Y14185750D01*
X29499500Y14185750D01*
X29404250Y14281000D01*
X29049215Y14281000D01*
X28909181Y14222996D01*
X28802004Y14115820D01*
X28744000Y13975786D01*
X28627000Y13975786D01*
X28627000Y15204250D01*
X28689000Y15204250D01*
X28689000Y14899215D01*
X28747004Y14759181D01*
X28854180Y14652004D01*
X28994214Y14594000D01*
X29504250Y14594000D01*
X29599500Y14689250D01*
X29599500Y15299500D01*
X29600500Y15299500D01*
X29600500Y14689250D01*
X29695750Y14594000D01*
X30205786Y14594000D01*
X30345820Y14652004D01*
X30452996Y14759181D01*
X30511000Y14899215D01*
X30511000Y15204250D01*
X30989000Y15204250D01*
X30989000Y14899215D01*
X31047004Y14759181D01*
X31154180Y14652004D01*
X31294214Y14594000D01*
X31804250Y14594000D01*
X31899500Y14689250D01*
X31899500Y15299500D01*
X31084250Y15299500D01*
X30989000Y15204250D01*
X30511000Y15204250D01*
X30415750Y15299500D01*
X29600500Y15299500D01*
X29599500Y15299500D01*
X28784250Y15299500D01*
X28689000Y15204250D01*
X28627000Y15204250D01*
X28627000Y16575000D01*
X28681536Y16575000D01*
X28681536Y15925000D01*
X28708103Y15783810D01*
X28717403Y15769357D01*
X28689000Y15700785D01*
X28689000Y15395750D01*
X28784250Y15300500D01*
X29599500Y15300500D01*
X29599500Y15320500D01*
X29600500Y15320500D01*
X29600500Y15300500D01*
X30415750Y15300500D01*
X30511000Y15395750D01*
X30511000Y15700785D01*
X30483420Y15767369D01*
X30487859Y15773866D01*
X30518464Y15925000D01*
X30518464Y16575000D01*
X30491897Y16716190D01*
X30482597Y16730643D01*
X30511000Y16799215D01*
X30511000Y17104250D01*
X30415750Y17199500D01*
X29600500Y17199500D01*
X29600500Y17179500D01*
X29599500Y17179500D01*
X29599500Y17199500D01*
X28784250Y17199500D01*
X28689000Y17104250D01*
X28689000Y16799215D01*
X28716580Y16732631D01*
X28712141Y16726134D01*
X28681536Y16575000D01*
X28627000Y16575000D01*
X28627000Y17600785D01*
X28689000Y17600785D01*
X28689000Y17295750D01*
X28784250Y17200500D01*
X29599500Y17200500D01*
X29599500Y17810750D01*
X29600500Y17810750D01*
X29600500Y17200500D01*
X30415750Y17200500D01*
X30511000Y17295750D01*
X30511000Y17600785D01*
X30452996Y17740819D01*
X30345820Y17847996D01*
X30205786Y17906000D01*
X29695750Y17906000D01*
X29600500Y17810750D01*
X29599500Y17810750D01*
X29504250Y17906000D01*
X28994214Y17906000D01*
X28854180Y17847996D01*
X28747004Y17740819D01*
X28689000Y17600785D01*
X28627000Y17600785D01*
X28627000Y19056085D01*
X29225165Y19654250D01*
X38169000Y19654250D01*
X38169000Y19424214D01*
X38227004Y19284180D01*
X38334181Y19177004D01*
X38474215Y19119000D01*
X38904250Y19119000D01*
X38999500Y19214250D01*
X38999500Y19749500D01*
X38264250Y19749500D01*
X38169000Y19654250D01*
X29225165Y19654250D01*
X30340118Y20769203D01*
X30409473Y20873000D01*
X31513928Y20873000D01*
X31613741Y20773013D01*
X31613741Y20773013D01*
G37*
X31613741Y20773013D02*
X31863946Y20669118D01*
X32134865Y20668882D01*
X32385252Y20772339D01*
X32482081Y20869000D01*
X34900764Y20869000D01*
X35609882Y20159881D01*
X35765930Y20055613D01*
X35950000Y20019000D01*
X38169000Y20019000D01*
X38169000Y19845750D01*
X38264250Y19750500D01*
X38999500Y19750500D01*
X38999500Y19770500D01*
X39000500Y19770500D01*
X39000500Y19750500D01*
X39020500Y19750500D01*
X39020500Y19749500D01*
X39000500Y19749500D01*
X39000500Y19214250D01*
X39095750Y19119000D01*
X39525785Y19119000D01*
X39623000Y19159268D01*
X39623000Y16500000D01*
X39633006Y16450590D01*
X39661447Y16408965D01*
X39703841Y16381685D01*
X39750000Y16373000D01*
X43446763Y16373000D01*
X43662283Y16157480D01*
X43736547Y16107859D01*
X43818330Y16053213D01*
X44002401Y16016599D01*
X49753165Y16016599D01*
X52408881Y13360882D01*
X52476158Y13315929D01*
X52564929Y13256614D01*
X52749000Y13220000D01*
X52823942Y13220000D01*
X52709571Y13172626D01*
X52602394Y13065450D01*
X52544390Y12925416D01*
X52544390Y12745990D01*
X52639640Y12650740D01*
X53299540Y12650740D01*
X53299540Y12670740D01*
X53300540Y12670740D01*
X53300540Y12650740D01*
X53320540Y12650740D01*
X53320540Y12649740D01*
X53300540Y12649740D01*
X53300540Y12629740D01*
X53299540Y12629740D01*
X53299540Y12649740D01*
X52639640Y12649740D01*
X52544390Y12554490D01*
X52544390Y12444997D01*
X52541319Y12444386D01*
X52491098Y12410829D01*
X52385272Y12340119D01*
X52252882Y12207728D01*
X52148614Y12051681D01*
X52131570Y11965995D01*
X52131570Y12651346D01*
X52073566Y12791380D01*
X51966389Y12898556D01*
X51826355Y12956560D01*
X51095750Y12956560D01*
X51000500Y12861310D01*
X51000500Y11501640D01*
X51020500Y11501640D01*
X51020500Y11500640D01*
X51000500Y11500640D01*
X51000500Y11480640D01*
X50999500Y11480640D01*
X50999500Y11500640D01*
X49963680Y11500640D01*
X49868430Y11405390D01*
X49868430Y10350934D01*
X49926434Y10210900D01*
X50010335Y10127000D01*
X49239665Y10127000D01*
X49323566Y10210900D01*
X49381570Y10350934D01*
X49381570Y11405390D01*
X49286320Y11500640D01*
X48250500Y11500640D01*
X48250500Y11480640D01*
X48249500Y11480640D01*
X48249500Y11500640D01*
X47213680Y11500640D01*
X47118430Y11405390D01*
X47118430Y10350934D01*
X47176434Y10210900D01*
X47260335Y10127000D01*
X45981000Y10127000D01*
X45981000Y11361536D01*
X46000000Y11361536D01*
X46141190Y11388103D01*
X46270865Y11471546D01*
X46357859Y11598866D01*
X46388464Y11750000D01*
X46388464Y12651346D01*
X47118430Y12651346D01*
X47118430Y11596890D01*
X47213680Y11501640D01*
X48249500Y11501640D01*
X48249500Y12861310D01*
X48250500Y12861310D01*
X48250500Y11501640D01*
X49286320Y11501640D01*
X49381570Y11596890D01*
X49381570Y12651346D01*
X49868430Y12651346D01*
X49868430Y11596890D01*
X49963680Y11501640D01*
X50999500Y11501640D01*
X50999500Y12861310D01*
X50904250Y12956560D01*
X50173645Y12956560D01*
X50033611Y12898556D01*
X49926434Y12791380D01*
X49868430Y12651346D01*
X49381570Y12651346D01*
X49323566Y12791380D01*
X49216389Y12898556D01*
X49076355Y12956560D01*
X48345750Y12956560D01*
X48250500Y12861310D01*
X48249500Y12861310D01*
X48154250Y12956560D01*
X47423645Y12956560D01*
X47283611Y12898556D01*
X47176434Y12791380D01*
X47118430Y12651346D01*
X46388464Y12651346D01*
X46388464Y14500000D01*
X46361897Y14641190D01*
X46278454Y14770865D01*
X46151134Y14857859D01*
X46000000Y14888464D01*
X45000000Y14888464D01*
X44858810Y14861897D01*
X44729135Y14778454D01*
X44642141Y14651134D01*
X44611536Y14500000D01*
X44611536Y11750000D01*
X44638103Y11608810D01*
X44721546Y11479135D01*
X44848866Y11392141D01*
X45000000Y11361536D01*
X45019000Y11361536D01*
X45019000Y10127000D01*
X42081000Y10127000D01*
X42081000Y11376777D01*
X42141190Y11388103D01*
X42270865Y11471546D01*
X42357859Y11598866D01*
X42388464Y11750000D01*
X42388464Y14500000D01*
X42361897Y14641190D01*
X42278454Y14770865D01*
X42151134Y14857859D01*
X42000000Y14888464D01*
X41000000Y14888464D01*
X40858810Y14861897D01*
X40729135Y14778454D01*
X40642141Y14651134D01*
X40619268Y14538182D01*
X40616994Y14549410D01*
X40588553Y14591035D01*
X40546159Y14618315D01*
X40500000Y14627000D01*
X39750000Y14627000D01*
X39700590Y14616994D01*
X39658965Y14588553D01*
X39631685Y14546159D01*
X39623000Y14500000D01*
X39623000Y12552606D01*
X38947394Y11877000D01*
X37930893Y11877000D01*
X37931118Y12134865D01*
X37827661Y12385252D01*
X37636259Y12576987D01*
X37386054Y12680882D01*
X37115135Y12681118D01*
X36872829Y12581000D01*
X36640443Y12581000D01*
X36601134Y12607859D01*
X36450000Y12638464D01*
X35550000Y12638464D01*
X35408810Y12611897D01*
X35279135Y12528454D01*
X35192141Y12401134D01*
X35161536Y12250000D01*
X35161536Y11877000D01*
X34837909Y11877000D01*
X34481590Y12233320D01*
X34260658Y12380942D01*
X34000050Y12432780D01*
X33663744Y12432780D01*
X33551184Y12509689D01*
X33481000Y12523901D01*
X33481000Y12976209D01*
X33549950Y12962246D01*
X34350050Y12962246D01*
X34491240Y12988813D01*
X34538152Y13019000D01*
X35245894Y13019000D01*
X35271546Y12979135D01*
X35398866Y12892141D01*
X35550000Y12861536D01*
X36450000Y12861536D01*
X36591190Y12888103D01*
X36720865Y12971546D01*
X36807859Y13098866D01*
X36838464Y13250000D01*
X36838464Y13750000D01*
X36811897Y13891190D01*
X36728454Y14020865D01*
X36601134Y14107859D01*
X36450000Y14138464D01*
X35550000Y14138464D01*
X35408810Y14111897D01*
X35279135Y14028454D01*
X35246711Y13981000D01*
X34738514Y13981000D01*
X34738514Y14150810D01*
X34711947Y14292000D01*
X34628504Y14421675D01*
X34501184Y14508669D01*
X34431000Y14522881D01*
X34431000Y14586536D01*
X34630000Y14586536D01*
X34771190Y14613103D01*
X34900865Y14696546D01*
X34987859Y14823866D01*
X35018464Y14975000D01*
X35018464Y15601300D01*
X35161536Y15458228D01*
X35161536Y15250000D01*
X35188103Y15108810D01*
X35271546Y14979135D01*
X35398866Y14892141D01*
X35550000Y14861536D01*
X36450000Y14861536D01*
X36591190Y14888103D01*
X36720865Y14971546D01*
X36807859Y15098866D01*
X36838464Y15250000D01*
X36838464Y15750000D01*
X36811897Y15891190D01*
X36728454Y16020865D01*
X36601134Y16107859D01*
X36450000Y16138464D01*
X35841772Y16138464D01*
X35618700Y16361536D01*
X36450000Y16361536D01*
X36591190Y16388103D01*
X36639206Y16419000D01*
X36873405Y16419000D01*
X37113946Y16319118D01*
X37384865Y16318882D01*
X37635252Y16422339D01*
X37826987Y16613741D01*
X37930882Y16863946D01*
X37931118Y17134865D01*
X37827661Y17385252D01*
X37636259Y17576987D01*
X37386054Y17680882D01*
X37115135Y17681118D01*
X36872829Y17581000D01*
X36640443Y17581000D01*
X36601134Y17607859D01*
X36450000Y17638464D01*
X35550000Y17638464D01*
X35408810Y17611897D01*
X35279135Y17528454D01*
X35192141Y17401134D01*
X35161536Y17250000D01*
X35161536Y16750000D01*
X35169587Y16707213D01*
X35050000Y16731000D01*
X34989304Y16731000D01*
X35018464Y16875000D01*
X35018464Y17525000D01*
X34991897Y17666190D01*
X34908454Y17795865D01*
X34781134Y17882859D01*
X34630000Y17913464D01*
X33570000Y17913464D01*
X33428810Y17886897D01*
X33299135Y17803454D01*
X33212141Y17676134D01*
X33181536Y17525000D01*
X33181536Y17328700D01*
X32970118Y17540118D01*
X32814071Y17644386D01*
X32795297Y17648120D01*
X32791897Y17666190D01*
X32708454Y17795865D01*
X32581134Y17882859D01*
X32430000Y17913464D01*
X31370000Y17913464D01*
X31228810Y17886897D01*
X31099135Y17803454D01*
X31012141Y17676134D01*
X30981536Y17525000D01*
X30981536Y16875000D01*
X31008103Y16733810D01*
X31012605Y16726813D01*
X31012141Y16726134D01*
X30981536Y16575000D01*
X30981536Y15925000D01*
X31008103Y15783810D01*
X31017403Y15769357D01*
X30989000Y15700785D01*
X30989000Y15395750D01*
X31084250Y15300500D01*
X31899500Y15300500D01*
X31899500Y15320500D01*
X31900500Y15320500D01*
X31900500Y15300500D01*
X31920500Y15300500D01*
X31920500Y15299500D01*
X31900500Y15299500D01*
X31900500Y14689250D01*
X31995750Y14594000D01*
X32505786Y14594000D01*
X32519000Y14599473D01*
X32519000Y14531810D01*
X32145750Y14531810D01*
X32050500Y14436560D01*
X32050500Y13751260D01*
X32070500Y13751260D01*
X32070500Y13750260D01*
X32050500Y13750260D01*
X32050500Y13064960D01*
X32145750Y12969710D01*
X32519000Y12969710D01*
X32519000Y12525062D01*
X32458760Y12513727D01*
X32329085Y12430284D01*
X32242091Y12302964D01*
X32211486Y12151830D01*
X32211486Y11877000D01*
X31180893Y11877000D01*
X31181118Y12134865D01*
X31077661Y12385252D01*
X30886259Y12576987D01*
X30636054Y12680882D01*
X30365135Y12681118D01*
X30192702Y12609871D01*
X30153454Y12670865D01*
X30033103Y12753097D01*
X30090819Y12777004D01*
X30197996Y12884180D01*
X30256000Y13024214D01*
X30256000Y13404250D01*
X30160750Y13499500D01*
X29500500Y13499500D01*
X29500500Y13479500D01*
X29499500Y13479500D01*
X29499500Y13499500D01*
X28839250Y13499500D01*
X28744000Y13404250D01*
X28744000Y13024214D01*
X28802004Y12884180D01*
X28909181Y12777004D01*
X28968867Y12752281D01*
X28854135Y12678454D01*
X28767141Y12551134D01*
X28736536Y12400000D01*
X28736536Y12193070D01*
X28627000Y12302606D01*
X28627000Y13975786D01*
X28744000Y13975786D01*
X28744000Y13595750D01*
X28839250Y13500500D01*
X29499500Y13500500D01*
X29499500Y14185750D01*
X29500500Y14185750D01*
X29500500Y13500500D01*
X30160750Y13500500D01*
X30256000Y13595750D01*
X30256000Y13655010D01*
X31268950Y13655010D01*
X31268950Y13274925D01*
X31326954Y13134891D01*
X31434130Y13027714D01*
X31574164Y12969710D01*
X31954250Y12969710D01*
X32049500Y13064960D01*
X32049500Y13750260D01*
X31364200Y13750260D01*
X31268950Y13655010D01*
X30256000Y13655010D01*
X30256000Y13975786D01*
X30197996Y14115820D01*
X30090819Y14222996D01*
X30082131Y14226595D01*
X31268950Y14226595D01*
X31268950Y13846510D01*
X31364200Y13751260D01*
X32049500Y13751260D01*
X32049500Y14436560D01*
X31954250Y14531810D01*
X31574164Y14531810D01*
X31434130Y14473806D01*
X31326954Y14366629D01*
X31268950Y14226595D01*
X30082131Y14226595D01*
X29950785Y14281000D01*
X29595750Y14281000D01*
X29500500Y14185750D01*
X29499500Y14185750D01*
X29404250Y14281000D01*
X29049215Y14281000D01*
X28909181Y14222996D01*
X28802004Y14115820D01*
X28744000Y13975786D01*
X28627000Y13975786D01*
X28627000Y15204250D01*
X28689000Y15204250D01*
X28689000Y14899215D01*
X28747004Y14759181D01*
X28854180Y14652004D01*
X28994214Y14594000D01*
X29504250Y14594000D01*
X29599500Y14689250D01*
X29599500Y15299500D01*
X29600500Y15299500D01*
X29600500Y14689250D01*
X29695750Y14594000D01*
X30205786Y14594000D01*
X30345820Y14652004D01*
X30452996Y14759181D01*
X30511000Y14899215D01*
X30511000Y15204250D01*
X30989000Y15204250D01*
X30989000Y14899215D01*
X31047004Y14759181D01*
X31154180Y14652004D01*
X31294214Y14594000D01*
X31804250Y14594000D01*
X31899500Y14689250D01*
X31899500Y15299500D01*
X31084250Y15299500D01*
X30989000Y15204250D01*
X30511000Y15204250D01*
X30415750Y15299500D01*
X29600500Y15299500D01*
X29599500Y15299500D01*
X28784250Y15299500D01*
X28689000Y15204250D01*
X28627000Y15204250D01*
X28627000Y16575000D01*
X28681536Y16575000D01*
X28681536Y15925000D01*
X28708103Y15783810D01*
X28717403Y15769357D01*
X28689000Y15700785D01*
X28689000Y15395750D01*
X28784250Y15300500D01*
X29599500Y15300500D01*
X29599500Y15320500D01*
X29600500Y15320500D01*
X29600500Y15300500D01*
X30415750Y15300500D01*
X30511000Y15395750D01*
X30511000Y15700785D01*
X30483420Y15767369D01*
X30487859Y15773866D01*
X30518464Y15925000D01*
X30518464Y16575000D01*
X30491897Y16716190D01*
X30482597Y16730643D01*
X30511000Y16799215D01*
X30511000Y17104250D01*
X30415750Y17199500D01*
X29600500Y17199500D01*
X29600500Y17179500D01*
X29599500Y17179500D01*
X29599500Y17199500D01*
X28784250Y17199500D01*
X28689000Y17104250D01*
X28689000Y16799215D01*
X28716580Y16732631D01*
X28712141Y16726134D01*
X28681536Y16575000D01*
X28627000Y16575000D01*
X28627000Y17600785D01*
X28689000Y17600785D01*
X28689000Y17295750D01*
X28784250Y17200500D01*
X29599500Y17200500D01*
X29599500Y17810750D01*
X29600500Y17810750D01*
X29600500Y17200500D01*
X30415750Y17200500D01*
X30511000Y17295750D01*
X30511000Y17600785D01*
X30452996Y17740819D01*
X30345820Y17847996D01*
X30205786Y17906000D01*
X29695750Y17906000D01*
X29600500Y17810750D01*
X29599500Y17810750D01*
X29504250Y17906000D01*
X28994214Y17906000D01*
X28854180Y17847996D01*
X28747004Y17740819D01*
X28689000Y17600785D01*
X28627000Y17600785D01*
X28627000Y19056085D01*
X29225165Y19654250D01*
X38169000Y19654250D01*
X38169000Y19424214D01*
X38227004Y19284180D01*
X38334181Y19177004D01*
X38474215Y19119000D01*
X38904250Y19119000D01*
X38999500Y19214250D01*
X38999500Y19749500D01*
X38264250Y19749500D01*
X38169000Y19654250D01*
X29225165Y19654250D01*
X30340118Y20769203D01*
X30409473Y20873000D01*
X31513928Y20873000D01*
X31613741Y20773013D01*
M02*
