G04 #@! TF.FileFunction,Legend,Top*
%FSLAX46Y46*%
G04 Gerber Fmt 4.6, Leading zero omitted, Abs format (unit mm)*
G04 Created by KiCad (PCBNEW 4.0.0-stable) date Tuesday, February 02, 2016 'AMt' 02:20:54 AM*
%MOMM*%
G01*
G04 APERTURE LIST*
%ADD10C,0.100000*%
%ADD11C,0.150000*%
G04 APERTURE END LIST*
D10*
D11*
X162150000Y-115320000D02*
X161916667Y-115320000D01*
X161916667Y-115686667D02*
X161916667Y-114986667D01*
X162250000Y-114986667D01*
X162416667Y-114986667D02*
X162816667Y-114986667D01*
X162616667Y-115686667D02*
X162616667Y-114986667D01*
X163016666Y-115053333D02*
X163050000Y-115020000D01*
X163116666Y-114986667D01*
X163283333Y-114986667D01*
X163350000Y-115020000D01*
X163383333Y-115053333D01*
X163416666Y-115120000D01*
X163416666Y-115186667D01*
X163383333Y-115286667D01*
X162983333Y-115686667D01*
X163416666Y-115686667D01*
X163683333Y-115053333D02*
X163716667Y-115020000D01*
X163783333Y-114986667D01*
X163950000Y-114986667D01*
X164016667Y-115020000D01*
X164050000Y-115053333D01*
X164083333Y-115120000D01*
X164083333Y-115186667D01*
X164050000Y-115286667D01*
X163650000Y-115686667D01*
X164083333Y-115686667D01*
X164316667Y-114986667D02*
X164750000Y-114986667D01*
X164516667Y-115253333D01*
X164616667Y-115253333D01*
X164683334Y-115286667D01*
X164716667Y-115320000D01*
X164750000Y-115386667D01*
X164750000Y-115553333D01*
X164716667Y-115620000D01*
X164683334Y-115653333D01*
X164616667Y-115686667D01*
X164416667Y-115686667D01*
X164350000Y-115653333D01*
X164316667Y-115620000D01*
X165016667Y-115053333D02*
X165050001Y-115020000D01*
X165116667Y-114986667D01*
X165283334Y-114986667D01*
X165350001Y-115020000D01*
X165383334Y-115053333D01*
X165416667Y-115120000D01*
X165416667Y-115186667D01*
X165383334Y-115286667D01*
X164983334Y-115686667D01*
X165416667Y-115686667D01*
X165716668Y-115686667D02*
X165716668Y-114986667D01*
X165716668Y-115320000D02*
X166116668Y-115320000D01*
X166116668Y-115686667D02*
X166116668Y-114986667D01*
X167383334Y-115686667D02*
X167150000Y-115353333D01*
X166983334Y-115686667D02*
X166983334Y-114986667D01*
X167250000Y-114986667D01*
X167316667Y-115020000D01*
X167350000Y-115053333D01*
X167383334Y-115120000D01*
X167383334Y-115220000D01*
X167350000Y-115286667D01*
X167316667Y-115320000D01*
X167250000Y-115353333D01*
X166983334Y-115353333D01*
X167683334Y-115686667D02*
X167683334Y-114986667D01*
X167950000Y-114986667D01*
X168016667Y-115020000D01*
X168050000Y-115053333D01*
X168083334Y-115120000D01*
X168083334Y-115220000D01*
X168050000Y-115286667D01*
X168016667Y-115320000D01*
X167950000Y-115353333D01*
X167683334Y-115353333D01*
X168383334Y-115686667D02*
X168383334Y-115220000D01*
X168383334Y-114986667D02*
X168350000Y-115020000D01*
X168383334Y-115053333D01*
X168416667Y-115020000D01*
X168383334Y-114986667D01*
X168383334Y-115053333D01*
X169250000Y-115686667D02*
X169250000Y-114986667D01*
X169416666Y-114986667D01*
X169516666Y-115020000D01*
X169583333Y-115086667D01*
X169616666Y-115153333D01*
X169650000Y-115286667D01*
X169650000Y-115386667D01*
X169616666Y-115520000D01*
X169583333Y-115586667D01*
X169516666Y-115653333D01*
X169416666Y-115686667D01*
X169250000Y-115686667D01*
X170216666Y-115653333D02*
X170150000Y-115686667D01*
X170016666Y-115686667D01*
X169950000Y-115653333D01*
X169916666Y-115586667D01*
X169916666Y-115320000D01*
X169950000Y-115253333D01*
X170016666Y-115220000D01*
X170150000Y-115220000D01*
X170216666Y-115253333D01*
X170250000Y-115320000D01*
X170250000Y-115386667D01*
X169916666Y-115453333D01*
X170550000Y-115686667D02*
X170550000Y-114986667D01*
X170550000Y-115253333D02*
X170616666Y-115220000D01*
X170750000Y-115220000D01*
X170816666Y-115253333D01*
X170850000Y-115286667D01*
X170883333Y-115353333D01*
X170883333Y-115553333D01*
X170850000Y-115620000D01*
X170816666Y-115653333D01*
X170750000Y-115686667D01*
X170616666Y-115686667D01*
X170550000Y-115653333D01*
X171483333Y-115220000D02*
X171483333Y-115686667D01*
X171183333Y-115220000D02*
X171183333Y-115586667D01*
X171216666Y-115653333D01*
X171283333Y-115686667D01*
X171383333Y-115686667D01*
X171449999Y-115653333D01*
X171483333Y-115620000D01*
X172116666Y-115220000D02*
X172116666Y-115786667D01*
X172083332Y-115853333D01*
X172049999Y-115886667D01*
X171983332Y-115920000D01*
X171883332Y-115920000D01*
X171816666Y-115886667D01*
X172116666Y-115653333D02*
X172049999Y-115686667D01*
X171916666Y-115686667D01*
X171849999Y-115653333D01*
X171816666Y-115620000D01*
X171783332Y-115553333D01*
X171783332Y-115353333D01*
X171816666Y-115286667D01*
X171849999Y-115253333D01*
X171916666Y-115220000D01*
X172049999Y-115220000D01*
X172116666Y-115253333D01*
X172749999Y-115220000D02*
X172749999Y-115786667D01*
X172716665Y-115853333D01*
X172683332Y-115886667D01*
X172616665Y-115920000D01*
X172516665Y-115920000D01*
X172449999Y-115886667D01*
X172749999Y-115653333D02*
X172683332Y-115686667D01*
X172549999Y-115686667D01*
X172483332Y-115653333D01*
X172449999Y-115620000D01*
X172416665Y-115553333D01*
X172416665Y-115353333D01*
X172449999Y-115286667D01*
X172483332Y-115253333D01*
X172549999Y-115220000D01*
X172683332Y-115220000D01*
X172749999Y-115253333D01*
X173349998Y-115653333D02*
X173283332Y-115686667D01*
X173149998Y-115686667D01*
X173083332Y-115653333D01*
X173049998Y-115586667D01*
X173049998Y-115320000D01*
X173083332Y-115253333D01*
X173149998Y-115220000D01*
X173283332Y-115220000D01*
X173349998Y-115253333D01*
X173383332Y-115320000D01*
X173383332Y-115386667D01*
X173049998Y-115453333D01*
X173683332Y-115686667D02*
X173683332Y-115220000D01*
X173683332Y-115353333D02*
X173716665Y-115286667D01*
X173749998Y-115253333D01*
X173816665Y-115220000D01*
X173883332Y-115220000D01*
X174649998Y-115686667D02*
X174649998Y-114986667D01*
X174649998Y-115320000D02*
X175049998Y-115320000D01*
X175049998Y-115686667D02*
X175049998Y-114986667D01*
X175349997Y-115486667D02*
X175683331Y-115486667D01*
X175283331Y-115686667D02*
X175516664Y-114986667D01*
X175749997Y-115686667D01*
X175883331Y-114986667D02*
X176283331Y-114986667D01*
X176083331Y-115686667D02*
X176083331Y-114986667D01*
X161916667Y-116816667D02*
X161916667Y-116116667D01*
X162550000Y-116816667D02*
X162550000Y-116450000D01*
X162516666Y-116383333D01*
X162450000Y-116350000D01*
X162316666Y-116350000D01*
X162250000Y-116383333D01*
X162550000Y-116783333D02*
X162483333Y-116816667D01*
X162316666Y-116816667D01*
X162250000Y-116783333D01*
X162216666Y-116716667D01*
X162216666Y-116650000D01*
X162250000Y-116583333D01*
X162316666Y-116550000D01*
X162483333Y-116550000D01*
X162550000Y-116516667D01*
X162883333Y-116350000D02*
X162883333Y-116816667D01*
X162883333Y-116416667D02*
X162916666Y-116383333D01*
X162983333Y-116350000D01*
X163083333Y-116350000D01*
X163149999Y-116383333D01*
X163183333Y-116450000D01*
X163183333Y-116816667D01*
X164049999Y-116816667D02*
X164049999Y-116116667D01*
X164049999Y-116450000D02*
X164449999Y-116450000D01*
X164449999Y-116816667D02*
X164449999Y-116116667D01*
X165083332Y-116816667D02*
X165083332Y-116450000D01*
X165049998Y-116383333D01*
X164983332Y-116350000D01*
X164849998Y-116350000D01*
X164783332Y-116383333D01*
X165083332Y-116783333D02*
X165016665Y-116816667D01*
X164849998Y-116816667D01*
X164783332Y-116783333D01*
X164749998Y-116716667D01*
X164749998Y-116650000D01*
X164783332Y-116583333D01*
X164849998Y-116550000D01*
X165016665Y-116550000D01*
X165083332Y-116516667D01*
X165416665Y-116816667D02*
X165416665Y-116350000D01*
X165416665Y-116483333D02*
X165449998Y-116416667D01*
X165483331Y-116383333D01*
X165549998Y-116350000D01*
X165616665Y-116350000D01*
X165749998Y-116350000D02*
X166016664Y-116350000D01*
X165849998Y-116116667D02*
X165849998Y-116716667D01*
X165883331Y-116783333D01*
X165949998Y-116816667D01*
X166016664Y-116816667D01*
X166183331Y-116350000D02*
X166316664Y-116816667D01*
X166449998Y-116483333D01*
X166583331Y-116816667D01*
X166716664Y-116350000D01*
X166983331Y-116816667D02*
X166983331Y-116350000D01*
X166983331Y-116116667D02*
X166949997Y-116150000D01*
X166983331Y-116183333D01*
X167016664Y-116150000D01*
X166983331Y-116116667D01*
X166983331Y-116183333D01*
X167616664Y-116350000D02*
X167616664Y-116916667D01*
X167583330Y-116983333D01*
X167549997Y-117016667D01*
X167483330Y-117050000D01*
X167383330Y-117050000D01*
X167316664Y-117016667D01*
X167616664Y-116783333D02*
X167549997Y-116816667D01*
X167416664Y-116816667D01*
X167349997Y-116783333D01*
X167316664Y-116750000D01*
X167283330Y-116683333D01*
X167283330Y-116483333D01*
X167316664Y-116416667D01*
X167349997Y-116383333D01*
X167416664Y-116350000D01*
X167549997Y-116350000D01*
X167616664Y-116383333D01*
X168483330Y-116550000D02*
X169016663Y-116550000D01*
X170283330Y-116816667D02*
X170049996Y-116483333D01*
X169883330Y-116816667D02*
X169883330Y-116116667D01*
X170149996Y-116116667D01*
X170216663Y-116150000D01*
X170249996Y-116183333D01*
X170283330Y-116250000D01*
X170283330Y-116350000D01*
X170249996Y-116416667D01*
X170216663Y-116450000D01*
X170149996Y-116483333D01*
X169883330Y-116483333D01*
X170849996Y-116783333D02*
X170783330Y-116816667D01*
X170649996Y-116816667D01*
X170583330Y-116783333D01*
X170549996Y-116716667D01*
X170549996Y-116450000D01*
X170583330Y-116383333D01*
X170649996Y-116350000D01*
X170783330Y-116350000D01*
X170849996Y-116383333D01*
X170883330Y-116450000D01*
X170883330Y-116516667D01*
X170549996Y-116583333D01*
X171116663Y-116350000D02*
X171283330Y-116816667D01*
X171449996Y-116350000D01*
X172216662Y-116183333D02*
X172249996Y-116150000D01*
X172316662Y-116116667D01*
X172483329Y-116116667D01*
X172549996Y-116150000D01*
X172583329Y-116183333D01*
X172616662Y-116250000D01*
X172616662Y-116316667D01*
X172583329Y-116416667D01*
X172183329Y-116816667D01*
X172616662Y-116816667D01*
X172916663Y-116750000D02*
X172949996Y-116783333D01*
X172916663Y-116816667D01*
X172883329Y-116783333D01*
X172916663Y-116750000D01*
X172916663Y-116816667D01*
X173383329Y-116116667D02*
X173449996Y-116116667D01*
X173516662Y-116150000D01*
X173549996Y-116183333D01*
X173583329Y-116250000D01*
X173616662Y-116383333D01*
X173616662Y-116550000D01*
X173583329Y-116683333D01*
X173549996Y-116750000D01*
X173516662Y-116783333D01*
X173449996Y-116816667D01*
X173383329Y-116816667D01*
X173316662Y-116783333D01*
X173283329Y-116750000D01*
X173249996Y-116683333D01*
X173216662Y-116550000D01*
X173216662Y-116383333D01*
X173249996Y-116250000D01*
X173283329Y-116183333D01*
X173316662Y-116150000D01*
X173383329Y-116116667D01*
X162316667Y-117880000D02*
X162283333Y-117913333D01*
X162183333Y-117946667D01*
X162116667Y-117946667D01*
X162016667Y-117913333D01*
X161950000Y-117846667D01*
X161916667Y-117780000D01*
X161883333Y-117646667D01*
X161883333Y-117546667D01*
X161916667Y-117413333D01*
X161950000Y-117346667D01*
X162016667Y-117280000D01*
X162116667Y-117246667D01*
X162183333Y-117246667D01*
X162283333Y-117280000D01*
X162316667Y-117313333D01*
X162916667Y-117946667D02*
X162916667Y-117580000D01*
X162883333Y-117513333D01*
X162816667Y-117480000D01*
X162683333Y-117480000D01*
X162616667Y-117513333D01*
X162916667Y-117913333D02*
X162850000Y-117946667D01*
X162683333Y-117946667D01*
X162616667Y-117913333D01*
X162583333Y-117846667D01*
X162583333Y-117780000D01*
X162616667Y-117713333D01*
X162683333Y-117680000D01*
X162850000Y-117680000D01*
X162916667Y-117646667D01*
X163250000Y-117946667D02*
X163250000Y-117480000D01*
X163250000Y-117613333D02*
X163283333Y-117546667D01*
X163316666Y-117513333D01*
X163383333Y-117480000D01*
X163450000Y-117480000D01*
X163683333Y-117480000D02*
X163683333Y-117946667D01*
X163683333Y-117546667D02*
X163716666Y-117513333D01*
X163783333Y-117480000D01*
X163883333Y-117480000D01*
X163949999Y-117513333D01*
X163983333Y-117580000D01*
X163983333Y-117946667D01*
X164583332Y-117913333D02*
X164516666Y-117946667D01*
X164383332Y-117946667D01*
X164316666Y-117913333D01*
X164283332Y-117846667D01*
X164283332Y-117580000D01*
X164316666Y-117513333D01*
X164383332Y-117480000D01*
X164516666Y-117480000D01*
X164583332Y-117513333D01*
X164616666Y-117580000D01*
X164616666Y-117646667D01*
X164283332Y-117713333D01*
X165216666Y-117480000D02*
X165216666Y-118046667D01*
X165183332Y-118113333D01*
X165149999Y-118146667D01*
X165083332Y-118180000D01*
X164983332Y-118180000D01*
X164916666Y-118146667D01*
X165216666Y-117913333D02*
X165149999Y-117946667D01*
X165016666Y-117946667D01*
X164949999Y-117913333D01*
X164916666Y-117880000D01*
X164883332Y-117813333D01*
X164883332Y-117613333D01*
X164916666Y-117546667D01*
X164949999Y-117513333D01*
X165016666Y-117480000D01*
X165149999Y-117480000D01*
X165216666Y-117513333D01*
X165549999Y-117946667D02*
X165549999Y-117480000D01*
X165549999Y-117246667D02*
X165516665Y-117280000D01*
X165549999Y-117313333D01*
X165583332Y-117280000D01*
X165549999Y-117246667D01*
X165549999Y-117313333D01*
X166149998Y-117913333D02*
X166083332Y-117946667D01*
X165949998Y-117946667D01*
X165883332Y-117913333D01*
X165849998Y-117846667D01*
X165849998Y-117580000D01*
X165883332Y-117513333D01*
X165949998Y-117480000D01*
X166083332Y-117480000D01*
X166149998Y-117513333D01*
X166183332Y-117580000D01*
X166183332Y-117646667D01*
X165849998Y-117713333D01*
X167016665Y-117946667D02*
X167016665Y-117246667D01*
X167249998Y-117746667D01*
X167483331Y-117246667D01*
X167483331Y-117946667D01*
X168083331Y-117913333D02*
X168016665Y-117946667D01*
X167883331Y-117946667D01*
X167816665Y-117913333D01*
X167783331Y-117846667D01*
X167783331Y-117580000D01*
X167816665Y-117513333D01*
X167883331Y-117480000D01*
X168016665Y-117480000D01*
X168083331Y-117513333D01*
X168116665Y-117580000D01*
X168116665Y-117646667D01*
X167783331Y-117713333D01*
X168516665Y-117946667D02*
X168449998Y-117913333D01*
X168416665Y-117846667D01*
X168416665Y-117246667D01*
X168883332Y-117946667D02*
X168816665Y-117913333D01*
X168783332Y-117846667D01*
X168783332Y-117246667D01*
X169249999Y-117946667D02*
X169183332Y-117913333D01*
X169149999Y-117880000D01*
X169116665Y-117813333D01*
X169116665Y-117613333D01*
X169149999Y-117546667D01*
X169183332Y-117513333D01*
X169249999Y-117480000D01*
X169349999Y-117480000D01*
X169416665Y-117513333D01*
X169449999Y-117546667D01*
X169483332Y-117613333D01*
X169483332Y-117813333D01*
X169449999Y-117880000D01*
X169416665Y-117913333D01*
X169349999Y-117946667D01*
X169249999Y-117946667D01*
X169783332Y-117480000D02*
X169783332Y-117946667D01*
X169783332Y-117546667D02*
X169816665Y-117513333D01*
X169883332Y-117480000D01*
X169983332Y-117480000D01*
X170049998Y-117513333D01*
X170083332Y-117580000D01*
X170083332Y-117946667D01*
X170949998Y-117246667D02*
X170949998Y-117813333D01*
X170983331Y-117880000D01*
X171016664Y-117913333D01*
X171083331Y-117946667D01*
X171216664Y-117946667D01*
X171283331Y-117913333D01*
X171316664Y-117880000D01*
X171349998Y-117813333D01*
X171349998Y-117246667D01*
X171683331Y-117480000D02*
X171683331Y-117946667D01*
X171683331Y-117546667D02*
X171716664Y-117513333D01*
X171783331Y-117480000D01*
X171883331Y-117480000D01*
X171949997Y-117513333D01*
X171983331Y-117580000D01*
X171983331Y-117946667D01*
X172316664Y-117946667D02*
X172316664Y-117480000D01*
X172316664Y-117246667D02*
X172283330Y-117280000D01*
X172316664Y-117313333D01*
X172349997Y-117280000D01*
X172316664Y-117246667D01*
X172316664Y-117313333D01*
X172583330Y-117480000D02*
X172749997Y-117946667D01*
X172916663Y-117480000D01*
X173449996Y-117913333D02*
X173383330Y-117946667D01*
X173249996Y-117946667D01*
X173183330Y-117913333D01*
X173149996Y-117846667D01*
X173149996Y-117580000D01*
X173183330Y-117513333D01*
X173249996Y-117480000D01*
X173383330Y-117480000D01*
X173449996Y-117513333D01*
X173483330Y-117580000D01*
X173483330Y-117646667D01*
X173149996Y-117713333D01*
X173783330Y-117946667D02*
X173783330Y-117480000D01*
X173783330Y-117613333D02*
X173816663Y-117546667D01*
X173849996Y-117513333D01*
X173916663Y-117480000D01*
X173983330Y-117480000D01*
X174183329Y-117913333D02*
X174249996Y-117946667D01*
X174383329Y-117946667D01*
X174449996Y-117913333D01*
X174483329Y-117846667D01*
X174483329Y-117813333D01*
X174449996Y-117746667D01*
X174383329Y-117713333D01*
X174283329Y-117713333D01*
X174216663Y-117680000D01*
X174183329Y-117613333D01*
X174183329Y-117580000D01*
X174216663Y-117513333D01*
X174283329Y-117480000D01*
X174383329Y-117480000D01*
X174449996Y-117513333D01*
X174783330Y-117946667D02*
X174783330Y-117480000D01*
X174783330Y-117246667D02*
X174749996Y-117280000D01*
X174783330Y-117313333D01*
X174816663Y-117280000D01*
X174783330Y-117246667D01*
X174783330Y-117313333D01*
X175016663Y-117480000D02*
X175283329Y-117480000D01*
X175116663Y-117246667D02*
X175116663Y-117846667D01*
X175149996Y-117913333D01*
X175216663Y-117946667D01*
X175283329Y-117946667D01*
X175449996Y-117480000D02*
X175616663Y-117946667D01*
X175783329Y-117480000D02*
X175616663Y-117946667D01*
X175549996Y-118113333D01*
X175516663Y-118146667D01*
X175449996Y-118180000D01*
X120566667Y-109866667D02*
X120966667Y-109866667D01*
X120766667Y-110566667D02*
X120766667Y-109866667D01*
X121133333Y-109866667D02*
X121600000Y-110566667D01*
X121600000Y-109866667D02*
X121133333Y-110566667D01*
X121066667Y-106066667D02*
X120833333Y-105733333D01*
X120666667Y-106066667D02*
X120666667Y-105366667D01*
X120933333Y-105366667D01*
X121000000Y-105400000D01*
X121033333Y-105433333D01*
X121066667Y-105500000D01*
X121066667Y-105600000D01*
X121033333Y-105666667D01*
X121000000Y-105700000D01*
X120933333Y-105733333D01*
X120666667Y-105733333D01*
X121300000Y-105366667D02*
X121766667Y-106066667D01*
X121766667Y-105366667D02*
X121300000Y-106066667D01*
X120666667Y-103066667D02*
X120666667Y-102366667D01*
X120933333Y-102366667D01*
X121000000Y-102400000D01*
X121033333Y-102433333D01*
X121066667Y-102500000D01*
X121066667Y-102600000D01*
X121033333Y-102666667D01*
X121000000Y-102700000D01*
X120933333Y-102733333D01*
X120666667Y-102733333D01*
X121300000Y-102366667D02*
X121466667Y-103066667D01*
X121600000Y-102566667D01*
X121733333Y-103066667D01*
X121900000Y-102366667D01*
X122566667Y-103066667D02*
X122333333Y-102733333D01*
X122166667Y-103066667D02*
X122166667Y-102366667D01*
X122433333Y-102366667D01*
X122500000Y-102400000D01*
X122533333Y-102433333D01*
X122566667Y-102500000D01*
X122566667Y-102600000D01*
X122533333Y-102666667D01*
X122500000Y-102700000D01*
X122433333Y-102733333D01*
X122166667Y-102733333D01*
X161666667Y-100621667D02*
X161666667Y-99921667D01*
X161933333Y-99921667D01*
X162000000Y-99955000D01*
X162033333Y-99988333D01*
X162066667Y-100055000D01*
X162066667Y-100155000D01*
X162033333Y-100221667D01*
X162000000Y-100255000D01*
X161933333Y-100288333D01*
X161666667Y-100288333D01*
X162366667Y-100621667D02*
X162366667Y-100155000D01*
X162366667Y-99921667D02*
X162333333Y-99955000D01*
X162366667Y-99988333D01*
X162400000Y-99955000D01*
X162366667Y-99921667D01*
X162366667Y-99988333D01*
X163599999Y-100621667D02*
X163199999Y-100621667D01*
X163399999Y-100621667D02*
X163399999Y-99921667D01*
X163333333Y-100021667D01*
X163266666Y-100088333D01*
X163199999Y-100121667D01*
X163900000Y-100555000D02*
X163933333Y-100588333D01*
X163900000Y-100621667D01*
X163866666Y-100588333D01*
X163900000Y-100555000D01*
X163900000Y-100621667D01*
X163900000Y-100188333D02*
X163933333Y-100221667D01*
X163900000Y-100255000D01*
X163866666Y-100221667D01*
X163900000Y-100188333D01*
X163900000Y-100255000D01*
X162066667Y-101751667D02*
X161833333Y-101418333D01*
X161666667Y-101751667D02*
X161666667Y-101051667D01*
X161933333Y-101051667D01*
X162000000Y-101085000D01*
X162033333Y-101118333D01*
X162066667Y-101185000D01*
X162066667Y-101285000D01*
X162033333Y-101351667D01*
X162000000Y-101385000D01*
X161933333Y-101418333D01*
X161666667Y-101418333D01*
X162633333Y-101718333D02*
X162566667Y-101751667D01*
X162433333Y-101751667D01*
X162366667Y-101718333D01*
X162333333Y-101651667D01*
X162333333Y-101385000D01*
X162366667Y-101318333D01*
X162433333Y-101285000D01*
X162566667Y-101285000D01*
X162633333Y-101318333D01*
X162666667Y-101385000D01*
X162666667Y-101451667D01*
X162333333Y-101518333D01*
X162966667Y-101751667D02*
X162966667Y-101285000D01*
X162966667Y-101351667D02*
X163000000Y-101318333D01*
X163066667Y-101285000D01*
X163166667Y-101285000D01*
X163233333Y-101318333D01*
X163266667Y-101385000D01*
X163266667Y-101751667D01*
X163266667Y-101385000D02*
X163300000Y-101318333D01*
X163366667Y-101285000D01*
X163466667Y-101285000D01*
X163533333Y-101318333D01*
X163566667Y-101385000D01*
X163566667Y-101751667D01*
X164000000Y-101751667D02*
X163933333Y-101718333D01*
X163900000Y-101685000D01*
X163866666Y-101618333D01*
X163866666Y-101418333D01*
X163900000Y-101351667D01*
X163933333Y-101318333D01*
X164000000Y-101285000D01*
X164100000Y-101285000D01*
X164166666Y-101318333D01*
X164200000Y-101351667D01*
X164233333Y-101418333D01*
X164233333Y-101618333D01*
X164200000Y-101685000D01*
X164166666Y-101718333D01*
X164100000Y-101751667D01*
X164000000Y-101751667D01*
X164466666Y-101285000D02*
X164633333Y-101751667D01*
X164799999Y-101285000D01*
X165333332Y-101718333D02*
X165266666Y-101751667D01*
X165133332Y-101751667D01*
X165066666Y-101718333D01*
X165033332Y-101651667D01*
X165033332Y-101385000D01*
X165066666Y-101318333D01*
X165133332Y-101285000D01*
X165266666Y-101285000D01*
X165333332Y-101318333D01*
X165366666Y-101385000D01*
X165366666Y-101451667D01*
X165033332Y-101518333D01*
X161566667Y-102415000D02*
X161833333Y-102415000D01*
X161666667Y-102181667D02*
X161666667Y-102781667D01*
X161700000Y-102848333D01*
X161766667Y-102881667D01*
X161833333Y-102881667D01*
X162066667Y-102881667D02*
X162066667Y-102181667D01*
X162366667Y-102881667D02*
X162366667Y-102515000D01*
X162333333Y-102448333D01*
X162266667Y-102415000D01*
X162166667Y-102415000D01*
X162100000Y-102448333D01*
X162066667Y-102481667D01*
X162700000Y-102881667D02*
X162700000Y-102415000D01*
X162700000Y-102181667D02*
X162666666Y-102215000D01*
X162700000Y-102248333D01*
X162733333Y-102215000D01*
X162700000Y-102181667D01*
X162700000Y-102248333D01*
X162999999Y-102848333D02*
X163066666Y-102881667D01*
X163199999Y-102881667D01*
X163266666Y-102848333D01*
X163299999Y-102781667D01*
X163299999Y-102748333D01*
X163266666Y-102681667D01*
X163199999Y-102648333D01*
X163099999Y-102648333D01*
X163033333Y-102615000D01*
X162999999Y-102548333D01*
X162999999Y-102515000D01*
X163033333Y-102448333D01*
X163099999Y-102415000D01*
X163199999Y-102415000D01*
X163266666Y-102448333D01*
X164099999Y-102848333D02*
X164166666Y-102881667D01*
X164299999Y-102881667D01*
X164366666Y-102848333D01*
X164399999Y-102781667D01*
X164399999Y-102748333D01*
X164366666Y-102681667D01*
X164299999Y-102648333D01*
X164199999Y-102648333D01*
X164133333Y-102615000D01*
X164099999Y-102548333D01*
X164099999Y-102515000D01*
X164133333Y-102448333D01*
X164199999Y-102415000D01*
X164299999Y-102415000D01*
X164366666Y-102448333D01*
X164700000Y-102881667D02*
X164700000Y-102415000D01*
X164700000Y-102181667D02*
X164666666Y-102215000D01*
X164700000Y-102248333D01*
X164733333Y-102215000D01*
X164700000Y-102181667D01*
X164700000Y-102248333D01*
X165333333Y-102881667D02*
X165333333Y-102181667D01*
X165333333Y-102848333D02*
X165266666Y-102881667D01*
X165133333Y-102881667D01*
X165066666Y-102848333D01*
X165033333Y-102815000D01*
X164999999Y-102748333D01*
X164999999Y-102548333D01*
X165033333Y-102481667D01*
X165066666Y-102448333D01*
X165133333Y-102415000D01*
X165266666Y-102415000D01*
X165333333Y-102448333D01*
X165933332Y-102848333D02*
X165866666Y-102881667D01*
X165733332Y-102881667D01*
X165666666Y-102848333D01*
X165633332Y-102781667D01*
X165633332Y-102515000D01*
X165666666Y-102448333D01*
X165733332Y-102415000D01*
X165866666Y-102415000D01*
X165933332Y-102448333D01*
X165966666Y-102515000D01*
X165966666Y-102581667D01*
X165633332Y-102648333D01*
X166266666Y-102815000D02*
X166299999Y-102848333D01*
X166266666Y-102881667D01*
X166233332Y-102848333D01*
X166266666Y-102815000D01*
X166266666Y-102881667D01*
X161666667Y-104011667D02*
X161666667Y-103311667D01*
X161933333Y-103311667D01*
X162000000Y-103345000D01*
X162033333Y-103378333D01*
X162066667Y-103445000D01*
X162066667Y-103545000D01*
X162033333Y-103611667D01*
X162000000Y-103645000D01*
X161933333Y-103678333D01*
X161666667Y-103678333D01*
X162466667Y-104011667D02*
X162400000Y-103978333D01*
X162366667Y-103945000D01*
X162333333Y-103878333D01*
X162333333Y-103678333D01*
X162366667Y-103611667D01*
X162400000Y-103578333D01*
X162466667Y-103545000D01*
X162566667Y-103545000D01*
X162633333Y-103578333D01*
X162666667Y-103611667D01*
X162700000Y-103678333D01*
X162700000Y-103878333D01*
X162666667Y-103945000D01*
X162633333Y-103978333D01*
X162566667Y-104011667D01*
X162466667Y-104011667D01*
X163000000Y-103545000D02*
X163000000Y-104245000D01*
X163000000Y-103578333D02*
X163066666Y-103545000D01*
X163200000Y-103545000D01*
X163266666Y-103578333D01*
X163300000Y-103611667D01*
X163333333Y-103678333D01*
X163333333Y-103878333D01*
X163300000Y-103945000D01*
X163266666Y-103978333D01*
X163200000Y-104011667D01*
X163066666Y-104011667D01*
X163000000Y-103978333D01*
X163933333Y-103545000D02*
X163933333Y-104011667D01*
X163633333Y-103545000D02*
X163633333Y-103911667D01*
X163666666Y-103978333D01*
X163733333Y-104011667D01*
X163833333Y-104011667D01*
X163899999Y-103978333D01*
X163933333Y-103945000D01*
X164366666Y-104011667D02*
X164299999Y-103978333D01*
X164266666Y-103911667D01*
X164266666Y-103311667D01*
X164933333Y-104011667D02*
X164933333Y-103645000D01*
X164899999Y-103578333D01*
X164833333Y-103545000D01*
X164699999Y-103545000D01*
X164633333Y-103578333D01*
X164933333Y-103978333D02*
X164866666Y-104011667D01*
X164699999Y-104011667D01*
X164633333Y-103978333D01*
X164599999Y-103911667D01*
X164599999Y-103845000D01*
X164633333Y-103778333D01*
X164699999Y-103745000D01*
X164866666Y-103745000D01*
X164933333Y-103711667D01*
X165166666Y-103545000D02*
X165433332Y-103545000D01*
X165266666Y-103311667D02*
X165266666Y-103911667D01*
X165299999Y-103978333D01*
X165366666Y-104011667D01*
X165433332Y-104011667D01*
X165933332Y-103978333D02*
X165866666Y-104011667D01*
X165733332Y-104011667D01*
X165666666Y-103978333D01*
X165633332Y-103911667D01*
X165633332Y-103645000D01*
X165666666Y-103578333D01*
X165733332Y-103545000D01*
X165866666Y-103545000D01*
X165933332Y-103578333D01*
X165966666Y-103645000D01*
X165966666Y-103711667D01*
X165633332Y-103778333D01*
X167199999Y-104011667D02*
X166966665Y-103678333D01*
X166799999Y-104011667D02*
X166799999Y-103311667D01*
X167066665Y-103311667D01*
X167133332Y-103345000D01*
X167166665Y-103378333D01*
X167199999Y-103445000D01*
X167199999Y-103545000D01*
X167166665Y-103611667D01*
X167133332Y-103645000D01*
X167066665Y-103678333D01*
X166799999Y-103678333D01*
X167833332Y-103311667D02*
X167499999Y-103311667D01*
X167466665Y-103645000D01*
X167499999Y-103611667D01*
X167566665Y-103578333D01*
X167733332Y-103578333D01*
X167799999Y-103611667D01*
X167833332Y-103645000D01*
X167866665Y-103711667D01*
X167866665Y-103878333D01*
X167833332Y-103945000D01*
X167799999Y-103978333D01*
X167733332Y-104011667D01*
X167566665Y-104011667D01*
X167499999Y-103978333D01*
X167466665Y-103945000D01*
X168166666Y-103945000D02*
X168199999Y-103978333D01*
X168166666Y-104011667D01*
X168133332Y-103978333D01*
X168166666Y-103945000D01*
X168166666Y-104011667D01*
X160120000Y-98580000D02*
X160120000Y-117630000D01*
X136500000Y-112818555D02*
X137242462Y-112076093D01*
X129181445Y-105500000D02*
X129923907Y-104757538D01*
X136500000Y-98181445D02*
X135757538Y-98923907D01*
X143818555Y-105500000D02*
X143076093Y-106242462D01*
X136500000Y-112818555D02*
X135757538Y-112076093D01*
X143818555Y-105500000D02*
X143076093Y-104757538D01*
X136500000Y-98181445D02*
X137242462Y-98923907D01*
X129181445Y-105500000D02*
X129923907Y-106242462D01*
X137242462Y-112076093D02*
X138144023Y-112977654D01*
X155825000Y-109000000D02*
X155825000Y-108000000D01*
X157175000Y-108000000D02*
X157175000Y-109000000D01*
X143150000Y-109400000D02*
X143850000Y-109400000D01*
X143850000Y-110600000D02*
X143150000Y-110600000D01*
X143650000Y-99900000D02*
X144350000Y-99900000D01*
X144350000Y-101100000D02*
X143650000Y-101100000D01*
X129350000Y-99100000D02*
X128650000Y-99100000D01*
X128650000Y-97900000D02*
X129350000Y-97900000D01*
X143650000Y-97900000D02*
X144350000Y-97900000D01*
X144350000Y-99100000D02*
X143650000Y-99100000D01*
X167801120Y-107170180D02*
X167801120Y-112372100D01*
X170198880Y-112372100D02*
X170198880Y-107170180D01*
X171298700Y-106171960D02*
X170198880Y-106171960D01*
X170798320Y-105572520D02*
X170798320Y-106771400D01*
X170198880Y-106674880D02*
X167801120Y-106674880D01*
X134100000Y-114150000D02*
X134100000Y-114850000D01*
X132900000Y-114850000D02*
X132900000Y-114150000D01*
X129350000Y-101100000D02*
X128650000Y-101100000D01*
X128650000Y-99900000D02*
X129350000Y-99900000D01*
X164801120Y-107170180D02*
X164801120Y-112372100D01*
X167198880Y-112372100D02*
X167198880Y-107170180D01*
X168298700Y-106171960D02*
X167198880Y-106171960D01*
X167798320Y-105572520D02*
X167798320Y-106771400D01*
X167198880Y-106674880D02*
X164801120Y-106674880D01*
X129850000Y-111600000D02*
X129150000Y-111600000D01*
X129150000Y-110400000D02*
X129850000Y-110400000D01*
X161801120Y-107170180D02*
X161801120Y-112372100D01*
X164198880Y-112372100D02*
X164198880Y-107170180D01*
X165298700Y-106171960D02*
X164198880Y-106171960D01*
X164798320Y-105572520D02*
X164798320Y-106771400D01*
X164198880Y-106674880D02*
X161801120Y-106674880D01*
X147301120Y-113899040D02*
X147301120Y-119100960D01*
X149698880Y-119100960D02*
X149698880Y-113899040D01*
X150798700Y-112900820D02*
X149698880Y-112900820D01*
X150298320Y-112301380D02*
X150298320Y-113500260D01*
X149698880Y-113403740D02*
X147301120Y-113403740D01*
X127400000Y-107850000D02*
X127400000Y-107150000D01*
X128600000Y-107150000D02*
X128600000Y-107850000D01*
X147100000Y-117650000D02*
X147100000Y-118350000D01*
X145900000Y-118350000D02*
X145900000Y-117650000D01*
X126100960Y-98801120D02*
X120899040Y-98801120D01*
X120899040Y-101198880D02*
X126100960Y-101198880D01*
X127099180Y-102298700D02*
X127099180Y-101198880D01*
X127698620Y-101798320D02*
X126499740Y-101798320D01*
X126596260Y-101198880D02*
X126596260Y-98801120D01*
X142801120Y-113899040D02*
X142801120Y-119100960D01*
X145198880Y-119100960D02*
X145198880Y-113899040D01*
X146298700Y-112900820D02*
X145198880Y-112900820D01*
X145798320Y-112301380D02*
X145798320Y-113500260D01*
X145198880Y-113403740D02*
X142801120Y-113403740D01*
X127400000Y-103850000D02*
X127400000Y-103150000D01*
X128600000Y-103150000D02*
X128600000Y-103850000D01*
X132900000Y-117850000D02*
X132900000Y-117150000D01*
X134100000Y-117150000D02*
X134100000Y-117850000D01*
X142600000Y-117650000D02*
X142600000Y-118350000D01*
X141400000Y-118350000D02*
X141400000Y-117650000D01*
X140100000Y-117150000D02*
X140100000Y-117850000D01*
X138900000Y-117850000D02*
X138900000Y-117150000D01*
X123100000Y-106450000D02*
X121200000Y-106450000D01*
X123100000Y-107550000D02*
X121200000Y-107550000D01*
X122200000Y-107000000D02*
X121750000Y-107000000D01*
X122250000Y-107250000D02*
X122250000Y-106750000D01*
X122250000Y-107000000D02*
X122000000Y-107250000D01*
X122000000Y-107250000D02*
X122000000Y-106750000D01*
X122000000Y-106750000D02*
X122250000Y-107000000D01*
X123100000Y-108450000D02*
X121200000Y-108450000D01*
X123100000Y-109550000D02*
X121200000Y-109550000D01*
X122200000Y-109000000D02*
X121750000Y-109000000D01*
X122250000Y-109250000D02*
X122250000Y-108750000D01*
X122250000Y-109000000D02*
X122000000Y-109250000D01*
X122000000Y-109250000D02*
X122000000Y-108750000D01*
X122000000Y-108750000D02*
X122250000Y-109000000D01*
X181430000Y-109730000D02*
X182980000Y-109730000D01*
X182980000Y-112830000D02*
X181430000Y-112830000D01*
X181430000Y-112830000D02*
X181430000Y-109730000D01*
X184250000Y-112550000D02*
X184250000Y-110010000D01*
X181430000Y-104650000D02*
X182980000Y-104650000D01*
X182980000Y-107750000D02*
X181430000Y-107750000D01*
X181430000Y-107750000D02*
X181430000Y-104650000D01*
X184250000Y-107470000D02*
X184250000Y-104930000D01*
X150649100Y-121094611D02*
X159349100Y-121094611D01*
X150649100Y-114689611D02*
X159349100Y-114689611D01*
X159349100Y-114689611D02*
X159349100Y-121094611D01*
X159349100Y-119864611D02*
X150649100Y-119864611D01*
X150649100Y-121094611D02*
X150649100Y-114689611D01*
X122500000Y-112175000D02*
X121500000Y-112175000D01*
X121500000Y-110825000D02*
X122500000Y-110825000D01*
X125500000Y-112175000D02*
X124500000Y-112175000D01*
X124500000Y-110825000D02*
X125500000Y-110825000D01*
X172175000Y-110500000D02*
X172175000Y-111500000D01*
X170825000Y-111500000D02*
X170825000Y-110500000D01*
X172825000Y-111500000D02*
X172825000Y-110500000D01*
X174175000Y-110500000D02*
X174175000Y-111500000D01*
X158325000Y-100000000D02*
X158325000Y-99000000D01*
X159675000Y-99000000D02*
X159675000Y-100000000D01*
X179750000Y-111955000D02*
X178750000Y-111955000D01*
X178750000Y-110605000D02*
X179750000Y-110605000D01*
X175555000Y-109740000D02*
X175555000Y-107740000D01*
X177705000Y-107740000D02*
X177705000Y-109740000D01*
X179750000Y-106875000D02*
X178750000Y-106875000D01*
X178750000Y-105525000D02*
X179750000Y-105525000D01*
X125500000Y-107675000D02*
X124500000Y-107675000D01*
X124500000Y-106325000D02*
X125500000Y-106325000D01*
X125500000Y-109675000D02*
X124500000Y-109675000D01*
X124500000Y-108325000D02*
X125500000Y-108325000D01*
X157825000Y-109000000D02*
X157825000Y-108000000D01*
X159175000Y-108000000D02*
X159175000Y-109000000D01*
X131175000Y-114325000D02*
X130925000Y-114325000D01*
X131175000Y-117675000D02*
X130925000Y-117675000D01*
X127825000Y-117675000D02*
X128075000Y-117675000D01*
X127825000Y-114325000D02*
X128075000Y-114325000D01*
X131175000Y-114325000D02*
X131175000Y-117675000D01*
X127825000Y-114325000D02*
X127825000Y-117675000D01*
X130925000Y-114325000D02*
X130925000Y-113075000D01*
X173660780Y-109100960D02*
X174270380Y-109100960D01*
X174270380Y-109100960D02*
X174280540Y-108669160D01*
X177900000Y-90960000D02*
X177900000Y-96040000D01*
X126820000Y-94770000D02*
X126820000Y-97310000D01*
X127100000Y-90960000D02*
X127100000Y-97310000D01*
X160120000Y-90960000D02*
X160120000Y-96040000D01*
X141325000Y-115500000D02*
X141325000Y-114500000D01*
X142675000Y-114500000D02*
X142675000Y-115500000D01*
X145825000Y-115500000D02*
X145825000Y-114500000D01*
X147175000Y-114500000D02*
X147175000Y-115500000D01*
X150200840Y-112650240D02*
X150249100Y-112650240D01*
X152999820Y-111949200D02*
X152999820Y-112650240D01*
X152999820Y-112650240D02*
X152750900Y-112650240D01*
X150200840Y-112650240D02*
X150000180Y-112650240D01*
X150000180Y-112650240D02*
X150000180Y-111949200D01*
X151200000Y-106800000D02*
G75*
G03X151200000Y-106800000I-100000J0D01*
G01*
X151750000Y-107050000D02*
X151250000Y-107050000D01*
X151750000Y-109950000D02*
X151750000Y-107050000D01*
X151250000Y-109950000D02*
X151750000Y-109950000D01*
X151250000Y-107050000D02*
X151250000Y-109950000D01*
X155175000Y-108000000D02*
X155175000Y-109000000D01*
X153825000Y-109000000D02*
X153825000Y-108000000D01*
X153825000Y-112000000D02*
X153825000Y-111000000D01*
X155175000Y-111000000D02*
X155175000Y-112000000D01*
X158000000Y-113500000D02*
X159250000Y-113500000D01*
X159250000Y-113500000D02*
X159250000Y-113000000D01*
X123100000Y-103450000D02*
X121200000Y-103450000D01*
X123100000Y-104550000D02*
X121200000Y-104550000D01*
X122200000Y-104000000D02*
X121750000Y-104000000D01*
X122250000Y-104250000D02*
X122250000Y-103750000D01*
X122250000Y-104000000D02*
X122000000Y-104250000D01*
X122000000Y-104250000D02*
X122000000Y-103750000D01*
X122000000Y-103750000D02*
X122250000Y-104000000D01*
X125500000Y-104675000D02*
X124500000Y-104675000D01*
X124500000Y-103325000D02*
X125500000Y-103325000D01*
X147850000Y-112600000D02*
X147150000Y-112600000D01*
X147150000Y-111400000D02*
X147850000Y-111400000D01*
X143850000Y-112600000D02*
X143150000Y-112600000D01*
X143150000Y-111400000D02*
X143850000Y-111400000D01*
X147900000Y-110200000D02*
G75*
G03X147900000Y-110200000I-100000J0D01*
G01*
X147250000Y-109950000D02*
X147750000Y-109950000D01*
X147250000Y-107050000D02*
X147250000Y-109950000D01*
X147750000Y-107050000D02*
X147250000Y-107050000D01*
X147750000Y-109950000D02*
X147750000Y-107050000D01*
X170425000Y-97925000D02*
X170425000Y-98070000D01*
X174575000Y-97925000D02*
X174575000Y-98070000D01*
X174575000Y-103075000D02*
X174575000Y-102930000D01*
X170425000Y-103075000D02*
X170425000Y-102930000D01*
X170425000Y-97925000D02*
X174575000Y-97925000D01*
X170425000Y-103075000D02*
X174575000Y-103075000D01*
X170425000Y-98070000D02*
X169025000Y-98070000D01*
X184250000Y-99850000D02*
X184250000Y-102390000D01*
X184530000Y-97030000D02*
X184530000Y-98580000D01*
X184250000Y-99850000D02*
X181710000Y-99850000D01*
X181430000Y-98580000D02*
X181430000Y-97030000D01*
X181430000Y-97030000D02*
X184530000Y-97030000D01*
X181710000Y-99850000D02*
X181710000Y-102390000D01*
X181710000Y-102390000D02*
X184250000Y-102390000D01*
X178000000Y-97825000D02*
X179000000Y-97825000D01*
X179000000Y-99175000D02*
X178000000Y-99175000D01*
X178000000Y-101825000D02*
X179000000Y-101825000D01*
X179000000Y-103175000D02*
X178000000Y-103175000D01*
X178000000Y-99825000D02*
X179000000Y-99825000D01*
X179000000Y-101175000D02*
X178000000Y-101175000D01*
X168100000Y-98650000D02*
X168100000Y-99350000D01*
X166900000Y-99350000D02*
X166900000Y-98650000D01*
X137393934Y-112601819D02*
X136993241Y-113002513D01*
X136969670Y-113073223D01*
X136969670Y-113120363D01*
X136993240Y-113191075D01*
X137087521Y-113285355D01*
X137158232Y-113308925D01*
X137205372Y-113308925D01*
X137276083Y-113285355D01*
X137676777Y-112884662D01*
X137865338Y-113073223D02*
X138171751Y-113379636D01*
X137818198Y-113403206D01*
X137888909Y-113473917D01*
X137912479Y-113544628D01*
X137912479Y-113591768D01*
X137888908Y-113662479D01*
X137771057Y-113780329D01*
X137700347Y-113803900D01*
X137653207Y-113803900D01*
X137582495Y-113780330D01*
X137441074Y-113638909D01*
X137417504Y-113568197D01*
X137417504Y-113521057D01*
X156816667Y-106700000D02*
X156483333Y-106933334D01*
X156816667Y-107100000D02*
X156116667Y-107100000D01*
X156116667Y-106833334D01*
X156150000Y-106766667D01*
X156183333Y-106733334D01*
X156250000Y-106700000D01*
X156350000Y-106700000D01*
X156416667Y-106733334D01*
X156450000Y-106766667D01*
X156483333Y-106833334D01*
X156483333Y-107100000D01*
X156816667Y-106033334D02*
X156816667Y-106433334D01*
X156816667Y-106233334D02*
X156116667Y-106233334D01*
X156216667Y-106300000D01*
X156283333Y-106366667D01*
X156316667Y-106433334D01*
X156183333Y-105766667D02*
X156150000Y-105733333D01*
X156116667Y-105666667D01*
X156116667Y-105500000D01*
X156150000Y-105433333D01*
X156183333Y-105400000D01*
X156250000Y-105366667D01*
X156316667Y-105366667D01*
X156416667Y-105400000D01*
X156816667Y-105800000D01*
X156816667Y-105366667D01*
X141133334Y-111250000D02*
X141100000Y-111283333D01*
X141000000Y-111316667D01*
X140933334Y-111316667D01*
X140833334Y-111283333D01*
X140766667Y-111216667D01*
X140733334Y-111150000D01*
X140700000Y-111016667D01*
X140700000Y-110916667D01*
X140733334Y-110783333D01*
X140766667Y-110716667D01*
X140833334Y-110650000D01*
X140933334Y-110616667D01*
X141000000Y-110616667D01*
X141100000Y-110650000D01*
X141133334Y-110683333D01*
X141800000Y-111316667D02*
X141400000Y-111316667D01*
X141600000Y-111316667D02*
X141600000Y-110616667D01*
X141533334Y-110716667D01*
X141466667Y-110783333D01*
X141400000Y-110816667D01*
X146133334Y-100750000D02*
X146100000Y-100783333D01*
X146000000Y-100816667D01*
X145933334Y-100816667D01*
X145833334Y-100783333D01*
X145766667Y-100716667D01*
X145733334Y-100650000D01*
X145700000Y-100516667D01*
X145700000Y-100416667D01*
X145733334Y-100283333D01*
X145766667Y-100216667D01*
X145833334Y-100150000D01*
X145933334Y-100116667D01*
X146000000Y-100116667D01*
X146100000Y-100150000D01*
X146133334Y-100183333D01*
X146400000Y-100183333D02*
X146433334Y-100150000D01*
X146500000Y-100116667D01*
X146666667Y-100116667D01*
X146733334Y-100150000D01*
X146766667Y-100183333D01*
X146800000Y-100250000D01*
X146800000Y-100316667D01*
X146766667Y-100416667D01*
X146366667Y-100816667D01*
X146800000Y-100816667D01*
X131133334Y-98750000D02*
X131100000Y-98783333D01*
X131000000Y-98816667D01*
X130933334Y-98816667D01*
X130833334Y-98783333D01*
X130766667Y-98716667D01*
X130733334Y-98650000D01*
X130700000Y-98516667D01*
X130700000Y-98416667D01*
X130733334Y-98283333D01*
X130766667Y-98216667D01*
X130833334Y-98150000D01*
X130933334Y-98116667D01*
X131000000Y-98116667D01*
X131100000Y-98150000D01*
X131133334Y-98183333D01*
X131366667Y-98116667D02*
X131800000Y-98116667D01*
X131566667Y-98383333D01*
X131666667Y-98383333D01*
X131733334Y-98416667D01*
X131766667Y-98450000D01*
X131800000Y-98516667D01*
X131800000Y-98683333D01*
X131766667Y-98750000D01*
X131733334Y-98783333D01*
X131666667Y-98816667D01*
X131466667Y-98816667D01*
X131400000Y-98783333D01*
X131366667Y-98750000D01*
X146133334Y-98750000D02*
X146100000Y-98783333D01*
X146000000Y-98816667D01*
X145933334Y-98816667D01*
X145833334Y-98783333D01*
X145766667Y-98716667D01*
X145733334Y-98650000D01*
X145700000Y-98516667D01*
X145700000Y-98416667D01*
X145733334Y-98283333D01*
X145766667Y-98216667D01*
X145833334Y-98150000D01*
X145933334Y-98116667D01*
X146000000Y-98116667D01*
X146100000Y-98150000D01*
X146133334Y-98183333D01*
X146733334Y-98350000D02*
X146733334Y-98816667D01*
X146566667Y-98083333D02*
X146400000Y-98583333D01*
X146833334Y-98583333D01*
X168883334Y-106250000D02*
X168850000Y-106283333D01*
X168750000Y-106316667D01*
X168683334Y-106316667D01*
X168583334Y-106283333D01*
X168516667Y-106216667D01*
X168483334Y-106150000D01*
X168450000Y-106016667D01*
X168450000Y-105916667D01*
X168483334Y-105783333D01*
X168516667Y-105716667D01*
X168583334Y-105650000D01*
X168683334Y-105616667D01*
X168750000Y-105616667D01*
X168850000Y-105650000D01*
X168883334Y-105683333D01*
X169516667Y-105616667D02*
X169183334Y-105616667D01*
X169150000Y-105950000D01*
X169183334Y-105916667D01*
X169250000Y-105883333D01*
X169416667Y-105883333D01*
X169483334Y-105916667D01*
X169516667Y-105950000D01*
X169550000Y-106016667D01*
X169550000Y-106183333D01*
X169516667Y-106250000D01*
X169483334Y-106283333D01*
X169416667Y-106316667D01*
X169250000Y-106316667D01*
X169183334Y-106283333D01*
X169150000Y-106250000D01*
X170872289Y-106552912D02*
X170872289Y-105791007D01*
X171253241Y-106171959D02*
X170491336Y-106171959D01*
X132500000Y-114616666D02*
X132533333Y-114650000D01*
X132566667Y-114750000D01*
X132566667Y-114816666D01*
X132533333Y-114916666D01*
X132466667Y-114983333D01*
X132400000Y-115016666D01*
X132266667Y-115050000D01*
X132166667Y-115050000D01*
X132033333Y-115016666D01*
X131966667Y-114983333D01*
X131900000Y-114916666D01*
X131866667Y-114816666D01*
X131866667Y-114750000D01*
X131900000Y-114650000D01*
X131933333Y-114616666D01*
X131866667Y-114016666D02*
X131866667Y-114150000D01*
X131900000Y-114216666D01*
X131933333Y-114250000D01*
X132033333Y-114316666D01*
X132166667Y-114350000D01*
X132433333Y-114350000D01*
X132500000Y-114316666D01*
X132533333Y-114283333D01*
X132566667Y-114216666D01*
X132566667Y-114083333D01*
X132533333Y-114016666D01*
X132500000Y-113983333D01*
X132433333Y-113950000D01*
X132266667Y-113950000D01*
X132200000Y-113983333D01*
X132166667Y-114016666D01*
X132133333Y-114083333D01*
X132133333Y-114216666D01*
X132166667Y-114283333D01*
X132200000Y-114316666D01*
X132266667Y-114350000D01*
X131133334Y-100500000D02*
X131100000Y-100533333D01*
X131000000Y-100566667D01*
X130933334Y-100566667D01*
X130833334Y-100533333D01*
X130766667Y-100466667D01*
X130733334Y-100400000D01*
X130700000Y-100266667D01*
X130700000Y-100166667D01*
X130733334Y-100033333D01*
X130766667Y-99966667D01*
X130833334Y-99900000D01*
X130933334Y-99866667D01*
X131000000Y-99866667D01*
X131100000Y-99900000D01*
X131133334Y-99933333D01*
X131366667Y-99866667D02*
X131833334Y-99866667D01*
X131533334Y-100566667D01*
X165883334Y-106250000D02*
X165850000Y-106283333D01*
X165750000Y-106316667D01*
X165683334Y-106316667D01*
X165583334Y-106283333D01*
X165516667Y-106216667D01*
X165483334Y-106150000D01*
X165450000Y-106016667D01*
X165450000Y-105916667D01*
X165483334Y-105783333D01*
X165516667Y-105716667D01*
X165583334Y-105650000D01*
X165683334Y-105616667D01*
X165750000Y-105616667D01*
X165850000Y-105650000D01*
X165883334Y-105683333D01*
X166283334Y-105916667D02*
X166216667Y-105883333D01*
X166183334Y-105850000D01*
X166150000Y-105783333D01*
X166150000Y-105750000D01*
X166183334Y-105683333D01*
X166216667Y-105650000D01*
X166283334Y-105616667D01*
X166416667Y-105616667D01*
X166483334Y-105650000D01*
X166516667Y-105683333D01*
X166550000Y-105750000D01*
X166550000Y-105783333D01*
X166516667Y-105850000D01*
X166483334Y-105883333D01*
X166416667Y-105916667D01*
X166283334Y-105916667D01*
X166216667Y-105950000D01*
X166183334Y-105983333D01*
X166150000Y-106050000D01*
X166150000Y-106183333D01*
X166183334Y-106250000D01*
X166216667Y-106283333D01*
X166283334Y-106316667D01*
X166416667Y-106316667D01*
X166483334Y-106283333D01*
X166516667Y-106250000D01*
X166550000Y-106183333D01*
X166550000Y-106050000D01*
X166516667Y-105983333D01*
X166483334Y-105950000D01*
X166416667Y-105916667D01*
X167872289Y-106552912D02*
X167872289Y-105791007D01*
X168253241Y-106171959D02*
X167491336Y-106171959D01*
X129383334Y-112500000D02*
X129350000Y-112533333D01*
X129250000Y-112566667D01*
X129183334Y-112566667D01*
X129083334Y-112533333D01*
X129016667Y-112466667D01*
X128983334Y-112400000D01*
X128950000Y-112266667D01*
X128950000Y-112166667D01*
X128983334Y-112033333D01*
X129016667Y-111966667D01*
X129083334Y-111900000D01*
X129183334Y-111866667D01*
X129250000Y-111866667D01*
X129350000Y-111900000D01*
X129383334Y-111933333D01*
X129716667Y-112566667D02*
X129850000Y-112566667D01*
X129916667Y-112533333D01*
X129950000Y-112500000D01*
X130016667Y-112400000D01*
X130050000Y-112266667D01*
X130050000Y-112000000D01*
X130016667Y-111933333D01*
X129983334Y-111900000D01*
X129916667Y-111866667D01*
X129783334Y-111866667D01*
X129716667Y-111900000D01*
X129683334Y-111933333D01*
X129650000Y-112000000D01*
X129650000Y-112166667D01*
X129683334Y-112233333D01*
X129716667Y-112266667D01*
X129783334Y-112300000D01*
X129916667Y-112300000D01*
X129983334Y-112266667D01*
X130016667Y-112233333D01*
X130050000Y-112166667D01*
X162550000Y-106250000D02*
X162516666Y-106283333D01*
X162416666Y-106316667D01*
X162350000Y-106316667D01*
X162250000Y-106283333D01*
X162183333Y-106216667D01*
X162150000Y-106150000D01*
X162116666Y-106016667D01*
X162116666Y-105916667D01*
X162150000Y-105783333D01*
X162183333Y-105716667D01*
X162250000Y-105650000D01*
X162350000Y-105616667D01*
X162416666Y-105616667D01*
X162516666Y-105650000D01*
X162550000Y-105683333D01*
X163216666Y-106316667D02*
X162816666Y-106316667D01*
X163016666Y-106316667D02*
X163016666Y-105616667D01*
X162950000Y-105716667D01*
X162883333Y-105783333D01*
X162816666Y-105816667D01*
X163650000Y-105616667D02*
X163716667Y-105616667D01*
X163783333Y-105650000D01*
X163816667Y-105683333D01*
X163850000Y-105750000D01*
X163883333Y-105883333D01*
X163883333Y-106050000D01*
X163850000Y-106183333D01*
X163816667Y-106250000D01*
X163783333Y-106283333D01*
X163716667Y-106316667D01*
X163650000Y-106316667D01*
X163583333Y-106283333D01*
X163550000Y-106250000D01*
X163516667Y-106183333D01*
X163483333Y-106050000D01*
X163483333Y-105883333D01*
X163516667Y-105750000D01*
X163550000Y-105683333D01*
X163583333Y-105650000D01*
X163650000Y-105616667D01*
X164872289Y-106552912D02*
X164872289Y-105791007D01*
X165253241Y-106171959D02*
X164491336Y-106171959D01*
X150500000Y-116950000D02*
X150533333Y-116983334D01*
X150566667Y-117083334D01*
X150566667Y-117150000D01*
X150533333Y-117250000D01*
X150466667Y-117316667D01*
X150400000Y-117350000D01*
X150266667Y-117383334D01*
X150166667Y-117383334D01*
X150033333Y-117350000D01*
X149966667Y-117316667D01*
X149900000Y-117250000D01*
X149866667Y-117150000D01*
X149866667Y-117083334D01*
X149900000Y-116983334D01*
X149933333Y-116950000D01*
X150566667Y-116283334D02*
X150566667Y-116683334D01*
X150566667Y-116483334D02*
X149866667Y-116483334D01*
X149966667Y-116550000D01*
X150033333Y-116616667D01*
X150066667Y-116683334D01*
X150566667Y-115616667D02*
X150566667Y-116016667D01*
X150566667Y-115816667D02*
X149866667Y-115816667D01*
X149966667Y-115883333D01*
X150033333Y-115950000D01*
X150066667Y-116016667D01*
X150372289Y-113281772D02*
X150372289Y-112519867D01*
X150753241Y-112900819D02*
X149991336Y-112900819D01*
X127550000Y-109750000D02*
X127516666Y-109783333D01*
X127416666Y-109816667D01*
X127350000Y-109816667D01*
X127250000Y-109783333D01*
X127183333Y-109716667D01*
X127150000Y-109650000D01*
X127116666Y-109516667D01*
X127116666Y-109416667D01*
X127150000Y-109283333D01*
X127183333Y-109216667D01*
X127250000Y-109150000D01*
X127350000Y-109116667D01*
X127416666Y-109116667D01*
X127516666Y-109150000D01*
X127550000Y-109183333D01*
X128216666Y-109816667D02*
X127816666Y-109816667D01*
X128016666Y-109816667D02*
X128016666Y-109116667D01*
X127950000Y-109216667D01*
X127883333Y-109283333D01*
X127816666Y-109316667D01*
X128483333Y-109183333D02*
X128516667Y-109150000D01*
X128583333Y-109116667D01*
X128750000Y-109116667D01*
X128816667Y-109150000D01*
X128850000Y-109183333D01*
X128883333Y-109250000D01*
X128883333Y-109316667D01*
X128850000Y-109416667D01*
X128450000Y-109816667D01*
X128883333Y-109816667D01*
X150500000Y-119200000D02*
X150533333Y-119233334D01*
X150566667Y-119333334D01*
X150566667Y-119400000D01*
X150533333Y-119500000D01*
X150466667Y-119566667D01*
X150400000Y-119600000D01*
X150266667Y-119633334D01*
X150166667Y-119633334D01*
X150033333Y-119600000D01*
X149966667Y-119566667D01*
X149900000Y-119500000D01*
X149866667Y-119400000D01*
X149866667Y-119333334D01*
X149900000Y-119233334D01*
X149933333Y-119200000D01*
X150566667Y-118533334D02*
X150566667Y-118933334D01*
X150566667Y-118733334D02*
X149866667Y-118733334D01*
X149966667Y-118800000D01*
X150033333Y-118866667D01*
X150066667Y-118933334D01*
X149866667Y-118300000D02*
X149866667Y-117866667D01*
X150133333Y-118100000D01*
X150133333Y-118000000D01*
X150166667Y-117933333D01*
X150200000Y-117900000D01*
X150266667Y-117866667D01*
X150433333Y-117866667D01*
X150500000Y-117900000D01*
X150533333Y-117933333D01*
X150566667Y-118000000D01*
X150566667Y-118200000D01*
X150533333Y-118266667D01*
X150500000Y-118300000D01*
X123250660Y-98500000D02*
X123217326Y-98533333D01*
X123117326Y-98566667D01*
X123050660Y-98566667D01*
X122950660Y-98533333D01*
X122883993Y-98466667D01*
X122850660Y-98400000D01*
X122817326Y-98266667D01*
X122817326Y-98166667D01*
X122850660Y-98033333D01*
X122883993Y-97966667D01*
X122950660Y-97900000D01*
X123050660Y-97866667D01*
X123117326Y-97866667D01*
X123217326Y-97900000D01*
X123250660Y-97933333D01*
X123917326Y-98566667D02*
X123517326Y-98566667D01*
X123717326Y-98566667D02*
X123717326Y-97866667D01*
X123650660Y-97966667D01*
X123583993Y-98033333D01*
X123517326Y-98066667D01*
X124517327Y-98100000D02*
X124517327Y-98566667D01*
X124350660Y-97833333D02*
X124183993Y-98333333D01*
X124617327Y-98333333D01*
X126718228Y-101872289D02*
X127480133Y-101872289D01*
X127099181Y-102253241D02*
X127099181Y-101491336D01*
X141000000Y-116700000D02*
X141033333Y-116733334D01*
X141066667Y-116833334D01*
X141066667Y-116900000D01*
X141033333Y-117000000D01*
X140966667Y-117066667D01*
X140900000Y-117100000D01*
X140766667Y-117133334D01*
X140666667Y-117133334D01*
X140533333Y-117100000D01*
X140466667Y-117066667D01*
X140400000Y-117000000D01*
X140366667Y-116900000D01*
X140366667Y-116833334D01*
X140400000Y-116733334D01*
X140433333Y-116700000D01*
X141066667Y-116033334D02*
X141066667Y-116433334D01*
X141066667Y-116233334D02*
X140366667Y-116233334D01*
X140466667Y-116300000D01*
X140533333Y-116366667D01*
X140566667Y-116433334D01*
X140366667Y-115400000D02*
X140366667Y-115733333D01*
X140700000Y-115766667D01*
X140666667Y-115733333D01*
X140633333Y-115666667D01*
X140633333Y-115500000D01*
X140666667Y-115433333D01*
X140700000Y-115400000D01*
X140766667Y-115366667D01*
X140933333Y-115366667D01*
X141000000Y-115400000D01*
X141033333Y-115433333D01*
X141066667Y-115500000D01*
X141066667Y-115666667D01*
X141033333Y-115733333D01*
X141000000Y-115766667D01*
X145872289Y-113281772D02*
X145872289Y-112519867D01*
X146253241Y-112900819D02*
X145491336Y-112900819D01*
X127550000Y-105750000D02*
X127516666Y-105783333D01*
X127416666Y-105816667D01*
X127350000Y-105816667D01*
X127250000Y-105783333D01*
X127183333Y-105716667D01*
X127150000Y-105650000D01*
X127116666Y-105516667D01*
X127116666Y-105416667D01*
X127150000Y-105283333D01*
X127183333Y-105216667D01*
X127250000Y-105150000D01*
X127350000Y-105116667D01*
X127416666Y-105116667D01*
X127516666Y-105150000D01*
X127550000Y-105183333D01*
X128216666Y-105816667D02*
X127816666Y-105816667D01*
X128016666Y-105816667D02*
X128016666Y-105116667D01*
X127950000Y-105216667D01*
X127883333Y-105283333D01*
X127816666Y-105316667D01*
X128816667Y-105116667D02*
X128683333Y-105116667D01*
X128616667Y-105150000D01*
X128583333Y-105183333D01*
X128516667Y-105283333D01*
X128483333Y-105416667D01*
X128483333Y-105683333D01*
X128516667Y-105750000D01*
X128550000Y-105783333D01*
X128616667Y-105816667D01*
X128750000Y-105816667D01*
X128816667Y-105783333D01*
X128850000Y-105750000D01*
X128883333Y-105683333D01*
X128883333Y-105516667D01*
X128850000Y-105450000D01*
X128816667Y-105416667D01*
X128750000Y-105383333D01*
X128616667Y-105383333D01*
X128550000Y-105416667D01*
X128516667Y-105450000D01*
X128483333Y-105516667D01*
X132500000Y-117950000D02*
X132533333Y-117983334D01*
X132566667Y-118083334D01*
X132566667Y-118150000D01*
X132533333Y-118250000D01*
X132466667Y-118316667D01*
X132400000Y-118350000D01*
X132266667Y-118383334D01*
X132166667Y-118383334D01*
X132033333Y-118350000D01*
X131966667Y-118316667D01*
X131900000Y-118250000D01*
X131866667Y-118150000D01*
X131866667Y-118083334D01*
X131900000Y-117983334D01*
X131933333Y-117950000D01*
X132566667Y-117283334D02*
X132566667Y-117683334D01*
X132566667Y-117483334D02*
X131866667Y-117483334D01*
X131966667Y-117550000D01*
X132033333Y-117616667D01*
X132066667Y-117683334D01*
X131866667Y-117050000D02*
X131866667Y-116583333D01*
X132566667Y-116883333D01*
X141000000Y-118950000D02*
X141033333Y-118983334D01*
X141066667Y-119083334D01*
X141066667Y-119150000D01*
X141033333Y-119250000D01*
X140966667Y-119316667D01*
X140900000Y-119350000D01*
X140766667Y-119383334D01*
X140666667Y-119383334D01*
X140533333Y-119350000D01*
X140466667Y-119316667D01*
X140400000Y-119250000D01*
X140366667Y-119150000D01*
X140366667Y-119083334D01*
X140400000Y-118983334D01*
X140433333Y-118950000D01*
X141066667Y-118283334D02*
X141066667Y-118683334D01*
X141066667Y-118483334D02*
X140366667Y-118483334D01*
X140466667Y-118550000D01*
X140533333Y-118616667D01*
X140566667Y-118683334D01*
X140666667Y-117883333D02*
X140633333Y-117950000D01*
X140600000Y-117983333D01*
X140533333Y-118016667D01*
X140500000Y-118016667D01*
X140433333Y-117983333D01*
X140400000Y-117950000D01*
X140366667Y-117883333D01*
X140366667Y-117750000D01*
X140400000Y-117683333D01*
X140433333Y-117650000D01*
X140500000Y-117616667D01*
X140533333Y-117616667D01*
X140600000Y-117650000D01*
X140633333Y-117683333D01*
X140666667Y-117750000D01*
X140666667Y-117883333D01*
X140700000Y-117950000D01*
X140733333Y-117983333D01*
X140800000Y-118016667D01*
X140933333Y-118016667D01*
X141000000Y-117983333D01*
X141033333Y-117950000D01*
X141066667Y-117883333D01*
X141066667Y-117750000D01*
X141033333Y-117683333D01*
X141000000Y-117650000D01*
X140933333Y-117616667D01*
X140800000Y-117616667D01*
X140733333Y-117650000D01*
X140700000Y-117683333D01*
X140666667Y-117750000D01*
X139750000Y-115450000D02*
X139783333Y-115483334D01*
X139816667Y-115583334D01*
X139816667Y-115650000D01*
X139783333Y-115750000D01*
X139716667Y-115816667D01*
X139650000Y-115850000D01*
X139516667Y-115883334D01*
X139416667Y-115883334D01*
X139283333Y-115850000D01*
X139216667Y-115816667D01*
X139150000Y-115750000D01*
X139116667Y-115650000D01*
X139116667Y-115583334D01*
X139150000Y-115483334D01*
X139183333Y-115450000D01*
X139816667Y-114783334D02*
X139816667Y-115183334D01*
X139816667Y-114983334D02*
X139116667Y-114983334D01*
X139216667Y-115050000D01*
X139283333Y-115116667D01*
X139316667Y-115183334D01*
X139816667Y-114450000D02*
X139816667Y-114316667D01*
X139783333Y-114250000D01*
X139750000Y-114216667D01*
X139650000Y-114150000D01*
X139516667Y-114116667D01*
X139250000Y-114116667D01*
X139183333Y-114150000D01*
X139150000Y-114183333D01*
X139116667Y-114250000D01*
X139116667Y-114383333D01*
X139150000Y-114450000D01*
X139183333Y-114483333D01*
X139250000Y-114516667D01*
X139416667Y-114516667D01*
X139483333Y-114483333D01*
X139516667Y-114450000D01*
X139550000Y-114383333D01*
X139550000Y-114250000D01*
X139516667Y-114183333D01*
X139483333Y-114150000D01*
X139416667Y-114116667D01*
X122483334Y-106066667D02*
X122483334Y-105366667D01*
X122650000Y-105366667D01*
X122750000Y-105400000D01*
X122816667Y-105466667D01*
X122850000Y-105533333D01*
X122883334Y-105666667D01*
X122883334Y-105766667D01*
X122850000Y-105900000D01*
X122816667Y-105966667D01*
X122750000Y-106033333D01*
X122650000Y-106066667D01*
X122483334Y-106066667D01*
X123550000Y-106066667D02*
X123150000Y-106066667D01*
X123350000Y-106066667D02*
X123350000Y-105366667D01*
X123283334Y-105466667D01*
X123216667Y-105533333D01*
X123150000Y-105566667D01*
X122483334Y-110566667D02*
X122483334Y-109866667D01*
X122650000Y-109866667D01*
X122750000Y-109900000D01*
X122816667Y-109966667D01*
X122850000Y-110033333D01*
X122883334Y-110166667D01*
X122883334Y-110266667D01*
X122850000Y-110400000D01*
X122816667Y-110466667D01*
X122750000Y-110533333D01*
X122650000Y-110566667D01*
X122483334Y-110566667D01*
X123150000Y-109933333D02*
X123183334Y-109900000D01*
X123250000Y-109866667D01*
X123416667Y-109866667D01*
X123483334Y-109900000D01*
X123516667Y-109933333D01*
X123550000Y-110000000D01*
X123550000Y-110066667D01*
X123516667Y-110166667D01*
X123116667Y-110566667D01*
X123550000Y-110566667D01*
X181483334Y-109316667D02*
X181483334Y-108616667D01*
X181750000Y-108616667D01*
X181816667Y-108650000D01*
X181850000Y-108683333D01*
X181883334Y-108750000D01*
X181883334Y-108850000D01*
X181850000Y-108916667D01*
X181816667Y-108950000D01*
X181750000Y-108983333D01*
X181483334Y-108983333D01*
X182550000Y-109316667D02*
X182150000Y-109316667D01*
X182350000Y-109316667D02*
X182350000Y-108616667D01*
X182283334Y-108716667D01*
X182216667Y-108783333D01*
X182150000Y-108816667D01*
X181483334Y-104316667D02*
X181483334Y-103616667D01*
X181750000Y-103616667D01*
X181816667Y-103650000D01*
X181850000Y-103683333D01*
X181883334Y-103750000D01*
X181883334Y-103850000D01*
X181850000Y-103916667D01*
X181816667Y-103950000D01*
X181750000Y-103983333D01*
X181483334Y-103983333D01*
X182150000Y-103683333D02*
X182183334Y-103650000D01*
X182250000Y-103616667D01*
X182416667Y-103616667D01*
X182483334Y-103650000D01*
X182516667Y-103683333D01*
X182550000Y-103750000D01*
X182550000Y-103816667D01*
X182516667Y-103916667D01*
X182116667Y-104316667D01*
X182550000Y-104316667D01*
X154483334Y-118816667D02*
X154483334Y-118116667D01*
X154750000Y-118116667D01*
X154816667Y-118150000D01*
X154850000Y-118183333D01*
X154883334Y-118250000D01*
X154883334Y-118350000D01*
X154850000Y-118416667D01*
X154816667Y-118450000D01*
X154750000Y-118483333D01*
X154483334Y-118483333D01*
X155116667Y-118116667D02*
X155550000Y-118116667D01*
X155316667Y-118383333D01*
X155416667Y-118383333D01*
X155483334Y-118416667D01*
X155516667Y-118450000D01*
X155550000Y-118516667D01*
X155550000Y-118683333D01*
X155516667Y-118750000D01*
X155483334Y-118783333D01*
X155416667Y-118816667D01*
X155216667Y-118816667D01*
X155150000Y-118783333D01*
X155116667Y-118750000D01*
X121883334Y-113066667D02*
X121650000Y-112733333D01*
X121483334Y-113066667D02*
X121483334Y-112366667D01*
X121750000Y-112366667D01*
X121816667Y-112400000D01*
X121850000Y-112433333D01*
X121883334Y-112500000D01*
X121883334Y-112600000D01*
X121850000Y-112666667D01*
X121816667Y-112700000D01*
X121750000Y-112733333D01*
X121483334Y-112733333D01*
X122550000Y-113066667D02*
X122150000Y-113066667D01*
X122350000Y-113066667D02*
X122350000Y-112366667D01*
X122283334Y-112466667D01*
X122216667Y-112533333D01*
X122150000Y-112566667D01*
X124883334Y-113066667D02*
X124650000Y-112733333D01*
X124483334Y-113066667D02*
X124483334Y-112366667D01*
X124750000Y-112366667D01*
X124816667Y-112400000D01*
X124850000Y-112433333D01*
X124883334Y-112500000D01*
X124883334Y-112600000D01*
X124850000Y-112666667D01*
X124816667Y-112700000D01*
X124750000Y-112733333D01*
X124483334Y-112733333D01*
X125150000Y-112433333D02*
X125183334Y-112400000D01*
X125250000Y-112366667D01*
X125416667Y-112366667D01*
X125483334Y-112400000D01*
X125516667Y-112433333D01*
X125550000Y-112500000D01*
X125550000Y-112566667D01*
X125516667Y-112666667D01*
X125116667Y-113066667D01*
X125550000Y-113066667D01*
X171383334Y-113066667D02*
X171150000Y-112733333D01*
X170983334Y-113066667D02*
X170983334Y-112366667D01*
X171250000Y-112366667D01*
X171316667Y-112400000D01*
X171350000Y-112433333D01*
X171383334Y-112500000D01*
X171383334Y-112600000D01*
X171350000Y-112666667D01*
X171316667Y-112700000D01*
X171250000Y-112733333D01*
X170983334Y-112733333D01*
X171616667Y-112366667D02*
X172050000Y-112366667D01*
X171816667Y-112633333D01*
X171916667Y-112633333D01*
X171983334Y-112666667D01*
X172016667Y-112700000D01*
X172050000Y-112766667D01*
X172050000Y-112933333D01*
X172016667Y-113000000D01*
X171983334Y-113033333D01*
X171916667Y-113066667D01*
X171716667Y-113066667D01*
X171650000Y-113033333D01*
X171616667Y-113000000D01*
X173383334Y-113066667D02*
X173150000Y-112733333D01*
X172983334Y-113066667D02*
X172983334Y-112366667D01*
X173250000Y-112366667D01*
X173316667Y-112400000D01*
X173350000Y-112433333D01*
X173383334Y-112500000D01*
X173383334Y-112600000D01*
X173350000Y-112666667D01*
X173316667Y-112700000D01*
X173250000Y-112733333D01*
X172983334Y-112733333D01*
X173983334Y-112600000D02*
X173983334Y-113066667D01*
X173816667Y-112333333D02*
X173650000Y-112833333D01*
X174083334Y-112833333D01*
X157816667Y-99616666D02*
X157483333Y-99850000D01*
X157816667Y-100016666D02*
X157116667Y-100016666D01*
X157116667Y-99750000D01*
X157150000Y-99683333D01*
X157183333Y-99650000D01*
X157250000Y-99616666D01*
X157350000Y-99616666D01*
X157416667Y-99650000D01*
X157450000Y-99683333D01*
X157483333Y-99750000D01*
X157483333Y-100016666D01*
X157116667Y-98983333D02*
X157116667Y-99316666D01*
X157450000Y-99350000D01*
X157416667Y-99316666D01*
X157383333Y-99250000D01*
X157383333Y-99083333D01*
X157416667Y-99016666D01*
X157450000Y-98983333D01*
X157516667Y-98950000D01*
X157683333Y-98950000D01*
X157750000Y-98983333D01*
X157783333Y-99016666D01*
X157816667Y-99083333D01*
X157816667Y-99250000D01*
X157783333Y-99316666D01*
X157750000Y-99350000D01*
X179133334Y-110066667D02*
X178900000Y-109733333D01*
X178733334Y-110066667D02*
X178733334Y-109366667D01*
X179000000Y-109366667D01*
X179066667Y-109400000D01*
X179100000Y-109433333D01*
X179133334Y-109500000D01*
X179133334Y-109600000D01*
X179100000Y-109666667D01*
X179066667Y-109700000D01*
X179000000Y-109733333D01*
X178733334Y-109733333D01*
X179733334Y-109366667D02*
X179600000Y-109366667D01*
X179533334Y-109400000D01*
X179500000Y-109433333D01*
X179433334Y-109533333D01*
X179400000Y-109666667D01*
X179400000Y-109933333D01*
X179433334Y-110000000D01*
X179466667Y-110033333D01*
X179533334Y-110066667D01*
X179666667Y-110066667D01*
X179733334Y-110033333D01*
X179766667Y-110000000D01*
X179800000Y-109933333D01*
X179800000Y-109766667D01*
X179766667Y-109700000D01*
X179733334Y-109666667D01*
X179666667Y-109633333D01*
X179533334Y-109633333D01*
X179466667Y-109666667D01*
X179433334Y-109700000D01*
X179400000Y-109766667D01*
X176633334Y-106316667D02*
X176400000Y-105983333D01*
X176233334Y-106316667D02*
X176233334Y-105616667D01*
X176500000Y-105616667D01*
X176566667Y-105650000D01*
X176600000Y-105683333D01*
X176633334Y-105750000D01*
X176633334Y-105850000D01*
X176600000Y-105916667D01*
X176566667Y-105950000D01*
X176500000Y-105983333D01*
X176233334Y-105983333D01*
X176866667Y-105616667D02*
X177333334Y-105616667D01*
X177033334Y-106316667D01*
X179133334Y-108066667D02*
X178900000Y-107733333D01*
X178733334Y-108066667D02*
X178733334Y-107366667D01*
X179000000Y-107366667D01*
X179066667Y-107400000D01*
X179100000Y-107433333D01*
X179133334Y-107500000D01*
X179133334Y-107600000D01*
X179100000Y-107666667D01*
X179066667Y-107700000D01*
X179000000Y-107733333D01*
X178733334Y-107733333D01*
X179533334Y-107666667D02*
X179466667Y-107633333D01*
X179433334Y-107600000D01*
X179400000Y-107533333D01*
X179400000Y-107500000D01*
X179433334Y-107433333D01*
X179466667Y-107400000D01*
X179533334Y-107366667D01*
X179666667Y-107366667D01*
X179733334Y-107400000D01*
X179766667Y-107433333D01*
X179800000Y-107500000D01*
X179800000Y-107533333D01*
X179766667Y-107600000D01*
X179733334Y-107633333D01*
X179666667Y-107666667D01*
X179533334Y-107666667D01*
X179466667Y-107700000D01*
X179433334Y-107733333D01*
X179400000Y-107800000D01*
X179400000Y-107933333D01*
X179433334Y-108000000D01*
X179466667Y-108033333D01*
X179533334Y-108066667D01*
X179666667Y-108066667D01*
X179733334Y-108033333D01*
X179766667Y-108000000D01*
X179800000Y-107933333D01*
X179800000Y-107800000D01*
X179766667Y-107733333D01*
X179733334Y-107700000D01*
X179666667Y-107666667D01*
X125633334Y-106066667D02*
X125400000Y-105733333D01*
X125233334Y-106066667D02*
X125233334Y-105366667D01*
X125500000Y-105366667D01*
X125566667Y-105400000D01*
X125600000Y-105433333D01*
X125633334Y-105500000D01*
X125633334Y-105600000D01*
X125600000Y-105666667D01*
X125566667Y-105700000D01*
X125500000Y-105733333D01*
X125233334Y-105733333D01*
X125966667Y-106066667D02*
X126100000Y-106066667D01*
X126166667Y-106033333D01*
X126200000Y-106000000D01*
X126266667Y-105900000D01*
X126300000Y-105766667D01*
X126300000Y-105500000D01*
X126266667Y-105433333D01*
X126233334Y-105400000D01*
X126166667Y-105366667D01*
X126033334Y-105366667D01*
X125966667Y-105400000D01*
X125933334Y-105433333D01*
X125900000Y-105500000D01*
X125900000Y-105666667D01*
X125933334Y-105733333D01*
X125966667Y-105766667D01*
X126033334Y-105800000D01*
X126166667Y-105800000D01*
X126233334Y-105766667D01*
X126266667Y-105733333D01*
X126300000Y-105666667D01*
X125050000Y-110566667D02*
X124816666Y-110233333D01*
X124650000Y-110566667D02*
X124650000Y-109866667D01*
X124916666Y-109866667D01*
X124983333Y-109900000D01*
X125016666Y-109933333D01*
X125050000Y-110000000D01*
X125050000Y-110100000D01*
X125016666Y-110166667D01*
X124983333Y-110200000D01*
X124916666Y-110233333D01*
X124650000Y-110233333D01*
X125716666Y-110566667D02*
X125316666Y-110566667D01*
X125516666Y-110566667D02*
X125516666Y-109866667D01*
X125450000Y-109966667D01*
X125383333Y-110033333D01*
X125316666Y-110066667D01*
X126150000Y-109866667D02*
X126216667Y-109866667D01*
X126283333Y-109900000D01*
X126316667Y-109933333D01*
X126350000Y-110000000D01*
X126383333Y-110133333D01*
X126383333Y-110300000D01*
X126350000Y-110433333D01*
X126316667Y-110500000D01*
X126283333Y-110533333D01*
X126216667Y-110566667D01*
X126150000Y-110566667D01*
X126083333Y-110533333D01*
X126050000Y-110500000D01*
X126016667Y-110433333D01*
X125983333Y-110300000D01*
X125983333Y-110133333D01*
X126016667Y-110000000D01*
X126050000Y-109933333D01*
X126083333Y-109900000D01*
X126150000Y-109866667D01*
X158816667Y-106700000D02*
X158483333Y-106933334D01*
X158816667Y-107100000D02*
X158116667Y-107100000D01*
X158116667Y-106833334D01*
X158150000Y-106766667D01*
X158183333Y-106733334D01*
X158250000Y-106700000D01*
X158350000Y-106700000D01*
X158416667Y-106733334D01*
X158450000Y-106766667D01*
X158483333Y-106833334D01*
X158483333Y-107100000D01*
X158816667Y-106033334D02*
X158816667Y-106433334D01*
X158816667Y-106233334D02*
X158116667Y-106233334D01*
X158216667Y-106300000D01*
X158283333Y-106366667D01*
X158316667Y-106433334D01*
X158816667Y-105366667D02*
X158816667Y-105766667D01*
X158816667Y-105566667D02*
X158116667Y-105566667D01*
X158216667Y-105633333D01*
X158283333Y-105700000D01*
X158316667Y-105766667D01*
X126616667Y-116533333D02*
X127183333Y-116533333D01*
X127250000Y-116500000D01*
X127283333Y-116466667D01*
X127316667Y-116400000D01*
X127316667Y-116266667D01*
X127283333Y-116200000D01*
X127250000Y-116166667D01*
X127183333Y-116133333D01*
X126616667Y-116133333D01*
X127316667Y-115433334D02*
X127316667Y-115833334D01*
X127316667Y-115633334D02*
X126616667Y-115633334D01*
X126716667Y-115700000D01*
X126783333Y-115766667D01*
X126816667Y-115833334D01*
X172966667Y-105616667D02*
X172966667Y-106183333D01*
X173000000Y-106250000D01*
X173033333Y-106283333D01*
X173100000Y-106316667D01*
X173233333Y-106316667D01*
X173300000Y-106283333D01*
X173333333Y-106250000D01*
X173366667Y-106183333D01*
X173366667Y-105616667D01*
X173666666Y-105683333D02*
X173700000Y-105650000D01*
X173766666Y-105616667D01*
X173933333Y-105616667D01*
X174000000Y-105650000D01*
X174033333Y-105683333D01*
X174066666Y-105750000D01*
X174066666Y-105816667D01*
X174033333Y-105916667D01*
X173633333Y-106316667D01*
X174066666Y-106316667D01*
X134666667Y-115233333D02*
X134666667Y-115566667D01*
X134433334Y-114866667D02*
X134666667Y-115233333D01*
X134900000Y-114866667D01*
X135500000Y-115566667D02*
X135100000Y-115566667D01*
X135300000Y-115566667D02*
X135300000Y-114866667D01*
X135233334Y-114966667D01*
X135166667Y-115033333D01*
X135100000Y-115066667D01*
X123586667Y-95286666D02*
X122886667Y-95286666D01*
X122886667Y-95020000D01*
X122920000Y-94953333D01*
X122953333Y-94920000D01*
X123020000Y-94886666D01*
X123120000Y-94886666D01*
X123186667Y-94920000D01*
X123220000Y-94953333D01*
X123253333Y-95020000D01*
X123253333Y-95286666D01*
X123120000Y-94286666D02*
X123586667Y-94286666D01*
X122853333Y-94453333D02*
X123353333Y-94620000D01*
X123353333Y-94186666D01*
X140700000Y-114833333D02*
X140700000Y-115066666D01*
X141066667Y-115066666D02*
X140366667Y-115066666D01*
X140366667Y-114733333D01*
X140700000Y-114233333D02*
X140733333Y-114133333D01*
X140766667Y-114100000D01*
X140833333Y-114066666D01*
X140933333Y-114066666D01*
X141000000Y-114100000D01*
X141033333Y-114133333D01*
X141066667Y-114200000D01*
X141066667Y-114466666D01*
X140366667Y-114466666D01*
X140366667Y-114233333D01*
X140400000Y-114166666D01*
X140433333Y-114133333D01*
X140500000Y-114100000D01*
X140566667Y-114100000D01*
X140633333Y-114133333D01*
X140666667Y-114166666D01*
X140700000Y-114233333D01*
X140700000Y-114466666D01*
X141066667Y-113400000D02*
X141066667Y-113800000D01*
X141066667Y-113600000D02*
X140366667Y-113600000D01*
X140466667Y-113666666D01*
X140533333Y-113733333D01*
X140566667Y-113800000D01*
X150200000Y-115083333D02*
X150200000Y-115316666D01*
X150566667Y-115316666D02*
X149866667Y-115316666D01*
X149866667Y-114983333D01*
X150200000Y-114483333D02*
X150233333Y-114383333D01*
X150266667Y-114350000D01*
X150333333Y-114316666D01*
X150433333Y-114316666D01*
X150500000Y-114350000D01*
X150533333Y-114383333D01*
X150566667Y-114450000D01*
X150566667Y-114716666D01*
X149866667Y-114716666D01*
X149866667Y-114483333D01*
X149900000Y-114416666D01*
X149933333Y-114383333D01*
X150000000Y-114350000D01*
X150066667Y-114350000D01*
X150133333Y-114383333D01*
X150166667Y-114416666D01*
X150200000Y-114483333D01*
X150200000Y-114716666D01*
X149933333Y-114050000D02*
X149900000Y-114016666D01*
X149866667Y-113950000D01*
X149866667Y-113783333D01*
X149900000Y-113716666D01*
X149933333Y-113683333D01*
X150000000Y-113650000D01*
X150066667Y-113650000D01*
X150166667Y-113683333D01*
X150566667Y-114083333D01*
X150566667Y-113650000D01*
X153383333Y-113566667D02*
X153350000Y-113633333D01*
X153283333Y-113700000D01*
X153183333Y-113800000D01*
X153150000Y-113866667D01*
X153150000Y-113933333D01*
X153316667Y-113900000D02*
X153283333Y-113966667D01*
X153216667Y-114033333D01*
X153083333Y-114066667D01*
X152850000Y-114066667D01*
X152716667Y-114033333D01*
X152650000Y-113966667D01*
X152616667Y-113900000D01*
X152616667Y-113766667D01*
X152650000Y-113700000D01*
X152716667Y-113633333D01*
X152850000Y-113600000D01*
X153083333Y-113600000D01*
X153216667Y-113633333D01*
X153283333Y-113700000D01*
X153316667Y-113766667D01*
X153316667Y-113900000D01*
X153316667Y-112933334D02*
X153316667Y-113333334D01*
X153316667Y-113133334D02*
X152616667Y-113133334D01*
X152716667Y-113200000D01*
X152783333Y-113266667D01*
X152816667Y-113333334D01*
X151433333Y-106633333D02*
X151366667Y-106600000D01*
X151300000Y-106533333D01*
X151200000Y-106433333D01*
X151133333Y-106400000D01*
X151066667Y-106400000D01*
X151100000Y-106566667D02*
X151033333Y-106533333D01*
X150966667Y-106466667D01*
X150933333Y-106333333D01*
X150933333Y-106100000D01*
X150966667Y-105966667D01*
X151033333Y-105900000D01*
X151100000Y-105866667D01*
X151233333Y-105866667D01*
X151300000Y-105900000D01*
X151366667Y-105966667D01*
X151400000Y-106100000D01*
X151400000Y-106333333D01*
X151366667Y-106466667D01*
X151300000Y-106533333D01*
X151233333Y-106566667D01*
X151100000Y-106566667D01*
X151666666Y-105933333D02*
X151700000Y-105900000D01*
X151766666Y-105866667D01*
X151933333Y-105866667D01*
X152000000Y-105900000D01*
X152033333Y-105933333D01*
X152066666Y-106000000D01*
X152066666Y-106066667D01*
X152033333Y-106166667D01*
X151633333Y-106566667D01*
X152066666Y-106566667D01*
X154816667Y-106700000D02*
X154483333Y-106933334D01*
X154816667Y-107100000D02*
X154116667Y-107100000D01*
X154116667Y-106833334D01*
X154150000Y-106766667D01*
X154183333Y-106733334D01*
X154250000Y-106700000D01*
X154350000Y-106700000D01*
X154416667Y-106733334D01*
X154450000Y-106766667D01*
X154483333Y-106833334D01*
X154483333Y-107100000D01*
X154816667Y-106033334D02*
X154816667Y-106433334D01*
X154816667Y-106233334D02*
X154116667Y-106233334D01*
X154216667Y-106300000D01*
X154283333Y-106366667D01*
X154316667Y-106433334D01*
X154116667Y-105800000D02*
X154116667Y-105366667D01*
X154383333Y-105600000D01*
X154383333Y-105500000D01*
X154416667Y-105433333D01*
X154450000Y-105400000D01*
X154516667Y-105366667D01*
X154683333Y-105366667D01*
X154750000Y-105400000D01*
X154783333Y-105433333D01*
X154816667Y-105500000D01*
X154816667Y-105700000D01*
X154783333Y-105766667D01*
X154750000Y-105800000D01*
X155066667Y-114200000D02*
X154733333Y-114433334D01*
X155066667Y-114600000D02*
X154366667Y-114600000D01*
X154366667Y-114333334D01*
X154400000Y-114266667D01*
X154433333Y-114233334D01*
X154500000Y-114200000D01*
X154600000Y-114200000D01*
X154666667Y-114233334D01*
X154700000Y-114266667D01*
X154733333Y-114333334D01*
X154733333Y-114600000D01*
X155066667Y-113533334D02*
X155066667Y-113933334D01*
X155066667Y-113733334D02*
X154366667Y-113733334D01*
X154466667Y-113800000D01*
X154533333Y-113866667D01*
X154566667Y-113933334D01*
X154600000Y-112933333D02*
X155066667Y-112933333D01*
X154333333Y-113100000D02*
X154833333Y-113266667D01*
X154833333Y-112833333D01*
X157116667Y-114533333D02*
X157683333Y-114533333D01*
X157750000Y-114500000D01*
X157783333Y-114466667D01*
X157816667Y-114400000D01*
X157816667Y-114266667D01*
X157783333Y-114200000D01*
X157750000Y-114166667D01*
X157683333Y-114133333D01*
X157116667Y-114133333D01*
X157116667Y-113466667D02*
X157116667Y-113800000D01*
X157450000Y-113833334D01*
X157416667Y-113800000D01*
X157383333Y-113733334D01*
X157383333Y-113566667D01*
X157416667Y-113500000D01*
X157450000Y-113466667D01*
X157516667Y-113433334D01*
X157683333Y-113433334D01*
X157750000Y-113466667D01*
X157783333Y-113500000D01*
X157816667Y-113566667D01*
X157816667Y-113733334D01*
X157783333Y-113800000D01*
X157750000Y-113833334D01*
X122983334Y-103066667D02*
X122983334Y-102366667D01*
X123150000Y-102366667D01*
X123250000Y-102400000D01*
X123316667Y-102466667D01*
X123350000Y-102533333D01*
X123383334Y-102666667D01*
X123383334Y-102766667D01*
X123350000Y-102900000D01*
X123316667Y-102966667D01*
X123250000Y-103033333D01*
X123150000Y-103066667D01*
X122983334Y-103066667D01*
X123616667Y-102366667D02*
X124050000Y-102366667D01*
X123816667Y-102633333D01*
X123916667Y-102633333D01*
X123983334Y-102666667D01*
X124016667Y-102700000D01*
X124050000Y-102766667D01*
X124050000Y-102933333D01*
X124016667Y-103000000D01*
X123983334Y-103033333D01*
X123916667Y-103066667D01*
X123716667Y-103066667D01*
X123650000Y-103033333D01*
X123616667Y-103000000D01*
X125050000Y-103066667D02*
X124816666Y-102733333D01*
X124650000Y-103066667D02*
X124650000Y-102366667D01*
X124916666Y-102366667D01*
X124983333Y-102400000D01*
X125016666Y-102433333D01*
X125050000Y-102500000D01*
X125050000Y-102600000D01*
X125016666Y-102666667D01*
X124983333Y-102700000D01*
X124916666Y-102733333D01*
X124650000Y-102733333D01*
X125716666Y-103066667D02*
X125316666Y-103066667D01*
X125516666Y-103066667D02*
X125516666Y-102366667D01*
X125450000Y-102466667D01*
X125383333Y-102533333D01*
X125316666Y-102566667D01*
X126350000Y-102366667D02*
X126016667Y-102366667D01*
X125983333Y-102700000D01*
X126016667Y-102666667D01*
X126083333Y-102633333D01*
X126250000Y-102633333D01*
X126316667Y-102666667D01*
X126350000Y-102700000D01*
X126383333Y-102766667D01*
X126383333Y-102933333D01*
X126350000Y-103000000D01*
X126316667Y-103033333D01*
X126250000Y-103066667D01*
X126083333Y-103066667D01*
X126016667Y-103033333D01*
X125983333Y-103000000D01*
X147050000Y-111000000D02*
X147016666Y-111033333D01*
X146916666Y-111066667D01*
X146850000Y-111066667D01*
X146750000Y-111033333D01*
X146683333Y-110966667D01*
X146650000Y-110900000D01*
X146616666Y-110766667D01*
X146616666Y-110666667D01*
X146650000Y-110533333D01*
X146683333Y-110466667D01*
X146750000Y-110400000D01*
X146850000Y-110366667D01*
X146916666Y-110366667D01*
X147016666Y-110400000D01*
X147050000Y-110433333D01*
X147316666Y-110433333D02*
X147350000Y-110400000D01*
X147416666Y-110366667D01*
X147583333Y-110366667D01*
X147650000Y-110400000D01*
X147683333Y-110433333D01*
X147716666Y-110500000D01*
X147716666Y-110566667D01*
X147683333Y-110666667D01*
X147283333Y-111066667D01*
X147716666Y-111066667D01*
X148150000Y-110366667D02*
X148216667Y-110366667D01*
X148283333Y-110400000D01*
X148316667Y-110433333D01*
X148350000Y-110500000D01*
X148383333Y-110633333D01*
X148383333Y-110800000D01*
X148350000Y-110933333D01*
X148316667Y-111000000D01*
X148283333Y-111033333D01*
X148216667Y-111066667D01*
X148150000Y-111066667D01*
X148083333Y-111033333D01*
X148050000Y-111000000D01*
X148016667Y-110933333D01*
X147983333Y-110800000D01*
X147983333Y-110633333D01*
X148016667Y-110500000D01*
X148050000Y-110433333D01*
X148083333Y-110400000D01*
X148150000Y-110366667D01*
X140550000Y-112500000D02*
X140516666Y-112533333D01*
X140416666Y-112566667D01*
X140350000Y-112566667D01*
X140250000Y-112533333D01*
X140183333Y-112466667D01*
X140150000Y-112400000D01*
X140116666Y-112266667D01*
X140116666Y-112166667D01*
X140150000Y-112033333D01*
X140183333Y-111966667D01*
X140250000Y-111900000D01*
X140350000Y-111866667D01*
X140416666Y-111866667D01*
X140516666Y-111900000D01*
X140550000Y-111933333D01*
X140816666Y-111933333D02*
X140850000Y-111900000D01*
X140916666Y-111866667D01*
X141083333Y-111866667D01*
X141150000Y-111900000D01*
X141183333Y-111933333D01*
X141216666Y-112000000D01*
X141216666Y-112066667D01*
X141183333Y-112166667D01*
X140783333Y-112566667D01*
X141216666Y-112566667D01*
X141883333Y-112566667D02*
X141483333Y-112566667D01*
X141683333Y-112566667D02*
X141683333Y-111866667D01*
X141616667Y-111966667D01*
X141550000Y-112033333D01*
X141483333Y-112066667D01*
X146966667Y-105866667D02*
X146966667Y-106433333D01*
X147000000Y-106500000D01*
X147033333Y-106533333D01*
X147100000Y-106566667D01*
X147233333Y-106566667D01*
X147300000Y-106533333D01*
X147333333Y-106500000D01*
X147366667Y-106433333D01*
X147366667Y-105866667D01*
X148000000Y-106100000D02*
X148000000Y-106566667D01*
X147833333Y-105833333D02*
X147666666Y-106333333D01*
X148100000Y-106333333D01*
X170566667Y-104066667D02*
X170566667Y-103366667D01*
X171300000Y-104000000D02*
X171266666Y-104033333D01*
X171166666Y-104066667D01*
X171100000Y-104066667D01*
X171000000Y-104033333D01*
X170933333Y-103966667D01*
X170900000Y-103900000D01*
X170866666Y-103766667D01*
X170866666Y-103666667D01*
X170900000Y-103533333D01*
X170933333Y-103466667D01*
X171000000Y-103400000D01*
X171100000Y-103366667D01*
X171166666Y-103366667D01*
X171266666Y-103400000D01*
X171300000Y-103433333D01*
X171966666Y-104066667D02*
X171566666Y-104066667D01*
X171766666Y-104066667D02*
X171766666Y-103366667D01*
X171700000Y-103466667D01*
X171633333Y-103533333D01*
X171566666Y-103566667D01*
X181483334Y-96816667D02*
X181483334Y-96116667D01*
X181750000Y-96116667D01*
X181816667Y-96150000D01*
X181850000Y-96183333D01*
X181883334Y-96250000D01*
X181883334Y-96350000D01*
X181850000Y-96416667D01*
X181816667Y-96450000D01*
X181750000Y-96483333D01*
X181483334Y-96483333D01*
X182516667Y-96116667D02*
X182183334Y-96116667D01*
X182150000Y-96450000D01*
X182183334Y-96416667D01*
X182250000Y-96383333D01*
X182416667Y-96383333D01*
X182483334Y-96416667D01*
X182516667Y-96450000D01*
X182550000Y-96516667D01*
X182550000Y-96683333D01*
X182516667Y-96750000D01*
X182483334Y-96783333D01*
X182416667Y-96816667D01*
X182250000Y-96816667D01*
X182183334Y-96783333D01*
X182150000Y-96750000D01*
X177066667Y-98950000D02*
X176733333Y-99183334D01*
X177066667Y-99350000D02*
X176366667Y-99350000D01*
X176366667Y-99083334D01*
X176400000Y-99016667D01*
X176433333Y-98983334D01*
X176500000Y-98950000D01*
X176600000Y-98950000D01*
X176666667Y-98983334D01*
X176700000Y-99016667D01*
X176733333Y-99083334D01*
X176733333Y-99350000D01*
X177066667Y-98283334D02*
X177066667Y-98683334D01*
X177066667Y-98483334D02*
X176366667Y-98483334D01*
X176466667Y-98550000D01*
X176533333Y-98616667D01*
X176566667Y-98683334D01*
X176366667Y-97683333D02*
X176366667Y-97816667D01*
X176400000Y-97883333D01*
X176433333Y-97916667D01*
X176533333Y-97983333D01*
X176666667Y-98016667D01*
X176933333Y-98016667D01*
X177000000Y-97983333D01*
X177033333Y-97950000D01*
X177066667Y-97883333D01*
X177066667Y-97750000D01*
X177033333Y-97683333D01*
X177000000Y-97650000D01*
X176933333Y-97616667D01*
X176766667Y-97616667D01*
X176700000Y-97650000D01*
X176666667Y-97683333D01*
X176633333Y-97750000D01*
X176633333Y-97883333D01*
X176666667Y-97950000D01*
X176700000Y-97983333D01*
X176766667Y-98016667D01*
X177066667Y-102950000D02*
X176733333Y-103183334D01*
X177066667Y-103350000D02*
X176366667Y-103350000D01*
X176366667Y-103083334D01*
X176400000Y-103016667D01*
X176433333Y-102983334D01*
X176500000Y-102950000D01*
X176600000Y-102950000D01*
X176666667Y-102983334D01*
X176700000Y-103016667D01*
X176733333Y-103083334D01*
X176733333Y-103350000D01*
X177066667Y-102283334D02*
X177066667Y-102683334D01*
X177066667Y-102483334D02*
X176366667Y-102483334D01*
X176466667Y-102550000D01*
X176533333Y-102616667D01*
X176566667Y-102683334D01*
X176366667Y-102050000D02*
X176366667Y-101583333D01*
X177066667Y-101883333D01*
X177066667Y-100950000D02*
X176733333Y-101183334D01*
X177066667Y-101350000D02*
X176366667Y-101350000D01*
X176366667Y-101083334D01*
X176400000Y-101016667D01*
X176433333Y-100983334D01*
X176500000Y-100950000D01*
X176600000Y-100950000D01*
X176666667Y-100983334D01*
X176700000Y-101016667D01*
X176733333Y-101083334D01*
X176733333Y-101350000D01*
X177066667Y-100283334D02*
X177066667Y-100683334D01*
X177066667Y-100483334D02*
X176366667Y-100483334D01*
X176466667Y-100550000D01*
X176533333Y-100616667D01*
X176566667Y-100683334D01*
X176666667Y-99883333D02*
X176633333Y-99950000D01*
X176600000Y-99983333D01*
X176533333Y-100016667D01*
X176500000Y-100016667D01*
X176433333Y-99983333D01*
X176400000Y-99950000D01*
X176366667Y-99883333D01*
X176366667Y-99750000D01*
X176400000Y-99683333D01*
X176433333Y-99650000D01*
X176500000Y-99616667D01*
X176533333Y-99616667D01*
X176600000Y-99650000D01*
X176633333Y-99683333D01*
X176666667Y-99750000D01*
X176666667Y-99883333D01*
X176700000Y-99950000D01*
X176733333Y-99983333D01*
X176800000Y-100016667D01*
X176933333Y-100016667D01*
X177000000Y-99983333D01*
X177033333Y-99950000D01*
X177066667Y-99883333D01*
X177066667Y-99750000D01*
X177033333Y-99683333D01*
X177000000Y-99650000D01*
X176933333Y-99616667D01*
X176800000Y-99616667D01*
X176733333Y-99650000D01*
X176700000Y-99683333D01*
X176666667Y-99750000D01*
X167750000Y-101950000D02*
X167783333Y-101983334D01*
X167816667Y-102083334D01*
X167816667Y-102150000D01*
X167783333Y-102250000D01*
X167716667Y-102316667D01*
X167650000Y-102350000D01*
X167516667Y-102383334D01*
X167416667Y-102383334D01*
X167283333Y-102350000D01*
X167216667Y-102316667D01*
X167150000Y-102250000D01*
X167116667Y-102150000D01*
X167116667Y-102083334D01*
X167150000Y-101983334D01*
X167183333Y-101950000D01*
X167183333Y-101683334D02*
X167150000Y-101650000D01*
X167116667Y-101583334D01*
X167116667Y-101416667D01*
X167150000Y-101350000D01*
X167183333Y-101316667D01*
X167250000Y-101283334D01*
X167316667Y-101283334D01*
X167416667Y-101316667D01*
X167816667Y-101716667D01*
X167816667Y-101283334D01*
X167183333Y-101016667D02*
X167150000Y-100983333D01*
X167116667Y-100916667D01*
X167116667Y-100750000D01*
X167150000Y-100683333D01*
X167183333Y-100650000D01*
X167250000Y-100616667D01*
X167316667Y-100616667D01*
X167416667Y-100650000D01*
X167816667Y-101050000D01*
X167816667Y-100616667D01*
M02*
