G04 #@! TF.FileFunction,Soldermask,Top*
%FSLAX46Y46*%
G04 Gerber Fmt 4.6, Leading zero omitted, Abs format (unit mm)*
G04 Created by KiCad (PCBNEW 4.0.0-stable) date Tuesday, February 02, 2016 'AMt' 02:20:54 AM*
%MOMM*%
G01*
G04 APERTURE LIST*
%ADD10C,0.100000*%
%ADD11R,1.300000X0.900000*%
%ADD12R,1.200000X1.150000*%
%ADD13R,1.901140X2.548840*%
%ADD14R,1.150000X1.200000*%
%ADD15R,2.548840X1.901140*%
%ADD16R,1.197560X1.197560*%
%ADD17C,4.900000*%
%ADD18R,2.635200X2.635200*%
%ADD19R,0.800000X1.750000*%
%ADD20O,1.650000X1.350000*%
%ADD21O,1.400000X1.950000*%
%ADD22R,0.900000X1.300000*%
%ADD23R,2.100000X1.300000*%
%ADD24R,0.850000X1.850000*%
%ADD25R,1.149300X0.798780*%
%ADD26R,1.700000X1.450000*%
%ADD27R,1.289000X2.080000*%
%ADD28C,1.900000*%
%ADD29R,1.200100X1.200100*%
%ADD30R,1.460000X1.050000*%
%ADD31R,1.000000X1.300000*%
%ADD32R,1.000000X0.900000*%
%ADD33R,1.950000X1.000000*%
%ADD34R,2.432000X2.432000*%
%ADD35O,2.432000X2.432000*%
G04 APERTURE END LIST*
D10*
G36*
X138798097Y-112606423D02*
X138303122Y-113101398D01*
X136959619Y-111757895D01*
X137454594Y-111262920D01*
X138798097Y-112606423D01*
X138798097Y-112606423D01*
G37*
G36*
X139151651Y-112252870D02*
X138656676Y-112747845D01*
X137313173Y-111404342D01*
X137808148Y-110909367D01*
X139151651Y-112252870D01*
X139151651Y-112252870D01*
G37*
G36*
X139505204Y-111899316D02*
X139010229Y-112394291D01*
X137666726Y-111050788D01*
X138161701Y-110555813D01*
X139505204Y-111899316D01*
X139505204Y-111899316D01*
G37*
G36*
X139858757Y-111545763D02*
X139363782Y-112040738D01*
X138020279Y-110697235D01*
X138515254Y-110202260D01*
X139858757Y-111545763D01*
X139858757Y-111545763D01*
G37*
G36*
X140212311Y-111192210D02*
X139717336Y-111687185D01*
X138373833Y-110343682D01*
X138868808Y-109848707D01*
X140212311Y-111192210D01*
X140212311Y-111192210D01*
G37*
G36*
X140565864Y-110838656D02*
X140070889Y-111333631D01*
X138727386Y-109990128D01*
X139222361Y-109495153D01*
X140565864Y-110838656D01*
X140565864Y-110838656D01*
G37*
G36*
X140919418Y-110485103D02*
X140424443Y-110980078D01*
X139080940Y-109636575D01*
X139575915Y-109141600D01*
X140919418Y-110485103D01*
X140919418Y-110485103D01*
G37*
G36*
X141272971Y-110131549D02*
X140777996Y-110626524D01*
X139434493Y-109283021D01*
X139929468Y-108788046D01*
X141272971Y-110131549D01*
X141272971Y-110131549D01*
G37*
G36*
X141626524Y-109777996D02*
X141131549Y-110272971D01*
X139788046Y-108929468D01*
X140283021Y-108434493D01*
X141626524Y-109777996D01*
X141626524Y-109777996D01*
G37*
G36*
X141980078Y-109424443D02*
X141485103Y-109919418D01*
X140141600Y-108575915D01*
X140636575Y-108080940D01*
X141980078Y-109424443D01*
X141980078Y-109424443D01*
G37*
G36*
X142333631Y-109070889D02*
X141838656Y-109565864D01*
X140495153Y-108222361D01*
X140990128Y-107727386D01*
X142333631Y-109070889D01*
X142333631Y-109070889D01*
G37*
G36*
X142687185Y-108717336D02*
X142192210Y-109212311D01*
X140848707Y-107868808D01*
X141343682Y-107373833D01*
X142687185Y-108717336D01*
X142687185Y-108717336D01*
G37*
G36*
X143040738Y-108363782D02*
X142545763Y-108858757D01*
X141202260Y-107515254D01*
X141697235Y-107020279D01*
X143040738Y-108363782D01*
X143040738Y-108363782D01*
G37*
G36*
X143394291Y-108010229D02*
X142899316Y-108505204D01*
X141555813Y-107161701D01*
X142050788Y-106666726D01*
X143394291Y-108010229D01*
X143394291Y-108010229D01*
G37*
G36*
X143747845Y-107656676D02*
X143252870Y-108151651D01*
X141909367Y-106808148D01*
X142404342Y-106313173D01*
X143747845Y-107656676D01*
X143747845Y-107656676D01*
G37*
G36*
X144101398Y-107303122D02*
X143606423Y-107798097D01*
X142262920Y-106454594D01*
X142757895Y-105959619D01*
X144101398Y-107303122D01*
X144101398Y-107303122D01*
G37*
G36*
X143606423Y-103201903D02*
X144101398Y-103696878D01*
X142757895Y-105040381D01*
X142262920Y-104545406D01*
X143606423Y-103201903D01*
X143606423Y-103201903D01*
G37*
G36*
X143252870Y-102848349D02*
X143747845Y-103343324D01*
X142404342Y-104686827D01*
X141909367Y-104191852D01*
X143252870Y-102848349D01*
X143252870Y-102848349D01*
G37*
G36*
X142899316Y-102494796D02*
X143394291Y-102989771D01*
X142050788Y-104333274D01*
X141555813Y-103838299D01*
X142899316Y-102494796D01*
X142899316Y-102494796D01*
G37*
G36*
X142545763Y-102141243D02*
X143040738Y-102636218D01*
X141697235Y-103979721D01*
X141202260Y-103484746D01*
X142545763Y-102141243D01*
X142545763Y-102141243D01*
G37*
G36*
X142192210Y-101787689D02*
X142687185Y-102282664D01*
X141343682Y-103626167D01*
X140848707Y-103131192D01*
X142192210Y-101787689D01*
X142192210Y-101787689D01*
G37*
G36*
X141838656Y-101434136D02*
X142333631Y-101929111D01*
X140990128Y-103272614D01*
X140495153Y-102777639D01*
X141838656Y-101434136D01*
X141838656Y-101434136D01*
G37*
G36*
X141485103Y-101080582D02*
X141980078Y-101575557D01*
X140636575Y-102919060D01*
X140141600Y-102424085D01*
X141485103Y-101080582D01*
X141485103Y-101080582D01*
G37*
G36*
X141131549Y-100727029D02*
X141626524Y-101222004D01*
X140283021Y-102565507D01*
X139788046Y-102070532D01*
X141131549Y-100727029D01*
X141131549Y-100727029D01*
G37*
G36*
X140777996Y-100373476D02*
X141272971Y-100868451D01*
X139929468Y-102211954D01*
X139434493Y-101716979D01*
X140777996Y-100373476D01*
X140777996Y-100373476D01*
G37*
G36*
X140424443Y-100019922D02*
X140919418Y-100514897D01*
X139575915Y-101858400D01*
X139080940Y-101363425D01*
X140424443Y-100019922D01*
X140424443Y-100019922D01*
G37*
G36*
X140070889Y-99666369D02*
X140565864Y-100161344D01*
X139222361Y-101504847D01*
X138727386Y-101009872D01*
X140070889Y-99666369D01*
X140070889Y-99666369D01*
G37*
G36*
X139717336Y-99312815D02*
X140212311Y-99807790D01*
X138868808Y-101151293D01*
X138373833Y-100656318D01*
X139717336Y-99312815D01*
X139717336Y-99312815D01*
G37*
G36*
X139363782Y-98959262D02*
X139858757Y-99454237D01*
X138515254Y-100797740D01*
X138020279Y-100302765D01*
X139363782Y-98959262D01*
X139363782Y-98959262D01*
G37*
G36*
X139010229Y-98605709D02*
X139505204Y-99100684D01*
X138161701Y-100444187D01*
X137666726Y-99949212D01*
X139010229Y-98605709D01*
X139010229Y-98605709D01*
G37*
G36*
X138656676Y-98252155D02*
X139151651Y-98747130D01*
X137808148Y-100090633D01*
X137313173Y-99595658D01*
X138656676Y-98252155D01*
X138656676Y-98252155D01*
G37*
G36*
X138303122Y-97898602D02*
X138798097Y-98393577D01*
X137454594Y-99737080D01*
X136959619Y-99242105D01*
X138303122Y-97898602D01*
X138303122Y-97898602D01*
G37*
G36*
X136040381Y-99242105D02*
X135545406Y-99737080D01*
X134201903Y-98393577D01*
X134696878Y-97898602D01*
X136040381Y-99242105D01*
X136040381Y-99242105D01*
G37*
G36*
X135686827Y-99595658D02*
X135191852Y-100090633D01*
X133848349Y-98747130D01*
X134343324Y-98252155D01*
X135686827Y-99595658D01*
X135686827Y-99595658D01*
G37*
G36*
X135333274Y-99949212D02*
X134838299Y-100444187D01*
X133494796Y-99100684D01*
X133989771Y-98605709D01*
X135333274Y-99949212D01*
X135333274Y-99949212D01*
G37*
G36*
X134979721Y-100302765D02*
X134484746Y-100797740D01*
X133141243Y-99454237D01*
X133636218Y-98959262D01*
X134979721Y-100302765D01*
X134979721Y-100302765D01*
G37*
G36*
X134626167Y-100656318D02*
X134131192Y-101151293D01*
X132787689Y-99807790D01*
X133282664Y-99312815D01*
X134626167Y-100656318D01*
X134626167Y-100656318D01*
G37*
G36*
X134272614Y-101009872D02*
X133777639Y-101504847D01*
X132434136Y-100161344D01*
X132929111Y-99666369D01*
X134272614Y-101009872D01*
X134272614Y-101009872D01*
G37*
G36*
X133919060Y-101363425D02*
X133424085Y-101858400D01*
X132080582Y-100514897D01*
X132575557Y-100019922D01*
X133919060Y-101363425D01*
X133919060Y-101363425D01*
G37*
G36*
X133565507Y-101716979D02*
X133070532Y-102211954D01*
X131727029Y-100868451D01*
X132222004Y-100373476D01*
X133565507Y-101716979D01*
X133565507Y-101716979D01*
G37*
G36*
X133211954Y-102070532D02*
X132716979Y-102565507D01*
X131373476Y-101222004D01*
X131868451Y-100727029D01*
X133211954Y-102070532D01*
X133211954Y-102070532D01*
G37*
G36*
X132858400Y-102424085D02*
X132363425Y-102919060D01*
X131019922Y-101575557D01*
X131514897Y-101080582D01*
X132858400Y-102424085D01*
X132858400Y-102424085D01*
G37*
G36*
X132504847Y-102777639D02*
X132009872Y-103272614D01*
X130666369Y-101929111D01*
X131161344Y-101434136D01*
X132504847Y-102777639D01*
X132504847Y-102777639D01*
G37*
G36*
X132151293Y-103131192D02*
X131656318Y-103626167D01*
X130312815Y-102282664D01*
X130807790Y-101787689D01*
X132151293Y-103131192D01*
X132151293Y-103131192D01*
G37*
G36*
X131797740Y-103484746D02*
X131302765Y-103979721D01*
X129959262Y-102636218D01*
X130454237Y-102141243D01*
X131797740Y-103484746D01*
X131797740Y-103484746D01*
G37*
G36*
X131444187Y-103838299D02*
X130949212Y-104333274D01*
X129605709Y-102989771D01*
X130100684Y-102494796D01*
X131444187Y-103838299D01*
X131444187Y-103838299D01*
G37*
G36*
X131090633Y-104191852D02*
X130595658Y-104686827D01*
X129252155Y-103343324D01*
X129747130Y-102848349D01*
X131090633Y-104191852D01*
X131090633Y-104191852D01*
G37*
G36*
X130737080Y-104545406D02*
X130242105Y-105040381D01*
X128898602Y-103696878D01*
X129393577Y-103201903D01*
X130737080Y-104545406D01*
X130737080Y-104545406D01*
G37*
G36*
X130242105Y-105959619D02*
X130737080Y-106454594D01*
X129393577Y-107798097D01*
X128898602Y-107303122D01*
X130242105Y-105959619D01*
X130242105Y-105959619D01*
G37*
G36*
X130595658Y-106313173D02*
X131090633Y-106808148D01*
X129747130Y-108151651D01*
X129252155Y-107656676D01*
X130595658Y-106313173D01*
X130595658Y-106313173D01*
G37*
G36*
X130949212Y-106666726D02*
X131444187Y-107161701D01*
X130100684Y-108505204D01*
X129605709Y-108010229D01*
X130949212Y-106666726D01*
X130949212Y-106666726D01*
G37*
G36*
X131302765Y-107020279D02*
X131797740Y-107515254D01*
X130454237Y-108858757D01*
X129959262Y-108363782D01*
X131302765Y-107020279D01*
X131302765Y-107020279D01*
G37*
G36*
X131656318Y-107373833D02*
X132151293Y-107868808D01*
X130807790Y-109212311D01*
X130312815Y-108717336D01*
X131656318Y-107373833D01*
X131656318Y-107373833D01*
G37*
G36*
X132009872Y-107727386D02*
X132504847Y-108222361D01*
X131161344Y-109565864D01*
X130666369Y-109070889D01*
X132009872Y-107727386D01*
X132009872Y-107727386D01*
G37*
G36*
X132363425Y-108080940D02*
X132858400Y-108575915D01*
X131514897Y-109919418D01*
X131019922Y-109424443D01*
X132363425Y-108080940D01*
X132363425Y-108080940D01*
G37*
G36*
X132716979Y-108434493D02*
X133211954Y-108929468D01*
X131868451Y-110272971D01*
X131373476Y-109777996D01*
X132716979Y-108434493D01*
X132716979Y-108434493D01*
G37*
G36*
X133070532Y-108788046D02*
X133565507Y-109283021D01*
X132222004Y-110626524D01*
X131727029Y-110131549D01*
X133070532Y-108788046D01*
X133070532Y-108788046D01*
G37*
G36*
X133424085Y-109141600D02*
X133919060Y-109636575D01*
X132575557Y-110980078D01*
X132080582Y-110485103D01*
X133424085Y-109141600D01*
X133424085Y-109141600D01*
G37*
G36*
X133777639Y-109495153D02*
X134272614Y-109990128D01*
X132929111Y-111333631D01*
X132434136Y-110838656D01*
X133777639Y-109495153D01*
X133777639Y-109495153D01*
G37*
G36*
X134131192Y-109848707D02*
X134626167Y-110343682D01*
X133282664Y-111687185D01*
X132787689Y-111192210D01*
X134131192Y-109848707D01*
X134131192Y-109848707D01*
G37*
G36*
X134484746Y-110202260D02*
X134979721Y-110697235D01*
X133636218Y-112040738D01*
X133141243Y-111545763D01*
X134484746Y-110202260D01*
X134484746Y-110202260D01*
G37*
G36*
X134838299Y-110555813D02*
X135333274Y-111050788D01*
X133989771Y-112394291D01*
X133494796Y-111899316D01*
X134838299Y-110555813D01*
X134838299Y-110555813D01*
G37*
G36*
X135191852Y-110909367D02*
X135686827Y-111404342D01*
X134343324Y-112747845D01*
X133848349Y-112252870D01*
X135191852Y-110909367D01*
X135191852Y-110909367D01*
G37*
G36*
X135545406Y-111262920D02*
X136040381Y-111757895D01*
X134696878Y-113101398D01*
X134201903Y-112606423D01*
X135545406Y-111262920D01*
X135545406Y-111262920D01*
G37*
D11*
X156500000Y-107750000D03*
X156500000Y-109250000D03*
D12*
X142750000Y-110000000D03*
X144250000Y-110000000D03*
X143250000Y-100500000D03*
X144750000Y-100500000D03*
X129750000Y-98500000D03*
X128250000Y-98500000D03*
X143250000Y-98500000D03*
X144750000Y-98500000D03*
D13*
X169000000Y-111272280D03*
X169000000Y-108270000D03*
D14*
X133500000Y-113750000D03*
X133500000Y-115250000D03*
D12*
X129750000Y-100500000D03*
X128250000Y-100500000D03*
D13*
X166000000Y-111272280D03*
X166000000Y-108270000D03*
D12*
X130250000Y-111000000D03*
X128750000Y-111000000D03*
D13*
X163000000Y-111272280D03*
X163000000Y-108270000D03*
X148500000Y-118001140D03*
X148500000Y-114998860D03*
D14*
X128000000Y-108250000D03*
X128000000Y-106750000D03*
X146500000Y-117250000D03*
X146500000Y-118750000D03*
D15*
X121998860Y-100000000D03*
X125001140Y-100000000D03*
D13*
X144000000Y-118001140D03*
X144000000Y-114998860D03*
D14*
X128000000Y-104250000D03*
X128000000Y-102750000D03*
X133500000Y-118250000D03*
X133500000Y-116750000D03*
X142000000Y-117250000D03*
X142000000Y-118750000D03*
X139500000Y-116750000D03*
X139500000Y-118250000D03*
D16*
X121250700Y-107000000D03*
X122749300Y-107000000D03*
X121250700Y-109000000D03*
X122749300Y-109000000D03*
D17*
X123500000Y-116500000D03*
X181500000Y-116500000D03*
X181500000Y-93500000D03*
X123500000Y-93500000D03*
D18*
X182980000Y-111280000D03*
X182980000Y-106200000D03*
D19*
X153699100Y-115714611D03*
X154349100Y-115714611D03*
X154999100Y-115714611D03*
X155649100Y-115714611D03*
X156299100Y-115714611D03*
D20*
X152499100Y-115714611D03*
X157499100Y-115714611D03*
D21*
X151499100Y-118414611D03*
X158499100Y-118414611D03*
D22*
X121250000Y-111500000D03*
X122750000Y-111500000D03*
X124250000Y-111500000D03*
X125750000Y-111500000D03*
D11*
X171500000Y-111750000D03*
X171500000Y-110250000D03*
X173500000Y-110250000D03*
X173500000Y-111750000D03*
X159000000Y-98750000D03*
X159000000Y-100250000D03*
D22*
X178500000Y-111280000D03*
X180000000Y-111280000D03*
D23*
X176630000Y-107290000D03*
X176630000Y-110190000D03*
D22*
X178500000Y-106200000D03*
X180000000Y-106200000D03*
X124250000Y-107000000D03*
X125750000Y-107000000D03*
X124250000Y-109000000D03*
X125750000Y-109000000D03*
D11*
X158500000Y-107750000D03*
X158500000Y-109250000D03*
D24*
X130475000Y-113800000D03*
X129825000Y-113800000D03*
X129175000Y-113800000D03*
X128525000Y-113800000D03*
X128525000Y-118200000D03*
X129175000Y-118200000D03*
X129825000Y-118200000D03*
X130475000Y-118200000D03*
D25*
X173449960Y-108420240D03*
X173449960Y-107770000D03*
X173449960Y-107119760D03*
X171550040Y-107119760D03*
X171550040Y-107770000D03*
X171550040Y-108420240D03*
D26*
X135350000Y-118425000D03*
X137650000Y-118425000D03*
X137650000Y-116575000D03*
X135350000Y-116575000D03*
D27*
X128370000Y-96080000D03*
X128370000Y-90920000D03*
X130910000Y-96080000D03*
X130910000Y-90920000D03*
X133450000Y-96080000D03*
X133450000Y-90920000D03*
X135990000Y-96080000D03*
X135990000Y-90920000D03*
X138530000Y-96080000D03*
X138530000Y-90920000D03*
X141070000Y-96080000D03*
X141070000Y-90920000D03*
X143610000Y-96080000D03*
X143610000Y-90920000D03*
X146150000Y-96080000D03*
X146150000Y-90920000D03*
X148690000Y-96080000D03*
X148690000Y-90920000D03*
X151230000Y-96080000D03*
X151230000Y-90920000D03*
X153770000Y-96080000D03*
X153770000Y-90920000D03*
X156310000Y-96080000D03*
X156310000Y-90920000D03*
X158850000Y-96080000D03*
X158850000Y-90920000D03*
D28*
X128370000Y-94770000D03*
X128370000Y-92230000D03*
X130910000Y-94770000D03*
X133450000Y-94770000D03*
X135990000Y-94770000D03*
X138530000Y-94770000D03*
X141070000Y-94770000D03*
X143610000Y-94770000D03*
X146150000Y-94770000D03*
X148690000Y-94770000D03*
X151230000Y-94770000D03*
X153770000Y-94770000D03*
X156310000Y-94770000D03*
X158850000Y-94770000D03*
X130910000Y-92230000D03*
X133450000Y-92230000D03*
X135990000Y-92230000D03*
X138530000Y-92230000D03*
X141070000Y-92230000D03*
X143610000Y-92230000D03*
X146150000Y-92230000D03*
X148690000Y-92230000D03*
X151230000Y-92230000D03*
X153770000Y-92230000D03*
X156310000Y-92230000D03*
X158850000Y-92230000D03*
X161390000Y-94770000D03*
X163930000Y-94770000D03*
X166470000Y-94770000D03*
X169010000Y-94770000D03*
X171550000Y-94770000D03*
X174090000Y-94770000D03*
X176630000Y-94770000D03*
X176630000Y-92230000D03*
X174090000Y-92230000D03*
X171550000Y-92230000D03*
X169010000Y-92230000D03*
X166470000Y-92230000D03*
X163930000Y-92230000D03*
X161390000Y-92230000D03*
D27*
X161390000Y-96080000D03*
X163930000Y-96080000D03*
X166470000Y-96080000D03*
X169010000Y-96080000D03*
X171550000Y-96080000D03*
X174090000Y-96080000D03*
X176630000Y-96080000D03*
X176630000Y-90920000D03*
X174090000Y-90920000D03*
X171550000Y-90920000D03*
X169010000Y-90920000D03*
X166470000Y-90920000D03*
X163930000Y-90920000D03*
X161390000Y-90920000D03*
D11*
X142000000Y-114250000D03*
X142000000Y-115750000D03*
X146500000Y-114250000D03*
X146500000Y-115750000D03*
D29*
X152450000Y-110999240D03*
X150550000Y-110999240D03*
X151500000Y-112998220D03*
D30*
X150400000Y-107550000D03*
X150400000Y-108500000D03*
X150400000Y-109450000D03*
X152600000Y-109450000D03*
X152600000Y-107550000D03*
X152600000Y-108500000D03*
D11*
X154500000Y-109250000D03*
X154500000Y-107750000D03*
X154500000Y-110750000D03*
X154500000Y-112250000D03*
D31*
X158500000Y-112250000D03*
D32*
X158500000Y-110550000D03*
X156500000Y-110550000D03*
X156500000Y-112450000D03*
D16*
X121250700Y-104000000D03*
X122749300Y-104000000D03*
D22*
X124250000Y-104000000D03*
X125750000Y-104000000D03*
D12*
X148250000Y-112000000D03*
X146750000Y-112000000D03*
X144250000Y-112000000D03*
X142750000Y-112000000D03*
D30*
X148600000Y-109450000D03*
X148600000Y-108500000D03*
X148600000Y-107550000D03*
X146400000Y-107550000D03*
X146400000Y-109450000D03*
D33*
X169800000Y-98595000D03*
X169800000Y-99865000D03*
X169800000Y-101135000D03*
X169800000Y-102405000D03*
X175200000Y-102405000D03*
X175200000Y-101135000D03*
X175200000Y-99865000D03*
X175200000Y-98595000D03*
D34*
X182980000Y-98580000D03*
D35*
X182980000Y-101120000D03*
D22*
X179250000Y-98500000D03*
X177750000Y-98500000D03*
X179250000Y-102500000D03*
X177750000Y-102500000D03*
X179250000Y-100500000D03*
X177750000Y-100500000D03*
D14*
X167500000Y-98250000D03*
X167500000Y-99750000D03*
M02*
