G04 #@! TF.FileFunction,Copper,L1,Top,Signal*
%FSLAX46Y46*%
G04 Gerber Fmt 4.6, Leading zero omitted, Abs format (unit mm)*
G04 Created by KiCad (PCBNEW 4.0.0-stable) date Tuesday, February 02, 2016 'AMt' 02:20:54 AM*
%MOMM*%
G01*
G04 APERTURE LIST*
%ADD10C,0.100000*%
%ADD11R,0.900000X0.500000*%
%ADD12R,0.800000X0.750000*%
%ADD13R,1.501140X2.148840*%
%ADD14R,0.750000X0.800000*%
%ADD15R,2.148840X1.501140*%
%ADD16R,0.797560X0.797560*%
%ADD17C,4.500000*%
%ADD18R,2.235200X2.235200*%
%ADD19R,0.400000X1.350000*%
%ADD20O,1.250000X0.950000*%
%ADD21O,1.000000X1.550000*%
%ADD22R,0.500000X0.900000*%
%ADD23R,1.700000X0.900000*%
%ADD24R,0.450000X1.450000*%
%ADD25R,0.749300X0.398780*%
%ADD26R,1.300000X1.050000*%
%ADD27R,0.889000X1.680000*%
%ADD28C,1.500000*%
%ADD29R,0.800100X0.800100*%
%ADD30R,1.060000X0.650000*%
%ADD31R,0.600000X0.900000*%
%ADD32R,0.600000X0.500000*%
%ADD33R,1.550000X0.600000*%
%ADD34R,2.032000X2.032000*%
%ADD35O,2.032000X2.032000*%
%ADD36C,0.600000*%
%ADD37C,0.200000*%
%ADD38C,0.400000*%
%ADD39C,0.600000*%
%ADD40C,0.304800*%
%ADD41C,0.254000*%
G04 APERTURE END LIST*
D10*
G36*
X138515254Y-112606423D02*
X138303122Y-112818555D01*
X137242462Y-111757895D01*
X137454594Y-111545763D01*
X138515254Y-112606423D01*
X138515254Y-112606423D01*
G37*
G36*
X138868808Y-112252870D02*
X138656676Y-112465002D01*
X137596016Y-111404342D01*
X137808148Y-111192210D01*
X138868808Y-112252870D01*
X138868808Y-112252870D01*
G37*
G36*
X139222361Y-111899316D02*
X139010229Y-112111448D01*
X137949569Y-111050788D01*
X138161701Y-110838656D01*
X139222361Y-111899316D01*
X139222361Y-111899316D01*
G37*
G36*
X139575914Y-111545763D02*
X139363782Y-111757895D01*
X138303122Y-110697235D01*
X138515254Y-110485103D01*
X139575914Y-111545763D01*
X139575914Y-111545763D01*
G37*
G36*
X139929468Y-111192210D02*
X139717336Y-111404342D01*
X138656676Y-110343682D01*
X138868808Y-110131550D01*
X139929468Y-111192210D01*
X139929468Y-111192210D01*
G37*
G36*
X140283021Y-110838656D02*
X140070889Y-111050788D01*
X139010229Y-109990128D01*
X139222361Y-109777996D01*
X140283021Y-110838656D01*
X140283021Y-110838656D01*
G37*
G36*
X140636575Y-110485103D02*
X140424443Y-110697235D01*
X139363783Y-109636575D01*
X139575915Y-109424443D01*
X140636575Y-110485103D01*
X140636575Y-110485103D01*
G37*
G36*
X140990128Y-110131549D02*
X140777996Y-110343681D01*
X139717336Y-109283021D01*
X139929468Y-109070889D01*
X140990128Y-110131549D01*
X140990128Y-110131549D01*
G37*
G36*
X141343681Y-109777996D02*
X141131549Y-109990128D01*
X140070889Y-108929468D01*
X140283021Y-108717336D01*
X141343681Y-109777996D01*
X141343681Y-109777996D01*
G37*
G36*
X141697235Y-109424443D02*
X141485103Y-109636575D01*
X140424443Y-108575915D01*
X140636575Y-108363783D01*
X141697235Y-109424443D01*
X141697235Y-109424443D01*
G37*
G36*
X142050788Y-109070889D02*
X141838656Y-109283021D01*
X140777996Y-108222361D01*
X140990128Y-108010229D01*
X142050788Y-109070889D01*
X142050788Y-109070889D01*
G37*
G36*
X142404342Y-108717336D02*
X142192210Y-108929468D01*
X141131550Y-107868808D01*
X141343682Y-107656676D01*
X142404342Y-108717336D01*
X142404342Y-108717336D01*
G37*
G36*
X142757895Y-108363782D02*
X142545763Y-108575914D01*
X141485103Y-107515254D01*
X141697235Y-107303122D01*
X142757895Y-108363782D01*
X142757895Y-108363782D01*
G37*
G36*
X143111448Y-108010229D02*
X142899316Y-108222361D01*
X141838656Y-107161701D01*
X142050788Y-106949569D01*
X143111448Y-108010229D01*
X143111448Y-108010229D01*
G37*
G36*
X143465002Y-107656676D02*
X143252870Y-107868808D01*
X142192210Y-106808148D01*
X142404342Y-106596016D01*
X143465002Y-107656676D01*
X143465002Y-107656676D01*
G37*
G36*
X143818555Y-107303122D02*
X143606423Y-107515254D01*
X142545763Y-106454594D01*
X142757895Y-106242462D01*
X143818555Y-107303122D01*
X143818555Y-107303122D01*
G37*
G36*
X143606423Y-103484746D02*
X143818555Y-103696878D01*
X142757895Y-104757538D01*
X142545763Y-104545406D01*
X143606423Y-103484746D01*
X143606423Y-103484746D01*
G37*
G36*
X143252870Y-103131192D02*
X143465002Y-103343324D01*
X142404342Y-104403984D01*
X142192210Y-104191852D01*
X143252870Y-103131192D01*
X143252870Y-103131192D01*
G37*
G36*
X142899316Y-102777639D02*
X143111448Y-102989771D01*
X142050788Y-104050431D01*
X141838656Y-103838299D01*
X142899316Y-102777639D01*
X142899316Y-102777639D01*
G37*
G36*
X142545763Y-102424086D02*
X142757895Y-102636218D01*
X141697235Y-103696878D01*
X141485103Y-103484746D01*
X142545763Y-102424086D01*
X142545763Y-102424086D01*
G37*
G36*
X142192210Y-102070532D02*
X142404342Y-102282664D01*
X141343682Y-103343324D01*
X141131550Y-103131192D01*
X142192210Y-102070532D01*
X142192210Y-102070532D01*
G37*
G36*
X141838656Y-101716979D02*
X142050788Y-101929111D01*
X140990128Y-102989771D01*
X140777996Y-102777639D01*
X141838656Y-101716979D01*
X141838656Y-101716979D01*
G37*
G36*
X141485103Y-101363425D02*
X141697235Y-101575557D01*
X140636575Y-102636217D01*
X140424443Y-102424085D01*
X141485103Y-101363425D01*
X141485103Y-101363425D01*
G37*
G36*
X141131549Y-101009872D02*
X141343681Y-101222004D01*
X140283021Y-102282664D01*
X140070889Y-102070532D01*
X141131549Y-101009872D01*
X141131549Y-101009872D01*
G37*
G36*
X140777996Y-100656319D02*
X140990128Y-100868451D01*
X139929468Y-101929111D01*
X139717336Y-101716979D01*
X140777996Y-100656319D01*
X140777996Y-100656319D01*
G37*
G36*
X140424443Y-100302765D02*
X140636575Y-100514897D01*
X139575915Y-101575557D01*
X139363783Y-101363425D01*
X140424443Y-100302765D01*
X140424443Y-100302765D01*
G37*
G36*
X140070889Y-99949212D02*
X140283021Y-100161344D01*
X139222361Y-101222004D01*
X139010229Y-101009872D01*
X140070889Y-99949212D01*
X140070889Y-99949212D01*
G37*
G36*
X139717336Y-99595658D02*
X139929468Y-99807790D01*
X138868808Y-100868450D01*
X138656676Y-100656318D01*
X139717336Y-99595658D01*
X139717336Y-99595658D01*
G37*
G36*
X139363782Y-99242105D02*
X139575914Y-99454237D01*
X138515254Y-100514897D01*
X138303122Y-100302765D01*
X139363782Y-99242105D01*
X139363782Y-99242105D01*
G37*
G36*
X139010229Y-98888552D02*
X139222361Y-99100684D01*
X138161701Y-100161344D01*
X137949569Y-99949212D01*
X139010229Y-98888552D01*
X139010229Y-98888552D01*
G37*
G36*
X138656676Y-98534998D02*
X138868808Y-98747130D01*
X137808148Y-99807790D01*
X137596016Y-99595658D01*
X138656676Y-98534998D01*
X138656676Y-98534998D01*
G37*
G36*
X138303122Y-98181445D02*
X138515254Y-98393577D01*
X137454594Y-99454237D01*
X137242462Y-99242105D01*
X138303122Y-98181445D01*
X138303122Y-98181445D01*
G37*
G36*
X135757538Y-99242105D02*
X135545406Y-99454237D01*
X134484746Y-98393577D01*
X134696878Y-98181445D01*
X135757538Y-99242105D01*
X135757538Y-99242105D01*
G37*
G36*
X135403984Y-99595658D02*
X135191852Y-99807790D01*
X134131192Y-98747130D01*
X134343324Y-98534998D01*
X135403984Y-99595658D01*
X135403984Y-99595658D01*
G37*
G36*
X135050431Y-99949212D02*
X134838299Y-100161344D01*
X133777639Y-99100684D01*
X133989771Y-98888552D01*
X135050431Y-99949212D01*
X135050431Y-99949212D01*
G37*
G36*
X134696878Y-100302765D02*
X134484746Y-100514897D01*
X133424086Y-99454237D01*
X133636218Y-99242105D01*
X134696878Y-100302765D01*
X134696878Y-100302765D01*
G37*
G36*
X134343324Y-100656318D02*
X134131192Y-100868450D01*
X133070532Y-99807790D01*
X133282664Y-99595658D01*
X134343324Y-100656318D01*
X134343324Y-100656318D01*
G37*
G36*
X133989771Y-101009872D02*
X133777639Y-101222004D01*
X132716979Y-100161344D01*
X132929111Y-99949212D01*
X133989771Y-101009872D01*
X133989771Y-101009872D01*
G37*
G36*
X133636217Y-101363425D02*
X133424085Y-101575557D01*
X132363425Y-100514897D01*
X132575557Y-100302765D01*
X133636217Y-101363425D01*
X133636217Y-101363425D01*
G37*
G36*
X133282664Y-101716979D02*
X133070532Y-101929111D01*
X132009872Y-100868451D01*
X132222004Y-100656319D01*
X133282664Y-101716979D01*
X133282664Y-101716979D01*
G37*
G36*
X132929111Y-102070532D02*
X132716979Y-102282664D01*
X131656319Y-101222004D01*
X131868451Y-101009872D01*
X132929111Y-102070532D01*
X132929111Y-102070532D01*
G37*
G36*
X132575557Y-102424085D02*
X132363425Y-102636217D01*
X131302765Y-101575557D01*
X131514897Y-101363425D01*
X132575557Y-102424085D01*
X132575557Y-102424085D01*
G37*
G36*
X132222004Y-102777639D02*
X132009872Y-102989771D01*
X130949212Y-101929111D01*
X131161344Y-101716979D01*
X132222004Y-102777639D01*
X132222004Y-102777639D01*
G37*
G36*
X131868450Y-103131192D02*
X131656318Y-103343324D01*
X130595658Y-102282664D01*
X130807790Y-102070532D01*
X131868450Y-103131192D01*
X131868450Y-103131192D01*
G37*
G36*
X131514897Y-103484746D02*
X131302765Y-103696878D01*
X130242105Y-102636218D01*
X130454237Y-102424086D01*
X131514897Y-103484746D01*
X131514897Y-103484746D01*
G37*
G36*
X131161344Y-103838299D02*
X130949212Y-104050431D01*
X129888552Y-102989771D01*
X130100684Y-102777639D01*
X131161344Y-103838299D01*
X131161344Y-103838299D01*
G37*
G36*
X130807790Y-104191852D02*
X130595658Y-104403984D01*
X129534998Y-103343324D01*
X129747130Y-103131192D01*
X130807790Y-104191852D01*
X130807790Y-104191852D01*
G37*
G36*
X130454237Y-104545406D02*
X130242105Y-104757538D01*
X129181445Y-103696878D01*
X129393577Y-103484746D01*
X130454237Y-104545406D01*
X130454237Y-104545406D01*
G37*
G36*
X130242105Y-106242462D02*
X130454237Y-106454594D01*
X129393577Y-107515254D01*
X129181445Y-107303122D01*
X130242105Y-106242462D01*
X130242105Y-106242462D01*
G37*
G36*
X130595658Y-106596016D02*
X130807790Y-106808148D01*
X129747130Y-107868808D01*
X129534998Y-107656676D01*
X130595658Y-106596016D01*
X130595658Y-106596016D01*
G37*
G36*
X130949212Y-106949569D02*
X131161344Y-107161701D01*
X130100684Y-108222361D01*
X129888552Y-108010229D01*
X130949212Y-106949569D01*
X130949212Y-106949569D01*
G37*
G36*
X131302765Y-107303122D02*
X131514897Y-107515254D01*
X130454237Y-108575914D01*
X130242105Y-108363782D01*
X131302765Y-107303122D01*
X131302765Y-107303122D01*
G37*
G36*
X131656318Y-107656676D02*
X131868450Y-107868808D01*
X130807790Y-108929468D01*
X130595658Y-108717336D01*
X131656318Y-107656676D01*
X131656318Y-107656676D01*
G37*
G36*
X132009872Y-108010229D02*
X132222004Y-108222361D01*
X131161344Y-109283021D01*
X130949212Y-109070889D01*
X132009872Y-108010229D01*
X132009872Y-108010229D01*
G37*
G36*
X132363425Y-108363783D02*
X132575557Y-108575915D01*
X131514897Y-109636575D01*
X131302765Y-109424443D01*
X132363425Y-108363783D01*
X132363425Y-108363783D01*
G37*
G36*
X132716979Y-108717336D02*
X132929111Y-108929468D01*
X131868451Y-109990128D01*
X131656319Y-109777996D01*
X132716979Y-108717336D01*
X132716979Y-108717336D01*
G37*
G36*
X133070532Y-109070889D02*
X133282664Y-109283021D01*
X132222004Y-110343681D01*
X132009872Y-110131549D01*
X133070532Y-109070889D01*
X133070532Y-109070889D01*
G37*
G36*
X133424085Y-109424443D02*
X133636217Y-109636575D01*
X132575557Y-110697235D01*
X132363425Y-110485103D01*
X133424085Y-109424443D01*
X133424085Y-109424443D01*
G37*
G36*
X133777639Y-109777996D02*
X133989771Y-109990128D01*
X132929111Y-111050788D01*
X132716979Y-110838656D01*
X133777639Y-109777996D01*
X133777639Y-109777996D01*
G37*
G36*
X134131192Y-110131550D02*
X134343324Y-110343682D01*
X133282664Y-111404342D01*
X133070532Y-111192210D01*
X134131192Y-110131550D01*
X134131192Y-110131550D01*
G37*
G36*
X134484746Y-110485103D02*
X134696878Y-110697235D01*
X133636218Y-111757895D01*
X133424086Y-111545763D01*
X134484746Y-110485103D01*
X134484746Y-110485103D01*
G37*
G36*
X134838299Y-110838656D02*
X135050431Y-111050788D01*
X133989771Y-112111448D01*
X133777639Y-111899316D01*
X134838299Y-110838656D01*
X134838299Y-110838656D01*
G37*
G36*
X135191852Y-111192210D02*
X135403984Y-111404342D01*
X134343324Y-112465002D01*
X134131192Y-112252870D01*
X135191852Y-111192210D01*
X135191852Y-111192210D01*
G37*
G36*
X135545406Y-111545763D02*
X135757538Y-111757895D01*
X134696878Y-112818555D01*
X134484746Y-112606423D01*
X135545406Y-111545763D01*
X135545406Y-111545763D01*
G37*
D11*
X156500000Y-107750000D03*
X156500000Y-109250000D03*
D12*
X142750000Y-110000000D03*
X144250000Y-110000000D03*
X143250000Y-100500000D03*
X144750000Y-100500000D03*
X129750000Y-98500000D03*
X128250000Y-98500000D03*
X143250000Y-98500000D03*
X144750000Y-98500000D03*
D13*
X169000000Y-111272280D03*
X169000000Y-108270000D03*
D14*
X133500000Y-113750000D03*
X133500000Y-115250000D03*
D12*
X129750000Y-100500000D03*
X128250000Y-100500000D03*
D13*
X166000000Y-111272280D03*
X166000000Y-108270000D03*
D12*
X130250000Y-111000000D03*
X128750000Y-111000000D03*
D13*
X163000000Y-111272280D03*
X163000000Y-108270000D03*
X148500000Y-118001140D03*
X148500000Y-114998860D03*
D14*
X128000000Y-108250000D03*
X128000000Y-106750000D03*
X146500000Y-117250000D03*
X146500000Y-118750000D03*
D15*
X121998860Y-100000000D03*
X125001140Y-100000000D03*
D13*
X144000000Y-118001140D03*
X144000000Y-114998860D03*
D14*
X128000000Y-104250000D03*
X128000000Y-102750000D03*
X133500000Y-118250000D03*
X133500000Y-116750000D03*
X142000000Y-117250000D03*
X142000000Y-118750000D03*
X139500000Y-116750000D03*
X139500000Y-118250000D03*
D16*
X121250700Y-107000000D03*
X122749300Y-107000000D03*
X121250700Y-109000000D03*
X122749300Y-109000000D03*
D17*
X123500000Y-116500000D03*
X181500000Y-116500000D03*
X181500000Y-93500000D03*
X123500000Y-93500000D03*
D18*
X182980000Y-111280000D03*
X182980000Y-106200000D03*
D19*
X153699100Y-115714611D03*
X154349100Y-115714611D03*
X154999100Y-115714611D03*
X155649100Y-115714611D03*
X156299100Y-115714611D03*
D20*
X152499100Y-115714611D03*
X157499100Y-115714611D03*
D21*
X151499100Y-118414611D03*
X158499100Y-118414611D03*
D22*
X121250000Y-111500000D03*
X122750000Y-111500000D03*
X124250000Y-111500000D03*
X125750000Y-111500000D03*
D11*
X171500000Y-111750000D03*
X171500000Y-110250000D03*
X173500000Y-110250000D03*
X173500000Y-111750000D03*
X159000000Y-98750000D03*
X159000000Y-100250000D03*
D22*
X178500000Y-111280000D03*
X180000000Y-111280000D03*
D23*
X176630000Y-107290000D03*
X176630000Y-110190000D03*
D22*
X178500000Y-106200000D03*
X180000000Y-106200000D03*
X124250000Y-107000000D03*
X125750000Y-107000000D03*
X124250000Y-109000000D03*
X125750000Y-109000000D03*
D11*
X158500000Y-107750000D03*
X158500000Y-109250000D03*
D24*
X130475000Y-113800000D03*
X129825000Y-113800000D03*
X129175000Y-113800000D03*
X128525000Y-113800000D03*
X128525000Y-118200000D03*
X129175000Y-118200000D03*
X129825000Y-118200000D03*
X130475000Y-118200000D03*
D25*
X173449960Y-108420240D03*
X173449960Y-107770000D03*
X173449960Y-107119760D03*
X171550040Y-107119760D03*
X171550040Y-107770000D03*
X171550040Y-108420240D03*
D26*
X135350000Y-118425000D03*
X137650000Y-118425000D03*
X137650000Y-116575000D03*
X135350000Y-116575000D03*
D27*
X128370000Y-96080000D03*
X128370000Y-90920000D03*
X130910000Y-96080000D03*
X130910000Y-90920000D03*
X133450000Y-96080000D03*
X133450000Y-90920000D03*
X135990000Y-96080000D03*
X135990000Y-90920000D03*
X138530000Y-96080000D03*
X138530000Y-90920000D03*
X141070000Y-96080000D03*
X141070000Y-90920000D03*
X143610000Y-96080000D03*
X143610000Y-90920000D03*
X146150000Y-96080000D03*
X146150000Y-90920000D03*
X148690000Y-96080000D03*
X148690000Y-90920000D03*
X151230000Y-96080000D03*
X151230000Y-90920000D03*
X153770000Y-96080000D03*
X153770000Y-90920000D03*
X156310000Y-96080000D03*
X156310000Y-90920000D03*
X158850000Y-96080000D03*
X158850000Y-90920000D03*
D28*
X128370000Y-94770000D03*
X128370000Y-92230000D03*
X130910000Y-94770000D03*
X133450000Y-94770000D03*
X135990000Y-94770000D03*
X138530000Y-94770000D03*
X141070000Y-94770000D03*
X143610000Y-94770000D03*
X146150000Y-94770000D03*
X148690000Y-94770000D03*
X151230000Y-94770000D03*
X153770000Y-94770000D03*
X156310000Y-94770000D03*
X158850000Y-94770000D03*
X130910000Y-92230000D03*
X133450000Y-92230000D03*
X135990000Y-92230000D03*
X138530000Y-92230000D03*
X141070000Y-92230000D03*
X143610000Y-92230000D03*
X146150000Y-92230000D03*
X148690000Y-92230000D03*
X151230000Y-92230000D03*
X153770000Y-92230000D03*
X156310000Y-92230000D03*
X158850000Y-92230000D03*
X161390000Y-94770000D03*
X163930000Y-94770000D03*
X166470000Y-94770000D03*
X169010000Y-94770000D03*
X171550000Y-94770000D03*
X174090000Y-94770000D03*
X176630000Y-94770000D03*
X176630000Y-92230000D03*
X174090000Y-92230000D03*
X171550000Y-92230000D03*
X169010000Y-92230000D03*
X166470000Y-92230000D03*
X163930000Y-92230000D03*
X161390000Y-92230000D03*
D27*
X161390000Y-96080000D03*
X163930000Y-96080000D03*
X166470000Y-96080000D03*
X169010000Y-96080000D03*
X171550000Y-96080000D03*
X174090000Y-96080000D03*
X176630000Y-96080000D03*
X176630000Y-90920000D03*
X174090000Y-90920000D03*
X171550000Y-90920000D03*
X169010000Y-90920000D03*
X166470000Y-90920000D03*
X163930000Y-90920000D03*
X161390000Y-90920000D03*
D11*
X142000000Y-114250000D03*
X142000000Y-115750000D03*
X146500000Y-114250000D03*
X146500000Y-115750000D03*
D29*
X152450000Y-110999240D03*
X150550000Y-110999240D03*
X151500000Y-112998220D03*
D30*
X150400000Y-107550000D03*
X150400000Y-108500000D03*
X150400000Y-109450000D03*
X152600000Y-109450000D03*
X152600000Y-107550000D03*
X152600000Y-108500000D03*
D11*
X154500000Y-109250000D03*
X154500000Y-107750000D03*
X154500000Y-110750000D03*
X154500000Y-112250000D03*
D31*
X158500000Y-112250000D03*
D32*
X158500000Y-110550000D03*
X156500000Y-110550000D03*
X156500000Y-112450000D03*
D16*
X121250700Y-104000000D03*
X122749300Y-104000000D03*
D22*
X124250000Y-104000000D03*
X125750000Y-104000000D03*
D12*
X148250000Y-112000000D03*
X146750000Y-112000000D03*
X144250000Y-112000000D03*
X142750000Y-112000000D03*
D30*
X148600000Y-109450000D03*
X148600000Y-108500000D03*
X148600000Y-107550000D03*
X146400000Y-107550000D03*
X146400000Y-109450000D03*
D33*
X169800000Y-98595000D03*
X169800000Y-99865000D03*
X169800000Y-101135000D03*
X169800000Y-102405000D03*
X175200000Y-102405000D03*
X175200000Y-101135000D03*
X175200000Y-99865000D03*
X175200000Y-98595000D03*
D34*
X182980000Y-98580000D03*
D35*
X182980000Y-101120000D03*
D22*
X179250000Y-98500000D03*
X177750000Y-98500000D03*
X179250000Y-102500000D03*
X177750000Y-102500000D03*
X179250000Y-100500000D03*
X177750000Y-100500000D03*
D14*
X167500000Y-98250000D03*
X167500000Y-99750000D03*
D36*
X142750000Y-110000000D03*
X135722182Y-108972182D03*
X132500000Y-107500000D03*
X139743879Y-103256121D03*
X138250000Y-104750000D03*
X147250000Y-106500000D03*
X149000000Y-105750000D03*
X151000000Y-105750000D03*
X153000000Y-105750000D03*
X144250000Y-110000000D03*
X141750000Y-106500000D03*
X140500000Y-107750000D03*
X148600000Y-108500000D03*
X173500000Y-113250000D03*
X169000000Y-113250000D03*
X166000000Y-113250000D03*
X163000000Y-113250000D03*
X170500000Y-107500000D03*
X174500000Y-107500000D03*
X166500000Y-101000000D03*
X167500000Y-101000000D03*
X167500000Y-102000000D03*
X133500000Y-98000000D03*
X136750000Y-108250000D03*
X149000000Y-100500000D03*
X151000000Y-100500000D03*
X153000000Y-100500000D03*
X155000000Y-100500000D03*
X157000000Y-100500000D03*
X136750000Y-106250000D03*
X127000000Y-105500000D03*
X122000000Y-101500000D03*
X154500000Y-112900000D03*
X154500000Y-107000000D03*
X159250000Y-112250000D03*
X150000000Y-118750000D03*
X145500000Y-118750000D03*
X147500000Y-113000000D03*
X135500000Y-115500000D03*
X132500000Y-116000000D03*
X140500000Y-118500000D03*
X127500000Y-118500000D03*
X128000000Y-111000000D03*
X129500000Y-102500000D03*
X127500000Y-100500000D03*
X127500000Y-98500000D03*
X145500000Y-100500000D03*
X145500000Y-98500000D03*
X132000000Y-114500000D03*
X135000000Y-109750000D03*
X145500000Y-111000000D03*
X141000000Y-113500000D03*
X133500000Y-106500000D03*
X133500000Y-103500000D03*
X143000000Y-99500000D03*
X159000000Y-101000000D03*
X148500000Y-111000000D03*
X149500000Y-111000000D03*
X157750000Y-98750000D03*
X157000000Y-98750000D03*
X148500000Y-97750000D03*
X152000000Y-97500000D03*
X171500000Y-99500000D03*
X171500000Y-98595009D03*
X150750000Y-98250000D03*
X137750000Y-100750000D03*
X177750000Y-98500000D03*
D37*
X130946699Y-105750000D02*
X129475000Y-105750000D01*
X129475000Y-105750000D02*
X128000000Y-104275000D01*
X128000000Y-104275000D02*
X128000000Y-104250000D01*
X134500000Y-107750000D02*
X135722182Y-108972182D01*
X135722182Y-108972182D02*
X135722182Y-111581119D01*
X135722182Y-111581119D02*
X135121142Y-112182159D01*
X134500000Y-106250000D02*
X134500000Y-107750000D01*
X129817841Y-106878858D02*
X130946699Y-105750000D01*
X130946699Y-105750000D02*
X134000000Y-105750000D01*
X134000000Y-105750000D02*
X134500000Y-106250000D01*
X142750000Y-110000000D02*
X142750000Y-109275126D01*
X142750000Y-109275126D02*
X141767946Y-108293072D01*
X128000000Y-104250000D02*
X128000000Y-104225000D01*
X128000000Y-104225000D02*
X125001140Y-101226140D01*
X125001140Y-101226140D02*
X125001140Y-100950570D01*
X125001140Y-100950570D02*
X125001140Y-100000000D01*
X125001140Y-100000000D02*
X126275560Y-100000000D01*
X126275560Y-100000000D02*
X126775560Y-99500000D01*
X126775560Y-99500000D02*
X128725000Y-99500000D01*
X133500000Y-113750000D02*
X133500000Y-113725000D01*
X135042841Y-112182159D02*
X135121142Y-112182159D01*
X133500000Y-113725000D02*
X135042841Y-112182159D01*
X129750000Y-98500000D02*
X129725000Y-98500000D01*
X129725000Y-98500000D02*
X128725000Y-99500000D01*
X129750000Y-98500000D02*
X131974874Y-98500000D01*
X131974874Y-98500000D02*
X133706928Y-100232054D01*
X130524948Y-107585965D02*
X131125988Y-106984925D01*
X131125988Y-106984925D02*
X131984925Y-106984925D01*
X131984925Y-106984925D02*
X132500000Y-107500000D01*
X140353732Y-101292715D02*
X139743879Y-101902568D01*
X139743879Y-101902568D02*
X139743879Y-103256121D01*
D38*
X138250000Y-104750000D02*
X139743879Y-103256121D01*
X136750000Y-106250000D02*
X138250000Y-104750000D01*
X149000000Y-105750000D02*
X148000000Y-105750000D01*
X148000000Y-105750000D02*
X147250000Y-106500000D01*
X151000000Y-105750000D02*
X149000000Y-105750000D01*
X153000000Y-105750000D02*
X151000000Y-105750000D01*
X154500000Y-107000000D02*
X154250000Y-107000000D01*
X154250000Y-107000000D02*
X153000000Y-105750000D01*
D37*
X142828606Y-107232412D02*
X142096194Y-106500000D01*
X142096194Y-106500000D02*
X141750000Y-106500000D01*
X141396625Y-108646625D02*
X140500000Y-107750000D01*
X140250000Y-108250000D02*
X140000000Y-108000000D01*
X141060839Y-109000179D02*
X140310660Y-108250000D01*
X140310660Y-108250000D02*
X140250000Y-108250000D01*
D38*
X173500000Y-111750000D02*
X173500000Y-113250000D01*
X169000000Y-111272280D02*
X169000000Y-113250000D01*
X166000000Y-111272280D02*
X166000000Y-113250000D01*
X163000000Y-111272280D02*
X163000000Y-113250000D01*
X171550040Y-107770000D02*
X170770000Y-107770000D01*
X170770000Y-107770000D02*
X170500000Y-107500000D01*
X173449960Y-107770000D02*
X174230000Y-107770000D01*
X174230000Y-107770000D02*
X174500000Y-107500000D01*
X167500000Y-99750000D02*
X167500000Y-100000000D01*
X167500000Y-100000000D02*
X166500000Y-101000000D01*
X169800000Y-99865000D02*
X168635000Y-99865000D01*
X168635000Y-99865000D02*
X167500000Y-101000000D01*
X167500000Y-102000000D02*
X167500000Y-101000000D01*
X169800000Y-101135000D02*
X167635000Y-101135000D01*
X167635000Y-101135000D02*
X167500000Y-101000000D01*
X169800000Y-102405000D02*
X167905000Y-102405000D01*
X167905000Y-102405000D02*
X167500000Y-102000000D01*
D37*
X134414035Y-99524948D02*
X133500000Y-98610913D01*
X133500000Y-98610913D02*
X133500000Y-98000000D01*
D38*
X136750000Y-106250000D02*
X136750000Y-108250000D01*
X139743879Y-103256121D02*
X139000000Y-104000000D01*
X128000000Y-102750000D02*
X129250000Y-102750000D01*
X129250000Y-102750000D02*
X129500000Y-102500000D01*
X125750000Y-104000000D02*
X125750000Y-104250000D01*
X125750000Y-104250000D02*
X127000000Y-105500000D01*
X128000000Y-106750000D02*
X128000000Y-106500000D01*
X128000000Y-106500000D02*
X127000000Y-105500000D01*
X121998860Y-100000000D02*
X121998860Y-101498860D01*
X121998860Y-101498860D02*
X122000000Y-101500000D01*
X154500000Y-112250000D02*
X154500000Y-112900000D01*
X154500000Y-107750000D02*
X154500000Y-107000000D01*
X158500000Y-112250000D02*
X159250000Y-112250000D01*
X151499100Y-118414611D02*
X150335389Y-118414611D01*
X150335389Y-118414611D02*
X150000000Y-118750000D01*
X149251140Y-118001140D02*
X150000000Y-118750000D01*
X148500000Y-118001140D02*
X149251140Y-118001140D01*
X146500000Y-118750000D02*
X147751140Y-118750000D01*
X147751140Y-118750000D02*
X148500000Y-118001140D01*
X144000000Y-118001140D02*
X144751140Y-118001140D01*
X144751140Y-118001140D02*
X145500000Y-118750000D01*
X146500000Y-118750000D02*
X145500000Y-118750000D01*
X142000000Y-118750000D02*
X143251140Y-118750000D01*
X143251140Y-118750000D02*
X144000000Y-118001140D01*
X142000000Y-118750000D02*
X140750000Y-118750000D01*
X140750000Y-118750000D02*
X140500000Y-118500000D01*
X139500000Y-118250000D02*
X140250000Y-118250000D01*
X140250000Y-118250000D02*
X140500000Y-118500000D01*
X137650000Y-118425000D02*
X139325000Y-118425000D01*
X139325000Y-118425000D02*
X139500000Y-118250000D01*
X176630000Y-94770000D02*
X176630000Y-96080000D01*
X169010000Y-92230000D02*
X169010000Y-90920000D01*
X163930000Y-92230000D02*
X163930000Y-90920000D01*
X158850000Y-94770000D02*
X158850000Y-96080000D01*
X151230000Y-92230000D02*
X151230000Y-90920000D01*
X143610000Y-92230000D02*
X143610000Y-90920000D01*
X138530000Y-94770000D02*
X138530000Y-96080000D01*
X133450000Y-90920000D02*
X133450000Y-92230000D01*
X146750000Y-112000000D02*
X146750000Y-112250000D01*
X146750000Y-112250000D02*
X147500000Y-113000000D01*
D37*
X135350000Y-116575000D02*
X135350000Y-115650000D01*
X135350000Y-115650000D02*
X135500000Y-115500000D01*
X133500000Y-116750000D02*
X135175000Y-116750000D01*
X135175000Y-116750000D02*
X135350000Y-116575000D01*
X133500000Y-115250000D02*
X133250000Y-115250000D01*
X133250000Y-115250000D02*
X132500000Y-116000000D01*
X133500000Y-116750000D02*
X133250000Y-116750000D01*
X133250000Y-116750000D02*
X132500000Y-116000000D01*
X128525000Y-118200000D02*
X127800000Y-118200000D01*
X127800000Y-118200000D02*
X127500000Y-118500000D01*
X128750000Y-111000000D02*
X128000000Y-111000000D01*
X130171394Y-103767588D02*
X129500000Y-103096194D01*
X129500000Y-103096194D02*
X129500000Y-102500000D01*
X128250000Y-100500000D02*
X127500000Y-100500000D01*
X128250000Y-98500000D02*
X127500000Y-98500000D01*
X144750000Y-100500000D02*
X145500000Y-100500000D01*
X144750000Y-98500000D02*
X145500000Y-98500000D01*
D38*
X139750000Y-98500000D02*
X143250000Y-98500000D01*
D37*
X138903806Y-98500000D02*
X139750000Y-98500000D01*
D38*
X137000000Y-100403806D02*
X133903806Y-103500000D01*
D37*
X138232412Y-99171394D02*
X137000000Y-100403806D01*
X143389087Y-108500000D02*
X144520000Y-108500000D01*
X144520000Y-108500000D02*
X145470000Y-109450000D01*
X145470000Y-109450000D02*
X146400000Y-109450000D01*
D38*
X130475000Y-116025000D02*
X132000000Y-114500000D01*
X130475000Y-118200000D02*
X130475000Y-116025000D01*
X133500000Y-108146447D02*
X133500000Y-108250000D01*
X133500000Y-108250000D02*
X135000000Y-109750000D01*
X133500000Y-106500000D02*
X133500000Y-108146447D01*
D37*
X133500000Y-108146447D02*
X132292715Y-109353732D01*
D38*
X133903806Y-103500000D02*
X133500000Y-103500000D01*
D37*
X143389087Y-108500000D02*
X143076092Y-108187005D01*
X143076092Y-108187005D02*
X142475052Y-107585965D01*
D38*
X145000000Y-112000000D02*
X144250000Y-112000000D01*
X145500000Y-112500000D02*
X145000000Y-112000000D01*
X145500000Y-112450000D02*
X145500000Y-112500000D01*
X145500000Y-111000000D02*
X145500000Y-110350000D01*
X145500000Y-110350000D02*
X146400000Y-109450000D01*
X145500000Y-112500000D02*
X146500000Y-113500000D01*
X146500000Y-113500000D02*
X146500000Y-114250000D01*
X145500000Y-111000000D02*
X145500000Y-112500000D01*
X141750000Y-114250000D02*
X141000000Y-113500000D01*
X121250700Y-107000000D02*
X121250700Y-105500000D01*
X121250700Y-105500000D02*
X121250700Y-104000000D01*
X128000000Y-108250000D02*
X128000000Y-108225000D01*
X128000000Y-108225000D02*
X127000000Y-107225000D01*
X127000000Y-107225000D02*
X127000000Y-106500000D01*
X127000000Y-106500000D02*
X126000000Y-105500000D01*
X126000000Y-105500000D02*
X121250700Y-105500000D01*
D37*
X130171394Y-107232412D02*
X129153806Y-108250000D01*
D38*
X129153806Y-108250000D02*
X128000000Y-108250000D01*
X146500000Y-114250000D02*
X146250000Y-114250000D01*
X142000000Y-114250000D02*
X141750000Y-114250000D01*
X143250000Y-100500000D02*
X143250000Y-99750000D01*
X143250000Y-99750000D02*
X143000000Y-99500000D01*
D37*
X130171394Y-107232412D02*
X130903806Y-106500000D01*
D38*
X130903806Y-106500000D02*
X133500000Y-106500000D01*
X133500000Y-103500000D02*
X133439340Y-103500000D01*
D37*
X133439340Y-103500000D02*
X131939161Y-101999821D01*
D38*
X143250000Y-98500000D02*
X143250000Y-99250000D01*
X143250000Y-99250000D02*
X143000000Y-99500000D01*
X121250700Y-109000000D02*
X121250700Y-107000000D01*
X121250000Y-111500000D02*
X121250000Y-109000700D01*
X121250000Y-109000700D02*
X121250700Y-109000000D01*
D37*
X138903806Y-98500000D02*
X138232412Y-99171394D01*
X142121499Y-103060482D02*
X143250000Y-101931981D01*
X143250000Y-101931981D02*
X143250000Y-100500000D01*
X129750000Y-100500000D02*
X130439340Y-100500000D01*
X130439340Y-100500000D02*
X131939161Y-101999821D01*
X130250000Y-111000000D02*
X130275000Y-111000000D01*
X130275000Y-111000000D02*
X130850000Y-110425000D01*
X130850000Y-110425000D02*
X131221447Y-110425000D01*
X131221447Y-110425000D02*
X131691675Y-109954772D01*
X131691675Y-109954772D02*
X132292715Y-109353732D01*
D39*
X159000000Y-101000000D02*
X160750000Y-101000000D01*
D37*
X171500000Y-111750000D02*
X171300000Y-111750000D01*
X171300000Y-111750000D02*
X170350570Y-110800570D01*
X170350570Y-110800570D02*
X170350570Y-109944420D01*
X170350570Y-109944420D02*
X169000000Y-108593850D01*
X169000000Y-108593850D02*
X169000000Y-108270000D01*
D38*
X159000000Y-101000000D02*
X159000000Y-100250000D01*
D37*
X148600000Y-109450000D02*
X147926398Y-109450000D01*
X147926398Y-109450000D02*
X147642999Y-109166601D01*
X147642999Y-109166601D02*
X147642999Y-107833399D01*
X147642999Y-107833399D02*
X147926398Y-107550000D01*
X147926398Y-107550000D02*
X148600000Y-107550000D01*
D39*
X150549240Y-111000000D02*
X150550000Y-110999240D01*
D38*
X141620557Y-110267004D02*
X141620557Y-112234159D01*
X141620557Y-112234159D02*
X142386398Y-113000000D01*
X142386398Y-113000000D02*
X144750000Y-113000000D01*
X144750000Y-113000000D02*
X145650000Y-113900000D01*
X146300000Y-115750000D02*
X146500000Y-115750000D01*
X145650000Y-113900000D02*
X145650000Y-115100000D01*
X145650000Y-115100000D02*
X146300000Y-115750000D01*
D37*
X141620557Y-110267004D02*
X141308325Y-109954772D01*
X141308325Y-109954772D02*
X140707285Y-109353732D01*
D38*
X146500000Y-115750000D02*
X147748860Y-115750000D01*
X147748860Y-115750000D02*
X148500000Y-114998860D01*
X146500000Y-117250000D02*
X146500000Y-115750000D01*
D37*
X139750000Y-112500000D02*
X139750000Y-111931981D01*
X139750000Y-111931981D02*
X138939518Y-111121499D01*
D38*
X139750000Y-114350000D02*
X139750000Y-112500000D01*
X142000000Y-115750000D02*
X141150000Y-115750000D01*
X141150000Y-115750000D02*
X139750000Y-114350000D01*
X142000000Y-115750000D02*
X142000000Y-117250000D01*
X142000000Y-115750000D02*
X143248860Y-115750000D01*
X143248860Y-115750000D02*
X144000000Y-114998860D01*
X141800000Y-115750000D02*
X142000000Y-115750000D01*
D37*
X136747599Y-115716480D02*
X138833452Y-113630627D01*
X138833452Y-113630627D02*
X138833452Y-112429646D01*
X138833452Y-112429646D02*
X138232412Y-111828606D01*
X135475000Y-118425000D02*
X136747599Y-117152401D01*
X136747599Y-117152401D02*
X136747599Y-115716480D01*
X135350000Y-118425000D02*
X133675000Y-118425000D01*
X133675000Y-118425000D02*
X133500000Y-118250000D01*
X135350000Y-118425000D02*
X135475000Y-118425000D01*
X137650000Y-116575000D02*
X139325000Y-116575000D01*
X139325000Y-116575000D02*
X139500000Y-116750000D01*
X137500000Y-115700000D02*
X137500000Y-115462461D01*
X139187005Y-112076092D02*
X138585965Y-111475052D01*
X137500000Y-115462461D02*
X139187005Y-113775456D01*
X139187005Y-113775456D02*
X139187005Y-112076092D01*
X137650000Y-116575000D02*
X137650000Y-115850000D01*
X137650000Y-115850000D02*
X137500000Y-115700000D01*
X131585608Y-108646625D02*
X130984568Y-109247665D01*
X130984568Y-109247665D02*
X127106267Y-109247665D01*
X127106267Y-109247665D02*
X125750000Y-107891398D01*
X125750000Y-107891398D02*
X125750000Y-107650000D01*
X125750000Y-107650000D02*
X125750000Y-107000000D01*
X125750000Y-109000000D02*
X126200000Y-109000000D01*
X126200000Y-109000000D02*
X126801219Y-109601219D01*
X126801219Y-109601219D02*
X131338121Y-109601219D01*
X131338121Y-109601219D02*
X131939161Y-109000179D01*
X180000000Y-111280000D02*
X182980000Y-111280000D01*
X182980000Y-106200000D02*
X180000000Y-106200000D01*
X128370000Y-94770000D02*
X128370000Y-96080000D01*
D39*
X130910000Y-90920000D02*
X130910000Y-92230000D01*
X128370000Y-90920000D02*
X128370000Y-92230000D01*
D37*
X130910000Y-94770000D02*
X130910000Y-96080000D01*
X133450000Y-94770000D02*
X133450000Y-96080000D01*
X148500000Y-99314319D02*
X148500000Y-97750000D01*
X143182159Y-104121142D02*
X143693177Y-104121142D01*
X143693177Y-104121142D02*
X148500000Y-99314319D01*
X135990000Y-94770000D02*
X135990000Y-96080000D01*
X133353375Y-100585608D02*
X133954415Y-101186648D01*
X133954415Y-101186648D02*
X134169959Y-101186648D01*
X134169959Y-101186648D02*
X136992401Y-98364206D01*
X136992401Y-98364206D02*
X136992401Y-93232401D01*
X136992401Y-93232401D02*
X136739999Y-92979999D01*
X136739999Y-92979999D02*
X135990000Y-92230000D01*
X135990000Y-90920000D02*
X135990000Y-92230000D01*
X132999821Y-100939161D02*
X133600861Y-101540201D01*
X137780001Y-92979999D02*
X138530000Y-92230000D01*
X133600861Y-101540201D02*
X134314789Y-101540201D01*
X134314789Y-101540201D02*
X137527599Y-98327391D01*
X137527599Y-98327391D02*
X137527599Y-93232401D01*
X137527599Y-93232401D02*
X137780001Y-92979999D01*
X138530000Y-90920000D02*
X138530000Y-92230000D01*
X141070000Y-94770000D02*
X141070000Y-96080000D01*
X141070000Y-92230000D02*
X141070000Y-90920000D01*
X142475052Y-103414035D02*
X143076092Y-102812995D01*
X143076092Y-102812995D02*
X144004559Y-102812995D01*
X144004559Y-102812995D02*
X146052401Y-100765153D01*
X146052401Y-100765153D02*
X146052401Y-97877901D01*
X146052401Y-97877901D02*
X144254500Y-96080000D01*
X144254500Y-96080000D02*
X143610000Y-96080000D01*
X143610000Y-94770000D02*
X143610000Y-96080000D01*
X143610000Y-95830660D02*
X143610000Y-94770000D01*
X146150000Y-94770000D02*
X146150000Y-96080000D01*
X146150000Y-92230000D02*
X146150000Y-90920000D01*
X177250000Y-97520000D02*
X178470000Y-97520000D01*
X178470000Y-97520000D02*
X179250000Y-98300000D01*
X179250000Y-98300000D02*
X179250000Y-98500000D01*
X175200000Y-98595000D02*
X176175000Y-98595000D01*
X176175000Y-98595000D02*
X177250000Y-97520000D01*
X168825000Y-97500000D02*
X173130000Y-97500000D01*
X173130000Y-97500000D02*
X174225000Y-98595000D01*
X174225000Y-98595000D02*
X175200000Y-98595000D01*
X167500000Y-98250000D02*
X168075000Y-98250000D01*
X168075000Y-98250000D02*
X168825000Y-97500000D01*
X179250000Y-100500000D02*
X179250000Y-98500000D01*
X179250000Y-102500000D02*
X179250000Y-101850000D01*
X179250000Y-101850000D02*
X179250000Y-100500000D01*
X152000000Y-97500000D02*
X166175000Y-97500000D01*
X166175000Y-97500000D02*
X166925000Y-98250000D01*
X166925000Y-98250000D02*
X167500000Y-98250000D01*
X148690000Y-94770000D02*
X148690000Y-96080000D01*
X142828606Y-103767588D02*
X143430789Y-103165405D01*
X143430789Y-103165405D02*
X144150532Y-103165405D01*
X144150532Y-103165405D02*
X147500000Y-99815937D01*
X147500000Y-99815937D02*
X147500000Y-93420000D01*
X147500000Y-93420000D02*
X148690000Y-92230000D01*
X148690000Y-92230000D02*
X148690000Y-90920000D01*
X151230000Y-94770000D02*
X151230000Y-96080000D01*
X153770000Y-94770000D02*
X153770000Y-96080000D01*
X154095678Y-108500000D02*
X158858602Y-108500000D01*
X158858602Y-108500000D02*
X159500000Y-107858602D01*
X143182159Y-106878858D02*
X144430702Y-108127401D01*
X144430702Y-108127401D02*
X147122599Y-108127401D01*
X147122599Y-108127401D02*
X147290589Y-107959411D01*
X147290589Y-107959411D02*
X147290589Y-107550089D01*
X147290589Y-107550089D02*
X147868079Y-106972599D01*
X147868079Y-106972599D02*
X153331921Y-106972599D01*
X153331921Y-106972599D02*
X153797599Y-107438277D01*
X153797599Y-107438277D02*
X153797599Y-108201921D01*
X153797599Y-108201921D02*
X154095678Y-108500000D01*
X159500000Y-107858602D02*
X159500000Y-102281225D01*
X158000000Y-100781225D02*
X158000000Y-100404322D01*
X159500000Y-102281225D02*
X158000000Y-100781225D01*
X158000000Y-100404322D02*
X157543277Y-99947599D01*
X157543277Y-99947599D02*
X156449217Y-99947599D01*
X156449217Y-99947599D02*
X155501618Y-99000000D01*
X155501618Y-99000000D02*
X150682446Y-99000000D01*
X150682446Y-99000000D02*
X150000000Y-98317554D01*
X150000000Y-98317554D02*
X150000000Y-94554038D01*
X150000000Y-94554038D02*
X151054038Y-93500000D01*
X151054038Y-93500000D02*
X152500000Y-93500000D01*
X152500000Y-93500000D02*
X153770000Y-92230000D01*
X153770000Y-92230000D02*
X153770000Y-90920000D01*
X156310000Y-94770000D02*
X156310000Y-96080000D01*
X156310000Y-92230000D02*
X156310000Y-90920000D01*
X158850000Y-92230000D02*
X158850000Y-90920000D01*
X175200000Y-102405000D02*
X174725000Y-102405000D01*
X174725000Y-102405000D02*
X171820000Y-99500000D01*
X171820000Y-99500000D02*
X171500000Y-99500000D01*
X175200000Y-102405000D02*
X177655000Y-102405000D01*
X177655000Y-102405000D02*
X177750000Y-102500000D01*
X161390000Y-94770000D02*
X161390000Y-96080000D01*
X175200000Y-101135000D02*
X174725000Y-101135000D01*
X174725000Y-101135000D02*
X172185009Y-98595009D01*
X172185009Y-98595009D02*
X171500000Y-98595009D01*
X176365000Y-101135000D02*
X177000000Y-100500000D01*
X177000000Y-100500000D02*
X177750000Y-100500000D01*
X175200000Y-101135000D02*
X176365000Y-101135000D01*
X161390000Y-92230000D02*
X161390000Y-90920000D01*
X163930000Y-94770000D02*
X163930000Y-96080000D01*
X166470000Y-94770000D02*
X166470000Y-96080000D01*
X166470000Y-92230000D02*
X166470000Y-90920000D01*
X169010000Y-94770000D02*
X169010000Y-96080000D01*
X171550000Y-94770000D02*
X171550000Y-96080000D01*
X171550000Y-92230000D02*
X171550000Y-90920000D01*
X174090000Y-94770000D02*
X174090000Y-96080000D01*
X174090000Y-92230000D02*
X174090000Y-90920000D01*
X176630000Y-92230000D02*
X176630000Y-90920000D01*
X130054027Y-112147590D02*
X133034391Y-112147590D01*
X133034391Y-112147590D02*
X134060482Y-111121499D01*
X129175000Y-113045678D02*
X129175000Y-113026618D01*
X129175000Y-113026618D02*
X130054027Y-112147590D01*
X124250000Y-111500000D02*
X124250000Y-111300000D01*
X124250000Y-111300000D02*
X125000000Y-110550000D01*
X125000000Y-110550000D02*
X126679322Y-110550000D01*
X126679322Y-110550000D02*
X129175000Y-113045678D01*
X129175000Y-113045678D02*
X129175000Y-113800000D01*
X124250000Y-111500000D02*
X122750000Y-111500000D01*
X128525000Y-113800000D02*
X128525000Y-113300000D01*
X128525000Y-113300000D02*
X126725000Y-111500000D01*
X126725000Y-111500000D02*
X126200000Y-111500000D01*
X126200000Y-111500000D02*
X125750000Y-111500000D01*
X131585608Y-102353375D02*
X132186648Y-102954415D01*
X132186648Y-102954415D02*
X132186648Y-103004202D01*
X132186648Y-103004202D02*
X133234847Y-104052401D01*
X133234847Y-104052401D02*
X134447599Y-104052401D01*
X134447599Y-104052401D02*
X137750000Y-100750000D01*
X173500000Y-110250000D02*
X171500000Y-110250000D01*
X171550040Y-108420240D02*
X171550040Y-110199960D01*
X171550040Y-110199960D02*
X171500000Y-110250000D01*
X150750000Y-98250000D02*
X155250000Y-98250000D01*
X155250000Y-98250000D02*
X156500000Y-99500000D01*
X156500000Y-99500000D02*
X160500000Y-99500000D01*
X160500000Y-99500000D02*
X165500000Y-104500000D01*
X165500000Y-104500000D02*
X170750000Y-104500000D01*
X170750000Y-104500000D02*
X172500000Y-106250000D01*
X172500000Y-106250000D02*
X172500000Y-108044930D01*
X172500000Y-108044930D02*
X172124690Y-108420240D01*
X172124690Y-108420240D02*
X171550040Y-108420240D01*
D39*
X178500000Y-111280000D02*
X177720000Y-111280000D01*
X177720000Y-111280000D02*
X176630000Y-110190000D01*
D38*
X173449960Y-108420240D02*
X174860240Y-108420240D01*
D39*
X174860240Y-108420240D02*
X176630000Y-110190000D01*
D37*
X134767588Y-111828606D02*
X133743784Y-112852410D01*
X133743784Y-112852410D02*
X131847590Y-112852410D01*
X130900000Y-113800000D02*
X130475000Y-113800000D01*
X131847590Y-112852410D02*
X130900000Y-113800000D01*
X130200000Y-112500000D02*
X133389087Y-112500000D01*
X133389087Y-112500000D02*
X134414035Y-111475052D01*
X129825000Y-113800000D02*
X129825000Y-112875000D01*
X129825000Y-112875000D02*
X130200000Y-112500000D01*
X122749300Y-107000000D02*
X124250000Y-107000000D01*
X122749300Y-109000000D02*
X124250000Y-109000000D01*
D39*
X153699100Y-113699100D02*
X155200900Y-113699100D01*
X155200900Y-113699100D02*
X156450000Y-112450000D01*
X156450000Y-112450000D02*
X156500000Y-112450000D01*
X153699100Y-113699100D02*
X152998220Y-112998220D01*
X152998220Y-112998220D02*
X151500000Y-112998220D01*
D38*
X153699100Y-115714611D02*
X153699100Y-113699100D01*
D37*
X151500000Y-112998220D02*
X151500000Y-107976398D01*
X151500000Y-107976398D02*
X151073602Y-107550000D01*
X151073602Y-107550000D02*
X150400000Y-107550000D01*
X154105000Y-110750000D02*
X153855000Y-110500000D01*
X153855000Y-110500000D02*
X152805000Y-109450000D01*
X153549290Y-110500000D02*
X153855000Y-110500000D01*
X152450000Y-110999240D02*
X153050050Y-110999240D01*
X153050050Y-110999240D02*
X153549290Y-110500000D01*
X154500000Y-110750000D02*
X154105000Y-110750000D01*
X152805000Y-109450000D02*
X152600000Y-109450000D01*
X154500000Y-109250000D02*
X153850000Y-109250000D01*
X153850000Y-109250000D02*
X153100000Y-108500000D01*
X153100000Y-108500000D02*
X152600000Y-108500000D01*
X152600000Y-107550000D02*
X152600000Y-108500000D01*
D40*
X157728600Y-113405312D02*
X157728600Y-111771400D01*
X157728600Y-111771400D02*
X158500000Y-111000000D01*
X159228600Y-114905312D02*
X157728600Y-113405312D01*
X158500000Y-111000000D02*
X158500000Y-110550000D01*
X159228600Y-116094688D02*
X159228600Y-114905312D01*
X157400938Y-117922350D02*
X159228600Y-116094688D01*
X154849062Y-117922350D02*
X157400938Y-117922350D01*
X154445500Y-117518788D02*
X154849062Y-117922350D01*
X154349100Y-115714611D02*
X154349100Y-116727111D01*
X154349100Y-116727111D02*
X154445500Y-116823511D01*
X154445500Y-116823511D02*
X154445500Y-117518788D01*
X158500000Y-110550000D02*
X158500000Y-109250000D01*
X158771400Y-115094688D02*
X157271400Y-113594688D01*
X157271400Y-113594688D02*
X157271400Y-111771400D01*
X157271400Y-111771400D02*
X156500000Y-111000000D01*
X156500000Y-111000000D02*
X156500000Y-110550000D01*
X158771400Y-115905312D02*
X158771400Y-115094688D01*
X157211562Y-117465150D02*
X158771400Y-115905312D01*
X155038438Y-117465150D02*
X157211562Y-117465150D01*
X154902700Y-117329412D02*
X155038438Y-117465150D01*
X154999100Y-115714611D02*
X154999100Y-116727111D01*
X154999100Y-116727111D02*
X154902700Y-116823511D01*
X154902700Y-116823511D02*
X154902700Y-117329412D01*
X156500000Y-110550000D02*
X156500000Y-109250000D01*
X138771400Y-106405312D02*
X138771400Y-108801795D01*
X138771400Y-108801795D02*
X140000179Y-110030574D01*
X140000179Y-110030574D02*
X140000179Y-110060839D01*
X139905312Y-105271400D02*
X138771400Y-106405312D01*
X157728600Y-104405312D02*
X156594688Y-103271400D01*
X144905312Y-105271400D02*
X139905312Y-105271400D01*
X158500000Y-107750000D02*
X158500000Y-107075000D01*
X158500000Y-107075000D02*
X157728600Y-106303600D01*
X157728600Y-106303600D02*
X157728600Y-104405312D01*
X146905312Y-103271400D02*
X144905312Y-105271400D01*
X156594688Y-103271400D02*
X146905312Y-103271400D01*
X139228600Y-106594688D02*
X139228600Y-108612417D01*
X139228600Y-108612417D02*
X140323468Y-109707285D01*
X140323468Y-109707285D02*
X140353732Y-109707285D01*
X140094688Y-105728600D02*
X139228600Y-106594688D01*
X156500000Y-107750000D02*
X156500000Y-107075000D01*
X156500000Y-107075000D02*
X157271400Y-106303600D01*
X157271400Y-106303600D02*
X157271400Y-104594688D01*
X145094688Y-105728600D02*
X140094688Y-105728600D01*
X157271400Y-104594688D02*
X156405312Y-103728600D01*
X156405312Y-103728600D02*
X147094688Y-103728600D01*
X147094688Y-103728600D02*
X145094688Y-105728600D01*
D37*
X122749300Y-104000000D02*
X124250000Y-104000000D01*
X177750000Y-98500000D02*
X177040000Y-98500000D01*
X177040000Y-98500000D02*
X175675000Y-99865000D01*
X175675000Y-99865000D02*
X175200000Y-99865000D01*
D41*
G36*
X149584250Y-109449500D02*
X150399500Y-109449500D01*
X150399500Y-109429500D01*
X150400500Y-109429500D01*
X150400500Y-109449500D01*
X150420500Y-109449500D01*
X150420500Y-109450500D01*
X150400500Y-109450500D01*
X150400500Y-110060750D01*
X150495750Y-110156000D01*
X151005786Y-110156000D01*
X151019000Y-110150527D01*
X151019000Y-110218190D01*
X150645750Y-110218190D01*
X150550500Y-110313440D01*
X150550500Y-110998740D01*
X150570500Y-110998740D01*
X150570500Y-110999740D01*
X150550500Y-110999740D01*
X150550500Y-111685040D01*
X150645750Y-111780290D01*
X151019000Y-111780290D01*
X151019000Y-111801394D01*
X149947394Y-112873000D01*
X148181111Y-112873000D01*
X148181118Y-112865135D01*
X148136025Y-112756000D01*
X148154250Y-112756000D01*
X148249500Y-112660750D01*
X148249500Y-112000500D01*
X148250500Y-112000500D01*
X148250500Y-112660750D01*
X148345750Y-112756000D01*
X148725786Y-112756000D01*
X148865820Y-112697996D01*
X148972996Y-112590819D01*
X149031000Y-112450785D01*
X149031000Y-112095750D01*
X148935750Y-112000500D01*
X148250500Y-112000500D01*
X148249500Y-112000500D01*
X148229500Y-112000500D01*
X148229500Y-111999500D01*
X148249500Y-111999500D01*
X148249500Y-111339250D01*
X148250500Y-111339250D01*
X148250500Y-111999500D01*
X148935750Y-111999500D01*
X149031000Y-111904250D01*
X149031000Y-111549215D01*
X148972996Y-111409181D01*
X148865820Y-111302004D01*
X148725786Y-111244000D01*
X148345750Y-111244000D01*
X148250500Y-111339250D01*
X148249500Y-111339250D01*
X148154250Y-111244000D01*
X147774214Y-111244000D01*
X147634180Y-111302004D01*
X147627000Y-111309184D01*
X147627000Y-111094990D01*
X149768950Y-111094990D01*
X149768950Y-111475075D01*
X149826954Y-111615109D01*
X149934130Y-111722286D01*
X150074164Y-111780290D01*
X150454250Y-111780290D01*
X150549500Y-111685040D01*
X150549500Y-110999740D01*
X149864200Y-110999740D01*
X149768950Y-111094990D01*
X147627000Y-111094990D01*
X147627000Y-110523405D01*
X149768950Y-110523405D01*
X149768950Y-110903490D01*
X149864200Y-110998740D01*
X150549500Y-110998740D01*
X150549500Y-110313440D01*
X150454250Y-110218190D01*
X150074164Y-110218190D01*
X149934130Y-110276194D01*
X149826954Y-110383371D01*
X149768950Y-110523405D01*
X147627000Y-110523405D01*
X147627000Y-109552606D01*
X147729104Y-109450502D01*
X147784248Y-109450502D01*
X147689000Y-109545750D01*
X147689000Y-109850785D01*
X147747004Y-109990819D01*
X147854180Y-110097996D01*
X147994214Y-110156000D01*
X148504250Y-110156000D01*
X148599500Y-110060750D01*
X148599500Y-109450500D01*
X148600500Y-109450500D01*
X148600500Y-110060750D01*
X148695750Y-110156000D01*
X149205786Y-110156000D01*
X149345820Y-110097996D01*
X149452996Y-109990819D01*
X149500000Y-109877341D01*
X149547004Y-109990819D01*
X149654180Y-110097996D01*
X149794214Y-110156000D01*
X150304250Y-110156000D01*
X150399500Y-110060750D01*
X150399500Y-109450500D01*
X149584250Y-109450500D01*
X149500000Y-109534750D01*
X149415750Y-109450500D01*
X148600500Y-109450500D01*
X148599500Y-109450500D01*
X148579500Y-109450500D01*
X148579500Y-109449500D01*
X148599500Y-109449500D01*
X148599500Y-109429500D01*
X148600500Y-109429500D01*
X148600500Y-109449500D01*
X149415750Y-109449500D01*
X149500000Y-109365250D01*
X149584250Y-109449500D01*
X149584250Y-109449500D01*
G37*
X149584250Y-109449500D02*
X150399500Y-109449500D01*
X150399500Y-109429500D01*
X150400500Y-109429500D01*
X150400500Y-109449500D01*
X150420500Y-109449500D01*
X150420500Y-109450500D01*
X150400500Y-109450500D01*
X150400500Y-110060750D01*
X150495750Y-110156000D01*
X151005786Y-110156000D01*
X151019000Y-110150527D01*
X151019000Y-110218190D01*
X150645750Y-110218190D01*
X150550500Y-110313440D01*
X150550500Y-110998740D01*
X150570500Y-110998740D01*
X150570500Y-110999740D01*
X150550500Y-110999740D01*
X150550500Y-111685040D01*
X150645750Y-111780290D01*
X151019000Y-111780290D01*
X151019000Y-111801394D01*
X149947394Y-112873000D01*
X148181111Y-112873000D01*
X148181118Y-112865135D01*
X148136025Y-112756000D01*
X148154250Y-112756000D01*
X148249500Y-112660750D01*
X148249500Y-112000500D01*
X148250500Y-112000500D01*
X148250500Y-112660750D01*
X148345750Y-112756000D01*
X148725786Y-112756000D01*
X148865820Y-112697996D01*
X148972996Y-112590819D01*
X149031000Y-112450785D01*
X149031000Y-112095750D01*
X148935750Y-112000500D01*
X148250500Y-112000500D01*
X148249500Y-112000500D01*
X148229500Y-112000500D01*
X148229500Y-111999500D01*
X148249500Y-111999500D01*
X148249500Y-111339250D01*
X148250500Y-111339250D01*
X148250500Y-111999500D01*
X148935750Y-111999500D01*
X149031000Y-111904250D01*
X149031000Y-111549215D01*
X148972996Y-111409181D01*
X148865820Y-111302004D01*
X148725786Y-111244000D01*
X148345750Y-111244000D01*
X148250500Y-111339250D01*
X148249500Y-111339250D01*
X148154250Y-111244000D01*
X147774214Y-111244000D01*
X147634180Y-111302004D01*
X147627000Y-111309184D01*
X147627000Y-111094990D01*
X149768950Y-111094990D01*
X149768950Y-111475075D01*
X149826954Y-111615109D01*
X149934130Y-111722286D01*
X150074164Y-111780290D01*
X150454250Y-111780290D01*
X150549500Y-111685040D01*
X150549500Y-110999740D01*
X149864200Y-110999740D01*
X149768950Y-111094990D01*
X147627000Y-111094990D01*
X147627000Y-110523405D01*
X149768950Y-110523405D01*
X149768950Y-110903490D01*
X149864200Y-110998740D01*
X150549500Y-110998740D01*
X150549500Y-110313440D01*
X150454250Y-110218190D01*
X150074164Y-110218190D01*
X149934130Y-110276194D01*
X149826954Y-110383371D01*
X149768950Y-110523405D01*
X147627000Y-110523405D01*
X147627000Y-109552606D01*
X147729104Y-109450502D01*
X147784248Y-109450502D01*
X147689000Y-109545750D01*
X147689000Y-109850785D01*
X147747004Y-109990819D01*
X147854180Y-110097996D01*
X147994214Y-110156000D01*
X148504250Y-110156000D01*
X148599500Y-110060750D01*
X148599500Y-109450500D01*
X148600500Y-109450500D01*
X148600500Y-110060750D01*
X148695750Y-110156000D01*
X149205786Y-110156000D01*
X149345820Y-110097996D01*
X149452996Y-109990819D01*
X149500000Y-109877341D01*
X149547004Y-109990819D01*
X149654180Y-110097996D01*
X149794214Y-110156000D01*
X150304250Y-110156000D01*
X150399500Y-110060750D01*
X150399500Y-109450500D01*
X149584250Y-109450500D01*
X149500000Y-109534750D01*
X149415750Y-109450500D01*
X148600500Y-109450500D01*
X148599500Y-109450500D01*
X148579500Y-109450500D01*
X148579500Y-109449500D01*
X148599500Y-109449500D01*
X148599500Y-109429500D01*
X148600500Y-109429500D01*
X148600500Y-109449500D01*
X149415750Y-109449500D01*
X149500000Y-109365250D01*
X149584250Y-109449500D01*
G36*
X150815077Y-113398270D02*
X150834559Y-113501809D01*
X150895751Y-113596904D01*
X150989118Y-113660699D01*
X151099950Y-113683143D01*
X151900050Y-113683143D01*
X152003589Y-113663661D01*
X152098684Y-113602469D01*
X152115663Y-113577620D01*
X152758224Y-113577620D01*
X153219700Y-114039096D01*
X153219700Y-115012584D01*
X153214227Y-115039611D01*
X153214227Y-115082579D01*
X152977139Y-114923961D01*
X152649600Y-114858611D01*
X152499600Y-114858611D01*
X152499600Y-115714111D01*
X152519600Y-115714111D01*
X152519600Y-115715111D01*
X152499600Y-115715111D01*
X152499600Y-116570611D01*
X152649600Y-116570611D01*
X152977139Y-116505261D01*
X153214227Y-116346643D01*
X153214227Y-116389611D01*
X153233709Y-116493150D01*
X153294901Y-116588245D01*
X153388268Y-116652040D01*
X153499100Y-116674484D01*
X153899100Y-116674484D01*
X153917300Y-116671059D01*
X153917300Y-116727111D01*
X153950169Y-116892354D01*
X154013700Y-116987435D01*
X154013700Y-117518788D01*
X154046569Y-117684031D01*
X154106827Y-117774214D01*
X154140171Y-117824117D01*
X154543733Y-118227679D01*
X154683819Y-118321281D01*
X154711235Y-118326735D01*
X154849062Y-118354151D01*
X154849067Y-118354150D01*
X157400938Y-118354150D01*
X157566181Y-118321281D01*
X157618100Y-118286590D01*
X157618100Y-118414111D01*
X158498600Y-118414111D01*
X158498600Y-118394111D01*
X158499600Y-118394111D01*
X158499600Y-118414111D01*
X159380100Y-118414111D01*
X159380100Y-118139111D01*
X159312847Y-117802005D01*
X159121708Y-117516296D01*
X158835782Y-117325481D01*
X158658471Y-117275475D01*
X159533926Y-116400019D01*
X159533929Y-116400017D01*
X159623000Y-116266712D01*
X159623000Y-118697394D01*
X159317749Y-119002645D01*
X159380100Y-118690111D01*
X159380100Y-118415111D01*
X158499600Y-118415111D01*
X158499600Y-118435111D01*
X158498600Y-118435111D01*
X158498600Y-118415111D01*
X157618100Y-118415111D01*
X157618100Y-118690111D01*
X157685353Y-119027217D01*
X157876492Y-119312926D01*
X157966510Y-119373000D01*
X152031690Y-119373000D01*
X152121708Y-119312926D01*
X152312847Y-119027217D01*
X152380100Y-118690111D01*
X152380100Y-118415111D01*
X151499600Y-118415111D01*
X151499600Y-118435111D01*
X151498600Y-118435111D01*
X151498600Y-118415111D01*
X150618100Y-118415111D01*
X150618100Y-118690111D01*
X150685353Y-119027217D01*
X150876492Y-119312926D01*
X150966510Y-119373000D01*
X150552606Y-119373000D01*
X149877000Y-118697394D01*
X149877000Y-118139111D01*
X150618100Y-118139111D01*
X150618100Y-118414111D01*
X151498600Y-118414111D01*
X151498600Y-117353861D01*
X151499600Y-117353861D01*
X151499600Y-118414111D01*
X152380100Y-118414111D01*
X152380100Y-118139111D01*
X152312847Y-117802005D01*
X152121708Y-117516296D01*
X151835782Y-117325481D01*
X151637413Y-117269536D01*
X151499600Y-117353861D01*
X151498600Y-117353861D01*
X151360787Y-117269536D01*
X151162418Y-117325481D01*
X150876492Y-117516296D01*
X150685353Y-117802005D01*
X150618100Y-118139111D01*
X149877000Y-118139111D01*
X149877000Y-115849013D01*
X151503717Y-115849013D01*
X151558068Y-116041726D01*
X151743463Y-116319541D01*
X152021061Y-116505261D01*
X152348600Y-116570611D01*
X152498600Y-116570611D01*
X152498600Y-115715111D01*
X151588350Y-115715111D01*
X151503717Y-115849013D01*
X149877000Y-115849013D01*
X149877000Y-115580209D01*
X151503717Y-115580209D01*
X151588350Y-115714111D01*
X152498600Y-115714111D01*
X152498600Y-114858611D01*
X152348600Y-114858611D01*
X152021061Y-114923961D01*
X151743463Y-115109681D01*
X151558068Y-115387496D01*
X151503717Y-115580209D01*
X149877000Y-115580209D01*
X149877000Y-114250000D01*
X149866994Y-114200590D01*
X149839803Y-114160197D01*
X149519543Y-113839937D01*
X149515961Y-113820901D01*
X149454769Y-113725806D01*
X149361402Y-113662011D01*
X149336593Y-113656987D01*
X149089803Y-113410197D01*
X149047789Y-113382334D01*
X149040959Y-113381000D01*
X150000000Y-113381000D01*
X150143367Y-113352997D01*
X150269408Y-113269408D01*
X150815077Y-112723739D01*
X150815077Y-113398270D01*
X150815077Y-113398270D01*
G37*
X150815077Y-113398270D02*
X150834559Y-113501809D01*
X150895751Y-113596904D01*
X150989118Y-113660699D01*
X151099950Y-113683143D01*
X151900050Y-113683143D01*
X152003589Y-113663661D01*
X152098684Y-113602469D01*
X152115663Y-113577620D01*
X152758224Y-113577620D01*
X153219700Y-114039096D01*
X153219700Y-115012584D01*
X153214227Y-115039611D01*
X153214227Y-115082579D01*
X152977139Y-114923961D01*
X152649600Y-114858611D01*
X152499600Y-114858611D01*
X152499600Y-115714111D01*
X152519600Y-115714111D01*
X152519600Y-115715111D01*
X152499600Y-115715111D01*
X152499600Y-116570611D01*
X152649600Y-116570611D01*
X152977139Y-116505261D01*
X153214227Y-116346643D01*
X153214227Y-116389611D01*
X153233709Y-116493150D01*
X153294901Y-116588245D01*
X153388268Y-116652040D01*
X153499100Y-116674484D01*
X153899100Y-116674484D01*
X153917300Y-116671059D01*
X153917300Y-116727111D01*
X153950169Y-116892354D01*
X154013700Y-116987435D01*
X154013700Y-117518788D01*
X154046569Y-117684031D01*
X154106827Y-117774214D01*
X154140171Y-117824117D01*
X154543733Y-118227679D01*
X154683819Y-118321281D01*
X154711235Y-118326735D01*
X154849062Y-118354151D01*
X154849067Y-118354150D01*
X157400938Y-118354150D01*
X157566181Y-118321281D01*
X157618100Y-118286590D01*
X157618100Y-118414111D01*
X158498600Y-118414111D01*
X158498600Y-118394111D01*
X158499600Y-118394111D01*
X158499600Y-118414111D01*
X159380100Y-118414111D01*
X159380100Y-118139111D01*
X159312847Y-117802005D01*
X159121708Y-117516296D01*
X158835782Y-117325481D01*
X158658471Y-117275475D01*
X159533926Y-116400019D01*
X159533929Y-116400017D01*
X159623000Y-116266712D01*
X159623000Y-118697394D01*
X159317749Y-119002645D01*
X159380100Y-118690111D01*
X159380100Y-118415111D01*
X158499600Y-118415111D01*
X158499600Y-118435111D01*
X158498600Y-118435111D01*
X158498600Y-118415111D01*
X157618100Y-118415111D01*
X157618100Y-118690111D01*
X157685353Y-119027217D01*
X157876492Y-119312926D01*
X157966510Y-119373000D01*
X152031690Y-119373000D01*
X152121708Y-119312926D01*
X152312847Y-119027217D01*
X152380100Y-118690111D01*
X152380100Y-118415111D01*
X151499600Y-118415111D01*
X151499600Y-118435111D01*
X151498600Y-118435111D01*
X151498600Y-118415111D01*
X150618100Y-118415111D01*
X150618100Y-118690111D01*
X150685353Y-119027217D01*
X150876492Y-119312926D01*
X150966510Y-119373000D01*
X150552606Y-119373000D01*
X149877000Y-118697394D01*
X149877000Y-118139111D01*
X150618100Y-118139111D01*
X150618100Y-118414111D01*
X151498600Y-118414111D01*
X151498600Y-117353861D01*
X151499600Y-117353861D01*
X151499600Y-118414111D01*
X152380100Y-118414111D01*
X152380100Y-118139111D01*
X152312847Y-117802005D01*
X152121708Y-117516296D01*
X151835782Y-117325481D01*
X151637413Y-117269536D01*
X151499600Y-117353861D01*
X151498600Y-117353861D01*
X151360787Y-117269536D01*
X151162418Y-117325481D01*
X150876492Y-117516296D01*
X150685353Y-117802005D01*
X150618100Y-118139111D01*
X149877000Y-118139111D01*
X149877000Y-115849013D01*
X151503717Y-115849013D01*
X151558068Y-116041726D01*
X151743463Y-116319541D01*
X152021061Y-116505261D01*
X152348600Y-116570611D01*
X152498600Y-116570611D01*
X152498600Y-115715111D01*
X151588350Y-115715111D01*
X151503717Y-115849013D01*
X149877000Y-115849013D01*
X149877000Y-115580209D01*
X151503717Y-115580209D01*
X151588350Y-115714111D01*
X152498600Y-115714111D01*
X152498600Y-114858611D01*
X152348600Y-114858611D01*
X152021061Y-114923961D01*
X151743463Y-115109681D01*
X151558068Y-115387496D01*
X151503717Y-115580209D01*
X149877000Y-115580209D01*
X149877000Y-114250000D01*
X149866994Y-114200590D01*
X149839803Y-114160197D01*
X149519543Y-113839937D01*
X149515961Y-113820901D01*
X149454769Y-113725806D01*
X149361402Y-113662011D01*
X149336593Y-113656987D01*
X149089803Y-113410197D01*
X149047789Y-113382334D01*
X149040959Y-113381000D01*
X150000000Y-113381000D01*
X150143367Y-113352997D01*
X150269408Y-113269408D01*
X150815077Y-112723739D01*
X150815077Y-113398270D01*
G36*
X156839600Y-113594688D02*
X156872469Y-113759931D01*
X156946141Y-113870190D01*
X156966071Y-113900017D01*
X158016044Y-114949990D01*
X157977139Y-114923961D01*
X157649600Y-114858611D01*
X157499600Y-114858611D01*
X157499600Y-115714111D01*
X157519600Y-115714111D01*
X157519600Y-115715111D01*
X157499600Y-115715111D01*
X157499600Y-115735111D01*
X157498600Y-115735111D01*
X157498600Y-115715111D01*
X156299600Y-115715111D01*
X156299600Y-116675361D01*
X156394850Y-116770611D01*
X156574885Y-116770611D01*
X156714919Y-116712607D01*
X156822096Y-116605431D01*
X156880100Y-116465397D01*
X156880100Y-116410955D01*
X157021061Y-116505261D01*
X157348600Y-116570611D01*
X157495443Y-116570611D01*
X157032704Y-117033350D01*
X155334500Y-117033350D01*
X155334500Y-116987435D01*
X155398031Y-116892354D01*
X155430900Y-116727111D01*
X155430900Y-116670798D01*
X155449100Y-116674484D01*
X155845158Y-116674484D01*
X155883281Y-116712607D01*
X156023315Y-116770611D01*
X156203350Y-116770611D01*
X156298600Y-116675361D01*
X156298600Y-115715111D01*
X156278600Y-115715111D01*
X156278600Y-115714111D01*
X156298600Y-115714111D01*
X156298600Y-114753861D01*
X156299600Y-114753861D01*
X156299600Y-115714111D01*
X157498600Y-115714111D01*
X157498600Y-114858611D01*
X157348600Y-114858611D01*
X157021061Y-114923961D01*
X156880100Y-115018267D01*
X156880100Y-114963825D01*
X156822096Y-114823791D01*
X156714919Y-114716615D01*
X156574885Y-114658611D01*
X156394850Y-114658611D01*
X156299600Y-114753861D01*
X156298600Y-114753861D01*
X156203350Y-114658611D01*
X156023315Y-114658611D01*
X155883281Y-114716615D01*
X155845158Y-114754738D01*
X155449100Y-114754738D01*
X155345561Y-114774220D01*
X155324980Y-114787464D01*
X155309932Y-114777182D01*
X155199100Y-114754738D01*
X154799100Y-114754738D01*
X154695561Y-114774220D01*
X154674980Y-114787464D01*
X154659932Y-114777182D01*
X154549100Y-114754738D01*
X154178500Y-114754738D01*
X154178500Y-114278500D01*
X155200900Y-114278500D01*
X155422627Y-114234396D01*
X155610598Y-114108798D01*
X156734523Y-112984873D01*
X156800000Y-112984873D01*
X156839600Y-112977422D01*
X156839600Y-113594688D01*
X156839600Y-113594688D01*
G37*
X156839600Y-113594688D02*
X156872469Y-113759931D01*
X156946141Y-113870190D01*
X156966071Y-113900017D01*
X158016044Y-114949990D01*
X157977139Y-114923961D01*
X157649600Y-114858611D01*
X157499600Y-114858611D01*
X157499600Y-115714111D01*
X157519600Y-115714111D01*
X157519600Y-115715111D01*
X157499600Y-115715111D01*
X157499600Y-115735111D01*
X157498600Y-115735111D01*
X157498600Y-115715111D01*
X156299600Y-115715111D01*
X156299600Y-116675361D01*
X156394850Y-116770611D01*
X156574885Y-116770611D01*
X156714919Y-116712607D01*
X156822096Y-116605431D01*
X156880100Y-116465397D01*
X156880100Y-116410955D01*
X157021061Y-116505261D01*
X157348600Y-116570611D01*
X157495443Y-116570611D01*
X157032704Y-117033350D01*
X155334500Y-117033350D01*
X155334500Y-116987435D01*
X155398031Y-116892354D01*
X155430900Y-116727111D01*
X155430900Y-116670798D01*
X155449100Y-116674484D01*
X155845158Y-116674484D01*
X155883281Y-116712607D01*
X156023315Y-116770611D01*
X156203350Y-116770611D01*
X156298600Y-116675361D01*
X156298600Y-115715111D01*
X156278600Y-115715111D01*
X156278600Y-115714111D01*
X156298600Y-115714111D01*
X156298600Y-114753861D01*
X156299600Y-114753861D01*
X156299600Y-115714111D01*
X157498600Y-115714111D01*
X157498600Y-114858611D01*
X157348600Y-114858611D01*
X157021061Y-114923961D01*
X156880100Y-115018267D01*
X156880100Y-114963825D01*
X156822096Y-114823791D01*
X156714919Y-114716615D01*
X156574885Y-114658611D01*
X156394850Y-114658611D01*
X156299600Y-114753861D01*
X156298600Y-114753861D01*
X156203350Y-114658611D01*
X156023315Y-114658611D01*
X155883281Y-114716615D01*
X155845158Y-114754738D01*
X155449100Y-114754738D01*
X155345561Y-114774220D01*
X155324980Y-114787464D01*
X155309932Y-114777182D01*
X155199100Y-114754738D01*
X154799100Y-114754738D01*
X154695561Y-114774220D01*
X154674980Y-114787464D01*
X154659932Y-114777182D01*
X154549100Y-114754738D01*
X154178500Y-114754738D01*
X154178500Y-114278500D01*
X155200900Y-114278500D01*
X155422627Y-114234396D01*
X155610598Y-114108798D01*
X156734523Y-112984873D01*
X156800000Y-112984873D01*
X156839600Y-112977422D01*
X156839600Y-113594688D01*
G36*
X159623000Y-114733288D02*
X159533929Y-114599983D01*
X159533926Y-114599981D01*
X158160400Y-113226454D01*
X158160400Y-113081000D01*
X158404250Y-113081000D01*
X158499500Y-112985750D01*
X158499500Y-112250500D01*
X158500500Y-112250500D01*
X158500500Y-112985750D01*
X158595750Y-113081000D01*
X158875785Y-113081000D01*
X159015819Y-113022996D01*
X159122996Y-112915820D01*
X159181000Y-112775786D01*
X159181000Y-112345750D01*
X159085750Y-112250500D01*
X158500500Y-112250500D01*
X158499500Y-112250500D01*
X158479500Y-112250500D01*
X158479500Y-112249500D01*
X158499500Y-112249500D01*
X158499500Y-112229500D01*
X158500500Y-112229500D01*
X158500500Y-112249500D01*
X159085750Y-112249500D01*
X159181000Y-112154250D01*
X159181000Y-111724214D01*
X159122996Y-111584180D01*
X159015819Y-111477004D01*
X158875785Y-111419000D01*
X158691657Y-111419000D01*
X158805326Y-111305331D01*
X158805329Y-111305329D01*
X158898931Y-111165243D01*
X158921032Y-111054135D01*
X158998634Y-111004199D01*
X159062429Y-110910832D01*
X159084873Y-110800000D01*
X159084873Y-110300000D01*
X159065391Y-110196461D01*
X159004199Y-110101366D01*
X158931800Y-110051898D01*
X158931800Y-109784873D01*
X158950000Y-109784873D01*
X159053539Y-109765391D01*
X159148634Y-109704199D01*
X159212429Y-109610832D01*
X159234873Y-109500000D01*
X159234873Y-109000000D01*
X159215391Y-108896461D01*
X159154199Y-108801366D01*
X159116206Y-108775407D01*
X159126878Y-108768276D01*
X159623000Y-108272154D01*
X159623000Y-114733288D01*
X159623000Y-114733288D01*
G37*
X159623000Y-114733288D02*
X159533929Y-114599983D01*
X159533926Y-114599981D01*
X158160400Y-113226454D01*
X158160400Y-113081000D01*
X158404250Y-113081000D01*
X158499500Y-112985750D01*
X158499500Y-112250500D01*
X158500500Y-112250500D01*
X158500500Y-112985750D01*
X158595750Y-113081000D01*
X158875785Y-113081000D01*
X159015819Y-113022996D01*
X159122996Y-112915820D01*
X159181000Y-112775786D01*
X159181000Y-112345750D01*
X159085750Y-112250500D01*
X158500500Y-112250500D01*
X158499500Y-112250500D01*
X158479500Y-112250500D01*
X158479500Y-112249500D01*
X158499500Y-112249500D01*
X158499500Y-112229500D01*
X158500500Y-112229500D01*
X158500500Y-112249500D01*
X159085750Y-112249500D01*
X159181000Y-112154250D01*
X159181000Y-111724214D01*
X159122996Y-111584180D01*
X159015819Y-111477004D01*
X158875785Y-111419000D01*
X158691657Y-111419000D01*
X158805326Y-111305331D01*
X158805329Y-111305329D01*
X158898931Y-111165243D01*
X158921032Y-111054135D01*
X158998634Y-111004199D01*
X159062429Y-110910832D01*
X159084873Y-110800000D01*
X159084873Y-110300000D01*
X159065391Y-110196461D01*
X159004199Y-110101366D01*
X158931800Y-110051898D01*
X158931800Y-109784873D01*
X158950000Y-109784873D01*
X159053539Y-109765391D01*
X159148634Y-109704199D01*
X159212429Y-109610832D01*
X159234873Y-109500000D01*
X159234873Y-109000000D01*
X159215391Y-108896461D01*
X159154199Y-108801366D01*
X159116206Y-108775407D01*
X159126878Y-108768276D01*
X159623000Y-108272154D01*
X159623000Y-114733288D01*
G36*
X139336336Y-101738850D02*
X139336336Y-101792765D01*
X139394340Y-101932799D01*
X139501517Y-102039976D01*
X139486289Y-102024747D01*
X139620993Y-102024747D01*
X140018740Y-101627000D01*
X140020154Y-101627000D01*
X139621700Y-102025454D01*
X139621700Y-102160158D01*
X139606471Y-102144930D01*
X139713648Y-102252107D01*
X139853682Y-102310111D01*
X139907596Y-102310111D01*
X140081585Y-102484100D01*
X140168575Y-102543537D01*
X140168646Y-102543552D01*
X140223007Y-102625521D01*
X140435139Y-102837653D01*
X140522129Y-102897090D01*
X140522198Y-102897105D01*
X140576560Y-102979075D01*
X140788692Y-103191207D01*
X140875682Y-103250644D01*
X140875753Y-103250659D01*
X140930114Y-103332628D01*
X141142246Y-103544760D01*
X141229236Y-103604197D01*
X141229305Y-103604212D01*
X141283667Y-103686182D01*
X141495799Y-103898314D01*
X141582789Y-103957751D01*
X141582859Y-103957766D01*
X141637220Y-104039735D01*
X141849352Y-104251867D01*
X141936342Y-104311304D01*
X141936413Y-104311319D01*
X141990774Y-104393288D01*
X142202906Y-104605420D01*
X142289896Y-104664857D01*
X142289965Y-104664872D01*
X142344327Y-104746842D01*
X142437085Y-104839600D01*
X139905317Y-104839600D01*
X139905312Y-104839599D01*
X139767485Y-104867015D01*
X139740069Y-104872469D01*
X139599983Y-104966071D01*
X138466071Y-106099983D01*
X138372469Y-106240069D01*
X138339600Y-106405312D01*
X138339600Y-108801795D01*
X138372469Y-108967038D01*
X138464525Y-109104810D01*
X138466071Y-109107124D01*
X138978216Y-109619269D01*
X138846935Y-109750550D01*
X138793022Y-109750550D01*
X138652988Y-109808554D01*
X138545811Y-109915731D01*
X138561040Y-109900503D01*
X138561040Y-110035207D01*
X139293072Y-110767239D01*
X139307215Y-110753097D01*
X139307922Y-110753804D01*
X139293779Y-110767946D01*
X140025811Y-111499978D01*
X140160515Y-111499978D01*
X140150372Y-111510122D01*
X140252464Y-111408030D01*
X140310468Y-111267996D01*
X140310468Y-111214081D01*
X140484457Y-111040092D01*
X140543894Y-110953102D01*
X140543909Y-110953033D01*
X140625879Y-110898671D01*
X140838011Y-110686539D01*
X140897448Y-110599549D01*
X140897463Y-110599478D01*
X140979432Y-110545117D01*
X141141157Y-110383392D01*
X141141157Y-112234159D01*
X141177649Y-112417618D01*
X141281570Y-112573146D01*
X142047411Y-113338987D01*
X142098315Y-113373000D01*
X141574436Y-113373000D01*
X141491478Y-113172225D01*
X141328632Y-113009095D01*
X141115755Y-112920701D01*
X140885256Y-112920500D01*
X140672225Y-113008522D01*
X140509095Y-113171368D01*
X140425370Y-113373000D01*
X140229400Y-113373000D01*
X140229400Y-112500000D01*
X140192908Y-112316542D01*
X140129400Y-112221495D01*
X140129400Y-111931981D01*
X140100520Y-111786791D01*
X140088905Y-111769408D01*
X140018277Y-111663705D01*
X140007533Y-111652961D01*
X140035494Y-111625000D01*
X140025104Y-111635389D01*
X140025104Y-111500685D01*
X139293072Y-110768653D01*
X139278930Y-110782796D01*
X139278223Y-110782089D01*
X139292365Y-110767946D01*
X138560333Y-110035914D01*
X138425629Y-110035914D01*
X138440857Y-110020685D01*
X138333680Y-110127862D01*
X138275676Y-110267896D01*
X138275676Y-110321809D01*
X138101686Y-110495799D01*
X138042249Y-110582789D01*
X138042234Y-110582859D01*
X137960265Y-110637220D01*
X137748133Y-110849352D01*
X137688696Y-110936342D01*
X137688681Y-110936413D01*
X137606712Y-110990774D01*
X137432723Y-111164763D01*
X137378808Y-111164763D01*
X137238774Y-111222767D01*
X137133766Y-111327775D01*
X137146826Y-111314716D01*
X137146826Y-111449420D01*
X137878858Y-112181452D01*
X137893001Y-112167310D01*
X137893708Y-112168017D01*
X137879565Y-112182159D01*
X137893708Y-112196302D01*
X137893001Y-112197009D01*
X137878858Y-112182866D01*
X137571090Y-112490634D01*
X137571090Y-112625338D01*
X138087303Y-113141552D01*
X138227337Y-113199556D01*
X138378908Y-113199555D01*
X138454052Y-113168429D01*
X138454052Y-113373000D01*
X138052606Y-113373000D01*
X136513286Y-111833680D01*
X136861461Y-111833680D01*
X136919465Y-111973714D01*
X137435679Y-112489927D01*
X137570383Y-112489927D01*
X137878151Y-112182159D01*
X137146119Y-111450127D01*
X137011415Y-111450127D01*
X137026643Y-111434898D01*
X136919466Y-111542075D01*
X136861462Y-111682109D01*
X136861461Y-111833680D01*
X136513286Y-111833680D01*
X136101582Y-111421976D01*
X136101582Y-109412125D01*
X136213087Y-109300814D01*
X136301481Y-109087937D01*
X136301682Y-108857438D01*
X136213660Y-108644407D01*
X136050814Y-108481277D01*
X135837937Y-108392883D01*
X135679297Y-108392745D01*
X134879400Y-107592848D01*
X134879400Y-106250000D01*
X134877000Y-106237934D01*
X134877000Y-104159552D01*
X137409553Y-101627000D01*
X139224486Y-101627000D01*
X139336336Y-101738850D01*
X139336336Y-101738850D01*
G37*
X139336336Y-101738850D02*
X139336336Y-101792765D01*
X139394340Y-101932799D01*
X139501517Y-102039976D01*
X139486289Y-102024747D01*
X139620993Y-102024747D01*
X140018740Y-101627000D01*
X140020154Y-101627000D01*
X139621700Y-102025454D01*
X139621700Y-102160158D01*
X139606471Y-102144930D01*
X139713648Y-102252107D01*
X139853682Y-102310111D01*
X139907596Y-102310111D01*
X140081585Y-102484100D01*
X140168575Y-102543537D01*
X140168646Y-102543552D01*
X140223007Y-102625521D01*
X140435139Y-102837653D01*
X140522129Y-102897090D01*
X140522198Y-102897105D01*
X140576560Y-102979075D01*
X140788692Y-103191207D01*
X140875682Y-103250644D01*
X140875753Y-103250659D01*
X140930114Y-103332628D01*
X141142246Y-103544760D01*
X141229236Y-103604197D01*
X141229305Y-103604212D01*
X141283667Y-103686182D01*
X141495799Y-103898314D01*
X141582789Y-103957751D01*
X141582859Y-103957766D01*
X141637220Y-104039735D01*
X141849352Y-104251867D01*
X141936342Y-104311304D01*
X141936413Y-104311319D01*
X141990774Y-104393288D01*
X142202906Y-104605420D01*
X142289896Y-104664857D01*
X142289965Y-104664872D01*
X142344327Y-104746842D01*
X142437085Y-104839600D01*
X139905317Y-104839600D01*
X139905312Y-104839599D01*
X139767485Y-104867015D01*
X139740069Y-104872469D01*
X139599983Y-104966071D01*
X138466071Y-106099983D01*
X138372469Y-106240069D01*
X138339600Y-106405312D01*
X138339600Y-108801795D01*
X138372469Y-108967038D01*
X138464525Y-109104810D01*
X138466071Y-109107124D01*
X138978216Y-109619269D01*
X138846935Y-109750550D01*
X138793022Y-109750550D01*
X138652988Y-109808554D01*
X138545811Y-109915731D01*
X138561040Y-109900503D01*
X138561040Y-110035207D01*
X139293072Y-110767239D01*
X139307215Y-110753097D01*
X139307922Y-110753804D01*
X139293779Y-110767946D01*
X140025811Y-111499978D01*
X140160515Y-111499978D01*
X140150372Y-111510122D01*
X140252464Y-111408030D01*
X140310468Y-111267996D01*
X140310468Y-111214081D01*
X140484457Y-111040092D01*
X140543894Y-110953102D01*
X140543909Y-110953033D01*
X140625879Y-110898671D01*
X140838011Y-110686539D01*
X140897448Y-110599549D01*
X140897463Y-110599478D01*
X140979432Y-110545117D01*
X141141157Y-110383392D01*
X141141157Y-112234159D01*
X141177649Y-112417618D01*
X141281570Y-112573146D01*
X142047411Y-113338987D01*
X142098315Y-113373000D01*
X141574436Y-113373000D01*
X141491478Y-113172225D01*
X141328632Y-113009095D01*
X141115755Y-112920701D01*
X140885256Y-112920500D01*
X140672225Y-113008522D01*
X140509095Y-113171368D01*
X140425370Y-113373000D01*
X140229400Y-113373000D01*
X140229400Y-112500000D01*
X140192908Y-112316542D01*
X140129400Y-112221495D01*
X140129400Y-111931981D01*
X140100520Y-111786791D01*
X140088905Y-111769408D01*
X140018277Y-111663705D01*
X140007533Y-111652961D01*
X140035494Y-111625000D01*
X140025104Y-111635389D01*
X140025104Y-111500685D01*
X139293072Y-110768653D01*
X139278930Y-110782796D01*
X139278223Y-110782089D01*
X139292365Y-110767946D01*
X138560333Y-110035914D01*
X138425629Y-110035914D01*
X138440857Y-110020685D01*
X138333680Y-110127862D01*
X138275676Y-110267896D01*
X138275676Y-110321809D01*
X138101686Y-110495799D01*
X138042249Y-110582789D01*
X138042234Y-110582859D01*
X137960265Y-110637220D01*
X137748133Y-110849352D01*
X137688696Y-110936342D01*
X137688681Y-110936413D01*
X137606712Y-110990774D01*
X137432723Y-111164763D01*
X137378808Y-111164763D01*
X137238774Y-111222767D01*
X137133766Y-111327775D01*
X137146826Y-111314716D01*
X137146826Y-111449420D01*
X137878858Y-112181452D01*
X137893001Y-112167310D01*
X137893708Y-112168017D01*
X137879565Y-112182159D01*
X137893708Y-112196302D01*
X137893001Y-112197009D01*
X137878858Y-112182866D01*
X137571090Y-112490634D01*
X137571090Y-112625338D01*
X138087303Y-113141552D01*
X138227337Y-113199556D01*
X138378908Y-113199555D01*
X138454052Y-113168429D01*
X138454052Y-113373000D01*
X138052606Y-113373000D01*
X136513286Y-111833680D01*
X136861461Y-111833680D01*
X136919465Y-111973714D01*
X137435679Y-112489927D01*
X137570383Y-112489927D01*
X137878151Y-112182159D01*
X137146119Y-111450127D01*
X137011415Y-111450127D01*
X137026643Y-111434898D01*
X136919466Y-111542075D01*
X136861462Y-111682109D01*
X136861461Y-111833680D01*
X136513286Y-111833680D01*
X136101582Y-111421976D01*
X136101582Y-109412125D01*
X136213087Y-109300814D01*
X136301481Y-109087937D01*
X136301682Y-108857438D01*
X136213660Y-108644407D01*
X136050814Y-108481277D01*
X135837937Y-108392883D01*
X135679297Y-108392745D01*
X134879400Y-107592848D01*
X134879400Y-106250000D01*
X134877000Y-106237934D01*
X134877000Y-104159552D01*
X137409553Y-101627000D01*
X139224486Y-101627000D01*
X139336336Y-101738850D01*
G36*
X147119000Y-111244000D02*
X146845750Y-111244000D01*
X146750500Y-111339250D01*
X146750500Y-111999500D01*
X146770500Y-111999500D01*
X146770500Y-112000500D01*
X146750500Y-112000500D01*
X146750500Y-112660750D01*
X146845750Y-112756000D01*
X147221700Y-112756000D01*
X147230592Y-112769408D01*
X147730592Y-113269408D01*
X147851770Y-113350983D01*
X147960494Y-113373000D01*
X146954138Y-113373000D01*
X146942908Y-113316541D01*
X146838987Y-113161013D01*
X146433974Y-112756000D01*
X146654250Y-112756000D01*
X146749500Y-112660750D01*
X146749500Y-112000500D01*
X146729500Y-112000500D01*
X146729500Y-111999500D01*
X146749500Y-111999500D01*
X146749500Y-111339250D01*
X146654250Y-111244000D01*
X146274214Y-111244000D01*
X146134180Y-111302004D01*
X146027004Y-111409181D01*
X145979400Y-111524107D01*
X145979400Y-111340117D01*
X145990905Y-111328632D01*
X146079299Y-111115755D01*
X146079500Y-110885256D01*
X145991478Y-110672225D01*
X145979400Y-110660126D01*
X145979400Y-110548574D01*
X146468101Y-110059873D01*
X146930000Y-110059873D01*
X147033539Y-110040391D01*
X147119000Y-109985398D01*
X147119000Y-111244000D01*
X147119000Y-111244000D01*
G37*
X147119000Y-111244000D02*
X146845750Y-111244000D01*
X146750500Y-111339250D01*
X146750500Y-111999500D01*
X146770500Y-111999500D01*
X146770500Y-112000500D01*
X146750500Y-112000500D01*
X146750500Y-112660750D01*
X146845750Y-112756000D01*
X147221700Y-112756000D01*
X147230592Y-112769408D01*
X147730592Y-113269408D01*
X147851770Y-113350983D01*
X147960494Y-113373000D01*
X146954138Y-113373000D01*
X146942908Y-113316541D01*
X146838987Y-113161013D01*
X146433974Y-112756000D01*
X146654250Y-112756000D01*
X146749500Y-112660750D01*
X146749500Y-112000500D01*
X146729500Y-112000500D01*
X146729500Y-111999500D01*
X146749500Y-111999500D01*
X146749500Y-111339250D01*
X146654250Y-111244000D01*
X146274214Y-111244000D01*
X146134180Y-111302004D01*
X146027004Y-111409181D01*
X145979400Y-111524107D01*
X145979400Y-111340117D01*
X145990905Y-111328632D01*
X146079299Y-111115755D01*
X146079500Y-110885256D01*
X145991478Y-110672225D01*
X145979400Y-110660126D01*
X145979400Y-110548574D01*
X146468101Y-110059873D01*
X146930000Y-110059873D01*
X147033539Y-110040391D01*
X147119000Y-109985398D01*
X147119000Y-111244000D01*
G36*
X155787571Y-108889168D02*
X155765127Y-109000000D01*
X155765127Y-109500000D01*
X155784609Y-109603539D01*
X155845801Y-109698634D01*
X155939168Y-109762429D01*
X156050000Y-109784873D01*
X156068200Y-109784873D01*
X156068200Y-110052794D01*
X156001366Y-110095801D01*
X155937571Y-110189168D01*
X155915127Y-110300000D01*
X155915127Y-110800000D01*
X155934609Y-110903539D01*
X155995801Y-110998634D01*
X156079273Y-111055668D01*
X156101069Y-111165243D01*
X156168853Y-111266689D01*
X156194671Y-111305329D01*
X156805605Y-111916262D01*
X156800000Y-111915127D01*
X156722360Y-111915127D01*
X156721727Y-111914704D01*
X156500000Y-111870600D01*
X156450000Y-111870600D01*
X156228273Y-111914704D01*
X156227640Y-111915127D01*
X156200000Y-111915127D01*
X156096461Y-111934609D01*
X156001366Y-111995801D01*
X155937571Y-112089168D01*
X155923893Y-112156711D01*
X154960904Y-113119700D01*
X153939096Y-113119700D01*
X153407918Y-112588522D01*
X153219947Y-112462924D01*
X152998220Y-112418820D01*
X152116658Y-112418820D01*
X152104249Y-112399536D01*
X152025531Y-112345750D01*
X153669000Y-112345750D01*
X153669000Y-112575786D01*
X153727004Y-112715820D01*
X153834181Y-112822996D01*
X153974215Y-112881000D01*
X154404250Y-112881000D01*
X154499500Y-112785750D01*
X154499500Y-112250500D01*
X154500500Y-112250500D01*
X154500500Y-112785750D01*
X154595750Y-112881000D01*
X155025785Y-112881000D01*
X155165819Y-112822996D01*
X155272996Y-112715820D01*
X155331000Y-112575786D01*
X155331000Y-112345750D01*
X155235750Y-112250500D01*
X154500500Y-112250500D01*
X154499500Y-112250500D01*
X153764250Y-112250500D01*
X153669000Y-112345750D01*
X152025531Y-112345750D01*
X152010882Y-112335741D01*
X151900050Y-112313297D01*
X151879400Y-112313297D01*
X151879400Y-111924214D01*
X153669000Y-111924214D01*
X153669000Y-112154250D01*
X153764250Y-112249500D01*
X154499500Y-112249500D01*
X154499500Y-111714250D01*
X154500500Y-111714250D01*
X154500500Y-112249500D01*
X155235750Y-112249500D01*
X155331000Y-112154250D01*
X155331000Y-111924214D01*
X155272996Y-111784180D01*
X155165819Y-111677004D01*
X155025785Y-111619000D01*
X154595750Y-111619000D01*
X154500500Y-111714250D01*
X154499500Y-111714250D01*
X154404250Y-111619000D01*
X153974215Y-111619000D01*
X153834181Y-111677004D01*
X153727004Y-111784180D01*
X153669000Y-111924214D01*
X151879400Y-111924214D01*
X151879400Y-111620915D01*
X151939118Y-111661719D01*
X152049950Y-111684163D01*
X152850050Y-111684163D01*
X152953589Y-111664681D01*
X153048684Y-111603489D01*
X153112479Y-111510122D01*
X153134923Y-111399290D01*
X153134923Y-111361758D01*
X153195240Y-111349760D01*
X153318326Y-111267516D01*
X153702145Y-110883697D01*
X153765127Y-110946680D01*
X153765127Y-111000000D01*
X153784609Y-111103539D01*
X153845801Y-111198634D01*
X153939168Y-111262429D01*
X154050000Y-111284873D01*
X154950000Y-111284873D01*
X155053539Y-111265391D01*
X155148634Y-111204199D01*
X155212429Y-111110832D01*
X155234873Y-111000000D01*
X155234873Y-110500000D01*
X155215391Y-110396461D01*
X155154199Y-110301366D01*
X155060832Y-110237571D01*
X154950000Y-110215127D01*
X154106679Y-110215127D01*
X153414873Y-109523321D01*
X153414873Y-109351425D01*
X153581724Y-109518276D01*
X153704810Y-109600520D01*
X153794094Y-109618280D01*
X153845801Y-109698634D01*
X153939168Y-109762429D01*
X154050000Y-109784873D01*
X154950000Y-109784873D01*
X155053539Y-109765391D01*
X155148634Y-109704199D01*
X155212429Y-109610832D01*
X155234873Y-109500000D01*
X155234873Y-109000000D01*
X155215391Y-108896461D01*
X155204413Y-108879400D01*
X155794245Y-108879400D01*
X155787571Y-108889168D01*
X155787571Y-108889168D01*
G37*
X155787571Y-108889168D02*
X155765127Y-109000000D01*
X155765127Y-109500000D01*
X155784609Y-109603539D01*
X155845801Y-109698634D01*
X155939168Y-109762429D01*
X156050000Y-109784873D01*
X156068200Y-109784873D01*
X156068200Y-110052794D01*
X156001366Y-110095801D01*
X155937571Y-110189168D01*
X155915127Y-110300000D01*
X155915127Y-110800000D01*
X155934609Y-110903539D01*
X155995801Y-110998634D01*
X156079273Y-111055668D01*
X156101069Y-111165243D01*
X156168853Y-111266689D01*
X156194671Y-111305329D01*
X156805605Y-111916262D01*
X156800000Y-111915127D01*
X156722360Y-111915127D01*
X156721727Y-111914704D01*
X156500000Y-111870600D01*
X156450000Y-111870600D01*
X156228273Y-111914704D01*
X156227640Y-111915127D01*
X156200000Y-111915127D01*
X156096461Y-111934609D01*
X156001366Y-111995801D01*
X155937571Y-112089168D01*
X155923893Y-112156711D01*
X154960904Y-113119700D01*
X153939096Y-113119700D01*
X153407918Y-112588522D01*
X153219947Y-112462924D01*
X152998220Y-112418820D01*
X152116658Y-112418820D01*
X152104249Y-112399536D01*
X152025531Y-112345750D01*
X153669000Y-112345750D01*
X153669000Y-112575786D01*
X153727004Y-112715820D01*
X153834181Y-112822996D01*
X153974215Y-112881000D01*
X154404250Y-112881000D01*
X154499500Y-112785750D01*
X154499500Y-112250500D01*
X154500500Y-112250500D01*
X154500500Y-112785750D01*
X154595750Y-112881000D01*
X155025785Y-112881000D01*
X155165819Y-112822996D01*
X155272996Y-112715820D01*
X155331000Y-112575786D01*
X155331000Y-112345750D01*
X155235750Y-112250500D01*
X154500500Y-112250500D01*
X154499500Y-112250500D01*
X153764250Y-112250500D01*
X153669000Y-112345750D01*
X152025531Y-112345750D01*
X152010882Y-112335741D01*
X151900050Y-112313297D01*
X151879400Y-112313297D01*
X151879400Y-111924214D01*
X153669000Y-111924214D01*
X153669000Y-112154250D01*
X153764250Y-112249500D01*
X154499500Y-112249500D01*
X154499500Y-111714250D01*
X154500500Y-111714250D01*
X154500500Y-112249500D01*
X155235750Y-112249500D01*
X155331000Y-112154250D01*
X155331000Y-111924214D01*
X155272996Y-111784180D01*
X155165819Y-111677004D01*
X155025785Y-111619000D01*
X154595750Y-111619000D01*
X154500500Y-111714250D01*
X154499500Y-111714250D01*
X154404250Y-111619000D01*
X153974215Y-111619000D01*
X153834181Y-111677004D01*
X153727004Y-111784180D01*
X153669000Y-111924214D01*
X151879400Y-111924214D01*
X151879400Y-111620915D01*
X151939118Y-111661719D01*
X152049950Y-111684163D01*
X152850050Y-111684163D01*
X152953589Y-111664681D01*
X153048684Y-111603489D01*
X153112479Y-111510122D01*
X153134923Y-111399290D01*
X153134923Y-111361758D01*
X153195240Y-111349760D01*
X153318326Y-111267516D01*
X153702145Y-110883697D01*
X153765127Y-110946680D01*
X153765127Y-111000000D01*
X153784609Y-111103539D01*
X153845801Y-111198634D01*
X153939168Y-111262429D01*
X154050000Y-111284873D01*
X154950000Y-111284873D01*
X155053539Y-111265391D01*
X155148634Y-111204199D01*
X155212429Y-111110832D01*
X155234873Y-111000000D01*
X155234873Y-110500000D01*
X155215391Y-110396461D01*
X155154199Y-110301366D01*
X155060832Y-110237571D01*
X154950000Y-110215127D01*
X154106679Y-110215127D01*
X153414873Y-109523321D01*
X153414873Y-109351425D01*
X153581724Y-109518276D01*
X153704810Y-109600520D01*
X153794094Y-109618280D01*
X153845801Y-109698634D01*
X153939168Y-109762429D01*
X154050000Y-109784873D01*
X154950000Y-109784873D01*
X155053539Y-109765391D01*
X155148634Y-109704199D01*
X155212429Y-109610832D01*
X155234873Y-109500000D01*
X155234873Y-109000000D01*
X155215391Y-108896461D01*
X155204413Y-108879400D01*
X155794245Y-108879400D01*
X155787571Y-108889168D01*
G36*
X143120811Y-108768276D02*
X143243897Y-108850520D01*
X143389087Y-108879400D01*
X144362848Y-108879400D01*
X144728623Y-109245175D01*
X144725786Y-109244000D01*
X144345750Y-109244000D01*
X144250500Y-109339250D01*
X144250500Y-109999500D01*
X144935750Y-109999500D01*
X145031000Y-109904250D01*
X145031000Y-109549215D01*
X145029824Y-109546376D01*
X145201724Y-109718276D01*
X145324810Y-109800520D01*
X145363759Y-109808267D01*
X145161013Y-110011013D01*
X145057092Y-110166541D01*
X145033794Y-110283667D01*
X145031000Y-110297716D01*
X145031000Y-110095750D01*
X144935750Y-110000500D01*
X144250500Y-110000500D01*
X144250500Y-110660750D01*
X144345750Y-110756000D01*
X144725786Y-110756000D01*
X144865820Y-110697996D01*
X144972996Y-110590819D01*
X145020600Y-110475893D01*
X145020600Y-110659883D01*
X145009095Y-110671368D01*
X144920701Y-110884245D01*
X144920500Y-111114744D01*
X145008522Y-111327775D01*
X145020600Y-111339874D01*
X145020600Y-111524698D01*
X145000000Y-111520600D01*
X144914837Y-111520600D01*
X144854199Y-111426366D01*
X144760832Y-111362571D01*
X144650000Y-111340127D01*
X143850000Y-111340127D01*
X143746461Y-111359609D01*
X143651366Y-111420801D01*
X143587571Y-111514168D01*
X143565127Y-111625000D01*
X143565127Y-112375000D01*
X143584609Y-112478539D01*
X143611675Y-112520600D01*
X143502082Y-112520600D01*
X143531000Y-112450785D01*
X143531000Y-112095750D01*
X143435750Y-112000500D01*
X142750500Y-112000500D01*
X142750500Y-112020500D01*
X142749500Y-112020500D01*
X142749500Y-112000500D01*
X142729500Y-112000500D01*
X142729500Y-111999500D01*
X142749500Y-111999500D01*
X142749500Y-111339250D01*
X142750500Y-111339250D01*
X142750500Y-111999500D01*
X143435750Y-111999500D01*
X143531000Y-111904250D01*
X143531000Y-111549215D01*
X143472996Y-111409181D01*
X143365820Y-111302004D01*
X143225786Y-111244000D01*
X142845750Y-111244000D01*
X142750500Y-111339250D01*
X142749500Y-111339250D01*
X142654250Y-111244000D01*
X142274214Y-111244000D01*
X142134180Y-111302004D01*
X142099957Y-111336227D01*
X142099957Y-110502390D01*
X142145801Y-110573634D01*
X142239168Y-110637429D01*
X142350000Y-110659873D01*
X143150000Y-110659873D01*
X143253539Y-110640391D01*
X143348634Y-110579199D01*
X143412429Y-110485832D01*
X143434873Y-110375000D01*
X143434873Y-110095750D01*
X143469000Y-110095750D01*
X143469000Y-110450785D01*
X143527004Y-110590819D01*
X143634180Y-110697996D01*
X143774214Y-110756000D01*
X144154250Y-110756000D01*
X144249500Y-110660750D01*
X144249500Y-110000500D01*
X143564250Y-110000500D01*
X143469000Y-110095750D01*
X143434873Y-110095750D01*
X143434873Y-109625000D01*
X143420614Y-109549215D01*
X143469000Y-109549215D01*
X143469000Y-109904250D01*
X143564250Y-109999500D01*
X144249500Y-109999500D01*
X144249500Y-109339250D01*
X144154250Y-109244000D01*
X143774214Y-109244000D01*
X143634180Y-109302004D01*
X143527004Y-109409181D01*
X143469000Y-109549215D01*
X143420614Y-109549215D01*
X143415391Y-109521461D01*
X143354199Y-109426366D01*
X143260832Y-109362571D01*
X143150000Y-109340127D01*
X143129400Y-109340127D01*
X143129400Y-109275126D01*
X143100520Y-109129936D01*
X143018276Y-109006850D01*
X142767988Y-108756562D01*
X142938542Y-108586007D01*
X143120811Y-108768276D01*
X143120811Y-108768276D01*
G37*
X143120811Y-108768276D02*
X143243897Y-108850520D01*
X143389087Y-108879400D01*
X144362848Y-108879400D01*
X144728623Y-109245175D01*
X144725786Y-109244000D01*
X144345750Y-109244000D01*
X144250500Y-109339250D01*
X144250500Y-109999500D01*
X144935750Y-109999500D01*
X145031000Y-109904250D01*
X145031000Y-109549215D01*
X145029824Y-109546376D01*
X145201724Y-109718276D01*
X145324810Y-109800520D01*
X145363759Y-109808267D01*
X145161013Y-110011013D01*
X145057092Y-110166541D01*
X145033794Y-110283667D01*
X145031000Y-110297716D01*
X145031000Y-110095750D01*
X144935750Y-110000500D01*
X144250500Y-110000500D01*
X144250500Y-110660750D01*
X144345750Y-110756000D01*
X144725786Y-110756000D01*
X144865820Y-110697996D01*
X144972996Y-110590819D01*
X145020600Y-110475893D01*
X145020600Y-110659883D01*
X145009095Y-110671368D01*
X144920701Y-110884245D01*
X144920500Y-111114744D01*
X145008522Y-111327775D01*
X145020600Y-111339874D01*
X145020600Y-111524698D01*
X145000000Y-111520600D01*
X144914837Y-111520600D01*
X144854199Y-111426366D01*
X144760832Y-111362571D01*
X144650000Y-111340127D01*
X143850000Y-111340127D01*
X143746461Y-111359609D01*
X143651366Y-111420801D01*
X143587571Y-111514168D01*
X143565127Y-111625000D01*
X143565127Y-112375000D01*
X143584609Y-112478539D01*
X143611675Y-112520600D01*
X143502082Y-112520600D01*
X143531000Y-112450785D01*
X143531000Y-112095750D01*
X143435750Y-112000500D01*
X142750500Y-112000500D01*
X142750500Y-112020500D01*
X142749500Y-112020500D01*
X142749500Y-112000500D01*
X142729500Y-112000500D01*
X142729500Y-111999500D01*
X142749500Y-111999500D01*
X142749500Y-111339250D01*
X142750500Y-111339250D01*
X142750500Y-111999500D01*
X143435750Y-111999500D01*
X143531000Y-111904250D01*
X143531000Y-111549215D01*
X143472996Y-111409181D01*
X143365820Y-111302004D01*
X143225786Y-111244000D01*
X142845750Y-111244000D01*
X142750500Y-111339250D01*
X142749500Y-111339250D01*
X142654250Y-111244000D01*
X142274214Y-111244000D01*
X142134180Y-111302004D01*
X142099957Y-111336227D01*
X142099957Y-110502390D01*
X142145801Y-110573634D01*
X142239168Y-110637429D01*
X142350000Y-110659873D01*
X143150000Y-110659873D01*
X143253539Y-110640391D01*
X143348634Y-110579199D01*
X143412429Y-110485832D01*
X143434873Y-110375000D01*
X143434873Y-110095750D01*
X143469000Y-110095750D01*
X143469000Y-110450785D01*
X143527004Y-110590819D01*
X143634180Y-110697996D01*
X143774214Y-110756000D01*
X144154250Y-110756000D01*
X144249500Y-110660750D01*
X144249500Y-110000500D01*
X143564250Y-110000500D01*
X143469000Y-110095750D01*
X143434873Y-110095750D01*
X143434873Y-109625000D01*
X143420614Y-109549215D01*
X143469000Y-109549215D01*
X143469000Y-109904250D01*
X143564250Y-109999500D01*
X144249500Y-109999500D01*
X144249500Y-109339250D01*
X144154250Y-109244000D01*
X143774214Y-109244000D01*
X143634180Y-109302004D01*
X143527004Y-109409181D01*
X143469000Y-109549215D01*
X143420614Y-109549215D01*
X143415391Y-109521461D01*
X143354199Y-109426366D01*
X143260832Y-109362571D01*
X143150000Y-109340127D01*
X143129400Y-109340127D01*
X143129400Y-109275126D01*
X143100520Y-109129936D01*
X143018276Y-109006850D01*
X142767988Y-108756562D01*
X142938542Y-108586007D01*
X143120811Y-108768276D01*
G36*
X141414392Y-108645918D02*
X141428535Y-108631776D01*
X141429242Y-108632483D01*
X141415099Y-108646625D01*
X141429242Y-108660768D01*
X141428535Y-108661475D01*
X141414392Y-108647332D01*
X141106624Y-108955100D01*
X141106624Y-108955101D01*
X141061546Y-109000179D01*
X141075689Y-109014322D01*
X141074982Y-109015029D01*
X141060839Y-109000886D01*
X141046697Y-109015029D01*
X141045990Y-109014322D01*
X141060132Y-109000179D01*
X141014346Y-108954393D01*
X141015760Y-108954393D01*
X141060839Y-108999472D01*
X141368607Y-108691704D01*
X141368607Y-108691703D01*
X141413685Y-108646625D01*
X141368607Y-108601547D01*
X141368607Y-108600133D01*
X141414392Y-108645918D01*
X141414392Y-108645918D01*
G37*
X141414392Y-108645918D02*
X141428535Y-108631776D01*
X141429242Y-108632483D01*
X141415099Y-108646625D01*
X141429242Y-108660768D01*
X141428535Y-108661475D01*
X141414392Y-108647332D01*
X141106624Y-108955100D01*
X141106624Y-108955101D01*
X141061546Y-109000179D01*
X141075689Y-109014322D01*
X141074982Y-109015029D01*
X141060839Y-109000886D01*
X141046697Y-109015029D01*
X141045990Y-109014322D01*
X141060132Y-109000179D01*
X141014346Y-108954393D01*
X141015760Y-108954393D01*
X141060839Y-108999472D01*
X141368607Y-108691704D01*
X141368607Y-108691703D01*
X141413685Y-108646625D01*
X141368607Y-108601547D01*
X141368607Y-108600133D01*
X141414392Y-108645918D01*
G36*
X142382469Y-106215016D02*
X142328556Y-106215016D01*
X142188522Y-106273020D01*
X142081345Y-106380197D01*
X142096574Y-106364969D01*
X142096574Y-106499673D01*
X142828606Y-107231705D01*
X142842749Y-107217563D01*
X142843456Y-107218270D01*
X142829313Y-107232412D01*
X143561345Y-107964444D01*
X143696049Y-107964444D01*
X143681955Y-107978539D01*
X143713621Y-107946873D01*
X143887348Y-108120600D01*
X143546239Y-108120600D01*
X143543067Y-108117428D01*
X143575867Y-108084627D01*
X143560638Y-108099855D01*
X143560638Y-107965151D01*
X142828606Y-107233119D01*
X142814464Y-107247262D01*
X142813757Y-107246555D01*
X142827899Y-107232412D01*
X142095867Y-106500380D01*
X141961163Y-106500380D01*
X141976391Y-106485151D01*
X141869214Y-106592328D01*
X141811210Y-106732362D01*
X141811210Y-106786275D01*
X141637220Y-106960265D01*
X141577783Y-107047255D01*
X141577768Y-107047325D01*
X141495799Y-107101686D01*
X141283667Y-107313818D01*
X141224230Y-107400808D01*
X141224215Y-107400879D01*
X141142246Y-107455240D01*
X140968257Y-107629229D01*
X140914342Y-107629229D01*
X140774308Y-107687233D01*
X140667541Y-107794000D01*
X140682360Y-107779182D01*
X140682360Y-107913886D01*
X140778760Y-108010286D01*
X140776346Y-108009286D01*
X140681653Y-107914593D01*
X140546949Y-107914593D01*
X140562177Y-107899364D01*
X140455000Y-108006541D01*
X140444969Y-108030757D01*
X140420755Y-108040787D01*
X140313578Y-108147964D01*
X140328807Y-108132736D01*
X140328807Y-108267440D01*
X140423499Y-108362132D01*
X140424499Y-108364546D01*
X140328100Y-108268147D01*
X140193396Y-108268147D01*
X140208624Y-108252918D01*
X140101447Y-108360095D01*
X140043443Y-108500129D01*
X140043443Y-108554042D01*
X139912163Y-108685322D01*
X139660400Y-108433559D01*
X139660400Y-106773546D01*
X140273545Y-106160400D01*
X142437085Y-106160400D01*
X142382469Y-106215016D01*
X142382469Y-106215016D01*
G37*
X142382469Y-106215016D02*
X142328556Y-106215016D01*
X142188522Y-106273020D01*
X142081345Y-106380197D01*
X142096574Y-106364969D01*
X142096574Y-106499673D01*
X142828606Y-107231705D01*
X142842749Y-107217563D01*
X142843456Y-107218270D01*
X142829313Y-107232412D01*
X143561345Y-107964444D01*
X143696049Y-107964444D01*
X143681955Y-107978539D01*
X143713621Y-107946873D01*
X143887348Y-108120600D01*
X143546239Y-108120600D01*
X143543067Y-108117428D01*
X143575867Y-108084627D01*
X143560638Y-108099855D01*
X143560638Y-107965151D01*
X142828606Y-107233119D01*
X142814464Y-107247262D01*
X142813757Y-107246555D01*
X142827899Y-107232412D01*
X142095867Y-106500380D01*
X141961163Y-106500380D01*
X141976391Y-106485151D01*
X141869214Y-106592328D01*
X141811210Y-106732362D01*
X141811210Y-106786275D01*
X141637220Y-106960265D01*
X141577783Y-107047255D01*
X141577768Y-107047325D01*
X141495799Y-107101686D01*
X141283667Y-107313818D01*
X141224230Y-107400808D01*
X141224215Y-107400879D01*
X141142246Y-107455240D01*
X140968257Y-107629229D01*
X140914342Y-107629229D01*
X140774308Y-107687233D01*
X140667541Y-107794000D01*
X140682360Y-107779182D01*
X140682360Y-107913886D01*
X140778760Y-108010286D01*
X140776346Y-108009286D01*
X140681653Y-107914593D01*
X140546949Y-107914593D01*
X140562177Y-107899364D01*
X140455000Y-108006541D01*
X140444969Y-108030757D01*
X140420755Y-108040787D01*
X140313578Y-108147964D01*
X140328807Y-108132736D01*
X140328807Y-108267440D01*
X140423499Y-108362132D01*
X140424499Y-108364546D01*
X140328100Y-108268147D01*
X140193396Y-108268147D01*
X140208624Y-108252918D01*
X140101447Y-108360095D01*
X140043443Y-108500129D01*
X140043443Y-108554042D01*
X139912163Y-108685322D01*
X139660400Y-108433559D01*
X139660400Y-106773546D01*
X140273545Y-106160400D01*
X142437085Y-106160400D01*
X142382469Y-106215016D01*
G36*
X149585127Y-107875000D02*
X149604609Y-107978539D01*
X149634422Y-108024870D01*
X149607571Y-108064168D01*
X149585127Y-108175000D01*
X149585127Y-108619000D01*
X149511000Y-108619000D01*
X149511000Y-108595750D01*
X149415750Y-108500500D01*
X148600500Y-108500500D01*
X148600500Y-108520500D01*
X148599500Y-108520500D01*
X148599500Y-108500500D01*
X148579500Y-108500500D01*
X148579500Y-108499500D01*
X148599500Y-108499500D01*
X148599500Y-108479500D01*
X148600500Y-108479500D01*
X148600500Y-108499500D01*
X149415750Y-108499500D01*
X149511000Y-108404250D01*
X149511000Y-108099215D01*
X149452996Y-107959181D01*
X149407117Y-107913301D01*
X149414873Y-107875000D01*
X149414873Y-107351999D01*
X149585127Y-107351999D01*
X149585127Y-107875000D01*
X149585127Y-107875000D01*
G37*
X149585127Y-107875000D02*
X149604609Y-107978539D01*
X149634422Y-108024870D01*
X149607571Y-108064168D01*
X149585127Y-108175000D01*
X149585127Y-108619000D01*
X149511000Y-108619000D01*
X149511000Y-108595750D01*
X149415750Y-108500500D01*
X148600500Y-108500500D01*
X148600500Y-108520500D01*
X148599500Y-108520500D01*
X148599500Y-108500500D01*
X148579500Y-108500500D01*
X148579500Y-108499500D01*
X148599500Y-108499500D01*
X148599500Y-108479500D01*
X148600500Y-108479500D01*
X148600500Y-108499500D01*
X149415750Y-108499500D01*
X149511000Y-108404250D01*
X149511000Y-108099215D01*
X149452996Y-107959181D01*
X149407117Y-107913301D01*
X149414873Y-107875000D01*
X149414873Y-107351999D01*
X149585127Y-107351999D01*
X149585127Y-107875000D01*
G36*
X156839600Y-104773545D02*
X156839600Y-106124743D01*
X156194671Y-106769671D01*
X156101069Y-106909757D01*
X156068200Y-107075000D01*
X156068200Y-107215127D01*
X156050000Y-107215127D01*
X155946461Y-107234609D01*
X155851366Y-107295801D01*
X155787571Y-107389168D01*
X155765127Y-107500000D01*
X155765127Y-108000000D01*
X155784609Y-108103539D01*
X155795587Y-108120600D01*
X155312437Y-108120600D01*
X155331000Y-108075786D01*
X155331000Y-107845750D01*
X155235750Y-107750500D01*
X154500500Y-107750500D01*
X154500500Y-107770500D01*
X154499500Y-107770500D01*
X154499500Y-107750500D01*
X154479500Y-107750500D01*
X154479500Y-107749500D01*
X154499500Y-107749500D01*
X154499500Y-107214250D01*
X154500500Y-107214250D01*
X154500500Y-107749500D01*
X155235750Y-107749500D01*
X155331000Y-107654250D01*
X155331000Y-107424214D01*
X155272996Y-107284180D01*
X155165819Y-107177004D01*
X155025785Y-107119000D01*
X154595750Y-107119000D01*
X154500500Y-107214250D01*
X154499500Y-107214250D01*
X154404250Y-107119000D01*
X154014874Y-107119000D01*
X153600197Y-106704323D01*
X153477111Y-106622079D01*
X153331921Y-106593199D01*
X147868079Y-106593199D01*
X147722889Y-106622079D01*
X147599803Y-106704323D01*
X147190408Y-107113718D01*
X147134199Y-107026366D01*
X147040832Y-106962571D01*
X146930000Y-106940127D01*
X145870000Y-106940127D01*
X145766461Y-106959609D01*
X145671366Y-107020801D01*
X145607571Y-107114168D01*
X145585127Y-107225000D01*
X145585127Y-107748001D01*
X144587855Y-107748001D01*
X144093316Y-107253463D01*
X144082490Y-107195926D01*
X144019991Y-107101686D01*
X143078705Y-106160400D01*
X145094688Y-106160400D01*
X145259931Y-106127531D01*
X145400017Y-106033929D01*
X147273546Y-104160400D01*
X156226454Y-104160400D01*
X156839600Y-104773545D01*
X156839600Y-104773545D01*
G37*
X156839600Y-104773545D02*
X156839600Y-106124743D01*
X156194671Y-106769671D01*
X156101069Y-106909757D01*
X156068200Y-107075000D01*
X156068200Y-107215127D01*
X156050000Y-107215127D01*
X155946461Y-107234609D01*
X155851366Y-107295801D01*
X155787571Y-107389168D01*
X155765127Y-107500000D01*
X155765127Y-108000000D01*
X155784609Y-108103539D01*
X155795587Y-108120600D01*
X155312437Y-108120600D01*
X155331000Y-108075786D01*
X155331000Y-107845750D01*
X155235750Y-107750500D01*
X154500500Y-107750500D01*
X154500500Y-107770500D01*
X154499500Y-107770500D01*
X154499500Y-107750500D01*
X154479500Y-107750500D01*
X154479500Y-107749500D01*
X154499500Y-107749500D01*
X154499500Y-107214250D01*
X154500500Y-107214250D01*
X154500500Y-107749500D01*
X155235750Y-107749500D01*
X155331000Y-107654250D01*
X155331000Y-107424214D01*
X155272996Y-107284180D01*
X155165819Y-107177004D01*
X155025785Y-107119000D01*
X154595750Y-107119000D01*
X154500500Y-107214250D01*
X154499500Y-107214250D01*
X154404250Y-107119000D01*
X154014874Y-107119000D01*
X153600197Y-106704323D01*
X153477111Y-106622079D01*
X153331921Y-106593199D01*
X147868079Y-106593199D01*
X147722889Y-106622079D01*
X147599803Y-106704323D01*
X147190408Y-107113718D01*
X147134199Y-107026366D01*
X147040832Y-106962571D01*
X146930000Y-106940127D01*
X145870000Y-106940127D01*
X145766461Y-106959609D01*
X145671366Y-107020801D01*
X145607571Y-107114168D01*
X145585127Y-107225000D01*
X145585127Y-107748001D01*
X144587855Y-107748001D01*
X144093316Y-107253463D01*
X144082490Y-107195926D01*
X144019991Y-107101686D01*
X143078705Y-106160400D01*
X145094688Y-106160400D01*
X145259931Y-106127531D01*
X145400017Y-106033929D01*
X147273546Y-104160400D01*
X156226454Y-104160400D01*
X156839600Y-104773545D01*
G36*
X149649480Y-98462744D02*
X149731724Y-98585830D01*
X150414169Y-99268276D01*
X150537255Y-99350520D01*
X150558823Y-99354810D01*
X150682446Y-99379400D01*
X155344466Y-99379400D01*
X156180940Y-100215875D01*
X156304027Y-100298119D01*
X156449217Y-100326999D01*
X157386125Y-100326999D01*
X157620600Y-100561474D01*
X157620600Y-100781225D01*
X157649480Y-100926415D01*
X157731724Y-101049501D01*
X159120600Y-102438378D01*
X159120600Y-107278409D01*
X159060832Y-107237571D01*
X158950000Y-107215127D01*
X158931800Y-107215127D01*
X158931800Y-107075000D01*
X158898931Y-106909757D01*
X158805329Y-106769671D01*
X158805326Y-106769669D01*
X158160400Y-106124742D01*
X158160400Y-104405317D01*
X158160401Y-104405312D01*
X158127531Y-104240070D01*
X158127531Y-104240069D01*
X158033929Y-104099983D01*
X156900017Y-102966071D01*
X156824020Y-102915292D01*
X156759931Y-102872469D01*
X156594688Y-102839600D01*
X146905312Y-102839600D01*
X146740069Y-102872469D01*
X146675980Y-102915292D01*
X146599983Y-102966071D01*
X144726454Y-104839600D01*
X143078705Y-104839600D01*
X143417763Y-104500542D01*
X143693177Y-104500542D01*
X143838367Y-104471662D01*
X143961453Y-104389418D01*
X148768276Y-99582596D01*
X148850520Y-99459509D01*
X148855089Y-99436537D01*
X148879400Y-99314319D01*
X148879400Y-99050206D01*
X149552606Y-98377000D01*
X149632425Y-98377000D01*
X149649480Y-98462744D01*
X149649480Y-98462744D01*
G37*
X149649480Y-98462744D02*
X149731724Y-98585830D01*
X150414169Y-99268276D01*
X150537255Y-99350520D01*
X150558823Y-99354810D01*
X150682446Y-99379400D01*
X155344466Y-99379400D01*
X156180940Y-100215875D01*
X156304027Y-100298119D01*
X156449217Y-100326999D01*
X157386125Y-100326999D01*
X157620600Y-100561474D01*
X157620600Y-100781225D01*
X157649480Y-100926415D01*
X157731724Y-101049501D01*
X159120600Y-102438378D01*
X159120600Y-107278409D01*
X159060832Y-107237571D01*
X158950000Y-107215127D01*
X158931800Y-107215127D01*
X158931800Y-107075000D01*
X158898931Y-106909757D01*
X158805329Y-106769671D01*
X158805326Y-106769669D01*
X158160400Y-106124742D01*
X158160400Y-104405317D01*
X158160401Y-104405312D01*
X158127531Y-104240070D01*
X158127531Y-104240069D01*
X158033929Y-104099983D01*
X156900017Y-102966071D01*
X156824020Y-102915292D01*
X156759931Y-102872469D01*
X156594688Y-102839600D01*
X146905312Y-102839600D01*
X146740069Y-102872469D01*
X146675980Y-102915292D01*
X146599983Y-102966071D01*
X144726454Y-104839600D01*
X143078705Y-104839600D01*
X143417763Y-104500542D01*
X143693177Y-104500542D01*
X143838367Y-104471662D01*
X143961453Y-104389418D01*
X148768276Y-99582596D01*
X148850520Y-99459509D01*
X148855089Y-99436537D01*
X148879400Y-99314319D01*
X148879400Y-99050206D01*
X149552606Y-98377000D01*
X149632425Y-98377000D01*
X149649480Y-98462744D01*
G36*
X181473936Y-107317600D02*
X181500503Y-107458790D01*
X181583946Y-107588465D01*
X181711266Y-107675459D01*
X181862400Y-107706064D01*
X184097600Y-107706064D01*
X184238790Y-107679497D01*
X184368465Y-107596054D01*
X184373000Y-107589417D01*
X184373000Y-109889448D01*
X184248734Y-109804541D01*
X184097600Y-109773936D01*
X181862400Y-109773936D01*
X181721210Y-109800503D01*
X181591535Y-109883946D01*
X181504541Y-110011266D01*
X181473936Y-110162400D01*
X181473936Y-110799000D01*
X180632631Y-110799000D01*
X180611897Y-110688810D01*
X180528454Y-110559135D01*
X180401134Y-110472141D01*
X180250000Y-110441536D01*
X179750000Y-110441536D01*
X179608810Y-110468103D01*
X179479135Y-110551546D01*
X179392141Y-110678866D01*
X179361536Y-110830000D01*
X179361536Y-111730000D01*
X179388103Y-111871190D01*
X179471546Y-112000865D01*
X179598866Y-112087859D01*
X179750000Y-112118464D01*
X180250000Y-112118464D01*
X180391190Y-112091897D01*
X180520865Y-112008454D01*
X180607859Y-111881134D01*
X180632186Y-111761000D01*
X181473936Y-111761000D01*
X181473936Y-112397600D01*
X181500503Y-112538790D01*
X181583946Y-112668465D01*
X181711266Y-112755459D01*
X181862400Y-112786064D01*
X184097600Y-112786064D01*
X184238790Y-112759497D01*
X184368465Y-112676054D01*
X184373000Y-112669417D01*
X184373000Y-115447394D01*
X184039193Y-115781201D01*
X183786983Y-115097949D01*
X183670517Y-114923645D01*
X183329847Y-114670860D01*
X181500707Y-116500000D01*
X181514850Y-116514143D01*
X181514143Y-116514850D01*
X181500000Y-116500707D01*
X179670860Y-118329847D01*
X179923645Y-118670517D01*
X180763081Y-119057313D01*
X180447394Y-119373000D01*
X161302606Y-119373000D01*
X160627000Y-118697394D01*
X160627000Y-116920136D01*
X178850561Y-116920136D01*
X179213017Y-117902051D01*
X179329483Y-118076355D01*
X179670153Y-118329140D01*
X181499293Y-116500000D01*
X179670153Y-114670860D01*
X179329483Y-114923645D01*
X178891459Y-115874259D01*
X178850561Y-116920136D01*
X160627000Y-116920136D01*
X160627000Y-114670153D01*
X179670860Y-114670153D01*
X181500000Y-116499293D01*
X183329140Y-114670153D01*
X183076355Y-114329483D01*
X182125741Y-113891459D01*
X181079864Y-113850561D01*
X180097949Y-114213017D01*
X179923645Y-114329483D01*
X179670860Y-114670153D01*
X160627000Y-114670153D01*
X160627000Y-111368030D01*
X161868430Y-111368030D01*
X161868430Y-112422486D01*
X161926434Y-112562520D01*
X162033611Y-112669696D01*
X162173645Y-112727700D01*
X162904250Y-112727700D01*
X162999500Y-112632450D01*
X162999500Y-111272780D01*
X163000500Y-111272780D01*
X163000500Y-112632450D01*
X163095750Y-112727700D01*
X163826355Y-112727700D01*
X163966389Y-112669696D01*
X164073566Y-112562520D01*
X164131570Y-112422486D01*
X164131570Y-111368030D01*
X164868430Y-111368030D01*
X164868430Y-112422486D01*
X164926434Y-112562520D01*
X165033611Y-112669696D01*
X165173645Y-112727700D01*
X165904250Y-112727700D01*
X165999500Y-112632450D01*
X165999500Y-111272780D01*
X166000500Y-111272780D01*
X166000500Y-112632450D01*
X166095750Y-112727700D01*
X166826355Y-112727700D01*
X166966389Y-112669696D01*
X167073566Y-112562520D01*
X167131570Y-112422486D01*
X167131570Y-111368030D01*
X167868430Y-111368030D01*
X167868430Y-112422486D01*
X167926434Y-112562520D01*
X168033611Y-112669696D01*
X168173645Y-112727700D01*
X168904250Y-112727700D01*
X168999500Y-112632450D01*
X168999500Y-111272780D01*
X169000500Y-111272780D01*
X169000500Y-112632450D01*
X169095750Y-112727700D01*
X169826355Y-112727700D01*
X169966389Y-112669696D01*
X170073566Y-112562520D01*
X170131570Y-112422486D01*
X170131570Y-111368030D01*
X170036320Y-111272780D01*
X169000500Y-111272780D01*
X168999500Y-111272780D01*
X167963680Y-111272780D01*
X167868430Y-111368030D01*
X167131570Y-111368030D01*
X167036320Y-111272780D01*
X166000500Y-111272780D01*
X165999500Y-111272780D01*
X164963680Y-111272780D01*
X164868430Y-111368030D01*
X164131570Y-111368030D01*
X164036320Y-111272780D01*
X163000500Y-111272780D01*
X162999500Y-111272780D01*
X161963680Y-111272780D01*
X161868430Y-111368030D01*
X160627000Y-111368030D01*
X160627000Y-110122074D01*
X161868430Y-110122074D01*
X161868430Y-111176530D01*
X161963680Y-111271780D01*
X162999500Y-111271780D01*
X162999500Y-109912110D01*
X163000500Y-109912110D01*
X163000500Y-111271780D01*
X164036320Y-111271780D01*
X164131570Y-111176530D01*
X164131570Y-110122074D01*
X164868430Y-110122074D01*
X164868430Y-111176530D01*
X164963680Y-111271780D01*
X165999500Y-111271780D01*
X165999500Y-109912110D01*
X166000500Y-109912110D01*
X166000500Y-111271780D01*
X167036320Y-111271780D01*
X167131570Y-111176530D01*
X167131570Y-110122074D01*
X167868430Y-110122074D01*
X167868430Y-111176530D01*
X167963680Y-111271780D01*
X168999500Y-111271780D01*
X168999500Y-109912110D01*
X168904250Y-109816860D01*
X168173645Y-109816860D01*
X168033611Y-109874864D01*
X167926434Y-109982040D01*
X167868430Y-110122074D01*
X167131570Y-110122074D01*
X167073566Y-109982040D01*
X166966389Y-109874864D01*
X166826355Y-109816860D01*
X166095750Y-109816860D01*
X166000500Y-109912110D01*
X165999500Y-109912110D01*
X165904250Y-109816860D01*
X165173645Y-109816860D01*
X165033611Y-109874864D01*
X164926434Y-109982040D01*
X164868430Y-110122074D01*
X164131570Y-110122074D01*
X164073566Y-109982040D01*
X163966389Y-109874864D01*
X163826355Y-109816860D01*
X163095750Y-109816860D01*
X163000500Y-109912110D01*
X162999500Y-109912110D01*
X162904250Y-109816860D01*
X162173645Y-109816860D01*
X162033611Y-109874864D01*
X161926434Y-109982040D01*
X161868430Y-110122074D01*
X160627000Y-110122074D01*
X160627000Y-109631000D01*
X161993976Y-109631000D01*
X162098296Y-109702279D01*
X162249430Y-109732884D01*
X163750570Y-109732884D01*
X163891760Y-109706317D01*
X164008807Y-109631000D01*
X164993976Y-109631000D01*
X165098296Y-109702279D01*
X165249430Y-109732884D01*
X166750570Y-109732884D01*
X166891760Y-109706317D01*
X167008807Y-109631000D01*
X167993976Y-109631000D01*
X168098296Y-109702279D01*
X168249430Y-109732884D01*
X169458797Y-109732884D01*
X169542773Y-109816860D01*
X169095750Y-109816860D01*
X169000500Y-109912110D01*
X169000500Y-111271780D01*
X170036320Y-111271780D01*
X170088932Y-111219168D01*
X170661536Y-111791773D01*
X170661536Y-112000000D01*
X170688103Y-112141190D01*
X170771546Y-112270865D01*
X170898866Y-112357859D01*
X171050000Y-112388464D01*
X171950000Y-112388464D01*
X172091190Y-112361897D01*
X172220865Y-112278454D01*
X172307859Y-112151134D01*
X172338464Y-112000000D01*
X172338464Y-111845750D01*
X172669000Y-111845750D01*
X172669000Y-112075786D01*
X172727004Y-112215820D01*
X172834181Y-112322996D01*
X172974215Y-112381000D01*
X173404250Y-112381000D01*
X173499500Y-112285750D01*
X173499500Y-111750500D01*
X173500500Y-111750500D01*
X173500500Y-112285750D01*
X173595750Y-112381000D01*
X174025785Y-112381000D01*
X174165819Y-112322996D01*
X174272996Y-112215820D01*
X174331000Y-112075786D01*
X174331000Y-111845750D01*
X174235750Y-111750500D01*
X173500500Y-111750500D01*
X173499500Y-111750500D01*
X172764250Y-111750500D01*
X172669000Y-111845750D01*
X172338464Y-111845750D01*
X172338464Y-111500000D01*
X172324204Y-111424214D01*
X172669000Y-111424214D01*
X172669000Y-111654250D01*
X172764250Y-111749500D01*
X173499500Y-111749500D01*
X173499500Y-111214250D01*
X173500500Y-111214250D01*
X173500500Y-111749500D01*
X174235750Y-111749500D01*
X174331000Y-111654250D01*
X174331000Y-111424214D01*
X174272996Y-111284180D01*
X174165819Y-111177004D01*
X174025785Y-111119000D01*
X173595750Y-111119000D01*
X173500500Y-111214250D01*
X173499500Y-111214250D01*
X173404250Y-111119000D01*
X172974215Y-111119000D01*
X172834181Y-111177004D01*
X172727004Y-111284180D01*
X172669000Y-111424214D01*
X172324204Y-111424214D01*
X172311897Y-111358810D01*
X172228454Y-111229135D01*
X172101134Y-111142141D01*
X171950000Y-111111536D01*
X171341773Y-111111536D01*
X171118700Y-110888464D01*
X171950000Y-110888464D01*
X172091190Y-110861897D01*
X172220865Y-110778454D01*
X172253289Y-110731000D01*
X172745894Y-110731000D01*
X172771546Y-110770865D01*
X172898866Y-110857859D01*
X173050000Y-110888464D01*
X173950000Y-110888464D01*
X174091190Y-110861897D01*
X174220865Y-110778454D01*
X174307859Y-110651134D01*
X174338464Y-110500000D01*
X174338464Y-110000000D01*
X174311897Y-109858810D01*
X174228454Y-109729135D01*
X174101134Y-109642141D01*
X173950000Y-109611536D01*
X173050000Y-109611536D01*
X172908810Y-109638103D01*
X172779135Y-109721546D01*
X172746711Y-109769000D01*
X172254106Y-109769000D01*
X172228454Y-109729135D01*
X172101134Y-109642141D01*
X172031040Y-109627947D01*
X172031040Y-108988083D01*
X172065880Y-108981527D01*
X172195555Y-108898084D01*
X172204206Y-108885423D01*
X172308761Y-108864626D01*
X172464808Y-108760358D01*
X172686846Y-108538321D01*
X172686846Y-108619630D01*
X172713413Y-108760820D01*
X172796856Y-108890495D01*
X172924176Y-108977489D01*
X173075310Y-109008094D01*
X173824610Y-109008094D01*
X173861036Y-109001240D01*
X174478160Y-109001240D01*
X175391536Y-109914615D01*
X175391536Y-110640000D01*
X175418103Y-110781190D01*
X175501546Y-110910865D01*
X175628866Y-110997859D01*
X175780000Y-111028464D01*
X176505384Y-111028464D01*
X177238460Y-111761540D01*
X177459392Y-111909162D01*
X177720000Y-111961001D01*
X177720005Y-111961000D01*
X177945894Y-111961000D01*
X177971546Y-112000865D01*
X178098866Y-112087859D01*
X178250000Y-112118464D01*
X178750000Y-112118464D01*
X178891190Y-112091897D01*
X179020865Y-112008454D01*
X179107859Y-111881134D01*
X179138464Y-111730000D01*
X179138464Y-111493843D01*
X179181000Y-111280000D01*
X179138464Y-111066157D01*
X179138464Y-110830000D01*
X179111897Y-110688810D01*
X179028454Y-110559135D01*
X178901134Y-110472141D01*
X178750000Y-110441536D01*
X178250000Y-110441536D01*
X178108810Y-110468103D01*
X177979135Y-110551546D01*
X177969186Y-110566106D01*
X177868464Y-110465384D01*
X177868464Y-109740000D01*
X177841897Y-109598810D01*
X177758454Y-109469135D01*
X177631134Y-109382141D01*
X177480000Y-109351536D01*
X176754615Y-109351536D01*
X175784080Y-108381000D01*
X178250000Y-108381000D01*
X178393367Y-108352997D01*
X178519408Y-108269408D01*
X179519408Y-107269408D01*
X179600983Y-107148230D01*
X179628205Y-107013800D01*
X179750000Y-107038464D01*
X180250000Y-107038464D01*
X180391190Y-107011897D01*
X180520865Y-106928454D01*
X180607859Y-106801134D01*
X180632186Y-106681000D01*
X181473936Y-106681000D01*
X181473936Y-107317600D01*
X181473936Y-107317600D01*
G37*
X181473936Y-107317600D02*
X181500503Y-107458790D01*
X181583946Y-107588465D01*
X181711266Y-107675459D01*
X181862400Y-107706064D01*
X184097600Y-107706064D01*
X184238790Y-107679497D01*
X184368465Y-107596054D01*
X184373000Y-107589417D01*
X184373000Y-109889448D01*
X184248734Y-109804541D01*
X184097600Y-109773936D01*
X181862400Y-109773936D01*
X181721210Y-109800503D01*
X181591535Y-109883946D01*
X181504541Y-110011266D01*
X181473936Y-110162400D01*
X181473936Y-110799000D01*
X180632631Y-110799000D01*
X180611897Y-110688810D01*
X180528454Y-110559135D01*
X180401134Y-110472141D01*
X180250000Y-110441536D01*
X179750000Y-110441536D01*
X179608810Y-110468103D01*
X179479135Y-110551546D01*
X179392141Y-110678866D01*
X179361536Y-110830000D01*
X179361536Y-111730000D01*
X179388103Y-111871190D01*
X179471546Y-112000865D01*
X179598866Y-112087859D01*
X179750000Y-112118464D01*
X180250000Y-112118464D01*
X180391190Y-112091897D01*
X180520865Y-112008454D01*
X180607859Y-111881134D01*
X180632186Y-111761000D01*
X181473936Y-111761000D01*
X181473936Y-112397600D01*
X181500503Y-112538790D01*
X181583946Y-112668465D01*
X181711266Y-112755459D01*
X181862400Y-112786064D01*
X184097600Y-112786064D01*
X184238790Y-112759497D01*
X184368465Y-112676054D01*
X184373000Y-112669417D01*
X184373000Y-115447394D01*
X184039193Y-115781201D01*
X183786983Y-115097949D01*
X183670517Y-114923645D01*
X183329847Y-114670860D01*
X181500707Y-116500000D01*
X181514850Y-116514143D01*
X181514143Y-116514850D01*
X181500000Y-116500707D01*
X179670860Y-118329847D01*
X179923645Y-118670517D01*
X180763081Y-119057313D01*
X180447394Y-119373000D01*
X161302606Y-119373000D01*
X160627000Y-118697394D01*
X160627000Y-116920136D01*
X178850561Y-116920136D01*
X179213017Y-117902051D01*
X179329483Y-118076355D01*
X179670153Y-118329140D01*
X181499293Y-116500000D01*
X179670153Y-114670860D01*
X179329483Y-114923645D01*
X178891459Y-115874259D01*
X178850561Y-116920136D01*
X160627000Y-116920136D01*
X160627000Y-114670153D01*
X179670860Y-114670153D01*
X181500000Y-116499293D01*
X183329140Y-114670153D01*
X183076355Y-114329483D01*
X182125741Y-113891459D01*
X181079864Y-113850561D01*
X180097949Y-114213017D01*
X179923645Y-114329483D01*
X179670860Y-114670153D01*
X160627000Y-114670153D01*
X160627000Y-111368030D01*
X161868430Y-111368030D01*
X161868430Y-112422486D01*
X161926434Y-112562520D01*
X162033611Y-112669696D01*
X162173645Y-112727700D01*
X162904250Y-112727700D01*
X162999500Y-112632450D01*
X162999500Y-111272780D01*
X163000500Y-111272780D01*
X163000500Y-112632450D01*
X163095750Y-112727700D01*
X163826355Y-112727700D01*
X163966389Y-112669696D01*
X164073566Y-112562520D01*
X164131570Y-112422486D01*
X164131570Y-111368030D01*
X164868430Y-111368030D01*
X164868430Y-112422486D01*
X164926434Y-112562520D01*
X165033611Y-112669696D01*
X165173645Y-112727700D01*
X165904250Y-112727700D01*
X165999500Y-112632450D01*
X165999500Y-111272780D01*
X166000500Y-111272780D01*
X166000500Y-112632450D01*
X166095750Y-112727700D01*
X166826355Y-112727700D01*
X166966389Y-112669696D01*
X167073566Y-112562520D01*
X167131570Y-112422486D01*
X167131570Y-111368030D01*
X167868430Y-111368030D01*
X167868430Y-112422486D01*
X167926434Y-112562520D01*
X168033611Y-112669696D01*
X168173645Y-112727700D01*
X168904250Y-112727700D01*
X168999500Y-112632450D01*
X168999500Y-111272780D01*
X169000500Y-111272780D01*
X169000500Y-112632450D01*
X169095750Y-112727700D01*
X169826355Y-112727700D01*
X169966389Y-112669696D01*
X170073566Y-112562520D01*
X170131570Y-112422486D01*
X170131570Y-111368030D01*
X170036320Y-111272780D01*
X169000500Y-111272780D01*
X168999500Y-111272780D01*
X167963680Y-111272780D01*
X167868430Y-111368030D01*
X167131570Y-111368030D01*
X167036320Y-111272780D01*
X166000500Y-111272780D01*
X165999500Y-111272780D01*
X164963680Y-111272780D01*
X164868430Y-111368030D01*
X164131570Y-111368030D01*
X164036320Y-111272780D01*
X163000500Y-111272780D01*
X162999500Y-111272780D01*
X161963680Y-111272780D01*
X161868430Y-111368030D01*
X160627000Y-111368030D01*
X160627000Y-110122074D01*
X161868430Y-110122074D01*
X161868430Y-111176530D01*
X161963680Y-111271780D01*
X162999500Y-111271780D01*
X162999500Y-109912110D01*
X163000500Y-109912110D01*
X163000500Y-111271780D01*
X164036320Y-111271780D01*
X164131570Y-111176530D01*
X164131570Y-110122074D01*
X164868430Y-110122074D01*
X164868430Y-111176530D01*
X164963680Y-111271780D01*
X165999500Y-111271780D01*
X165999500Y-109912110D01*
X166000500Y-109912110D01*
X166000500Y-111271780D01*
X167036320Y-111271780D01*
X167131570Y-111176530D01*
X167131570Y-110122074D01*
X167868430Y-110122074D01*
X167868430Y-111176530D01*
X167963680Y-111271780D01*
X168999500Y-111271780D01*
X168999500Y-109912110D01*
X168904250Y-109816860D01*
X168173645Y-109816860D01*
X168033611Y-109874864D01*
X167926434Y-109982040D01*
X167868430Y-110122074D01*
X167131570Y-110122074D01*
X167073566Y-109982040D01*
X166966389Y-109874864D01*
X166826355Y-109816860D01*
X166095750Y-109816860D01*
X166000500Y-109912110D01*
X165999500Y-109912110D01*
X165904250Y-109816860D01*
X165173645Y-109816860D01*
X165033611Y-109874864D01*
X164926434Y-109982040D01*
X164868430Y-110122074D01*
X164131570Y-110122074D01*
X164073566Y-109982040D01*
X163966389Y-109874864D01*
X163826355Y-109816860D01*
X163095750Y-109816860D01*
X163000500Y-109912110D01*
X162999500Y-109912110D01*
X162904250Y-109816860D01*
X162173645Y-109816860D01*
X162033611Y-109874864D01*
X161926434Y-109982040D01*
X161868430Y-110122074D01*
X160627000Y-110122074D01*
X160627000Y-109631000D01*
X161993976Y-109631000D01*
X162098296Y-109702279D01*
X162249430Y-109732884D01*
X163750570Y-109732884D01*
X163891760Y-109706317D01*
X164008807Y-109631000D01*
X164993976Y-109631000D01*
X165098296Y-109702279D01*
X165249430Y-109732884D01*
X166750570Y-109732884D01*
X166891760Y-109706317D01*
X167008807Y-109631000D01*
X167993976Y-109631000D01*
X168098296Y-109702279D01*
X168249430Y-109732884D01*
X169458797Y-109732884D01*
X169542773Y-109816860D01*
X169095750Y-109816860D01*
X169000500Y-109912110D01*
X169000500Y-111271780D01*
X170036320Y-111271780D01*
X170088932Y-111219168D01*
X170661536Y-111791773D01*
X170661536Y-112000000D01*
X170688103Y-112141190D01*
X170771546Y-112270865D01*
X170898866Y-112357859D01*
X171050000Y-112388464D01*
X171950000Y-112388464D01*
X172091190Y-112361897D01*
X172220865Y-112278454D01*
X172307859Y-112151134D01*
X172338464Y-112000000D01*
X172338464Y-111845750D01*
X172669000Y-111845750D01*
X172669000Y-112075786D01*
X172727004Y-112215820D01*
X172834181Y-112322996D01*
X172974215Y-112381000D01*
X173404250Y-112381000D01*
X173499500Y-112285750D01*
X173499500Y-111750500D01*
X173500500Y-111750500D01*
X173500500Y-112285750D01*
X173595750Y-112381000D01*
X174025785Y-112381000D01*
X174165819Y-112322996D01*
X174272996Y-112215820D01*
X174331000Y-112075786D01*
X174331000Y-111845750D01*
X174235750Y-111750500D01*
X173500500Y-111750500D01*
X173499500Y-111750500D01*
X172764250Y-111750500D01*
X172669000Y-111845750D01*
X172338464Y-111845750D01*
X172338464Y-111500000D01*
X172324204Y-111424214D01*
X172669000Y-111424214D01*
X172669000Y-111654250D01*
X172764250Y-111749500D01*
X173499500Y-111749500D01*
X173499500Y-111214250D01*
X173500500Y-111214250D01*
X173500500Y-111749500D01*
X174235750Y-111749500D01*
X174331000Y-111654250D01*
X174331000Y-111424214D01*
X174272996Y-111284180D01*
X174165819Y-111177004D01*
X174025785Y-111119000D01*
X173595750Y-111119000D01*
X173500500Y-111214250D01*
X173499500Y-111214250D01*
X173404250Y-111119000D01*
X172974215Y-111119000D01*
X172834181Y-111177004D01*
X172727004Y-111284180D01*
X172669000Y-111424214D01*
X172324204Y-111424214D01*
X172311897Y-111358810D01*
X172228454Y-111229135D01*
X172101134Y-111142141D01*
X171950000Y-111111536D01*
X171341773Y-111111536D01*
X171118700Y-110888464D01*
X171950000Y-110888464D01*
X172091190Y-110861897D01*
X172220865Y-110778454D01*
X172253289Y-110731000D01*
X172745894Y-110731000D01*
X172771546Y-110770865D01*
X172898866Y-110857859D01*
X173050000Y-110888464D01*
X173950000Y-110888464D01*
X174091190Y-110861897D01*
X174220865Y-110778454D01*
X174307859Y-110651134D01*
X174338464Y-110500000D01*
X174338464Y-110000000D01*
X174311897Y-109858810D01*
X174228454Y-109729135D01*
X174101134Y-109642141D01*
X173950000Y-109611536D01*
X173050000Y-109611536D01*
X172908810Y-109638103D01*
X172779135Y-109721546D01*
X172746711Y-109769000D01*
X172254106Y-109769000D01*
X172228454Y-109729135D01*
X172101134Y-109642141D01*
X172031040Y-109627947D01*
X172031040Y-108988083D01*
X172065880Y-108981527D01*
X172195555Y-108898084D01*
X172204206Y-108885423D01*
X172308761Y-108864626D01*
X172464808Y-108760358D01*
X172686846Y-108538321D01*
X172686846Y-108619630D01*
X172713413Y-108760820D01*
X172796856Y-108890495D01*
X172924176Y-108977489D01*
X173075310Y-109008094D01*
X173824610Y-109008094D01*
X173861036Y-109001240D01*
X174478160Y-109001240D01*
X175391536Y-109914615D01*
X175391536Y-110640000D01*
X175418103Y-110781190D01*
X175501546Y-110910865D01*
X175628866Y-110997859D01*
X175780000Y-111028464D01*
X176505384Y-111028464D01*
X177238460Y-111761540D01*
X177459392Y-111909162D01*
X177720000Y-111961001D01*
X177720005Y-111961000D01*
X177945894Y-111961000D01*
X177971546Y-112000865D01*
X178098866Y-112087859D01*
X178250000Y-112118464D01*
X178750000Y-112118464D01*
X178891190Y-112091897D01*
X179020865Y-112008454D01*
X179107859Y-111881134D01*
X179138464Y-111730000D01*
X179138464Y-111493843D01*
X179181000Y-111280000D01*
X179138464Y-111066157D01*
X179138464Y-110830000D01*
X179111897Y-110688810D01*
X179028454Y-110559135D01*
X178901134Y-110472141D01*
X178750000Y-110441536D01*
X178250000Y-110441536D01*
X178108810Y-110468103D01*
X177979135Y-110551546D01*
X177969186Y-110566106D01*
X177868464Y-110465384D01*
X177868464Y-109740000D01*
X177841897Y-109598810D01*
X177758454Y-109469135D01*
X177631134Y-109382141D01*
X177480000Y-109351536D01*
X176754615Y-109351536D01*
X175784080Y-108381000D01*
X178250000Y-108381000D01*
X178393367Y-108352997D01*
X178519408Y-108269408D01*
X179519408Y-107269408D01*
X179600983Y-107148230D01*
X179628205Y-107013800D01*
X179750000Y-107038464D01*
X180250000Y-107038464D01*
X180391190Y-107011897D01*
X180520865Y-106928454D01*
X180607859Y-106801134D01*
X180632186Y-106681000D01*
X181473936Y-106681000D01*
X181473936Y-107317600D01*
G36*
X174726939Y-107765755D02*
X174599632Y-107791078D01*
X174527552Y-107839240D01*
X174179100Y-107839240D01*
X174110360Y-107770500D01*
X173450460Y-107770500D01*
X173450460Y-107790500D01*
X173449460Y-107790500D01*
X173449460Y-107770500D01*
X173429460Y-107770500D01*
X173429460Y-107769500D01*
X173449460Y-107769500D01*
X173449460Y-107749500D01*
X173450460Y-107749500D01*
X173450460Y-107769500D01*
X174110360Y-107769500D01*
X174205610Y-107674250D01*
X174205610Y-107631000D01*
X174592184Y-107631000D01*
X174726939Y-107765755D01*
X174726939Y-107765755D01*
G37*
X174726939Y-107765755D02*
X174599632Y-107791078D01*
X174527552Y-107839240D01*
X174179100Y-107839240D01*
X174110360Y-107770500D01*
X173450460Y-107770500D01*
X173450460Y-107790500D01*
X173449460Y-107790500D01*
X173449460Y-107770500D01*
X173429460Y-107770500D01*
X173429460Y-107769500D01*
X173449460Y-107769500D01*
X173449460Y-107749500D01*
X173450460Y-107749500D01*
X173450460Y-107769500D01*
X174110360Y-107769500D01*
X174205610Y-107674250D01*
X174205610Y-107631000D01*
X174592184Y-107631000D01*
X174726939Y-107765755D01*
G36*
X181174662Y-90854268D02*
X181079864Y-90850561D01*
X180097949Y-91213017D01*
X179923645Y-91329483D01*
X179670860Y-91670153D01*
X181500000Y-93499293D01*
X181514143Y-93485151D01*
X181514850Y-93485858D01*
X181500707Y-93500000D01*
X183329847Y-95329140D01*
X183670517Y-95076355D01*
X184108541Y-94125741D01*
X184121245Y-93800851D01*
X184373000Y-94052606D01*
X184373000Y-97503075D01*
X184357897Y-97422810D01*
X184274454Y-97293135D01*
X184147134Y-97206141D01*
X183996000Y-97175536D01*
X181964000Y-97175536D01*
X181822810Y-97202103D01*
X181693135Y-97285546D01*
X181606141Y-97412866D01*
X181575536Y-97564000D01*
X181575536Y-99596000D01*
X181602103Y-99737190D01*
X181685546Y-99866865D01*
X181812866Y-99953859D01*
X181964000Y-99984464D01*
X182189818Y-99984464D01*
X181849509Y-100299269D01*
X181621482Y-100794364D01*
X181600278Y-100900967D01*
X181678250Y-101119500D01*
X182979500Y-101119500D01*
X182979500Y-101099500D01*
X182980500Y-101099500D01*
X182980500Y-101119500D01*
X183000500Y-101119500D01*
X183000500Y-101120500D01*
X182980500Y-101120500D01*
X182980500Y-102421750D01*
X183199033Y-102499722D01*
X183710357Y-102310877D01*
X184110491Y-101940731D01*
X184338518Y-101445636D01*
X184359722Y-101339033D01*
X184281751Y-101120502D01*
X184373000Y-101120502D01*
X184373000Y-104809448D01*
X184248734Y-104724541D01*
X184097600Y-104693936D01*
X181862400Y-104693936D01*
X181721210Y-104720503D01*
X181591535Y-104803946D01*
X181504541Y-104931266D01*
X181473936Y-105082400D01*
X181473936Y-105719000D01*
X180632631Y-105719000D01*
X180611897Y-105608810D01*
X180528454Y-105479135D01*
X180401134Y-105392141D01*
X180250000Y-105361536D01*
X179750000Y-105361536D01*
X179631000Y-105383928D01*
X179631000Y-105250000D01*
X179602997Y-105106633D01*
X179519408Y-104980592D01*
X177877280Y-103338464D01*
X178000000Y-103338464D01*
X178141190Y-103311897D01*
X178270865Y-103228454D01*
X178357859Y-103101134D01*
X178388464Y-102950000D01*
X178388464Y-102050000D01*
X178361897Y-101908810D01*
X178278454Y-101779135D01*
X178151134Y-101692141D01*
X178000000Y-101661536D01*
X177500000Y-101661536D01*
X177358810Y-101688103D01*
X177229135Y-101771546D01*
X177142141Y-101898866D01*
X177137051Y-101924000D01*
X176311280Y-101924000D01*
X176253454Y-101834135D01*
X176158813Y-101769470D01*
X176245865Y-101713454D01*
X176312452Y-101616000D01*
X176365000Y-101616000D01*
X176549071Y-101579386D01*
X176705118Y-101475118D01*
X177130334Y-101049903D01*
X177138103Y-101091190D01*
X177221546Y-101220865D01*
X177348866Y-101307859D01*
X177500000Y-101338464D01*
X178000000Y-101338464D01*
X178141190Y-101311897D01*
X178270865Y-101228454D01*
X178357859Y-101101134D01*
X178388464Y-100950000D01*
X178388464Y-100050000D01*
X178361897Y-99908810D01*
X178278454Y-99779135D01*
X178151134Y-99692141D01*
X178000000Y-99661536D01*
X177500000Y-99661536D01*
X177358810Y-99688103D01*
X177229135Y-99771546D01*
X177142141Y-99898866D01*
X177117814Y-100019000D01*
X177000000Y-100019000D01*
X176815929Y-100055614D01*
X176782934Y-100077661D01*
X176659882Y-100159881D01*
X176254305Y-100565458D01*
X176253454Y-100564135D01*
X176158813Y-100499470D01*
X176245865Y-100443454D01*
X176332859Y-100316134D01*
X176363464Y-100165000D01*
X176363464Y-99856772D01*
X177136669Y-99083568D01*
X177138103Y-99091190D01*
X177221546Y-99220865D01*
X177348866Y-99307859D01*
X177500000Y-99338464D01*
X178000000Y-99338464D01*
X178141190Y-99311897D01*
X178270865Y-99228454D01*
X178357859Y-99101134D01*
X178388464Y-98950000D01*
X178388464Y-98738207D01*
X178430882Y-98636054D01*
X178431118Y-98365135D01*
X178388464Y-98261904D01*
X178388464Y-98118700D01*
X178611536Y-98341773D01*
X178611536Y-98950000D01*
X178638103Y-99091190D01*
X178721546Y-99220865D01*
X178769000Y-99253289D01*
X178769000Y-99745894D01*
X178729135Y-99771546D01*
X178642141Y-99898866D01*
X178611536Y-100050000D01*
X178611536Y-100950000D01*
X178638103Y-101091190D01*
X178721546Y-101220865D01*
X178769000Y-101253289D01*
X178769000Y-101745894D01*
X178729135Y-101771546D01*
X178642141Y-101898866D01*
X178611536Y-102050000D01*
X178611536Y-102950000D01*
X178638103Y-103091190D01*
X178721546Y-103220865D01*
X178848866Y-103307859D01*
X179000000Y-103338464D01*
X179500000Y-103338464D01*
X179641190Y-103311897D01*
X179770865Y-103228454D01*
X179857859Y-103101134D01*
X179888464Y-102950000D01*
X179888464Y-102050000D01*
X179861897Y-101908810D01*
X179778454Y-101779135D01*
X179731000Y-101746711D01*
X179731000Y-101339033D01*
X181600278Y-101339033D01*
X181621482Y-101445636D01*
X181849509Y-101940731D01*
X182249643Y-102310877D01*
X182760967Y-102499722D01*
X182979500Y-102421750D01*
X182979500Y-101120500D01*
X181678250Y-101120500D01*
X181600278Y-101339033D01*
X179731000Y-101339033D01*
X179731000Y-101254106D01*
X179770865Y-101228454D01*
X179857859Y-101101134D01*
X179888464Y-100950000D01*
X179888464Y-100050000D01*
X179861897Y-99908810D01*
X179778454Y-99779135D01*
X179731000Y-99746711D01*
X179731000Y-99254106D01*
X179770865Y-99228454D01*
X179857859Y-99101134D01*
X179888464Y-98950000D01*
X179888464Y-98050000D01*
X179861897Y-97908810D01*
X179778454Y-97779135D01*
X179651134Y-97692141D01*
X179500000Y-97661536D01*
X179291773Y-97661536D01*
X178810118Y-97179882D01*
X178654071Y-97075614D01*
X178654066Y-97075613D01*
X178470000Y-97039000D01*
X177437600Y-97039000D01*
X177455500Y-96995786D01*
X177455500Y-96175750D01*
X177360250Y-96080500D01*
X176630500Y-96080500D01*
X176630500Y-97205750D01*
X176725750Y-97301000D01*
X176788763Y-97301000D01*
X176141870Y-97947893D01*
X176126134Y-97937141D01*
X175975000Y-97906536D01*
X174425000Y-97906536D01*
X174283810Y-97933103D01*
X174259185Y-97948949D01*
X173611895Y-97301659D01*
X173645500Y-97308464D01*
X174534500Y-97308464D01*
X174675690Y-97281897D01*
X174805365Y-97198454D01*
X174892359Y-97071134D01*
X174922964Y-96920000D01*
X174922964Y-96175750D01*
X175804500Y-96175750D01*
X175804500Y-96995786D01*
X175862504Y-97135820D01*
X175969681Y-97242996D01*
X176109715Y-97301000D01*
X176534250Y-97301000D01*
X176629500Y-97205750D01*
X176629500Y-96080500D01*
X175899750Y-96080500D01*
X175804500Y-96175750D01*
X174922964Y-96175750D01*
X174922964Y-95536571D01*
X175048256Y-95411497D01*
X175220804Y-94995957D01*
X175221000Y-94770879D01*
X175498104Y-94771121D01*
X175491119Y-94950887D01*
X175647034Y-95372949D01*
X175696782Y-95447405D01*
X175804500Y-95488377D01*
X175804500Y-95984250D01*
X175899750Y-96079500D01*
X176629500Y-96079500D01*
X176629500Y-96059500D01*
X176630500Y-96059500D01*
X176630500Y-96079500D01*
X177360250Y-96079500D01*
X177455500Y-95984250D01*
X177455500Y-95488377D01*
X177563218Y-95447405D01*
X177617350Y-95329847D01*
X179670860Y-95329847D01*
X179923645Y-95670517D01*
X180874259Y-96108541D01*
X181920136Y-96149439D01*
X182902051Y-95786983D01*
X183076355Y-95670517D01*
X183329140Y-95329847D01*
X181500000Y-93500707D01*
X179670860Y-95329847D01*
X177617350Y-95329847D01*
X177751412Y-95038713D01*
X177768881Y-94589113D01*
X177612966Y-94167051D01*
X177563218Y-94092595D01*
X177378407Y-94022300D01*
X176630707Y-94770000D01*
X176644850Y-94784143D01*
X176644143Y-94784850D01*
X176630000Y-94770707D01*
X176615858Y-94784850D01*
X176615151Y-94784143D01*
X176629293Y-94770000D01*
X176615151Y-94755858D01*
X176615858Y-94755151D01*
X176630000Y-94769293D01*
X177377700Y-94021593D01*
X177339110Y-93920136D01*
X178850561Y-93920136D01*
X179213017Y-94902051D01*
X179329483Y-95076355D01*
X179670153Y-95329140D01*
X181499293Y-93500000D01*
X179670153Y-91670860D01*
X179329483Y-91923645D01*
X178891459Y-92874259D01*
X178850561Y-93920136D01*
X177339110Y-93920136D01*
X177307405Y-93836782D01*
X176898713Y-93648588D01*
X176630880Y-93638181D01*
X176631122Y-93361002D01*
X176853983Y-93361196D01*
X177269823Y-93189375D01*
X177588256Y-92871497D01*
X177760804Y-92455957D01*
X177761196Y-92006017D01*
X177589375Y-91590177D01*
X177462964Y-91463545D01*
X177462964Y-90627000D01*
X180947394Y-90627000D01*
X181174662Y-90854268D01*
X181174662Y-90854268D01*
G37*
X181174662Y-90854268D02*
X181079864Y-90850561D01*
X180097949Y-91213017D01*
X179923645Y-91329483D01*
X179670860Y-91670153D01*
X181500000Y-93499293D01*
X181514143Y-93485151D01*
X181514850Y-93485858D01*
X181500707Y-93500000D01*
X183329847Y-95329140D01*
X183670517Y-95076355D01*
X184108541Y-94125741D01*
X184121245Y-93800851D01*
X184373000Y-94052606D01*
X184373000Y-97503075D01*
X184357897Y-97422810D01*
X184274454Y-97293135D01*
X184147134Y-97206141D01*
X183996000Y-97175536D01*
X181964000Y-97175536D01*
X181822810Y-97202103D01*
X181693135Y-97285546D01*
X181606141Y-97412866D01*
X181575536Y-97564000D01*
X181575536Y-99596000D01*
X181602103Y-99737190D01*
X181685546Y-99866865D01*
X181812866Y-99953859D01*
X181964000Y-99984464D01*
X182189818Y-99984464D01*
X181849509Y-100299269D01*
X181621482Y-100794364D01*
X181600278Y-100900967D01*
X181678250Y-101119500D01*
X182979500Y-101119500D01*
X182979500Y-101099500D01*
X182980500Y-101099500D01*
X182980500Y-101119500D01*
X183000500Y-101119500D01*
X183000500Y-101120500D01*
X182980500Y-101120500D01*
X182980500Y-102421750D01*
X183199033Y-102499722D01*
X183710357Y-102310877D01*
X184110491Y-101940731D01*
X184338518Y-101445636D01*
X184359722Y-101339033D01*
X184281751Y-101120502D01*
X184373000Y-101120502D01*
X184373000Y-104809448D01*
X184248734Y-104724541D01*
X184097600Y-104693936D01*
X181862400Y-104693936D01*
X181721210Y-104720503D01*
X181591535Y-104803946D01*
X181504541Y-104931266D01*
X181473936Y-105082400D01*
X181473936Y-105719000D01*
X180632631Y-105719000D01*
X180611897Y-105608810D01*
X180528454Y-105479135D01*
X180401134Y-105392141D01*
X180250000Y-105361536D01*
X179750000Y-105361536D01*
X179631000Y-105383928D01*
X179631000Y-105250000D01*
X179602997Y-105106633D01*
X179519408Y-104980592D01*
X177877280Y-103338464D01*
X178000000Y-103338464D01*
X178141190Y-103311897D01*
X178270865Y-103228454D01*
X178357859Y-103101134D01*
X178388464Y-102950000D01*
X178388464Y-102050000D01*
X178361897Y-101908810D01*
X178278454Y-101779135D01*
X178151134Y-101692141D01*
X178000000Y-101661536D01*
X177500000Y-101661536D01*
X177358810Y-101688103D01*
X177229135Y-101771546D01*
X177142141Y-101898866D01*
X177137051Y-101924000D01*
X176311280Y-101924000D01*
X176253454Y-101834135D01*
X176158813Y-101769470D01*
X176245865Y-101713454D01*
X176312452Y-101616000D01*
X176365000Y-101616000D01*
X176549071Y-101579386D01*
X176705118Y-101475118D01*
X177130334Y-101049903D01*
X177138103Y-101091190D01*
X177221546Y-101220865D01*
X177348866Y-101307859D01*
X177500000Y-101338464D01*
X178000000Y-101338464D01*
X178141190Y-101311897D01*
X178270865Y-101228454D01*
X178357859Y-101101134D01*
X178388464Y-100950000D01*
X178388464Y-100050000D01*
X178361897Y-99908810D01*
X178278454Y-99779135D01*
X178151134Y-99692141D01*
X178000000Y-99661536D01*
X177500000Y-99661536D01*
X177358810Y-99688103D01*
X177229135Y-99771546D01*
X177142141Y-99898866D01*
X177117814Y-100019000D01*
X177000000Y-100019000D01*
X176815929Y-100055614D01*
X176782934Y-100077661D01*
X176659882Y-100159881D01*
X176254305Y-100565458D01*
X176253454Y-100564135D01*
X176158813Y-100499470D01*
X176245865Y-100443454D01*
X176332859Y-100316134D01*
X176363464Y-100165000D01*
X176363464Y-99856772D01*
X177136669Y-99083568D01*
X177138103Y-99091190D01*
X177221546Y-99220865D01*
X177348866Y-99307859D01*
X177500000Y-99338464D01*
X178000000Y-99338464D01*
X178141190Y-99311897D01*
X178270865Y-99228454D01*
X178357859Y-99101134D01*
X178388464Y-98950000D01*
X178388464Y-98738207D01*
X178430882Y-98636054D01*
X178431118Y-98365135D01*
X178388464Y-98261904D01*
X178388464Y-98118700D01*
X178611536Y-98341773D01*
X178611536Y-98950000D01*
X178638103Y-99091190D01*
X178721546Y-99220865D01*
X178769000Y-99253289D01*
X178769000Y-99745894D01*
X178729135Y-99771546D01*
X178642141Y-99898866D01*
X178611536Y-100050000D01*
X178611536Y-100950000D01*
X178638103Y-101091190D01*
X178721546Y-101220865D01*
X178769000Y-101253289D01*
X178769000Y-101745894D01*
X178729135Y-101771546D01*
X178642141Y-101898866D01*
X178611536Y-102050000D01*
X178611536Y-102950000D01*
X178638103Y-103091190D01*
X178721546Y-103220865D01*
X178848866Y-103307859D01*
X179000000Y-103338464D01*
X179500000Y-103338464D01*
X179641190Y-103311897D01*
X179770865Y-103228454D01*
X179857859Y-103101134D01*
X179888464Y-102950000D01*
X179888464Y-102050000D01*
X179861897Y-101908810D01*
X179778454Y-101779135D01*
X179731000Y-101746711D01*
X179731000Y-101339033D01*
X181600278Y-101339033D01*
X181621482Y-101445636D01*
X181849509Y-101940731D01*
X182249643Y-102310877D01*
X182760967Y-102499722D01*
X182979500Y-102421750D01*
X182979500Y-101120500D01*
X181678250Y-101120500D01*
X181600278Y-101339033D01*
X179731000Y-101339033D01*
X179731000Y-101254106D01*
X179770865Y-101228454D01*
X179857859Y-101101134D01*
X179888464Y-100950000D01*
X179888464Y-100050000D01*
X179861897Y-99908810D01*
X179778454Y-99779135D01*
X179731000Y-99746711D01*
X179731000Y-99254106D01*
X179770865Y-99228454D01*
X179857859Y-99101134D01*
X179888464Y-98950000D01*
X179888464Y-98050000D01*
X179861897Y-97908810D01*
X179778454Y-97779135D01*
X179651134Y-97692141D01*
X179500000Y-97661536D01*
X179291773Y-97661536D01*
X178810118Y-97179882D01*
X178654071Y-97075614D01*
X178654066Y-97075613D01*
X178470000Y-97039000D01*
X177437600Y-97039000D01*
X177455500Y-96995786D01*
X177455500Y-96175750D01*
X177360250Y-96080500D01*
X176630500Y-96080500D01*
X176630500Y-97205750D01*
X176725750Y-97301000D01*
X176788763Y-97301000D01*
X176141870Y-97947893D01*
X176126134Y-97937141D01*
X175975000Y-97906536D01*
X174425000Y-97906536D01*
X174283810Y-97933103D01*
X174259185Y-97948949D01*
X173611895Y-97301659D01*
X173645500Y-97308464D01*
X174534500Y-97308464D01*
X174675690Y-97281897D01*
X174805365Y-97198454D01*
X174892359Y-97071134D01*
X174922964Y-96920000D01*
X174922964Y-96175750D01*
X175804500Y-96175750D01*
X175804500Y-96995786D01*
X175862504Y-97135820D01*
X175969681Y-97242996D01*
X176109715Y-97301000D01*
X176534250Y-97301000D01*
X176629500Y-97205750D01*
X176629500Y-96080500D01*
X175899750Y-96080500D01*
X175804500Y-96175750D01*
X174922964Y-96175750D01*
X174922964Y-95536571D01*
X175048256Y-95411497D01*
X175220804Y-94995957D01*
X175221000Y-94770879D01*
X175498104Y-94771121D01*
X175491119Y-94950887D01*
X175647034Y-95372949D01*
X175696782Y-95447405D01*
X175804500Y-95488377D01*
X175804500Y-95984250D01*
X175899750Y-96079500D01*
X176629500Y-96079500D01*
X176629500Y-96059500D01*
X176630500Y-96059500D01*
X176630500Y-96079500D01*
X177360250Y-96079500D01*
X177455500Y-95984250D01*
X177455500Y-95488377D01*
X177563218Y-95447405D01*
X177617350Y-95329847D01*
X179670860Y-95329847D01*
X179923645Y-95670517D01*
X180874259Y-96108541D01*
X181920136Y-96149439D01*
X182902051Y-95786983D01*
X183076355Y-95670517D01*
X183329140Y-95329847D01*
X181500000Y-93500707D01*
X179670860Y-95329847D01*
X177617350Y-95329847D01*
X177751412Y-95038713D01*
X177768881Y-94589113D01*
X177612966Y-94167051D01*
X177563218Y-94092595D01*
X177378407Y-94022300D01*
X176630707Y-94770000D01*
X176644850Y-94784143D01*
X176644143Y-94784850D01*
X176630000Y-94770707D01*
X176615858Y-94784850D01*
X176615151Y-94784143D01*
X176629293Y-94770000D01*
X176615151Y-94755858D01*
X176615858Y-94755151D01*
X176630000Y-94769293D01*
X177377700Y-94021593D01*
X177339110Y-93920136D01*
X178850561Y-93920136D01*
X179213017Y-94902051D01*
X179329483Y-95076355D01*
X179670153Y-95329140D01*
X181499293Y-93500000D01*
X179670153Y-91670860D01*
X179329483Y-91923645D01*
X178891459Y-92874259D01*
X178850561Y-93920136D01*
X177339110Y-93920136D01*
X177307405Y-93836782D01*
X176898713Y-93648588D01*
X176630880Y-93638181D01*
X176631122Y-93361002D01*
X176853983Y-93361196D01*
X177269823Y-93189375D01*
X177588256Y-92871497D01*
X177760804Y-92455957D01*
X177761196Y-92006017D01*
X177589375Y-91590177D01*
X177462964Y-91463545D01*
X177462964Y-90627000D01*
X180947394Y-90627000D01*
X181174662Y-90854268D01*
G36*
X166584882Y-98590118D02*
X166740929Y-98694386D01*
X166745042Y-98695204D01*
X166763103Y-98791190D01*
X166846546Y-98920865D01*
X166966897Y-99003097D01*
X166909181Y-99027004D01*
X166802004Y-99134180D01*
X166744000Y-99274214D01*
X166744000Y-99654250D01*
X166839250Y-99749500D01*
X167499500Y-99749500D01*
X167499500Y-99729500D01*
X167500500Y-99729500D01*
X167500500Y-99749500D01*
X168160750Y-99749500D01*
X168256000Y-99654250D01*
X168256000Y-99274214D01*
X168197996Y-99134180D01*
X168090819Y-99027004D01*
X168031133Y-99002281D01*
X168145865Y-98928454D01*
X168232859Y-98801134D01*
X168254283Y-98695338D01*
X168259071Y-98694386D01*
X168264512Y-98690750D01*
X168644000Y-98690750D01*
X168644000Y-98970785D01*
X168702004Y-99110819D01*
X168809180Y-99217996D01*
X168838160Y-99230000D01*
X168809180Y-99242004D01*
X168702004Y-99349181D01*
X168644000Y-99489215D01*
X168644000Y-99769250D01*
X168739250Y-99864500D01*
X169799500Y-99864500D01*
X169799500Y-99279250D01*
X169750250Y-99230000D01*
X169799500Y-99180750D01*
X169799500Y-98595500D01*
X168739250Y-98595500D01*
X168644000Y-98690750D01*
X168264512Y-98690750D01*
X168415118Y-98590118D01*
X168644000Y-98361236D01*
X168644000Y-98499250D01*
X168739250Y-98594500D01*
X169799500Y-98594500D01*
X169799500Y-98574500D01*
X169800500Y-98574500D01*
X169800500Y-98594500D01*
X169820500Y-98594500D01*
X169820500Y-98595500D01*
X169800500Y-98595500D01*
X169800500Y-99180750D01*
X169849750Y-99230000D01*
X169800500Y-99279250D01*
X169800500Y-99864500D01*
X169820500Y-99864500D01*
X169820500Y-99865500D01*
X169800500Y-99865500D01*
X169800500Y-100450750D01*
X169849750Y-100500000D01*
X169800500Y-100549250D01*
X169800500Y-101134500D01*
X170860750Y-101134500D01*
X170956000Y-101039250D01*
X170956000Y-100759215D01*
X170897996Y-100619181D01*
X170790820Y-100512004D01*
X170761840Y-100500000D01*
X170790820Y-100487996D01*
X170897996Y-100380819D01*
X170956000Y-100240785D01*
X170956000Y-99960750D01*
X170860752Y-99865502D01*
X170914178Y-99865502D01*
X170922339Y-99885252D01*
X171113741Y-100076987D01*
X171363946Y-100180882D01*
X171634865Y-100181118D01*
X171766494Y-100126730D01*
X174036536Y-102396773D01*
X174036536Y-102619000D01*
X170956000Y-102619000D01*
X170956000Y-102500750D01*
X170860750Y-102405500D01*
X169800500Y-102405500D01*
X169800500Y-102425500D01*
X169799500Y-102425500D01*
X169799500Y-102405500D01*
X168739250Y-102405500D01*
X168644000Y-102500750D01*
X168644000Y-102619000D01*
X167657816Y-102619000D01*
X166269566Y-101230750D01*
X168644000Y-101230750D01*
X168644000Y-101510785D01*
X168702004Y-101650819D01*
X168809180Y-101757996D01*
X168838160Y-101770000D01*
X168809180Y-101782004D01*
X168702004Y-101889181D01*
X168644000Y-102029215D01*
X168644000Y-102309250D01*
X168739250Y-102404500D01*
X169799500Y-102404500D01*
X169799500Y-101819250D01*
X169750250Y-101770000D01*
X169799500Y-101720750D01*
X169799500Y-101135500D01*
X169800500Y-101135500D01*
X169800500Y-101720750D01*
X169849750Y-101770000D01*
X169800500Y-101819250D01*
X169800500Y-102404500D01*
X170860750Y-102404500D01*
X170956000Y-102309250D01*
X170956000Y-102029215D01*
X170897996Y-101889181D01*
X170790820Y-101782004D01*
X170761840Y-101770000D01*
X170790820Y-101757996D01*
X170897996Y-101650819D01*
X170956000Y-101510785D01*
X170956000Y-101230750D01*
X170860750Y-101135500D01*
X169800500Y-101135500D01*
X169799500Y-101135500D01*
X168739250Y-101135500D01*
X168644000Y-101230750D01*
X166269566Y-101230750D01*
X164884566Y-99845750D01*
X166744000Y-99845750D01*
X166744000Y-100225786D01*
X166802004Y-100365820D01*
X166909181Y-100472996D01*
X167049215Y-100531000D01*
X167404250Y-100531000D01*
X167499500Y-100435750D01*
X167499500Y-99750500D01*
X167500500Y-99750500D01*
X167500500Y-100435750D01*
X167595750Y-100531000D01*
X167950785Y-100531000D01*
X168090819Y-100472996D01*
X168197996Y-100365820D01*
X168256000Y-100225786D01*
X168256000Y-99960750D01*
X168644000Y-99960750D01*
X168644000Y-100240785D01*
X168702004Y-100380819D01*
X168809180Y-100487996D01*
X168838160Y-100500000D01*
X168809180Y-100512004D01*
X168702004Y-100619181D01*
X168644000Y-100759215D01*
X168644000Y-101039250D01*
X168739250Y-101134500D01*
X169799500Y-101134500D01*
X169799500Y-100549250D01*
X169750250Y-100500000D01*
X169799500Y-100450750D01*
X169799500Y-99865500D01*
X168739250Y-99865500D01*
X168644000Y-99960750D01*
X168256000Y-99960750D01*
X168256000Y-99845750D01*
X168160750Y-99750500D01*
X167500500Y-99750500D01*
X167499500Y-99750500D01*
X166839250Y-99750500D01*
X166744000Y-99845750D01*
X164884566Y-99845750D01*
X163019816Y-97981000D01*
X165975764Y-97981000D01*
X166584882Y-98590118D01*
X166584882Y-98590118D01*
G37*
X166584882Y-98590118D02*
X166740929Y-98694386D01*
X166745042Y-98695204D01*
X166763103Y-98791190D01*
X166846546Y-98920865D01*
X166966897Y-99003097D01*
X166909181Y-99027004D01*
X166802004Y-99134180D01*
X166744000Y-99274214D01*
X166744000Y-99654250D01*
X166839250Y-99749500D01*
X167499500Y-99749500D01*
X167499500Y-99729500D01*
X167500500Y-99729500D01*
X167500500Y-99749500D01*
X168160750Y-99749500D01*
X168256000Y-99654250D01*
X168256000Y-99274214D01*
X168197996Y-99134180D01*
X168090819Y-99027004D01*
X168031133Y-99002281D01*
X168145865Y-98928454D01*
X168232859Y-98801134D01*
X168254283Y-98695338D01*
X168259071Y-98694386D01*
X168264512Y-98690750D01*
X168644000Y-98690750D01*
X168644000Y-98970785D01*
X168702004Y-99110819D01*
X168809180Y-99217996D01*
X168838160Y-99230000D01*
X168809180Y-99242004D01*
X168702004Y-99349181D01*
X168644000Y-99489215D01*
X168644000Y-99769250D01*
X168739250Y-99864500D01*
X169799500Y-99864500D01*
X169799500Y-99279250D01*
X169750250Y-99230000D01*
X169799500Y-99180750D01*
X169799500Y-98595500D01*
X168739250Y-98595500D01*
X168644000Y-98690750D01*
X168264512Y-98690750D01*
X168415118Y-98590118D01*
X168644000Y-98361236D01*
X168644000Y-98499250D01*
X168739250Y-98594500D01*
X169799500Y-98594500D01*
X169799500Y-98574500D01*
X169800500Y-98574500D01*
X169800500Y-98594500D01*
X169820500Y-98594500D01*
X169820500Y-98595500D01*
X169800500Y-98595500D01*
X169800500Y-99180750D01*
X169849750Y-99230000D01*
X169800500Y-99279250D01*
X169800500Y-99864500D01*
X169820500Y-99864500D01*
X169820500Y-99865500D01*
X169800500Y-99865500D01*
X169800500Y-100450750D01*
X169849750Y-100500000D01*
X169800500Y-100549250D01*
X169800500Y-101134500D01*
X170860750Y-101134500D01*
X170956000Y-101039250D01*
X170956000Y-100759215D01*
X170897996Y-100619181D01*
X170790820Y-100512004D01*
X170761840Y-100500000D01*
X170790820Y-100487996D01*
X170897996Y-100380819D01*
X170956000Y-100240785D01*
X170956000Y-99960750D01*
X170860752Y-99865502D01*
X170914178Y-99865502D01*
X170922339Y-99885252D01*
X171113741Y-100076987D01*
X171363946Y-100180882D01*
X171634865Y-100181118D01*
X171766494Y-100126730D01*
X174036536Y-102396773D01*
X174036536Y-102619000D01*
X170956000Y-102619000D01*
X170956000Y-102500750D01*
X170860750Y-102405500D01*
X169800500Y-102405500D01*
X169800500Y-102425500D01*
X169799500Y-102425500D01*
X169799500Y-102405500D01*
X168739250Y-102405500D01*
X168644000Y-102500750D01*
X168644000Y-102619000D01*
X167657816Y-102619000D01*
X166269566Y-101230750D01*
X168644000Y-101230750D01*
X168644000Y-101510785D01*
X168702004Y-101650819D01*
X168809180Y-101757996D01*
X168838160Y-101770000D01*
X168809180Y-101782004D01*
X168702004Y-101889181D01*
X168644000Y-102029215D01*
X168644000Y-102309250D01*
X168739250Y-102404500D01*
X169799500Y-102404500D01*
X169799500Y-101819250D01*
X169750250Y-101770000D01*
X169799500Y-101720750D01*
X169799500Y-101135500D01*
X169800500Y-101135500D01*
X169800500Y-101720750D01*
X169849750Y-101770000D01*
X169800500Y-101819250D01*
X169800500Y-102404500D01*
X170860750Y-102404500D01*
X170956000Y-102309250D01*
X170956000Y-102029215D01*
X170897996Y-101889181D01*
X170790820Y-101782004D01*
X170761840Y-101770000D01*
X170790820Y-101757996D01*
X170897996Y-101650819D01*
X170956000Y-101510785D01*
X170956000Y-101230750D01*
X170860750Y-101135500D01*
X169800500Y-101135500D01*
X169799500Y-101135500D01*
X168739250Y-101135500D01*
X168644000Y-101230750D01*
X166269566Y-101230750D01*
X164884566Y-99845750D01*
X166744000Y-99845750D01*
X166744000Y-100225786D01*
X166802004Y-100365820D01*
X166909181Y-100472996D01*
X167049215Y-100531000D01*
X167404250Y-100531000D01*
X167499500Y-100435750D01*
X167499500Y-99750500D01*
X167500500Y-99750500D01*
X167500500Y-100435750D01*
X167595750Y-100531000D01*
X167950785Y-100531000D01*
X168090819Y-100472996D01*
X168197996Y-100365820D01*
X168256000Y-100225786D01*
X168256000Y-99960750D01*
X168644000Y-99960750D01*
X168644000Y-100240785D01*
X168702004Y-100380819D01*
X168809180Y-100487996D01*
X168838160Y-100500000D01*
X168809180Y-100512004D01*
X168702004Y-100619181D01*
X168644000Y-100759215D01*
X168644000Y-101039250D01*
X168739250Y-101134500D01*
X169799500Y-101134500D01*
X169799500Y-100549250D01*
X169750250Y-100500000D01*
X169799500Y-100450750D01*
X169799500Y-99865500D01*
X168739250Y-99865500D01*
X168644000Y-99960750D01*
X168256000Y-99960750D01*
X168256000Y-99845750D01*
X168160750Y-99750500D01*
X167500500Y-99750500D01*
X167499500Y-99750500D01*
X166839250Y-99750500D01*
X166744000Y-99845750D01*
X164884566Y-99845750D01*
X163019816Y-97981000D01*
X165975764Y-97981000D01*
X166584882Y-98590118D01*
G36*
X163104500Y-90824250D02*
X163199750Y-90919500D01*
X163929500Y-90919500D01*
X163929500Y-90899500D01*
X163930500Y-90899500D01*
X163930500Y-90919500D01*
X164660250Y-90919500D01*
X164755500Y-90824250D01*
X164755500Y-90627000D01*
X165637036Y-90627000D01*
X165637036Y-91463429D01*
X165511744Y-91588503D01*
X165339196Y-92004043D01*
X165338804Y-92453983D01*
X165510625Y-92869823D01*
X165828503Y-93188256D01*
X166244043Y-93360804D01*
X166693983Y-93361196D01*
X167109823Y-93189375D01*
X167321159Y-92978407D01*
X168262300Y-92978407D01*
X168332595Y-93163218D01*
X168741287Y-93351412D01*
X169190887Y-93368881D01*
X169612949Y-93212966D01*
X169687405Y-93163218D01*
X169757700Y-92978407D01*
X169010000Y-92230707D01*
X168262300Y-92978407D01*
X167321159Y-92978407D01*
X167428256Y-92871497D01*
X167600804Y-92455957D01*
X167600843Y-92410887D01*
X167871119Y-92410887D01*
X168027034Y-92832949D01*
X168076782Y-92907405D01*
X168261593Y-92977700D01*
X169009293Y-92230000D01*
X168995151Y-92215858D01*
X168995858Y-92215151D01*
X169010000Y-92229293D01*
X169024143Y-92215151D01*
X169024850Y-92215858D01*
X169010707Y-92230000D01*
X169758407Y-92977700D01*
X169943218Y-92907405D01*
X170131412Y-92498713D01*
X170148881Y-92049113D01*
X169992966Y-91627051D01*
X169943218Y-91552595D01*
X169835500Y-91511623D01*
X169835500Y-91015750D01*
X169740250Y-90920500D01*
X169010500Y-90920500D01*
X169010500Y-90940500D01*
X169009500Y-90940500D01*
X169009500Y-90920500D01*
X168279750Y-90920500D01*
X168184500Y-91015750D01*
X168184500Y-91511623D01*
X168076782Y-91552595D01*
X167888588Y-91961287D01*
X167871119Y-92410887D01*
X167600843Y-92410887D01*
X167601196Y-92006017D01*
X167429375Y-91590177D01*
X167302964Y-91463545D01*
X167302964Y-90627000D01*
X168184500Y-90627000D01*
X168184500Y-90824250D01*
X168279750Y-90919500D01*
X169009500Y-90919500D01*
X169009500Y-90899500D01*
X169010500Y-90899500D01*
X169010500Y-90919500D01*
X169740250Y-90919500D01*
X169835500Y-90824250D01*
X169835500Y-90627000D01*
X170717036Y-90627000D01*
X170717036Y-91463429D01*
X170591744Y-91588503D01*
X170419196Y-92004043D01*
X170418804Y-92453983D01*
X170590625Y-92869823D01*
X170908503Y-93188256D01*
X171324043Y-93360804D01*
X171773983Y-93361196D01*
X172189823Y-93189375D01*
X172508256Y-92871497D01*
X172680804Y-92455957D01*
X172681196Y-92006017D01*
X172509375Y-91590177D01*
X172382964Y-91463545D01*
X172382964Y-90627000D01*
X173257036Y-90627000D01*
X173257036Y-91463429D01*
X173131744Y-91588503D01*
X172959196Y-92004043D01*
X172958804Y-92453983D01*
X173130625Y-92869823D01*
X173448503Y-93188256D01*
X173864043Y-93360804D01*
X174089121Y-93361000D01*
X174088878Y-93638998D01*
X173866017Y-93638804D01*
X173450177Y-93810625D01*
X173131744Y-94128503D01*
X172959196Y-94544043D01*
X172958804Y-94993983D01*
X173130625Y-95409823D01*
X173257036Y-95536455D01*
X173257036Y-96920000D01*
X173281328Y-97049101D01*
X173130000Y-97019000D01*
X172362916Y-97019000D01*
X172382964Y-96920000D01*
X172382964Y-95536571D01*
X172508256Y-95411497D01*
X172680804Y-94995957D01*
X172681196Y-94546017D01*
X172509375Y-94130177D01*
X172191497Y-93811744D01*
X171775957Y-93639196D01*
X171326017Y-93638804D01*
X170910177Y-93810625D01*
X170591744Y-94128503D01*
X170419196Y-94544043D01*
X170418804Y-94993983D01*
X170590625Y-95409823D01*
X170717036Y-95536455D01*
X170717036Y-96920000D01*
X170735664Y-97019000D01*
X169822916Y-97019000D01*
X169842964Y-96920000D01*
X169842964Y-95536571D01*
X169968256Y-95411497D01*
X170140804Y-94995957D01*
X170141196Y-94546017D01*
X169969375Y-94130177D01*
X169651497Y-93811744D01*
X169235957Y-93639196D01*
X168786017Y-93638804D01*
X168370177Y-93810625D01*
X168051744Y-94128503D01*
X167879196Y-94544043D01*
X167878804Y-94993983D01*
X168050625Y-95409823D01*
X168177036Y-95536455D01*
X168177036Y-96920000D01*
X168203603Y-97061190D01*
X168287046Y-97190865D01*
X168386170Y-97258594D01*
X168101279Y-97543485D01*
X168026134Y-97492141D01*
X167875000Y-97461536D01*
X167125000Y-97461536D01*
X166983810Y-97488103D01*
X166898338Y-97543102D01*
X166663700Y-97308464D01*
X166914500Y-97308464D01*
X167055690Y-97281897D01*
X167185365Y-97198454D01*
X167272359Y-97071134D01*
X167302964Y-96920000D01*
X167302964Y-95536571D01*
X167428256Y-95411497D01*
X167600804Y-94995957D01*
X167601196Y-94546017D01*
X167429375Y-94130177D01*
X167111497Y-93811744D01*
X166695957Y-93639196D01*
X166246017Y-93638804D01*
X165830177Y-93810625D01*
X165511744Y-94128503D01*
X165339196Y-94544043D01*
X165338804Y-94993983D01*
X165510625Y-95409823D01*
X165637036Y-95536455D01*
X165637036Y-96920000D01*
X165655664Y-97019000D01*
X164742916Y-97019000D01*
X164762964Y-96920000D01*
X164762964Y-95536571D01*
X164888256Y-95411497D01*
X165060804Y-94995957D01*
X165061196Y-94546017D01*
X164889375Y-94130177D01*
X164571497Y-93811744D01*
X164155957Y-93639196D01*
X163706017Y-93638804D01*
X163290177Y-93810625D01*
X162971744Y-94128503D01*
X162799196Y-94544043D01*
X162798804Y-94993983D01*
X162970625Y-95409823D01*
X163097036Y-95536455D01*
X163097036Y-96920000D01*
X163115664Y-97019000D01*
X162202916Y-97019000D01*
X162222964Y-96920000D01*
X162222964Y-95536571D01*
X162348256Y-95411497D01*
X162520804Y-94995957D01*
X162521196Y-94546017D01*
X162349375Y-94130177D01*
X162031497Y-93811744D01*
X161615957Y-93639196D01*
X161166017Y-93638804D01*
X160750177Y-93810625D01*
X160627000Y-93933587D01*
X160627000Y-93066541D01*
X160748503Y-93188256D01*
X161164043Y-93360804D01*
X161613983Y-93361196D01*
X162029823Y-93189375D01*
X162241159Y-92978407D01*
X163182300Y-92978407D01*
X163252595Y-93163218D01*
X163661287Y-93351412D01*
X164110887Y-93368881D01*
X164532949Y-93212966D01*
X164607405Y-93163218D01*
X164677700Y-92978407D01*
X163930000Y-92230707D01*
X163182300Y-92978407D01*
X162241159Y-92978407D01*
X162348256Y-92871497D01*
X162520804Y-92455957D01*
X162520843Y-92410887D01*
X162791119Y-92410887D01*
X162947034Y-92832949D01*
X162996782Y-92907405D01*
X163181593Y-92977700D01*
X163929293Y-92230000D01*
X163915151Y-92215858D01*
X163915858Y-92215151D01*
X163930000Y-92229293D01*
X163944143Y-92215151D01*
X163944850Y-92215858D01*
X163930707Y-92230000D01*
X164678407Y-92977700D01*
X164863218Y-92907405D01*
X165051412Y-92498713D01*
X165068881Y-92049113D01*
X164912966Y-91627051D01*
X164863218Y-91552595D01*
X164755500Y-91511623D01*
X164755500Y-91015750D01*
X164660250Y-90920500D01*
X163930500Y-90920500D01*
X163930500Y-90940500D01*
X163929500Y-90940500D01*
X163929500Y-90920500D01*
X163199750Y-90920500D01*
X163104500Y-91015750D01*
X163104500Y-91511623D01*
X162996782Y-91552595D01*
X162808588Y-91961287D01*
X162791119Y-92410887D01*
X162520843Y-92410887D01*
X162521196Y-92006017D01*
X162349375Y-91590177D01*
X162222964Y-91463545D01*
X162222964Y-90627000D01*
X163104500Y-90627000D01*
X163104500Y-90824250D01*
X163104500Y-90824250D01*
G37*
X163104500Y-90824250D02*
X163199750Y-90919500D01*
X163929500Y-90919500D01*
X163929500Y-90899500D01*
X163930500Y-90899500D01*
X163930500Y-90919500D01*
X164660250Y-90919500D01*
X164755500Y-90824250D01*
X164755500Y-90627000D01*
X165637036Y-90627000D01*
X165637036Y-91463429D01*
X165511744Y-91588503D01*
X165339196Y-92004043D01*
X165338804Y-92453983D01*
X165510625Y-92869823D01*
X165828503Y-93188256D01*
X166244043Y-93360804D01*
X166693983Y-93361196D01*
X167109823Y-93189375D01*
X167321159Y-92978407D01*
X168262300Y-92978407D01*
X168332595Y-93163218D01*
X168741287Y-93351412D01*
X169190887Y-93368881D01*
X169612949Y-93212966D01*
X169687405Y-93163218D01*
X169757700Y-92978407D01*
X169010000Y-92230707D01*
X168262300Y-92978407D01*
X167321159Y-92978407D01*
X167428256Y-92871497D01*
X167600804Y-92455957D01*
X167600843Y-92410887D01*
X167871119Y-92410887D01*
X168027034Y-92832949D01*
X168076782Y-92907405D01*
X168261593Y-92977700D01*
X169009293Y-92230000D01*
X168995151Y-92215858D01*
X168995858Y-92215151D01*
X169010000Y-92229293D01*
X169024143Y-92215151D01*
X169024850Y-92215858D01*
X169010707Y-92230000D01*
X169758407Y-92977700D01*
X169943218Y-92907405D01*
X170131412Y-92498713D01*
X170148881Y-92049113D01*
X169992966Y-91627051D01*
X169943218Y-91552595D01*
X169835500Y-91511623D01*
X169835500Y-91015750D01*
X169740250Y-90920500D01*
X169010500Y-90920500D01*
X169010500Y-90940500D01*
X169009500Y-90940500D01*
X169009500Y-90920500D01*
X168279750Y-90920500D01*
X168184500Y-91015750D01*
X168184500Y-91511623D01*
X168076782Y-91552595D01*
X167888588Y-91961287D01*
X167871119Y-92410887D01*
X167600843Y-92410887D01*
X167601196Y-92006017D01*
X167429375Y-91590177D01*
X167302964Y-91463545D01*
X167302964Y-90627000D01*
X168184500Y-90627000D01*
X168184500Y-90824250D01*
X168279750Y-90919500D01*
X169009500Y-90919500D01*
X169009500Y-90899500D01*
X169010500Y-90899500D01*
X169010500Y-90919500D01*
X169740250Y-90919500D01*
X169835500Y-90824250D01*
X169835500Y-90627000D01*
X170717036Y-90627000D01*
X170717036Y-91463429D01*
X170591744Y-91588503D01*
X170419196Y-92004043D01*
X170418804Y-92453983D01*
X170590625Y-92869823D01*
X170908503Y-93188256D01*
X171324043Y-93360804D01*
X171773983Y-93361196D01*
X172189823Y-93189375D01*
X172508256Y-92871497D01*
X172680804Y-92455957D01*
X172681196Y-92006017D01*
X172509375Y-91590177D01*
X172382964Y-91463545D01*
X172382964Y-90627000D01*
X173257036Y-90627000D01*
X173257036Y-91463429D01*
X173131744Y-91588503D01*
X172959196Y-92004043D01*
X172958804Y-92453983D01*
X173130625Y-92869823D01*
X173448503Y-93188256D01*
X173864043Y-93360804D01*
X174089121Y-93361000D01*
X174088878Y-93638998D01*
X173866017Y-93638804D01*
X173450177Y-93810625D01*
X173131744Y-94128503D01*
X172959196Y-94544043D01*
X172958804Y-94993983D01*
X173130625Y-95409823D01*
X173257036Y-95536455D01*
X173257036Y-96920000D01*
X173281328Y-97049101D01*
X173130000Y-97019000D01*
X172362916Y-97019000D01*
X172382964Y-96920000D01*
X172382964Y-95536571D01*
X172508256Y-95411497D01*
X172680804Y-94995957D01*
X172681196Y-94546017D01*
X172509375Y-94130177D01*
X172191497Y-93811744D01*
X171775957Y-93639196D01*
X171326017Y-93638804D01*
X170910177Y-93810625D01*
X170591744Y-94128503D01*
X170419196Y-94544043D01*
X170418804Y-94993983D01*
X170590625Y-95409823D01*
X170717036Y-95536455D01*
X170717036Y-96920000D01*
X170735664Y-97019000D01*
X169822916Y-97019000D01*
X169842964Y-96920000D01*
X169842964Y-95536571D01*
X169968256Y-95411497D01*
X170140804Y-94995957D01*
X170141196Y-94546017D01*
X169969375Y-94130177D01*
X169651497Y-93811744D01*
X169235957Y-93639196D01*
X168786017Y-93638804D01*
X168370177Y-93810625D01*
X168051744Y-94128503D01*
X167879196Y-94544043D01*
X167878804Y-94993983D01*
X168050625Y-95409823D01*
X168177036Y-95536455D01*
X168177036Y-96920000D01*
X168203603Y-97061190D01*
X168287046Y-97190865D01*
X168386170Y-97258594D01*
X168101279Y-97543485D01*
X168026134Y-97492141D01*
X167875000Y-97461536D01*
X167125000Y-97461536D01*
X166983810Y-97488103D01*
X166898338Y-97543102D01*
X166663700Y-97308464D01*
X166914500Y-97308464D01*
X167055690Y-97281897D01*
X167185365Y-97198454D01*
X167272359Y-97071134D01*
X167302964Y-96920000D01*
X167302964Y-95536571D01*
X167428256Y-95411497D01*
X167600804Y-94995957D01*
X167601196Y-94546017D01*
X167429375Y-94130177D01*
X167111497Y-93811744D01*
X166695957Y-93639196D01*
X166246017Y-93638804D01*
X165830177Y-93810625D01*
X165511744Y-94128503D01*
X165339196Y-94544043D01*
X165338804Y-94993983D01*
X165510625Y-95409823D01*
X165637036Y-95536455D01*
X165637036Y-96920000D01*
X165655664Y-97019000D01*
X164742916Y-97019000D01*
X164762964Y-96920000D01*
X164762964Y-95536571D01*
X164888256Y-95411497D01*
X165060804Y-94995957D01*
X165061196Y-94546017D01*
X164889375Y-94130177D01*
X164571497Y-93811744D01*
X164155957Y-93639196D01*
X163706017Y-93638804D01*
X163290177Y-93810625D01*
X162971744Y-94128503D01*
X162799196Y-94544043D01*
X162798804Y-94993983D01*
X162970625Y-95409823D01*
X163097036Y-95536455D01*
X163097036Y-96920000D01*
X163115664Y-97019000D01*
X162202916Y-97019000D01*
X162222964Y-96920000D01*
X162222964Y-95536571D01*
X162348256Y-95411497D01*
X162520804Y-94995957D01*
X162521196Y-94546017D01*
X162349375Y-94130177D01*
X162031497Y-93811744D01*
X161615957Y-93639196D01*
X161166017Y-93638804D01*
X160750177Y-93810625D01*
X160627000Y-93933587D01*
X160627000Y-93066541D01*
X160748503Y-93188256D01*
X161164043Y-93360804D01*
X161613983Y-93361196D01*
X162029823Y-93189375D01*
X162241159Y-92978407D01*
X163182300Y-92978407D01*
X163252595Y-93163218D01*
X163661287Y-93351412D01*
X164110887Y-93368881D01*
X164532949Y-93212966D01*
X164607405Y-93163218D01*
X164677700Y-92978407D01*
X163930000Y-92230707D01*
X163182300Y-92978407D01*
X162241159Y-92978407D01*
X162348256Y-92871497D01*
X162520804Y-92455957D01*
X162520843Y-92410887D01*
X162791119Y-92410887D01*
X162947034Y-92832949D01*
X162996782Y-92907405D01*
X163181593Y-92977700D01*
X163929293Y-92230000D01*
X163915151Y-92215858D01*
X163915858Y-92215151D01*
X163930000Y-92229293D01*
X163944143Y-92215151D01*
X163944850Y-92215858D01*
X163930707Y-92230000D01*
X164678407Y-92977700D01*
X164863218Y-92907405D01*
X165051412Y-92498713D01*
X165068881Y-92049113D01*
X164912966Y-91627051D01*
X164863218Y-91552595D01*
X164755500Y-91511623D01*
X164755500Y-91015750D01*
X164660250Y-90920500D01*
X163930500Y-90920500D01*
X163930500Y-90940500D01*
X163929500Y-90940500D01*
X163929500Y-90920500D01*
X163199750Y-90920500D01*
X163104500Y-91015750D01*
X163104500Y-91511623D01*
X162996782Y-91552595D01*
X162808588Y-91961287D01*
X162791119Y-92410887D01*
X162520843Y-92410887D01*
X162521196Y-92006017D01*
X162349375Y-91590177D01*
X162222964Y-91463545D01*
X162222964Y-90627000D01*
X163104500Y-90627000D01*
X163104500Y-90824250D01*
G36*
X167410197Y-103089803D02*
X167452211Y-103117666D01*
X167500000Y-103127000D01*
X176947394Y-103127000D01*
X179123000Y-105302606D01*
X179123000Y-105654901D01*
X179072996Y-105534181D01*
X178965820Y-105427004D01*
X178825786Y-105369000D01*
X178595750Y-105369000D01*
X178500500Y-105464250D01*
X178500500Y-106199500D01*
X178520500Y-106199500D01*
X178520500Y-106200500D01*
X178500500Y-106200500D01*
X178500500Y-106935750D01*
X178595750Y-107031000D01*
X178825786Y-107031000D01*
X178965820Y-106972996D01*
X179072996Y-106865819D01*
X179123000Y-106745099D01*
X179123000Y-106947394D01*
X178197394Y-107873000D01*
X177837301Y-107873000D01*
X177861000Y-107815786D01*
X177861000Y-107385750D01*
X177765750Y-107290500D01*
X176630500Y-107290500D01*
X176630500Y-107310500D01*
X176629500Y-107310500D01*
X176629500Y-107290500D01*
X175494250Y-107290500D01*
X175399000Y-107385750D01*
X175399000Y-107719394D01*
X175180999Y-107501393D01*
X175181118Y-107365135D01*
X175077661Y-107114748D01*
X174886259Y-106923013D01*
X174636054Y-106819118D01*
X174365135Y-106818882D01*
X174206325Y-106884501D01*
X174186507Y-106779180D01*
X174176877Y-106764214D01*
X175399000Y-106764214D01*
X175399000Y-107194250D01*
X175494250Y-107289500D01*
X176629500Y-107289500D01*
X176629500Y-106554250D01*
X176630500Y-106554250D01*
X176630500Y-107289500D01*
X177765750Y-107289500D01*
X177861000Y-107194250D01*
X177861000Y-106764214D01*
X177802996Y-106624180D01*
X177695819Y-106517004D01*
X177555785Y-106459000D01*
X176725750Y-106459000D01*
X176630500Y-106554250D01*
X176629500Y-106554250D01*
X176534250Y-106459000D01*
X175704215Y-106459000D01*
X175564181Y-106517004D01*
X175457004Y-106624180D01*
X175399000Y-106764214D01*
X174176877Y-106764214D01*
X174103064Y-106649505D01*
X173975744Y-106562511D01*
X173824610Y-106531906D01*
X173075310Y-106531906D01*
X172981000Y-106549652D01*
X172981000Y-106295750D01*
X177869000Y-106295750D01*
X177869000Y-106725785D01*
X177927004Y-106865819D01*
X178034180Y-106972996D01*
X178174214Y-107031000D01*
X178404250Y-107031000D01*
X178499500Y-106935750D01*
X178499500Y-106200500D01*
X177964250Y-106200500D01*
X177869000Y-106295750D01*
X172981000Y-106295750D01*
X172981000Y-106250000D01*
X172944386Y-106065929D01*
X172887365Y-105980592D01*
X172840119Y-105909882D01*
X172604452Y-105674215D01*
X177869000Y-105674215D01*
X177869000Y-106104250D01*
X177964250Y-106199500D01*
X178499500Y-106199500D01*
X178499500Y-105464250D01*
X178404250Y-105369000D01*
X178174214Y-105369000D01*
X178034180Y-105427004D01*
X177927004Y-105534181D01*
X177869000Y-105674215D01*
X172604452Y-105674215D01*
X171090118Y-104159882D01*
X170934071Y-104055614D01*
X170750000Y-104019000D01*
X165699236Y-104019000D01*
X160840118Y-99159882D01*
X160684071Y-99055614D01*
X160500000Y-99019000D01*
X159831000Y-99019000D01*
X159831000Y-98845750D01*
X159735750Y-98750500D01*
X159000500Y-98750500D01*
X159000500Y-98770500D01*
X158999500Y-98770500D01*
X158999500Y-98750500D01*
X158264250Y-98750500D01*
X158169000Y-98845750D01*
X158169000Y-99019000D01*
X156699236Y-99019000D01*
X156104450Y-98424214D01*
X158169000Y-98424214D01*
X158169000Y-98654250D01*
X158264250Y-98749500D01*
X158999500Y-98749500D01*
X158999500Y-98214250D01*
X159000500Y-98214250D01*
X159000500Y-98749500D01*
X159735750Y-98749500D01*
X159831000Y-98654250D01*
X159831000Y-98424214D01*
X159772996Y-98284180D01*
X159665819Y-98177004D01*
X159525785Y-98119000D01*
X159095750Y-98119000D01*
X159000500Y-98214250D01*
X158999500Y-98214250D01*
X158904250Y-98119000D01*
X158474215Y-98119000D01*
X158334181Y-98177004D01*
X158227004Y-98284180D01*
X158169000Y-98424214D01*
X156104450Y-98424214D01*
X155661236Y-97981000D01*
X162301394Y-97981000D01*
X167410197Y-103089803D01*
X167410197Y-103089803D01*
G37*
X167410197Y-103089803D02*
X167452211Y-103117666D01*
X167500000Y-103127000D01*
X176947394Y-103127000D01*
X179123000Y-105302606D01*
X179123000Y-105654901D01*
X179072996Y-105534181D01*
X178965820Y-105427004D01*
X178825786Y-105369000D01*
X178595750Y-105369000D01*
X178500500Y-105464250D01*
X178500500Y-106199500D01*
X178520500Y-106199500D01*
X178520500Y-106200500D01*
X178500500Y-106200500D01*
X178500500Y-106935750D01*
X178595750Y-107031000D01*
X178825786Y-107031000D01*
X178965820Y-106972996D01*
X179072996Y-106865819D01*
X179123000Y-106745099D01*
X179123000Y-106947394D01*
X178197394Y-107873000D01*
X177837301Y-107873000D01*
X177861000Y-107815786D01*
X177861000Y-107385750D01*
X177765750Y-107290500D01*
X176630500Y-107290500D01*
X176630500Y-107310500D01*
X176629500Y-107310500D01*
X176629500Y-107290500D01*
X175494250Y-107290500D01*
X175399000Y-107385750D01*
X175399000Y-107719394D01*
X175180999Y-107501393D01*
X175181118Y-107365135D01*
X175077661Y-107114748D01*
X174886259Y-106923013D01*
X174636054Y-106819118D01*
X174365135Y-106818882D01*
X174206325Y-106884501D01*
X174186507Y-106779180D01*
X174176877Y-106764214D01*
X175399000Y-106764214D01*
X175399000Y-107194250D01*
X175494250Y-107289500D01*
X176629500Y-107289500D01*
X176629500Y-106554250D01*
X176630500Y-106554250D01*
X176630500Y-107289500D01*
X177765750Y-107289500D01*
X177861000Y-107194250D01*
X177861000Y-106764214D01*
X177802996Y-106624180D01*
X177695819Y-106517004D01*
X177555785Y-106459000D01*
X176725750Y-106459000D01*
X176630500Y-106554250D01*
X176629500Y-106554250D01*
X176534250Y-106459000D01*
X175704215Y-106459000D01*
X175564181Y-106517004D01*
X175457004Y-106624180D01*
X175399000Y-106764214D01*
X174176877Y-106764214D01*
X174103064Y-106649505D01*
X173975744Y-106562511D01*
X173824610Y-106531906D01*
X173075310Y-106531906D01*
X172981000Y-106549652D01*
X172981000Y-106295750D01*
X177869000Y-106295750D01*
X177869000Y-106725785D01*
X177927004Y-106865819D01*
X178034180Y-106972996D01*
X178174214Y-107031000D01*
X178404250Y-107031000D01*
X178499500Y-106935750D01*
X178499500Y-106200500D01*
X177964250Y-106200500D01*
X177869000Y-106295750D01*
X172981000Y-106295750D01*
X172981000Y-106250000D01*
X172944386Y-106065929D01*
X172887365Y-105980592D01*
X172840119Y-105909882D01*
X172604452Y-105674215D01*
X177869000Y-105674215D01*
X177869000Y-106104250D01*
X177964250Y-106199500D01*
X178499500Y-106199500D01*
X178499500Y-105464250D01*
X178404250Y-105369000D01*
X178174214Y-105369000D01*
X178034180Y-105427004D01*
X177927004Y-105534181D01*
X177869000Y-105674215D01*
X172604452Y-105674215D01*
X171090118Y-104159882D01*
X170934071Y-104055614D01*
X170750000Y-104019000D01*
X165699236Y-104019000D01*
X160840118Y-99159882D01*
X160684071Y-99055614D01*
X160500000Y-99019000D01*
X159831000Y-99019000D01*
X159831000Y-98845750D01*
X159735750Y-98750500D01*
X159000500Y-98750500D01*
X159000500Y-98770500D01*
X158999500Y-98770500D01*
X158999500Y-98750500D01*
X158264250Y-98750500D01*
X158169000Y-98845750D01*
X158169000Y-99019000D01*
X156699236Y-99019000D01*
X156104450Y-98424214D01*
X158169000Y-98424214D01*
X158169000Y-98654250D01*
X158264250Y-98749500D01*
X158999500Y-98749500D01*
X158999500Y-98214250D01*
X159000500Y-98214250D01*
X159000500Y-98749500D01*
X159735750Y-98749500D01*
X159831000Y-98654250D01*
X159831000Y-98424214D01*
X159772996Y-98284180D01*
X159665819Y-98177004D01*
X159525785Y-98119000D01*
X159095750Y-98119000D01*
X159000500Y-98214250D01*
X158999500Y-98214250D01*
X158904250Y-98119000D01*
X158474215Y-98119000D01*
X158334181Y-98177004D01*
X158227004Y-98284180D01*
X158169000Y-98424214D01*
X156104450Y-98424214D01*
X155661236Y-97981000D01*
X162301394Y-97981000D01*
X167410197Y-103089803D01*
G36*
X165159882Y-104840118D02*
X165315929Y-104944386D01*
X165500000Y-104981000D01*
X170550764Y-104981000D01*
X172019000Y-106449237D01*
X172019000Y-106547043D01*
X172000475Y-106539370D01*
X171645790Y-106539370D01*
X171550540Y-106634620D01*
X171550540Y-107119260D01*
X171570540Y-107119260D01*
X171570540Y-107120260D01*
X171550540Y-107120260D01*
X171550540Y-107140260D01*
X171549540Y-107140260D01*
X171549540Y-107120260D01*
X171529540Y-107120260D01*
X171529540Y-107119260D01*
X171549540Y-107119260D01*
X171549540Y-106634620D01*
X171454290Y-106539370D01*
X171099605Y-106539370D01*
X170959571Y-106597374D01*
X170852394Y-106704550D01*
X170794390Y-106844584D01*
X170794390Y-106884865D01*
X170636054Y-106819118D01*
X170365135Y-106818882D01*
X170114748Y-106922339D01*
X170065404Y-106971598D01*
X169966389Y-106872584D01*
X169826355Y-106814580D01*
X169095750Y-106814580D01*
X169000500Y-106909830D01*
X169000500Y-108269500D01*
X170036320Y-108269500D01*
X170131570Y-108174250D01*
X170131570Y-108084390D01*
X170355871Y-108177529D01*
X170359171Y-108180829D01*
X170547661Y-108306774D01*
X170770000Y-108351000D01*
X170786926Y-108351000D01*
X170786926Y-108619630D01*
X170813493Y-108760820D01*
X170896936Y-108890495D01*
X171024256Y-108977489D01*
X171069040Y-108986558D01*
X171069040Y-109001354D01*
X170947394Y-109123000D01*
X170131570Y-109123000D01*
X170131570Y-108365750D01*
X170036320Y-108270500D01*
X169000500Y-108270500D01*
X169000500Y-108290500D01*
X168999500Y-108290500D01*
X168999500Y-108270500D01*
X167963680Y-108270500D01*
X167868430Y-108365750D01*
X167868430Y-109123000D01*
X167131570Y-109123000D01*
X167131570Y-108365750D01*
X167036320Y-108270500D01*
X166000500Y-108270500D01*
X166000500Y-108290500D01*
X165999500Y-108290500D01*
X165999500Y-108270500D01*
X164963680Y-108270500D01*
X164868430Y-108365750D01*
X164868430Y-109123000D01*
X164131570Y-109123000D01*
X164131570Y-108365750D01*
X164036320Y-108270500D01*
X163000500Y-108270500D01*
X163000500Y-108290500D01*
X162999500Y-108290500D01*
X162999500Y-108270500D01*
X161963680Y-108270500D01*
X161868430Y-108365750D01*
X161868430Y-109123000D01*
X160627000Y-109123000D01*
X160627000Y-107119794D01*
X161868430Y-107119794D01*
X161868430Y-108174250D01*
X161963680Y-108269500D01*
X162999500Y-108269500D01*
X162999500Y-106909830D01*
X163000500Y-106909830D01*
X163000500Y-108269500D01*
X164036320Y-108269500D01*
X164131570Y-108174250D01*
X164131570Y-107119794D01*
X164868430Y-107119794D01*
X164868430Y-108174250D01*
X164963680Y-108269500D01*
X165999500Y-108269500D01*
X165999500Y-106909830D01*
X166000500Y-106909830D01*
X166000500Y-108269500D01*
X167036320Y-108269500D01*
X167131570Y-108174250D01*
X167131570Y-107119794D01*
X167868430Y-107119794D01*
X167868430Y-108174250D01*
X167963680Y-108269500D01*
X168999500Y-108269500D01*
X168999500Y-106909830D01*
X168904250Y-106814580D01*
X168173645Y-106814580D01*
X168033611Y-106872584D01*
X167926434Y-106979760D01*
X167868430Y-107119794D01*
X167131570Y-107119794D01*
X167073566Y-106979760D01*
X166966389Y-106872584D01*
X166826355Y-106814580D01*
X166095750Y-106814580D01*
X166000500Y-106909830D01*
X165999500Y-106909830D01*
X165904250Y-106814580D01*
X165173645Y-106814580D01*
X165033611Y-106872584D01*
X164926434Y-106979760D01*
X164868430Y-107119794D01*
X164131570Y-107119794D01*
X164073566Y-106979760D01*
X163966389Y-106872584D01*
X163826355Y-106814580D01*
X163095750Y-106814580D01*
X163000500Y-106909830D01*
X162999500Y-106909830D01*
X162904250Y-106814580D01*
X162173645Y-106814580D01*
X162033611Y-106872584D01*
X161926434Y-106979760D01*
X161868430Y-107119794D01*
X160627000Y-107119794D01*
X160627000Y-100377000D01*
X160696764Y-100377000D01*
X165159882Y-104840118D01*
X165159882Y-104840118D01*
G37*
X165159882Y-104840118D02*
X165315929Y-104944386D01*
X165500000Y-104981000D01*
X170550764Y-104981000D01*
X172019000Y-106449237D01*
X172019000Y-106547043D01*
X172000475Y-106539370D01*
X171645790Y-106539370D01*
X171550540Y-106634620D01*
X171550540Y-107119260D01*
X171570540Y-107119260D01*
X171570540Y-107120260D01*
X171550540Y-107120260D01*
X171550540Y-107140260D01*
X171549540Y-107140260D01*
X171549540Y-107120260D01*
X171529540Y-107120260D01*
X171529540Y-107119260D01*
X171549540Y-107119260D01*
X171549540Y-106634620D01*
X171454290Y-106539370D01*
X171099605Y-106539370D01*
X170959571Y-106597374D01*
X170852394Y-106704550D01*
X170794390Y-106844584D01*
X170794390Y-106884865D01*
X170636054Y-106819118D01*
X170365135Y-106818882D01*
X170114748Y-106922339D01*
X170065404Y-106971598D01*
X169966389Y-106872584D01*
X169826355Y-106814580D01*
X169095750Y-106814580D01*
X169000500Y-106909830D01*
X169000500Y-108269500D01*
X170036320Y-108269500D01*
X170131570Y-108174250D01*
X170131570Y-108084390D01*
X170355871Y-108177529D01*
X170359171Y-108180829D01*
X170547661Y-108306774D01*
X170770000Y-108351000D01*
X170786926Y-108351000D01*
X170786926Y-108619630D01*
X170813493Y-108760820D01*
X170896936Y-108890495D01*
X171024256Y-108977489D01*
X171069040Y-108986558D01*
X171069040Y-109001354D01*
X170947394Y-109123000D01*
X170131570Y-109123000D01*
X170131570Y-108365750D01*
X170036320Y-108270500D01*
X169000500Y-108270500D01*
X169000500Y-108290500D01*
X168999500Y-108290500D01*
X168999500Y-108270500D01*
X167963680Y-108270500D01*
X167868430Y-108365750D01*
X167868430Y-109123000D01*
X167131570Y-109123000D01*
X167131570Y-108365750D01*
X167036320Y-108270500D01*
X166000500Y-108270500D01*
X166000500Y-108290500D01*
X165999500Y-108290500D01*
X165999500Y-108270500D01*
X164963680Y-108270500D01*
X164868430Y-108365750D01*
X164868430Y-109123000D01*
X164131570Y-109123000D01*
X164131570Y-108365750D01*
X164036320Y-108270500D01*
X163000500Y-108270500D01*
X163000500Y-108290500D01*
X162999500Y-108290500D01*
X162999500Y-108270500D01*
X161963680Y-108270500D01*
X161868430Y-108365750D01*
X161868430Y-109123000D01*
X160627000Y-109123000D01*
X160627000Y-107119794D01*
X161868430Y-107119794D01*
X161868430Y-108174250D01*
X161963680Y-108269500D01*
X162999500Y-108269500D01*
X162999500Y-106909830D01*
X163000500Y-106909830D01*
X163000500Y-108269500D01*
X164036320Y-108269500D01*
X164131570Y-108174250D01*
X164131570Y-107119794D01*
X164868430Y-107119794D01*
X164868430Y-108174250D01*
X164963680Y-108269500D01*
X165999500Y-108269500D01*
X165999500Y-106909830D01*
X166000500Y-106909830D01*
X166000500Y-108269500D01*
X167036320Y-108269500D01*
X167131570Y-108174250D01*
X167131570Y-107119794D01*
X167868430Y-107119794D01*
X167868430Y-108174250D01*
X167963680Y-108269500D01*
X168999500Y-108269500D01*
X168999500Y-106909830D01*
X168904250Y-106814580D01*
X168173645Y-106814580D01*
X168033611Y-106872584D01*
X167926434Y-106979760D01*
X167868430Y-107119794D01*
X167131570Y-107119794D01*
X167073566Y-106979760D01*
X166966389Y-106872584D01*
X166826355Y-106814580D01*
X166095750Y-106814580D01*
X166000500Y-106909830D01*
X165999500Y-106909830D01*
X165904250Y-106814580D01*
X165173645Y-106814580D01*
X165033611Y-106872584D01*
X164926434Y-106979760D01*
X164868430Y-107119794D01*
X164131570Y-107119794D01*
X164073566Y-106979760D01*
X163966389Y-106872584D01*
X163826355Y-106814580D01*
X163095750Y-106814580D01*
X163000500Y-106909830D01*
X162999500Y-106909830D01*
X162904250Y-106814580D01*
X162173645Y-106814580D01*
X162033611Y-106872584D01*
X161926434Y-106979760D01*
X161868430Y-107119794D01*
X160627000Y-107119794D01*
X160627000Y-100377000D01*
X160696764Y-100377000D01*
X165159882Y-104840118D01*
M02*
