G04 #@! TF.FileFunction,Copper,L2,Bot,Signal*
%FSLAX46Y46*%
G04 Gerber Fmt 4.6, Leading zero omitted, Abs format (unit mm)*
G04 Created by KiCad (PCBNEW 4.0.0-stable) date Tuesday, February 02, 2016 'AMt' 02:20:54 AM*
%MOMM*%
G01*
G04 APERTURE LIST*
%ADD10C,0.100000*%
%ADD11C,4.500000*%
%ADD12R,2.235200X2.235200*%
%ADD13O,1.250000X0.950000*%
%ADD14O,1.000000X1.550000*%
%ADD15C,1.500000*%
%ADD16R,2.032000X2.032000*%
%ADD17O,2.032000X2.032000*%
%ADD18C,0.600000*%
%ADD19C,0.200000*%
%ADD20C,0.400000*%
%ADD21C,0.600000*%
%ADD22C,0.254000*%
G04 APERTURE END LIST*
D10*
D11*
X123500000Y-116500000D03*
X181500000Y-116500000D03*
X181500000Y-93500000D03*
X123500000Y-93500000D03*
D12*
X182980000Y-111280000D03*
X182980000Y-106200000D03*
D13*
X152499100Y-115714611D03*
X157499100Y-115714611D03*
D14*
X151499100Y-118414611D03*
X158499100Y-118414611D03*
D15*
X128370000Y-94770000D03*
X128370000Y-92230000D03*
X130910000Y-94770000D03*
X133450000Y-94770000D03*
X135990000Y-94770000D03*
X138530000Y-94770000D03*
X141070000Y-94770000D03*
X143610000Y-94770000D03*
X146150000Y-94770000D03*
X148690000Y-94770000D03*
X151230000Y-94770000D03*
X153770000Y-94770000D03*
X156310000Y-94770000D03*
X158850000Y-94770000D03*
X130910000Y-92230000D03*
X133450000Y-92230000D03*
X135990000Y-92230000D03*
X138530000Y-92230000D03*
X141070000Y-92230000D03*
X143610000Y-92230000D03*
X146150000Y-92230000D03*
X148690000Y-92230000D03*
X151230000Y-92230000D03*
X153770000Y-92230000D03*
X156310000Y-92230000D03*
X158850000Y-92230000D03*
X161390000Y-94770000D03*
X163930000Y-94770000D03*
X166470000Y-94770000D03*
X169010000Y-94770000D03*
X171550000Y-94770000D03*
X174090000Y-94770000D03*
X176630000Y-94770000D03*
X176630000Y-92230000D03*
X174090000Y-92230000D03*
X171550000Y-92230000D03*
X169010000Y-92230000D03*
X166470000Y-92230000D03*
X163930000Y-92230000D03*
X161390000Y-92230000D03*
D16*
X182980000Y-98580000D03*
D17*
X182980000Y-101120000D03*
D18*
X142750000Y-110000000D03*
X135722182Y-108972182D03*
X132500000Y-107500000D03*
X139743879Y-103256121D03*
X138250000Y-104750000D03*
X147250000Y-106500000D03*
X149000000Y-105750000D03*
X151000000Y-105750000D03*
X153000000Y-105750000D03*
X144250000Y-110000000D03*
X141750000Y-106500000D03*
X140500000Y-107750000D03*
X148600000Y-108500000D03*
X173500000Y-113250000D03*
X169000000Y-113250000D03*
X166000000Y-113250000D03*
X163000000Y-113250000D03*
X170500000Y-107500000D03*
X174500000Y-107500000D03*
X166500000Y-101000000D03*
X167500000Y-101000000D03*
X167500000Y-102000000D03*
X133500000Y-98000000D03*
X136750000Y-108250000D03*
X149000000Y-100500000D03*
X151000000Y-100500000D03*
X153000000Y-100500000D03*
X155000000Y-100500000D03*
X157000000Y-100500000D03*
X136750000Y-106250000D03*
X127000000Y-105500000D03*
X122000000Y-101500000D03*
X154500000Y-112900000D03*
X154500000Y-107000000D03*
X159250000Y-112250000D03*
X150000000Y-118750000D03*
X145500000Y-118750000D03*
X147500000Y-113000000D03*
X135500000Y-115500000D03*
X132500000Y-116000000D03*
X140500000Y-118500000D03*
X127500000Y-118500000D03*
X128000000Y-111000000D03*
X129500000Y-102500000D03*
X127500000Y-100500000D03*
X127500000Y-98500000D03*
X145500000Y-100500000D03*
X145500000Y-98500000D03*
X132000000Y-114500000D03*
X135000000Y-109750000D03*
X145500000Y-111000000D03*
X141000000Y-113500000D03*
X133500000Y-106500000D03*
X133500000Y-103500000D03*
X143000000Y-99500000D03*
X159000000Y-101000000D03*
X148500000Y-111000000D03*
X149500000Y-111000000D03*
X157750000Y-98750000D03*
X157000000Y-98750000D03*
X148500000Y-97750000D03*
X152000000Y-97500000D03*
X171500000Y-99500000D03*
X171500000Y-98595009D03*
X150750000Y-98250000D03*
X137750000Y-100750000D03*
X177750000Y-98500000D03*
D19*
X138750000Y-112750000D02*
X140500000Y-112750000D01*
X135722182Y-108972182D02*
X135722182Y-109722182D01*
X142750000Y-110500000D02*
X142750000Y-110000000D01*
X135722182Y-109722182D02*
X138750000Y-112750000D01*
X140500000Y-112750000D02*
X142750000Y-110500000D01*
D20*
X158850000Y-94770000D02*
X158850000Y-98650000D01*
X158850000Y-98650000D02*
X157000000Y-100500000D01*
D21*
X158850000Y-98650000D02*
X161150000Y-98650000D01*
D20*
X151000000Y-100500000D02*
X149000000Y-100500000D01*
X153000000Y-100500000D02*
X151000000Y-100500000D01*
X155000000Y-100500000D02*
X153000000Y-100500000D01*
X157000000Y-100500000D02*
X155000000Y-100500000D01*
D21*
X159250000Y-112250000D02*
X161000000Y-112250000D01*
D20*
X132000000Y-114500000D02*
X133000000Y-113500000D01*
X133000000Y-113500000D02*
X138750000Y-113500000D01*
X135000000Y-109750000D02*
X138750000Y-113500000D01*
X138750000Y-113500000D02*
X141000000Y-113500000D01*
X141000000Y-113500000D02*
X143500000Y-111000000D01*
X143500000Y-111000000D02*
X145500000Y-111000000D01*
X133500000Y-106500000D02*
X133500000Y-103500000D01*
D21*
X149500000Y-111000000D02*
X148500000Y-111000000D01*
X159000000Y-107500000D02*
X159000000Y-101000000D01*
X158000000Y-108500000D02*
X159000000Y-107500000D01*
X155500000Y-108500000D02*
X158000000Y-108500000D01*
X153000000Y-111000000D02*
X155500000Y-108500000D01*
X149500000Y-111000000D02*
X153000000Y-111000000D01*
X154069554Y-90750000D02*
X132390000Y-90750000D01*
X132390000Y-90750000D02*
X130910000Y-92230000D01*
X155000000Y-91680446D02*
X154069554Y-90750000D01*
X157000000Y-98750000D02*
X155000000Y-96750000D01*
X155000000Y-96750000D02*
X155000000Y-91680446D01*
X157000000Y-98750000D02*
X157750000Y-98750000D01*
X128370000Y-92230000D02*
X129119999Y-91480001D01*
X129119999Y-91480001D02*
X130160001Y-91480001D01*
X130160001Y-91480001D02*
X130910000Y-92230000D01*
D19*
X148500000Y-97750000D02*
X147750000Y-97000000D01*
X147750000Y-97000000D02*
X138220000Y-97000000D01*
X138220000Y-97000000D02*
X135990000Y-94770000D01*
X149500000Y-97500000D02*
X152000000Y-97500000D01*
X148690000Y-96690000D02*
X149500000Y-97500000D01*
X148690000Y-94770000D02*
X148690000Y-96690000D01*
X171500000Y-99500000D02*
X166120000Y-99500000D01*
X166120000Y-99500000D02*
X161390000Y-94770000D01*
X171500000Y-98595009D02*
X166271455Y-98595009D01*
X162500000Y-94823554D02*
X162500000Y-93340000D01*
X166271455Y-98595009D02*
X162500000Y-94823554D01*
X162500000Y-93340000D02*
X161390000Y-92230000D01*
X150750000Y-98250000D02*
X149000000Y-98250000D01*
X149000000Y-98250000D02*
X148750000Y-98500000D01*
X148750000Y-98500000D02*
X148250000Y-98500000D01*
X140527001Y-97972999D02*
X137750000Y-100750000D01*
X148250000Y-98500000D02*
X147250000Y-97500000D01*
X141000000Y-97500000D02*
X140527001Y-97972999D01*
X147250000Y-97500000D02*
X141000000Y-97500000D01*
X150722999Y-98277001D02*
X150750000Y-98250000D01*
X182980000Y-98580000D02*
X177830000Y-98580000D01*
X177830000Y-98580000D02*
X177750000Y-98500000D01*
D22*
G36*
X131077775Y-91099145D02*
X130741933Y-91098853D01*
X130641541Y-90998461D01*
X130420609Y-90850839D01*
X130160001Y-90799001D01*
X129120004Y-90799001D01*
X129119999Y-90799000D01*
X128859391Y-90850839D01*
X128638459Y-90998461D01*
X128537775Y-91099145D01*
X128146017Y-91098804D01*
X127730177Y-91270625D01*
X127411744Y-91588503D01*
X127239196Y-92004043D01*
X127238804Y-92453983D01*
X127410625Y-92869823D01*
X127728503Y-93188256D01*
X128144043Y-93360804D01*
X128369121Y-93361000D01*
X128368878Y-93638998D01*
X128146017Y-93638804D01*
X127730177Y-93810625D01*
X127411744Y-94128503D01*
X127239196Y-94544043D01*
X127238804Y-94993983D01*
X127410625Y-95409823D01*
X127728503Y-95728256D01*
X128144043Y-95900804D01*
X128593983Y-95901196D01*
X129009823Y-95729375D01*
X129328256Y-95411497D01*
X129500804Y-94995957D01*
X129501000Y-94770879D01*
X129778998Y-94771122D01*
X129778804Y-94993983D01*
X129950625Y-95409823D01*
X130268503Y-95728256D01*
X130684043Y-95900804D01*
X131133983Y-95901196D01*
X131549823Y-95729375D01*
X131868256Y-95411497D01*
X132040804Y-94995957D01*
X132040805Y-94993983D01*
X132318804Y-94993983D01*
X132490625Y-95409823D01*
X132808503Y-95728256D01*
X133224043Y-95900804D01*
X133673983Y-95901196D01*
X134089823Y-95729375D01*
X134408256Y-95411497D01*
X134580804Y-94995957D01*
X134580805Y-94993983D01*
X134858804Y-94993983D01*
X135030625Y-95409823D01*
X135348503Y-95728256D01*
X135764043Y-95900804D01*
X136213983Y-95901196D01*
X136374596Y-95834832D01*
X137879881Y-97340118D01*
X138035929Y-97444386D01*
X138220000Y-97481000D01*
X140338764Y-97481000D01*
X140186885Y-97632879D01*
X140186882Y-97632881D01*
X137750764Y-100069000D01*
X137615135Y-100068882D01*
X137364748Y-100172339D01*
X137173013Y-100363741D01*
X137069118Y-100613946D01*
X137068882Y-100884865D01*
X137172339Y-101135252D01*
X137363741Y-101326987D01*
X137613946Y-101430882D01*
X137884865Y-101431118D01*
X138135252Y-101327661D01*
X138326987Y-101136259D01*
X138430882Y-100886054D01*
X138431001Y-100749235D01*
X139545371Y-99634865D01*
X142318882Y-99634865D01*
X142422339Y-99885252D01*
X142613741Y-100076987D01*
X142863946Y-100180882D01*
X143134865Y-100181118D01*
X143385252Y-100077661D01*
X143576987Y-99886259D01*
X143680882Y-99636054D01*
X143681118Y-99365135D01*
X143577661Y-99114748D01*
X143386259Y-98923013D01*
X143136054Y-98819118D01*
X142865135Y-98818882D01*
X142614748Y-98922339D01*
X142423013Y-99113741D01*
X142319118Y-99363946D01*
X142318882Y-99634865D01*
X139545371Y-99634865D01*
X140867119Y-98313118D01*
X140867121Y-98313115D01*
X141199237Y-97981000D01*
X147050764Y-97981000D01*
X147909882Y-98840119D01*
X148065930Y-98944387D01*
X148250000Y-98981000D01*
X148750000Y-98981000D01*
X148934071Y-98944386D01*
X149090118Y-98840118D01*
X149199236Y-98731000D01*
X150267921Y-98731000D01*
X150363741Y-98826987D01*
X150613946Y-98930882D01*
X150884865Y-98931118D01*
X151135252Y-98827661D01*
X151326987Y-98636259D01*
X151430882Y-98386054D01*
X151431118Y-98115135D01*
X151375695Y-97981000D01*
X151517921Y-97981000D01*
X151613741Y-98076987D01*
X151863946Y-98180882D01*
X152134865Y-98181118D01*
X152385252Y-98077661D01*
X152576987Y-97886259D01*
X152680882Y-97636054D01*
X152681118Y-97365135D01*
X152577661Y-97114748D01*
X152386259Y-96923013D01*
X152136054Y-96819118D01*
X151865135Y-96818882D01*
X151614748Y-96922339D01*
X151517919Y-97019000D01*
X149699236Y-97019000D01*
X149171000Y-96490764D01*
X149171000Y-95794999D01*
X149329823Y-95729375D01*
X149648256Y-95411497D01*
X149820804Y-94995957D01*
X149820805Y-94993983D01*
X150098804Y-94993983D01*
X150270625Y-95409823D01*
X150588503Y-95728256D01*
X151004043Y-95900804D01*
X151453983Y-95901196D01*
X151869823Y-95729375D01*
X152188256Y-95411497D01*
X152360804Y-94995957D01*
X152361196Y-94546017D01*
X152189375Y-94130177D01*
X151871497Y-93811744D01*
X151455957Y-93639196D01*
X151006017Y-93638804D01*
X150590177Y-93810625D01*
X150271744Y-94128503D01*
X150099196Y-94544043D01*
X150098804Y-94993983D01*
X149820805Y-94993983D01*
X149821196Y-94546017D01*
X149649375Y-94130177D01*
X149331497Y-93811744D01*
X148915957Y-93639196D01*
X148466017Y-93638804D01*
X148050177Y-93810625D01*
X147731744Y-94128503D01*
X147559196Y-94544043D01*
X147558804Y-94993983D01*
X147730625Y-95409823D01*
X148048503Y-95728256D01*
X148209000Y-95794900D01*
X148209000Y-96690000D01*
X148231040Y-96800804D01*
X148090118Y-96659882D01*
X147934071Y-96555614D01*
X147750000Y-96519000D01*
X138419237Y-96519000D01*
X137418644Y-95518407D01*
X137782300Y-95518407D01*
X137852595Y-95703218D01*
X138261287Y-95891412D01*
X138710887Y-95908881D01*
X139132949Y-95752966D01*
X139207405Y-95703218D01*
X139277700Y-95518407D01*
X138530000Y-94770707D01*
X137782300Y-95518407D01*
X137418644Y-95518407D01*
X137054902Y-95154666D01*
X137120804Y-94995957D01*
X137120843Y-94950887D01*
X137391119Y-94950887D01*
X137547034Y-95372949D01*
X137596782Y-95447405D01*
X137781593Y-95517700D01*
X138529293Y-94770000D01*
X138530707Y-94770000D01*
X139278407Y-95517700D01*
X139463218Y-95447405D01*
X139651412Y-95038713D01*
X139653149Y-94993983D01*
X139938804Y-94993983D01*
X140110625Y-95409823D01*
X140428503Y-95728256D01*
X140844043Y-95900804D01*
X141293983Y-95901196D01*
X141709823Y-95729375D01*
X142028256Y-95411497D01*
X142200804Y-94995957D01*
X142200805Y-94993983D01*
X142478804Y-94993983D01*
X142650625Y-95409823D01*
X142968503Y-95728256D01*
X143384043Y-95900804D01*
X143833983Y-95901196D01*
X144249823Y-95729375D01*
X144568256Y-95411497D01*
X144740804Y-94995957D01*
X144740805Y-94993983D01*
X145018804Y-94993983D01*
X145190625Y-95409823D01*
X145508503Y-95728256D01*
X145924043Y-95900804D01*
X146373983Y-95901196D01*
X146789823Y-95729375D01*
X147108256Y-95411497D01*
X147280804Y-94995957D01*
X147281196Y-94546017D01*
X147109375Y-94130177D01*
X146791497Y-93811744D01*
X146375957Y-93639196D01*
X145926017Y-93638804D01*
X145510177Y-93810625D01*
X145191744Y-94128503D01*
X145019196Y-94544043D01*
X145018804Y-94993983D01*
X144740805Y-94993983D01*
X144741196Y-94546017D01*
X144569375Y-94130177D01*
X144251497Y-93811744D01*
X143835957Y-93639196D01*
X143386017Y-93638804D01*
X142970177Y-93810625D01*
X142651744Y-94128503D01*
X142479196Y-94544043D01*
X142478804Y-94993983D01*
X142200805Y-94993983D01*
X142201196Y-94546017D01*
X142029375Y-94130177D01*
X141711497Y-93811744D01*
X141295957Y-93639196D01*
X140846017Y-93638804D01*
X140430177Y-93810625D01*
X140111744Y-94128503D01*
X139939196Y-94544043D01*
X139938804Y-94993983D01*
X139653149Y-94993983D01*
X139668881Y-94589113D01*
X139512966Y-94167051D01*
X139463218Y-94092595D01*
X139278407Y-94022300D01*
X138530707Y-94770000D01*
X138529293Y-94770000D01*
X137781593Y-94022300D01*
X137596782Y-94092595D01*
X137408588Y-94501287D01*
X137391119Y-94950887D01*
X137120843Y-94950887D01*
X137121196Y-94546017D01*
X136949375Y-94130177D01*
X136840981Y-94021593D01*
X137782300Y-94021593D01*
X138530000Y-94769293D01*
X139277700Y-94021593D01*
X139207405Y-93836782D01*
X138798713Y-93648588D01*
X138349113Y-93631119D01*
X137927051Y-93787034D01*
X137852595Y-93836782D01*
X137782300Y-94021593D01*
X136840981Y-94021593D01*
X136631497Y-93811744D01*
X136215957Y-93639196D01*
X135766017Y-93638804D01*
X135350177Y-93810625D01*
X135031744Y-94128503D01*
X134859196Y-94544043D01*
X134858804Y-94993983D01*
X134580805Y-94993983D01*
X134581196Y-94546017D01*
X134409375Y-94130177D01*
X134091497Y-93811744D01*
X133675957Y-93639196D01*
X133226017Y-93638804D01*
X132810177Y-93810625D01*
X132491744Y-94128503D01*
X132319196Y-94544043D01*
X132318804Y-94993983D01*
X132040805Y-94993983D01*
X132041196Y-94546017D01*
X131869375Y-94130177D01*
X131551497Y-93811744D01*
X131135957Y-93639196D01*
X130910879Y-93639000D01*
X130911122Y-93361002D01*
X131133983Y-93361196D01*
X131549823Y-93189375D01*
X131761159Y-92978407D01*
X132702300Y-92978407D01*
X132772595Y-93163218D01*
X133181287Y-93351412D01*
X133630887Y-93368881D01*
X134052949Y-93212966D01*
X134127405Y-93163218D01*
X134197700Y-92978407D01*
X133450000Y-92230707D01*
X132702300Y-92978407D01*
X131761159Y-92978407D01*
X131868256Y-92871497D01*
X132040804Y-92455957D01*
X132041147Y-92061933D01*
X132488017Y-91615063D01*
X132328588Y-91961287D01*
X132311119Y-92410887D01*
X132467034Y-92832949D01*
X132516782Y-92907405D01*
X132701593Y-92977700D01*
X133449293Y-92230000D01*
X133435151Y-92215858D01*
X133435858Y-92215151D01*
X133450000Y-92229293D01*
X133464143Y-92215151D01*
X133464850Y-92215858D01*
X133450707Y-92230000D01*
X134198407Y-92977700D01*
X134383218Y-92907405D01*
X134571412Y-92498713D01*
X134588881Y-92049113D01*
X134432966Y-91627051D01*
X134383218Y-91552595D01*
X134198409Y-91482301D01*
X134249710Y-91431000D01*
X135189522Y-91431000D01*
X135031744Y-91588503D01*
X134859196Y-92004043D01*
X134858804Y-92453983D01*
X135030625Y-92869823D01*
X135348503Y-93188256D01*
X135764043Y-93360804D01*
X136213983Y-93361196D01*
X136629823Y-93189375D01*
X136948256Y-92871497D01*
X137120804Y-92455957D01*
X137121196Y-92006017D01*
X136949375Y-91590177D01*
X136790475Y-91431000D01*
X137729522Y-91431000D01*
X137571744Y-91588503D01*
X137399196Y-92004043D01*
X137398804Y-92453983D01*
X137570625Y-92869823D01*
X137888503Y-93188256D01*
X138304043Y-93360804D01*
X138753983Y-93361196D01*
X139169823Y-93189375D01*
X139488256Y-92871497D01*
X139660804Y-92455957D01*
X139661196Y-92006017D01*
X139489375Y-91590177D01*
X139330475Y-91431000D01*
X140269522Y-91431000D01*
X140111744Y-91588503D01*
X139939196Y-92004043D01*
X139938804Y-92453983D01*
X140110625Y-92869823D01*
X140428503Y-93188256D01*
X140844043Y-93360804D01*
X141293983Y-93361196D01*
X141709823Y-93189375D01*
X141921159Y-92978407D01*
X142862300Y-92978407D01*
X142932595Y-93163218D01*
X143341287Y-93351412D01*
X143790887Y-93368881D01*
X144212949Y-93212966D01*
X144287405Y-93163218D01*
X144357700Y-92978407D01*
X143610000Y-92230707D01*
X142862300Y-92978407D01*
X141921159Y-92978407D01*
X142028256Y-92871497D01*
X142200804Y-92455957D01*
X142201196Y-92006017D01*
X142029375Y-91590177D01*
X141870475Y-91431000D01*
X142810290Y-91431000D01*
X142861591Y-91482301D01*
X142676782Y-91552595D01*
X142488588Y-91961287D01*
X142471119Y-92410887D01*
X142627034Y-92832949D01*
X142676782Y-92907405D01*
X142861593Y-92977700D01*
X143609293Y-92230000D01*
X143595151Y-92215858D01*
X143595858Y-92215151D01*
X143610000Y-92229293D01*
X143624143Y-92215151D01*
X143624850Y-92215858D01*
X143610707Y-92230000D01*
X144358407Y-92977700D01*
X144543218Y-92907405D01*
X144731412Y-92498713D01*
X144748881Y-92049113D01*
X144592966Y-91627051D01*
X144543218Y-91552595D01*
X144358409Y-91482301D01*
X144409710Y-91431000D01*
X145349522Y-91431000D01*
X145191744Y-91588503D01*
X145019196Y-92004043D01*
X145018804Y-92453983D01*
X145190625Y-92869823D01*
X145508503Y-93188256D01*
X145924043Y-93360804D01*
X146373983Y-93361196D01*
X146789823Y-93189375D01*
X147108256Y-92871497D01*
X147280804Y-92455957D01*
X147281196Y-92006017D01*
X147109375Y-91590177D01*
X146950475Y-91431000D01*
X147889522Y-91431000D01*
X147731744Y-91588503D01*
X147559196Y-92004043D01*
X147558804Y-92453983D01*
X147730625Y-92869823D01*
X148048503Y-93188256D01*
X148464043Y-93360804D01*
X148913983Y-93361196D01*
X149329823Y-93189375D01*
X149541159Y-92978407D01*
X150482300Y-92978407D01*
X150552595Y-93163218D01*
X150961287Y-93351412D01*
X151410887Y-93368881D01*
X151832949Y-93212966D01*
X151907405Y-93163218D01*
X151977700Y-92978407D01*
X151230000Y-92230707D01*
X150482300Y-92978407D01*
X149541159Y-92978407D01*
X149648256Y-92871497D01*
X149820804Y-92455957D01*
X149821196Y-92006017D01*
X149649375Y-91590177D01*
X149490475Y-91431000D01*
X150430290Y-91431000D01*
X150481591Y-91482301D01*
X150296782Y-91552595D01*
X150108588Y-91961287D01*
X150091119Y-92410887D01*
X150247034Y-92832949D01*
X150296782Y-92907405D01*
X150481593Y-92977700D01*
X151229293Y-92230000D01*
X151215151Y-92215858D01*
X151215858Y-92215151D01*
X151230000Y-92229293D01*
X151244143Y-92215151D01*
X151244850Y-92215858D01*
X151230707Y-92230000D01*
X151978407Y-92977700D01*
X152163218Y-92907405D01*
X152351412Y-92498713D01*
X152368881Y-92049113D01*
X152212966Y-91627051D01*
X152163218Y-91552595D01*
X151978409Y-91482301D01*
X152029710Y-91431000D01*
X152969522Y-91431000D01*
X152811744Y-91588503D01*
X152639196Y-92004043D01*
X152638804Y-92453983D01*
X152810625Y-92869823D01*
X153128503Y-93188256D01*
X153544043Y-93360804D01*
X153993983Y-93361196D01*
X154319000Y-93226902D01*
X154319000Y-93773336D01*
X153995957Y-93639196D01*
X153546017Y-93638804D01*
X153130177Y-93810625D01*
X152811744Y-94128503D01*
X152639196Y-94544043D01*
X152638804Y-94993983D01*
X152810625Y-95409823D01*
X153128503Y-95728256D01*
X153544043Y-95900804D01*
X153993983Y-95901196D01*
X154319000Y-95766902D01*
X154319000Y-96750000D01*
X154370838Y-97010608D01*
X154518460Y-97231540D01*
X156518327Y-99231407D01*
X156613741Y-99326987D01*
X156863946Y-99430882D01*
X157134865Y-99431118D01*
X157135151Y-99431000D01*
X157749405Y-99431000D01*
X157884865Y-99431118D01*
X158135252Y-99327661D01*
X158326987Y-99136259D01*
X158430882Y-98886054D01*
X158431118Y-98615135D01*
X158327661Y-98364748D01*
X158136259Y-98173013D01*
X157886054Y-98069118D01*
X157615135Y-98068882D01*
X157614849Y-98069000D01*
X157282080Y-98069000D01*
X155681000Y-96467920D01*
X155681000Y-95733445D01*
X156084043Y-95900804D01*
X156533983Y-95901196D01*
X156949823Y-95729375D01*
X157268256Y-95411497D01*
X157440804Y-94995957D01*
X157441000Y-94770879D01*
X157718104Y-94771121D01*
X157711119Y-94950887D01*
X157867034Y-95372949D01*
X157916782Y-95447405D01*
X158101593Y-95517700D01*
X158849293Y-94770000D01*
X158835151Y-94755858D01*
X158835858Y-94755151D01*
X158850000Y-94769293D01*
X158864143Y-94755151D01*
X158864850Y-94755858D01*
X158850707Y-94770000D01*
X158864850Y-94784143D01*
X158864143Y-94784850D01*
X158850000Y-94770707D01*
X158102300Y-95518407D01*
X158172595Y-95703218D01*
X158581287Y-95891412D01*
X159030887Y-95908881D01*
X159452949Y-95752966D01*
X159527405Y-95703218D01*
X159597699Y-95518409D01*
X159623000Y-95543710D01*
X159623000Y-100724478D01*
X159577661Y-100614748D01*
X159386259Y-100423013D01*
X159136054Y-100319118D01*
X158865135Y-100318882D01*
X158614748Y-100422339D01*
X158423013Y-100613741D01*
X158319118Y-100863946D01*
X158318882Y-101134865D01*
X158319000Y-101135151D01*
X158319000Y-107217921D01*
X157717920Y-107819000D01*
X155500000Y-107819000D01*
X155239392Y-107870838D01*
X155018460Y-108018460D01*
X152717920Y-110319000D01*
X149500594Y-110319000D01*
X149365135Y-110318882D01*
X149364849Y-110319000D01*
X148500594Y-110319000D01*
X148365135Y-110318882D01*
X148114748Y-110422339D01*
X147923013Y-110613741D01*
X147819118Y-110863946D01*
X147818882Y-111134865D01*
X147922339Y-111385252D01*
X148113741Y-111576987D01*
X148363946Y-111680882D01*
X148634865Y-111681118D01*
X148635151Y-111681000D01*
X149499405Y-111681000D01*
X149634865Y-111681118D01*
X149635151Y-111681000D01*
X153000000Y-111681000D01*
X153260608Y-111629162D01*
X153481540Y-111481540D01*
X155782080Y-109181000D01*
X158000000Y-109181000D01*
X158260608Y-109129162D01*
X158481540Y-108981540D01*
X159481537Y-107981542D01*
X159481540Y-107981540D01*
X159623000Y-107769829D01*
X159623000Y-118697394D01*
X159317749Y-119002645D01*
X159380100Y-118690111D01*
X159380100Y-118415111D01*
X158499600Y-118415111D01*
X158499600Y-118435111D01*
X158498600Y-118435111D01*
X158498600Y-118415111D01*
X157618100Y-118415111D01*
X157618100Y-118690111D01*
X157685353Y-119027217D01*
X157876492Y-119312926D01*
X157966510Y-119373000D01*
X152031690Y-119373000D01*
X152121708Y-119312926D01*
X152312847Y-119027217D01*
X152380100Y-118690111D01*
X152380100Y-118415111D01*
X151499600Y-118415111D01*
X151499600Y-118435111D01*
X151498600Y-118435111D01*
X151498600Y-118415111D01*
X150618100Y-118415111D01*
X150618100Y-118690111D01*
X150685353Y-119027217D01*
X150876492Y-119312926D01*
X150966510Y-119373000D01*
X124052606Y-119373000D01*
X123825338Y-119145732D01*
X123920136Y-119149439D01*
X124902051Y-118786983D01*
X125076355Y-118670517D01*
X125329140Y-118329847D01*
X123500000Y-116500707D01*
X123485858Y-116514850D01*
X123485151Y-116514143D01*
X123499293Y-116500000D01*
X123500707Y-116500000D01*
X125329847Y-118329140D01*
X125585942Y-118139111D01*
X150618100Y-118139111D01*
X150618100Y-118414111D01*
X151498600Y-118414111D01*
X151498600Y-117353861D01*
X151499600Y-117353861D01*
X151499600Y-118414111D01*
X152380100Y-118414111D01*
X152380100Y-118139111D01*
X157618100Y-118139111D01*
X157618100Y-118414111D01*
X158498600Y-118414111D01*
X158498600Y-117353861D01*
X158499600Y-117353861D01*
X158499600Y-118414111D01*
X159380100Y-118414111D01*
X159380100Y-118139111D01*
X159312847Y-117802005D01*
X159121708Y-117516296D01*
X158835782Y-117325481D01*
X158637413Y-117269536D01*
X158499600Y-117353861D01*
X158498600Y-117353861D01*
X158360787Y-117269536D01*
X158162418Y-117325481D01*
X157876492Y-117516296D01*
X157685353Y-117802005D01*
X157618100Y-118139111D01*
X152380100Y-118139111D01*
X152312847Y-117802005D01*
X152121708Y-117516296D01*
X151835782Y-117325481D01*
X151637413Y-117269536D01*
X151499600Y-117353861D01*
X151498600Y-117353861D01*
X151360787Y-117269536D01*
X151162418Y-117325481D01*
X150876492Y-117516296D01*
X150685353Y-117802005D01*
X150618100Y-118139111D01*
X125585942Y-118139111D01*
X125670517Y-118076355D01*
X126108541Y-117125741D01*
X126149439Y-116079864D01*
X126064225Y-115849013D01*
X151503717Y-115849013D01*
X151558068Y-116041726D01*
X151743463Y-116319541D01*
X152021061Y-116505261D01*
X152348600Y-116570611D01*
X152498600Y-116570611D01*
X152498600Y-115715111D01*
X152499600Y-115715111D01*
X152499600Y-116570611D01*
X152649600Y-116570611D01*
X152977139Y-116505261D01*
X153254737Y-116319541D01*
X153440132Y-116041726D01*
X153494483Y-115849013D01*
X156503717Y-115849013D01*
X156558068Y-116041726D01*
X156743463Y-116319541D01*
X157021061Y-116505261D01*
X157348600Y-116570611D01*
X157498600Y-116570611D01*
X157498600Y-115715111D01*
X157499600Y-115715111D01*
X157499600Y-116570611D01*
X157649600Y-116570611D01*
X157977139Y-116505261D01*
X158254737Y-116319541D01*
X158440132Y-116041726D01*
X158494483Y-115849013D01*
X158409850Y-115715111D01*
X157499600Y-115715111D01*
X157498600Y-115715111D01*
X156588350Y-115715111D01*
X156503717Y-115849013D01*
X153494483Y-115849013D01*
X153409850Y-115715111D01*
X152499600Y-115715111D01*
X152498600Y-115715111D01*
X151588350Y-115715111D01*
X151503717Y-115849013D01*
X126064225Y-115849013D01*
X125965001Y-115580209D01*
X151503717Y-115580209D01*
X151588350Y-115714111D01*
X152498600Y-115714111D01*
X152498600Y-114858611D01*
X152499600Y-114858611D01*
X152499600Y-115714111D01*
X153409850Y-115714111D01*
X153494483Y-115580209D01*
X156503717Y-115580209D01*
X156588350Y-115714111D01*
X157498600Y-115714111D01*
X157498600Y-114858611D01*
X157499600Y-114858611D01*
X157499600Y-115714111D01*
X158409850Y-115714111D01*
X158494483Y-115580209D01*
X158440132Y-115387496D01*
X158254737Y-115109681D01*
X157977139Y-114923961D01*
X157649600Y-114858611D01*
X157499600Y-114858611D01*
X157498600Y-114858611D01*
X157348600Y-114858611D01*
X157021061Y-114923961D01*
X156743463Y-115109681D01*
X156558068Y-115387496D01*
X156503717Y-115580209D01*
X153494483Y-115580209D01*
X153440132Y-115387496D01*
X153254737Y-115109681D01*
X152977139Y-114923961D01*
X152649600Y-114858611D01*
X152499600Y-114858611D01*
X152498600Y-114858611D01*
X152348600Y-114858611D01*
X152021061Y-114923961D01*
X151743463Y-115109681D01*
X151558068Y-115387496D01*
X151503717Y-115580209D01*
X125965001Y-115580209D01*
X125786983Y-115097949D01*
X125670517Y-114923645D01*
X125329847Y-114670860D01*
X123500707Y-116500000D01*
X123499293Y-116500000D01*
X121670153Y-114670860D01*
X121329483Y-114923645D01*
X120891459Y-115874259D01*
X120878755Y-116199149D01*
X120627000Y-115947394D01*
X120627000Y-114670153D01*
X121670860Y-114670153D01*
X123500000Y-116499293D01*
X125329140Y-114670153D01*
X125302956Y-114634865D01*
X131318882Y-114634865D01*
X131422339Y-114885252D01*
X131613741Y-115076987D01*
X131863946Y-115180882D01*
X132134865Y-115181118D01*
X132385252Y-115077661D01*
X132576987Y-114886259D01*
X132677529Y-114644129D01*
X133240658Y-114081000D01*
X140623405Y-114081000D01*
X140863946Y-114180882D01*
X141134865Y-114181118D01*
X141385252Y-114077661D01*
X141576987Y-113886259D01*
X141677529Y-113644129D01*
X143740658Y-111581000D01*
X145123405Y-111581000D01*
X145363946Y-111680882D01*
X145634865Y-111681118D01*
X145885252Y-111577661D01*
X146076987Y-111386259D01*
X146180882Y-111136054D01*
X146181118Y-110865135D01*
X146077661Y-110614748D01*
X145886259Y-110423013D01*
X145636054Y-110319118D01*
X145365135Y-110318882D01*
X145122829Y-110419000D01*
X143500000Y-110419000D01*
X143277661Y-110463226D01*
X143231000Y-110494404D01*
X143231000Y-110482079D01*
X143326987Y-110386259D01*
X143430882Y-110136054D01*
X143431118Y-109865135D01*
X143327661Y-109614748D01*
X143136259Y-109423013D01*
X142886054Y-109319118D01*
X142615135Y-109318882D01*
X142364748Y-109422339D01*
X142173013Y-109613741D01*
X142069118Y-109863946D01*
X142068882Y-110134865D01*
X142172339Y-110385252D01*
X142178420Y-110391343D01*
X140300764Y-112269000D01*
X138949237Y-112269000D01*
X136203182Y-109522946D01*
X136203182Y-109454261D01*
X136299169Y-109358441D01*
X136403064Y-109108236D01*
X136403300Y-108837317D01*
X136299843Y-108586930D01*
X136108441Y-108395195D01*
X135858236Y-108291300D01*
X135587317Y-108291064D01*
X135336930Y-108394521D01*
X135145195Y-108585923D01*
X135041300Y-108836128D01*
X135041097Y-109069035D01*
X134865135Y-109068882D01*
X134614748Y-109172339D01*
X134423013Y-109363741D01*
X134319118Y-109613946D01*
X134318882Y-109884865D01*
X134422339Y-110135252D01*
X134613741Y-110326987D01*
X134855871Y-110427529D01*
X137347342Y-112919000D01*
X133000000Y-112919000D01*
X132777661Y-112963226D01*
X132589171Y-113089171D01*
X131855464Y-113822878D01*
X131614748Y-113922339D01*
X131423013Y-114113741D01*
X131319118Y-114363946D01*
X131318882Y-114634865D01*
X125302956Y-114634865D01*
X125076355Y-114329483D01*
X124125741Y-113891459D01*
X123079864Y-113850561D01*
X122097949Y-114213017D01*
X121923645Y-114329483D01*
X121670860Y-114670153D01*
X120627000Y-114670153D01*
X120627000Y-103634865D01*
X132818882Y-103634865D01*
X132919000Y-103877171D01*
X132919000Y-106123405D01*
X132819118Y-106363946D01*
X132818882Y-106634865D01*
X132922339Y-106885252D01*
X133113741Y-107076987D01*
X133363946Y-107180882D01*
X133634865Y-107181118D01*
X133885252Y-107077661D01*
X134076987Y-106886259D01*
X134180882Y-106636054D01*
X134181118Y-106365135D01*
X134081000Y-106122829D01*
X134081000Y-103876595D01*
X134180882Y-103636054D01*
X134181118Y-103365135D01*
X134077661Y-103114748D01*
X133886259Y-102923013D01*
X133636054Y-102819118D01*
X133365135Y-102818882D01*
X133114748Y-102922339D01*
X132923013Y-103113741D01*
X132819118Y-103363946D01*
X132818882Y-103634865D01*
X120627000Y-103634865D01*
X120627000Y-95329847D01*
X121670860Y-95329847D01*
X121923645Y-95670517D01*
X122874259Y-96108541D01*
X123920136Y-96149439D01*
X124902051Y-95786983D01*
X125076355Y-95670517D01*
X125329140Y-95329847D01*
X123500000Y-93500707D01*
X121670860Y-95329847D01*
X120627000Y-95329847D01*
X120627000Y-94052606D01*
X120854268Y-93825338D01*
X120850561Y-93920136D01*
X121213017Y-94902051D01*
X121329483Y-95076355D01*
X121670153Y-95329140D01*
X123499293Y-93500000D01*
X123500707Y-93500000D01*
X125329847Y-95329140D01*
X125670517Y-95076355D01*
X126108541Y-94125741D01*
X126149439Y-93079864D01*
X125786983Y-92097949D01*
X125670517Y-91923645D01*
X125329847Y-91670860D01*
X123500707Y-93500000D01*
X123499293Y-93500000D01*
X123485151Y-93485858D01*
X123485858Y-93485151D01*
X123500000Y-93499293D01*
X125329140Y-91670153D01*
X125076355Y-91329483D01*
X124125741Y-90891459D01*
X123800851Y-90878755D01*
X124052606Y-90627000D01*
X131549920Y-90627000D01*
X131077775Y-91099145D01*
X131077775Y-91099145D01*
G37*
X131077775Y-91099145D02*
X130741933Y-91098853D01*
X130641541Y-90998461D01*
X130420609Y-90850839D01*
X130160001Y-90799001D01*
X129120004Y-90799001D01*
X129119999Y-90799000D01*
X128859391Y-90850839D01*
X128638459Y-90998461D01*
X128537775Y-91099145D01*
X128146017Y-91098804D01*
X127730177Y-91270625D01*
X127411744Y-91588503D01*
X127239196Y-92004043D01*
X127238804Y-92453983D01*
X127410625Y-92869823D01*
X127728503Y-93188256D01*
X128144043Y-93360804D01*
X128369121Y-93361000D01*
X128368878Y-93638998D01*
X128146017Y-93638804D01*
X127730177Y-93810625D01*
X127411744Y-94128503D01*
X127239196Y-94544043D01*
X127238804Y-94993983D01*
X127410625Y-95409823D01*
X127728503Y-95728256D01*
X128144043Y-95900804D01*
X128593983Y-95901196D01*
X129009823Y-95729375D01*
X129328256Y-95411497D01*
X129500804Y-94995957D01*
X129501000Y-94770879D01*
X129778998Y-94771122D01*
X129778804Y-94993983D01*
X129950625Y-95409823D01*
X130268503Y-95728256D01*
X130684043Y-95900804D01*
X131133983Y-95901196D01*
X131549823Y-95729375D01*
X131868256Y-95411497D01*
X132040804Y-94995957D01*
X132040805Y-94993983D01*
X132318804Y-94993983D01*
X132490625Y-95409823D01*
X132808503Y-95728256D01*
X133224043Y-95900804D01*
X133673983Y-95901196D01*
X134089823Y-95729375D01*
X134408256Y-95411497D01*
X134580804Y-94995957D01*
X134580805Y-94993983D01*
X134858804Y-94993983D01*
X135030625Y-95409823D01*
X135348503Y-95728256D01*
X135764043Y-95900804D01*
X136213983Y-95901196D01*
X136374596Y-95834832D01*
X137879881Y-97340118D01*
X138035929Y-97444386D01*
X138220000Y-97481000D01*
X140338764Y-97481000D01*
X140186885Y-97632879D01*
X140186882Y-97632881D01*
X137750764Y-100069000D01*
X137615135Y-100068882D01*
X137364748Y-100172339D01*
X137173013Y-100363741D01*
X137069118Y-100613946D01*
X137068882Y-100884865D01*
X137172339Y-101135252D01*
X137363741Y-101326987D01*
X137613946Y-101430882D01*
X137884865Y-101431118D01*
X138135252Y-101327661D01*
X138326987Y-101136259D01*
X138430882Y-100886054D01*
X138431001Y-100749235D01*
X139545371Y-99634865D01*
X142318882Y-99634865D01*
X142422339Y-99885252D01*
X142613741Y-100076987D01*
X142863946Y-100180882D01*
X143134865Y-100181118D01*
X143385252Y-100077661D01*
X143576987Y-99886259D01*
X143680882Y-99636054D01*
X143681118Y-99365135D01*
X143577661Y-99114748D01*
X143386259Y-98923013D01*
X143136054Y-98819118D01*
X142865135Y-98818882D01*
X142614748Y-98922339D01*
X142423013Y-99113741D01*
X142319118Y-99363946D01*
X142318882Y-99634865D01*
X139545371Y-99634865D01*
X140867119Y-98313118D01*
X140867121Y-98313115D01*
X141199237Y-97981000D01*
X147050764Y-97981000D01*
X147909882Y-98840119D01*
X148065930Y-98944387D01*
X148250000Y-98981000D01*
X148750000Y-98981000D01*
X148934071Y-98944386D01*
X149090118Y-98840118D01*
X149199236Y-98731000D01*
X150267921Y-98731000D01*
X150363741Y-98826987D01*
X150613946Y-98930882D01*
X150884865Y-98931118D01*
X151135252Y-98827661D01*
X151326987Y-98636259D01*
X151430882Y-98386054D01*
X151431118Y-98115135D01*
X151375695Y-97981000D01*
X151517921Y-97981000D01*
X151613741Y-98076987D01*
X151863946Y-98180882D01*
X152134865Y-98181118D01*
X152385252Y-98077661D01*
X152576987Y-97886259D01*
X152680882Y-97636054D01*
X152681118Y-97365135D01*
X152577661Y-97114748D01*
X152386259Y-96923013D01*
X152136054Y-96819118D01*
X151865135Y-96818882D01*
X151614748Y-96922339D01*
X151517919Y-97019000D01*
X149699236Y-97019000D01*
X149171000Y-96490764D01*
X149171000Y-95794999D01*
X149329823Y-95729375D01*
X149648256Y-95411497D01*
X149820804Y-94995957D01*
X149820805Y-94993983D01*
X150098804Y-94993983D01*
X150270625Y-95409823D01*
X150588503Y-95728256D01*
X151004043Y-95900804D01*
X151453983Y-95901196D01*
X151869823Y-95729375D01*
X152188256Y-95411497D01*
X152360804Y-94995957D01*
X152361196Y-94546017D01*
X152189375Y-94130177D01*
X151871497Y-93811744D01*
X151455957Y-93639196D01*
X151006017Y-93638804D01*
X150590177Y-93810625D01*
X150271744Y-94128503D01*
X150099196Y-94544043D01*
X150098804Y-94993983D01*
X149820805Y-94993983D01*
X149821196Y-94546017D01*
X149649375Y-94130177D01*
X149331497Y-93811744D01*
X148915957Y-93639196D01*
X148466017Y-93638804D01*
X148050177Y-93810625D01*
X147731744Y-94128503D01*
X147559196Y-94544043D01*
X147558804Y-94993983D01*
X147730625Y-95409823D01*
X148048503Y-95728256D01*
X148209000Y-95794900D01*
X148209000Y-96690000D01*
X148231040Y-96800804D01*
X148090118Y-96659882D01*
X147934071Y-96555614D01*
X147750000Y-96519000D01*
X138419237Y-96519000D01*
X137418644Y-95518407D01*
X137782300Y-95518407D01*
X137852595Y-95703218D01*
X138261287Y-95891412D01*
X138710887Y-95908881D01*
X139132949Y-95752966D01*
X139207405Y-95703218D01*
X139277700Y-95518407D01*
X138530000Y-94770707D01*
X137782300Y-95518407D01*
X137418644Y-95518407D01*
X137054902Y-95154666D01*
X137120804Y-94995957D01*
X137120843Y-94950887D01*
X137391119Y-94950887D01*
X137547034Y-95372949D01*
X137596782Y-95447405D01*
X137781593Y-95517700D01*
X138529293Y-94770000D01*
X138530707Y-94770000D01*
X139278407Y-95517700D01*
X139463218Y-95447405D01*
X139651412Y-95038713D01*
X139653149Y-94993983D01*
X139938804Y-94993983D01*
X140110625Y-95409823D01*
X140428503Y-95728256D01*
X140844043Y-95900804D01*
X141293983Y-95901196D01*
X141709823Y-95729375D01*
X142028256Y-95411497D01*
X142200804Y-94995957D01*
X142200805Y-94993983D01*
X142478804Y-94993983D01*
X142650625Y-95409823D01*
X142968503Y-95728256D01*
X143384043Y-95900804D01*
X143833983Y-95901196D01*
X144249823Y-95729375D01*
X144568256Y-95411497D01*
X144740804Y-94995957D01*
X144740805Y-94993983D01*
X145018804Y-94993983D01*
X145190625Y-95409823D01*
X145508503Y-95728256D01*
X145924043Y-95900804D01*
X146373983Y-95901196D01*
X146789823Y-95729375D01*
X147108256Y-95411497D01*
X147280804Y-94995957D01*
X147281196Y-94546017D01*
X147109375Y-94130177D01*
X146791497Y-93811744D01*
X146375957Y-93639196D01*
X145926017Y-93638804D01*
X145510177Y-93810625D01*
X145191744Y-94128503D01*
X145019196Y-94544043D01*
X145018804Y-94993983D01*
X144740805Y-94993983D01*
X144741196Y-94546017D01*
X144569375Y-94130177D01*
X144251497Y-93811744D01*
X143835957Y-93639196D01*
X143386017Y-93638804D01*
X142970177Y-93810625D01*
X142651744Y-94128503D01*
X142479196Y-94544043D01*
X142478804Y-94993983D01*
X142200805Y-94993983D01*
X142201196Y-94546017D01*
X142029375Y-94130177D01*
X141711497Y-93811744D01*
X141295957Y-93639196D01*
X140846017Y-93638804D01*
X140430177Y-93810625D01*
X140111744Y-94128503D01*
X139939196Y-94544043D01*
X139938804Y-94993983D01*
X139653149Y-94993983D01*
X139668881Y-94589113D01*
X139512966Y-94167051D01*
X139463218Y-94092595D01*
X139278407Y-94022300D01*
X138530707Y-94770000D01*
X138529293Y-94770000D01*
X137781593Y-94022300D01*
X137596782Y-94092595D01*
X137408588Y-94501287D01*
X137391119Y-94950887D01*
X137120843Y-94950887D01*
X137121196Y-94546017D01*
X136949375Y-94130177D01*
X136840981Y-94021593D01*
X137782300Y-94021593D01*
X138530000Y-94769293D01*
X139277700Y-94021593D01*
X139207405Y-93836782D01*
X138798713Y-93648588D01*
X138349113Y-93631119D01*
X137927051Y-93787034D01*
X137852595Y-93836782D01*
X137782300Y-94021593D01*
X136840981Y-94021593D01*
X136631497Y-93811744D01*
X136215957Y-93639196D01*
X135766017Y-93638804D01*
X135350177Y-93810625D01*
X135031744Y-94128503D01*
X134859196Y-94544043D01*
X134858804Y-94993983D01*
X134580805Y-94993983D01*
X134581196Y-94546017D01*
X134409375Y-94130177D01*
X134091497Y-93811744D01*
X133675957Y-93639196D01*
X133226017Y-93638804D01*
X132810177Y-93810625D01*
X132491744Y-94128503D01*
X132319196Y-94544043D01*
X132318804Y-94993983D01*
X132040805Y-94993983D01*
X132041196Y-94546017D01*
X131869375Y-94130177D01*
X131551497Y-93811744D01*
X131135957Y-93639196D01*
X130910879Y-93639000D01*
X130911122Y-93361002D01*
X131133983Y-93361196D01*
X131549823Y-93189375D01*
X131761159Y-92978407D01*
X132702300Y-92978407D01*
X132772595Y-93163218D01*
X133181287Y-93351412D01*
X133630887Y-93368881D01*
X134052949Y-93212966D01*
X134127405Y-93163218D01*
X134197700Y-92978407D01*
X133450000Y-92230707D01*
X132702300Y-92978407D01*
X131761159Y-92978407D01*
X131868256Y-92871497D01*
X132040804Y-92455957D01*
X132041147Y-92061933D01*
X132488017Y-91615063D01*
X132328588Y-91961287D01*
X132311119Y-92410887D01*
X132467034Y-92832949D01*
X132516782Y-92907405D01*
X132701593Y-92977700D01*
X133449293Y-92230000D01*
X133435151Y-92215858D01*
X133435858Y-92215151D01*
X133450000Y-92229293D01*
X133464143Y-92215151D01*
X133464850Y-92215858D01*
X133450707Y-92230000D01*
X134198407Y-92977700D01*
X134383218Y-92907405D01*
X134571412Y-92498713D01*
X134588881Y-92049113D01*
X134432966Y-91627051D01*
X134383218Y-91552595D01*
X134198409Y-91482301D01*
X134249710Y-91431000D01*
X135189522Y-91431000D01*
X135031744Y-91588503D01*
X134859196Y-92004043D01*
X134858804Y-92453983D01*
X135030625Y-92869823D01*
X135348503Y-93188256D01*
X135764043Y-93360804D01*
X136213983Y-93361196D01*
X136629823Y-93189375D01*
X136948256Y-92871497D01*
X137120804Y-92455957D01*
X137121196Y-92006017D01*
X136949375Y-91590177D01*
X136790475Y-91431000D01*
X137729522Y-91431000D01*
X137571744Y-91588503D01*
X137399196Y-92004043D01*
X137398804Y-92453983D01*
X137570625Y-92869823D01*
X137888503Y-93188256D01*
X138304043Y-93360804D01*
X138753983Y-93361196D01*
X139169823Y-93189375D01*
X139488256Y-92871497D01*
X139660804Y-92455957D01*
X139661196Y-92006017D01*
X139489375Y-91590177D01*
X139330475Y-91431000D01*
X140269522Y-91431000D01*
X140111744Y-91588503D01*
X139939196Y-92004043D01*
X139938804Y-92453983D01*
X140110625Y-92869823D01*
X140428503Y-93188256D01*
X140844043Y-93360804D01*
X141293983Y-93361196D01*
X141709823Y-93189375D01*
X141921159Y-92978407D01*
X142862300Y-92978407D01*
X142932595Y-93163218D01*
X143341287Y-93351412D01*
X143790887Y-93368881D01*
X144212949Y-93212966D01*
X144287405Y-93163218D01*
X144357700Y-92978407D01*
X143610000Y-92230707D01*
X142862300Y-92978407D01*
X141921159Y-92978407D01*
X142028256Y-92871497D01*
X142200804Y-92455957D01*
X142201196Y-92006017D01*
X142029375Y-91590177D01*
X141870475Y-91431000D01*
X142810290Y-91431000D01*
X142861591Y-91482301D01*
X142676782Y-91552595D01*
X142488588Y-91961287D01*
X142471119Y-92410887D01*
X142627034Y-92832949D01*
X142676782Y-92907405D01*
X142861593Y-92977700D01*
X143609293Y-92230000D01*
X143595151Y-92215858D01*
X143595858Y-92215151D01*
X143610000Y-92229293D01*
X143624143Y-92215151D01*
X143624850Y-92215858D01*
X143610707Y-92230000D01*
X144358407Y-92977700D01*
X144543218Y-92907405D01*
X144731412Y-92498713D01*
X144748881Y-92049113D01*
X144592966Y-91627051D01*
X144543218Y-91552595D01*
X144358409Y-91482301D01*
X144409710Y-91431000D01*
X145349522Y-91431000D01*
X145191744Y-91588503D01*
X145019196Y-92004043D01*
X145018804Y-92453983D01*
X145190625Y-92869823D01*
X145508503Y-93188256D01*
X145924043Y-93360804D01*
X146373983Y-93361196D01*
X146789823Y-93189375D01*
X147108256Y-92871497D01*
X147280804Y-92455957D01*
X147281196Y-92006017D01*
X147109375Y-91590177D01*
X146950475Y-91431000D01*
X147889522Y-91431000D01*
X147731744Y-91588503D01*
X147559196Y-92004043D01*
X147558804Y-92453983D01*
X147730625Y-92869823D01*
X148048503Y-93188256D01*
X148464043Y-93360804D01*
X148913983Y-93361196D01*
X149329823Y-93189375D01*
X149541159Y-92978407D01*
X150482300Y-92978407D01*
X150552595Y-93163218D01*
X150961287Y-93351412D01*
X151410887Y-93368881D01*
X151832949Y-93212966D01*
X151907405Y-93163218D01*
X151977700Y-92978407D01*
X151230000Y-92230707D01*
X150482300Y-92978407D01*
X149541159Y-92978407D01*
X149648256Y-92871497D01*
X149820804Y-92455957D01*
X149821196Y-92006017D01*
X149649375Y-91590177D01*
X149490475Y-91431000D01*
X150430290Y-91431000D01*
X150481591Y-91482301D01*
X150296782Y-91552595D01*
X150108588Y-91961287D01*
X150091119Y-92410887D01*
X150247034Y-92832949D01*
X150296782Y-92907405D01*
X150481593Y-92977700D01*
X151229293Y-92230000D01*
X151215151Y-92215858D01*
X151215858Y-92215151D01*
X151230000Y-92229293D01*
X151244143Y-92215151D01*
X151244850Y-92215858D01*
X151230707Y-92230000D01*
X151978407Y-92977700D01*
X152163218Y-92907405D01*
X152351412Y-92498713D01*
X152368881Y-92049113D01*
X152212966Y-91627051D01*
X152163218Y-91552595D01*
X151978409Y-91482301D01*
X152029710Y-91431000D01*
X152969522Y-91431000D01*
X152811744Y-91588503D01*
X152639196Y-92004043D01*
X152638804Y-92453983D01*
X152810625Y-92869823D01*
X153128503Y-93188256D01*
X153544043Y-93360804D01*
X153993983Y-93361196D01*
X154319000Y-93226902D01*
X154319000Y-93773336D01*
X153995957Y-93639196D01*
X153546017Y-93638804D01*
X153130177Y-93810625D01*
X152811744Y-94128503D01*
X152639196Y-94544043D01*
X152638804Y-94993983D01*
X152810625Y-95409823D01*
X153128503Y-95728256D01*
X153544043Y-95900804D01*
X153993983Y-95901196D01*
X154319000Y-95766902D01*
X154319000Y-96750000D01*
X154370838Y-97010608D01*
X154518460Y-97231540D01*
X156518327Y-99231407D01*
X156613741Y-99326987D01*
X156863946Y-99430882D01*
X157134865Y-99431118D01*
X157135151Y-99431000D01*
X157749405Y-99431000D01*
X157884865Y-99431118D01*
X158135252Y-99327661D01*
X158326987Y-99136259D01*
X158430882Y-98886054D01*
X158431118Y-98615135D01*
X158327661Y-98364748D01*
X158136259Y-98173013D01*
X157886054Y-98069118D01*
X157615135Y-98068882D01*
X157614849Y-98069000D01*
X157282080Y-98069000D01*
X155681000Y-96467920D01*
X155681000Y-95733445D01*
X156084043Y-95900804D01*
X156533983Y-95901196D01*
X156949823Y-95729375D01*
X157268256Y-95411497D01*
X157440804Y-94995957D01*
X157441000Y-94770879D01*
X157718104Y-94771121D01*
X157711119Y-94950887D01*
X157867034Y-95372949D01*
X157916782Y-95447405D01*
X158101593Y-95517700D01*
X158849293Y-94770000D01*
X158835151Y-94755858D01*
X158835858Y-94755151D01*
X158850000Y-94769293D01*
X158864143Y-94755151D01*
X158864850Y-94755858D01*
X158850707Y-94770000D01*
X158864850Y-94784143D01*
X158864143Y-94784850D01*
X158850000Y-94770707D01*
X158102300Y-95518407D01*
X158172595Y-95703218D01*
X158581287Y-95891412D01*
X159030887Y-95908881D01*
X159452949Y-95752966D01*
X159527405Y-95703218D01*
X159597699Y-95518409D01*
X159623000Y-95543710D01*
X159623000Y-100724478D01*
X159577661Y-100614748D01*
X159386259Y-100423013D01*
X159136054Y-100319118D01*
X158865135Y-100318882D01*
X158614748Y-100422339D01*
X158423013Y-100613741D01*
X158319118Y-100863946D01*
X158318882Y-101134865D01*
X158319000Y-101135151D01*
X158319000Y-107217921D01*
X157717920Y-107819000D01*
X155500000Y-107819000D01*
X155239392Y-107870838D01*
X155018460Y-108018460D01*
X152717920Y-110319000D01*
X149500594Y-110319000D01*
X149365135Y-110318882D01*
X149364849Y-110319000D01*
X148500594Y-110319000D01*
X148365135Y-110318882D01*
X148114748Y-110422339D01*
X147923013Y-110613741D01*
X147819118Y-110863946D01*
X147818882Y-111134865D01*
X147922339Y-111385252D01*
X148113741Y-111576987D01*
X148363946Y-111680882D01*
X148634865Y-111681118D01*
X148635151Y-111681000D01*
X149499405Y-111681000D01*
X149634865Y-111681118D01*
X149635151Y-111681000D01*
X153000000Y-111681000D01*
X153260608Y-111629162D01*
X153481540Y-111481540D01*
X155782080Y-109181000D01*
X158000000Y-109181000D01*
X158260608Y-109129162D01*
X158481540Y-108981540D01*
X159481537Y-107981542D01*
X159481540Y-107981540D01*
X159623000Y-107769829D01*
X159623000Y-118697394D01*
X159317749Y-119002645D01*
X159380100Y-118690111D01*
X159380100Y-118415111D01*
X158499600Y-118415111D01*
X158499600Y-118435111D01*
X158498600Y-118435111D01*
X158498600Y-118415111D01*
X157618100Y-118415111D01*
X157618100Y-118690111D01*
X157685353Y-119027217D01*
X157876492Y-119312926D01*
X157966510Y-119373000D01*
X152031690Y-119373000D01*
X152121708Y-119312926D01*
X152312847Y-119027217D01*
X152380100Y-118690111D01*
X152380100Y-118415111D01*
X151499600Y-118415111D01*
X151499600Y-118435111D01*
X151498600Y-118435111D01*
X151498600Y-118415111D01*
X150618100Y-118415111D01*
X150618100Y-118690111D01*
X150685353Y-119027217D01*
X150876492Y-119312926D01*
X150966510Y-119373000D01*
X124052606Y-119373000D01*
X123825338Y-119145732D01*
X123920136Y-119149439D01*
X124902051Y-118786983D01*
X125076355Y-118670517D01*
X125329140Y-118329847D01*
X123500000Y-116500707D01*
X123485858Y-116514850D01*
X123485151Y-116514143D01*
X123499293Y-116500000D01*
X123500707Y-116500000D01*
X125329847Y-118329140D01*
X125585942Y-118139111D01*
X150618100Y-118139111D01*
X150618100Y-118414111D01*
X151498600Y-118414111D01*
X151498600Y-117353861D01*
X151499600Y-117353861D01*
X151499600Y-118414111D01*
X152380100Y-118414111D01*
X152380100Y-118139111D01*
X157618100Y-118139111D01*
X157618100Y-118414111D01*
X158498600Y-118414111D01*
X158498600Y-117353861D01*
X158499600Y-117353861D01*
X158499600Y-118414111D01*
X159380100Y-118414111D01*
X159380100Y-118139111D01*
X159312847Y-117802005D01*
X159121708Y-117516296D01*
X158835782Y-117325481D01*
X158637413Y-117269536D01*
X158499600Y-117353861D01*
X158498600Y-117353861D01*
X158360787Y-117269536D01*
X158162418Y-117325481D01*
X157876492Y-117516296D01*
X157685353Y-117802005D01*
X157618100Y-118139111D01*
X152380100Y-118139111D01*
X152312847Y-117802005D01*
X152121708Y-117516296D01*
X151835782Y-117325481D01*
X151637413Y-117269536D01*
X151499600Y-117353861D01*
X151498600Y-117353861D01*
X151360787Y-117269536D01*
X151162418Y-117325481D01*
X150876492Y-117516296D01*
X150685353Y-117802005D01*
X150618100Y-118139111D01*
X125585942Y-118139111D01*
X125670517Y-118076355D01*
X126108541Y-117125741D01*
X126149439Y-116079864D01*
X126064225Y-115849013D01*
X151503717Y-115849013D01*
X151558068Y-116041726D01*
X151743463Y-116319541D01*
X152021061Y-116505261D01*
X152348600Y-116570611D01*
X152498600Y-116570611D01*
X152498600Y-115715111D01*
X152499600Y-115715111D01*
X152499600Y-116570611D01*
X152649600Y-116570611D01*
X152977139Y-116505261D01*
X153254737Y-116319541D01*
X153440132Y-116041726D01*
X153494483Y-115849013D01*
X156503717Y-115849013D01*
X156558068Y-116041726D01*
X156743463Y-116319541D01*
X157021061Y-116505261D01*
X157348600Y-116570611D01*
X157498600Y-116570611D01*
X157498600Y-115715111D01*
X157499600Y-115715111D01*
X157499600Y-116570611D01*
X157649600Y-116570611D01*
X157977139Y-116505261D01*
X158254737Y-116319541D01*
X158440132Y-116041726D01*
X158494483Y-115849013D01*
X158409850Y-115715111D01*
X157499600Y-115715111D01*
X157498600Y-115715111D01*
X156588350Y-115715111D01*
X156503717Y-115849013D01*
X153494483Y-115849013D01*
X153409850Y-115715111D01*
X152499600Y-115715111D01*
X152498600Y-115715111D01*
X151588350Y-115715111D01*
X151503717Y-115849013D01*
X126064225Y-115849013D01*
X125965001Y-115580209D01*
X151503717Y-115580209D01*
X151588350Y-115714111D01*
X152498600Y-115714111D01*
X152498600Y-114858611D01*
X152499600Y-114858611D01*
X152499600Y-115714111D01*
X153409850Y-115714111D01*
X153494483Y-115580209D01*
X156503717Y-115580209D01*
X156588350Y-115714111D01*
X157498600Y-115714111D01*
X157498600Y-114858611D01*
X157499600Y-114858611D01*
X157499600Y-115714111D01*
X158409850Y-115714111D01*
X158494483Y-115580209D01*
X158440132Y-115387496D01*
X158254737Y-115109681D01*
X157977139Y-114923961D01*
X157649600Y-114858611D01*
X157499600Y-114858611D01*
X157498600Y-114858611D01*
X157348600Y-114858611D01*
X157021061Y-114923961D01*
X156743463Y-115109681D01*
X156558068Y-115387496D01*
X156503717Y-115580209D01*
X153494483Y-115580209D01*
X153440132Y-115387496D01*
X153254737Y-115109681D01*
X152977139Y-114923961D01*
X152649600Y-114858611D01*
X152499600Y-114858611D01*
X152498600Y-114858611D01*
X152348600Y-114858611D01*
X152021061Y-114923961D01*
X151743463Y-115109681D01*
X151558068Y-115387496D01*
X151503717Y-115580209D01*
X125965001Y-115580209D01*
X125786983Y-115097949D01*
X125670517Y-114923645D01*
X125329847Y-114670860D01*
X123500707Y-116500000D01*
X123499293Y-116500000D01*
X121670153Y-114670860D01*
X121329483Y-114923645D01*
X120891459Y-115874259D01*
X120878755Y-116199149D01*
X120627000Y-115947394D01*
X120627000Y-114670153D01*
X121670860Y-114670153D01*
X123500000Y-116499293D01*
X125329140Y-114670153D01*
X125302956Y-114634865D01*
X131318882Y-114634865D01*
X131422339Y-114885252D01*
X131613741Y-115076987D01*
X131863946Y-115180882D01*
X132134865Y-115181118D01*
X132385252Y-115077661D01*
X132576987Y-114886259D01*
X132677529Y-114644129D01*
X133240658Y-114081000D01*
X140623405Y-114081000D01*
X140863946Y-114180882D01*
X141134865Y-114181118D01*
X141385252Y-114077661D01*
X141576987Y-113886259D01*
X141677529Y-113644129D01*
X143740658Y-111581000D01*
X145123405Y-111581000D01*
X145363946Y-111680882D01*
X145634865Y-111681118D01*
X145885252Y-111577661D01*
X146076987Y-111386259D01*
X146180882Y-111136054D01*
X146181118Y-110865135D01*
X146077661Y-110614748D01*
X145886259Y-110423013D01*
X145636054Y-110319118D01*
X145365135Y-110318882D01*
X145122829Y-110419000D01*
X143500000Y-110419000D01*
X143277661Y-110463226D01*
X143231000Y-110494404D01*
X143231000Y-110482079D01*
X143326987Y-110386259D01*
X143430882Y-110136054D01*
X143431118Y-109865135D01*
X143327661Y-109614748D01*
X143136259Y-109423013D01*
X142886054Y-109319118D01*
X142615135Y-109318882D01*
X142364748Y-109422339D01*
X142173013Y-109613741D01*
X142069118Y-109863946D01*
X142068882Y-110134865D01*
X142172339Y-110385252D01*
X142178420Y-110391343D01*
X140300764Y-112269000D01*
X138949237Y-112269000D01*
X136203182Y-109522946D01*
X136203182Y-109454261D01*
X136299169Y-109358441D01*
X136403064Y-109108236D01*
X136403300Y-108837317D01*
X136299843Y-108586930D01*
X136108441Y-108395195D01*
X135858236Y-108291300D01*
X135587317Y-108291064D01*
X135336930Y-108394521D01*
X135145195Y-108585923D01*
X135041300Y-108836128D01*
X135041097Y-109069035D01*
X134865135Y-109068882D01*
X134614748Y-109172339D01*
X134423013Y-109363741D01*
X134319118Y-109613946D01*
X134318882Y-109884865D01*
X134422339Y-110135252D01*
X134613741Y-110326987D01*
X134855871Y-110427529D01*
X137347342Y-112919000D01*
X133000000Y-112919000D01*
X132777661Y-112963226D01*
X132589171Y-113089171D01*
X131855464Y-113822878D01*
X131614748Y-113922339D01*
X131423013Y-114113741D01*
X131319118Y-114363946D01*
X131318882Y-114634865D01*
X125302956Y-114634865D01*
X125076355Y-114329483D01*
X124125741Y-113891459D01*
X123079864Y-113850561D01*
X122097949Y-114213017D01*
X121923645Y-114329483D01*
X121670860Y-114670153D01*
X120627000Y-114670153D01*
X120627000Y-103634865D01*
X132818882Y-103634865D01*
X132919000Y-103877171D01*
X132919000Y-106123405D01*
X132819118Y-106363946D01*
X132818882Y-106634865D01*
X132922339Y-106885252D01*
X133113741Y-107076987D01*
X133363946Y-107180882D01*
X133634865Y-107181118D01*
X133885252Y-107077661D01*
X134076987Y-106886259D01*
X134180882Y-106636054D01*
X134181118Y-106365135D01*
X134081000Y-106122829D01*
X134081000Y-103876595D01*
X134180882Y-103636054D01*
X134181118Y-103365135D01*
X134077661Y-103114748D01*
X133886259Y-102923013D01*
X133636054Y-102819118D01*
X133365135Y-102818882D01*
X133114748Y-102922339D01*
X132923013Y-103113741D01*
X132819118Y-103363946D01*
X132818882Y-103634865D01*
X120627000Y-103634865D01*
X120627000Y-95329847D01*
X121670860Y-95329847D01*
X121923645Y-95670517D01*
X122874259Y-96108541D01*
X123920136Y-96149439D01*
X124902051Y-95786983D01*
X125076355Y-95670517D01*
X125329140Y-95329847D01*
X123500000Y-93500707D01*
X121670860Y-95329847D01*
X120627000Y-95329847D01*
X120627000Y-94052606D01*
X120854268Y-93825338D01*
X120850561Y-93920136D01*
X121213017Y-94902051D01*
X121329483Y-95076355D01*
X121670153Y-95329140D01*
X123499293Y-93500000D01*
X123500707Y-93500000D01*
X125329847Y-95329140D01*
X125670517Y-95076355D01*
X126108541Y-94125741D01*
X126149439Y-93079864D01*
X125786983Y-92097949D01*
X125670517Y-91923645D01*
X125329847Y-91670860D01*
X123500707Y-93500000D01*
X123499293Y-93500000D01*
X123485151Y-93485858D01*
X123485858Y-93485151D01*
X123500000Y-93499293D01*
X125329140Y-91670153D01*
X125076355Y-91329483D01*
X124125741Y-90891459D01*
X123800851Y-90878755D01*
X124052606Y-90627000D01*
X131549920Y-90627000D01*
X131077775Y-91099145D01*
G36*
X181174662Y-90854268D02*
X181079864Y-90850561D01*
X180097949Y-91213017D01*
X179923645Y-91329483D01*
X179670860Y-91670153D01*
X181500000Y-93499293D01*
X181514143Y-93485151D01*
X181514850Y-93485858D01*
X181500707Y-93500000D01*
X183329847Y-95329140D01*
X183670517Y-95076355D01*
X184108541Y-94125741D01*
X184121245Y-93800851D01*
X184373000Y-94052606D01*
X184373000Y-97503075D01*
X184357897Y-97422810D01*
X184274454Y-97293135D01*
X184147134Y-97206141D01*
X183996000Y-97175536D01*
X181964000Y-97175536D01*
X181822810Y-97202103D01*
X181693135Y-97285546D01*
X181606141Y-97412866D01*
X181575536Y-97564000D01*
X181575536Y-98099000D01*
X178311940Y-98099000D01*
X178136259Y-97923013D01*
X177886054Y-97819118D01*
X177615135Y-97818882D01*
X177364748Y-97922339D01*
X177173013Y-98113741D01*
X177069118Y-98363946D01*
X177068882Y-98634865D01*
X177172339Y-98885252D01*
X177363741Y-99076987D01*
X177613946Y-99180882D01*
X177884865Y-99181118D01*
X178135252Y-99077661D01*
X178151942Y-99061000D01*
X181575536Y-99061000D01*
X181575536Y-99596000D01*
X181602103Y-99737190D01*
X181685546Y-99866865D01*
X181812866Y-99953859D01*
X181964000Y-99984464D01*
X182189818Y-99984464D01*
X181849509Y-100299269D01*
X181621482Y-100794364D01*
X181600278Y-100900967D01*
X181678250Y-101119500D01*
X182979500Y-101119500D01*
X182979500Y-101099500D01*
X182980500Y-101099500D01*
X182980500Y-101119500D01*
X183000500Y-101119500D01*
X183000500Y-101120500D01*
X182980500Y-101120500D01*
X182980500Y-102421750D01*
X183199033Y-102499722D01*
X183710357Y-102310877D01*
X184110491Y-101940731D01*
X184338518Y-101445636D01*
X184359722Y-101339033D01*
X184281751Y-101120502D01*
X184373000Y-101120502D01*
X184373000Y-104809448D01*
X184248734Y-104724541D01*
X184097600Y-104693936D01*
X181862400Y-104693936D01*
X181721210Y-104720503D01*
X181591535Y-104803946D01*
X181504541Y-104931266D01*
X181473936Y-105082400D01*
X181473936Y-107317600D01*
X181500503Y-107458790D01*
X181583946Y-107588465D01*
X181711266Y-107675459D01*
X181862400Y-107706064D01*
X184097600Y-107706064D01*
X184238790Y-107679497D01*
X184368465Y-107596054D01*
X184373000Y-107589417D01*
X184373000Y-109889448D01*
X184248734Y-109804541D01*
X184097600Y-109773936D01*
X181862400Y-109773936D01*
X181721210Y-109800503D01*
X181591535Y-109883946D01*
X181504541Y-110011266D01*
X181473936Y-110162400D01*
X181473936Y-112397600D01*
X181500503Y-112538790D01*
X181583946Y-112668465D01*
X181711266Y-112755459D01*
X181862400Y-112786064D01*
X184097600Y-112786064D01*
X184238790Y-112759497D01*
X184368465Y-112676054D01*
X184373000Y-112669417D01*
X184373000Y-115447394D01*
X184039193Y-115781201D01*
X183786983Y-115097949D01*
X183670517Y-114923645D01*
X183329847Y-114670860D01*
X181500707Y-116500000D01*
X181514850Y-116514143D01*
X181514143Y-116514850D01*
X181500000Y-116500707D01*
X179670860Y-118329847D01*
X179923645Y-118670517D01*
X180763081Y-119057313D01*
X180447394Y-119373000D01*
X161302606Y-119373000D01*
X160627000Y-118697394D01*
X160627000Y-116920136D01*
X178850561Y-116920136D01*
X179213017Y-117902051D01*
X179329483Y-118076355D01*
X179670153Y-118329140D01*
X181499293Y-116500000D01*
X179670153Y-114670860D01*
X179329483Y-114923645D01*
X178891459Y-115874259D01*
X178850561Y-116920136D01*
X160627000Y-116920136D01*
X160627000Y-114670153D01*
X179670860Y-114670153D01*
X181500000Y-116499293D01*
X183329140Y-114670153D01*
X183076355Y-114329483D01*
X182125741Y-113891459D01*
X181079864Y-113850561D01*
X180097949Y-114213017D01*
X179923645Y-114329483D01*
X179670860Y-114670153D01*
X160627000Y-114670153D01*
X160627000Y-101339033D01*
X181600278Y-101339033D01*
X181621482Y-101445636D01*
X181849509Y-101940731D01*
X182249643Y-102310877D01*
X182760967Y-102499722D01*
X182979500Y-102421750D01*
X182979500Y-101120500D01*
X181678250Y-101120500D01*
X181600278Y-101339033D01*
X160627000Y-101339033D01*
X160627000Y-95606541D01*
X160748503Y-95728256D01*
X161164043Y-95900804D01*
X161613983Y-95901196D01*
X161774596Y-95834832D01*
X165779882Y-99840118D01*
X165935929Y-99944386D01*
X166120000Y-99981000D01*
X171017921Y-99981000D01*
X171113741Y-100076987D01*
X171363946Y-100180882D01*
X171634865Y-100181118D01*
X171885252Y-100077661D01*
X172076987Y-99886259D01*
X172180882Y-99636054D01*
X172181118Y-99365135D01*
X172077661Y-99114748D01*
X172010585Y-99047555D01*
X172076987Y-98981268D01*
X172180882Y-98731063D01*
X172181118Y-98460144D01*
X172077661Y-98209757D01*
X171886259Y-98018022D01*
X171636054Y-97914127D01*
X171365135Y-97913891D01*
X171114748Y-98017348D01*
X171017919Y-98114009D01*
X166470691Y-98114009D01*
X164227501Y-95870819D01*
X164569823Y-95729375D01*
X164888256Y-95411497D01*
X165060804Y-94995957D01*
X165060805Y-94993983D01*
X165338804Y-94993983D01*
X165510625Y-95409823D01*
X165828503Y-95728256D01*
X166244043Y-95900804D01*
X166693983Y-95901196D01*
X167109823Y-95729375D01*
X167428256Y-95411497D01*
X167600804Y-94995957D01*
X167600805Y-94993983D01*
X167878804Y-94993983D01*
X168050625Y-95409823D01*
X168368503Y-95728256D01*
X168784043Y-95900804D01*
X169233983Y-95901196D01*
X169649823Y-95729375D01*
X169968256Y-95411497D01*
X170140804Y-94995957D01*
X170140805Y-94993983D01*
X170418804Y-94993983D01*
X170590625Y-95409823D01*
X170908503Y-95728256D01*
X171324043Y-95900804D01*
X171773983Y-95901196D01*
X172189823Y-95729375D01*
X172508256Y-95411497D01*
X172680804Y-94995957D01*
X172681196Y-94546017D01*
X172509375Y-94130177D01*
X172191497Y-93811744D01*
X171775957Y-93639196D01*
X171326017Y-93638804D01*
X170910177Y-93810625D01*
X170591744Y-94128503D01*
X170419196Y-94544043D01*
X170418804Y-94993983D01*
X170140805Y-94993983D01*
X170141196Y-94546017D01*
X169969375Y-94130177D01*
X169651497Y-93811744D01*
X169235957Y-93639196D01*
X168786017Y-93638804D01*
X168370177Y-93810625D01*
X168051744Y-94128503D01*
X167879196Y-94544043D01*
X167878804Y-94993983D01*
X167600805Y-94993983D01*
X167601196Y-94546017D01*
X167429375Y-94130177D01*
X167111497Y-93811744D01*
X166695957Y-93639196D01*
X166246017Y-93638804D01*
X165830177Y-93810625D01*
X165511744Y-94128503D01*
X165339196Y-94544043D01*
X165338804Y-94993983D01*
X165060805Y-94993983D01*
X165061196Y-94546017D01*
X164889375Y-94130177D01*
X164571497Y-93811744D01*
X164155957Y-93639196D01*
X163706017Y-93638804D01*
X163290177Y-93810625D01*
X162981000Y-94119263D01*
X162981000Y-93340000D01*
X162944386Y-93155929D01*
X162840118Y-92999882D01*
X162818643Y-92978407D01*
X163182300Y-92978407D01*
X163252595Y-93163218D01*
X163661287Y-93351412D01*
X164110887Y-93368881D01*
X164532949Y-93212966D01*
X164607405Y-93163218D01*
X164677700Y-92978407D01*
X163930000Y-92230707D01*
X163182300Y-92978407D01*
X162818643Y-92978407D01*
X162454902Y-92614666D01*
X162520804Y-92455957D01*
X162520843Y-92410887D01*
X162791119Y-92410887D01*
X162947034Y-92832949D01*
X162996782Y-92907405D01*
X163181593Y-92977700D01*
X163929293Y-92230000D01*
X163930707Y-92230000D01*
X164678407Y-92977700D01*
X164863218Y-92907405D01*
X165051412Y-92498713D01*
X165053149Y-92453983D01*
X165338804Y-92453983D01*
X165510625Y-92869823D01*
X165828503Y-93188256D01*
X166244043Y-93360804D01*
X166693983Y-93361196D01*
X167109823Y-93189375D01*
X167321159Y-92978407D01*
X168262300Y-92978407D01*
X168332595Y-93163218D01*
X168741287Y-93351412D01*
X169190887Y-93368881D01*
X169612949Y-93212966D01*
X169687405Y-93163218D01*
X169757700Y-92978407D01*
X169010000Y-92230707D01*
X168262300Y-92978407D01*
X167321159Y-92978407D01*
X167428256Y-92871497D01*
X167600804Y-92455957D01*
X167600843Y-92410887D01*
X167871119Y-92410887D01*
X168027034Y-92832949D01*
X168076782Y-92907405D01*
X168261593Y-92977700D01*
X169009293Y-92230000D01*
X169010707Y-92230000D01*
X169758407Y-92977700D01*
X169943218Y-92907405D01*
X170131412Y-92498713D01*
X170133149Y-92453983D01*
X170418804Y-92453983D01*
X170590625Y-92869823D01*
X170908503Y-93188256D01*
X171324043Y-93360804D01*
X171773983Y-93361196D01*
X172189823Y-93189375D01*
X172508256Y-92871497D01*
X172680804Y-92455957D01*
X172680805Y-92453983D01*
X172958804Y-92453983D01*
X173130625Y-92869823D01*
X173448503Y-93188256D01*
X173864043Y-93360804D01*
X174089121Y-93361000D01*
X174088878Y-93638998D01*
X173866017Y-93638804D01*
X173450177Y-93810625D01*
X173131744Y-94128503D01*
X172959196Y-94544043D01*
X172958804Y-94993983D01*
X173130625Y-95409823D01*
X173448503Y-95728256D01*
X173864043Y-95900804D01*
X174313983Y-95901196D01*
X174729823Y-95729375D01*
X174941159Y-95518407D01*
X175882300Y-95518407D01*
X175952595Y-95703218D01*
X176361287Y-95891412D01*
X176810887Y-95908881D01*
X177232949Y-95752966D01*
X177307405Y-95703218D01*
X177377700Y-95518407D01*
X176630000Y-94770707D01*
X175882300Y-95518407D01*
X174941159Y-95518407D01*
X175048256Y-95411497D01*
X175220804Y-94995957D01*
X175221000Y-94770879D01*
X175498104Y-94771121D01*
X175491119Y-94950887D01*
X175647034Y-95372949D01*
X175696782Y-95447405D01*
X175881593Y-95517700D01*
X176629293Y-94770000D01*
X176630707Y-94770000D01*
X177378407Y-95517700D01*
X177563218Y-95447405D01*
X177617350Y-95329847D01*
X179670860Y-95329847D01*
X179923645Y-95670517D01*
X180874259Y-96108541D01*
X181920136Y-96149439D01*
X182902051Y-95786983D01*
X183076355Y-95670517D01*
X183329140Y-95329847D01*
X181500000Y-93500707D01*
X179670860Y-95329847D01*
X177617350Y-95329847D01*
X177751412Y-95038713D01*
X177768881Y-94589113D01*
X177612966Y-94167051D01*
X177563218Y-94092595D01*
X177378407Y-94022300D01*
X176630707Y-94770000D01*
X176629293Y-94770000D01*
X176615151Y-94755858D01*
X176615858Y-94755151D01*
X176630000Y-94769293D01*
X177377700Y-94021593D01*
X177339110Y-93920136D01*
X178850561Y-93920136D01*
X179213017Y-94902051D01*
X179329483Y-95076355D01*
X179670153Y-95329140D01*
X181499293Y-93500000D01*
X179670153Y-91670860D01*
X179329483Y-91923645D01*
X178891459Y-92874259D01*
X178850561Y-93920136D01*
X177339110Y-93920136D01*
X177307405Y-93836782D01*
X176898713Y-93648588D01*
X176630880Y-93638181D01*
X176631122Y-93361002D01*
X176853983Y-93361196D01*
X177269823Y-93189375D01*
X177588256Y-92871497D01*
X177760804Y-92455957D01*
X177761196Y-92006017D01*
X177589375Y-91590177D01*
X177271497Y-91271744D01*
X176855957Y-91099196D01*
X176406017Y-91098804D01*
X175990177Y-91270625D01*
X175671744Y-91588503D01*
X175499196Y-92004043D01*
X175499000Y-92229121D01*
X175221002Y-92228878D01*
X175221196Y-92006017D01*
X175049375Y-91590177D01*
X174731497Y-91271744D01*
X174315957Y-91099196D01*
X173866017Y-91098804D01*
X173450177Y-91270625D01*
X173131744Y-91588503D01*
X172959196Y-92004043D01*
X172958804Y-92453983D01*
X172680805Y-92453983D01*
X172681196Y-92006017D01*
X172509375Y-91590177D01*
X172191497Y-91271744D01*
X171775957Y-91099196D01*
X171326017Y-91098804D01*
X170910177Y-91270625D01*
X170591744Y-91588503D01*
X170419196Y-92004043D01*
X170418804Y-92453983D01*
X170133149Y-92453983D01*
X170148881Y-92049113D01*
X169992966Y-91627051D01*
X169943218Y-91552595D01*
X169758407Y-91482300D01*
X169010707Y-92230000D01*
X169009293Y-92230000D01*
X168261593Y-91482300D01*
X168076782Y-91552595D01*
X167888588Y-91961287D01*
X167871119Y-92410887D01*
X167600843Y-92410887D01*
X167601196Y-92006017D01*
X167429375Y-91590177D01*
X167320981Y-91481593D01*
X168262300Y-91481593D01*
X169010000Y-92229293D01*
X169757700Y-91481593D01*
X169687405Y-91296782D01*
X169278713Y-91108588D01*
X168829113Y-91091119D01*
X168407051Y-91247034D01*
X168332595Y-91296782D01*
X168262300Y-91481593D01*
X167320981Y-91481593D01*
X167111497Y-91271744D01*
X166695957Y-91099196D01*
X166246017Y-91098804D01*
X165830177Y-91270625D01*
X165511744Y-91588503D01*
X165339196Y-92004043D01*
X165338804Y-92453983D01*
X165053149Y-92453983D01*
X165068881Y-92049113D01*
X164912966Y-91627051D01*
X164863218Y-91552595D01*
X164678407Y-91482300D01*
X163930707Y-92230000D01*
X163929293Y-92230000D01*
X163181593Y-91482300D01*
X162996782Y-91552595D01*
X162808588Y-91961287D01*
X162791119Y-92410887D01*
X162520843Y-92410887D01*
X162521196Y-92006017D01*
X162349375Y-91590177D01*
X162240981Y-91481593D01*
X163182300Y-91481593D01*
X163930000Y-92229293D01*
X164677700Y-91481593D01*
X164607405Y-91296782D01*
X164198713Y-91108588D01*
X163749113Y-91091119D01*
X163327051Y-91247034D01*
X163252595Y-91296782D01*
X163182300Y-91481593D01*
X162240981Y-91481593D01*
X162031497Y-91271744D01*
X161615957Y-91099196D01*
X161166017Y-91098804D01*
X160750177Y-91270625D01*
X160627000Y-91393587D01*
X160627000Y-91302606D01*
X161302606Y-90627000D01*
X180947394Y-90627000D01*
X181174662Y-90854268D01*
X181174662Y-90854268D01*
G37*
X181174662Y-90854268D02*
X181079864Y-90850561D01*
X180097949Y-91213017D01*
X179923645Y-91329483D01*
X179670860Y-91670153D01*
X181500000Y-93499293D01*
X181514143Y-93485151D01*
X181514850Y-93485858D01*
X181500707Y-93500000D01*
X183329847Y-95329140D01*
X183670517Y-95076355D01*
X184108541Y-94125741D01*
X184121245Y-93800851D01*
X184373000Y-94052606D01*
X184373000Y-97503075D01*
X184357897Y-97422810D01*
X184274454Y-97293135D01*
X184147134Y-97206141D01*
X183996000Y-97175536D01*
X181964000Y-97175536D01*
X181822810Y-97202103D01*
X181693135Y-97285546D01*
X181606141Y-97412866D01*
X181575536Y-97564000D01*
X181575536Y-98099000D01*
X178311940Y-98099000D01*
X178136259Y-97923013D01*
X177886054Y-97819118D01*
X177615135Y-97818882D01*
X177364748Y-97922339D01*
X177173013Y-98113741D01*
X177069118Y-98363946D01*
X177068882Y-98634865D01*
X177172339Y-98885252D01*
X177363741Y-99076987D01*
X177613946Y-99180882D01*
X177884865Y-99181118D01*
X178135252Y-99077661D01*
X178151942Y-99061000D01*
X181575536Y-99061000D01*
X181575536Y-99596000D01*
X181602103Y-99737190D01*
X181685546Y-99866865D01*
X181812866Y-99953859D01*
X181964000Y-99984464D01*
X182189818Y-99984464D01*
X181849509Y-100299269D01*
X181621482Y-100794364D01*
X181600278Y-100900967D01*
X181678250Y-101119500D01*
X182979500Y-101119500D01*
X182979500Y-101099500D01*
X182980500Y-101099500D01*
X182980500Y-101119500D01*
X183000500Y-101119500D01*
X183000500Y-101120500D01*
X182980500Y-101120500D01*
X182980500Y-102421750D01*
X183199033Y-102499722D01*
X183710357Y-102310877D01*
X184110491Y-101940731D01*
X184338518Y-101445636D01*
X184359722Y-101339033D01*
X184281751Y-101120502D01*
X184373000Y-101120502D01*
X184373000Y-104809448D01*
X184248734Y-104724541D01*
X184097600Y-104693936D01*
X181862400Y-104693936D01*
X181721210Y-104720503D01*
X181591535Y-104803946D01*
X181504541Y-104931266D01*
X181473936Y-105082400D01*
X181473936Y-107317600D01*
X181500503Y-107458790D01*
X181583946Y-107588465D01*
X181711266Y-107675459D01*
X181862400Y-107706064D01*
X184097600Y-107706064D01*
X184238790Y-107679497D01*
X184368465Y-107596054D01*
X184373000Y-107589417D01*
X184373000Y-109889448D01*
X184248734Y-109804541D01*
X184097600Y-109773936D01*
X181862400Y-109773936D01*
X181721210Y-109800503D01*
X181591535Y-109883946D01*
X181504541Y-110011266D01*
X181473936Y-110162400D01*
X181473936Y-112397600D01*
X181500503Y-112538790D01*
X181583946Y-112668465D01*
X181711266Y-112755459D01*
X181862400Y-112786064D01*
X184097600Y-112786064D01*
X184238790Y-112759497D01*
X184368465Y-112676054D01*
X184373000Y-112669417D01*
X184373000Y-115447394D01*
X184039193Y-115781201D01*
X183786983Y-115097949D01*
X183670517Y-114923645D01*
X183329847Y-114670860D01*
X181500707Y-116500000D01*
X181514850Y-116514143D01*
X181514143Y-116514850D01*
X181500000Y-116500707D01*
X179670860Y-118329847D01*
X179923645Y-118670517D01*
X180763081Y-119057313D01*
X180447394Y-119373000D01*
X161302606Y-119373000D01*
X160627000Y-118697394D01*
X160627000Y-116920136D01*
X178850561Y-116920136D01*
X179213017Y-117902051D01*
X179329483Y-118076355D01*
X179670153Y-118329140D01*
X181499293Y-116500000D01*
X179670153Y-114670860D01*
X179329483Y-114923645D01*
X178891459Y-115874259D01*
X178850561Y-116920136D01*
X160627000Y-116920136D01*
X160627000Y-114670153D01*
X179670860Y-114670153D01*
X181500000Y-116499293D01*
X183329140Y-114670153D01*
X183076355Y-114329483D01*
X182125741Y-113891459D01*
X181079864Y-113850561D01*
X180097949Y-114213017D01*
X179923645Y-114329483D01*
X179670860Y-114670153D01*
X160627000Y-114670153D01*
X160627000Y-101339033D01*
X181600278Y-101339033D01*
X181621482Y-101445636D01*
X181849509Y-101940731D01*
X182249643Y-102310877D01*
X182760967Y-102499722D01*
X182979500Y-102421750D01*
X182979500Y-101120500D01*
X181678250Y-101120500D01*
X181600278Y-101339033D01*
X160627000Y-101339033D01*
X160627000Y-95606541D01*
X160748503Y-95728256D01*
X161164043Y-95900804D01*
X161613983Y-95901196D01*
X161774596Y-95834832D01*
X165779882Y-99840118D01*
X165935929Y-99944386D01*
X166120000Y-99981000D01*
X171017921Y-99981000D01*
X171113741Y-100076987D01*
X171363946Y-100180882D01*
X171634865Y-100181118D01*
X171885252Y-100077661D01*
X172076987Y-99886259D01*
X172180882Y-99636054D01*
X172181118Y-99365135D01*
X172077661Y-99114748D01*
X172010585Y-99047555D01*
X172076987Y-98981268D01*
X172180882Y-98731063D01*
X172181118Y-98460144D01*
X172077661Y-98209757D01*
X171886259Y-98018022D01*
X171636054Y-97914127D01*
X171365135Y-97913891D01*
X171114748Y-98017348D01*
X171017919Y-98114009D01*
X166470691Y-98114009D01*
X164227501Y-95870819D01*
X164569823Y-95729375D01*
X164888256Y-95411497D01*
X165060804Y-94995957D01*
X165060805Y-94993983D01*
X165338804Y-94993983D01*
X165510625Y-95409823D01*
X165828503Y-95728256D01*
X166244043Y-95900804D01*
X166693983Y-95901196D01*
X167109823Y-95729375D01*
X167428256Y-95411497D01*
X167600804Y-94995957D01*
X167600805Y-94993983D01*
X167878804Y-94993983D01*
X168050625Y-95409823D01*
X168368503Y-95728256D01*
X168784043Y-95900804D01*
X169233983Y-95901196D01*
X169649823Y-95729375D01*
X169968256Y-95411497D01*
X170140804Y-94995957D01*
X170140805Y-94993983D01*
X170418804Y-94993983D01*
X170590625Y-95409823D01*
X170908503Y-95728256D01*
X171324043Y-95900804D01*
X171773983Y-95901196D01*
X172189823Y-95729375D01*
X172508256Y-95411497D01*
X172680804Y-94995957D01*
X172681196Y-94546017D01*
X172509375Y-94130177D01*
X172191497Y-93811744D01*
X171775957Y-93639196D01*
X171326017Y-93638804D01*
X170910177Y-93810625D01*
X170591744Y-94128503D01*
X170419196Y-94544043D01*
X170418804Y-94993983D01*
X170140805Y-94993983D01*
X170141196Y-94546017D01*
X169969375Y-94130177D01*
X169651497Y-93811744D01*
X169235957Y-93639196D01*
X168786017Y-93638804D01*
X168370177Y-93810625D01*
X168051744Y-94128503D01*
X167879196Y-94544043D01*
X167878804Y-94993983D01*
X167600805Y-94993983D01*
X167601196Y-94546017D01*
X167429375Y-94130177D01*
X167111497Y-93811744D01*
X166695957Y-93639196D01*
X166246017Y-93638804D01*
X165830177Y-93810625D01*
X165511744Y-94128503D01*
X165339196Y-94544043D01*
X165338804Y-94993983D01*
X165060805Y-94993983D01*
X165061196Y-94546017D01*
X164889375Y-94130177D01*
X164571497Y-93811744D01*
X164155957Y-93639196D01*
X163706017Y-93638804D01*
X163290177Y-93810625D01*
X162981000Y-94119263D01*
X162981000Y-93340000D01*
X162944386Y-93155929D01*
X162840118Y-92999882D01*
X162818643Y-92978407D01*
X163182300Y-92978407D01*
X163252595Y-93163218D01*
X163661287Y-93351412D01*
X164110887Y-93368881D01*
X164532949Y-93212966D01*
X164607405Y-93163218D01*
X164677700Y-92978407D01*
X163930000Y-92230707D01*
X163182300Y-92978407D01*
X162818643Y-92978407D01*
X162454902Y-92614666D01*
X162520804Y-92455957D01*
X162520843Y-92410887D01*
X162791119Y-92410887D01*
X162947034Y-92832949D01*
X162996782Y-92907405D01*
X163181593Y-92977700D01*
X163929293Y-92230000D01*
X163930707Y-92230000D01*
X164678407Y-92977700D01*
X164863218Y-92907405D01*
X165051412Y-92498713D01*
X165053149Y-92453983D01*
X165338804Y-92453983D01*
X165510625Y-92869823D01*
X165828503Y-93188256D01*
X166244043Y-93360804D01*
X166693983Y-93361196D01*
X167109823Y-93189375D01*
X167321159Y-92978407D01*
X168262300Y-92978407D01*
X168332595Y-93163218D01*
X168741287Y-93351412D01*
X169190887Y-93368881D01*
X169612949Y-93212966D01*
X169687405Y-93163218D01*
X169757700Y-92978407D01*
X169010000Y-92230707D01*
X168262300Y-92978407D01*
X167321159Y-92978407D01*
X167428256Y-92871497D01*
X167600804Y-92455957D01*
X167600843Y-92410887D01*
X167871119Y-92410887D01*
X168027034Y-92832949D01*
X168076782Y-92907405D01*
X168261593Y-92977700D01*
X169009293Y-92230000D01*
X169010707Y-92230000D01*
X169758407Y-92977700D01*
X169943218Y-92907405D01*
X170131412Y-92498713D01*
X170133149Y-92453983D01*
X170418804Y-92453983D01*
X170590625Y-92869823D01*
X170908503Y-93188256D01*
X171324043Y-93360804D01*
X171773983Y-93361196D01*
X172189823Y-93189375D01*
X172508256Y-92871497D01*
X172680804Y-92455957D01*
X172680805Y-92453983D01*
X172958804Y-92453983D01*
X173130625Y-92869823D01*
X173448503Y-93188256D01*
X173864043Y-93360804D01*
X174089121Y-93361000D01*
X174088878Y-93638998D01*
X173866017Y-93638804D01*
X173450177Y-93810625D01*
X173131744Y-94128503D01*
X172959196Y-94544043D01*
X172958804Y-94993983D01*
X173130625Y-95409823D01*
X173448503Y-95728256D01*
X173864043Y-95900804D01*
X174313983Y-95901196D01*
X174729823Y-95729375D01*
X174941159Y-95518407D01*
X175882300Y-95518407D01*
X175952595Y-95703218D01*
X176361287Y-95891412D01*
X176810887Y-95908881D01*
X177232949Y-95752966D01*
X177307405Y-95703218D01*
X177377700Y-95518407D01*
X176630000Y-94770707D01*
X175882300Y-95518407D01*
X174941159Y-95518407D01*
X175048256Y-95411497D01*
X175220804Y-94995957D01*
X175221000Y-94770879D01*
X175498104Y-94771121D01*
X175491119Y-94950887D01*
X175647034Y-95372949D01*
X175696782Y-95447405D01*
X175881593Y-95517700D01*
X176629293Y-94770000D01*
X176630707Y-94770000D01*
X177378407Y-95517700D01*
X177563218Y-95447405D01*
X177617350Y-95329847D01*
X179670860Y-95329847D01*
X179923645Y-95670517D01*
X180874259Y-96108541D01*
X181920136Y-96149439D01*
X182902051Y-95786983D01*
X183076355Y-95670517D01*
X183329140Y-95329847D01*
X181500000Y-93500707D01*
X179670860Y-95329847D01*
X177617350Y-95329847D01*
X177751412Y-95038713D01*
X177768881Y-94589113D01*
X177612966Y-94167051D01*
X177563218Y-94092595D01*
X177378407Y-94022300D01*
X176630707Y-94770000D01*
X176629293Y-94770000D01*
X176615151Y-94755858D01*
X176615858Y-94755151D01*
X176630000Y-94769293D01*
X177377700Y-94021593D01*
X177339110Y-93920136D01*
X178850561Y-93920136D01*
X179213017Y-94902051D01*
X179329483Y-95076355D01*
X179670153Y-95329140D01*
X181499293Y-93500000D01*
X179670153Y-91670860D01*
X179329483Y-91923645D01*
X178891459Y-92874259D01*
X178850561Y-93920136D01*
X177339110Y-93920136D01*
X177307405Y-93836782D01*
X176898713Y-93648588D01*
X176630880Y-93638181D01*
X176631122Y-93361002D01*
X176853983Y-93361196D01*
X177269823Y-93189375D01*
X177588256Y-92871497D01*
X177760804Y-92455957D01*
X177761196Y-92006017D01*
X177589375Y-91590177D01*
X177271497Y-91271744D01*
X176855957Y-91099196D01*
X176406017Y-91098804D01*
X175990177Y-91270625D01*
X175671744Y-91588503D01*
X175499196Y-92004043D01*
X175499000Y-92229121D01*
X175221002Y-92228878D01*
X175221196Y-92006017D01*
X175049375Y-91590177D01*
X174731497Y-91271744D01*
X174315957Y-91099196D01*
X173866017Y-91098804D01*
X173450177Y-91270625D01*
X173131744Y-91588503D01*
X172959196Y-92004043D01*
X172958804Y-92453983D01*
X172680805Y-92453983D01*
X172681196Y-92006017D01*
X172509375Y-91590177D01*
X172191497Y-91271744D01*
X171775957Y-91099196D01*
X171326017Y-91098804D01*
X170910177Y-91270625D01*
X170591744Y-91588503D01*
X170419196Y-92004043D01*
X170418804Y-92453983D01*
X170133149Y-92453983D01*
X170148881Y-92049113D01*
X169992966Y-91627051D01*
X169943218Y-91552595D01*
X169758407Y-91482300D01*
X169010707Y-92230000D01*
X169009293Y-92230000D01*
X168261593Y-91482300D01*
X168076782Y-91552595D01*
X167888588Y-91961287D01*
X167871119Y-92410887D01*
X167600843Y-92410887D01*
X167601196Y-92006017D01*
X167429375Y-91590177D01*
X167320981Y-91481593D01*
X168262300Y-91481593D01*
X169010000Y-92229293D01*
X169757700Y-91481593D01*
X169687405Y-91296782D01*
X169278713Y-91108588D01*
X168829113Y-91091119D01*
X168407051Y-91247034D01*
X168332595Y-91296782D01*
X168262300Y-91481593D01*
X167320981Y-91481593D01*
X167111497Y-91271744D01*
X166695957Y-91099196D01*
X166246017Y-91098804D01*
X165830177Y-91270625D01*
X165511744Y-91588503D01*
X165339196Y-92004043D01*
X165338804Y-92453983D01*
X165053149Y-92453983D01*
X165068881Y-92049113D01*
X164912966Y-91627051D01*
X164863218Y-91552595D01*
X164678407Y-91482300D01*
X163930707Y-92230000D01*
X163929293Y-92230000D01*
X163181593Y-91482300D01*
X162996782Y-91552595D01*
X162808588Y-91961287D01*
X162791119Y-92410887D01*
X162520843Y-92410887D01*
X162521196Y-92006017D01*
X162349375Y-91590177D01*
X162240981Y-91481593D01*
X163182300Y-91481593D01*
X163930000Y-92229293D01*
X164677700Y-91481593D01*
X164607405Y-91296782D01*
X164198713Y-91108588D01*
X163749113Y-91091119D01*
X163327051Y-91247034D01*
X163252595Y-91296782D01*
X163182300Y-91481593D01*
X162240981Y-91481593D01*
X162031497Y-91271744D01*
X161615957Y-91099196D01*
X161166017Y-91098804D01*
X160750177Y-91270625D01*
X160627000Y-91393587D01*
X160627000Y-91302606D01*
X161302606Y-90627000D01*
X180947394Y-90627000D01*
X181174662Y-90854268D01*
M02*
