M48
METRIC,TZ
T1C0.400
T2C0.500
T3C0.550
T4C1.016
T5C3.000
T6C1.780
%
G90
G05
T1
X002000Y018500
X007000Y014500
X007500Y021500
X007500Y019500
X007500Y001500
X008000Y009000
X009500Y017500
X012000Y005500
X012500Y012500
X012500Y004000
X013500Y022000
X013500Y016500
X013500Y013500
X015000Y010250
X015500Y004500
X015722Y011028
X016750Y013750
X016750Y011750
X017750Y019250
X018250Y015250
X019744Y016744
X020500Y012250
X020500Y001500
X021000Y006500
X021750Y013500
X022750Y010000
X023000Y020500
X024250Y010000
X025500Y021500
X025500Y019500
X025500Y009000
X025500Y001250
X027250Y013500
X027500Y007000
X028500Y022250
X028500Y009000
X028600Y011500
X029000Y019500
X029000Y014250
X029500Y009000
X030000Y001250
X030750Y021750
X031000Y019500
X031000Y014250
X032000Y022500
X033000Y019500
X033000Y014250
X034500Y013000
X034500Y007100
X035000Y019500
X037000Y021250
X037000Y019500
X037750Y021250
X039000Y019000
X039250Y007750
X043000Y006750
X046000Y006750
X046500Y019000
X047500Y019000
X047500Y018000
X049000Y006750
X050500Y012500
X051500Y021405
X051500Y020500
X053500Y006750
X054500Y012500
X057750Y021500
T4
X008370Y027770
X008370Y025230
X010910Y027770
X010910Y025230
X013450Y027770
X013450Y025230
X015990Y027770
X015990Y025230
X018530Y027770
X018530Y025230
X021070Y027770
X021070Y025230
X023610Y027770
X023610Y025230
X026150Y027770
X026150Y025230
X028690Y027770
X028690Y025230
X031230Y027770
X031230Y025230
X033770Y027770
X033770Y025230
X036310Y027770
X036310Y025230
X038850Y027770
X038850Y025230
X041390Y027770
X041390Y025230
X043930Y027770
X043930Y025230
X046470Y027770
X046470Y025230
X049010Y027770
X049010Y025230
X051550Y027770
X051550Y025230
X054090Y027770
X054090Y025230
X056630Y027770
X056630Y025230
X062980Y021420
X062980Y018880
X062980Y013800
X062980Y008720
T5
X003500Y026500
X003500Y003500
X061500Y026500
X061500Y003500
T6
X009640Y026500
X037580Y026500
X055360Y026500
T2
X031499Y001260G85X031499Y001910
G05
X038499Y001260G85X038499Y001910
G05
T3
X032349Y004285G85X032649Y004285
G05
X037349Y004285G85X037649Y004285
G05
T0
M30
