G04 #@! TF.FileFunction,Copper,L2,Bot,Signal*
%FSLAX46Y46*%
G04 Gerber Fmt 4.6, Leading zero omitted, Abs format (unit mm)*
G04 Created by KiCad (PCBNEW 4.0.0-stable) date Saturday, April 30, 2016 'AMt' 05:13:45 AM*
%MOMM*%
G01*
G04 APERTURE LIST*
%ADD10C,0.100000*%
%ADD11C,0.152400*%
%ADD12O,1.250000X0.950000*%
%ADD13O,1.000000X1.550000*%
%ADD14C,1.500000*%
%ADD15C,6.000000*%
%ADD16R,2.032000X2.032000*%
%ADD17O,2.032000X2.032000*%
%ADD18R,2.235200X2.235200*%
%ADD19C,0.600000*%
%ADD20C,0.200000*%
%ADD21C,0.400000*%
%ADD22C,0.600000*%
%ADD23C,0.254000*%
G04 APERTURE END LIST*
D10*
D11*
X22433333Y1999533D02*
X22666667Y2332867D01*
X22833333Y1999533D02*
X22833333Y2699533D01*
X22566667Y2699533D01*
X22500000Y2666200D01*
X22466667Y2632867D01*
X22433333Y2566200D01*
X22433333Y2466200D01*
X22466667Y2399533D01*
X22500000Y2366200D01*
X22566667Y2332867D01*
X22833333Y2332867D01*
X22133333Y1999533D02*
X22133333Y2699533D01*
X21866667Y2699533D01*
X21800000Y2666200D01*
X21766667Y2632867D01*
X21733333Y2566200D01*
X21733333Y2466200D01*
X21766667Y2399533D01*
X21800000Y2366200D01*
X21866667Y2332867D01*
X22133333Y2332867D01*
X21433333Y1999533D02*
X21433333Y2466200D01*
X21433333Y2699533D02*
X21466667Y2666200D01*
X21433333Y2632867D01*
X21400000Y2666200D01*
X21433333Y2699533D01*
X21433333Y2632867D01*
X20566667Y1999533D02*
X20566667Y2699533D01*
X20400001Y2699533D01*
X20300001Y2666200D01*
X20233334Y2599533D01*
X20200001Y2532867D01*
X20166667Y2399533D01*
X20166667Y2299533D01*
X20200001Y2166200D01*
X20233334Y2099533D01*
X20300001Y2032867D01*
X20400001Y1999533D01*
X20566667Y1999533D01*
X19600001Y2032867D02*
X19666667Y1999533D01*
X19800001Y1999533D01*
X19866667Y2032867D01*
X19900001Y2099533D01*
X19900001Y2366200D01*
X19866667Y2432867D01*
X19800001Y2466200D01*
X19666667Y2466200D01*
X19600001Y2432867D01*
X19566667Y2366200D01*
X19566667Y2299533D01*
X19900001Y2232867D01*
X19266667Y1999533D02*
X19266667Y2699533D01*
X19266667Y2432867D02*
X19200001Y2466200D01*
X19066667Y2466200D01*
X19000001Y2432867D01*
X18966667Y2399533D01*
X18933334Y2332867D01*
X18933334Y2132867D01*
X18966667Y2066200D01*
X19000001Y2032867D01*
X19066667Y1999533D01*
X19200001Y1999533D01*
X19266667Y2032867D01*
X18333334Y2466200D02*
X18333334Y1999533D01*
X18633334Y2466200D02*
X18633334Y2099533D01*
X18600001Y2032867D01*
X18533334Y1999533D01*
X18433334Y1999533D01*
X18366668Y2032867D01*
X18333334Y2066200D01*
X17700001Y2466200D02*
X17700001Y1899533D01*
X17733335Y1832867D01*
X17766668Y1799533D01*
X17833335Y1766200D01*
X17933335Y1766200D01*
X18000001Y1799533D01*
X17700001Y2032867D02*
X17766668Y1999533D01*
X17900001Y1999533D01*
X17966668Y2032867D01*
X18000001Y2066200D01*
X18033335Y2132867D01*
X18033335Y2332867D01*
X18000001Y2399533D01*
X17966668Y2432867D01*
X17900001Y2466200D01*
X17766668Y2466200D01*
X17700001Y2432867D01*
X17066668Y2466200D02*
X17066668Y1899533D01*
X17100002Y1832867D01*
X17133335Y1799533D01*
X17200002Y1766200D01*
X17300002Y1766200D01*
X17366668Y1799533D01*
X17066668Y2032867D02*
X17133335Y1999533D01*
X17266668Y1999533D01*
X17333335Y2032867D01*
X17366668Y2066200D01*
X17400002Y2132867D01*
X17400002Y2332867D01*
X17366668Y2399533D01*
X17333335Y2432867D01*
X17266668Y2466200D01*
X17133335Y2466200D01*
X17066668Y2432867D01*
X16466669Y2032867D02*
X16533335Y1999533D01*
X16666669Y1999533D01*
X16733335Y2032867D01*
X16766669Y2099533D01*
X16766669Y2366200D01*
X16733335Y2432867D01*
X16666669Y2466200D01*
X16533335Y2466200D01*
X16466669Y2432867D01*
X16433335Y2366200D01*
X16433335Y2299533D01*
X16766669Y2232867D01*
X16133335Y1999533D02*
X16133335Y2466200D01*
X16133335Y2332867D02*
X16100002Y2399533D01*
X16066669Y2432867D01*
X16000002Y2466200D01*
X15933335Y2466200D01*
X15166669Y2266200D02*
X14633336Y2266200D01*
X13366669Y1999533D02*
X13600003Y2332867D01*
X13766669Y1999533D02*
X13766669Y2699533D01*
X13500003Y2699533D01*
X13433336Y2666200D01*
X13400003Y2632867D01*
X13366669Y2566200D01*
X13366669Y2466200D01*
X13400003Y2399533D01*
X13433336Y2366200D01*
X13500003Y2332867D01*
X13766669Y2332867D01*
X12800003Y2032867D02*
X12866669Y1999533D01*
X13000003Y1999533D01*
X13066669Y2032867D01*
X13100003Y2099533D01*
X13100003Y2366200D01*
X13066669Y2432867D01*
X13000003Y2466200D01*
X12866669Y2466200D01*
X12800003Y2432867D01*
X12766669Y2366200D01*
X12766669Y2299533D01*
X13100003Y2232867D01*
X12533336Y2466200D02*
X12366669Y1999533D01*
X12200003Y2466200D01*
X11433337Y2632867D02*
X11400003Y2666200D01*
X11333337Y2699533D01*
X11166670Y2699533D01*
X11100003Y2666200D01*
X11066670Y2632867D01*
X11033337Y2566200D01*
X11033337Y2499533D01*
X11066670Y2399533D01*
X11466670Y1999533D01*
X11033337Y1999533D01*
X10733336Y2066200D02*
X10700003Y2032867D01*
X10733336Y1999533D01*
X10766670Y2032867D01*
X10733336Y2066200D01*
X10733336Y1999533D01*
X10033337Y1999533D02*
X10433337Y1999533D01*
X10233337Y1999533D02*
X10233337Y2699533D01*
X10300003Y2599533D01*
X10366670Y2532867D01*
X10433337Y2499533D01*
X22833333Y867133D02*
X22833333Y1567133D01*
X22200000Y867133D02*
X22200000Y1233800D01*
X22233334Y1300467D01*
X22300000Y1333800D01*
X22433334Y1333800D01*
X22500000Y1300467D01*
X22200000Y900467D02*
X22266667Y867133D01*
X22433334Y867133D01*
X22500000Y900467D01*
X22533334Y967133D01*
X22533334Y1033800D01*
X22500000Y1100467D01*
X22433334Y1133800D01*
X22266667Y1133800D01*
X22200000Y1167133D01*
X21866667Y1333800D02*
X21866667Y867133D01*
X21866667Y1267133D02*
X21833334Y1300467D01*
X21766667Y1333800D01*
X21666667Y1333800D01*
X21600001Y1300467D01*
X21566667Y1233800D01*
X21566667Y867133D01*
X20700001Y867133D02*
X20700001Y1567133D01*
X20700001Y1233800D02*
X20300001Y1233800D01*
X20300001Y867133D02*
X20300001Y1567133D01*
X19666668Y867133D02*
X19666668Y1233800D01*
X19700002Y1300467D01*
X19766668Y1333800D01*
X19900002Y1333800D01*
X19966668Y1300467D01*
X19666668Y900467D02*
X19733335Y867133D01*
X19900002Y867133D01*
X19966668Y900467D01*
X20000002Y967133D01*
X20000002Y1033800D01*
X19966668Y1100467D01*
X19900002Y1133800D01*
X19733335Y1133800D01*
X19666668Y1167133D01*
X19333335Y867133D02*
X19333335Y1333800D01*
X19333335Y1200467D02*
X19300002Y1267133D01*
X19266669Y1300467D01*
X19200002Y1333800D01*
X19133335Y1333800D01*
X19000002Y1333800D02*
X18733336Y1333800D01*
X18900002Y1567133D02*
X18900002Y967133D01*
X18866669Y900467D01*
X18800002Y867133D01*
X18733336Y867133D01*
X18566669Y1333800D02*
X18433336Y867133D01*
X18300002Y1200467D01*
X18166669Y867133D01*
X18033336Y1333800D01*
X17766669Y867133D02*
X17766669Y1333800D01*
X17766669Y1567133D02*
X17800003Y1533800D01*
X17766669Y1500467D01*
X17733336Y1533800D01*
X17766669Y1567133D01*
X17766669Y1500467D01*
X17133336Y1333800D02*
X17133336Y767133D01*
X17166670Y700467D01*
X17200003Y667133D01*
X17266670Y633800D01*
X17366670Y633800D01*
X17433336Y667133D01*
X17133336Y900467D02*
X17200003Y867133D01*
X17333336Y867133D01*
X17400003Y900467D01*
X17433336Y933800D01*
X17466670Y1000467D01*
X17466670Y1200467D01*
X17433336Y1267133D01*
X17400003Y1300467D01*
X17333336Y1333800D01*
X17200003Y1333800D01*
X17133336Y1300467D01*
X16266670Y1133800D02*
X15733337Y1133800D01*
X14466670Y933800D02*
X14500004Y900467D01*
X14600004Y867133D01*
X14666670Y867133D01*
X14766670Y900467D01*
X14833337Y967133D01*
X14866670Y1033800D01*
X14900004Y1167133D01*
X14900004Y1267133D01*
X14866670Y1400467D01*
X14833337Y1467133D01*
X14766670Y1533800D01*
X14666670Y1567133D01*
X14600004Y1567133D01*
X14500004Y1533800D01*
X14466670Y1500467D01*
X13866670Y867133D02*
X13866670Y1233800D01*
X13900004Y1300467D01*
X13966670Y1333800D01*
X14100004Y1333800D01*
X14166670Y1300467D01*
X13866670Y900467D02*
X13933337Y867133D01*
X14100004Y867133D01*
X14166670Y900467D01*
X14200004Y967133D01*
X14200004Y1033800D01*
X14166670Y1100467D01*
X14100004Y1133800D01*
X13933337Y1133800D01*
X13866670Y1167133D01*
X13533337Y867133D02*
X13533337Y1333800D01*
X13533337Y1200467D02*
X13500004Y1267133D01*
X13466671Y1300467D01*
X13400004Y1333800D01*
X13333337Y1333800D01*
X13100004Y1333800D02*
X13100004Y867133D01*
X13100004Y1267133D02*
X13066671Y1300467D01*
X13000004Y1333800D01*
X12900004Y1333800D01*
X12833338Y1300467D01*
X12800004Y1233800D01*
X12800004Y867133D01*
X12200005Y900467D02*
X12266671Y867133D01*
X12400005Y867133D01*
X12466671Y900467D01*
X12500005Y967133D01*
X12500005Y1233800D01*
X12466671Y1300467D01*
X12400005Y1333800D01*
X12266671Y1333800D01*
X12200005Y1300467D01*
X12166671Y1233800D01*
X12166671Y1167133D01*
X12500005Y1100467D01*
X11566671Y1333800D02*
X11566671Y767133D01*
X11600005Y700467D01*
X11633338Y667133D01*
X11700005Y633800D01*
X11800005Y633800D01*
X11866671Y667133D01*
X11566671Y900467D02*
X11633338Y867133D01*
X11766671Y867133D01*
X11833338Y900467D01*
X11866671Y933800D01*
X11900005Y1000467D01*
X11900005Y1200467D01*
X11866671Y1267133D01*
X11833338Y1300467D01*
X11766671Y1333800D01*
X11633338Y1333800D01*
X11566671Y1300467D01*
X11233338Y867133D02*
X11233338Y1333800D01*
X11233338Y1567133D02*
X11266672Y1533800D01*
X11233338Y1500467D01*
X11200005Y1533800D01*
X11233338Y1567133D01*
X11233338Y1500467D01*
X10633339Y900467D02*
X10700005Y867133D01*
X10833339Y867133D01*
X10900005Y900467D01*
X10933339Y967133D01*
X10933339Y1233800D01*
X10900005Y1300467D01*
X10833339Y1333800D01*
X10700005Y1333800D01*
X10633339Y1300467D01*
X10600005Y1233800D01*
X10600005Y1167133D01*
X10933339Y1100467D01*
X9766672Y867133D02*
X9766672Y1567133D01*
X9533339Y1067133D01*
X9300006Y1567133D01*
X9300006Y867133D01*
X8700006Y900467D02*
X8766672Y867133D01*
X8900006Y867133D01*
X8966672Y900467D01*
X9000006Y967133D01*
X9000006Y1233800D01*
X8966672Y1300467D01*
X8900006Y1333800D01*
X8766672Y1333800D01*
X8700006Y1300467D01*
X8666672Y1233800D01*
X8666672Y1167133D01*
X9000006Y1100467D01*
X8266672Y867133D02*
X8333339Y900467D01*
X8366672Y967133D01*
X8366672Y1567133D01*
X7900005Y867133D02*
X7966672Y900467D01*
X8000005Y967133D01*
X8000005Y1567133D01*
X7533338Y867133D02*
X7600005Y900467D01*
X7633338Y933800D01*
X7666672Y1000467D01*
X7666672Y1200467D01*
X7633338Y1267133D01*
X7600005Y1300467D01*
X7533338Y1333800D01*
X7433338Y1333800D01*
X7366672Y1300467D01*
X7333338Y1267133D01*
X7300005Y1200467D01*
X7300005Y1000467D01*
X7333338Y933800D01*
X7366672Y900467D01*
X7433338Y867133D01*
X7533338Y867133D01*
X7000005Y1333800D02*
X7000005Y867133D01*
X7000005Y1267133D02*
X6966672Y1300467D01*
X6900005Y1333800D01*
X6800005Y1333800D01*
X6733339Y1300467D01*
X6700005Y1233800D01*
X6700005Y867133D01*
D12*
X32499100Y4285389D03*
X37499100Y4285389D03*
D13*
X31499100Y1585389D03*
X38499100Y1585389D03*
D14*
X8370000Y25230000D03*
X8370000Y27770000D03*
X10910000Y25230000D03*
X13450000Y25230000D03*
X15990000Y25230000D03*
X18530000Y25230000D03*
X21070000Y25230000D03*
X23610000Y25230000D03*
X26150000Y25230000D03*
X28690000Y25230000D03*
X31230000Y25230000D03*
X33770000Y25230000D03*
X36310000Y25230000D03*
X38850000Y25230000D03*
X10910000Y27770000D03*
X13450000Y27770000D03*
X15990000Y27770000D03*
X18530000Y27770000D03*
X21070000Y27770000D03*
X23610000Y27770000D03*
X26150000Y27770000D03*
X28690000Y27770000D03*
X31230000Y27770000D03*
X33770000Y27770000D03*
X36310000Y27770000D03*
X38850000Y27770000D03*
X41390000Y25230000D03*
X43930000Y25230000D03*
X46470000Y25230000D03*
X49010000Y25230000D03*
X51550000Y25230000D03*
X54090000Y25230000D03*
X56630000Y25230000D03*
X56630000Y27770000D03*
X54090000Y27770000D03*
X51550000Y27770000D03*
X49010000Y27770000D03*
X46470000Y27770000D03*
X43930000Y27770000D03*
X41390000Y27770000D03*
D15*
X3500000Y3500000D03*
D16*
X62980000Y21420000D03*
D17*
X62980000Y18880000D03*
D18*
X62980000Y13800000D03*
X62980000Y8720000D03*
D15*
X3500000Y26500000D03*
X61500000Y26500000D03*
X61500000Y3500000D03*
D19*
X14500000Y18200000D03*
X14500000Y14700000D03*
X56000000Y12200000D03*
X52720000Y10399000D03*
X11500000Y8600000D03*
X57000000Y6950000D03*
X55250000Y6950000D03*
X42750000Y6850000D03*
X51000000Y6900000D03*
X48250000Y6900000D03*
X21650000Y22000000D03*
X24200000Y18200000D03*
X17250000Y9250000D03*
X26000000Y10000000D03*
X24750000Y10000000D03*
X23500000Y10000000D03*
X21000000Y7500000D03*
X22250000Y7500000D03*
X23500000Y7500000D03*
X24750000Y7500000D03*
X26000000Y7500000D03*
X33500000Y7000000D03*
X37250000Y17000000D03*
X37250000Y12000000D03*
X36000000Y5750000D03*
X36000000Y7000000D03*
X36000000Y8250000D03*
X35000000Y9250000D03*
X34000000Y10250000D03*
X30500000Y12000000D03*
X26500000Y12000000D03*
X26500000Y13500000D03*
X19750000Y17250000D03*
X20250000Y12250000D03*
X9250000Y4000000D03*
X19500000Y4250000D03*
X49500000Y21750000D03*
X44250000Y20750000D03*
X6800000Y19600000D03*
X1200000Y11100000D03*
X8000000Y14700000D03*
X14000000Y22200000D03*
X12000000Y20700000D03*
X12500000Y12500000D03*
X21750000Y13500000D03*
X30000000Y1250000D03*
X25500000Y1250000D03*
X15500000Y4500000D03*
X12500000Y4000000D03*
X9500000Y17500000D03*
X29600000Y16250000D03*
X20250000Y15250000D03*
X22000000Y5000000D03*
X26500000Y5000000D03*
X26000000Y15250000D03*
X15000000Y10250000D03*
X13500000Y13500000D03*
X13500000Y16500000D03*
X37750000Y21250000D03*
X37000000Y21250000D03*
X28500000Y22250000D03*
X32000000Y22500000D03*
X51000000Y19750000D03*
X51000000Y21000000D03*
X25400000Y21350000D03*
X32000000Y21350000D03*
X20800000Y20700000D03*
X17750000Y19250000D03*
D20*
X14500000Y14700000D02*
X14500000Y18200000D01*
D21*
X32499100Y4285389D02*
X32499100Y5999100D01*
X32499100Y5999100D02*
X33500000Y7000000D01*
X42750000Y6850000D02*
X36150000Y6850000D01*
X36150000Y6850000D02*
X36000000Y7000000D01*
X35000000Y9250000D02*
X34000000Y10250000D01*
X36000000Y8250000D02*
X35000000Y9250000D01*
X36000000Y7000000D02*
X36000000Y8250000D01*
X36000000Y7000000D02*
X36000000Y5750000D01*
X33500000Y7000000D02*
X36000000Y7000000D01*
X24750000Y10000000D02*
X23500000Y10000000D01*
X26000000Y10000000D02*
X24750000Y10000000D01*
X22250000Y7500000D02*
X21000000Y7500000D01*
X23500000Y7500000D02*
X22250000Y7500000D01*
X24750000Y7500000D02*
X23500000Y7500000D01*
X26000000Y7500000D02*
X24750000Y7500000D01*
X26000000Y10000000D02*
X26000000Y7500000D01*
X26500000Y12000000D02*
X26500000Y10500000D01*
X26500000Y10500000D02*
X26000000Y10000000D01*
X38850000Y25230000D02*
X38850000Y21350000D01*
X38850000Y21350000D02*
X37000000Y19500000D01*
D22*
X38850000Y21350000D02*
X41150000Y21350000D01*
D21*
X13500000Y13500000D02*
X18500000Y13500000D01*
X26500000Y5000000D02*
X22000000Y5000000D01*
X22000000Y5000000D02*
X21750000Y5000000D01*
X21750000Y5000000D02*
X20250000Y5000000D01*
X20250000Y5000000D02*
X18750000Y6500000D01*
X18500000Y13500000D02*
X20250000Y15250000D01*
X20250000Y15250000D02*
X26000000Y15250000D01*
X15000000Y10250000D02*
X18750000Y6500000D01*
X13500000Y13500000D02*
X13500000Y16500000D01*
D22*
X12390000Y29250000D02*
X10910000Y27770000D01*
X34069554Y29250000D02*
X12390000Y29250000D01*
X35000000Y28319554D02*
X34069554Y29250000D01*
X37000000Y21250000D02*
X35000000Y23250000D01*
X35000000Y23250000D02*
X35000000Y28319554D01*
X37000000Y21250000D02*
X37750000Y21250000D01*
X8370000Y27770000D02*
X9119999Y28519999D01*
X9119999Y28519999D02*
X10160001Y28519999D01*
X10160001Y28519999D02*
X10910000Y27770000D01*
D20*
X28500000Y22250000D02*
X27750000Y23000000D01*
X27750000Y23000000D02*
X18220000Y23000000D01*
X18220000Y23000000D02*
X15990000Y25230000D01*
X29500000Y22500000D02*
X32000000Y22500000D01*
X28690000Y23310000D02*
X29500000Y22500000D01*
X28690000Y25230000D02*
X28690000Y23310000D01*
X51000000Y19750000D02*
X46870000Y19750000D01*
X46870000Y19750000D02*
X46120000Y20500000D01*
X46120000Y20500000D02*
X41390000Y25230000D01*
X51000000Y21000000D02*
X46676446Y21000000D01*
X46676446Y21000000D02*
X42500000Y25176446D01*
X42500000Y25176446D02*
X42500000Y26660000D01*
X42500000Y26660000D02*
X41390000Y27770000D01*
X32000000Y21350000D02*
X25400000Y21350000D01*
X19200000Y20700000D02*
X20800000Y20700000D01*
X17750000Y19250000D02*
X19200000Y20700000D01*
D23*
G36*
X11068928Y28892008D02*
X11028794Y28900246D01*
X10806999Y28901795D01*
X10751813Y28891267D01*
X10641541Y29001539D01*
X10592947Y29041454D01*
X10544744Y29081901D01*
X10541603Y29083628D01*
X10538838Y29085899D01*
X10483413Y29115618D01*
X10428275Y29145930D01*
X10424862Y29147013D01*
X10421706Y29148705D01*
X10361565Y29167092D01*
X10301589Y29186118D01*
X10298028Y29186517D01*
X10294605Y29187564D01*
X10232043Y29193919D01*
X10169509Y29200933D01*
X10162510Y29200982D01*
X10162378Y29200995D01*
X10162255Y29200983D01*
X10160001Y29200999D01*
X9119999Y29200999D01*
X9057427Y29194864D01*
X8994729Y29189378D01*
X8991288Y29188378D01*
X8987725Y29188029D01*
X8927518Y29169852D01*
X8867097Y29152298D01*
X8863917Y29150650D01*
X8860490Y29149615D01*
X8804971Y29120095D01*
X8749100Y29091134D01*
X8746300Y29088899D01*
X8743139Y29087218D01*
X8694398Y29047466D01*
X8645229Y29008215D01*
X8640245Y29003300D01*
X8640143Y29003217D01*
X8640065Y29003123D01*
X8638459Y29001539D01*
X8528928Y28892008D01*
X8488794Y28900246D01*
X8266999Y28901795D01*
X8049127Y28860233D01*
X7843477Y28777146D01*
X7657882Y28655696D01*
X7499412Y28500510D01*
X7374102Y28317500D01*
X7286725Y28113635D01*
X7240611Y27896681D01*
X7237514Y27674902D01*
X7277553Y27456746D01*
X7359203Y27250521D01*
X7479354Y27064083D01*
X7633430Y26904533D01*
X7815561Y26777949D01*
X8018811Y26689151D01*
X8235437Y26641523D01*
X8370758Y26638688D01*
X8367329Y26393131D01*
X8373216Y26361053D01*
X8266999Y26361795D01*
X8049127Y26320233D01*
X7843477Y26237146D01*
X7657882Y26115696D01*
X7499412Y25960510D01*
X7374102Y25777500D01*
X7286725Y25573635D01*
X7240611Y25356681D01*
X7237514Y25134902D01*
X7277553Y24916746D01*
X7359203Y24710521D01*
X7479354Y24524083D01*
X7633430Y24364533D01*
X7815561Y24237949D01*
X8018811Y24149151D01*
X8235437Y24101523D01*
X8457189Y24096877D01*
X8675620Y24135393D01*
X8882410Y24215601D01*
X9069682Y24334448D01*
X9230304Y24487406D01*
X9358157Y24668649D01*
X9448371Y24871274D01*
X9497511Y25087562D01*
X9499522Y25231609D01*
X9737982Y25226614D01*
X9778895Y25233828D01*
X9777514Y25134902D01*
X9817553Y24916746D01*
X9899203Y24710521D01*
X10019354Y24524083D01*
X10173430Y24364533D01*
X10355561Y24237949D01*
X10558811Y24149151D01*
X10775437Y24101523D01*
X10997189Y24096877D01*
X11215620Y24135393D01*
X11422410Y24215601D01*
X11609682Y24334448D01*
X11770304Y24487406D01*
X11898157Y24668649D01*
X11988371Y24871274D01*
X12037511Y25087562D01*
X12038171Y25134902D01*
X12317514Y25134902D01*
X12357553Y24916746D01*
X12439203Y24710521D01*
X12559354Y24524083D01*
X12713430Y24364533D01*
X12895561Y24237949D01*
X13098811Y24149151D01*
X13315437Y24101523D01*
X13537189Y24096877D01*
X13755620Y24135393D01*
X13962410Y24215601D01*
X14149682Y24334448D01*
X14310304Y24487406D01*
X14438157Y24668649D01*
X14528371Y24871274D01*
X14577511Y25087562D01*
X14578171Y25134902D01*
X14857514Y25134902D01*
X14897553Y24916746D01*
X14979203Y24710521D01*
X15099354Y24524083D01*
X15253430Y24364533D01*
X15435561Y24237949D01*
X15638811Y24149151D01*
X15855437Y24101523D01*
X16077189Y24096877D01*
X16295620Y24135393D01*
X16373978Y24165786D01*
X17879881Y22659882D01*
X17914202Y22631691D01*
X17948251Y22603120D01*
X17950471Y22601900D01*
X17952422Y22600297D01*
X17991543Y22579320D01*
X18030514Y22557896D01*
X18032925Y22557131D01*
X18035154Y22555936D01*
X18077628Y22542951D01*
X18119994Y22529511D01*
X18122509Y22529229D01*
X18124926Y22528490D01*
X18169116Y22524001D01*
X18213284Y22519047D01*
X18218227Y22519012D01*
X18218320Y22519003D01*
X18218406Y22519011D01*
X18220000Y22519000D01*
X27550764Y22519000D01*
X27818917Y22250847D01*
X27818105Y22192740D01*
X27842213Y22061383D01*
X27891377Y21937210D01*
X27959824Y21831000D01*
X25882122Y21831000D01*
X25836186Y21877258D01*
X25725467Y21951939D01*
X25602352Y22003692D01*
X25471528Y22030546D01*
X25337981Y22031479D01*
X25206795Y22006454D01*
X25082969Y21956425D01*
X24971218Y21883297D01*
X24875800Y21789856D01*
X24800348Y21679662D01*
X24747736Y21556910D01*
X24719970Y21426278D01*
X24718105Y21292740D01*
X24742213Y21161383D01*
X24791377Y21037210D01*
X24863722Y20924952D01*
X24956495Y20828883D01*
X25066160Y20752664D01*
X25188541Y20699197D01*
X25318977Y20670519D01*
X25452498Y20667722D01*
X25584020Y20690913D01*
X25708533Y20739208D01*
X25821294Y20810768D01*
X25882443Y20869000D01*
X31517754Y20869000D01*
X31556495Y20828883D01*
X31666160Y20752664D01*
X31788541Y20699197D01*
X31918977Y20670519D01*
X32052498Y20667722D01*
X32184020Y20690913D01*
X32308533Y20739208D01*
X32421294Y20810768D01*
X32518008Y20902868D01*
X32594991Y21011998D01*
X32649311Y21134003D01*
X32678899Y21264235D01*
X32681029Y21416775D01*
X32655089Y21547783D01*
X32604197Y21671257D01*
X32530291Y21782494D01*
X32436186Y21877258D01*
X32365176Y21925155D01*
X32421294Y21960768D01*
X32518008Y22052868D01*
X32594991Y22161998D01*
X32649311Y22284003D01*
X32678899Y22414235D01*
X32681029Y22566775D01*
X32655089Y22697783D01*
X32604197Y22821257D01*
X32530291Y22932494D01*
X32436186Y23027258D01*
X32325467Y23101939D01*
X32202352Y23153692D01*
X32071528Y23180546D01*
X31937981Y23181479D01*
X31806795Y23156454D01*
X31682969Y23106425D01*
X31571218Y23033297D01*
X31517815Y22981000D01*
X29699236Y22981000D01*
X29171000Y23509236D01*
X29171000Y24203418D01*
X29202410Y24215601D01*
X29389682Y24334448D01*
X29550304Y24487406D01*
X29678157Y24668649D01*
X29768371Y24871274D01*
X29817511Y25087562D01*
X29818171Y25134902D01*
X30097514Y25134902D01*
X30137553Y24916746D01*
X30219203Y24710521D01*
X30339354Y24524083D01*
X30493430Y24364533D01*
X30675561Y24237949D01*
X30878811Y24149151D01*
X31095437Y24101523D01*
X31317189Y24096877D01*
X31535620Y24135393D01*
X31742410Y24215601D01*
X31929682Y24334448D01*
X32090304Y24487406D01*
X32218157Y24668649D01*
X32308371Y24871274D01*
X32357511Y25087562D01*
X32361048Y25340900D01*
X32317967Y25558477D01*
X32233445Y25763541D01*
X32110703Y25948284D01*
X31954415Y26105667D01*
X31770534Y26229696D01*
X31566064Y26315647D01*
X31348794Y26360246D01*
X31126999Y26361795D01*
X30909127Y26320233D01*
X30703477Y26237146D01*
X30517882Y26115696D01*
X30359412Y25960510D01*
X30234102Y25777500D01*
X30146725Y25573635D01*
X30100611Y25356681D01*
X30097514Y25134902D01*
X29818171Y25134902D01*
X29821048Y25340900D01*
X29777967Y25558477D01*
X29693445Y25763541D01*
X29570703Y25948284D01*
X29414415Y26105667D01*
X29230534Y26229696D01*
X29026064Y26315647D01*
X28808794Y26360246D01*
X28586999Y26361795D01*
X28369127Y26320233D01*
X28163477Y26237146D01*
X27977882Y26115696D01*
X27819412Y25960510D01*
X27694102Y25777500D01*
X27606725Y25573635D01*
X27560611Y25356681D01*
X27557514Y25134902D01*
X27597553Y24916746D01*
X27679203Y24710521D01*
X27799354Y24524083D01*
X27953430Y24364533D01*
X28135561Y24237949D01*
X28209000Y24205864D01*
X28209000Y23310000D01*
X28213336Y23265777D01*
X28217208Y23221519D01*
X28217914Y23219087D01*
X28218161Y23216573D01*
X28220106Y23210130D01*
X28090118Y23340118D01*
X28055822Y23368289D01*
X28021749Y23396880D01*
X28019529Y23398100D01*
X28017578Y23399703D01*
X27978457Y23420680D01*
X27939486Y23442104D01*
X27937075Y23442869D01*
X27934846Y23444064D01*
X27892385Y23457045D01*
X27850006Y23470489D01*
X27847489Y23470771D01*
X27845073Y23471510D01*
X27800893Y23475998D01*
X27756716Y23480953D01*
X27751772Y23480988D01*
X27751679Y23480997D01*
X27751593Y23480989D01*
X27750000Y23481000D01*
X18419237Y23481000D01*
X17406846Y24493391D01*
X17794098Y24493391D01*
X17862403Y24310281D01*
X18054659Y24197712D01*
X18265182Y24124813D01*
X18485882Y24094385D01*
X18708278Y24107599D01*
X18923822Y24163946D01*
X19124231Y24261261D01*
X19197597Y24310281D01*
X19265902Y24493391D01*
X18530000Y25229293D01*
X17794098Y24493391D01*
X17406846Y24493391D01*
X17056230Y24844006D01*
X17068371Y24871274D01*
X17117511Y25087562D01*
X17120115Y25274118D01*
X17394385Y25274118D01*
X17407599Y25051722D01*
X17463946Y24836178D01*
X17561261Y24635769D01*
X17610281Y24562403D01*
X17793391Y24494098D01*
X18529293Y25230000D01*
X18530707Y25230000D01*
X19266609Y24494098D01*
X19449719Y24562403D01*
X19562288Y24754659D01*
X19635187Y24965182D01*
X19658586Y25134902D01*
X19937514Y25134902D01*
X19977553Y24916746D01*
X20059203Y24710521D01*
X20179354Y24524083D01*
X20333430Y24364533D01*
X20515561Y24237949D01*
X20718811Y24149151D01*
X20935437Y24101523D01*
X21157189Y24096877D01*
X21375620Y24135393D01*
X21582410Y24215601D01*
X21769682Y24334448D01*
X21930304Y24487406D01*
X22058157Y24668649D01*
X22148371Y24871274D01*
X22197511Y25087562D01*
X22198171Y25134902D01*
X22477514Y25134902D01*
X22517553Y24916746D01*
X22599203Y24710521D01*
X22719354Y24524083D01*
X22873430Y24364533D01*
X23055561Y24237949D01*
X23258811Y24149151D01*
X23475437Y24101523D01*
X23697189Y24096877D01*
X23915620Y24135393D01*
X24122410Y24215601D01*
X24309682Y24334448D01*
X24470304Y24487406D01*
X24598157Y24668649D01*
X24688371Y24871274D01*
X24737511Y25087562D01*
X24738171Y25134902D01*
X25017514Y25134902D01*
X25057553Y24916746D01*
X25139203Y24710521D01*
X25259354Y24524083D01*
X25413430Y24364533D01*
X25595561Y24237949D01*
X25798811Y24149151D01*
X26015437Y24101523D01*
X26237189Y24096877D01*
X26455620Y24135393D01*
X26662410Y24215601D01*
X26849682Y24334448D01*
X27010304Y24487406D01*
X27138157Y24668649D01*
X27228371Y24871274D01*
X27277511Y25087562D01*
X27281048Y25340900D01*
X27237967Y25558477D01*
X27153445Y25763541D01*
X27030703Y25948284D01*
X26874415Y26105667D01*
X26690534Y26229696D01*
X26486064Y26315647D01*
X26268794Y26360246D01*
X26046999Y26361795D01*
X25829127Y26320233D01*
X25623477Y26237146D01*
X25437882Y26115696D01*
X25279412Y25960510D01*
X25154102Y25777500D01*
X25066725Y25573635D01*
X25020611Y25356681D01*
X25017514Y25134902D01*
X24738171Y25134902D01*
X24741048Y25340900D01*
X24697967Y25558477D01*
X24613445Y25763541D01*
X24490703Y25948284D01*
X24334415Y26105667D01*
X24150534Y26229696D01*
X23946064Y26315647D01*
X23728794Y26360246D01*
X23506999Y26361795D01*
X23289127Y26320233D01*
X23083477Y26237146D01*
X22897882Y26115696D01*
X22739412Y25960510D01*
X22614102Y25777500D01*
X22526725Y25573635D01*
X22480611Y25356681D01*
X22477514Y25134902D01*
X22198171Y25134902D01*
X22201048Y25340900D01*
X22157967Y25558477D01*
X22073445Y25763541D01*
X21950703Y25948284D01*
X21794415Y26105667D01*
X21610534Y26229696D01*
X21406064Y26315647D01*
X21188794Y26360246D01*
X20966999Y26361795D01*
X20749127Y26320233D01*
X20543477Y26237146D01*
X20357882Y26115696D01*
X20199412Y25960510D01*
X20074102Y25777500D01*
X19986725Y25573635D01*
X19940611Y25356681D01*
X19937514Y25134902D01*
X19658586Y25134902D01*
X19665615Y25185882D01*
X19652401Y25408278D01*
X19596054Y25623822D01*
X19498739Y25824231D01*
X19449719Y25897597D01*
X19266609Y25965902D01*
X18530707Y25230000D01*
X18529293Y25230000D01*
X17793391Y25965902D01*
X17610281Y25897597D01*
X17497712Y25705341D01*
X17424813Y25494818D01*
X17394385Y25274118D01*
X17120115Y25274118D01*
X17121048Y25340900D01*
X17077967Y25558477D01*
X16993445Y25763541D01*
X16870703Y25948284D01*
X16852506Y25966609D01*
X17794098Y25966609D01*
X18530000Y25230707D01*
X19265902Y25966609D01*
X19197597Y26149719D01*
X19005341Y26262288D01*
X18794818Y26335187D01*
X18574118Y26365615D01*
X18351722Y26352401D01*
X18136178Y26296054D01*
X17935769Y26198739D01*
X17862403Y26149719D01*
X17794098Y25966609D01*
X16852506Y25966609D01*
X16714415Y26105667D01*
X16530534Y26229696D01*
X16326064Y26315647D01*
X16108794Y26360246D01*
X15886999Y26361795D01*
X15669127Y26320233D01*
X15463477Y26237146D01*
X15277882Y26115696D01*
X15119412Y25960510D01*
X14994102Y25777500D01*
X14906725Y25573635D01*
X14860611Y25356681D01*
X14857514Y25134902D01*
X14578171Y25134902D01*
X14581048Y25340900D01*
X14537967Y25558477D01*
X14453445Y25763541D01*
X14330703Y25948284D01*
X14174415Y26105667D01*
X13990534Y26229696D01*
X13786064Y26315647D01*
X13568794Y26360246D01*
X13346999Y26361795D01*
X13129127Y26320233D01*
X12923477Y26237146D01*
X12737882Y26115696D01*
X12579412Y25960510D01*
X12454102Y25777500D01*
X12366725Y25573635D01*
X12320611Y25356681D01*
X12317514Y25134902D01*
X12038171Y25134902D01*
X12041048Y25340900D01*
X11997967Y25558477D01*
X11913445Y25763541D01*
X11790703Y25948284D01*
X11634415Y26105667D01*
X11450534Y26229696D01*
X11246064Y26315647D01*
X11028794Y26360246D01*
X10907375Y26361094D01*
X10911055Y26624628D01*
X10908261Y26638740D01*
X10997189Y26636877D01*
X11215620Y26675393D01*
X11422410Y26755601D01*
X11609682Y26874448D01*
X11770304Y27027406D01*
X11774525Y27033391D01*
X12714098Y27033391D01*
X12782403Y26850281D01*
X12974659Y26737712D01*
X13185182Y26664813D01*
X13405882Y26634385D01*
X13628278Y26647599D01*
X13843822Y26703946D01*
X14044231Y26801261D01*
X14117597Y26850281D01*
X14185902Y27033391D01*
X13450000Y27769293D01*
X12714098Y27033391D01*
X11774525Y27033391D01*
X11898157Y27208649D01*
X11988371Y27411274D01*
X12037511Y27627562D01*
X12041048Y27880900D01*
X12031616Y27928536D01*
X12515595Y28412515D01*
X12417712Y28245341D01*
X12344813Y28034818D01*
X12314385Y27814118D01*
X12327599Y27591722D01*
X12383946Y27376178D01*
X12481261Y27175769D01*
X12530281Y27102403D01*
X12713391Y27034098D01*
X13449293Y27770000D01*
X13435151Y27784142D01*
X13435858Y27784849D01*
X13450000Y27770707D01*
X13464143Y27784849D01*
X13464850Y27784142D01*
X13450707Y27770000D01*
X14186609Y27034098D01*
X14369719Y27102403D01*
X14482288Y27294659D01*
X14555187Y27505182D01*
X14585615Y27725882D01*
X14572401Y27948278D01*
X14516054Y28163822D01*
X14418739Y28364231D01*
X14369719Y28437597D01*
X14186611Y28505901D01*
X14249710Y28569000D01*
X15189351Y28569000D01*
X15119412Y28500510D01*
X14994102Y28317500D01*
X14906725Y28113635D01*
X14860611Y27896681D01*
X14857514Y27674902D01*
X14897553Y27456746D01*
X14979203Y27250521D01*
X15099354Y27064083D01*
X15253430Y26904533D01*
X15435561Y26777949D01*
X15638811Y26689151D01*
X15855437Y26641523D01*
X16077189Y26636877D01*
X16295620Y26675393D01*
X16502410Y26755601D01*
X16689682Y26874448D01*
X16850304Y27027406D01*
X16978157Y27208649D01*
X17068371Y27411274D01*
X17117511Y27627562D01*
X17121048Y27880900D01*
X17077967Y28098477D01*
X16993445Y28303541D01*
X16870703Y28488284D01*
X16790549Y28569000D01*
X17729351Y28569000D01*
X17659412Y28500510D01*
X17534102Y28317500D01*
X17446725Y28113635D01*
X17400611Y27896681D01*
X17397514Y27674902D01*
X17437553Y27456746D01*
X17519203Y27250521D01*
X17639354Y27064083D01*
X17793430Y26904533D01*
X17975561Y26777949D01*
X18178811Y26689151D01*
X18395437Y26641523D01*
X18617189Y26636877D01*
X18835620Y26675393D01*
X19042410Y26755601D01*
X19229682Y26874448D01*
X19390304Y27027406D01*
X19518157Y27208649D01*
X19608371Y27411274D01*
X19657511Y27627562D01*
X19661048Y27880900D01*
X19617967Y28098477D01*
X19533445Y28303541D01*
X19410703Y28488284D01*
X19330549Y28569000D01*
X20269351Y28569000D01*
X20199412Y28500510D01*
X20074102Y28317500D01*
X19986725Y28113635D01*
X19940611Y27896681D01*
X19937514Y27674902D01*
X19977553Y27456746D01*
X20059203Y27250521D01*
X20179354Y27064083D01*
X20333430Y26904533D01*
X20515561Y26777949D01*
X20718811Y26689151D01*
X20935437Y26641523D01*
X21157189Y26636877D01*
X21375620Y26675393D01*
X21582410Y26755601D01*
X21769682Y26874448D01*
X21930304Y27027406D01*
X21934525Y27033391D01*
X22874098Y27033391D01*
X22942403Y26850281D01*
X23134659Y26737712D01*
X23345182Y26664813D01*
X23565882Y26634385D01*
X23788278Y26647599D01*
X24003822Y26703946D01*
X24204231Y26801261D01*
X24277597Y26850281D01*
X24345902Y27033391D01*
X23610000Y27769293D01*
X22874098Y27033391D01*
X21934525Y27033391D01*
X22058157Y27208649D01*
X22148371Y27411274D01*
X22197511Y27627562D01*
X22201048Y27880900D01*
X22157967Y28098477D01*
X22073445Y28303541D01*
X21950703Y28488284D01*
X21870549Y28569000D01*
X22810290Y28569000D01*
X22873389Y28505901D01*
X22690281Y28437597D01*
X22577712Y28245341D01*
X22504813Y28034818D01*
X22474385Y27814118D01*
X22487599Y27591722D01*
X22543946Y27376178D01*
X22641261Y27175769D01*
X22690281Y27102403D01*
X22873391Y27034098D01*
X23609293Y27770000D01*
X23595151Y27784142D01*
X23595858Y27784849D01*
X23610000Y27770707D01*
X23624143Y27784849D01*
X23624850Y27784142D01*
X23610707Y27770000D01*
X24346609Y27034098D01*
X24529719Y27102403D01*
X24642288Y27294659D01*
X24715187Y27505182D01*
X24745615Y27725882D01*
X24732401Y27948278D01*
X24676054Y28163822D01*
X24578739Y28364231D01*
X24529719Y28437597D01*
X24346611Y28505901D01*
X24409710Y28569000D01*
X25349351Y28569000D01*
X25279412Y28500510D01*
X25154102Y28317500D01*
X25066725Y28113635D01*
X25020611Y27896681D01*
X25017514Y27674902D01*
X25057553Y27456746D01*
X25139203Y27250521D01*
X25259354Y27064083D01*
X25413430Y26904533D01*
X25595561Y26777949D01*
X25798811Y26689151D01*
X26015437Y26641523D01*
X26237189Y26636877D01*
X26455620Y26675393D01*
X26662410Y26755601D01*
X26849682Y26874448D01*
X27010304Y27027406D01*
X27138157Y27208649D01*
X27228371Y27411274D01*
X27277511Y27627562D01*
X27281048Y27880900D01*
X27237967Y28098477D01*
X27153445Y28303541D01*
X27030703Y28488284D01*
X26950549Y28569000D01*
X27889351Y28569000D01*
X27819412Y28500510D01*
X27694102Y28317500D01*
X27606725Y28113635D01*
X27560611Y27896681D01*
X27557514Y27674902D01*
X27597553Y27456746D01*
X27679203Y27250521D01*
X27799354Y27064083D01*
X27953430Y26904533D01*
X28135561Y26777949D01*
X28338811Y26689151D01*
X28555437Y26641523D01*
X28777189Y26636877D01*
X28995620Y26675393D01*
X29202410Y26755601D01*
X29389682Y26874448D01*
X29550304Y27027406D01*
X29554525Y27033391D01*
X30494098Y27033391D01*
X30562403Y26850281D01*
X30754659Y26737712D01*
X30965182Y26664813D01*
X31185882Y26634385D01*
X31408278Y26647599D01*
X31623822Y26703946D01*
X31824231Y26801261D01*
X31897597Y26850281D01*
X31965902Y27033391D01*
X31230000Y27769293D01*
X30494098Y27033391D01*
X29554525Y27033391D01*
X29678157Y27208649D01*
X29768371Y27411274D01*
X29817511Y27627562D01*
X29821048Y27880900D01*
X29777967Y28098477D01*
X29693445Y28303541D01*
X29570703Y28488284D01*
X29490549Y28569000D01*
X30430290Y28569000D01*
X30493389Y28505901D01*
X30310281Y28437597D01*
X30197712Y28245341D01*
X30124813Y28034818D01*
X30094385Y27814118D01*
X30107599Y27591722D01*
X30163946Y27376178D01*
X30261261Y27175769D01*
X30310281Y27102403D01*
X30493391Y27034098D01*
X31229293Y27770000D01*
X31215151Y27784142D01*
X31215858Y27784849D01*
X31230000Y27770707D01*
X31244143Y27784849D01*
X31244850Y27784142D01*
X31230707Y27770000D01*
X31966609Y27034098D01*
X32149719Y27102403D01*
X32262288Y27294659D01*
X32335187Y27505182D01*
X32365615Y27725882D01*
X32352401Y27948278D01*
X32296054Y28163822D01*
X32198739Y28364231D01*
X32149719Y28437597D01*
X31966611Y28505901D01*
X32029710Y28569000D01*
X32969351Y28569000D01*
X32899412Y28500510D01*
X32774102Y28317500D01*
X32686725Y28113635D01*
X32640611Y27896681D01*
X32637514Y27674902D01*
X32677553Y27456746D01*
X32759203Y27250521D01*
X32879354Y27064083D01*
X33033430Y26904533D01*
X33215561Y26777949D01*
X33418811Y26689151D01*
X33635437Y26641523D01*
X33857189Y26636877D01*
X34075620Y26675393D01*
X34282410Y26755601D01*
X34319000Y26778822D01*
X34319000Y26223986D01*
X34310534Y26229696D01*
X34106064Y26315647D01*
X33888794Y26360246D01*
X33666999Y26361795D01*
X33449127Y26320233D01*
X33243477Y26237146D01*
X33057882Y26115696D01*
X32899412Y25960510D01*
X32774102Y25777500D01*
X32686725Y25573635D01*
X32640611Y25356681D01*
X32637514Y25134902D01*
X32677553Y24916746D01*
X32759203Y24710521D01*
X32879354Y24524083D01*
X33033430Y24364533D01*
X33215561Y24237949D01*
X33418811Y24149151D01*
X33635437Y24101523D01*
X33857189Y24096877D01*
X34075620Y24135393D01*
X34282410Y24215601D01*
X34319000Y24238822D01*
X34319000Y23250000D01*
X34325135Y23187428D01*
X34330621Y23124730D01*
X34331621Y23121289D01*
X34331970Y23117726D01*
X34350161Y23057473D01*
X34367702Y22997098D01*
X34369348Y22993923D01*
X34370384Y22990491D01*
X34399923Y22934937D01*
X34428865Y22879101D01*
X34431100Y22876301D01*
X34432781Y22873140D01*
X34472533Y22824399D01*
X34511784Y22775230D01*
X34516699Y22770246D01*
X34516782Y22770144D01*
X34516876Y22770066D01*
X34518460Y22768460D01*
X36513092Y20773828D01*
X36556495Y20728883D01*
X36666160Y20652664D01*
X36788541Y20599197D01*
X36918977Y20570519D01*
X37052498Y20567722D01*
X37059746Y20569000D01*
X37741490Y20569000D01*
X37802498Y20567722D01*
X37934020Y20590913D01*
X38058533Y20639208D01*
X38171294Y20710768D01*
X38268008Y20802868D01*
X38344991Y20911998D01*
X38399311Y21034003D01*
X38428899Y21164235D01*
X38429884Y21234791D01*
X38430983Y21245246D01*
X38430157Y21254323D01*
X38431029Y21316775D01*
X38405089Y21447783D01*
X38354197Y21571257D01*
X38280291Y21682494D01*
X38186186Y21777258D01*
X38075467Y21851939D01*
X37952352Y21903692D01*
X37821528Y21930546D01*
X37687981Y21931479D01*
X37685470Y21931000D01*
X37282080Y21931000D01*
X35681000Y23532080D01*
X35681000Y24289770D01*
X35755561Y24237949D01*
X35958811Y24149151D01*
X36175437Y24101523D01*
X36397189Y24096877D01*
X36615620Y24135393D01*
X36822410Y24215601D01*
X37009682Y24334448D01*
X37170304Y24487406D01*
X37298157Y24668649D01*
X37388371Y24871274D01*
X37437511Y25087562D01*
X37439522Y25231609D01*
X37677982Y25226614D01*
X37716801Y25233459D01*
X37727599Y25051722D01*
X37783946Y24836178D01*
X37881261Y24635769D01*
X37930281Y24562403D01*
X38113391Y24494098D01*
X38849293Y25230000D01*
X38835151Y25244142D01*
X38835858Y25244849D01*
X38850000Y25230707D01*
X38864143Y25244849D01*
X38864850Y25244142D01*
X38850707Y25230000D01*
X38864850Y25215857D01*
X38864143Y25215150D01*
X38850000Y25229293D01*
X38114098Y24493391D01*
X38182403Y24310281D01*
X38374659Y24197712D01*
X38585182Y24124813D01*
X38805882Y24094385D01*
X39028278Y24107599D01*
X39243822Y24163946D01*
X39444231Y24261261D01*
X39517597Y24310281D01*
X39585901Y24493389D01*
X39623000Y24456290D01*
X39623000Y1302606D01*
X39321436Y1001042D01*
X39363074Y1138024D01*
X39380100Y1309889D01*
X39380100Y1584889D01*
X38499600Y1584889D01*
X38499600Y1564889D01*
X38498600Y1564889D01*
X38498600Y1584889D01*
X37618100Y1584889D01*
X37618100Y1309889D01*
X37635126Y1138024D01*
X37685354Y972783D01*
X37766854Y820516D01*
X37876493Y687075D01*
X37949779Y627000D01*
X32048421Y627000D01*
X32121707Y687075D01*
X32231346Y820516D01*
X32312846Y972783D01*
X32363074Y1138024D01*
X32380100Y1309889D01*
X32380100Y1584889D01*
X31499600Y1584889D01*
X31499600Y1564889D01*
X31498600Y1564889D01*
X31498600Y1584889D01*
X30618100Y1584889D01*
X30618100Y1309889D01*
X30635126Y1138024D01*
X30685354Y972783D01*
X30766854Y820516D01*
X30876493Y687075D01*
X30949779Y627000D01*
X23457200Y627000D01*
X23457200Y1860889D01*
X30618100Y1860889D01*
X30618100Y1585889D01*
X31498600Y1585889D01*
X31498600Y2646139D01*
X31499600Y2646139D01*
X31499600Y1585889D01*
X32380100Y1585889D01*
X32380100Y1860889D01*
X37618100Y1860889D01*
X37618100Y1585889D01*
X38498600Y1585889D01*
X38498600Y2646139D01*
X38499600Y2646139D01*
X38499600Y1585889D01*
X39380100Y1585889D01*
X39380100Y1860889D01*
X39363074Y2032754D01*
X39312846Y2197995D01*
X39231346Y2350262D01*
X39121707Y2483703D01*
X38988141Y2593191D01*
X38835782Y2674518D01*
X38670484Y2724558D01*
X38637413Y2730464D01*
X38499600Y2646139D01*
X38498600Y2646139D01*
X38360787Y2730464D01*
X38327716Y2724558D01*
X38162418Y2674518D01*
X38010059Y2593191D01*
X37876493Y2483703D01*
X37766854Y2350262D01*
X37685354Y2197995D01*
X37635126Y2032754D01*
X37618100Y1860889D01*
X32380100Y1860889D01*
X32363074Y2032754D01*
X32312846Y2197995D01*
X32231346Y2350262D01*
X32121707Y2483703D01*
X31988141Y2593191D01*
X31835782Y2674518D01*
X31670484Y2724558D01*
X31637413Y2730464D01*
X31499600Y2646139D01*
X31498600Y2646139D01*
X31360787Y2730464D01*
X31327716Y2724558D01*
X31162418Y2674518D01*
X31010059Y2593191D01*
X30876493Y2483703D01*
X30766854Y2350262D01*
X30685354Y2197995D01*
X30635126Y2032754D01*
X30618100Y1860889D01*
X23457200Y1860889D01*
X23457200Y3415800D01*
X6875340Y3415800D01*
X6881145Y3831524D01*
X6817890Y4150987D01*
X31503717Y4150987D01*
X31509449Y4118880D01*
X31558067Y3958272D01*
X31637084Y3810235D01*
X31743463Y3680458D01*
X31873116Y3573928D01*
X32021061Y3494739D01*
X32181612Y3445934D01*
X32348600Y3429389D01*
X32498600Y3429389D01*
X32498600Y4284889D01*
X32499600Y4284889D01*
X32499600Y3429389D01*
X32649600Y3429389D01*
X32816588Y3445934D01*
X32977139Y3494739D01*
X33125084Y3573928D01*
X33254737Y3680458D01*
X33361116Y3810235D01*
X33440133Y3958272D01*
X33488751Y4118880D01*
X33494483Y4150987D01*
X36503717Y4150987D01*
X36509449Y4118880D01*
X36558067Y3958272D01*
X36637084Y3810235D01*
X36743463Y3680458D01*
X36873116Y3573928D01*
X37021061Y3494739D01*
X37181612Y3445934D01*
X37348600Y3429389D01*
X37498600Y3429389D01*
X37498600Y4284889D01*
X37499600Y4284889D01*
X37499600Y3429389D01*
X37649600Y3429389D01*
X37816588Y3445934D01*
X37977139Y3494739D01*
X38125084Y3573928D01*
X38254737Y3680458D01*
X38361116Y3810235D01*
X38440133Y3958272D01*
X38488751Y4118880D01*
X38494483Y4150987D01*
X38409850Y4284889D01*
X37499600Y4284889D01*
X37498600Y4284889D01*
X36588350Y4284889D01*
X36503717Y4150987D01*
X33494483Y4150987D01*
X33409850Y4284889D01*
X32499600Y4284889D01*
X32498600Y4284889D01*
X31588350Y4284889D01*
X31503717Y4150987D01*
X6817890Y4150987D01*
X6752358Y4481945D01*
X6499690Y5094963D01*
X6132765Y5647230D01*
X5665558Y6117710D01*
X5115866Y6488482D01*
X4504626Y6745424D01*
X3855121Y6878748D01*
X3192089Y6883377D01*
X2540785Y6759134D01*
X1926017Y6510752D01*
X1371202Y6147691D01*
X897472Y5683780D01*
X627000Y5288765D01*
X627000Y10192740D01*
X14318105Y10192740D01*
X14342213Y10061383D01*
X14391377Y9937210D01*
X14463722Y9824952D01*
X14556495Y9728883D01*
X14666160Y9652664D01*
X14788541Y9599197D01*
X14840588Y9587754D01*
X19839171Y4589171D01*
X19880642Y4555106D01*
X19921754Y4520609D01*
X19924431Y4519137D01*
X19926792Y4517198D01*
X19974085Y4491840D01*
X20021120Y4465982D01*
X20024033Y4465058D01*
X20026724Y4463615D01*
X20077998Y4447939D01*
X20129203Y4431696D01*
X20132243Y4431355D01*
X20135161Y4430463D01*
X20188517Y4425043D01*
X20241888Y4419057D01*
X20247863Y4419015D01*
X20247971Y4419004D01*
X20248072Y4419014D01*
X20250000Y4419000D01*
X21642656Y4419000D01*
X21666160Y4402664D01*
X21788541Y4349197D01*
X21918977Y4320519D01*
X22052498Y4317722D01*
X22184020Y4340913D01*
X22308533Y4389208D01*
X22355478Y4419000D01*
X26142656Y4419000D01*
X26166160Y4402664D01*
X26288541Y4349197D01*
X26418977Y4320519D01*
X26552498Y4317722D01*
X26684020Y4340913D01*
X26808533Y4389208D01*
X26856724Y4419791D01*
X31503717Y4419791D01*
X31588350Y4285889D01*
X32498600Y4285889D01*
X32498600Y5141389D01*
X32499600Y5141389D01*
X32499600Y4285889D01*
X33409850Y4285889D01*
X33494483Y4419791D01*
X36503717Y4419791D01*
X36588350Y4285889D01*
X37498600Y4285889D01*
X37498600Y5141389D01*
X37499600Y5141389D01*
X37499600Y4285889D01*
X38409850Y4285889D01*
X38494483Y4419791D01*
X38488751Y4451898D01*
X38440133Y4612506D01*
X38361116Y4760543D01*
X38254737Y4890320D01*
X38125084Y4996850D01*
X37977139Y5076039D01*
X37816588Y5124844D01*
X37649600Y5141389D01*
X37499600Y5141389D01*
X37498600Y5141389D01*
X37348600Y5141389D01*
X37181612Y5124844D01*
X37021061Y5076039D01*
X36873116Y4996850D01*
X36743463Y4890320D01*
X36637084Y4760543D01*
X36558067Y4612506D01*
X36509449Y4451898D01*
X36503717Y4419791D01*
X33494483Y4419791D01*
X33488751Y4451898D01*
X33440133Y4612506D01*
X33361116Y4760543D01*
X33254737Y4890320D01*
X33125084Y4996850D01*
X32977139Y5076039D01*
X32816588Y5124844D01*
X32649600Y5141389D01*
X32499600Y5141389D01*
X32498600Y5141389D01*
X32348600Y5141389D01*
X32181612Y5124844D01*
X32021061Y5076039D01*
X31873116Y4996850D01*
X31743463Y4890320D01*
X31637084Y4760543D01*
X31558067Y4612506D01*
X31509449Y4451898D01*
X31503717Y4419791D01*
X26856724Y4419791D01*
X26921294Y4460768D01*
X27018008Y4552868D01*
X27094991Y4661998D01*
X27149311Y4784003D01*
X27178899Y4914235D01*
X27181029Y5066775D01*
X27155089Y5197783D01*
X27104197Y5321257D01*
X27030291Y5432494D01*
X26936186Y5527258D01*
X26825467Y5601939D01*
X26702352Y5653692D01*
X26571528Y5680546D01*
X26437981Y5681479D01*
X26306795Y5656454D01*
X26182969Y5606425D01*
X26144116Y5581000D01*
X22356510Y5581000D01*
X22325467Y5601939D01*
X22202352Y5653692D01*
X22071528Y5680546D01*
X21937981Y5681479D01*
X21806795Y5656454D01*
X21682969Y5606425D01*
X21644116Y5581000D01*
X20490658Y5581000D01*
X15662795Y10408863D01*
X15655089Y10447783D01*
X15604197Y10571257D01*
X15530291Y10682494D01*
X15436186Y10777258D01*
X15325467Y10851939D01*
X15202352Y10903692D01*
X15071528Y10930546D01*
X14937981Y10931479D01*
X14806795Y10906454D01*
X14682969Y10856425D01*
X14571218Y10783297D01*
X14475800Y10689856D01*
X14400348Y10579662D01*
X14347736Y10456910D01*
X14319970Y10326278D01*
X14318105Y10192740D01*
X627000Y10192740D01*
X627000Y16442740D01*
X12818105Y16442740D01*
X12842213Y16311383D01*
X12891377Y16187210D01*
X12919000Y16144347D01*
X12919000Y13856902D01*
X12900348Y13829662D01*
X12847736Y13706910D01*
X12819970Y13576278D01*
X12818105Y13442740D01*
X12842213Y13311383D01*
X12891377Y13187210D01*
X12963722Y13074952D01*
X13056495Y12978883D01*
X13166160Y12902664D01*
X13288541Y12849197D01*
X13418977Y12820519D01*
X13552498Y12817722D01*
X13684020Y12840913D01*
X13808533Y12889208D01*
X13855478Y12919000D01*
X18500000Y12919000D01*
X18553394Y12924235D01*
X18606876Y12928914D01*
X18609813Y12929767D01*
X18612850Y12930065D01*
X18664201Y12945569D01*
X18715765Y12960550D01*
X18718478Y12961956D01*
X18721402Y12962839D01*
X18768757Y12988018D01*
X18816435Y13012732D01*
X18818825Y13014640D01*
X18821520Y13016073D01*
X18863086Y13049973D01*
X18905053Y13083475D01*
X18909305Y13087668D01*
X18909392Y13087739D01*
X18909459Y13087820D01*
X18910829Y13089171D01*
X20407979Y14586321D01*
X20434020Y14590913D01*
X20558533Y14639208D01*
X20605478Y14669000D01*
X25642656Y14669000D01*
X25666160Y14652664D01*
X25788541Y14599197D01*
X25918977Y14570519D01*
X26052498Y14567722D01*
X26184020Y14590913D01*
X26308533Y14639208D01*
X26421294Y14710768D01*
X26518008Y14802868D01*
X26594991Y14911998D01*
X26649311Y15034003D01*
X26678899Y15164235D01*
X26681029Y15316775D01*
X26655089Y15447783D01*
X26604197Y15571257D01*
X26530291Y15682494D01*
X26436186Y15777258D01*
X26325467Y15851939D01*
X26202352Y15903692D01*
X26071528Y15930546D01*
X25937981Y15931479D01*
X25806795Y15906454D01*
X25682969Y15856425D01*
X25644116Y15831000D01*
X20606510Y15831000D01*
X20575467Y15851939D01*
X20452352Y15903692D01*
X20321528Y15930546D01*
X20187981Y15931479D01*
X20056795Y15906454D01*
X19932969Y15856425D01*
X19821218Y15783297D01*
X19725800Y15689856D01*
X19650348Y15579662D01*
X19597736Y15456910D01*
X19587610Y15409268D01*
X18259342Y14081000D01*
X14787371Y14081000D01*
X14808533Y14089208D01*
X14921294Y14160768D01*
X15018008Y14252868D01*
X15094991Y14361998D01*
X15149311Y14484003D01*
X15178899Y14614235D01*
X15181029Y14766775D01*
X15155089Y14897783D01*
X15104197Y15021257D01*
X15030291Y15132494D01*
X14981000Y15182130D01*
X14981000Y17717626D01*
X15018008Y17752868D01*
X15094991Y17861998D01*
X15149311Y17984003D01*
X15178899Y18114235D01*
X15181029Y18266775D01*
X15155089Y18397783D01*
X15104197Y18521257D01*
X15030291Y18632494D01*
X14936186Y18727258D01*
X14825467Y18801939D01*
X14702352Y18853692D01*
X14571528Y18880546D01*
X14437981Y18881479D01*
X14306795Y18856454D01*
X14182969Y18806425D01*
X14071218Y18733297D01*
X13975800Y18639856D01*
X13900348Y18529662D01*
X13847736Y18406910D01*
X13819970Y18276278D01*
X13818105Y18142740D01*
X13842213Y18011383D01*
X13891377Y17887210D01*
X13963722Y17774952D01*
X14019000Y17717710D01*
X14019000Y16943864D01*
X13936186Y17027258D01*
X13825467Y17101939D01*
X13702352Y17153692D01*
X13571528Y17180546D01*
X13437981Y17181479D01*
X13306795Y17156454D01*
X13182969Y17106425D01*
X13071218Y17033297D01*
X12975800Y16939856D01*
X12900348Y16829662D01*
X12847736Y16706910D01*
X12819970Y16576278D01*
X12818105Y16442740D01*
X627000Y16442740D01*
X627000Y19192740D01*
X17068105Y19192740D01*
X17092213Y19061383D01*
X17141377Y18937210D01*
X17213722Y18824952D01*
X17306495Y18728883D01*
X17416160Y18652664D01*
X17538541Y18599197D01*
X17668977Y18570519D01*
X17802498Y18567722D01*
X17934020Y18590913D01*
X18058533Y18639208D01*
X18171294Y18710768D01*
X18268008Y18802868D01*
X18344991Y18911998D01*
X18399311Y19034003D01*
X18428899Y19164235D01*
X18430095Y19249858D01*
X19399237Y20219000D01*
X20317754Y20219000D01*
X20356495Y20178883D01*
X20466160Y20102664D01*
X20588541Y20049197D01*
X20718977Y20020519D01*
X20852498Y20017722D01*
X20984020Y20040913D01*
X21108533Y20089208D01*
X21221294Y20160768D01*
X21318008Y20252868D01*
X21394991Y20361998D01*
X21449311Y20484003D01*
X21478899Y20614235D01*
X21481029Y20766775D01*
X21455089Y20897783D01*
X21404197Y21021257D01*
X21330291Y21132494D01*
X21236186Y21227258D01*
X21125467Y21301939D01*
X21002352Y21353692D01*
X20871528Y21380546D01*
X20737981Y21381479D01*
X20606795Y21356454D01*
X20482969Y21306425D01*
X20371218Y21233297D01*
X20317815Y21181000D01*
X19200000Y21181000D01*
X19155822Y21176668D01*
X19111519Y21172792D01*
X19109087Y21172086D01*
X19106573Y21171839D01*
X19064063Y21159005D01*
X19021372Y21146602D01*
X19019127Y21145438D01*
X19016705Y21144707D01*
X18977491Y21123856D01*
X18938029Y21103401D01*
X18936050Y21101821D01*
X18933819Y21100635D01*
X18899381Y21072549D01*
X18864664Y21044834D01*
X18861145Y21041365D01*
X18861071Y21041304D01*
X18861014Y21041235D01*
X18859882Y21040119D01*
X17750804Y19931040D01*
X17687981Y19931479D01*
X17556795Y19906454D01*
X17432969Y19856425D01*
X17321218Y19783297D01*
X17225800Y19689856D01*
X17150348Y19579662D01*
X17097736Y19456910D01*
X17069970Y19326278D01*
X17068105Y19192740D01*
X627000Y19192740D01*
X627000Y24716388D01*
X837512Y24389738D01*
X1298104Y23912781D01*
X1842566Y23534370D01*
X2450158Y23268920D01*
X3097739Y23126540D01*
X3760642Y23112654D01*
X4413617Y23227791D01*
X5031793Y23467566D01*
X5591623Y23822845D01*
X6071784Y24280096D01*
X6453986Y24821902D01*
X6723672Y25427627D01*
X6870570Y26074198D01*
X6881145Y26831524D01*
X6752358Y27481945D01*
X6499690Y28094963D01*
X6132765Y28647230D01*
X5665558Y29117710D01*
X5287075Y29373000D01*
X11549920Y29373000D01*
X11068928Y28892008D01*
X11068928Y28892008D01*
G37*
X11068928Y28892008D02*
X11028794Y28900246D01*
X10806999Y28901795D01*
X10751813Y28891267D01*
X10641541Y29001539D01*
X10592947Y29041454D01*
X10544744Y29081901D01*
X10541603Y29083628D01*
X10538838Y29085899D01*
X10483413Y29115618D01*
X10428275Y29145930D01*
X10424862Y29147013D01*
X10421706Y29148705D01*
X10361565Y29167092D01*
X10301589Y29186118D01*
X10298028Y29186517D01*
X10294605Y29187564D01*
X10232043Y29193919D01*
X10169509Y29200933D01*
X10162510Y29200982D01*
X10162378Y29200995D01*
X10162255Y29200983D01*
X10160001Y29200999D01*
X9119999Y29200999D01*
X9057427Y29194864D01*
X8994729Y29189378D01*
X8991288Y29188378D01*
X8987725Y29188029D01*
X8927518Y29169852D01*
X8867097Y29152298D01*
X8863917Y29150650D01*
X8860490Y29149615D01*
X8804971Y29120095D01*
X8749100Y29091134D01*
X8746300Y29088899D01*
X8743139Y29087218D01*
X8694398Y29047466D01*
X8645229Y29008215D01*
X8640245Y29003300D01*
X8640143Y29003217D01*
X8640065Y29003123D01*
X8638459Y29001539D01*
X8528928Y28892008D01*
X8488794Y28900246D01*
X8266999Y28901795D01*
X8049127Y28860233D01*
X7843477Y28777146D01*
X7657882Y28655696D01*
X7499412Y28500510D01*
X7374102Y28317500D01*
X7286725Y28113635D01*
X7240611Y27896681D01*
X7237514Y27674902D01*
X7277553Y27456746D01*
X7359203Y27250521D01*
X7479354Y27064083D01*
X7633430Y26904533D01*
X7815561Y26777949D01*
X8018811Y26689151D01*
X8235437Y26641523D01*
X8370758Y26638688D01*
X8367329Y26393131D01*
X8373216Y26361053D01*
X8266999Y26361795D01*
X8049127Y26320233D01*
X7843477Y26237146D01*
X7657882Y26115696D01*
X7499412Y25960510D01*
X7374102Y25777500D01*
X7286725Y25573635D01*
X7240611Y25356681D01*
X7237514Y25134902D01*
X7277553Y24916746D01*
X7359203Y24710521D01*
X7479354Y24524083D01*
X7633430Y24364533D01*
X7815561Y24237949D01*
X8018811Y24149151D01*
X8235437Y24101523D01*
X8457189Y24096877D01*
X8675620Y24135393D01*
X8882410Y24215601D01*
X9069682Y24334448D01*
X9230304Y24487406D01*
X9358157Y24668649D01*
X9448371Y24871274D01*
X9497511Y25087562D01*
X9499522Y25231609D01*
X9737982Y25226614D01*
X9778895Y25233828D01*
X9777514Y25134902D01*
X9817553Y24916746D01*
X9899203Y24710521D01*
X10019354Y24524083D01*
X10173430Y24364533D01*
X10355561Y24237949D01*
X10558811Y24149151D01*
X10775437Y24101523D01*
X10997189Y24096877D01*
X11215620Y24135393D01*
X11422410Y24215601D01*
X11609682Y24334448D01*
X11770304Y24487406D01*
X11898157Y24668649D01*
X11988371Y24871274D01*
X12037511Y25087562D01*
X12038171Y25134902D01*
X12317514Y25134902D01*
X12357553Y24916746D01*
X12439203Y24710521D01*
X12559354Y24524083D01*
X12713430Y24364533D01*
X12895561Y24237949D01*
X13098811Y24149151D01*
X13315437Y24101523D01*
X13537189Y24096877D01*
X13755620Y24135393D01*
X13962410Y24215601D01*
X14149682Y24334448D01*
X14310304Y24487406D01*
X14438157Y24668649D01*
X14528371Y24871274D01*
X14577511Y25087562D01*
X14578171Y25134902D01*
X14857514Y25134902D01*
X14897553Y24916746D01*
X14979203Y24710521D01*
X15099354Y24524083D01*
X15253430Y24364533D01*
X15435561Y24237949D01*
X15638811Y24149151D01*
X15855437Y24101523D01*
X16077189Y24096877D01*
X16295620Y24135393D01*
X16373978Y24165786D01*
X17879881Y22659882D01*
X17914202Y22631691D01*
X17948251Y22603120D01*
X17950471Y22601900D01*
X17952422Y22600297D01*
X17991543Y22579320D01*
X18030514Y22557896D01*
X18032925Y22557131D01*
X18035154Y22555936D01*
X18077628Y22542951D01*
X18119994Y22529511D01*
X18122509Y22529229D01*
X18124926Y22528490D01*
X18169116Y22524001D01*
X18213284Y22519047D01*
X18218227Y22519012D01*
X18218320Y22519003D01*
X18218406Y22519011D01*
X18220000Y22519000D01*
X27550764Y22519000D01*
X27818917Y22250847D01*
X27818105Y22192740D01*
X27842213Y22061383D01*
X27891377Y21937210D01*
X27959824Y21831000D01*
X25882122Y21831000D01*
X25836186Y21877258D01*
X25725467Y21951939D01*
X25602352Y22003692D01*
X25471528Y22030546D01*
X25337981Y22031479D01*
X25206795Y22006454D01*
X25082969Y21956425D01*
X24971218Y21883297D01*
X24875800Y21789856D01*
X24800348Y21679662D01*
X24747736Y21556910D01*
X24719970Y21426278D01*
X24718105Y21292740D01*
X24742213Y21161383D01*
X24791377Y21037210D01*
X24863722Y20924952D01*
X24956495Y20828883D01*
X25066160Y20752664D01*
X25188541Y20699197D01*
X25318977Y20670519D01*
X25452498Y20667722D01*
X25584020Y20690913D01*
X25708533Y20739208D01*
X25821294Y20810768D01*
X25882443Y20869000D01*
X31517754Y20869000D01*
X31556495Y20828883D01*
X31666160Y20752664D01*
X31788541Y20699197D01*
X31918977Y20670519D01*
X32052498Y20667722D01*
X32184020Y20690913D01*
X32308533Y20739208D01*
X32421294Y20810768D01*
X32518008Y20902868D01*
X32594991Y21011998D01*
X32649311Y21134003D01*
X32678899Y21264235D01*
X32681029Y21416775D01*
X32655089Y21547783D01*
X32604197Y21671257D01*
X32530291Y21782494D01*
X32436186Y21877258D01*
X32365176Y21925155D01*
X32421294Y21960768D01*
X32518008Y22052868D01*
X32594991Y22161998D01*
X32649311Y22284003D01*
X32678899Y22414235D01*
X32681029Y22566775D01*
X32655089Y22697783D01*
X32604197Y22821257D01*
X32530291Y22932494D01*
X32436186Y23027258D01*
X32325467Y23101939D01*
X32202352Y23153692D01*
X32071528Y23180546D01*
X31937981Y23181479D01*
X31806795Y23156454D01*
X31682969Y23106425D01*
X31571218Y23033297D01*
X31517815Y22981000D01*
X29699236Y22981000D01*
X29171000Y23509236D01*
X29171000Y24203418D01*
X29202410Y24215601D01*
X29389682Y24334448D01*
X29550304Y24487406D01*
X29678157Y24668649D01*
X29768371Y24871274D01*
X29817511Y25087562D01*
X29818171Y25134902D01*
X30097514Y25134902D01*
X30137553Y24916746D01*
X30219203Y24710521D01*
X30339354Y24524083D01*
X30493430Y24364533D01*
X30675561Y24237949D01*
X30878811Y24149151D01*
X31095437Y24101523D01*
X31317189Y24096877D01*
X31535620Y24135393D01*
X31742410Y24215601D01*
X31929682Y24334448D01*
X32090304Y24487406D01*
X32218157Y24668649D01*
X32308371Y24871274D01*
X32357511Y25087562D01*
X32361048Y25340900D01*
X32317967Y25558477D01*
X32233445Y25763541D01*
X32110703Y25948284D01*
X31954415Y26105667D01*
X31770534Y26229696D01*
X31566064Y26315647D01*
X31348794Y26360246D01*
X31126999Y26361795D01*
X30909127Y26320233D01*
X30703477Y26237146D01*
X30517882Y26115696D01*
X30359412Y25960510D01*
X30234102Y25777500D01*
X30146725Y25573635D01*
X30100611Y25356681D01*
X30097514Y25134902D01*
X29818171Y25134902D01*
X29821048Y25340900D01*
X29777967Y25558477D01*
X29693445Y25763541D01*
X29570703Y25948284D01*
X29414415Y26105667D01*
X29230534Y26229696D01*
X29026064Y26315647D01*
X28808794Y26360246D01*
X28586999Y26361795D01*
X28369127Y26320233D01*
X28163477Y26237146D01*
X27977882Y26115696D01*
X27819412Y25960510D01*
X27694102Y25777500D01*
X27606725Y25573635D01*
X27560611Y25356681D01*
X27557514Y25134902D01*
X27597553Y24916746D01*
X27679203Y24710521D01*
X27799354Y24524083D01*
X27953430Y24364533D01*
X28135561Y24237949D01*
X28209000Y24205864D01*
X28209000Y23310000D01*
X28213336Y23265777D01*
X28217208Y23221519D01*
X28217914Y23219087D01*
X28218161Y23216573D01*
X28220106Y23210130D01*
X28090118Y23340118D01*
X28055822Y23368289D01*
X28021749Y23396880D01*
X28019529Y23398100D01*
X28017578Y23399703D01*
X27978457Y23420680D01*
X27939486Y23442104D01*
X27937075Y23442869D01*
X27934846Y23444064D01*
X27892385Y23457045D01*
X27850006Y23470489D01*
X27847489Y23470771D01*
X27845073Y23471510D01*
X27800893Y23475998D01*
X27756716Y23480953D01*
X27751772Y23480988D01*
X27751679Y23480997D01*
X27751593Y23480989D01*
X27750000Y23481000D01*
X18419237Y23481000D01*
X17406846Y24493391D01*
X17794098Y24493391D01*
X17862403Y24310281D01*
X18054659Y24197712D01*
X18265182Y24124813D01*
X18485882Y24094385D01*
X18708278Y24107599D01*
X18923822Y24163946D01*
X19124231Y24261261D01*
X19197597Y24310281D01*
X19265902Y24493391D01*
X18530000Y25229293D01*
X17794098Y24493391D01*
X17406846Y24493391D01*
X17056230Y24844006D01*
X17068371Y24871274D01*
X17117511Y25087562D01*
X17120115Y25274118D01*
X17394385Y25274118D01*
X17407599Y25051722D01*
X17463946Y24836178D01*
X17561261Y24635769D01*
X17610281Y24562403D01*
X17793391Y24494098D01*
X18529293Y25230000D01*
X18530707Y25230000D01*
X19266609Y24494098D01*
X19449719Y24562403D01*
X19562288Y24754659D01*
X19635187Y24965182D01*
X19658586Y25134902D01*
X19937514Y25134902D01*
X19977553Y24916746D01*
X20059203Y24710521D01*
X20179354Y24524083D01*
X20333430Y24364533D01*
X20515561Y24237949D01*
X20718811Y24149151D01*
X20935437Y24101523D01*
X21157189Y24096877D01*
X21375620Y24135393D01*
X21582410Y24215601D01*
X21769682Y24334448D01*
X21930304Y24487406D01*
X22058157Y24668649D01*
X22148371Y24871274D01*
X22197511Y25087562D01*
X22198171Y25134902D01*
X22477514Y25134902D01*
X22517553Y24916746D01*
X22599203Y24710521D01*
X22719354Y24524083D01*
X22873430Y24364533D01*
X23055561Y24237949D01*
X23258811Y24149151D01*
X23475437Y24101523D01*
X23697189Y24096877D01*
X23915620Y24135393D01*
X24122410Y24215601D01*
X24309682Y24334448D01*
X24470304Y24487406D01*
X24598157Y24668649D01*
X24688371Y24871274D01*
X24737511Y25087562D01*
X24738171Y25134902D01*
X25017514Y25134902D01*
X25057553Y24916746D01*
X25139203Y24710521D01*
X25259354Y24524083D01*
X25413430Y24364533D01*
X25595561Y24237949D01*
X25798811Y24149151D01*
X26015437Y24101523D01*
X26237189Y24096877D01*
X26455620Y24135393D01*
X26662410Y24215601D01*
X26849682Y24334448D01*
X27010304Y24487406D01*
X27138157Y24668649D01*
X27228371Y24871274D01*
X27277511Y25087562D01*
X27281048Y25340900D01*
X27237967Y25558477D01*
X27153445Y25763541D01*
X27030703Y25948284D01*
X26874415Y26105667D01*
X26690534Y26229696D01*
X26486064Y26315647D01*
X26268794Y26360246D01*
X26046999Y26361795D01*
X25829127Y26320233D01*
X25623477Y26237146D01*
X25437882Y26115696D01*
X25279412Y25960510D01*
X25154102Y25777500D01*
X25066725Y25573635D01*
X25020611Y25356681D01*
X25017514Y25134902D01*
X24738171Y25134902D01*
X24741048Y25340900D01*
X24697967Y25558477D01*
X24613445Y25763541D01*
X24490703Y25948284D01*
X24334415Y26105667D01*
X24150534Y26229696D01*
X23946064Y26315647D01*
X23728794Y26360246D01*
X23506999Y26361795D01*
X23289127Y26320233D01*
X23083477Y26237146D01*
X22897882Y26115696D01*
X22739412Y25960510D01*
X22614102Y25777500D01*
X22526725Y25573635D01*
X22480611Y25356681D01*
X22477514Y25134902D01*
X22198171Y25134902D01*
X22201048Y25340900D01*
X22157967Y25558477D01*
X22073445Y25763541D01*
X21950703Y25948284D01*
X21794415Y26105667D01*
X21610534Y26229696D01*
X21406064Y26315647D01*
X21188794Y26360246D01*
X20966999Y26361795D01*
X20749127Y26320233D01*
X20543477Y26237146D01*
X20357882Y26115696D01*
X20199412Y25960510D01*
X20074102Y25777500D01*
X19986725Y25573635D01*
X19940611Y25356681D01*
X19937514Y25134902D01*
X19658586Y25134902D01*
X19665615Y25185882D01*
X19652401Y25408278D01*
X19596054Y25623822D01*
X19498739Y25824231D01*
X19449719Y25897597D01*
X19266609Y25965902D01*
X18530707Y25230000D01*
X18529293Y25230000D01*
X17793391Y25965902D01*
X17610281Y25897597D01*
X17497712Y25705341D01*
X17424813Y25494818D01*
X17394385Y25274118D01*
X17120115Y25274118D01*
X17121048Y25340900D01*
X17077967Y25558477D01*
X16993445Y25763541D01*
X16870703Y25948284D01*
X16852506Y25966609D01*
X17794098Y25966609D01*
X18530000Y25230707D01*
X19265902Y25966609D01*
X19197597Y26149719D01*
X19005341Y26262288D01*
X18794818Y26335187D01*
X18574118Y26365615D01*
X18351722Y26352401D01*
X18136178Y26296054D01*
X17935769Y26198739D01*
X17862403Y26149719D01*
X17794098Y25966609D01*
X16852506Y25966609D01*
X16714415Y26105667D01*
X16530534Y26229696D01*
X16326064Y26315647D01*
X16108794Y26360246D01*
X15886999Y26361795D01*
X15669127Y26320233D01*
X15463477Y26237146D01*
X15277882Y26115696D01*
X15119412Y25960510D01*
X14994102Y25777500D01*
X14906725Y25573635D01*
X14860611Y25356681D01*
X14857514Y25134902D01*
X14578171Y25134902D01*
X14581048Y25340900D01*
X14537967Y25558477D01*
X14453445Y25763541D01*
X14330703Y25948284D01*
X14174415Y26105667D01*
X13990534Y26229696D01*
X13786064Y26315647D01*
X13568794Y26360246D01*
X13346999Y26361795D01*
X13129127Y26320233D01*
X12923477Y26237146D01*
X12737882Y26115696D01*
X12579412Y25960510D01*
X12454102Y25777500D01*
X12366725Y25573635D01*
X12320611Y25356681D01*
X12317514Y25134902D01*
X12038171Y25134902D01*
X12041048Y25340900D01*
X11997967Y25558477D01*
X11913445Y25763541D01*
X11790703Y25948284D01*
X11634415Y26105667D01*
X11450534Y26229696D01*
X11246064Y26315647D01*
X11028794Y26360246D01*
X10907375Y26361094D01*
X10911055Y26624628D01*
X10908261Y26638740D01*
X10997189Y26636877D01*
X11215620Y26675393D01*
X11422410Y26755601D01*
X11609682Y26874448D01*
X11770304Y27027406D01*
X11774525Y27033391D01*
X12714098Y27033391D01*
X12782403Y26850281D01*
X12974659Y26737712D01*
X13185182Y26664813D01*
X13405882Y26634385D01*
X13628278Y26647599D01*
X13843822Y26703946D01*
X14044231Y26801261D01*
X14117597Y26850281D01*
X14185902Y27033391D01*
X13450000Y27769293D01*
X12714098Y27033391D01*
X11774525Y27033391D01*
X11898157Y27208649D01*
X11988371Y27411274D01*
X12037511Y27627562D01*
X12041048Y27880900D01*
X12031616Y27928536D01*
X12515595Y28412515D01*
X12417712Y28245341D01*
X12344813Y28034818D01*
X12314385Y27814118D01*
X12327599Y27591722D01*
X12383946Y27376178D01*
X12481261Y27175769D01*
X12530281Y27102403D01*
X12713391Y27034098D01*
X13449293Y27770000D01*
X13435151Y27784142D01*
X13435858Y27784849D01*
X13450000Y27770707D01*
X13464143Y27784849D01*
X13464850Y27784142D01*
X13450707Y27770000D01*
X14186609Y27034098D01*
X14369719Y27102403D01*
X14482288Y27294659D01*
X14555187Y27505182D01*
X14585615Y27725882D01*
X14572401Y27948278D01*
X14516054Y28163822D01*
X14418739Y28364231D01*
X14369719Y28437597D01*
X14186611Y28505901D01*
X14249710Y28569000D01*
X15189351Y28569000D01*
X15119412Y28500510D01*
X14994102Y28317500D01*
X14906725Y28113635D01*
X14860611Y27896681D01*
X14857514Y27674902D01*
X14897553Y27456746D01*
X14979203Y27250521D01*
X15099354Y27064083D01*
X15253430Y26904533D01*
X15435561Y26777949D01*
X15638811Y26689151D01*
X15855437Y26641523D01*
X16077189Y26636877D01*
X16295620Y26675393D01*
X16502410Y26755601D01*
X16689682Y26874448D01*
X16850304Y27027406D01*
X16978157Y27208649D01*
X17068371Y27411274D01*
X17117511Y27627562D01*
X17121048Y27880900D01*
X17077967Y28098477D01*
X16993445Y28303541D01*
X16870703Y28488284D01*
X16790549Y28569000D01*
X17729351Y28569000D01*
X17659412Y28500510D01*
X17534102Y28317500D01*
X17446725Y28113635D01*
X17400611Y27896681D01*
X17397514Y27674902D01*
X17437553Y27456746D01*
X17519203Y27250521D01*
X17639354Y27064083D01*
X17793430Y26904533D01*
X17975561Y26777949D01*
X18178811Y26689151D01*
X18395437Y26641523D01*
X18617189Y26636877D01*
X18835620Y26675393D01*
X19042410Y26755601D01*
X19229682Y26874448D01*
X19390304Y27027406D01*
X19518157Y27208649D01*
X19608371Y27411274D01*
X19657511Y27627562D01*
X19661048Y27880900D01*
X19617967Y28098477D01*
X19533445Y28303541D01*
X19410703Y28488284D01*
X19330549Y28569000D01*
X20269351Y28569000D01*
X20199412Y28500510D01*
X20074102Y28317500D01*
X19986725Y28113635D01*
X19940611Y27896681D01*
X19937514Y27674902D01*
X19977553Y27456746D01*
X20059203Y27250521D01*
X20179354Y27064083D01*
X20333430Y26904533D01*
X20515561Y26777949D01*
X20718811Y26689151D01*
X20935437Y26641523D01*
X21157189Y26636877D01*
X21375620Y26675393D01*
X21582410Y26755601D01*
X21769682Y26874448D01*
X21930304Y27027406D01*
X21934525Y27033391D01*
X22874098Y27033391D01*
X22942403Y26850281D01*
X23134659Y26737712D01*
X23345182Y26664813D01*
X23565882Y26634385D01*
X23788278Y26647599D01*
X24003822Y26703946D01*
X24204231Y26801261D01*
X24277597Y26850281D01*
X24345902Y27033391D01*
X23610000Y27769293D01*
X22874098Y27033391D01*
X21934525Y27033391D01*
X22058157Y27208649D01*
X22148371Y27411274D01*
X22197511Y27627562D01*
X22201048Y27880900D01*
X22157967Y28098477D01*
X22073445Y28303541D01*
X21950703Y28488284D01*
X21870549Y28569000D01*
X22810290Y28569000D01*
X22873389Y28505901D01*
X22690281Y28437597D01*
X22577712Y28245341D01*
X22504813Y28034818D01*
X22474385Y27814118D01*
X22487599Y27591722D01*
X22543946Y27376178D01*
X22641261Y27175769D01*
X22690281Y27102403D01*
X22873391Y27034098D01*
X23609293Y27770000D01*
X23595151Y27784142D01*
X23595858Y27784849D01*
X23610000Y27770707D01*
X23624143Y27784849D01*
X23624850Y27784142D01*
X23610707Y27770000D01*
X24346609Y27034098D01*
X24529719Y27102403D01*
X24642288Y27294659D01*
X24715187Y27505182D01*
X24745615Y27725882D01*
X24732401Y27948278D01*
X24676054Y28163822D01*
X24578739Y28364231D01*
X24529719Y28437597D01*
X24346611Y28505901D01*
X24409710Y28569000D01*
X25349351Y28569000D01*
X25279412Y28500510D01*
X25154102Y28317500D01*
X25066725Y28113635D01*
X25020611Y27896681D01*
X25017514Y27674902D01*
X25057553Y27456746D01*
X25139203Y27250521D01*
X25259354Y27064083D01*
X25413430Y26904533D01*
X25595561Y26777949D01*
X25798811Y26689151D01*
X26015437Y26641523D01*
X26237189Y26636877D01*
X26455620Y26675393D01*
X26662410Y26755601D01*
X26849682Y26874448D01*
X27010304Y27027406D01*
X27138157Y27208649D01*
X27228371Y27411274D01*
X27277511Y27627562D01*
X27281048Y27880900D01*
X27237967Y28098477D01*
X27153445Y28303541D01*
X27030703Y28488284D01*
X26950549Y28569000D01*
X27889351Y28569000D01*
X27819412Y28500510D01*
X27694102Y28317500D01*
X27606725Y28113635D01*
X27560611Y27896681D01*
X27557514Y27674902D01*
X27597553Y27456746D01*
X27679203Y27250521D01*
X27799354Y27064083D01*
X27953430Y26904533D01*
X28135561Y26777949D01*
X28338811Y26689151D01*
X28555437Y26641523D01*
X28777189Y26636877D01*
X28995620Y26675393D01*
X29202410Y26755601D01*
X29389682Y26874448D01*
X29550304Y27027406D01*
X29554525Y27033391D01*
X30494098Y27033391D01*
X30562403Y26850281D01*
X30754659Y26737712D01*
X30965182Y26664813D01*
X31185882Y26634385D01*
X31408278Y26647599D01*
X31623822Y26703946D01*
X31824231Y26801261D01*
X31897597Y26850281D01*
X31965902Y27033391D01*
X31230000Y27769293D01*
X30494098Y27033391D01*
X29554525Y27033391D01*
X29678157Y27208649D01*
X29768371Y27411274D01*
X29817511Y27627562D01*
X29821048Y27880900D01*
X29777967Y28098477D01*
X29693445Y28303541D01*
X29570703Y28488284D01*
X29490549Y28569000D01*
X30430290Y28569000D01*
X30493389Y28505901D01*
X30310281Y28437597D01*
X30197712Y28245341D01*
X30124813Y28034818D01*
X30094385Y27814118D01*
X30107599Y27591722D01*
X30163946Y27376178D01*
X30261261Y27175769D01*
X30310281Y27102403D01*
X30493391Y27034098D01*
X31229293Y27770000D01*
X31215151Y27784142D01*
X31215858Y27784849D01*
X31230000Y27770707D01*
X31244143Y27784849D01*
X31244850Y27784142D01*
X31230707Y27770000D01*
X31966609Y27034098D01*
X32149719Y27102403D01*
X32262288Y27294659D01*
X32335187Y27505182D01*
X32365615Y27725882D01*
X32352401Y27948278D01*
X32296054Y28163822D01*
X32198739Y28364231D01*
X32149719Y28437597D01*
X31966611Y28505901D01*
X32029710Y28569000D01*
X32969351Y28569000D01*
X32899412Y28500510D01*
X32774102Y28317500D01*
X32686725Y28113635D01*
X32640611Y27896681D01*
X32637514Y27674902D01*
X32677553Y27456746D01*
X32759203Y27250521D01*
X32879354Y27064083D01*
X33033430Y26904533D01*
X33215561Y26777949D01*
X33418811Y26689151D01*
X33635437Y26641523D01*
X33857189Y26636877D01*
X34075620Y26675393D01*
X34282410Y26755601D01*
X34319000Y26778822D01*
X34319000Y26223986D01*
X34310534Y26229696D01*
X34106064Y26315647D01*
X33888794Y26360246D01*
X33666999Y26361795D01*
X33449127Y26320233D01*
X33243477Y26237146D01*
X33057882Y26115696D01*
X32899412Y25960510D01*
X32774102Y25777500D01*
X32686725Y25573635D01*
X32640611Y25356681D01*
X32637514Y25134902D01*
X32677553Y24916746D01*
X32759203Y24710521D01*
X32879354Y24524083D01*
X33033430Y24364533D01*
X33215561Y24237949D01*
X33418811Y24149151D01*
X33635437Y24101523D01*
X33857189Y24096877D01*
X34075620Y24135393D01*
X34282410Y24215601D01*
X34319000Y24238822D01*
X34319000Y23250000D01*
X34325135Y23187428D01*
X34330621Y23124730D01*
X34331621Y23121289D01*
X34331970Y23117726D01*
X34350161Y23057473D01*
X34367702Y22997098D01*
X34369348Y22993923D01*
X34370384Y22990491D01*
X34399923Y22934937D01*
X34428865Y22879101D01*
X34431100Y22876301D01*
X34432781Y22873140D01*
X34472533Y22824399D01*
X34511784Y22775230D01*
X34516699Y22770246D01*
X34516782Y22770144D01*
X34516876Y22770066D01*
X34518460Y22768460D01*
X36513092Y20773828D01*
X36556495Y20728883D01*
X36666160Y20652664D01*
X36788541Y20599197D01*
X36918977Y20570519D01*
X37052498Y20567722D01*
X37059746Y20569000D01*
X37741490Y20569000D01*
X37802498Y20567722D01*
X37934020Y20590913D01*
X38058533Y20639208D01*
X38171294Y20710768D01*
X38268008Y20802868D01*
X38344991Y20911998D01*
X38399311Y21034003D01*
X38428899Y21164235D01*
X38429884Y21234791D01*
X38430983Y21245246D01*
X38430157Y21254323D01*
X38431029Y21316775D01*
X38405089Y21447783D01*
X38354197Y21571257D01*
X38280291Y21682494D01*
X38186186Y21777258D01*
X38075467Y21851939D01*
X37952352Y21903692D01*
X37821528Y21930546D01*
X37687981Y21931479D01*
X37685470Y21931000D01*
X37282080Y21931000D01*
X35681000Y23532080D01*
X35681000Y24289770D01*
X35755561Y24237949D01*
X35958811Y24149151D01*
X36175437Y24101523D01*
X36397189Y24096877D01*
X36615620Y24135393D01*
X36822410Y24215601D01*
X37009682Y24334448D01*
X37170304Y24487406D01*
X37298157Y24668649D01*
X37388371Y24871274D01*
X37437511Y25087562D01*
X37439522Y25231609D01*
X37677982Y25226614D01*
X37716801Y25233459D01*
X37727599Y25051722D01*
X37783946Y24836178D01*
X37881261Y24635769D01*
X37930281Y24562403D01*
X38113391Y24494098D01*
X38849293Y25230000D01*
X38835151Y25244142D01*
X38835858Y25244849D01*
X38850000Y25230707D01*
X38864143Y25244849D01*
X38864850Y25244142D01*
X38850707Y25230000D01*
X38864850Y25215857D01*
X38864143Y25215150D01*
X38850000Y25229293D01*
X38114098Y24493391D01*
X38182403Y24310281D01*
X38374659Y24197712D01*
X38585182Y24124813D01*
X38805882Y24094385D01*
X39028278Y24107599D01*
X39243822Y24163946D01*
X39444231Y24261261D01*
X39517597Y24310281D01*
X39585901Y24493389D01*
X39623000Y24456290D01*
X39623000Y1302606D01*
X39321436Y1001042D01*
X39363074Y1138024D01*
X39380100Y1309889D01*
X39380100Y1584889D01*
X38499600Y1584889D01*
X38499600Y1564889D01*
X38498600Y1564889D01*
X38498600Y1584889D01*
X37618100Y1584889D01*
X37618100Y1309889D01*
X37635126Y1138024D01*
X37685354Y972783D01*
X37766854Y820516D01*
X37876493Y687075D01*
X37949779Y627000D01*
X32048421Y627000D01*
X32121707Y687075D01*
X32231346Y820516D01*
X32312846Y972783D01*
X32363074Y1138024D01*
X32380100Y1309889D01*
X32380100Y1584889D01*
X31499600Y1584889D01*
X31499600Y1564889D01*
X31498600Y1564889D01*
X31498600Y1584889D01*
X30618100Y1584889D01*
X30618100Y1309889D01*
X30635126Y1138024D01*
X30685354Y972783D01*
X30766854Y820516D01*
X30876493Y687075D01*
X30949779Y627000D01*
X23457200Y627000D01*
X23457200Y1860889D01*
X30618100Y1860889D01*
X30618100Y1585889D01*
X31498600Y1585889D01*
X31498600Y2646139D01*
X31499600Y2646139D01*
X31499600Y1585889D01*
X32380100Y1585889D01*
X32380100Y1860889D01*
X37618100Y1860889D01*
X37618100Y1585889D01*
X38498600Y1585889D01*
X38498600Y2646139D01*
X38499600Y2646139D01*
X38499600Y1585889D01*
X39380100Y1585889D01*
X39380100Y1860889D01*
X39363074Y2032754D01*
X39312846Y2197995D01*
X39231346Y2350262D01*
X39121707Y2483703D01*
X38988141Y2593191D01*
X38835782Y2674518D01*
X38670484Y2724558D01*
X38637413Y2730464D01*
X38499600Y2646139D01*
X38498600Y2646139D01*
X38360787Y2730464D01*
X38327716Y2724558D01*
X38162418Y2674518D01*
X38010059Y2593191D01*
X37876493Y2483703D01*
X37766854Y2350262D01*
X37685354Y2197995D01*
X37635126Y2032754D01*
X37618100Y1860889D01*
X32380100Y1860889D01*
X32363074Y2032754D01*
X32312846Y2197995D01*
X32231346Y2350262D01*
X32121707Y2483703D01*
X31988141Y2593191D01*
X31835782Y2674518D01*
X31670484Y2724558D01*
X31637413Y2730464D01*
X31499600Y2646139D01*
X31498600Y2646139D01*
X31360787Y2730464D01*
X31327716Y2724558D01*
X31162418Y2674518D01*
X31010059Y2593191D01*
X30876493Y2483703D01*
X30766854Y2350262D01*
X30685354Y2197995D01*
X30635126Y2032754D01*
X30618100Y1860889D01*
X23457200Y1860889D01*
X23457200Y3415800D01*
X6875340Y3415800D01*
X6881145Y3831524D01*
X6817890Y4150987D01*
X31503717Y4150987D01*
X31509449Y4118880D01*
X31558067Y3958272D01*
X31637084Y3810235D01*
X31743463Y3680458D01*
X31873116Y3573928D01*
X32021061Y3494739D01*
X32181612Y3445934D01*
X32348600Y3429389D01*
X32498600Y3429389D01*
X32498600Y4284889D01*
X32499600Y4284889D01*
X32499600Y3429389D01*
X32649600Y3429389D01*
X32816588Y3445934D01*
X32977139Y3494739D01*
X33125084Y3573928D01*
X33254737Y3680458D01*
X33361116Y3810235D01*
X33440133Y3958272D01*
X33488751Y4118880D01*
X33494483Y4150987D01*
X36503717Y4150987D01*
X36509449Y4118880D01*
X36558067Y3958272D01*
X36637084Y3810235D01*
X36743463Y3680458D01*
X36873116Y3573928D01*
X37021061Y3494739D01*
X37181612Y3445934D01*
X37348600Y3429389D01*
X37498600Y3429389D01*
X37498600Y4284889D01*
X37499600Y4284889D01*
X37499600Y3429389D01*
X37649600Y3429389D01*
X37816588Y3445934D01*
X37977139Y3494739D01*
X38125084Y3573928D01*
X38254737Y3680458D01*
X38361116Y3810235D01*
X38440133Y3958272D01*
X38488751Y4118880D01*
X38494483Y4150987D01*
X38409850Y4284889D01*
X37499600Y4284889D01*
X37498600Y4284889D01*
X36588350Y4284889D01*
X36503717Y4150987D01*
X33494483Y4150987D01*
X33409850Y4284889D01*
X32499600Y4284889D01*
X32498600Y4284889D01*
X31588350Y4284889D01*
X31503717Y4150987D01*
X6817890Y4150987D01*
X6752358Y4481945D01*
X6499690Y5094963D01*
X6132765Y5647230D01*
X5665558Y6117710D01*
X5115866Y6488482D01*
X4504626Y6745424D01*
X3855121Y6878748D01*
X3192089Y6883377D01*
X2540785Y6759134D01*
X1926017Y6510752D01*
X1371202Y6147691D01*
X897472Y5683780D01*
X627000Y5288765D01*
X627000Y10192740D01*
X14318105Y10192740D01*
X14342213Y10061383D01*
X14391377Y9937210D01*
X14463722Y9824952D01*
X14556495Y9728883D01*
X14666160Y9652664D01*
X14788541Y9599197D01*
X14840588Y9587754D01*
X19839171Y4589171D01*
X19880642Y4555106D01*
X19921754Y4520609D01*
X19924431Y4519137D01*
X19926792Y4517198D01*
X19974085Y4491840D01*
X20021120Y4465982D01*
X20024033Y4465058D01*
X20026724Y4463615D01*
X20077998Y4447939D01*
X20129203Y4431696D01*
X20132243Y4431355D01*
X20135161Y4430463D01*
X20188517Y4425043D01*
X20241888Y4419057D01*
X20247863Y4419015D01*
X20247971Y4419004D01*
X20248072Y4419014D01*
X20250000Y4419000D01*
X21642656Y4419000D01*
X21666160Y4402664D01*
X21788541Y4349197D01*
X21918977Y4320519D01*
X22052498Y4317722D01*
X22184020Y4340913D01*
X22308533Y4389208D01*
X22355478Y4419000D01*
X26142656Y4419000D01*
X26166160Y4402664D01*
X26288541Y4349197D01*
X26418977Y4320519D01*
X26552498Y4317722D01*
X26684020Y4340913D01*
X26808533Y4389208D01*
X26856724Y4419791D01*
X31503717Y4419791D01*
X31588350Y4285889D01*
X32498600Y4285889D01*
X32498600Y5141389D01*
X32499600Y5141389D01*
X32499600Y4285889D01*
X33409850Y4285889D01*
X33494483Y4419791D01*
X36503717Y4419791D01*
X36588350Y4285889D01*
X37498600Y4285889D01*
X37498600Y5141389D01*
X37499600Y5141389D01*
X37499600Y4285889D01*
X38409850Y4285889D01*
X38494483Y4419791D01*
X38488751Y4451898D01*
X38440133Y4612506D01*
X38361116Y4760543D01*
X38254737Y4890320D01*
X38125084Y4996850D01*
X37977139Y5076039D01*
X37816588Y5124844D01*
X37649600Y5141389D01*
X37499600Y5141389D01*
X37498600Y5141389D01*
X37348600Y5141389D01*
X37181612Y5124844D01*
X37021061Y5076039D01*
X36873116Y4996850D01*
X36743463Y4890320D01*
X36637084Y4760543D01*
X36558067Y4612506D01*
X36509449Y4451898D01*
X36503717Y4419791D01*
X33494483Y4419791D01*
X33488751Y4451898D01*
X33440133Y4612506D01*
X33361116Y4760543D01*
X33254737Y4890320D01*
X33125084Y4996850D01*
X32977139Y5076039D01*
X32816588Y5124844D01*
X32649600Y5141389D01*
X32499600Y5141389D01*
X32498600Y5141389D01*
X32348600Y5141389D01*
X32181612Y5124844D01*
X32021061Y5076039D01*
X31873116Y4996850D01*
X31743463Y4890320D01*
X31637084Y4760543D01*
X31558067Y4612506D01*
X31509449Y4451898D01*
X31503717Y4419791D01*
X26856724Y4419791D01*
X26921294Y4460768D01*
X27018008Y4552868D01*
X27094991Y4661998D01*
X27149311Y4784003D01*
X27178899Y4914235D01*
X27181029Y5066775D01*
X27155089Y5197783D01*
X27104197Y5321257D01*
X27030291Y5432494D01*
X26936186Y5527258D01*
X26825467Y5601939D01*
X26702352Y5653692D01*
X26571528Y5680546D01*
X26437981Y5681479D01*
X26306795Y5656454D01*
X26182969Y5606425D01*
X26144116Y5581000D01*
X22356510Y5581000D01*
X22325467Y5601939D01*
X22202352Y5653692D01*
X22071528Y5680546D01*
X21937981Y5681479D01*
X21806795Y5656454D01*
X21682969Y5606425D01*
X21644116Y5581000D01*
X20490658Y5581000D01*
X15662795Y10408863D01*
X15655089Y10447783D01*
X15604197Y10571257D01*
X15530291Y10682494D01*
X15436186Y10777258D01*
X15325467Y10851939D01*
X15202352Y10903692D01*
X15071528Y10930546D01*
X14937981Y10931479D01*
X14806795Y10906454D01*
X14682969Y10856425D01*
X14571218Y10783297D01*
X14475800Y10689856D01*
X14400348Y10579662D01*
X14347736Y10456910D01*
X14319970Y10326278D01*
X14318105Y10192740D01*
X627000Y10192740D01*
X627000Y16442740D01*
X12818105Y16442740D01*
X12842213Y16311383D01*
X12891377Y16187210D01*
X12919000Y16144347D01*
X12919000Y13856902D01*
X12900348Y13829662D01*
X12847736Y13706910D01*
X12819970Y13576278D01*
X12818105Y13442740D01*
X12842213Y13311383D01*
X12891377Y13187210D01*
X12963722Y13074952D01*
X13056495Y12978883D01*
X13166160Y12902664D01*
X13288541Y12849197D01*
X13418977Y12820519D01*
X13552498Y12817722D01*
X13684020Y12840913D01*
X13808533Y12889208D01*
X13855478Y12919000D01*
X18500000Y12919000D01*
X18553394Y12924235D01*
X18606876Y12928914D01*
X18609813Y12929767D01*
X18612850Y12930065D01*
X18664201Y12945569D01*
X18715765Y12960550D01*
X18718478Y12961956D01*
X18721402Y12962839D01*
X18768757Y12988018D01*
X18816435Y13012732D01*
X18818825Y13014640D01*
X18821520Y13016073D01*
X18863086Y13049973D01*
X18905053Y13083475D01*
X18909305Y13087668D01*
X18909392Y13087739D01*
X18909459Y13087820D01*
X18910829Y13089171D01*
X20407979Y14586321D01*
X20434020Y14590913D01*
X20558533Y14639208D01*
X20605478Y14669000D01*
X25642656Y14669000D01*
X25666160Y14652664D01*
X25788541Y14599197D01*
X25918977Y14570519D01*
X26052498Y14567722D01*
X26184020Y14590913D01*
X26308533Y14639208D01*
X26421294Y14710768D01*
X26518008Y14802868D01*
X26594991Y14911998D01*
X26649311Y15034003D01*
X26678899Y15164235D01*
X26681029Y15316775D01*
X26655089Y15447783D01*
X26604197Y15571257D01*
X26530291Y15682494D01*
X26436186Y15777258D01*
X26325467Y15851939D01*
X26202352Y15903692D01*
X26071528Y15930546D01*
X25937981Y15931479D01*
X25806795Y15906454D01*
X25682969Y15856425D01*
X25644116Y15831000D01*
X20606510Y15831000D01*
X20575467Y15851939D01*
X20452352Y15903692D01*
X20321528Y15930546D01*
X20187981Y15931479D01*
X20056795Y15906454D01*
X19932969Y15856425D01*
X19821218Y15783297D01*
X19725800Y15689856D01*
X19650348Y15579662D01*
X19597736Y15456910D01*
X19587610Y15409268D01*
X18259342Y14081000D01*
X14787371Y14081000D01*
X14808533Y14089208D01*
X14921294Y14160768D01*
X15018008Y14252868D01*
X15094991Y14361998D01*
X15149311Y14484003D01*
X15178899Y14614235D01*
X15181029Y14766775D01*
X15155089Y14897783D01*
X15104197Y15021257D01*
X15030291Y15132494D01*
X14981000Y15182130D01*
X14981000Y17717626D01*
X15018008Y17752868D01*
X15094991Y17861998D01*
X15149311Y17984003D01*
X15178899Y18114235D01*
X15181029Y18266775D01*
X15155089Y18397783D01*
X15104197Y18521257D01*
X15030291Y18632494D01*
X14936186Y18727258D01*
X14825467Y18801939D01*
X14702352Y18853692D01*
X14571528Y18880546D01*
X14437981Y18881479D01*
X14306795Y18856454D01*
X14182969Y18806425D01*
X14071218Y18733297D01*
X13975800Y18639856D01*
X13900348Y18529662D01*
X13847736Y18406910D01*
X13819970Y18276278D01*
X13818105Y18142740D01*
X13842213Y18011383D01*
X13891377Y17887210D01*
X13963722Y17774952D01*
X14019000Y17717710D01*
X14019000Y16943864D01*
X13936186Y17027258D01*
X13825467Y17101939D01*
X13702352Y17153692D01*
X13571528Y17180546D01*
X13437981Y17181479D01*
X13306795Y17156454D01*
X13182969Y17106425D01*
X13071218Y17033297D01*
X12975800Y16939856D01*
X12900348Y16829662D01*
X12847736Y16706910D01*
X12819970Y16576278D01*
X12818105Y16442740D01*
X627000Y16442740D01*
X627000Y19192740D01*
X17068105Y19192740D01*
X17092213Y19061383D01*
X17141377Y18937210D01*
X17213722Y18824952D01*
X17306495Y18728883D01*
X17416160Y18652664D01*
X17538541Y18599197D01*
X17668977Y18570519D01*
X17802498Y18567722D01*
X17934020Y18590913D01*
X18058533Y18639208D01*
X18171294Y18710768D01*
X18268008Y18802868D01*
X18344991Y18911998D01*
X18399311Y19034003D01*
X18428899Y19164235D01*
X18430095Y19249858D01*
X19399237Y20219000D01*
X20317754Y20219000D01*
X20356495Y20178883D01*
X20466160Y20102664D01*
X20588541Y20049197D01*
X20718977Y20020519D01*
X20852498Y20017722D01*
X20984020Y20040913D01*
X21108533Y20089208D01*
X21221294Y20160768D01*
X21318008Y20252868D01*
X21394991Y20361998D01*
X21449311Y20484003D01*
X21478899Y20614235D01*
X21481029Y20766775D01*
X21455089Y20897783D01*
X21404197Y21021257D01*
X21330291Y21132494D01*
X21236186Y21227258D01*
X21125467Y21301939D01*
X21002352Y21353692D01*
X20871528Y21380546D01*
X20737981Y21381479D01*
X20606795Y21356454D01*
X20482969Y21306425D01*
X20371218Y21233297D01*
X20317815Y21181000D01*
X19200000Y21181000D01*
X19155822Y21176668D01*
X19111519Y21172792D01*
X19109087Y21172086D01*
X19106573Y21171839D01*
X19064063Y21159005D01*
X19021372Y21146602D01*
X19019127Y21145438D01*
X19016705Y21144707D01*
X18977491Y21123856D01*
X18938029Y21103401D01*
X18936050Y21101821D01*
X18933819Y21100635D01*
X18899381Y21072549D01*
X18864664Y21044834D01*
X18861145Y21041365D01*
X18861071Y21041304D01*
X18861014Y21041235D01*
X18859882Y21040119D01*
X17750804Y19931040D01*
X17687981Y19931479D01*
X17556795Y19906454D01*
X17432969Y19856425D01*
X17321218Y19783297D01*
X17225800Y19689856D01*
X17150348Y19579662D01*
X17097736Y19456910D01*
X17069970Y19326278D01*
X17068105Y19192740D01*
X627000Y19192740D01*
X627000Y24716388D01*
X837512Y24389738D01*
X1298104Y23912781D01*
X1842566Y23534370D01*
X2450158Y23268920D01*
X3097739Y23126540D01*
X3760642Y23112654D01*
X4413617Y23227791D01*
X5031793Y23467566D01*
X5591623Y23822845D01*
X6071784Y24280096D01*
X6453986Y24821902D01*
X6723672Y25427627D01*
X6870570Y26074198D01*
X6881145Y26831524D01*
X6752358Y27481945D01*
X6499690Y28094963D01*
X6132765Y28647230D01*
X5665558Y29117710D01*
X5287075Y29373000D01*
X11549920Y29373000D01*
X11068928Y28892008D01*
G36*
X59371202Y29147691D02*
X58897472Y28683780D01*
X58522872Y28136690D01*
X58261669Y27527259D01*
X58123814Y26878700D01*
X58114556Y26215716D01*
X58234249Y25563561D01*
X58478333Y24947074D01*
X58837512Y24389738D01*
X59298104Y23912781D01*
X59842566Y23534370D01*
X60450158Y23268920D01*
X61097739Y23126540D01*
X61760642Y23112654D01*
X62413617Y23227791D01*
X63031793Y23467566D01*
X63591623Y23822845D01*
X64071784Y24280096D01*
X64373000Y24707097D01*
X64373000Y22499918D01*
X64342136Y22599580D01*
X64282860Y22689535D01*
X64200870Y22759415D01*
X64102658Y22803686D01*
X63996000Y22818843D01*
X61964000Y22818843D01*
X61903327Y22814005D01*
X61800420Y22782136D01*
X61710465Y22722860D01*
X61640585Y22640870D01*
X61596314Y22542658D01*
X61581157Y22436000D01*
X61581157Y20404000D01*
X61585995Y20343327D01*
X61617864Y20240420D01*
X61677140Y20150465D01*
X61759130Y20080585D01*
X61857342Y20036314D01*
X61964000Y20021157D01*
X62184010Y20021157D01*
X62031348Y19905509D01*
X61849509Y19700731D01*
X61711114Y19464413D01*
X61621482Y19205636D01*
X61600278Y19099033D01*
X61678250Y18880500D01*
X62979500Y18880500D01*
X62979500Y18900500D01*
X62980500Y18900500D01*
X62980500Y18880500D01*
X63000500Y18880500D01*
X63000500Y18879500D01*
X62980500Y18879500D01*
X62980500Y17578250D01*
X63199033Y17500278D01*
X63463995Y17569520D01*
X63710357Y17689123D01*
X63928652Y17854491D01*
X64110491Y18059269D01*
X64248886Y18295587D01*
X64338518Y18554364D01*
X64359722Y18660967D01*
X64281751Y18879498D01*
X64373000Y18879498D01*
X64373000Y15180902D01*
X64302470Y15241015D01*
X64204258Y15285286D01*
X64097600Y15300443D01*
X61862400Y15300443D01*
X61801727Y15295605D01*
X61698820Y15263736D01*
X61608865Y15204460D01*
X61538985Y15122470D01*
X61494714Y15024258D01*
X61479557Y14917600D01*
X61479557Y12682400D01*
X61484395Y12621727D01*
X61516264Y12518820D01*
X61575540Y12428865D01*
X61657530Y12358985D01*
X61755742Y12314714D01*
X61862400Y12299557D01*
X64097600Y12299557D01*
X64158273Y12304395D01*
X64261180Y12336264D01*
X64351135Y12395540D01*
X64373000Y12421194D01*
X64373000Y10100902D01*
X64302470Y10161015D01*
X64204258Y10205286D01*
X64097600Y10220443D01*
X61862400Y10220443D01*
X61801727Y10215605D01*
X61698820Y10183736D01*
X61608865Y10124460D01*
X61538985Y10042470D01*
X61494714Y9944258D01*
X61479557Y9837600D01*
X61479557Y7602400D01*
X61484395Y7541727D01*
X61516264Y7438820D01*
X61575540Y7348865D01*
X61657530Y7278985D01*
X61755742Y7234714D01*
X61862400Y7219557D01*
X64097600Y7219557D01*
X64158273Y7224395D01*
X64261180Y7256264D01*
X64351135Y7315540D01*
X64373000Y7341194D01*
X64373000Y5285647D01*
X64132765Y5647230D01*
X63665558Y6117710D01*
X63115866Y6488482D01*
X62504626Y6745424D01*
X61855121Y6878748D01*
X61192089Y6883377D01*
X60540785Y6759134D01*
X59926017Y6510752D01*
X59371202Y6147691D01*
X58897472Y5683780D01*
X58522872Y5136690D01*
X58261669Y4527259D01*
X58123814Y3878700D01*
X58114556Y3215716D01*
X58234249Y2563561D01*
X58478333Y1947074D01*
X58837512Y1389738D01*
X59298104Y912781D01*
X59709289Y627000D01*
X41302606Y627000D01*
X40627000Y1302606D01*
X40627000Y18660967D01*
X61600278Y18660967D01*
X61621482Y18554364D01*
X61711114Y18295587D01*
X61849509Y18059269D01*
X62031348Y17854491D01*
X62249643Y17689123D01*
X62496005Y17569520D01*
X62760967Y17500278D01*
X62979500Y17578250D01*
X62979500Y18879500D01*
X61678250Y18879500D01*
X61600278Y18660967D01*
X40627000Y18660967D01*
X40627000Y24391902D01*
X40653430Y24364533D01*
X40835561Y24237949D01*
X41038811Y24149151D01*
X41255437Y24101523D01*
X41477189Y24096877D01*
X41695620Y24135393D01*
X41773978Y24165786D01*
X46529882Y19409882D01*
X46564178Y19381711D01*
X46598251Y19353120D01*
X46600471Y19351900D01*
X46602422Y19350297D01*
X46641543Y19329320D01*
X46680514Y19307896D01*
X46682925Y19307131D01*
X46685154Y19305936D01*
X46727615Y19292955D01*
X46769994Y19279511D01*
X46772511Y19279229D01*
X46774927Y19278490D01*
X46819111Y19274002D01*
X46863284Y19269047D01*
X46868227Y19269012D01*
X46868320Y19269003D01*
X46868406Y19269011D01*
X46870000Y19269000D01*
X50517754Y19269000D01*
X50556495Y19228883D01*
X50666160Y19152664D01*
X50788541Y19099197D01*
X50918977Y19070519D01*
X51052498Y19067722D01*
X51184020Y19090913D01*
X51308533Y19139208D01*
X51421294Y19210768D01*
X51518008Y19302868D01*
X51594991Y19411998D01*
X51649311Y19534003D01*
X51678899Y19664235D01*
X51681029Y19816775D01*
X51655089Y19947783D01*
X51604197Y20071257D01*
X51530291Y20182494D01*
X51436186Y20277258D01*
X51325467Y20351939D01*
X51271229Y20374739D01*
X51308533Y20389208D01*
X51421294Y20460768D01*
X51518008Y20552868D01*
X51594991Y20661998D01*
X51649311Y20784003D01*
X51678899Y20914235D01*
X51681029Y21066775D01*
X51655089Y21197783D01*
X51604197Y21321257D01*
X51530291Y21432494D01*
X51436186Y21527258D01*
X51325467Y21601939D01*
X51202352Y21653692D01*
X51071528Y21680546D01*
X50937981Y21681479D01*
X50806795Y21656454D01*
X50682969Y21606425D01*
X50571218Y21533297D01*
X50517815Y21481000D01*
X46875683Y21481000D01*
X44223437Y24133245D01*
X44235620Y24135393D01*
X44442410Y24215601D01*
X44629682Y24334448D01*
X44790304Y24487406D01*
X44918157Y24668649D01*
X45008371Y24871274D01*
X45057511Y25087562D01*
X45058171Y25134902D01*
X45337514Y25134902D01*
X45377553Y24916746D01*
X45459203Y24710521D01*
X45579354Y24524083D01*
X45733430Y24364533D01*
X45915561Y24237949D01*
X46118811Y24149151D01*
X46335437Y24101523D01*
X46557189Y24096877D01*
X46775620Y24135393D01*
X46982410Y24215601D01*
X47169682Y24334448D01*
X47330304Y24487406D01*
X47458157Y24668649D01*
X47548371Y24871274D01*
X47597511Y25087562D01*
X47598171Y25134902D01*
X47877514Y25134902D01*
X47917553Y24916746D01*
X47999203Y24710521D01*
X48119354Y24524083D01*
X48273430Y24364533D01*
X48455561Y24237949D01*
X48658811Y24149151D01*
X48875437Y24101523D01*
X49097189Y24096877D01*
X49315620Y24135393D01*
X49522410Y24215601D01*
X49709682Y24334448D01*
X49870304Y24487406D01*
X49998157Y24668649D01*
X50088371Y24871274D01*
X50137511Y25087562D01*
X50138171Y25134902D01*
X50417514Y25134902D01*
X50457553Y24916746D01*
X50539203Y24710521D01*
X50659354Y24524083D01*
X50813430Y24364533D01*
X50995561Y24237949D01*
X51198811Y24149151D01*
X51415437Y24101523D01*
X51637189Y24096877D01*
X51855620Y24135393D01*
X52062410Y24215601D01*
X52249682Y24334448D01*
X52410304Y24487406D01*
X52538157Y24668649D01*
X52628371Y24871274D01*
X52677511Y25087562D01*
X52681048Y25340900D01*
X52637967Y25558477D01*
X52553445Y25763541D01*
X52430703Y25948284D01*
X52274415Y26105667D01*
X52090534Y26229696D01*
X51886064Y26315647D01*
X51668794Y26360246D01*
X51446999Y26361795D01*
X51229127Y26320233D01*
X51023477Y26237146D01*
X50837882Y26115696D01*
X50679412Y25960510D01*
X50554102Y25777500D01*
X50466725Y25573635D01*
X50420611Y25356681D01*
X50417514Y25134902D01*
X50138171Y25134902D01*
X50141048Y25340900D01*
X50097967Y25558477D01*
X50013445Y25763541D01*
X49890703Y25948284D01*
X49734415Y26105667D01*
X49550534Y26229696D01*
X49346064Y26315647D01*
X49128794Y26360246D01*
X48906999Y26361795D01*
X48689127Y26320233D01*
X48483477Y26237146D01*
X48297882Y26115696D01*
X48139412Y25960510D01*
X48014102Y25777500D01*
X47926725Y25573635D01*
X47880611Y25356681D01*
X47877514Y25134902D01*
X47598171Y25134902D01*
X47601048Y25340900D01*
X47557967Y25558477D01*
X47473445Y25763541D01*
X47350703Y25948284D01*
X47194415Y26105667D01*
X47010534Y26229696D01*
X46806064Y26315647D01*
X46588794Y26360246D01*
X46366999Y26361795D01*
X46149127Y26320233D01*
X45943477Y26237146D01*
X45757882Y26115696D01*
X45599412Y25960510D01*
X45474102Y25777500D01*
X45386725Y25573635D01*
X45340611Y25356681D01*
X45337514Y25134902D01*
X45058171Y25134902D01*
X45061048Y25340900D01*
X45017967Y25558477D01*
X44933445Y25763541D01*
X44810703Y25948284D01*
X44654415Y26105667D01*
X44470534Y26229696D01*
X44266064Y26315647D01*
X44048794Y26360246D01*
X43826999Y26361795D01*
X43609127Y26320233D01*
X43403477Y26237146D01*
X43217882Y26115696D01*
X43059412Y25960510D01*
X42981000Y25845993D01*
X42981000Y26660000D01*
X42976664Y26704223D01*
X42972792Y26748481D01*
X42972086Y26750913D01*
X42971839Y26753427D01*
X42959005Y26795937D01*
X42946602Y26838628D01*
X42945438Y26840873D01*
X42944707Y26843295D01*
X42923856Y26882509D01*
X42903401Y26921971D01*
X42901821Y26923950D01*
X42900635Y26926181D01*
X42872549Y26960619D01*
X42844834Y26995336D01*
X42841368Y26998850D01*
X42841304Y26998929D01*
X42841231Y26998989D01*
X42840118Y27000118D01*
X42806845Y27033391D01*
X43194098Y27033391D01*
X43262403Y26850281D01*
X43454659Y26737712D01*
X43665182Y26664813D01*
X43885882Y26634385D01*
X44108278Y26647599D01*
X44323822Y26703946D01*
X44524231Y26801261D01*
X44597597Y26850281D01*
X44665902Y27033391D01*
X43930000Y27769293D01*
X43194098Y27033391D01*
X42806845Y27033391D01*
X42456230Y27384006D01*
X42468371Y27411274D01*
X42517511Y27627562D01*
X42520115Y27814118D01*
X42794385Y27814118D01*
X42807599Y27591722D01*
X42863946Y27376178D01*
X42961261Y27175769D01*
X43010281Y27102403D01*
X43193391Y27034098D01*
X43929293Y27770000D01*
X43930707Y27770000D01*
X44666609Y27034098D01*
X44849719Y27102403D01*
X44962288Y27294659D01*
X45035187Y27505182D01*
X45058586Y27674902D01*
X45337514Y27674902D01*
X45377553Y27456746D01*
X45459203Y27250521D01*
X45579354Y27064083D01*
X45733430Y26904533D01*
X45915561Y26777949D01*
X46118811Y26689151D01*
X46335437Y26641523D01*
X46557189Y26636877D01*
X46775620Y26675393D01*
X46982410Y26755601D01*
X47169682Y26874448D01*
X47330304Y27027406D01*
X47334525Y27033391D01*
X48274098Y27033391D01*
X48342403Y26850281D01*
X48534659Y26737712D01*
X48745182Y26664813D01*
X48965882Y26634385D01*
X49188278Y26647599D01*
X49403822Y26703946D01*
X49604231Y26801261D01*
X49677597Y26850281D01*
X49745902Y27033391D01*
X49010000Y27769293D01*
X48274098Y27033391D01*
X47334525Y27033391D01*
X47458157Y27208649D01*
X47548371Y27411274D01*
X47597511Y27627562D01*
X47600115Y27814118D01*
X47874385Y27814118D01*
X47887599Y27591722D01*
X47943946Y27376178D01*
X48041261Y27175769D01*
X48090281Y27102403D01*
X48273391Y27034098D01*
X49009293Y27770000D01*
X49010707Y27770000D01*
X49746609Y27034098D01*
X49929719Y27102403D01*
X50042288Y27294659D01*
X50115187Y27505182D01*
X50138586Y27674902D01*
X50417514Y27674902D01*
X50457553Y27456746D01*
X50539203Y27250521D01*
X50659354Y27064083D01*
X50813430Y26904533D01*
X50995561Y26777949D01*
X51198811Y26689151D01*
X51415437Y26641523D01*
X51637189Y26636877D01*
X51855620Y26675393D01*
X52062410Y26755601D01*
X52249682Y26874448D01*
X52410304Y27027406D01*
X52538157Y27208649D01*
X52628371Y27411274D01*
X52677511Y27627562D01*
X52678171Y27674902D01*
X52957514Y27674902D01*
X52997553Y27456746D01*
X53079203Y27250521D01*
X53199354Y27064083D01*
X53353430Y26904533D01*
X53535561Y26777949D01*
X53738811Y26689151D01*
X53955437Y26641523D01*
X54090758Y26638688D01*
X54087329Y26393131D01*
X54093216Y26361053D01*
X53986999Y26361795D01*
X53769127Y26320233D01*
X53563477Y26237146D01*
X53377882Y26115696D01*
X53219412Y25960510D01*
X53094102Y25777500D01*
X53006725Y25573635D01*
X52960611Y25356681D01*
X52957514Y25134902D01*
X52997553Y24916746D01*
X53079203Y24710521D01*
X53199354Y24524083D01*
X53353430Y24364533D01*
X53535561Y24237949D01*
X53738811Y24149151D01*
X53955437Y24101523D01*
X54177189Y24096877D01*
X54395620Y24135393D01*
X54602410Y24215601D01*
X54789682Y24334448D01*
X54950304Y24487406D01*
X54954525Y24493391D01*
X55894098Y24493391D01*
X55962403Y24310281D01*
X56154659Y24197712D01*
X56365182Y24124813D01*
X56585882Y24094385D01*
X56808278Y24107599D01*
X57023822Y24163946D01*
X57224231Y24261261D01*
X57297597Y24310281D01*
X57365902Y24493391D01*
X56630000Y25229293D01*
X55894098Y24493391D01*
X54954525Y24493391D01*
X55078157Y24668649D01*
X55168371Y24871274D01*
X55217511Y25087562D01*
X55219522Y25231609D01*
X55457982Y25226614D01*
X55496801Y25233459D01*
X55507599Y25051722D01*
X55563946Y24836178D01*
X55661261Y24635769D01*
X55710281Y24562403D01*
X55893391Y24494098D01*
X56629293Y25230000D01*
X56630707Y25230000D01*
X57366609Y24494098D01*
X57549719Y24562403D01*
X57662288Y24754659D01*
X57735187Y24965182D01*
X57765615Y25185882D01*
X57752401Y25408278D01*
X57696054Y25623822D01*
X57598739Y25824231D01*
X57549719Y25897597D01*
X57366609Y25965902D01*
X56630707Y25230000D01*
X56629293Y25230000D01*
X56615151Y25244142D01*
X56615858Y25244849D01*
X56630000Y25230707D01*
X57365902Y25966609D01*
X57297597Y26149719D01*
X57105341Y26262288D01*
X56894818Y26335187D01*
X56674118Y26365615D01*
X56627399Y26362839D01*
X56631055Y26624628D01*
X56628261Y26638740D01*
X56717189Y26636877D01*
X56935620Y26675393D01*
X57142410Y26755601D01*
X57329682Y26874448D01*
X57490304Y27027406D01*
X57618157Y27208649D01*
X57708371Y27411274D01*
X57757511Y27627562D01*
X57761048Y27880900D01*
X57717967Y28098477D01*
X57633445Y28303541D01*
X57510703Y28488284D01*
X57354415Y28645667D01*
X57170534Y28769696D01*
X56966064Y28855647D01*
X56748794Y28900246D01*
X56526999Y28901795D01*
X56309127Y28860233D01*
X56103477Y28777146D01*
X55917882Y28655696D01*
X55759412Y28500510D01*
X55634102Y28317500D01*
X55546725Y28113635D01*
X55500611Y27896681D01*
X55498829Y27769060D01*
X55493499Y27770154D01*
X55244249Y27771894D01*
X55219460Y27767165D01*
X55221048Y27880900D01*
X55177967Y28098477D01*
X55093445Y28303541D01*
X54970703Y28488284D01*
X54814415Y28645667D01*
X54630534Y28769696D01*
X54426064Y28855647D01*
X54208794Y28900246D01*
X53986999Y28901795D01*
X53769127Y28860233D01*
X53563477Y28777146D01*
X53377882Y28655696D01*
X53219412Y28500510D01*
X53094102Y28317500D01*
X53006725Y28113635D01*
X52960611Y27896681D01*
X52957514Y27674902D01*
X52678171Y27674902D01*
X52681048Y27880900D01*
X52637967Y28098477D01*
X52553445Y28303541D01*
X52430703Y28488284D01*
X52274415Y28645667D01*
X52090534Y28769696D01*
X51886064Y28855647D01*
X51668794Y28900246D01*
X51446999Y28901795D01*
X51229127Y28860233D01*
X51023477Y28777146D01*
X50837882Y28655696D01*
X50679412Y28500510D01*
X50554102Y28317500D01*
X50466725Y28113635D01*
X50420611Y27896681D01*
X50417514Y27674902D01*
X50138586Y27674902D01*
X50145615Y27725882D01*
X50132401Y27948278D01*
X50076054Y28163822D01*
X49978739Y28364231D01*
X49929719Y28437597D01*
X49746609Y28505902D01*
X49010707Y27770000D01*
X49009293Y27770000D01*
X48273391Y28505902D01*
X48090281Y28437597D01*
X47977712Y28245341D01*
X47904813Y28034818D01*
X47874385Y27814118D01*
X47600115Y27814118D01*
X47601048Y27880900D01*
X47557967Y28098477D01*
X47473445Y28303541D01*
X47350703Y28488284D01*
X47332506Y28506609D01*
X48274098Y28506609D01*
X49010000Y27770707D01*
X49745902Y28506609D01*
X49677597Y28689719D01*
X49485341Y28802288D01*
X49274818Y28875187D01*
X49054118Y28905615D01*
X48831722Y28892401D01*
X48616178Y28836054D01*
X48415769Y28738739D01*
X48342403Y28689719D01*
X48274098Y28506609D01*
X47332506Y28506609D01*
X47194415Y28645667D01*
X47010534Y28769696D01*
X46806064Y28855647D01*
X46588794Y28900246D01*
X46366999Y28901795D01*
X46149127Y28860233D01*
X45943477Y28777146D01*
X45757882Y28655696D01*
X45599412Y28500510D01*
X45474102Y28317500D01*
X45386725Y28113635D01*
X45340611Y27896681D01*
X45337514Y27674902D01*
X45058586Y27674902D01*
X45065615Y27725882D01*
X45052401Y27948278D01*
X44996054Y28163822D01*
X44898739Y28364231D01*
X44849719Y28437597D01*
X44666609Y28505902D01*
X43930707Y27770000D01*
X43929293Y27770000D01*
X43193391Y28505902D01*
X43010281Y28437597D01*
X42897712Y28245341D01*
X42824813Y28034818D01*
X42794385Y27814118D01*
X42520115Y27814118D01*
X42521048Y27880900D01*
X42477967Y28098477D01*
X42393445Y28303541D01*
X42270703Y28488284D01*
X42252506Y28506609D01*
X43194098Y28506609D01*
X43930000Y27770707D01*
X44665902Y28506609D01*
X44597597Y28689719D01*
X44405341Y28802288D01*
X44194818Y28875187D01*
X43974118Y28905615D01*
X43751722Y28892401D01*
X43536178Y28836054D01*
X43335769Y28738739D01*
X43262403Y28689719D01*
X43194098Y28506609D01*
X42252506Y28506609D01*
X42114415Y28645667D01*
X41930534Y28769696D01*
X41726064Y28855647D01*
X41508794Y28900246D01*
X41286999Y28901795D01*
X41069127Y28860233D01*
X40863477Y28777146D01*
X40677882Y28655696D01*
X40627000Y28605868D01*
X40627000Y28697394D01*
X41302606Y29373000D01*
X59715510Y29373000D01*
X59371202Y29147691D01*
X59371202Y29147691D01*
G37*
X59371202Y29147691D02*
X58897472Y28683780D01*
X58522872Y28136690D01*
X58261669Y27527259D01*
X58123814Y26878700D01*
X58114556Y26215716D01*
X58234249Y25563561D01*
X58478333Y24947074D01*
X58837512Y24389738D01*
X59298104Y23912781D01*
X59842566Y23534370D01*
X60450158Y23268920D01*
X61097739Y23126540D01*
X61760642Y23112654D01*
X62413617Y23227791D01*
X63031793Y23467566D01*
X63591623Y23822845D01*
X64071784Y24280096D01*
X64373000Y24707097D01*
X64373000Y22499918D01*
X64342136Y22599580D01*
X64282860Y22689535D01*
X64200870Y22759415D01*
X64102658Y22803686D01*
X63996000Y22818843D01*
X61964000Y22818843D01*
X61903327Y22814005D01*
X61800420Y22782136D01*
X61710465Y22722860D01*
X61640585Y22640870D01*
X61596314Y22542658D01*
X61581157Y22436000D01*
X61581157Y20404000D01*
X61585995Y20343327D01*
X61617864Y20240420D01*
X61677140Y20150465D01*
X61759130Y20080585D01*
X61857342Y20036314D01*
X61964000Y20021157D01*
X62184010Y20021157D01*
X62031348Y19905509D01*
X61849509Y19700731D01*
X61711114Y19464413D01*
X61621482Y19205636D01*
X61600278Y19099033D01*
X61678250Y18880500D01*
X62979500Y18880500D01*
X62979500Y18900500D01*
X62980500Y18900500D01*
X62980500Y18880500D01*
X63000500Y18880500D01*
X63000500Y18879500D01*
X62980500Y18879500D01*
X62980500Y17578250D01*
X63199033Y17500278D01*
X63463995Y17569520D01*
X63710357Y17689123D01*
X63928652Y17854491D01*
X64110491Y18059269D01*
X64248886Y18295587D01*
X64338518Y18554364D01*
X64359722Y18660967D01*
X64281751Y18879498D01*
X64373000Y18879498D01*
X64373000Y15180902D01*
X64302470Y15241015D01*
X64204258Y15285286D01*
X64097600Y15300443D01*
X61862400Y15300443D01*
X61801727Y15295605D01*
X61698820Y15263736D01*
X61608865Y15204460D01*
X61538985Y15122470D01*
X61494714Y15024258D01*
X61479557Y14917600D01*
X61479557Y12682400D01*
X61484395Y12621727D01*
X61516264Y12518820D01*
X61575540Y12428865D01*
X61657530Y12358985D01*
X61755742Y12314714D01*
X61862400Y12299557D01*
X64097600Y12299557D01*
X64158273Y12304395D01*
X64261180Y12336264D01*
X64351135Y12395540D01*
X64373000Y12421194D01*
X64373000Y10100902D01*
X64302470Y10161015D01*
X64204258Y10205286D01*
X64097600Y10220443D01*
X61862400Y10220443D01*
X61801727Y10215605D01*
X61698820Y10183736D01*
X61608865Y10124460D01*
X61538985Y10042470D01*
X61494714Y9944258D01*
X61479557Y9837600D01*
X61479557Y7602400D01*
X61484395Y7541727D01*
X61516264Y7438820D01*
X61575540Y7348865D01*
X61657530Y7278985D01*
X61755742Y7234714D01*
X61862400Y7219557D01*
X64097600Y7219557D01*
X64158273Y7224395D01*
X64261180Y7256264D01*
X64351135Y7315540D01*
X64373000Y7341194D01*
X64373000Y5285647D01*
X64132765Y5647230D01*
X63665558Y6117710D01*
X63115866Y6488482D01*
X62504626Y6745424D01*
X61855121Y6878748D01*
X61192089Y6883377D01*
X60540785Y6759134D01*
X59926017Y6510752D01*
X59371202Y6147691D01*
X58897472Y5683780D01*
X58522872Y5136690D01*
X58261669Y4527259D01*
X58123814Y3878700D01*
X58114556Y3215716D01*
X58234249Y2563561D01*
X58478333Y1947074D01*
X58837512Y1389738D01*
X59298104Y912781D01*
X59709289Y627000D01*
X41302606Y627000D01*
X40627000Y1302606D01*
X40627000Y18660967D01*
X61600278Y18660967D01*
X61621482Y18554364D01*
X61711114Y18295587D01*
X61849509Y18059269D01*
X62031348Y17854491D01*
X62249643Y17689123D01*
X62496005Y17569520D01*
X62760967Y17500278D01*
X62979500Y17578250D01*
X62979500Y18879500D01*
X61678250Y18879500D01*
X61600278Y18660967D01*
X40627000Y18660967D01*
X40627000Y24391902D01*
X40653430Y24364533D01*
X40835561Y24237949D01*
X41038811Y24149151D01*
X41255437Y24101523D01*
X41477189Y24096877D01*
X41695620Y24135393D01*
X41773978Y24165786D01*
X46529882Y19409882D01*
X46564178Y19381711D01*
X46598251Y19353120D01*
X46600471Y19351900D01*
X46602422Y19350297D01*
X46641543Y19329320D01*
X46680514Y19307896D01*
X46682925Y19307131D01*
X46685154Y19305936D01*
X46727615Y19292955D01*
X46769994Y19279511D01*
X46772511Y19279229D01*
X46774927Y19278490D01*
X46819111Y19274002D01*
X46863284Y19269047D01*
X46868227Y19269012D01*
X46868320Y19269003D01*
X46868406Y19269011D01*
X46870000Y19269000D01*
X50517754Y19269000D01*
X50556495Y19228883D01*
X50666160Y19152664D01*
X50788541Y19099197D01*
X50918977Y19070519D01*
X51052498Y19067722D01*
X51184020Y19090913D01*
X51308533Y19139208D01*
X51421294Y19210768D01*
X51518008Y19302868D01*
X51594991Y19411998D01*
X51649311Y19534003D01*
X51678899Y19664235D01*
X51681029Y19816775D01*
X51655089Y19947783D01*
X51604197Y20071257D01*
X51530291Y20182494D01*
X51436186Y20277258D01*
X51325467Y20351939D01*
X51271229Y20374739D01*
X51308533Y20389208D01*
X51421294Y20460768D01*
X51518008Y20552868D01*
X51594991Y20661998D01*
X51649311Y20784003D01*
X51678899Y20914235D01*
X51681029Y21066775D01*
X51655089Y21197783D01*
X51604197Y21321257D01*
X51530291Y21432494D01*
X51436186Y21527258D01*
X51325467Y21601939D01*
X51202352Y21653692D01*
X51071528Y21680546D01*
X50937981Y21681479D01*
X50806795Y21656454D01*
X50682969Y21606425D01*
X50571218Y21533297D01*
X50517815Y21481000D01*
X46875683Y21481000D01*
X44223437Y24133245D01*
X44235620Y24135393D01*
X44442410Y24215601D01*
X44629682Y24334448D01*
X44790304Y24487406D01*
X44918157Y24668649D01*
X45008371Y24871274D01*
X45057511Y25087562D01*
X45058171Y25134902D01*
X45337514Y25134902D01*
X45377553Y24916746D01*
X45459203Y24710521D01*
X45579354Y24524083D01*
X45733430Y24364533D01*
X45915561Y24237949D01*
X46118811Y24149151D01*
X46335437Y24101523D01*
X46557189Y24096877D01*
X46775620Y24135393D01*
X46982410Y24215601D01*
X47169682Y24334448D01*
X47330304Y24487406D01*
X47458157Y24668649D01*
X47548371Y24871274D01*
X47597511Y25087562D01*
X47598171Y25134902D01*
X47877514Y25134902D01*
X47917553Y24916746D01*
X47999203Y24710521D01*
X48119354Y24524083D01*
X48273430Y24364533D01*
X48455561Y24237949D01*
X48658811Y24149151D01*
X48875437Y24101523D01*
X49097189Y24096877D01*
X49315620Y24135393D01*
X49522410Y24215601D01*
X49709682Y24334448D01*
X49870304Y24487406D01*
X49998157Y24668649D01*
X50088371Y24871274D01*
X50137511Y25087562D01*
X50138171Y25134902D01*
X50417514Y25134902D01*
X50457553Y24916746D01*
X50539203Y24710521D01*
X50659354Y24524083D01*
X50813430Y24364533D01*
X50995561Y24237949D01*
X51198811Y24149151D01*
X51415437Y24101523D01*
X51637189Y24096877D01*
X51855620Y24135393D01*
X52062410Y24215601D01*
X52249682Y24334448D01*
X52410304Y24487406D01*
X52538157Y24668649D01*
X52628371Y24871274D01*
X52677511Y25087562D01*
X52681048Y25340900D01*
X52637967Y25558477D01*
X52553445Y25763541D01*
X52430703Y25948284D01*
X52274415Y26105667D01*
X52090534Y26229696D01*
X51886064Y26315647D01*
X51668794Y26360246D01*
X51446999Y26361795D01*
X51229127Y26320233D01*
X51023477Y26237146D01*
X50837882Y26115696D01*
X50679412Y25960510D01*
X50554102Y25777500D01*
X50466725Y25573635D01*
X50420611Y25356681D01*
X50417514Y25134902D01*
X50138171Y25134902D01*
X50141048Y25340900D01*
X50097967Y25558477D01*
X50013445Y25763541D01*
X49890703Y25948284D01*
X49734415Y26105667D01*
X49550534Y26229696D01*
X49346064Y26315647D01*
X49128794Y26360246D01*
X48906999Y26361795D01*
X48689127Y26320233D01*
X48483477Y26237146D01*
X48297882Y26115696D01*
X48139412Y25960510D01*
X48014102Y25777500D01*
X47926725Y25573635D01*
X47880611Y25356681D01*
X47877514Y25134902D01*
X47598171Y25134902D01*
X47601048Y25340900D01*
X47557967Y25558477D01*
X47473445Y25763541D01*
X47350703Y25948284D01*
X47194415Y26105667D01*
X47010534Y26229696D01*
X46806064Y26315647D01*
X46588794Y26360246D01*
X46366999Y26361795D01*
X46149127Y26320233D01*
X45943477Y26237146D01*
X45757882Y26115696D01*
X45599412Y25960510D01*
X45474102Y25777500D01*
X45386725Y25573635D01*
X45340611Y25356681D01*
X45337514Y25134902D01*
X45058171Y25134902D01*
X45061048Y25340900D01*
X45017967Y25558477D01*
X44933445Y25763541D01*
X44810703Y25948284D01*
X44654415Y26105667D01*
X44470534Y26229696D01*
X44266064Y26315647D01*
X44048794Y26360246D01*
X43826999Y26361795D01*
X43609127Y26320233D01*
X43403477Y26237146D01*
X43217882Y26115696D01*
X43059412Y25960510D01*
X42981000Y25845993D01*
X42981000Y26660000D01*
X42976664Y26704223D01*
X42972792Y26748481D01*
X42972086Y26750913D01*
X42971839Y26753427D01*
X42959005Y26795937D01*
X42946602Y26838628D01*
X42945438Y26840873D01*
X42944707Y26843295D01*
X42923856Y26882509D01*
X42903401Y26921971D01*
X42901821Y26923950D01*
X42900635Y26926181D01*
X42872549Y26960619D01*
X42844834Y26995336D01*
X42841368Y26998850D01*
X42841304Y26998929D01*
X42841231Y26998989D01*
X42840118Y27000118D01*
X42806845Y27033391D01*
X43194098Y27033391D01*
X43262403Y26850281D01*
X43454659Y26737712D01*
X43665182Y26664813D01*
X43885882Y26634385D01*
X44108278Y26647599D01*
X44323822Y26703946D01*
X44524231Y26801261D01*
X44597597Y26850281D01*
X44665902Y27033391D01*
X43930000Y27769293D01*
X43194098Y27033391D01*
X42806845Y27033391D01*
X42456230Y27384006D01*
X42468371Y27411274D01*
X42517511Y27627562D01*
X42520115Y27814118D01*
X42794385Y27814118D01*
X42807599Y27591722D01*
X42863946Y27376178D01*
X42961261Y27175769D01*
X43010281Y27102403D01*
X43193391Y27034098D01*
X43929293Y27770000D01*
X43930707Y27770000D01*
X44666609Y27034098D01*
X44849719Y27102403D01*
X44962288Y27294659D01*
X45035187Y27505182D01*
X45058586Y27674902D01*
X45337514Y27674902D01*
X45377553Y27456746D01*
X45459203Y27250521D01*
X45579354Y27064083D01*
X45733430Y26904533D01*
X45915561Y26777949D01*
X46118811Y26689151D01*
X46335437Y26641523D01*
X46557189Y26636877D01*
X46775620Y26675393D01*
X46982410Y26755601D01*
X47169682Y26874448D01*
X47330304Y27027406D01*
X47334525Y27033391D01*
X48274098Y27033391D01*
X48342403Y26850281D01*
X48534659Y26737712D01*
X48745182Y26664813D01*
X48965882Y26634385D01*
X49188278Y26647599D01*
X49403822Y26703946D01*
X49604231Y26801261D01*
X49677597Y26850281D01*
X49745902Y27033391D01*
X49010000Y27769293D01*
X48274098Y27033391D01*
X47334525Y27033391D01*
X47458157Y27208649D01*
X47548371Y27411274D01*
X47597511Y27627562D01*
X47600115Y27814118D01*
X47874385Y27814118D01*
X47887599Y27591722D01*
X47943946Y27376178D01*
X48041261Y27175769D01*
X48090281Y27102403D01*
X48273391Y27034098D01*
X49009293Y27770000D01*
X49010707Y27770000D01*
X49746609Y27034098D01*
X49929719Y27102403D01*
X50042288Y27294659D01*
X50115187Y27505182D01*
X50138586Y27674902D01*
X50417514Y27674902D01*
X50457553Y27456746D01*
X50539203Y27250521D01*
X50659354Y27064083D01*
X50813430Y26904533D01*
X50995561Y26777949D01*
X51198811Y26689151D01*
X51415437Y26641523D01*
X51637189Y26636877D01*
X51855620Y26675393D01*
X52062410Y26755601D01*
X52249682Y26874448D01*
X52410304Y27027406D01*
X52538157Y27208649D01*
X52628371Y27411274D01*
X52677511Y27627562D01*
X52678171Y27674902D01*
X52957514Y27674902D01*
X52997553Y27456746D01*
X53079203Y27250521D01*
X53199354Y27064083D01*
X53353430Y26904533D01*
X53535561Y26777949D01*
X53738811Y26689151D01*
X53955437Y26641523D01*
X54090758Y26638688D01*
X54087329Y26393131D01*
X54093216Y26361053D01*
X53986999Y26361795D01*
X53769127Y26320233D01*
X53563477Y26237146D01*
X53377882Y26115696D01*
X53219412Y25960510D01*
X53094102Y25777500D01*
X53006725Y25573635D01*
X52960611Y25356681D01*
X52957514Y25134902D01*
X52997553Y24916746D01*
X53079203Y24710521D01*
X53199354Y24524083D01*
X53353430Y24364533D01*
X53535561Y24237949D01*
X53738811Y24149151D01*
X53955437Y24101523D01*
X54177189Y24096877D01*
X54395620Y24135393D01*
X54602410Y24215601D01*
X54789682Y24334448D01*
X54950304Y24487406D01*
X54954525Y24493391D01*
X55894098Y24493391D01*
X55962403Y24310281D01*
X56154659Y24197712D01*
X56365182Y24124813D01*
X56585882Y24094385D01*
X56808278Y24107599D01*
X57023822Y24163946D01*
X57224231Y24261261D01*
X57297597Y24310281D01*
X57365902Y24493391D01*
X56630000Y25229293D01*
X55894098Y24493391D01*
X54954525Y24493391D01*
X55078157Y24668649D01*
X55168371Y24871274D01*
X55217511Y25087562D01*
X55219522Y25231609D01*
X55457982Y25226614D01*
X55496801Y25233459D01*
X55507599Y25051722D01*
X55563946Y24836178D01*
X55661261Y24635769D01*
X55710281Y24562403D01*
X55893391Y24494098D01*
X56629293Y25230000D01*
X56630707Y25230000D01*
X57366609Y24494098D01*
X57549719Y24562403D01*
X57662288Y24754659D01*
X57735187Y24965182D01*
X57765615Y25185882D01*
X57752401Y25408278D01*
X57696054Y25623822D01*
X57598739Y25824231D01*
X57549719Y25897597D01*
X57366609Y25965902D01*
X56630707Y25230000D01*
X56629293Y25230000D01*
X56615151Y25244142D01*
X56615858Y25244849D01*
X56630000Y25230707D01*
X57365902Y25966609D01*
X57297597Y26149719D01*
X57105341Y26262288D01*
X56894818Y26335187D01*
X56674118Y26365615D01*
X56627399Y26362839D01*
X56631055Y26624628D01*
X56628261Y26638740D01*
X56717189Y26636877D01*
X56935620Y26675393D01*
X57142410Y26755601D01*
X57329682Y26874448D01*
X57490304Y27027406D01*
X57618157Y27208649D01*
X57708371Y27411274D01*
X57757511Y27627562D01*
X57761048Y27880900D01*
X57717967Y28098477D01*
X57633445Y28303541D01*
X57510703Y28488284D01*
X57354415Y28645667D01*
X57170534Y28769696D01*
X56966064Y28855647D01*
X56748794Y28900246D01*
X56526999Y28901795D01*
X56309127Y28860233D01*
X56103477Y28777146D01*
X55917882Y28655696D01*
X55759412Y28500510D01*
X55634102Y28317500D01*
X55546725Y28113635D01*
X55500611Y27896681D01*
X55498829Y27769060D01*
X55493499Y27770154D01*
X55244249Y27771894D01*
X55219460Y27767165D01*
X55221048Y27880900D01*
X55177967Y28098477D01*
X55093445Y28303541D01*
X54970703Y28488284D01*
X54814415Y28645667D01*
X54630534Y28769696D01*
X54426064Y28855647D01*
X54208794Y28900246D01*
X53986999Y28901795D01*
X53769127Y28860233D01*
X53563477Y28777146D01*
X53377882Y28655696D01*
X53219412Y28500510D01*
X53094102Y28317500D01*
X53006725Y28113635D01*
X52960611Y27896681D01*
X52957514Y27674902D01*
X52678171Y27674902D01*
X52681048Y27880900D01*
X52637967Y28098477D01*
X52553445Y28303541D01*
X52430703Y28488284D01*
X52274415Y28645667D01*
X52090534Y28769696D01*
X51886064Y28855647D01*
X51668794Y28900246D01*
X51446999Y28901795D01*
X51229127Y28860233D01*
X51023477Y28777146D01*
X50837882Y28655696D01*
X50679412Y28500510D01*
X50554102Y28317500D01*
X50466725Y28113635D01*
X50420611Y27896681D01*
X50417514Y27674902D01*
X50138586Y27674902D01*
X50145615Y27725882D01*
X50132401Y27948278D01*
X50076054Y28163822D01*
X49978739Y28364231D01*
X49929719Y28437597D01*
X49746609Y28505902D01*
X49010707Y27770000D01*
X49009293Y27770000D01*
X48273391Y28505902D01*
X48090281Y28437597D01*
X47977712Y28245341D01*
X47904813Y28034818D01*
X47874385Y27814118D01*
X47600115Y27814118D01*
X47601048Y27880900D01*
X47557967Y28098477D01*
X47473445Y28303541D01*
X47350703Y28488284D01*
X47332506Y28506609D01*
X48274098Y28506609D01*
X49010000Y27770707D01*
X49745902Y28506609D01*
X49677597Y28689719D01*
X49485341Y28802288D01*
X49274818Y28875187D01*
X49054118Y28905615D01*
X48831722Y28892401D01*
X48616178Y28836054D01*
X48415769Y28738739D01*
X48342403Y28689719D01*
X48274098Y28506609D01*
X47332506Y28506609D01*
X47194415Y28645667D01*
X47010534Y28769696D01*
X46806064Y28855647D01*
X46588794Y28900246D01*
X46366999Y28901795D01*
X46149127Y28860233D01*
X45943477Y28777146D01*
X45757882Y28655696D01*
X45599412Y28500510D01*
X45474102Y28317500D01*
X45386725Y28113635D01*
X45340611Y27896681D01*
X45337514Y27674902D01*
X45058586Y27674902D01*
X45065615Y27725882D01*
X45052401Y27948278D01*
X44996054Y28163822D01*
X44898739Y28364231D01*
X44849719Y28437597D01*
X44666609Y28505902D01*
X43930707Y27770000D01*
X43929293Y27770000D01*
X43193391Y28505902D01*
X43010281Y28437597D01*
X42897712Y28245341D01*
X42824813Y28034818D01*
X42794385Y27814118D01*
X42520115Y27814118D01*
X42521048Y27880900D01*
X42477967Y28098477D01*
X42393445Y28303541D01*
X42270703Y28488284D01*
X42252506Y28506609D01*
X43194098Y28506609D01*
X43930000Y27770707D01*
X44665902Y28506609D01*
X44597597Y28689719D01*
X44405341Y28802288D01*
X44194818Y28875187D01*
X43974118Y28905615D01*
X43751722Y28892401D01*
X43536178Y28836054D01*
X43335769Y28738739D01*
X43262403Y28689719D01*
X43194098Y28506609D01*
X42252506Y28506609D01*
X42114415Y28645667D01*
X41930534Y28769696D01*
X41726064Y28855647D01*
X41508794Y28900246D01*
X41286999Y28901795D01*
X41069127Y28860233D01*
X40863477Y28777146D01*
X40677882Y28655696D01*
X40627000Y28605868D01*
X40627000Y28697394D01*
X41302606Y29373000D01*
X59715510Y29373000D01*
X59371202Y29147691D01*
M02*
