M48
METRIC,TZ
T1C0.400
T2C0.500
T3C0.550
T4C1.016
T5C3.000
T6C1.780
%
G90
G05
T1
X001200Y011100
X006800Y019600
X008000Y014700
X009250Y004000
X009500Y017500
X011500Y008600
X012000Y020700
X012500Y012500
X012500Y004000
X013500Y016500
X013500Y013500
X014000Y022200
X014500Y018200
X014500Y014700
X015000Y010250
X015500Y004500
X017250Y009250
X017750Y019250
X019500Y004250
X019750Y017250
X020250Y015250
X020250Y012250
X020800Y020700
X021000Y007500
X021650Y022000
X021750Y013500
X022000Y005000
X022250Y007500
X023500Y010000
X023500Y007500
X024200Y018200
X024750Y010000
X024750Y007500
X025400Y021350
X025500Y001250
X026000Y015250
X026000Y010000
X026000Y007500
X026500Y013500
X026500Y012000
X026500Y005000
X028500Y022250
X029600Y016250
X030000Y001250
X030500Y012000
X032000Y022500
X032000Y021350
X033500Y007000
X034000Y010250
X035000Y009250
X036000Y008250
X036000Y007000
X036000Y005750
X037000Y021250
X037250Y017000
X037250Y012000
X037750Y021250
X042750Y006850
X044250Y020750
X048250Y006900
X049500Y021750
X051000Y021000
X051000Y019750
X051000Y006900
X052720Y010399
X055250Y006950
X056000Y012200
X057000Y006950
T4
X008370Y027770
X008370Y025230
X010910Y027770
X010910Y025230
X013450Y027770
X013450Y025230
X015990Y027770
X015990Y025230
X018530Y027770
X018530Y025230
X021070Y027770
X021070Y025230
X023610Y027770
X023610Y025230
X026150Y027770
X026150Y025230
X028690Y027770
X028690Y025230
X031230Y027770
X031230Y025230
X033770Y027770
X033770Y025230
X036310Y027770
X036310Y025230
X038850Y027770
X038850Y025230
X041390Y027770
X041390Y025230
X043930Y027770
X043930Y025230
X046470Y027770
X046470Y025230
X049010Y027770
X049010Y025230
X051550Y027770
X051550Y025230
X054090Y027770
X054090Y025230
X056630Y027770
X056630Y025230
X062980Y021420
X062980Y018880
X062980Y013800
X062980Y008720
T5
X003500Y026500
X003500Y003500
X061500Y026500
X061500Y003500
T6
X009640Y026500
X037580Y026500
X055360Y026500
T2
X031499Y001260G85X031499Y001910
G05
X038499Y001260G85X038499Y001910
G05
T3
X032349Y004285G85X032649Y004285
G05
X037349Y004285G85X037649Y004285
G05
T0
M30
