G04 #@! TF.FileFunction,Paste,Top*
%FSLAX46Y46*%
G04 Gerber Fmt 4.6, Leading zero omitted, Abs format (unit mm)*
G04 Created by KiCad (PCBNEW 4.0.0-stable) date Tuesday, February 02, 2016 'AMt' 02:20:54 AM*
%MOMM*%
G01*
G04 APERTURE LIST*
%ADD10C,0.100000*%
%ADD11R,0.900000X0.500000*%
%ADD12R,0.800000X0.750000*%
%ADD13R,1.501140X2.148840*%
%ADD14R,0.750000X0.800000*%
%ADD15R,2.148840X1.501140*%
%ADD16R,0.797560X0.797560*%
%ADD17R,0.400000X1.350000*%
%ADD18R,0.500000X0.900000*%
%ADD19R,1.700000X0.900000*%
%ADD20R,0.450000X1.450000*%
%ADD21R,0.749300X0.398780*%
%ADD22R,1.300000X1.050000*%
%ADD23R,0.889000X1.680000*%
%ADD24R,0.800100X0.800100*%
%ADD25R,1.060000X0.650000*%
%ADD26R,0.600000X0.900000*%
%ADD27R,0.600000X0.500000*%
%ADD28R,1.550000X0.600000*%
G04 APERTURE END LIST*
D10*
G36*
X138515254Y-112606423D02*
X138303122Y-112818555D01*
X137242462Y-111757895D01*
X137454594Y-111545763D01*
X138515254Y-112606423D01*
X138515254Y-112606423D01*
G37*
G36*
X138868808Y-112252870D02*
X138656676Y-112465002D01*
X137596016Y-111404342D01*
X137808148Y-111192210D01*
X138868808Y-112252870D01*
X138868808Y-112252870D01*
G37*
G36*
X139222361Y-111899316D02*
X139010229Y-112111448D01*
X137949569Y-111050788D01*
X138161701Y-110838656D01*
X139222361Y-111899316D01*
X139222361Y-111899316D01*
G37*
G36*
X139575914Y-111545763D02*
X139363782Y-111757895D01*
X138303122Y-110697235D01*
X138515254Y-110485103D01*
X139575914Y-111545763D01*
X139575914Y-111545763D01*
G37*
G36*
X139929468Y-111192210D02*
X139717336Y-111404342D01*
X138656676Y-110343682D01*
X138868808Y-110131550D01*
X139929468Y-111192210D01*
X139929468Y-111192210D01*
G37*
G36*
X140283021Y-110838656D02*
X140070889Y-111050788D01*
X139010229Y-109990128D01*
X139222361Y-109777996D01*
X140283021Y-110838656D01*
X140283021Y-110838656D01*
G37*
G36*
X140636575Y-110485103D02*
X140424443Y-110697235D01*
X139363783Y-109636575D01*
X139575915Y-109424443D01*
X140636575Y-110485103D01*
X140636575Y-110485103D01*
G37*
G36*
X140990128Y-110131549D02*
X140777996Y-110343681D01*
X139717336Y-109283021D01*
X139929468Y-109070889D01*
X140990128Y-110131549D01*
X140990128Y-110131549D01*
G37*
G36*
X141343681Y-109777996D02*
X141131549Y-109990128D01*
X140070889Y-108929468D01*
X140283021Y-108717336D01*
X141343681Y-109777996D01*
X141343681Y-109777996D01*
G37*
G36*
X141697235Y-109424443D02*
X141485103Y-109636575D01*
X140424443Y-108575915D01*
X140636575Y-108363783D01*
X141697235Y-109424443D01*
X141697235Y-109424443D01*
G37*
G36*
X142050788Y-109070889D02*
X141838656Y-109283021D01*
X140777996Y-108222361D01*
X140990128Y-108010229D01*
X142050788Y-109070889D01*
X142050788Y-109070889D01*
G37*
G36*
X142404342Y-108717336D02*
X142192210Y-108929468D01*
X141131550Y-107868808D01*
X141343682Y-107656676D01*
X142404342Y-108717336D01*
X142404342Y-108717336D01*
G37*
G36*
X142757895Y-108363782D02*
X142545763Y-108575914D01*
X141485103Y-107515254D01*
X141697235Y-107303122D01*
X142757895Y-108363782D01*
X142757895Y-108363782D01*
G37*
G36*
X143111448Y-108010229D02*
X142899316Y-108222361D01*
X141838656Y-107161701D01*
X142050788Y-106949569D01*
X143111448Y-108010229D01*
X143111448Y-108010229D01*
G37*
G36*
X143465002Y-107656676D02*
X143252870Y-107868808D01*
X142192210Y-106808148D01*
X142404342Y-106596016D01*
X143465002Y-107656676D01*
X143465002Y-107656676D01*
G37*
G36*
X143818555Y-107303122D02*
X143606423Y-107515254D01*
X142545763Y-106454594D01*
X142757895Y-106242462D01*
X143818555Y-107303122D01*
X143818555Y-107303122D01*
G37*
G36*
X143606423Y-103484746D02*
X143818555Y-103696878D01*
X142757895Y-104757538D01*
X142545763Y-104545406D01*
X143606423Y-103484746D01*
X143606423Y-103484746D01*
G37*
G36*
X143252870Y-103131192D02*
X143465002Y-103343324D01*
X142404342Y-104403984D01*
X142192210Y-104191852D01*
X143252870Y-103131192D01*
X143252870Y-103131192D01*
G37*
G36*
X142899316Y-102777639D02*
X143111448Y-102989771D01*
X142050788Y-104050431D01*
X141838656Y-103838299D01*
X142899316Y-102777639D01*
X142899316Y-102777639D01*
G37*
G36*
X142545763Y-102424086D02*
X142757895Y-102636218D01*
X141697235Y-103696878D01*
X141485103Y-103484746D01*
X142545763Y-102424086D01*
X142545763Y-102424086D01*
G37*
G36*
X142192210Y-102070532D02*
X142404342Y-102282664D01*
X141343682Y-103343324D01*
X141131550Y-103131192D01*
X142192210Y-102070532D01*
X142192210Y-102070532D01*
G37*
G36*
X141838656Y-101716979D02*
X142050788Y-101929111D01*
X140990128Y-102989771D01*
X140777996Y-102777639D01*
X141838656Y-101716979D01*
X141838656Y-101716979D01*
G37*
G36*
X141485103Y-101363425D02*
X141697235Y-101575557D01*
X140636575Y-102636217D01*
X140424443Y-102424085D01*
X141485103Y-101363425D01*
X141485103Y-101363425D01*
G37*
G36*
X141131549Y-101009872D02*
X141343681Y-101222004D01*
X140283021Y-102282664D01*
X140070889Y-102070532D01*
X141131549Y-101009872D01*
X141131549Y-101009872D01*
G37*
G36*
X140777996Y-100656319D02*
X140990128Y-100868451D01*
X139929468Y-101929111D01*
X139717336Y-101716979D01*
X140777996Y-100656319D01*
X140777996Y-100656319D01*
G37*
G36*
X140424443Y-100302765D02*
X140636575Y-100514897D01*
X139575915Y-101575557D01*
X139363783Y-101363425D01*
X140424443Y-100302765D01*
X140424443Y-100302765D01*
G37*
G36*
X140070889Y-99949212D02*
X140283021Y-100161344D01*
X139222361Y-101222004D01*
X139010229Y-101009872D01*
X140070889Y-99949212D01*
X140070889Y-99949212D01*
G37*
G36*
X139717336Y-99595658D02*
X139929468Y-99807790D01*
X138868808Y-100868450D01*
X138656676Y-100656318D01*
X139717336Y-99595658D01*
X139717336Y-99595658D01*
G37*
G36*
X139363782Y-99242105D02*
X139575914Y-99454237D01*
X138515254Y-100514897D01*
X138303122Y-100302765D01*
X139363782Y-99242105D01*
X139363782Y-99242105D01*
G37*
G36*
X139010229Y-98888552D02*
X139222361Y-99100684D01*
X138161701Y-100161344D01*
X137949569Y-99949212D01*
X139010229Y-98888552D01*
X139010229Y-98888552D01*
G37*
G36*
X138656676Y-98534998D02*
X138868808Y-98747130D01*
X137808148Y-99807790D01*
X137596016Y-99595658D01*
X138656676Y-98534998D01*
X138656676Y-98534998D01*
G37*
G36*
X138303122Y-98181445D02*
X138515254Y-98393577D01*
X137454594Y-99454237D01*
X137242462Y-99242105D01*
X138303122Y-98181445D01*
X138303122Y-98181445D01*
G37*
G36*
X135757538Y-99242105D02*
X135545406Y-99454237D01*
X134484746Y-98393577D01*
X134696878Y-98181445D01*
X135757538Y-99242105D01*
X135757538Y-99242105D01*
G37*
G36*
X135403984Y-99595658D02*
X135191852Y-99807790D01*
X134131192Y-98747130D01*
X134343324Y-98534998D01*
X135403984Y-99595658D01*
X135403984Y-99595658D01*
G37*
G36*
X135050431Y-99949212D02*
X134838299Y-100161344D01*
X133777639Y-99100684D01*
X133989771Y-98888552D01*
X135050431Y-99949212D01*
X135050431Y-99949212D01*
G37*
G36*
X134696878Y-100302765D02*
X134484746Y-100514897D01*
X133424086Y-99454237D01*
X133636218Y-99242105D01*
X134696878Y-100302765D01*
X134696878Y-100302765D01*
G37*
G36*
X134343324Y-100656318D02*
X134131192Y-100868450D01*
X133070532Y-99807790D01*
X133282664Y-99595658D01*
X134343324Y-100656318D01*
X134343324Y-100656318D01*
G37*
G36*
X133989771Y-101009872D02*
X133777639Y-101222004D01*
X132716979Y-100161344D01*
X132929111Y-99949212D01*
X133989771Y-101009872D01*
X133989771Y-101009872D01*
G37*
G36*
X133636217Y-101363425D02*
X133424085Y-101575557D01*
X132363425Y-100514897D01*
X132575557Y-100302765D01*
X133636217Y-101363425D01*
X133636217Y-101363425D01*
G37*
G36*
X133282664Y-101716979D02*
X133070532Y-101929111D01*
X132009872Y-100868451D01*
X132222004Y-100656319D01*
X133282664Y-101716979D01*
X133282664Y-101716979D01*
G37*
G36*
X132929111Y-102070532D02*
X132716979Y-102282664D01*
X131656319Y-101222004D01*
X131868451Y-101009872D01*
X132929111Y-102070532D01*
X132929111Y-102070532D01*
G37*
G36*
X132575557Y-102424085D02*
X132363425Y-102636217D01*
X131302765Y-101575557D01*
X131514897Y-101363425D01*
X132575557Y-102424085D01*
X132575557Y-102424085D01*
G37*
G36*
X132222004Y-102777639D02*
X132009872Y-102989771D01*
X130949212Y-101929111D01*
X131161344Y-101716979D01*
X132222004Y-102777639D01*
X132222004Y-102777639D01*
G37*
G36*
X131868450Y-103131192D02*
X131656318Y-103343324D01*
X130595658Y-102282664D01*
X130807790Y-102070532D01*
X131868450Y-103131192D01*
X131868450Y-103131192D01*
G37*
G36*
X131514897Y-103484746D02*
X131302765Y-103696878D01*
X130242105Y-102636218D01*
X130454237Y-102424086D01*
X131514897Y-103484746D01*
X131514897Y-103484746D01*
G37*
G36*
X131161344Y-103838299D02*
X130949212Y-104050431D01*
X129888552Y-102989771D01*
X130100684Y-102777639D01*
X131161344Y-103838299D01*
X131161344Y-103838299D01*
G37*
G36*
X130807790Y-104191852D02*
X130595658Y-104403984D01*
X129534998Y-103343324D01*
X129747130Y-103131192D01*
X130807790Y-104191852D01*
X130807790Y-104191852D01*
G37*
G36*
X130454237Y-104545406D02*
X130242105Y-104757538D01*
X129181445Y-103696878D01*
X129393577Y-103484746D01*
X130454237Y-104545406D01*
X130454237Y-104545406D01*
G37*
G36*
X130242105Y-106242462D02*
X130454237Y-106454594D01*
X129393577Y-107515254D01*
X129181445Y-107303122D01*
X130242105Y-106242462D01*
X130242105Y-106242462D01*
G37*
G36*
X130595658Y-106596016D02*
X130807790Y-106808148D01*
X129747130Y-107868808D01*
X129534998Y-107656676D01*
X130595658Y-106596016D01*
X130595658Y-106596016D01*
G37*
G36*
X130949212Y-106949569D02*
X131161344Y-107161701D01*
X130100684Y-108222361D01*
X129888552Y-108010229D01*
X130949212Y-106949569D01*
X130949212Y-106949569D01*
G37*
G36*
X131302765Y-107303122D02*
X131514897Y-107515254D01*
X130454237Y-108575914D01*
X130242105Y-108363782D01*
X131302765Y-107303122D01*
X131302765Y-107303122D01*
G37*
G36*
X131656318Y-107656676D02*
X131868450Y-107868808D01*
X130807790Y-108929468D01*
X130595658Y-108717336D01*
X131656318Y-107656676D01*
X131656318Y-107656676D01*
G37*
G36*
X132009872Y-108010229D02*
X132222004Y-108222361D01*
X131161344Y-109283021D01*
X130949212Y-109070889D01*
X132009872Y-108010229D01*
X132009872Y-108010229D01*
G37*
G36*
X132363425Y-108363783D02*
X132575557Y-108575915D01*
X131514897Y-109636575D01*
X131302765Y-109424443D01*
X132363425Y-108363783D01*
X132363425Y-108363783D01*
G37*
G36*
X132716979Y-108717336D02*
X132929111Y-108929468D01*
X131868451Y-109990128D01*
X131656319Y-109777996D01*
X132716979Y-108717336D01*
X132716979Y-108717336D01*
G37*
G36*
X133070532Y-109070889D02*
X133282664Y-109283021D01*
X132222004Y-110343681D01*
X132009872Y-110131549D01*
X133070532Y-109070889D01*
X133070532Y-109070889D01*
G37*
G36*
X133424085Y-109424443D02*
X133636217Y-109636575D01*
X132575557Y-110697235D01*
X132363425Y-110485103D01*
X133424085Y-109424443D01*
X133424085Y-109424443D01*
G37*
G36*
X133777639Y-109777996D02*
X133989771Y-109990128D01*
X132929111Y-111050788D01*
X132716979Y-110838656D01*
X133777639Y-109777996D01*
X133777639Y-109777996D01*
G37*
G36*
X134131192Y-110131550D02*
X134343324Y-110343682D01*
X133282664Y-111404342D01*
X133070532Y-111192210D01*
X134131192Y-110131550D01*
X134131192Y-110131550D01*
G37*
G36*
X134484746Y-110485103D02*
X134696878Y-110697235D01*
X133636218Y-111757895D01*
X133424086Y-111545763D01*
X134484746Y-110485103D01*
X134484746Y-110485103D01*
G37*
G36*
X134838299Y-110838656D02*
X135050431Y-111050788D01*
X133989771Y-112111448D01*
X133777639Y-111899316D01*
X134838299Y-110838656D01*
X134838299Y-110838656D01*
G37*
G36*
X135191852Y-111192210D02*
X135403984Y-111404342D01*
X134343324Y-112465002D01*
X134131192Y-112252870D01*
X135191852Y-111192210D01*
X135191852Y-111192210D01*
G37*
G36*
X135545406Y-111545763D02*
X135757538Y-111757895D01*
X134696878Y-112818555D01*
X134484746Y-112606423D01*
X135545406Y-111545763D01*
X135545406Y-111545763D01*
G37*
D11*
X156500000Y-107750000D03*
X156500000Y-109250000D03*
D12*
X142750000Y-110000000D03*
X144250000Y-110000000D03*
X143250000Y-100500000D03*
X144750000Y-100500000D03*
X129750000Y-98500000D03*
X128250000Y-98500000D03*
X143250000Y-98500000D03*
X144750000Y-98500000D03*
D13*
X169000000Y-111272280D03*
X169000000Y-108270000D03*
D14*
X133500000Y-113750000D03*
X133500000Y-115250000D03*
D12*
X129750000Y-100500000D03*
X128250000Y-100500000D03*
D13*
X166000000Y-111272280D03*
X166000000Y-108270000D03*
D12*
X130250000Y-111000000D03*
X128750000Y-111000000D03*
D13*
X163000000Y-111272280D03*
X163000000Y-108270000D03*
X148500000Y-118001140D03*
X148500000Y-114998860D03*
D14*
X128000000Y-108250000D03*
X128000000Y-106750000D03*
X146500000Y-117250000D03*
X146500000Y-118750000D03*
D15*
X121998860Y-100000000D03*
X125001140Y-100000000D03*
D13*
X144000000Y-118001140D03*
X144000000Y-114998860D03*
D14*
X128000000Y-104250000D03*
X128000000Y-102750000D03*
X133500000Y-118250000D03*
X133500000Y-116750000D03*
X142000000Y-117250000D03*
X142000000Y-118750000D03*
X139500000Y-116750000D03*
X139500000Y-118250000D03*
D16*
X121250700Y-107000000D03*
X122749300Y-107000000D03*
X121250700Y-109000000D03*
X122749300Y-109000000D03*
D17*
X153699100Y-115714611D03*
X154349100Y-115714611D03*
X154999100Y-115714611D03*
X155649100Y-115714611D03*
X156299100Y-115714611D03*
D18*
X121250000Y-111500000D03*
X122750000Y-111500000D03*
X124250000Y-111500000D03*
X125750000Y-111500000D03*
D11*
X171500000Y-111750000D03*
X171500000Y-110250000D03*
X173500000Y-110250000D03*
X173500000Y-111750000D03*
X159000000Y-98750000D03*
X159000000Y-100250000D03*
D18*
X178500000Y-111280000D03*
X180000000Y-111280000D03*
D19*
X176630000Y-107290000D03*
X176630000Y-110190000D03*
D18*
X178500000Y-106200000D03*
X180000000Y-106200000D03*
X124250000Y-107000000D03*
X125750000Y-107000000D03*
X124250000Y-109000000D03*
X125750000Y-109000000D03*
D11*
X158500000Y-107750000D03*
X158500000Y-109250000D03*
D20*
X130475000Y-113800000D03*
X129825000Y-113800000D03*
X129175000Y-113800000D03*
X128525000Y-113800000D03*
X128525000Y-118200000D03*
X129175000Y-118200000D03*
X129825000Y-118200000D03*
X130475000Y-118200000D03*
D21*
X173449960Y-108420240D03*
X173449960Y-107770000D03*
X173449960Y-107119760D03*
X171550040Y-107119760D03*
X171550040Y-107770000D03*
X171550040Y-108420240D03*
D22*
X135350000Y-118425000D03*
X137650000Y-118425000D03*
X137650000Y-116575000D03*
X135350000Y-116575000D03*
D23*
X128370000Y-96080000D03*
X128370000Y-90920000D03*
X130910000Y-96080000D03*
X130910000Y-90920000D03*
X133450000Y-96080000D03*
X133450000Y-90920000D03*
X135990000Y-96080000D03*
X135990000Y-90920000D03*
X138530000Y-96080000D03*
X138530000Y-90920000D03*
X141070000Y-96080000D03*
X141070000Y-90920000D03*
X143610000Y-96080000D03*
X143610000Y-90920000D03*
X146150000Y-96080000D03*
X146150000Y-90920000D03*
X148690000Y-96080000D03*
X148690000Y-90920000D03*
X151230000Y-96080000D03*
X151230000Y-90920000D03*
X153770000Y-96080000D03*
X153770000Y-90920000D03*
X156310000Y-96080000D03*
X156310000Y-90920000D03*
X158850000Y-96080000D03*
X158850000Y-90920000D03*
X161390000Y-96080000D03*
X163930000Y-96080000D03*
X166470000Y-96080000D03*
X169010000Y-96080000D03*
X171550000Y-96080000D03*
X174090000Y-96080000D03*
X176630000Y-96080000D03*
X176630000Y-90920000D03*
X174090000Y-90920000D03*
X171550000Y-90920000D03*
X169010000Y-90920000D03*
X166470000Y-90920000D03*
X163930000Y-90920000D03*
X161390000Y-90920000D03*
D11*
X142000000Y-114250000D03*
X142000000Y-115750000D03*
X146500000Y-114250000D03*
X146500000Y-115750000D03*
D24*
X152450000Y-110999240D03*
X150550000Y-110999240D03*
X151500000Y-112998220D03*
D25*
X150400000Y-107550000D03*
X150400000Y-108500000D03*
X150400000Y-109450000D03*
X152600000Y-109450000D03*
X152600000Y-107550000D03*
X152600000Y-108500000D03*
D11*
X154500000Y-109250000D03*
X154500000Y-107750000D03*
X154500000Y-110750000D03*
X154500000Y-112250000D03*
D26*
X158500000Y-112250000D03*
D27*
X158500000Y-110550000D03*
X156500000Y-110550000D03*
X156500000Y-112450000D03*
D16*
X121250700Y-104000000D03*
X122749300Y-104000000D03*
D18*
X124250000Y-104000000D03*
X125750000Y-104000000D03*
D12*
X148250000Y-112000000D03*
X146750000Y-112000000D03*
X144250000Y-112000000D03*
X142750000Y-112000000D03*
D25*
X148600000Y-109450000D03*
X148600000Y-108500000D03*
X148600000Y-107550000D03*
X146400000Y-107550000D03*
X146400000Y-109450000D03*
D28*
X169800000Y-98595000D03*
X169800000Y-99865000D03*
X169800000Y-101135000D03*
X169800000Y-102405000D03*
X175200000Y-102405000D03*
X175200000Y-101135000D03*
X175200000Y-99865000D03*
X175200000Y-98595000D03*
D18*
X179250000Y-98500000D03*
X177750000Y-98500000D03*
X179250000Y-102500000D03*
X177750000Y-102500000D03*
X179250000Y-100500000D03*
X177750000Y-100500000D03*
D14*
X167500000Y-98250000D03*
X167500000Y-99750000D03*
M02*
